<svg xmlns="http://www.w3.org/2000/svg" width="276" height="276" viewBox="0 0 276 276">
  <g id="Group_2343" data-name="Group 2343" transform="translate(-502 -447)">
    <circle id="Ellipse_795" data-name="Ellipse 795" cx="138" cy="138" r="138" transform="translate(502 447)" fill="#00a0c0" opacity="0.06"/>
    <g id="Group_2342" data-name="Group 2342" transform="translate(556.641 497)">
      <path id="Path_7001" data-name="Path 7001" d="M590.159,240.266c6.326-4.673,15.233-6.465,22.2-2.819a36.24,36.24,0,0,0-18.033,17.141c-1.455,2.961-2.764,6.4-5.766,7.773a8.1,8.1,0,0,1-6.006,0,24.068,24.068,0,0,1-5.351-3.011l-.509-.061C579.716,252.026,583.833,244.939,590.159,240.266Z" transform="translate(-485.119 -217.611)" fill="#f0f0f0"/>
      <path id="Path_7002" data-name="Path 7002" d="M612.572,241.841a30.975,30.975,0,0,0-17.94,6.428,13.334,13.334,0,0,0-2.923,2.987,7.652,7.652,0,0,0-1.261,3.824,15.836,15.836,0,0,1-.439,3.808,4.683,4.683,0,0,1-2.614,2.8,12.172,12.172,0,0,1-4.774.816,11.949,11.949,0,0,0-5.3.909c-.2.1-.346-.211-.148-.313,2.847-1.474,6.174-.512,9.166-1.39a4.743,4.743,0,0,0,3.238-2.635,12.291,12.291,0,0,0,.519-3.857,8.158,8.158,0,0,1,1.094-3.785,12.332,12.332,0,0,1,2.8-3.088,30.054,30.054,0,0,1,8.131-4.7A31.525,31.525,0,0,1,612.6,241.5C612.825,241.489,612.793,241.834,612.572,241.841Z" transform="translate(-485.386 -221.85)" fill="#fff"/>
      <path id="Path_7003" data-name="Path 7003" d="M641.007,245.531a4.647,4.647,0,0,1,1.091-5.918c.173-.14.4.122.226.263a4.3,4.3,0,0,0-1,5.507C641.433,245.576,641.119,245.723,641.007,245.531Z" transform="translate(-530.177 -220.49)" fill="#fff"/>
      <path id="Path_7004" data-name="Path 7004" d="M622.1,284.071a8.957,8.957,0,0,0,6.495-.654c.2-.1.346.212.148.314a9.317,9.317,0,0,1-6.759.667C621.764,284.336,621.882,284.01,622.1,284.071Z" transform="translate(-517.073 -251.491)" fill="#fff"/>
      <path id="Path_7005" data-name="Path 7005" d="M673.252,245.7a2.63,2.63,0,0,0,1.809,1.72c.216.058.1.384-.117.326a2.948,2.948,0,0,1-2.006-1.9.18.18,0,0,1,.083-.231A.174.174,0,0,1,673.252,245.7Z" transform="translate(-553.194 -224.752)" fill="#fff"/>
      <path id="Path_7006" data-name="Path 7006" d="M616.834,304.3c-.136-.032-.271-.065-.409-.1a34.658,34.658,0,0,0-5.558-.828c-.144-.012-.291-.022-.436-.03a36.518,36.518,0,0,0-13.334,1.73,35.472,35.472,0,0,0-4.981,2.054c-2.218,1.119-4.534,2.509-6.922,2.82a6.1,6.1,0,0,1-.751.059l-8.834-9.295c-.01-.031-.021-.061-.031-.092l-.37-.355.244-.143c.046-.028.094-.053.141-.081s.063-.036.091-.054l.029-.016c.027-.018.055-.032.08-.048q.7-.4,1.413-.794s0,0,.006,0a52.155,52.155,0,0,1,11.374-4.756c.119-.032.24-.066.363-.094a33.831,33.831,0,0,1,5.437-.973,29.869,29.869,0,0,1,3.025-.126,24.881,24.881,0,0,1,7.669,1.3,19.755,19.755,0,0,1,11.582,9.464C616.719,304.07,616.777,304.186,616.834,304.3Z" transform="translate(-484.066 -258.418)" fill="#f0f0f0"/>
      <path id="Path_7007" data-name="Path 7007" d="M617.217,316.948a30.973,30.973,0,0,0-18.194-5.669,13.336,13.336,0,0,0-4.132.625,7.65,7.65,0,0,0-3.309,2.294,15.836,15.836,0,0,1-2.643,2.776,4.684,4.684,0,0,1-3.773.662,12.171,12.171,0,0,1-4.3-2.222,11.947,11.947,0,0,0-4.783-2.468c-.22-.037-.149-.377.071-.339,3.16.537,5.237,3.308,8.155,4.409a4.743,4.743,0,0,0,4.172-.154,12.286,12.286,0,0,0,2.737-2.767,8.162,8.162,0,0,1,3.152-2.363,12.328,12.328,0,0,1,4.093-.782,30.049,30.049,0,0,1,9.322,1.143,31.526,31.526,0,0,1,9.669,4.6C617.632,316.819,617.4,317.075,617.217,316.948Z" transform="translate(-484.588 -270.97)" fill="#fff"/>
      <path id="Path_7008" data-name="Path 7008" d="M661.982,301.788a4.647,4.647,0,0,1,4.434-4.068c.223-.008.245.338.022.346a4.3,4.3,0,0,0-4.117,3.792C662.295,302.08,661.956,302.008,661.982,301.788Z" transform="translate(-545.452 -261.624)" fill="#fff"/>
      <path id="Path_7009" data-name="Path 7009" d="M629.84,320.073a8.956,8.956,0,0,0,5.58,3.388c.22.038.149.378-.071.339a9.317,9.317,0,0,1-5.8-3.537C629.415,320.085,629.706,319.9,629.84,320.073Z" transform="translate(-522.485 -277.388)" fill="#fff"/>
      <path id="Path_7010" data-name="Path 7010" d="M694.417,318.934a2.63,2.63,0,0,0,.409,2.462c.137.176-.154.365-.29.19a2.947,2.947,0,0,1-.458-2.723.179.179,0,0,1,.205-.134.174.174,0,0,1,.134.205Z" transform="translate(-568.052 -276.485)" fill="#fff"/>
      <path id="Path_7011" data-name="Path 7011" d="M466.785,203.953H466.1V185.2a10.854,10.854,0,0,0-10.854-10.854H415.514A10.854,10.854,0,0,0,404.66,185.2V288.084a10.854,10.854,0,0,0,10.854,10.854h39.732A10.854,10.854,0,0,0,466.1,288.084V217.3h.685Z" transform="translate(-363.415 -174.345)" fill="#3f3d56"/>
      <path id="Path_7012" data-name="Path 7012" d="M462.926,184H457.74a3.851,3.851,0,0,1-3.565,5.305H431.412A3.851,3.851,0,0,1,427.847,184H423A8.106,8.106,0,0,0,414.9,192.1V294.836A8.106,8.106,0,0,0,423,302.942h39.924a8.106,8.106,0,0,0,8.106-8.106h0V192.1A8.106,8.106,0,0,0,462.926,184Z" transform="translate(-370.657 -181.173)" fill="#fff"/>
      <path id="Path_7013" data-name="Path 7013" d="M459.336,369.516a22.384,22.384,0,1,1,22.079-18.727A22.36,22.36,0,0,1,459.336,369.516Zm0-43.885a21.266,21.266,0,0,0-9.765,2.342,21.521,21.521,0,1,0,9.765-2.342Z" transform="translate(-386.261 -280.748)" fill="#f0f0f0"/>
      <path id="Path_7014" data-name="Path 7014" d="M4.816.037A4.235,4.235,0,0,1,8.333,5.5L15.77,11.69l-2.662,5.437L2.729,8.232A4.258,4.258,0,0,1,4.816.037Z" transform="matrix(0.951, 0.309, -0.309, 0.951, 31.043, 42.819)" fill="#ffb6b6"/>
      <path id="Path_7015" data-name="Path 7015" d="M418.258,374.923a22.288,22.288,0,0,0-1.289-5.551c-1.608-4.209-12-7.669-13.4-8.115l-.354-3.935-14.438-1.554L386.95,360.8l-5.178,1.943a2.543,2.543,0,0,0-1.516,1.554h0l-4.646,1.343-4.584,1.325-7.678-12.873-.752.492-5.026,3.28-.775.506,12.362,20.245,7.657-1.8,5.758-1.355.491,2-1.272,7.01a21.936,21.936,0,0,0,28.367,2.267l3.271-2.9a21.908,21.908,0,0,0,4.918-8.64Z" transform="translate(-324.23 -302.569)" fill="#e4e4e4"/>
      <circle id="Ellipse_793" data-name="Ellipse 793" cx="10.396" cy="10.396" r="10.396" transform="translate(59.904 33.511) rotate(-18.319)" fill="#ffb6b6"/>
      <path id="Path_7016" data-name="Path 7016" d="M480.283,263.769a7.015,7.015,0,0,1,4.248-2.83,6.7,6.7,0,0,1,4.94.906,10.116,10.116,0,0,1,5-.852,5.335,5.335,0,0,1,4.128,2.715,7.41,7.41,0,0,0,.6,1.158c.689.919,1.969,1.038,3.1,1.082l-1.715,1,1.709.8-2.326.888c1.8,1.586,2.241,4.41,1.558,6.777a13.508,13.508,0,0,1-3.787,5.743,8.628,8.628,0,0,1,.269-3.759c.25-1.318.29-2.86-.633-3.791a4.3,4.3,0,0,0-2.4-.97,116.343,116.343,0,0,0-13.132-1.559,3.713,3.713,0,0,0-1.75.179c-1.072.476-1.5,1.784-1.813,2.943a23.336,23.336,0,0,1,.354-6.086A11.148,11.148,0,0,1,480.283,263.769Z" transform="translate(-415.453 -235.507)" fill="#2f2e41"/>
      <path id="Path_7017" data-name="Path 7017" d="M497.852,506.014H485.564a1.609,1.609,0,0,1,0-3.218h12.288a1.609,1.609,0,0,1,0,3.218Z" transform="translate(-419.511 -406.701)" fill="#00a0c0"/>
      <path id="Path_7018" data-name="Path 7018" d="M310.819,213.785H285.269a1.176,1.176,0,1,1,0-2.351h25.549a1.176,1.176,0,1,1,0,2.351Z" transform="translate(-272.799 -200.583)" fill="#67c6d8"/>
      <path id="Path_7019" data-name="Path 7019" d="M330.333,239.448H285.269a1.175,1.175,0,1,1,0-2.351h45.064a1.175,1.175,0,0,1,0,2.351Z" transform="translate(-272.799 -218.738)" fill="#67c6d8"/>
      <path id="Path_7020" data-name="Path 7020" d="M320.088,263.626H285.269a1.175,1.175,0,1,1,0-2.351h34.819a1.175,1.175,0,0,1,0,2.351Z" transform="translate(-272.799 -235.842)" fill="#cdecf1"/>
      <path id="Path_7021" data-name="Path 7021" d="M301.306,287.714H285.269a1.176,1.176,0,1,1,0-2.351h16.037a1.176,1.176,0,0,1,0,2.351Z" transform="translate(-272.799 -252.883)" fill="#cdecf1"/>
      <path id="Path_7022" data-name="Path 7022" d="M314.722,311.8H285.269a1.176,1.176,0,1,1,0-2.351h29.453a1.176,1.176,0,0,1,0,2.351Z" transform="translate(-272.799 -269.922)" fill="#cdecf1"/>
      <path id="Path_7023" data-name="Path 7023" d="M485.25,507.973h-3.029l-1.441-11.685h4.471Z" transform="translate(-337.074 -351.091)" fill="#9f616a"/>
      <path id="Path_7024" data-name="Path 7024" d="M746.262,709.786H734.7v-.146a4.5,4.5,0,0,1,4.5-4.5h0l2.112-1.6,3.942,1.6h1.009Z" transform="translate(-596.894 -548.712)" fill="#2f2e41"/>
      <path id="Path_7025" data-name="Path 7025" d="M758.353,465.56l-1.336-16.29-1.05-6.114,5.877-1.3,1.95,8.371-1.7,15.783a2.718,2.718,0,1,1-3.742-.452Z" transform="translate(-611.941 -363.592)" fill="#9f616a"/>
      <path id="Path_7026" data-name="Path 7026" d="M430.251,507.973h-3.029l-1.441-11.685h4.471Z" transform="translate(-298.165 -351.091)" fill="#9f616a"/>
      <path id="Path_7027" data-name="Path 7027" d="M692.7,534.583l-1.343,2.323s-1.476.4-.993,5.213.5,33.309,2.837,36.816l.422,3.011,4.408.421.111-2.672,5.256-37.122s3.1,36.442,5.656,37.334l.925,3.036,4.04,0-.238-3.578.26-45.161Z" transform="translate(-565.463 -428.923)" fill="#2f2e41"/>
      <path id="Path_7028" data-name="Path 7028" d="M693.312,434.568l-.093-.024c2.772-10.368,1.972-23.793.015-38.208v-.06l7.075-6.48h6.144l6.091,3.931a9.727,9.727,0,0,1,4.841,6.18l.006.03-2.413,8.421,1.818,24.354,0,.028-.01.026c-.588,1.491-2.165,1.279-3.99,1.033s-8.536,2-10.595,2A41.653,41.653,0,0,1,693.312,434.568Z" transform="translate(-567.551 -326.761)" fill="#e4e4e4"/>
      <path id="Path_7029" data-name="Path 7029" d="M753.174,411.673l2.639-1.148,3.477,4.264,2.819,13.662-9.655-1.463Z" transform="translate(-609.457 -341.426)" fill="#e4e4e4"/>
      <path id="Path_7030" data-name="Path 7030" d="M607.852,462.846l12.066-11.026,4.193-4.572,4.623,3.854-5.427,6.665-13.523,8.315a2.718,2.718,0,1,1-1.932-3.236Z" transform="translate(-504.731 -367.406)" fill="#9f616a"/>
      <path id="Path_7031" data-name="Path 7031" d="M656.5,427.019l3.342-4.34c.028-.062,2.8-6.258,5.2-8.95,2.465-2.762,4.406-1.349,4.425-1.334l.048.036.134,10.2L660.4,433.686Z" transform="translate(-541.572 -342.484)" fill="#e4e4e4"/>
      <circle id="Ellipse_794" data-name="Ellipse 794" cx="5.632" cy="5.632" r="5.632" transform="translate(128.759 60.684) rotate(-80.783)" fill="#9f616a"/>
      <path id="Path_7032" data-name="Path 7032" d="M706.183,344.628a16.4,16.4,0,0,0-.3-2.856c-.25-.876-.751-1.627-.5-1.627s.376-.626.376-.626.25-.125.375,0,.251-.876.251-.876.125-.376.25-.125.125.125.25-.25.751-.626.751-.626,2.378.125,2.753-.376,4.631-.125,5.507.5,4.756,2.879,4.13,4.756a41.265,41.265,0,0,1-2.879,6.634c-.714.685-1.208.932-4.586,1.6-.661.132-4.035-2.026-4.035-2.4s.407-1.566-.247-1.73c-.988-.247-1.1,1-1.35.627A17.86,17.86,0,0,1,706.183,344.628Z" transform="translate(-576.11 -289.437)" fill="#2f2e41"/>
      <path id="Path_7033" data-name="Path 7033" d="M691.262,709.786H679.7v-.146a4.5,4.5,0,0,1,4.5-4.5h0l2.112-1.6,3.942,1.6h1.009Z" transform="translate(-557.985 -548.712)" fill="#2f2e41"/>
      <line id="Line_55" data-name="Line 55" x2="147" transform="translate(9.86 158.228)" fill="none" stroke="#cdecf1" stroke-width="2"/>
      <line id="Line_56" data-name="Line 56" x2="160" transform="translate(3.36 167.228)" fill="none" stroke="#cdecf1" stroke-width="2"/>
      <line id="Line_57" data-name="Line 57" x2="92" transform="translate(64.86 176.228)" fill="none" stroke="#cdecf1" stroke-width="2"/>
    </g>
  </g>
</svg>
