<svg xmlns="http://www.w3.org/2000/svg" xmlns:xlink="http://www.w3.org/1999/xlink" width="200" height="200" viewBox="0 0 200 200">
  <defs>
    <clipPath id="clip-path">
      <rect id="Rectangle_1479" data-name="Rectangle 1479" width="200" height="200" rx="100" transform="translate(441 371)" fill="#fff"/>
    </clipPath>
  </defs>
  <g id="Data_Not_Found" data-name="Data Not Found" transform="translate(-441 -371)">
    <rect id="Rectangle_1477" data-name="Rectangle 1477" width="200" height="200" rx="100" transform="translate(441 371)" opacity="0.03"/>
    <g id="Mask_Group_18" data-name="Mask Group 18" clip-path="url(#clip-path)">
      <g id="undraw_add_document_re_mbjx" transform="translate(417 420.066)">
        <rect id="Rectangle_1478" data-name="Rectangle 1478" width="103.313" height="137.75" rx="4" transform="translate(76.44 14.183)" fill="#fff"/>
        <path id="Path_2621" data-name="Path 2621" d="M635.916,312.891H563.6a1.845,1.845,0,1,1,0-3.69h72.319a1.845,1.845,0,0,1,0,3.69Z" transform="translate(-471.66 -267.868)" fill="#e6e6e6"/>
        <path id="Path_2624" data-name="Path 2624" d="M635.916,361.391H563.6a1.845,1.845,0,1,1,0-3.69h72.319a1.845,1.845,0,1,1,0,3.69Z" transform="translate(-471.66 -304.439)" fill="#e6e6e6"/>
        <path id="Path_2625" data-name="Path 2625" d="M635.916,409.891H563.6a1.845,1.845,0,1,1,0-3.69h72.319a1.845,1.845,0,0,1,0,3.69Z" transform="translate(-471.66 -341.008)" fill="#e6e6e6"/>
        <path id="Path_2626" data-name="Path 2626" d="M635.916,458.391H563.6a1.845,1.845,0,1,1,0-3.69h72.319a1.845,1.845,0,0,1,0,3.69Z" transform="translate(-471.66 -377.578)" fill="#e6e6e6"/>
        <path id="Path_2627" data-name="Path 2627" d="M635.916,506.891H563.6a1.845,1.845,0,1,1,0-3.69h72.319a1.845,1.845,0,1,1,0,3.69Z" transform="translate(-471.66 -414.148)" fill="#e6e6e6"/>
        <path id="Path_7036" data-name="Path 7036" d="M509.725,410.989a3.068,3.068,0,0,0-.1.47l-12.818,6.47-2.921-1.906-3.453,4.032,4.844,3.877a2.316,2.316,0,0,0,2.778.087l13.369-9.386a3.039,3.039,0,1,0-1.7-3.645Z" transform="translate(-417.888 -342.974)" fill="#ffb6b6"/>
        <path id="Path_7037" data-name="Path 7037" d="M478.38,427.708l-4.249,5.024a1.3,1.3,0,0,1-1.973.02l-4.334-4.925a3.618,3.618,0,0,1,4.689-5.512l5.559,3.444a1.3,1.3,0,0,1,.308,1.949Z" transform="translate(-399.876 -352.508)" fill="#6c63ff"/>
        <path id="Path_7038" data-name="Path 7038" d="M254.1,569.462h3.016l1.435-11.632H254.1Z" transform="translate(-191.593 -420.613)" fill="#ffb6b6"/>
        <path id="Path_7039" data-name="Path 7039" d="M446.47,742.285h5.939a3.785,3.785,0,0,1,3.785,3.785v.123H446.47Z" transform="translate(-384.736 -594.421)" fill="#2f2e41"/>
        <path id="Path_7040" data-name="Path 7040" d="M251.336,463.293l.858,2.891,11.56-1.932-1.266-4.267Z" transform="translate(-189.512 -346.837)" fill="#ffb6b6"/>
        <path id="Path_7041" data-name="Path 7041" d="M438.3,610.466l1.689,5.694h0a3.786,3.786,0,0,1-2.552,4.705l-.118.035-2.765-9.323Z" transform="translate(-375.75 -495.028)" fill="#2f2e41"/>
        <path id="Path_2622" data-name="Path 2622" d="M714.954,615.947H666.975c-.676,0-1.224-.826-1.224-1.845s.548-1.845,1.224-1.845h47.979c.676,0,1.224.826,1.224,1.845S715.629,615.947,714.954,615.947Z" transform="translate(-550.077 -496.378)" fill="#e6e6e6"/>
        <path id="Path_2623" data-name="Path 2623" d="M714.954,658.948H666.975c-.676,0-1.224-.826-1.224-1.845s.548-1.845,1.224-1.845h47.979c.676,0,1.224.826,1.224,1.845S715.629,658.948,714.954,658.948Z" transform="translate(-550.077 -528.802)" fill="#e6e6e6"/>
        <circle id="Ellipse_512" data-name="Ellipse 512" cx="14.183" cy="14.183" r="14.183" transform="translate(165.57 0)" fill="#67c6d8"/>
        <path id="Path_2642" data-name="Path 2642" d="M899.362,176.909a.936.936,0,1,0,0,1.872h4.974v4.974a.936.936,0,1,0,1.872,0v-4.974h4.974a.936.936,0,0,0,0-1.872h-4.974v-4.974a.936.936,0,1,0-1.872,0v4.974Z" transform="translate(-725.518 -163.662)" fill="#fff"/>
        <path id="Path_2632" data-name="Path 2632" d="M502.532,531.145h0a4.935,4.935,0,0,1-4.2,2.4l-18.125,5.8-.829-4.807,10.975-5.955-10.633-7.658,7.79-9.116,14.149,13.188A4.936,4.936,0,0,1,502.532,531.145Z" transform="translate(-409.553 -420.637)" fill="#2f2e41"/>
        <path id="Path_2633" data-name="Path 2633" d="M440.489,523.37h-4.475c-4.018-27.542-8.108-55.161,3.978-65.471l14.254,2.321-1.823,12.1-7.956,9.116Z" transform="translate(-373.798 -379.989)" fill="#2f2e41"/>
        <path id="Path_2637" data-name="Path 2637" d="M466.654,396.111c-6.033,4.111-13.826,3.145-17.079-2.981,4.674-7.871,5.658-13.529,1.9-16.112a8.923,8.923,0,0,1,5.447-10.76h0l7.127,2.984c6.051,4.933,7.243,10.276,4.973,15.912Z" transform="translate(-387.077 -310.89)" fill="#facd48"/>
        <rect id="Rectangle_53" data-name="Rectangle 53" width="199" height="0.492" transform="translate(0 151.441)" fill="#cacaca"/>
        <path id="Path_438" data-name="Path 438" d="M347.015,665.594a5.648,5.648,0,0,0,5.455-.961c1.911-1.6,2.509-4.245,3-6.691l1.442-7.235-3.018,2.078a21.982,21.982,0,0,0-5.893,5.2c-1.5,2.165-2.159,5.12-.951,7.462" transform="translate(-309.296 -525.37)" fill="#e6e6e6"/>
        <path id="Path_439" data-name="Path 439" d="M348.922,693.771a36.251,36.251,0,0,1-.5-8.368,13.157,13.157,0,0,1,2.538-6.9,11.482,11.482,0,0,1,2.945-2.669c.3-.186.566.281.272.466a10.913,10.913,0,0,0-4.316,5.208,17.493,17.493,0,0,0-.929,7.535c.1,1.535.306,3.061.515,4.584a.279.279,0,0,1-.188.332.27.27,0,0,1-.332-.188Z" transform="translate(-310.737 -544.284)" fill="#f2f2f2"/>
        <path id="Path_440" data-name="Path 440" d="M252.323,714.208a4.2,4.2,0,0,0,3.861,1.435c1.829-.31,3.207-1.78,4.439-3.166l3.647-4.1-2.718.2a16.352,16.352,0,0,0-5.737,1.121,5.551,5.551,0,0,0-3.417,4.429" transform="translate(-238.346 -568.855)" fill="#e6e6e6"/>
        <path id="Path_441" data-name="Path 441" d="M239.587,731.574a21.706,21.706,0,0,1,2.27-4.468,7.869,7.869,0,0,1,3.395-2.792,6.86,6.86,0,0,1,2.326-.486c.208-.007.207.316,0,.323a6.524,6.524,0,0,0-3.8,1.381,10.457,10.457,0,0,0-2.758,3.605c-.414.821-.768,1.671-1.121,2.52a.167.167,0,0,1-.2.114A.163.163,0,0,1,239.587,731.574Z" transform="translate(-228.738 -580.505)" fill="#f2f2f2"/>
        <path id="Path_442" data-name="Path 442" d="M361.851,717.03a4.157,4.157,0,0,0,3.623,1.87c1.834-.087,3.363-1.368,4.739-2.583l4.071-3.594-2.694-.129a16.189,16.189,0,0,0-5.771.418,5.5,5.5,0,0,0-3.885,3.946" transform="translate(-320.931 -571.983)" fill="#e6e6e6"/>
        <path id="Path_443" data-name="Path 443" d="M346.261,729.753c1.829-3.236,3.95-6.832,7.74-7.982a8.643,8.643,0,0,1,3.256-.336c.346.03.259.563-.086.533a8.024,8.024,0,0,0-5.2,1.375,13.509,13.509,0,0,0-3.571,3.854c-.59.9-1.121,1.839-1.651,2.777C346.585,730.272,346.09,730.056,346.261,729.753Z" transform="translate(-309.15 -578.675)" fill="#f2f2f2"/>
        <path id="Path_461" data-name="Path 461" d="M961.721,699.632a4.359,4.359,0,0,1-4.209-.741c-1.474-1.238-1.936-3.276-2.312-5.164l-1.113-5.584,2.329,1.6a16.972,16.972,0,0,1,4.547,4.014,5.761,5.761,0,0,1,.734,5.759" transform="translate(-767.487 -553.598)" fill="#e6e6e6"/>
        <path id="Path_462" data-name="Path 462" d="M973.619,726.678a19.594,19.594,0,0,0,.272-4.512,7.1,7.1,0,0,0-1.369-3.721,6.187,6.187,0,0,0-1.588-1.439c-.159-.1-.3.152-.148.251a5.885,5.885,0,0,1,2.328,2.808,9.431,9.431,0,0,1,.5,4.063c-.053.828-.165,1.65-.278,2.472a.151.151,0,0,0,.1.179.148.148,0,0,0,.179-.1Z" transform="translate(-780.029 -575.343)" fill="#f2f2f2"/>
        <path id="Path_7042" data-name="Path 7042" d="M418.431,424.521a2.643,2.643,0,0,0,1.831-3.615L430,398.9l-5.573-1.4-7.823,22.075a2.657,2.657,0,0,0,1.823,4.952Z" transform="translate(-361.124 -334.443)" fill="#ffb6b6"/>
        <path id="Path_7043" data-name="Path 7043" d="M451.45,385.1l-5.42-2.537a1.185,1.185,0,0,1-.486-1.727l3.294-4.974a3.291,3.291,0,1,1,5.952,2.807l-1.7,5.7a1.185,1.185,0,0,1-1.638.733Z" transform="translate(-383.889 -316.706)" fill="#facd48"/>
        <path id="Path_7044" data-name="Path 7044" d="M471.9,312.167H457.636a1.108,1.108,0,0,1-1.107-1.107v-6.15a8.24,8.24,0,0,1,16.481,0v6.15A1.108,1.108,0,0,1,471.9,312.167Z" transform="translate(-392.32 -258.42)" fill="#2f2e41"/>
        <circle id="Ellipse_138" data-name="Ellipse 138" cx="6.042" cy="6.042" r="6.042" transform="translate(68.441 41.57)" fill="#ffb6b6"/>
        <path id="Path_7045" data-name="Path 7045" d="M487.722,312.311H479l-.089-1.252-.447,1.252h-1.343l-.177-2.482-.887,2.482h-2.6v-.123a6.526,6.526,0,0,1,6.519-6.519h1.23a6.526,6.526,0,0,1,6.519,6.519Z" transform="translate(-405.083 -265.206)" fill="#2f2e41"/>
      </g>
    </g>
  </g>
</svg>
