<svg xmlns="http://www.w3.org/2000/svg" xmlns:xlink="http://www.w3.org/1999/xlink" width="200" height="200" viewBox="0 0 200 200">
  <defs>
    <clipPath id="clip-path">
      <rect id="Rectangle_1479" data-name="Rectangle 1479" width="200" height="200" rx="100" transform="translate(441 371)" fill="#fff"/>
    </clipPath>
  </defs>
  <g id="Data_Not_Found" data-name="Data Not Found" transform="translate(-441 -371)">
    <rect id="Rectangle_1477" data-name="Rectangle 1477" width="200" height="200" rx="100" transform="translate(441 371)" opacity="0.03"/>
    <g id="Mask_Group_18" data-name="Mask Group 18" clip-path="url(#clip-path)">
      <g id="undraw_mailbox_re_dvds" transform="translate(493 423.862)">
        <path id="Path_7057" data-name="Path 7057" d="M353.187,587.087a9.136,9.136,0,0,0,3.278-7.875,7.385,7.385,0,0,0-5.491-6.27,6.216,6.216,0,0,0-7.079,3.934c-.484-5.456-1.042-11.14-3.943-15.786a16.718,16.718,0,0,0-12.105-7.755,15,15,0,0,0-13.2,5.386,13.613,13.613,0,0,0-1.674,14.016c1.586,3.291,4.509,5.74,7.571,7.733a48.863,48.863,0,0,0,33.42,7.311" transform="translate(-311.75 -437.647)" fill="#f2f2f2"/>
        <path id="Path_7058" data-name="Path 7058" d="M341.031,559.828a80.627,80.627,0,0,1,23.691,32.034c.226.554-.673.8-.9.247a79.8,79.8,0,0,0-23.451-31.624c-.464-.378.2-1.032.658-.658Z" transform="translate(-333.254 -442.531)" fill="#fff"/>
        <path id="Path_7059" data-name="Path 7059" d="M477.264,587.087a9.136,9.136,0,0,1-3.278-7.875,7.385,7.385,0,0,1,5.49-6.27,6.216,6.216,0,0,1,7.079,3.934c.484-5.456,1.042-11.14,3.943-15.786a16.718,16.718,0,0,1,12.105-7.755,15,15,0,0,1,13.2,5.386,13.613,13.613,0,0,1,1.674,14.016c-1.586,3.291-4.509,5.74-7.571,7.733a48.863,48.863,0,0,1-33.42,7.311" transform="translate(-434.264 -437.647)" fill="#f2f2f2"/>
        <path id="Path_7060" data-name="Path 7060" d="M551.9,559.828a80.625,80.625,0,0,0-23.69,32.034c-.226.554.673.795.9.247a79.726,79.726,0,0,1,23.451-31.624c.464-.378-.2-1.032-.658-.658Z" transform="translate(-475.244 -442.531)" fill="#fff"/>
        <circle id="Ellipse_145" data-name="Ellipse 145" cx="7.582" cy="7.582" r="7.582" transform="translate(42.135 39.133)" fill="#f2f2f2"/>
        <path id="Path_7062" data-name="Path 7062" d="M460.527,587.418V514.75h12.718v72.668c0,1.017-.493,1.841-1.1,1.842H461.628C461.02,589.259,460.528,588.435,460.527,587.418Z" transform="translate(-424.14 -438.563)" fill="#3f3d56"/>
        <path id="Path_7063" data-name="Path 7063" d="M325.027,336.748v-35.3a21.221,21.221,0,0,1,21.2-21.2h53.89v57.721H326.25A1.224,1.224,0,0,1,325.027,336.748Zm74.6-56.009h-53.4a20.731,20.731,0,0,0-20.707,20.708v35.3a.735.735,0,0,0,.734.734h73.374Z" transform="translate(-321.78 -261.417)" fill="#3f3d56"/>
        <path id="Path_7064" data-name="Path 7064" d="M442.507,253.878a4.407,4.407,0,0,1-4.4-4.4V217.925a.735.735,0,0,0-.734-.734H420.25a1.224,1.224,0,0,1-1.223-1.223v-11.5a1.224,1.224,0,0,1,1.223-1.223h25.436a1.224,1.224,0,0,1,1.223,1.223v45a4.407,4.407,0,0,1-4.4,4.4Z" transform="translate(-392.79 -203.25)" fill="#facd48"/>
        <path id="Path_7065" data-name="Path 7065" d="M596.968,278.25h0a13.912,13.912,0,0,1,13.941,13.883v40.187H638.3a4.149,4.149,0,0,1,4.158,4.14H583.027V292.132a13.912,13.912,0,0,1,13.941-13.883Z" transform="translate(-516.679 -259.906)" fill="#3f3d56"/>
        <circle id="Ellipse_146" data-name="Ellipse 146" cx="1.712" cy="1.712" r="1.712" transform="translate(48.005 44.514)" fill="#fff"/>
      </g>
    </g>
  </g>
</svg>
