<svg xmlns="http://www.w3.org/2000/svg" xmlns:xlink="http://www.w3.org/1999/xlink" width="669.75" height="524.071" viewBox="0 0 669.75 524.071">
  <defs>
    <linearGradient id="linear-gradient" x1="0.571" y1="1.795" x2="0.493" y2="0.379" gradientUnits="objectBoundingBox">
      <stop offset="0" stop-color="#d1d7e0"/>
      <stop offset="1" stop-color="#ebebff"/>
    </linearGradient>
    <linearGradient id="linear-gradient-2" x1="0.5" y1="1.147" x2="0.5" y2="0.24" xlink:href="#linear-gradient"/>
    <linearGradient id="linear-gradient-3" y1="0.5" x2="1" y2="0.5" gradientUnits="objectBoundingBox">
      <stop offset="0.005" stop-color="#1a2257"/>
      <stop offset="1" stop-color="#5e60f2"/>
    </linearGradient>
    <linearGradient id="linear-gradient-4" x1="0.5" y1="2.165" x2="0.5" y2="0.322" xlink:href="#linear-gradient"/>
    <linearGradient id="linear-gradient-5" x1="-34.651" y1="0.5" x2="-33.651" y2="0.5" gradientUnits="objectBoundingBox">
      <stop offset="0" stop-color="#3076a1"/>
      <stop offset="1" stop-color="#48c9b6"/>
    </linearGradient>
    <linearGradient id="linear-gradient-6" x1="-17.756" x2="-16.756" xlink:href="#linear-gradient-5"/>
    <linearGradient id="linear-gradient-7" x1="-23.761" x2="-22.761" xlink:href="#linear-gradient-5"/>
    <linearGradient id="linear-gradient-8" x1="-17.099" x2="-16.099" xlink:href="#linear-gradient-5"/>
    <linearGradient id="linear-gradient-9" x1="0.983" y1="0.961" x2="0.233" y2="0.108" xlink:href="#linear-gradient-5"/>
    <linearGradient id="linear-gradient-10" x1="0.079" y1="2.027" x2="0.485" y2="0.07" gradientUnits="objectBoundingBox">
      <stop offset="0" stop-color="#c9c4c1"/>
      <stop offset="1" stop-color="#fff6de"/>
    </linearGradient>
    <linearGradient id="linear-gradient-11" x1="-0.105" y1="0.5" x2="0.895" y2="0.5" xlink:href="#linear-gradient-10"/>
    <linearGradient id="linear-gradient-13" x1="0" y1="0.5" x2="1" y2="0.5" xlink:href="#linear-gradient"/>
  </defs>
  <g id="Group_10603" data-name="Group 10603" transform="translate(-498.839 -268.546)">
    <path id="Rectangle_5" data-name="Rectangle 5" d="M58.669,0h51.1a58.67,58.67,0,0,1,58.67,58.67v51.1a58.669,58.669,0,0,1-58.669,58.669h-51.1A58.669,58.669,0,0,1,0,109.773v-51.1A58.669,58.669,0,0,1,58.669,0Z" transform="translate(741.904 338.15)" opacity="0.95" fill="url(#linear-gradient)"/>
    <rect id="Rectangle_6" data-name="Rectangle 6" width="77.986" height="3.853" transform="translate(787.133 468.243)" fill="#96bfe6"/>
    <rect id="Rectangle_7" data-name="Rectangle 7" width="55.894" height="3.853" transform="translate(798.178 480.383)" fill="#96bfe6"/>
    <rect id="Rectangle_8" data-name="Rectangle 8" width="230.532" height="270.593" rx="69.115" transform="translate(938.057 396.57)" opacity="0.95" fill="url(#linear-gradient-2)"/>
    <g id="Group_10461" data-name="Group 10461" transform="translate(1042.583 556.202)">
      <rect id="Rectangle_9" data-name="Rectangle 9" width="18.284" height="3.386" transform="translate(0 0)" fill="#4598e6"/>
    </g>
    <g id="Group_11846" data-name="Group 11846" transform="translate(979.645 374.832)">
      <g id="Group_11778" data-name="Group 11778" transform="translate(25.71 91.7)">
        <path id="Path_34278" data-name="Path 34278" d="M1502.63,974.64c-.579,1.1-4.439,42.186-1.407,47.593s17.346-10.306,17.7-36.825C1519.224,963.066,1502.63,974.64,1502.63,974.64Z" transform="translate(-1500.073 -971.643)" fill="#ffb27d"/>
      </g>
      <g id="Group_11779" data-name="Group 11779" transform="translate(0 118.73)">
        <rect id="Rectangle_1789" data-name="Rectangle 1789" width="59.215" height="41.753" transform="translate(56.559 57.414) rotate(-162.777)" fill="#233862"/>
      </g>
      <g id="Group_11785" data-name="Group 11785" transform="translate(52.718)">
        <path id="Path_34284" data-name="Path 34284" d="M1582.592,783c.231-.789,3.016-9.208,16.191-6.351,0,0-6.616-.859-8.441,1.683,0,0,5.256-2.382,8.534-.359s3.79,8.793,3.292,10.85-4.151,8.173-6.554,8.164a7.118,7.118,0,0,1-2.739-.689,31.809,31.809,0,0,1,.962,3.576c2.5,12.017-5.517,21.113-9.636,18.842-2.643-1.457-4.665,3.169-4.665,3.169l-21.86-29.215S1573.061,774.335,1582.592,783Z" transform="translate(-1557.676 -776.064)" fill="#2c3a64"/>
      </g>
      <g id="Group_11786" data-name="Group 11786" transform="translate(55.838 43.106)">
        <path id="Path_34285" data-name="Path 34285" d="M1567.636,909.458c18.1,5.651,20.991-22.731,19.836-22.876-1.949-1.741-4.541-8.459-4.46-18.58l-.884.166-14.82,2.875s.316,4.666.312,9.053c-.007,3.433-.214,6.7-.921,7.447-1.151.16-1.844.269-1.844.269a.047.047,0,0,1-.008.013C1564.627,888.131,1562.807,907.952,1567.636,909.458Z" transform="translate(-1564.33 -868.002)" fill="#ffb27d"/>
      </g>
      <g id="Group_11787" data-name="Group 11787" transform="translate(58.814 43.276)">
        <path id="Path_34286" data-name="Path 34286" d="M1570.679,871.239s.318,4.662.311,9.053c8.289-.2,12.7-7.745,14.51-11.927Z" transform="translate(-1570.679 -868.365)" fill="#ed985f"/>
      </g>
      <g id="Group_11788" data-name="Group 11788" transform="translate(49.586 17.239)">
        <path id="Path_34287" data-name="Path 34287" d="M1557.44,845.891s19.607.4,19.669-11.813,2.633-20.388-9.883-21.16-14.971,3.876-15.984,7.948S1552.342,845.471,1557.44,845.891Z" transform="translate(-1550.996 -812.833)" fill="#ffb27d"/>
      </g>
      <g id="Group_11789" data-name="Group 11789" transform="translate(48.256 14.729)">
        <path id="Path_34288" data-name="Path 34288" d="M1550.346,811.233c3.045-3.661,5.333-2.846,6.612-1.737,10.74-5.85,17.611,2.888,17.611,2.888a23.331,23.331,0,0,0,7.577,13.814s-3.583,2.194-11.814.042a14,14,0,0,1-6.656-4.631,45.74,45.74,0,0,0,7.835,9.646c-9.823-4.588-13.722-18.291-14.11-19.74-1.2,1.07-3.57,3.4-4.3,5.682-.989,3.107-1.455,9.507-3.32,9.282C1549.786,826.481,1545.779,816.725,1550.346,811.233Z" transform="translate(-1548.16 -807.48)" fill="#2c3a64"/>
      </g>
      <g id="Group_11790" data-name="Group 11790" transform="translate(62.8 58.341)">
        <path id="Path_34289" data-name="Path 34289" d="M1593.319,900.495s3.08,1,3.245,3.177c0,0-8.255,15.425-17.385,16.3Z" transform="translate(-1579.179 -900.495)" fill="#91cecf"/>
      </g>
      <g id="Group_11791" data-name="Group 11791" transform="translate(23.99 61.519)">
        <path id="Path_34290" data-name="Path 34290" d="M1506.312,977.47l-7.084,40.4c4.181,2.56,8.221,4.756,12.1,6.64a48.744,48.744,0,0,1,3.186-6.951c-.566,2.078.862,6.676,1.759,9.207,36.134,15.568,57.949,3.606,57.949,3.606-5.422-39.91-1.4-105.618-2.377-110.313-1.853-8.92-19.244-12.79-19.244-12.79a43.6,43.6,0,0,1-17.391,16.3c-4.149-4.1-5.228-15.074-5.228-15.074l-7.25,1.783a27.4,27.4,0,0,0-12.5,6.806c-.311.3-.622.614-.917.934-3.583,3.833-12.908,28.56-12.908,28.56s1.956,6.793,5.552,10.214a42.346,42.346,0,0,0,7.077,5.139Z" transform="translate(-1496.404 -907.274)" fill="#abddda"/>
      </g>
      <g id="Group_11792" data-name="Group 11792" transform="translate(54.949 60.902)">
        <path id="Path_34291" data-name="Path 34291" d="M1570.285,922.875s-4.524-14.975-4-16.919c0,0-3.546.439-3.852,2.492C1562.434,908.448,1566.441,920.946,1570.285,922.875Z" transform="translate(-1562.434 -905.957)" fill="#91cecf"/>
      </g>
      <g id="Group_11793" data-name="Group 11793" transform="translate(53.391 43.276)">
        <path id="Path_34292" data-name="Path 34292" d="M1566.208,868.382s-.873,1.909-2.1,2.12a10.135,10.135,0,0,1-3.585,0c-.434-.2-1.119-1.548-1.413-1.964a60.43,60.43,0,0,1,6.807-.156Z" transform="translate(-1559.112 -868.364)" fill="#fff"/>
      </g>
      <g id="Group_11794" data-name="Group 11794" transform="translate(29.542 94.358)">
        <path id="Path_34293" data-name="Path 34293" d="M1508.246,994a50.368,50.368,0,0,0,7.077,5.139s5.43-20.307,3.813-21.722S1514.546,989.358,1508.246,994Z" transform="translate(-1508.246 -977.313)" fill="#91cecf"/>
      </g>
      <g id="Group_11795" data-name="Group 11795" transform="translate(94.806 87.899)">
        <path id="Path_34294" data-name="Path 34294" d="M1661.125,963.536s25.308,34.457,22.854,46.161c-1.955,9.322-27.565,30.748-27.565,30.748l-6.611-4.265s15.992-23.174,14.59-29.966c-1.091-5.283-16.95-25.305-16.95-25.305Z" transform="translate(-1647.443 -963.536)" fill="#ffb27d"/>
      </g>
      <g id="Group_11796" data-name="Group 11796" transform="translate(82.67 65.805)">
        <path id="Path_34295" data-name="Path 34295" d="M1630.477,916.415s14.036,7.538,26.119,31.468c0,0-7.128,9.485-21.322,14.088s-13.714-22.817-13.714-22.817Z" transform="translate(-1621.559 -916.415)" fill="#abddda"/>
      </g>
      <g id="Group_11797" data-name="Group 11797" transform="translate(44.565 92.744)">
        <path id="Path_34296" data-name="Path 34296" d="M1557.811,973.87l-17.41.043-.113,14.293,7.639,4.3,9.489-3.663Z" transform="translate(-1540.287 -973.87)" fill="#91cecf"/>
      </g>
      <g id="Group_11798" data-name="Group 11798" transform="translate(83.079 159.072)">
        <path id="Path_34297" data-name="Path 34297" d="M1638.227,1117.237s-7.142-2.719-11.136-1.654c-2.256.6-6.44,8.57-3.834,9.773s5.553-3.058,8.76-2.256,7.177,5.464,11.112-2.03Z" transform="translate(-1622.43 -1115.336)" fill="#ffb27d"/>
      </g>
      <g id="Group_11799" data-name="Group 11799" transform="translate(93.278 157.716)">
        <path id="Path_34298" data-name="Path 34298" d="M1649.4,1114.8a34.426,34.426,0,0,1-3.984-2.1c-1.241-.865-1.992.676,0,2.1s2.706.789,2.706.789Z" transform="translate(-1644.183 -1112.444)" fill="#ffb27d"/>
      </g>
      <g id="Group_11800" data-name="Group 11800" transform="translate(1.634 157.619)">
        <path id="Path_34299" data-name="Path 34299" d="M1449.083,1113.816s8.1-3.845,9.747.469-1.2,7.931-3.911,7.08S1447.367,1117.626,1449.083,1113.816Z" transform="translate(-1448.723 -1112.238)" fill="#ffb27d"/>
      </g>
      <g id="Group_11807" data-name="Group 11807" transform="translate(71.492 62.01)">
        <g id="Group_11805" data-name="Group 11805" transform="translate(0 14.041)">
          <g id="Group_11802" data-name="Group 11802" transform="translate(0.624)">
            <g id="Group_11801" data-name="Group 11801">
              <path id="Path_34300" data-name="Path 34300" d="M1610.344,969.566l-.634-.61c.082-.085,8.152-8.6,8.909-20.6a8.842,8.842,0,0,0-4.712-8.392c-2.864-1.446-6.094-.939-8.863,1.389-6.575,5.528-4.933,25.036-4.916,25.232l-.876.078a75.615,75.615,0,0,1-.025-10.723c.559-7.667,2.326-12.8,5.251-15.26,3.052-2.566,6.634-3.112,9.826-1.5a9.732,9.732,0,0,1,5.195,9.232C1618.719,960.737,1610.426,969.479,1610.344,969.566Z" transform="translate(-1599.049 -938.269)" fill="#2b478b"/>
            </g>
          </g>
          <g id="Group_11803" data-name="Group 11803" transform="translate(0 27.091)">
            <path id="Path_34301" data-name="Path 34301" d="M1597.721,997.233a1.264,1.264,0,1,1,1.182,1.342A1.264,1.264,0,0,1,1597.721,997.233Z" transform="translate(-1597.719 -996.048)" fill="#2b478b"/>
          </g>
          <g id="Group_11804" data-name="Group 11804" transform="translate(10.238 29.721)">
            <path id="Path_34302" data-name="Path 34302" d="M1619.557,1002.843a1.264,1.264,0,1,1,1.182,1.342A1.263,1.263,0,0,1,1619.557,1002.843Z" transform="translate(-1619.554 -1001.658)" fill="#2b478b"/>
          </g>
        </g>
        <g id="Group_11806" data-name="Group 11806" transform="translate(12.322)">
          <path id="Path_34303" data-name="Path 34303" d="M1625.794,923.437h-.034a.3.3,0,0,1-.265-.333c.009-.084.93-8.5-1.473-14.367a.3.3,0,1,1,.556-.227c2.462,6.01,1.523,14.576,1.514,14.661A.3.3,0,0,1,1625.794,923.437Z" transform="translate(-1624 -908.321)" fill="#2b478b"/>
        </g>
      </g>
      <g id="Group_11812" data-name="Group 11812" transform="translate(45.981 63.006)">
        <g id="Group_11808" data-name="Group 11808" transform="translate(2.438)">
          <path id="Path_34304" data-name="Path 34304" d="M1548.808,926.826h-.011a.3.3,0,0,1-.289-.312,50.414,50.414,0,0,1,3.4-15.886.3.3,0,1,1,.553.235,49.808,49.808,0,0,0-3.348,15.674A.3.3,0,0,1,1548.808,926.826Z" transform="translate(-1548.507 -910.445)" fill="#2b478b"/>
        </g>
        <g id="Group_11811" data-name="Group 11811" transform="translate(0 13.76)">
          <g id="Group_11809" data-name="Group 11809">
            <path id="Path_34305" data-name="Path 34305" d="M1543.449,943.633a2.937,2.937,0,1,1,3.7,1.894A2.937,2.937,0,0,1,1543.449,943.633Z" transform="translate(-1543.307 -939.793)" fill="#2b478b"/>
          </g>
          <g id="Group_11810" data-name="Group 11810" transform="translate(1.6 1.6)">
            <path id="Path_34306" data-name="Path 34306" d="M1546.786,944.954a1.338,1.338,0,1,1,1.684.863A1.337,1.337,0,0,1,1546.786,944.954Z" transform="translate(-1546.72 -943.206)" fill="#6980e2"/>
          </g>
        </g>
      </g>
    </g>
    <g id="Group_10462" data-name="Group 10462" transform="translate(973.167 587.232)">
      <rect id="Rectangle_10" data-name="Rectangle 10" width="106.394" height="6.556" fill="#96bfe6"/>
      <rect id="Rectangle_11" data-name="Rectangle 11" width="86.035" height="6.557" transform="translate(0 31.477)" fill="#96bfe6"/>
      <rect id="Rectangle_12" data-name="Rectangle 12" width="50.438" height="6.556" transform="translate(0 15.738)" fill="#96bfe6"/>
    </g>
    <g id="Group_10463" data-name="Group 10463" transform="translate(974.998 423.554)">
      <path id="Path_32483" data-name="Path 32483" d="M2122.291,763.9v3.311h19.5v18.3h3.311V763.9Zm-132.4,21.609h3.311v-18.3h19.5V763.9H1989.9Zm151.893,94.417v18.3h-19.5v3.311H2145.1V879.928Zm-148.581,0H1989.9v21.615H2012.7v-3.311h-19.5Z" transform="translate(-1989.895 -763.902)" fill="#4598e6"/>
    </g>
    <g id="Group_10466" data-name="Group 10466" transform="translate(1100.381 586.751)">
      <g id="Group_10464" data-name="Group 10464" transform="translate(0)">
        <path id="Path_32484" data-name="Path 32484" d="M2402.021,1313.936a19.5,19.5,0,1,1,19.5-19.5A19.521,19.521,0,0,1,2402.021,1313.936Zm0-35.223a15.724,15.724,0,1,0,15.724,15.724A15.742,15.742,0,0,0,2402.021,1278.713Z" transform="translate(-2382.523 -1274.94)" fill="#4598e6"/>
      </g>
      <g id="Group_10465" data-name="Group 10465" transform="translate(9.396 13.158)">
        <path id="Path_32485" data-name="Path 32485" d="M2420.805,1330.157l-8.858-8.859,2.668-2.668,6.19,6.19,8.677-8.677,2.669,2.668Z" transform="translate(-2411.947 -1316.142)" fill="#4598e6"/>
      </g>
    </g>
    <path id="Path_32486" data-name="Path 32486" d="M1131.6,1841.664c0,8.178-141.65,14.808-316.383,14.808s-316.383-6.63-316.383-14.808,141.649-14.808,316.383-14.808S1131.6,1833.485,1131.6,1841.664Z" transform="translate(0 -1063.854)" fill="url(#linear-gradient-3)"/>
    <rect id="Rectangle_13" data-name="Rectangle 13" width="101.536" height="87.413" transform="translate(775.358 349.448)" opacity="0.95" fill="url(#linear-gradient-4)"/>
    <g id="Group_10528" data-name="Group 10528" transform="translate(712.006 458.081)">
      <g id="Group_10476" data-name="Group 10476" transform="translate(28.725)">
        <g id="Group_10475" data-name="Group 10475">
          <g id="Group_10474" data-name="Group 10474">
            <g id="Group_10473" data-name="Group 10473">
              <g id="Group_10472" data-name="Group 10472">
                <path id="Path_32494" data-name="Path 32494" d="M1282.412,874.247s10.153,4.966,7.643,18.477-3.621,15.332-.813,20.611,6.122,27.8,3.594,32.068-31.281-18.758-35.269-38.077,2.527-27.911,4.83-31.113S1273.449,869.7,1282.412,874.247Z" transform="translate(-1256.304 -872.018)" fill="#0e2d3d"/>
              </g>
            </g>
          </g>
        </g>
      </g>
      <g id="Group_10477" data-name="Group 10477" transform="translate(48.622 287.701)">
        <path id="Path_32495" data-name="Path 32495" d="M1320.991,1801.013h2.3v-10.853a30.827,30.827,0,0,1,7.346,7.169c2.832,4.159,6.726,3.806,12.656,3.54s5.664-2.655,5.134-6.018-6.549-4.425-8.5-4.956-6.367-8.146-7.788-10a25.415,25.415,0,0,1-2.965-4.956s-1.106-4.514-6.593,0-3.894,13.186-3.275,13.983S1320.991,1801.013,1320.991,1801.013Z" transform="translate(-1318.611 -1772.933)" fill="#163342"/>
      </g>
      <g id="Group_10478" data-name="Group 10478" transform="translate(51.348 288.515)">
        <path id="Path_32496" data-name="Path 32496" d="M1338.4,1791.628c2.035,1.328,7.345,0,7.345,0-1.5-1.947-10.753-14.956-10.753-14.956-5.62-3.275-7.841,1.232-7.841,1.232C1329.44,1778.6,1336.36,1790.3,1338.4,1791.628Z" transform="translate(-1327.148 -1775.479)" fill="#eea886"/>
      </g>
      <g id="Group_10482" data-name="Group 10482" transform="translate(121.477 98.351)">
        <g id="Group_10481" data-name="Group 10481">
          <g id="Group_10480" data-name="Group 10480">
            <g id="Group_10479" data-name="Group 10479">
              <path id="Path_32497" data-name="Path 32497" d="M1547.045,1186.107s3.684.706,4.943-1.026c1.07-1.472,3.517-2.6,4.27-2.951,1.007-.467,3.563-3.052,4.164-1.789s-4.008,4.464-4.841,5.328,4.52,1.247,5.444,2.087-.212,9.67-3.856,8.983-7.082-3.827-7.747-3.821a22.738,22.738,0,0,1-2.671-.4Z" transform="translate(-1546.752 -1179.997)" fill="#eea886"/>
            </g>
          </g>
        </g>
      </g>
      <g id="Group_10486" data-name="Group 10486" transform="translate(132.069 105.75)">
        <g id="Group_10485" data-name="Group 10485">
          <g id="Group_10484" data-name="Group 10484">
            <g id="Group_10483" data-name="Group 10483">
              <path id="Path_32498" data-name="Path 32498" d="M1582.788,1203.166s11.014,2.845,11.589,3.649.386,1.392-.655,1.169-10.722-2.442-10.722-2.442,12.47,5.559,13.086,6.114c.36.326.061,1.485-.507,1.417s-13.243-4.87-13.243-4.87,11.634,5.211,12.01,5.829a.877.877,0,0,1-1.1,1.209c-.889-.327-11.961-4.553-11.961-4.553s8.229,4.325,8.239,5.035c.006.435-.206,1.449-2.294.267s-7.309-3.455-7.309-3.455Z" transform="translate(-1579.92 -1203.166)" fill="#eea886"/>
            </g>
          </g>
        </g>
      </g>
      <g id="Group_10487" data-name="Group 10487" transform="translate(20.539 296.53)">
        <path id="Path_32499" data-name="Path 32499" d="M1231.319,1820.571h1.416v-7.965a17.326,17.326,0,0,1,3.668,6.4c1.151,3.806,5.27,4.934,11.554,4.757s6.372-2.657,5.841-6.374-5.841-5.664-5.841-5.664c-2.39-2.124-8.319-10.93-8.319-10.93a8.288,8.288,0,0,0-6.792,1.393c-2.986,2.411-2.058,7.855-1.969,9.271S1231.319,1820.571,1231.319,1820.571Z" transform="translate(-1230.671 -1800.578)" fill="#163342"/>
      </g>
      <g id="Group_10488" data-name="Group 10488" transform="translate(12.639 123.633)">
        <path id="Path_32500" data-name="Path 32500" d="M1218.816,1262.31s-7.487,9.735-9.518,21.284,1.2,50.313,1.111,56.021-5.4,19.913-4.337,30.666,5.253,64.272,5.253,64.272l11.474-2.276s-.664-54.561,0-59.074,2-20.966,2.261-22.825,16.855-50.66,16.855-58.987S1236.87,1248.724,1218.816,1262.31Z" transform="translate(-1205.931 -1259.166)" fill="#1d3b54"/>
      </g>
      <g id="Group_10489" data-name="Group 10489" transform="translate(37.391 128.144)">
        <path id="Path_32501" data-name="Path 32501" d="M1309.187,1275.73s12.3,46.95,13.762,53.455,3.576,11.87,3.576,14.632c0,6.408-2.381,16.7-2.381,16.7l-15.621,74.711h-14.878s8.289-44.822,8.512-53.587c.224-8.784,6.985-21.257,5.658-24.975s-21.373-46.6-21.373-46.6S1271.265,1262.1,1309.187,1275.73Z" transform="translate(-1283.443 -1273.293)" fill="#1d3b54"/>
      </g>
      <g id="Group_10490" data-name="Group 10490" transform="translate(22.714 296.743)">
        <path id="Path_32502" data-name="Path 32502" d="M1252.592,1812.176l-8.319-10.93-6.792,1.393a30.806,30.806,0,0,0,5.129,8.573C1246.52,1815.571,1252.592,1812.176,1252.592,1812.176Z" transform="translate(-1237.481 -1801.246)" fill="#eea886"/>
      </g>
      <g id="Group_10492" data-name="Group 10492" transform="translate(53.588 50.797)">
        <g id="Group_10491" data-name="Group 10491">
          <path id="Path_32503" data-name="Path 32503" d="M1338.63,1031.084a15.35,15.35,0,0,1,8.9,4.585,58.758,58.758,0,0,1,8.433,12.843c1,2.19,15.073,22.484,15.8,22.941s7.8,2.819,12.488,4.4c7.232,2.434,21.727,7.7,21.727,7.7l-2.879,9.115s-27.257-8.919-34.084-10.6c-8.347-2.057-27.564-26.709-27.564-26.709S1327.133,1038.566,1338.63,1031.084Z" transform="translate(-1334.163 -1031.084)" fill="#285173"/>
        </g>
      </g>
      <g id="Group_10494" data-name="Group 10494" transform="translate(13.992 46.895)">
        <g id="Group_10493" data-name="Group 10493">
          <path id="Path_32504" data-name="Path 32504" d="M1245.382,1019.209s6.57,3.1,8.851,3.558,11.132,11.953,12.683,16.15,0,10.493-3.194,17.884-.182,9.855-1.642,17.245-.99,35.04-.717,39.146-42.709,10.33-51.194,2.848c0,0,5.745-24.919,12.546-32.031,1.471-1.538,1.315-11.788.312-14.343s-12.318-21.625-12.318-21.625-.831-19.342,4.106-23.176c4.288-3.331,15.976-4.518,18.075-5.248S1241.093,1018.57,1245.382,1019.209Z" transform="translate(-1210.169 -1018.865)" fill="#ffbf55"/>
        </g>
      </g>
      <g id="Group_10496" data-name="Group 10496" transform="translate(36.714 30.666)">
        <g id="Group_10495" data-name="Group 10495">
          <path id="Path_32505" data-name="Path 32505" d="M1296.949,977.038s-.2,1.809-.423,4.254c-.087.967-.183,2.035-.27,3.128a73.864,73.864,0,0,0-.344,8.594s-6.829,6.842-14.591-7.984a20.372,20.372,0,0,0,.806-14.438C1279.669,962.265,1296.949,977.038,1296.949,977.038Z" transform="translate(-1281.321 -968.047)" fill="#eea886"/>
        </g>
      </g>
      <g id="Group_10497" data-name="Group 10497" transform="translate(68.212 69.98)">
        <path id="Path_32506" data-name="Path 32506" d="M1383.192,1108.731s1.643-10.93-.1-17.577a42.449,42.449,0,0,1-3.134,13.832Z" transform="translate(-1379.954 -1091.154)" fill="#183c59"/>
      </g>
      <g id="Group_10498" data-name="Group 10498" transform="translate(31.468 47.479)">
        <path id="Path_32507" data-name="Path 32507" d="M1264.894,1021.917s4.7,13.87,17.589,12.85,6.112-11.712,6.112-11.712a28.454,28.454,0,0,0-4.118-2.016c-.9-.174-14.255-.343-14.255-.343Z" transform="translate(-1264.894 -1020.695)" fill="#eea886"/>
      </g>
      <g id="Group_10499" data-name="Group 10499" transform="translate(55.169 49.839)">
        <path id="Path_32508" data-name="Path 32508" d="M1339.112,1028.084s6.753,18.68,6.753,37.718.544,50.051,2.9,59.845,9.068,40.081,9.068,40.081l5.26-2.72s-12.648-48.338-13.6-51.823.725-40.308,1.632-43.391,4.764-16.807,4.164-20.615c-.756-4.8-5.247-11.9-12.5-18.009Z" transform="translate(-1339.112 -1028.084)" fill="#285173"/>
      </g>
      <g id="Group_10500" data-name="Group 10500" transform="translate(5.518 48.116)">
        <path id="Path_32509" data-name="Path 32509" d="M1212.131,1022.691a194.182,194.182,0,0,1,6.324,30.652c2.127,17.212-6.529,97.107-12.332,115.243l-22.489-3.627s4.841-56.473,11.413-66.75,8.662-19.37,1.569-40.821,3.109-32.074,3.109-32.074S1210.16,1022.914,1212.131,1022.691Z" transform="translate(-1183.634 -1022.691)" fill="#285173"/>
      </g>
      <g id="Group_10501" data-name="Group 10501" transform="translate(0.697 86.924)">
        <path id="Path_32510" data-name="Path 32510" d="M1226.118,1162.4l-27.268,47.229-30.313-17.5,26.083-47.913Z" transform="translate(-1168.537 -1144.214)" fill="#616161"/>
      </g>
      <g id="Group_10502" data-name="Group 10502" transform="translate(3.851 90.583)">
        <path id="Path_32511" data-name="Path 32511" d="M1229.554,1171.823l-24.217,41.946-26.922-15.544,23.165-42.553Z" transform="translate(-1178.415 -1155.672)" fill="#e0cec7"/>
      </g>
      <g id="Group_10503" data-name="Group 10503" transform="translate(34.747 93.737)">
        <path id="Path_32512" data-name="Path 32512" d="M1286.472,1174.777l1.7-2.944-10.884-6.284-2.125,2.7Z" transform="translate(-1275.163 -1165.549)" fill="#616161"/>
      </g>
      <g id="Group_10509" data-name="Group 10509" transform="translate(32.254 121.794)">
        <g id="Group_10508" data-name="Group 10508">
          <g id="Group_10507" data-name="Group 10507">
            <g id="Group_10506" data-name="Group 10506">
              <g id="Group_10505" data-name="Group 10505">
                <g id="Group_10504" data-name="Group 10504">
                  <path id="Path_32513" data-name="Path 32513" d="M1279.859,1268.089a5.644,5.644,0,0,1-1.783-.257s-.952-.553-1.653-.9a5.115,5.115,0,0,0-.553-.248,10.334,10.334,0,0,1-3.04-1.286,69.175,69.175,0,0,1-5.474-5.779l2.017-3.067,1.479-3.14s8.965.579,10.178,1.228a3.426,3.426,0,0,1,.335.2,13.151,13.151,0,0,1,1.9,1.94c.172.148,1.789,1.73,1.732,2.4a2.209,2.209,0,0,1-1.074,1.86,5.282,5.282,0,0,1-1.131,2.675,3.283,3.283,0,0,1-1.58,2.43S1280.855,1267.843,1279.859,1268.089Z" transform="translate(-1267.355 -1253.408)" fill="#eea886"/>
                </g>
              </g>
            </g>
          </g>
        </g>
      </g>
      <g id="Group_10511" data-name="Group 10511" transform="translate(0 50.519)">
        <g id="Group_10510" data-name="Group 10510">
          <path id="Path_32514" data-name="Path 32514" d="M1192.634,1030.492s-8.28-2.372-13.025,6.752-4.721,13.018-5.355,17.473c-.6,4.207-3.3,15.693-3.575,16.88s-6.4,15.331-3.589,20.275c2.822,4.97,31.482,19.6,31.3,20.692s4.964-11.059,4.964-11.059-11.6-6.464-13.5-8.454c-3.085-3.233-9.594-6.716-8.256-10.727,1.571-4.711,6.289-20.6,7.384-22.932S1199.615,1033.458,1192.634,1030.492Z" transform="translate(-1166.355 -1030.215)" fill="#285173"/>
        </g>
      </g>
      <g id="Group_10516" data-name="Group 10516" transform="translate(33.917 3.297)">
        <g id="Group_10515" data-name="Group 10515">
          <g id="Group_10514" data-name="Group 10514">
            <g id="Group_10513" data-name="Group 10513">
              <g id="Group_10512" data-name="Group 10512">
                <path id="Path_32515" data-name="Path 32515" d="M1292.007,882.772s14.742,4.633,6.74,30.074-28.136-2.948-26.031-18.448S1292.007,882.772,1292.007,882.772Z" transform="translate(-1272.562 -882.342)" fill="#eea987"/>
              </g>
            </g>
          </g>
        </g>
      </g>
      <g id="Group_10521" data-name="Group 10521" transform="translate(32.754 1.253)">
        <g id="Group_10520" data-name="Group 10520">
          <g id="Group_10519" data-name="Group 10519">
            <g id="Group_10518" data-name="Group 10518">
              <g id="Group_10517" data-name="Group 10517">
                <path id="Path_32516" data-name="Path 32516" d="M1297.775,893.262a33.257,33.257,0,0,1-19.584,8.087s-4.711,5.524-5.073,7.692c0,0-10.937-18.643,2.507-29.819S1302.717,888.657,1297.775,893.262Z" transform="translate(-1268.922 -875.943)" fill="#0e2d3d"/>
              </g>
            </g>
          </g>
        </g>
      </g>
      <g id="Group_10526" data-name="Group 10526" transform="translate(37.055 22.074)">
        <g id="Group_10525" data-name="Group 10525">
          <g id="Group_10524" data-name="Group 10524">
            <g id="Group_10523" data-name="Group 10523">
              <g id="Group_10522" data-name="Group 10522">
                <path id="Path_32517" data-name="Path 32517" d="M1287.5,946.232c-.095-1.852-1.236-6.065-3.987-4.886s.168,9.76,1.994,9.232C1285.511,950.578,1287.729,950.613,1287.5,946.232Z" transform="translate(-1282.389 -941.141)" fill="#eea987"/>
              </g>
            </g>
          </g>
        </g>
      </g>
      <g id="Group_10527" data-name="Group 10527" transform="translate(40.793 36.972)">
        <path id="Path_32518" data-name="Path 32518" d="M1305.221,994.733c-.087.967-.183,2.035-.27,3.129,0,0-6.507-.388-10.856-10.067C1294.378,988.218,1299.146,995.221,1305.221,994.733Z" transform="translate(-1294.095 -987.795)" fill="#a77860"/>
      </g>
    </g>
    <g id="Group_10534" data-name="Group 10534" transform="translate(536.715 536.848)">
      <g id="Group_10529" data-name="Group 10529" transform="translate(64.883 44.705)">
        <path id="Path_32519" data-name="Path 32519" d="M821.521,1411.753c9.453-6.647,20.515-52.974,21.175-80.568.338-14.135,4.516-20.023,8.2-25.219,3.524-4.966,6.567-9.255,4.794-19.1-3.388-18.82,5.519-26.944,5.61-27.024l-1.031-1.176c-.4.347-9.672,8.726-6.117,28.477,1.656,9.2-1.074,13.05-4.53,17.921-3.627,5.112-8.141,11.474-8.49,26.086-.708,29.613-12.018,73.354-20.512,79.326Z" transform="translate(-820.622 -1258.664)" fill="url(#linear-gradient-5)"/>
      </g>
      <g id="Group_10530" data-name="Group 10530" transform="translate(0 108.431)">
        <path id="Path_32520" data-name="Path 32520" d="M663.415,1534.067c-.893-2.023-1.815-4.114-2.861-6.321-5.4-11.4-10.183-13.276-18.108-16.385-1.936-.76-4.131-1.622-6.54-2.7-11.352-5.1-9.154-12.62-7.215-19.253.271-.928.542-1.853.776-2.769,1-3.9-.92-5.859-3.823-8.821a33.12,33.12,0,0,1-6.914-9.271c-2.266-4.737-1.111-7.277.257-8.573,2.88-2.73,9.52-2.227,15.79,1.2a22.818,22.818,0,0,1,5.249,4.52c4,4.185,8.971,9.394,21.551,9.452,7.173.034,11.1,1.024,13.137,3.311,2.31,2.595,1.874,6.48,1.272,11.857-.209,1.859-.445,3.968-.588,6.245a36.431,36.431,0,0,0,7.244,23.484c4.792,5.706,10.7,17.545,8.147,24.832-1.068,3.055-3.457,4.977-7.1,5.713a20.183,20.183,0,0,1-4,.433C670.892,1551.013,667.672,1543.716,663.415,1534.067Zm-29.389-71.529c-5.6-3.056-11.6-3.673-13.965-1.433-1.8,1.7-.949,4.617.078,6.763a31.35,31.35,0,0,0,6.621,8.851c3.039,3.1,5.438,5.549,4.221,10.3-.239.932-.514,1.875-.79,2.819-1.931,6.606-3.755,12.845,6.356,17.389,2.375,1.067,4.551,1.921,6.471,2.675,8,3.139,13.285,5.213,18.95,17.172,1.054,2.225,1.982,4.326,2.878,6.359,4.89,11.083,7.842,17.774,18.533,15.612,3.064-.619,5.061-2.2,5.934-4.7,2.245-6.422-3.127-17.665-7.871-23.312a37.339,37.339,0,0,1-7.606-24.586c.146-2.315.384-4.444.595-6.321.557-4.975.96-8.569-.885-10.644-1.687-1.9-5.381-2.756-11.977-2.786-13.244-.062-18.473-5.537-22.674-9.936a21.4,21.4,0,0,0-4.867-4.228Z" transform="translate(-617.445 -1458.216)" fill="url(#linear-gradient-6)"/>
      </g>
      <g id="Group_10531" data-name="Group 10531" transform="translate(12.125 120.915)">
        <path id="Path_32521" data-name="Path 32521" d="M709.363,1586.648l1.561-.082c-.077-1.467-2.046-36.039-15.928-46.158-15.229-11.1-20.031-23.03-22.317-31.038-2.695-9.435-16.41-11.957-16.992-12.06l-.272,1.54c.133.024,13.335,2.457,15.761,10.95,2.35,8.229,7.281,20.487,22.9,31.871C707.362,1551.356,709.344,1586.3,709.363,1586.648Z" transform="translate(-655.415 -1497.31)" fill="url(#linear-gradient-7)"/>
      </g>
      <g id="Group_10532" data-name="Group 10532" transform="translate(51.376 0)">
        <path id="Path_32522" data-name="Path 32522" d="M790.381,1336.7c-3.266-1.627-3.148-8.167-2.969-18.067.227-12.509.537-29.641-6.012-45.4-6.957-16.74-.752-21.632,5.248-26.364,6.72-5.3,13.067-10.3.885-32.9-5.595-10.376-7.371-17.395-5.59-22.088,1.76-4.638,6.7-6.446,11.928-8.359,9.026-3.3,19.256-7.047,17.934-26.15-.4-5.856.283-9.457,2.167-11.334,2.046-2.038,5.062-1.817,8.552-1.562,5.275.386,11.25.823,16.454-5.968.541-1.7,5.517-16.843,11.47-19.436a4.213,4.213,0,0,1,3.641.02h0c4.109,1.965,6.494,4.3,7.29,7.126,1.386,4.922-2.22,10.474-6.395,16.9-6.561,10.1-14,21.552-6.284,35.177,10.2,18.016,4.811,24.321-2.644,33.047-4.271,5-9.111,10.665-12.347,19.907-2.6,7.433,1.837,14.52,6.13,21.373,5.386,8.6,10.955,17.487-.771,25.2-19.386,12.755-38.531,54.388-38.722,54.807l-.079.173-.15.118c-3.572,2.8-6.171,4.135-8.129,4.135A3.556,3.556,0,0,1,790.381,1336.7Zm47.831-60.176c10.448-6.874,5.748-14.378.305-23.065-4.281-6.833-9.133-14.578-6.281-22.72,3.333-9.518,8.274-15.3,12.634-20.406,7.3-8.55,12.129-14.2,2.471-31.261-8.18-14.451-.132-26.842,6.334-36.8,3.968-6.11,7.4-11.386,6.2-15.627-.668-2.371-2.781-4.38-6.46-6.14h0a2.678,2.678,0,0,0-2.342,0c-5.523,2.405-10.594,18.44-10.645,18.6l-.041.13-.082.109c-5.736,7.58-12.478,7.087-17.9,6.69-3.237-.237-5.794-.424-7.335,1.11-1.517,1.511-2.077,4.821-1.711,10.118,1.4,20.275-9.886,24.407-18.956,27.726-5.1,1.865-9.5,3.476-11,7.446-1.608,4.238.141,10.844,5.5,20.792,12.805,23.749,5.638,29.4-1.293,34.867-5.8,4.572-11.274,8.891-4.772,24.536,6.674,16.06,6.361,33.381,6.131,46.028-.156,8.634-.28,15.453,2.1,16.639,1.394.695,4.061-.478,7.928-3.487C800.557,1328.447,818.893,1289.237,838.212,1276.527Z" transform="translate(-778.327 -1118.674)" fill="url(#linear-gradient-8)"/>
      </g>
      <path id="Path_32523" data-name="Path 32523" d="M696.167,1232.329c9.866-3.383,7.817,15.633,11.986,29.7s46.38,6.138,28.661,41.371,22.408,11.783,10.422,42.528-1.042,63.629-14.07,55.265-7.319-47.081-20.868-51.682-15.76-9.966-2.345-22.473-35.152-24.923-23.166-50.177S684.768,1236.238,696.167,1232.329Z" transform="translate(-663.336 -1195.765)" fill="url(#linear-gradient-9)"/>
      <g id="Group_10533" data-name="Group 10533" transform="translate(39.296 80.123)">
        <path id="Path_32524" data-name="Path 32524" d="M766.491,1492.862c1.241-5.263,11.837-51.583,1.95-57.182-8.714-4.935-8.5-24.129-7.14-42.253,1.2-16.044-19.4-23.543-20.28-23.855l-.523,1.473c.2.072,20.358,7.414,19.244,22.264-1.4,18.614-1.546,38.365,7.929,43.731,7.507,4.251.6,41.477-2.7,55.463Z" transform="translate(-740.498 -1369.572)" fill="#fff"/>
      </g>
      <path id="Path_32525" data-name="Path 32525" d="M811.314,1704l-14.087,53.443h-31.48L751.66,1704Z" transform="translate(-708.8 -1517.077)" fill="url(#linear-gradient-10)"/>
      <path id="Path_32526" data-name="Path 32526" d="M811.314,1704s-31.011,5.823-31.011,53.443H765.747L751.66,1704Z" transform="translate(-708.799 -1517.077)" fill="url(#linear-gradient-11)"/>
    </g>
    <path id="Rectangle_14" data-name="Rectangle 14" d="M48.233,0H75.522a48.233,48.233,0,0,1,48.233,48.233v14.99a48.233,48.233,0,0,1-48.233,48.233H48.234A48.234,48.234,0,0,1,0,63.222V48.233A48.233,48.233,0,0,1,48.233,0Z" transform="translate(926.893 275.773)" opacity="0.95" fill="url(#linear-gradient-2)"/>
    <g id="Group_10535" data-name="Group 10535" transform="translate(983.393 366.15)">
      <rect id="Rectangle_15" data-name="Rectangle 15" width="9.815" height="1.818" fill="#4598e6"/>
    </g>
    <g id="Group_10552" data-name="Group 10552" transform="translate(947.112 295.943)">
      <path id="Path_32540" data-name="Path 32540" d="M1973.643,364.3v1.777h10.466V375.9h1.778V364.3Zm-71.073,11.6h1.778v-9.823h10.466V364.3H1902.57Zm81.539,50.685v9.826h-10.466v1.778h12.244v-11.6Zm-79.762,0h-1.778v11.6h12.244v-1.778h-10.466Z" transform="translate(-1902.57 -364.297)" fill="#4598e6"/>
    </g>
    <g id="Group_10553" data-name="Group 10553" transform="translate(819.571 449.422)">
      <rect id="Rectangle_16" data-name="Rectangle 16" width="13.11" height="2.428" transform="translate(0)" fill="#4598e6"/>
    </g>
    <g id="Group_10554" data-name="Group 10554" transform="translate(770.483 355.647)">
      <path id="Path_32541" data-name="Path 32541" d="M1444.4,551.257v2.374h13.98v13.12h2.374V551.257Zm-94.933,15.494h2.374v-13.12h13.98v-2.374H1349.47Zm108.912,67.7v13.125H1444.4v2.374h16.354v-15.5Zm-106.538,0h-2.374v15.5h16.354v-2.374h-13.98Z" transform="translate(-1349.47 -551.257)" fill="#4598e6"/>
    </g>
    <g id="Group_10593" data-name="Group 10593" transform="translate(858.952 458.081)">
      <g id="Group_10571" data-name="Group 10571" transform="translate(0 37.203)">
        <path id="Path_32557" data-name="Path 32557" d="M1685.65,1031.382l-29.51,16.222-29.635-46.636,35.844-12.451Z" transform="translate(-1626.504 -988.517)" fill="#292c47"/>
      </g>
      <g id="Group_10572" data-name="Group 10572" transform="translate(1.963 38.58)">
        <path id="Path_32558" data-name="Path 32558" d="M1687.962,1032.917l-27.6,15.17-27.714-43.613,33.52-11.644Z" transform="translate(-1632.65 -992.83)" fill="#fff"/>
      </g>
      <g id="Group_10573" data-name="Group 10573" transform="translate(32.39 60.819)">
        <path id="Path_32559" data-name="Path 32559" d="M1762.922,1072.16s-5.136-2.456-7.391-3.74-8.054-3.047-8.522-3.465-17.192-1.45-18.206-2.325-2,2.051,2.334,3,10.366,3.271,10.7,4.964-4.452,2.1-4.936,3.491.136,1.082.821,1.381,5.688-2.471,7.887-1.685,5.562-.3,7.249.275,9.884,3.335,9.884,3.335Z" transform="translate(-1727.931 -1062.468)" fill="#eea886"/>
      </g>
      <g id="Group_10574" data-name="Group 10574" transform="translate(5.6 60.866)">
        <path id="Path_32560" data-name="Path 32560" d="M1666.637,1092.189s-4.315-3.884-6.4-5.509-6.007-6.4-6.584-6.682-8.061-15.636-9.281-16.251,1.154-2.684,3.736,1.031,7.119,8.495,8.844,8.146.241-5.011,1.367-6.011,1.073-.293,1.622.236-.114,6.322,1.484,8.089,1.88,5.359,3.081,6.723,6.992,8.015,6.992,8.015Z" transform="translate(-1644.04 -1062.617)" fill="#eea886"/>
      </g>
      <g id="Group_10575" data-name="Group 10575" transform="translate(121.127 297.183)">
        <path id="Path_32561" data-name="Path 32561" d="M2005.805,1803.461s.933,6.479,1.05,7.452,10.384-.573,10.384-.573l.831-7.713S2007.088,1802.547,2005.805,1803.461Z" transform="translate(-2005.805 -1802.626)" fill="#424773"/>
      </g>
      <g id="Group_10576" data-name="Group 10576" transform="translate(104.251 304.209)">
        <path id="Path_32562" data-name="Path 32562" d="M1970.776,1825.064s-3.253,3.9-6.4,5.606-8.091,2.375-9.951,4.137c-1.343,1.271-4.892,6.745,8.175,6.635s19.368.773,20.767-1.326-2.026-15.491-2.026-15.491S1978.248,1825.739,1970.776,1825.064Z" transform="translate(-1952.959 -1824.625)" fill="#292c47"/>
      </g>
      <g id="Group_10577" data-name="Group 10577" transform="translate(47.563 297.183)">
        <path id="Path_32563" data-name="Path 32563" d="M1775.445,1803.461s.933,6.479,1.05,7.452,10.384-.573,10.384-.573l.831-7.713S1776.729,1802.547,1775.445,1803.461Z" transform="translate(-1775.445 -1802.626)" fill="#424773"/>
      </g>
      <g id="Group_10578" data-name="Group 10578" transform="translate(24.652 304.209)">
        <path id="Path_32564" data-name="Path 32564" d="M1727.552,1825.064s-3.253,3.9-6.4,5.606-14.724,3.1-16.584,4.86c-1.343,1.272-3.576,6.39,14.81,5.912,13.062-.34,19.367.773,20.767-1.326s-2.026-15.491-2.026-15.491S1735.2,1825.814,1727.552,1825.064Z" transform="translate(-1703.699 -1824.625)" fill="#292c47"/>
      </g>
      <g id="Group_10579" data-name="Group 10579" transform="translate(89.069 131.54)">
        <path id="Path_32565" data-name="Path 32565" d="M1928.974,1283.926s9.647,15.327,8.927,29.182,3.5,28.981,4.947,43.454c1.616,16.135,8.227,54.333,8.467,62.963s-1.026,36.191-1.026,36.191l-13.235.3s-11.116-66.779-13.994-73.593-17.155-55.391-17.635-60.841S1928.974,1283.926,1928.974,1283.926Z" transform="translate(-1905.418 -1283.926)" fill="#292c47"/>
      </g>
      <g id="Group_10580" data-name="Group 10580" transform="translate(45.775 128.9)">
        <path id="Path_32566" data-name="Path 32566" d="M1785.911,1280.375s-7.27,37.973-8.229,46.453-1.6,41.036-2.079,46.336-3.2,69.353-5.758,77.227h16.92s12.988-46.564,12.988-68.6,10.034-47.9,16.512-62.432,21.3-14.88,25.286-41.85C1841.55,1277.514,1791.3,1271.821,1785.911,1280.375Z" transform="translate(-1769.845 -1275.658)" fill="#292c47"/>
      </g>
      <g id="Group_10581" data-name="Group 10581" transform="translate(73.466 1.492)">
        <path id="Path_32567" data-name="Path 32567" d="M1879.618,877.876s-12.948-4.836-18.919,5.02-5.395,29.59,1.132,32.016,16.332,1.158,19.673-5.01,6.358-15.084,6.214-21.043S1883.018,879.6,1879.618,877.876Z" transform="translate(-1856.556 -876.69)" fill="#eea886"/>
      </g>
      <g id="Group_10582" data-name="Group 10582" transform="translate(79.761 27.876)">
        <path id="Path_32568" data-name="Path 32568" d="M1876.654,971.6s.539,3.5-.352,5.218,16.775,1.767,16.775,1.767a116.43,116.43,0,0,1,4.153-17.282C1899.95,953.389,1876.654,971.6,1876.654,971.6Z" transform="translate(-1876.27 -959.311)" fill="#eea886"/>
      </g>
      <g id="Group_10583" data-name="Group 10583" transform="translate(74.022)">
        <path id="Path_32569" data-name="Path 32569" d="M1885,901.888s-1.219,2.012-6.2,1.231-11.049-7.4-13.128-8.129-2.1-1.947-2.1-1.947l-1.3,1.9-2.207.139s2.013-5.923-1.024-8.339,3.152-19.172,19.114-13.594c0,0,12.26,3.379,11.814,10.352S1887.741,898.415,1885,901.888Z" transform="translate(-1858.297 -872.019)" fill="#3a3f47"/>
      </g>
      <g id="Group_10584" data-name="Group 10584" transform="translate(78.745 40.337)">
        <path id="Path_32570" data-name="Path 32570" d="M1873.088,1003.17s.056-3.29,1.547-3.606,16.463-1.755,18.294-1.035v3.833S1889.4,1004.533,1873.088,1003.17Z" transform="translate(-1873.088 -998.329)" fill="#e2d2ca"/>
      </g>
      <g id="Group_10585" data-name="Group 10585" transform="translate(79.239 15.946)">
        <path id="Path_32571" data-name="Path 32571" d="M1875.026,924.493c.28-1.169,3.254-4.511,4.392-.933s-1.72,8.392-3.315,7.98S1874.319,927.458,1875.026,924.493Z" transform="translate(-1874.634 -921.951)" fill="#eea886"/>
      </g>
      <g id="Group_10586" data-name="Group 10586" transform="translate(19.265 84.052)">
        <path id="Path_32572" data-name="Path 32572" d="M1686.893,1135.223a.041.041,0,0,1,.025,0C1686.815,1135.266,1686.8,1135.27,1686.893,1135.223Z" transform="translate(-1686.832 -1135.22)" fill="#323657"/>
      </g>
      <g id="Group_10587" data-name="Group 10587" transform="translate(19.353 44.368)">
        <path id="Path_32573" data-name="Path 32573" d="M1791.261,1134.64a136.95,136.95,0,0,1-21.483,3.831c-13.542,1.493-47.376-.54-47.589-2.138s7.278-59.571,6.852-62.557-.655-13.623-.655-13.623c-.167,2.915-3.137,14.82-6.721,21.31-1.3,2.345-5.64,9.695-7.733,8.023-10.136-8.093-25.832-38.59-26.827-38.847.837-.364,7.438-3.4,8.365-3.712.811-.271,8.124,7.471,12.554,12.271,1.976,2.14,3.378,3.694,3.378,3.694,1.279-2.879,5.94-21.013,7.387-27.29,3.267-14.155,2.764-14.743,2.764-14.743,9.907-3,24.944-9.1,24.944-9.1l19.842-.808s18.21,4.008,25.381,7.248c.68.307.683,16.245,2.55,20.425l-5.946,12.544s-3.435,24.848-4.147,35.9C1783.85,1092.142,1791.261,1134.64,1791.261,1134.64Z" transform="translate(-1687.105 -1010.954)" fill="#ffdf69"/>
      </g>
      <g id="Group_10588" data-name="Group 10588" transform="translate(105.253 51.616)">
        <path id="Path_32574" data-name="Path 32574" d="M1978.186,1074.767c-.518,1.672-2.871,3.085-4.4,3.7a5.685,5.685,0,0,1-3.177.32l-.777-.144h0l-13.6-2.522s-2.975-34.264,18.575-42.473C1975.381,1033.836,1982.944,1059.426,1978.186,1074.767Z" transform="translate(-1956.097 -1033.65)" fill="#ffdf69"/>
      </g>
      <g id="Group_10589" data-name="Group 10589" transform="translate(118.99 79.102)">
        <path id="Path_32575" data-name="Path 32575" d="M2003.065,1137.053h0a5.685,5.685,0,0,1-3.177.32l-.777-.144h0l1.341-17.509Z" transform="translate(-1999.111 -1119.72)" fill="#ab9546"/>
      </g>
      <g id="Group_10590" data-name="Group 10590" transform="translate(40.269 92.611)">
        <path id="Path_32576" data-name="Path 32576" d="M1755.984,1165.717l-1.662,7.038s-1.8-7.062-1.716-10.732C1754.581,1164.163,1755.984,1165.717,1755.984,1165.717Z" transform="translate(-1752.602 -1162.023)" fill="#ab9546"/>
      </g>
      <g id="Group_10591" data-name="Group 10591" transform="translate(100.215 3.805)">
        <path id="Path_32577" data-name="Path 32577" d="M1940.32,883.97s16.97-2.125.288,26.221Z" transform="translate(-1940.32 -883.934)" fill="#3a3f47"/>
      </g>
      <g id="Group_10592" data-name="Group 10592" transform="translate(11.917 39.5)">
        <path id="Path_32578" data-name="Path 32578" d="M1665.547,1003.36l-1.725-2.964,13.587-4.688,1.724,2.948Z" transform="translate(-1663.822 -995.709)" fill="#292c47"/>
      </g>
    </g>
    <g id="Group_10594" data-name="Group 10594" transform="translate(1092.688 367.898)" opacity="0.95">
      <path id="Path_32579" data-name="Path 32579" d="M2474.447,608.951h9.626l-2.946-6.111H2471.5Z" transform="translate(-2435.393 -598.618)" fill="url(#linear-gradient-13)"/>
      <path id="Path_32580" data-name="Path 32580" d="M2460.343,608.951h2.293l-2.946-6.111H2457.4Z" transform="translate(-2425.793 -598.618)" fill="url(#linear-gradient-13)"/>
      <path id="Path_32581" data-name="Path 32581" d="M2359.725,592.673H2398.7l-1.294-3.055h-38.977Z" transform="translate(-2358.432 -589.618)" fill="url(#linear-gradient-13)"/>
    </g>
    <g id="Group_10601" data-name="Group 10601" transform="translate(869.042 268.546)">
      <g id="Group_10595" data-name="Group 10595" transform="translate(0 0)">
        <path id="Rectangle_17" data-name="Rectangle 17" d="M2.489,0H14.028a2.489,2.489,0,0,1,2.489,2.489v0a2.488,2.488,0,0,1-2.488,2.488H2.489A2.489,2.489,0,0,1,0,2.489v0A2.489,2.489,0,0,1,2.489,0Z" fill="url(#linear-gradient-13)"/>
      </g>
      <g id="Group_10596" data-name="Group 10596" transform="translate(0 11.936)">
        <rect id="Rectangle_18" data-name="Rectangle 18" width="16.517" height="4.978" rx="2.489" fill="url(#linear-gradient-13)"/>
      </g>
      <g id="Group_10597" data-name="Group 10597" transform="translate(0 23.872)">
        <path id="Rectangle_19" data-name="Rectangle 19" d="M2.489,0H14.028a2.489,2.489,0,0,1,2.489,2.489v0a2.489,2.489,0,0,1-2.489,2.489H2.489A2.489,2.489,0,0,1,0,2.489v0A2.489,2.489,0,0,1,2.489,0Z" fill="url(#linear-gradient-13)"/>
      </g>
      <g id="Group_10598" data-name="Group 10598" transform="translate(23.336 0)">
        <path id="Rectangle_20" data-name="Rectangle 20" d="M2.35,0h0A2.35,2.35,0,0,1,4.7,2.35v.279A2.349,2.349,0,0,1,2.35,4.978h0A2.349,2.349,0,0,1,0,2.629V2.35A2.35,2.35,0,0,1,2.35,0Z" fill="url(#linear-gradient-13)"/>
      </g>
      <g id="Group_10599" data-name="Group 10599" transform="translate(23.336 11.936)">
        <path id="Rectangle_21" data-name="Rectangle 21" d="M2.349,0h0A2.35,2.35,0,0,1,4.7,2.35v.277a2.35,2.35,0,0,1-2.35,2.35h0A2.349,2.349,0,0,1,0,2.628V2.349A2.349,2.349,0,0,1,2.349,0Z" fill="url(#linear-gradient-13)"/>
      </g>
      <g id="Group_10600" data-name="Group 10600" transform="translate(23.336 23.872)">
        <path id="Rectangle_22" data-name="Rectangle 22" d="M2.35,0h0A2.349,2.349,0,0,1,4.7,2.349v.279A2.349,2.349,0,0,1,2.35,4.978h0A2.348,2.348,0,0,1,0,2.629V2.35A2.35,2.35,0,0,1,2.35,0Z" fill="url(#linear-gradient-13)"/>
      </g>
    </g>
    <g id="Group_10602" data-name="Group 10602" transform="translate(818.858 531.364)">
      <path id="Path_32582" data-name="Path 32582" d="M1531.559,1112.469h17.278l-5.288-10.969h-17.278Z" transform="translate(-1518.186 -1101.5)" fill="url(#linear-gradient-13)"/>
      <path id="Path_32583" data-name="Path 32583" d="M1506.242,1112.469h4.117l-5.288-10.969h-4.117Z" transform="translate(-1500.953 -1101.5)" fill="url(#linear-gradient-13)"/>
    </g>
    <g id="Group_11844" data-name="Group 11844" transform="translate(963.327 280.546)">
      <g id="Group_11837" data-name="Group 11837">
        <g id="Group_11815" data-name="Group 11815" transform="translate(27.971 23.881)">
          <path id="Path_34308" data-name="Path 34308" d="M767.969,884.191s6.932,1.217,8.5,5.309,7.183,53.993,7.183,53.993-4.384,3.474-13.8,2.227S767.969,884.191,767.969,884.191Z" transform="translate(-765.121 -884.191)" fill="#aec3ff"/>
        </g>
        <g id="Group_11819" data-name="Group 11819" transform="translate(11.193 22.805)">
          <path id="Path_34312" data-name="Path 34312" d="M684.228,883.877s11.429-7.39,19.627-3.611a15.364,15.364,0,0,1,3.863,3.458c2.963,3.265,8.753,55.132,8.753,55.132s-16.436,5.566-32.243-1.889Z" transform="translate(-684.228 -879.19)" fill="#fff"/>
        </g>
        <g id="Group_11820" data-name="Group 11820" transform="translate(31.47 23.694)">
          <path id="Path_34313" data-name="Path 34313" d="M778.457,883.32s11.57,4.742,13.137,8.385,6.66,26.017,6.66,28.64-8.868.587-10.3-3.645c-1.186-3.514-5.184-14.308-7.293-21.136Z" transform="translate(-778.457 -883.32)" fill="#aec3ff"/>
        </g>
        <g id="Group_11825" data-name="Group 11825" transform="translate(15.065)">
          <g id="Group_11821" data-name="Group 11821" transform="translate(5.049 16.97)">
            <path id="Path_34314" data-name="Path 34314" d="M734.638,862.409a13.017,13.017,0,0,1-8.953-1.823,25.754,25.754,0,0,0,1.908-6.739c.01-.08.018-.156.026-.231a6.883,6.883,0,0,0,.031-1.544h6.53s1.785.816,1.785,1.38q0,.453.008.866c.013.751.043,1.406.082,1.969a17.919,17.919,0,0,0,.334,2.7S737.188,861.909,734.638,862.409Z" transform="translate(-725.685 -852.072)" fill="#ffb27d"/>
          </g>
          <g id="Group_11822" data-name="Group 11822" transform="translate(6.819 18.174)">
            <path id="Path_34315" data-name="Path 34315" d="M742.511,860.679a9.024,9.024,0,0,1-8.463-2.441c-.091-.1-.139-.158-.139-.158.052-.026.107-.05.165-.073,1.841-.746,6.021-.153,8.354.7C742.442,859.46,742.472,860.116,742.511,860.679Z" transform="translate(-733.91 -857.667)" fill="#e2915a"/>
          </g>
          <g id="Group_11823" data-name="Group 11823" transform="translate(4.097 3.914)">
            <path id="Path_34316" data-name="Path 34316" d="M722.5,803.382c.884,4.758,7.023,4.6,9.676,4.3.746-.083,1.216-.178,1.216-.178.842-.225,1.312-1.551,1.53-3.288.433-3.438-.114-8.483-.695-9.774-.874-1.942-2.52-4.042-8.7-2.527S721.369,797.286,722.5,803.382Z" transform="translate(-721.259 -791.4)" fill="#ffb27d"/>
          </g>
          <g id="Group_11824" data-name="Group 11824">
            <path id="Path_34317" data-name="Path 34317" d="M719.521,777.517a14.128,14.128,0,0,0-4.263-3.48c-3.5-1.891-7.97.059-7.989.068-5.05,2.22-6.369,6.084-3.692,12.1,2.831,6.364,5.527,5.648,5.527,5.648s-.572-.356-.521-2.34c0-.113.007-.207.013-.288a1.333,1.333,0,0,0-.421-1.085c-.627-.56-.933-2.253-.408-2.725.633-.568,1.524.122,1.808.654a.776.776,0,0,0,1.108.244c1.572-.994.551-2.981,2.053-4.2s4.549-.2,6.8-1.164C722.488,779.857,720.158,778.4,719.521,777.517Z" transform="translate(-702.222 -773.212)" fill="#233862"/>
          </g>
        </g>
        <g id="Group_11826" data-name="Group 11826" transform="translate(7.93 23.713)">
          <path id="Path_34318" data-name="Path 34318" d="M694.2,947.735q-1.493.384-2.959.628c-.866.148-1.728.257-2.591.331a42.121,42.121,0,0,1-15.547-1.91q-1.94-.556-4.016-1.258c-.148-.05.377.958.983-14.705.061-1.617.125-3.24.188-4.852q.041-1.024.081-2.04c.55-13.853,1.094-26.363,1.209-27.037.263-1.524.508-2.824.776-3.949.782-3.282,1.754-5.082,3.872-6.629.206-.157,1.9-1.011,3.394-1.754,1.238-.615,2.338-1.152,2.338-1.152h0c.493.241,1.084,1.37,1.7,2.954a106.834,106.834,0,0,1,3.219,10.731.105.105,0,0,1,0,.017h0c.549,2.156.944,3.836,1.057,4.318.191.814.443,2.389.739,4.524.4,2.906.883,6.85,1.391,11.326.053.46.1.926.157,1.4q.09.8.182,1.628c.019.176.039.353.057.529.2,1.772.393,3.6.589,5.462.163,1.537,2.494,2.649,2.655,4.212.093.918.286,9.388.536,12.092A34.053,34.053,0,0,1,694.2,947.735Z" transform="translate(-669.065 -883.408)" fill="#aec3ff"/>
        </g>
        <g id="Group_11827" data-name="Group 11827" transform="translate(9.726 42.782)">
          <path id="Path_34319" data-name="Path 34319" d="M683.888,972.024c-.007.031-.4,14.008,10.117,15.706s3.528,2.146,3.528,2.146-19.781-.841-20.108-1.363S683.888,972.024,683.888,972.024Z" transform="translate(-677.414 -972.024)" fill="#9db0f4"/>
        </g>
        <g id="Group_11828" data-name="Group 11828" transform="translate(6.521 61.657)">
          <path id="Path_34320" data-name="Path 34320" d="M681.079,1062.571s-.2.14-.576.384a.144.144,0,0,0-.02.012,49.367,49.367,0,0,1-13.3,5.686q-1.091.3-2.254.557c.061-1.617.125-3.24.188-4.852a20.382,20.382,0,0,1-2.605-.36c.027-.213.056-.426.083-.639.882-.362,1.758-.71,2.6-1.041.688-.269,1.354-.525,1.985-.763,2.847-1.081,4.957-1.814,4.957-1.814l8.428,2.669Z" transform="translate(-662.517 -1059.741)" fill="#9db0f4"/>
        </g>
        <g id="Group_11829" data-name="Group 11829" transform="translate(0 23.713)">
          <path id="Path_34321" data-name="Path 34321" d="M659.528,923.949s-1.083.27-2.807.618a.051.051,0,0,0-.018,0,69.064,69.064,0,0,1-13.3,1.486c-.7-.008-1.4-.035-2.066-.088a20.372,20.372,0,0,1-2.605-.36,8.1,8.1,0,0,1-4.162-1.966c-7.1-7.233,3.875-33.191,6.182-35.717,2.694-2.949,7.612-3.983,10.327-4.338l.328-.042c.955-.114,1.567-.137,1.6-.139h0s-.213.684-.569,1.845c-.138.449-.3.97-.475,1.552-1.668,5.462-4.886,16.2-6.3,22.249a15.352,15.352,0,0,0-.671,4.277c.554,2.068,6.291,3.131,9.926,3.6,1.516.2,2.667.289,2.924.309a.366.366,0,0,1,.054,0l.21.862.5,2.068.495,2.031Z" transform="translate(-632.214 -883.408)" fill="#aec3ff"/>
        </g>
        <g id="Group_11830" data-name="Group 11830" transform="translate(22.731 45.277)">
          <path id="Path_34322" data-name="Path 34322" d="M762.236,1015.04l-24.387-1.027,4.948-30.392,24.387,1.027Z" transform="translate(-737.849 -983.621)" fill="#233862"/>
        </g>
        <g id="Group_11831" data-name="Group 11831" transform="translate(24.324 57.502)">
          <path id="Path_34323" data-name="Path 34323" d="M746.607,1040.479s4.747-.331,4.985.776c.555,2.579-4.081,4.7-5.583,4.552S745.515,1040.307,746.607,1040.479Z" transform="translate(-745.25 -1040.432)" fill="#ffb27d"/>
        </g>
        <g id="Group_11832" data-name="Group 11832" transform="translate(45.503 51.708)">
          <path id="Path_34324" data-name="Path 34324" d="M848.9,1014.274s-4.542-1.42-5.029-.4c-1.137,2.381,2.884,5.514,4.378,5.721S850.006,1014.359,848.9,1014.274Z" transform="translate(-843.674 -1013.506)" fill="#ffb27d"/>
        </g>
        <g id="Group_11833" data-name="Group 11833" transform="translate(18.292 22.187)">
          <path id="Path_34325" data-name="Path 34325" d="M720.218,876.316a8.862,8.862,0,0,0-3,2.388s7.465,12.961,7.432,12.84S722.128,877.976,720.218,876.316Z" transform="translate(-717.22 -876.316)" fill="#9db0f4"/>
        </g>
        <g id="Group_11834" data-name="Group 11834" transform="translate(30.588 22.369)">
          <path id="Path_34326" data-name="Path 34326" d="M774.362,877.165a5.7,5.7,0,0,1,2.2,2.254l.887,11.315s-1.895-8.3-2.859-12.057A6.353,6.353,0,0,1,774.362,877.165Z" transform="translate(-774.362 -877.165)" fill="#9db0f4"/>
        </g>
        <g id="Group_11835" data-name="Group 11835" transform="translate(35.763 44.865)">
          <path id="Path_34327" data-name="Path 34327" d="M798.409,982.457a1.108,1.108,0,0,1,1.3-.745c1.11.1,7.346.4,7.346.4s1.2-.02,1.091.751Z" transform="translate(-798.409 -981.703)" fill="#c65447"/>
        </g>
        <g id="Group_11836" data-name="Group 11836" transform="translate(28.61 16.299)">
          <path id="Path_34328" data-name="Path 34328" d="M765.166,849.627a2.6,2.6,0,0,0,2.116.51c.774-.136,1.208-1.143,1.208-1.143A5.848,5.848,0,0,0,765.166,849.627Z" transform="translate(-765.166 -848.957)" fill="#fff"/>
        </g>
      </g>
      <g id="Group_11838" data-name="Group 11838" transform="translate(14.241 32.871)">
        <rect id="Rectangle_1790" data-name="Rectangle 1790" width="6.313" height="2.831" fill="#ebf3fa"/>
      </g>
    </g>
    <g id="Group_11845" data-name="Group 11845" transform="translate(784.996 335.226)">
      <g id="Group_11746" data-name="Group 11746" transform="translate(0 45.791)">
        <path id="Path_34253" data-name="Path 34253" d="M381.9,880.48s-12.053,1.431-14.7,12.26-13.055,38.347-2.646,44.566c0,0,11.025-14.774,15.215-26.681S381.9,880.48,381.9,880.48Z" transform="translate(-360.023 -880.48)" fill="#ffb27d"/>
      </g>
      <g id="Group_11747" data-name="Group 11747" transform="translate(60.627 51.497)">
        <path id="Path_34254" data-name="Path 34254" d="M538.594,897.15s12.127-1.527,14.773,9.3,11.107,35.01.7,41.229c0,0-11.768-14.259-15.958-26.166S538.594,897.15,538.594,897.15Z" transform="translate(-536.364 -897.076)" fill="#ffb27d"/>
      </g>
      <g id="Group_11748" data-name="Group 11748" transform="translate(23.434 25.681)">
        <path id="Path_34255" data-name="Path 34255" d="M438.881,826.74s-.295,9.116-1.461,13.2l-9.235,6.442,34.763,5.2-8.29-11.455s-2.5-12.223-1.19-16.744S438.881,826.74,438.881,826.74Z" transform="translate(-428.185 -821.985)" fill="#ffb27d"/>
      </g>
      <g id="Group_11749" data-name="Group 11749" transform="translate(34.08 31.694)">
        <path id="Path_34256" data-name="Path 34256" d="M459.149,839.477s2.749,6.618,7.927,6.472,6.356-6,6.356-6Z" transform="translate(-459.149 -839.477)" fill="#ed985f"/>
      </g>
      <g id="Group_11750" data-name="Group 11750" transform="translate(27.517)">
        <path id="Path_34257" data-name="Path 34257" d="M443.532,773.627s-1.672-8.348-2.839-10.876-2.139-13.807,10.794-14.391c0,0,4.959.584,7.682-1.07,0,0,0,1.653-.681,2.236a8.6,8.6,0,0,1,7.973,2.82c3.5,3.889-2.333,17.5-2.042,20.711Z" transform="translate(-440.06 -747.29)" fill="#2c3a64"/>
      </g>
      <g id="Group_11751" data-name="Group 11751" transform="translate(30.756 10.599)">
        <path id="Path_34258" data-name="Path 34258" d="M460.138,803.128c-3.752-.066-10.657-5.061-10.657-11.248v-9.654c0-2.259,1.575-4.107,3.5-4.107H467.3c1.925,0,3.5,1.848,3.5,4.107v9.108C470.8,797.821,464.441,803.2,460.138,803.128Z" transform="translate(-449.481 -778.119)" fill="#ffb27d"/>
      </g>
      <g id="Group_11752" data-name="Group 11752" transform="translate(30.279 8.412)">
        <path id="Path_34259" data-name="Path 34259" d="M448.57,783.207s.02-5.8,4.614-6.693,14.877,2.827,16.336-1.4-19.876-4.157-20.95-1.458S448.57,783.207,448.57,783.207Z" transform="translate(-448.093 -771.759)" fill="#2c3a64"/>
      </g>
      <g id="Group_11753" data-name="Group 11753" transform="translate(12.692 43.633)">
        <path id="Path_34260" data-name="Path 34260" d="M454.05,902.546l-1.486,45.666c-26.844,4.631-55.623.882-55.623.882l2.672-33.552c-.07-.785-.123-1.591-.145-2.416-.031-1.085-.009-2.368.057-3.8.538-11.382,3.978-31.867,6.6-32.969a48.243,48.243,0,0,1,10.791-2.156c0,.137,4,5.984,8.745,6.637a16.437,16.437,0,0,0,8.494-6.447c1.892.22,3.881.494,5.994.895.154.026.313.057.472.088a64.981,64.981,0,0,1,7.418,1.9s3.409,1.323,2.655,25.089Z" transform="translate(-396.94 -874.203)" fill="#abddda"/>
      </g>
      <g id="Group_11754" data-name="Group 11754" transform="translate(38.424 29.14)">
        <path id="Path_34261" data-name="Path 34261" d="M471.786,832.3A4.1,4.1,0,0,0,475,833.821a3.815,3.815,0,0,0,3-1.524A20.361,20.361,0,0,0,471.786,832.3Z" transform="translate(-471.786 -832.046)" fill="#fff"/>
      </g>
      <g id="Group_11755" data-name="Group 11755" transform="translate(4.272 81.155)">
        <path id="Path_34262" data-name="Path 34262" d="M372.71,1004.8c12.18,3.28,19.034-5.2,47.537-16.915l-.864-4.547s-32.77.381-38.514,3.491C373.4,990.874,371.709,1004.532,372.71,1004.8Z" transform="translate(-372.448 -983.34)" fill="#ffb27d"/>
      </g>
      <g id="Group_11756" data-name="Group 11756" transform="translate(0.124 44.37)">
        <path id="Path_34263" data-name="Path 34263" d="M387.778,876.345v0l-2.871,8.5-.133.388-.04.115-.207.622L380.969,896.5l-.353,1.05-3.916,11.6c-.366.035-.728.066-1.081.092-10.192.714-15.237-2.324-15.237-2.324s2.095-13.561,7.166-21.278c3.316-5.05,10.95-7.471,15.832-8.542.159-.031.309-.066.459-.1C386.177,876.512,387.778,876.345,387.778,876.345Z" transform="translate(-360.383 -876.345)" fill="#abddda"/>
      </g>
      <g id="Group_11757" data-name="Group 11757" transform="translate(58.842 45.791)">
        <path id="Path_34264" data-name="Path 34264" d="M532.571,880.48s9.011,1.322,14.964,8.4,7.5,19.428,7.5,19.428a41.33,41.33,0,0,1-17.971,2.646C527.359,910.074,532.571,880.48,532.571,880.48Z" transform="translate(-531.173 -880.48)" fill="#abddda"/>
      </g>
      <g id="Group_11758" data-name="Group 11758" transform="translate(49.614 64.592)">
        <rect id="Rectangle_1788" data-name="Rectangle 1788" width="12.431" height="4.73" fill="#ebf3fa"/>
      </g>
      <g id="Group_11765" data-name="Group 11765" transform="translate(19.079 43.192)">
        <g id="Group_11763" data-name="Group 11763" transform="translate(0 9.52)">
          <g id="Group_11760" data-name="Group 11760">
            <g id="Group_11759" data-name="Group 11759">
              <path id="Path_34265" data-name="Path 34265" d="M417.586,922.659l.586-.269a26.522,26.522,0,0,1-1.189-16.414,6.485,6.485,0,0,1,5.292-4.671,5.762,5.762,0,0,1,5.8,3.1c3.216,5.416-2.636,18.525-2.7,18.656l.588.265a55.357,55.357,0,0,0,2.609-7.417c1.467-5.443,1.485-9.424.054-11.834a6.383,6.383,0,0,0-6.439-3.414,7.136,7.136,0,0,0-5.828,5.136C413.922,914.524,417.549,922.579,417.586,922.659Z" transform="translate(-415.519 -900.609)" fill="#2b478b"/>
            </g>
          </g>
          <g id="Group_11761" data-name="Group 11761" transform="translate(9.226 21.661)">
            <path id="Path_34266" data-name="Path 34266" d="M444.175,964.791a.927.927,0,1,0-1.142.643A.926.926,0,0,0,444.175,964.791Z" transform="translate(-442.355 -963.614)" fill="#2b478b"/>
          </g>
          <g id="Group_11762" data-name="Group 11762" transform="translate(1.503 21.008)">
            <path id="Path_34267" data-name="Path 34267" d="M421.712,962.89a.927.927,0,1,0-1.142.643A.926.926,0,0,0,421.712,962.89Z" transform="translate(-419.892 -961.713)" fill="#2b478b"/>
          </g>
        </g>
        <g id="Group_11764" data-name="Group 11764" transform="translate(7.703)">
          <path id="Path_34268" data-name="Path 34268" d="M438.145,883.049a.2.2,0,0,1-.049-.006.22.22,0,0,1-.166-.263c.014-.062,1.435-6.219,4.592-9.785a.22.22,0,0,1,.33.292c-3.083,3.482-4.478,9.53-4.492,9.59A.221.221,0,0,1,438.145,883.049Z" transform="translate(-437.924 -872.92)" fill="#2b478b"/>
        </g>
      </g>
      <g id="Group_11766" data-name="Group 11766" transform="translate(15.867 78.023)">
        <path id="Path_34269" data-name="Path 34269" d="M418.613,974.253s-12.307-.7-12.439,5.58l11.379-.516Z" transform="translate(-406.174 -974.23)" fill="#ffb27d"/>
      </g>
      <g id="Group_11767" data-name="Group 11767" transform="translate(58.392 80.816)">
        <path id="Path_34270" data-name="Path 34270" d="M532.353,982.787s9.211-2.335,10.754,3.833-13.243,0-13.243,0Z" transform="translate(-529.865 -982.354)" fill="#ed985f"/>
      </g>
      <g id="Group_11772" data-name="Group 11772" transform="translate(50.563 43.413)">
        <g id="Group_11768" data-name="Group 11768">
          <path id="Path_34271" data-name="Path 34271" d="M513.217,884.256a.22.22,0,0,1-.207-.145,36.52,36.52,0,0,0-5.864-10.185.221.221,0,1,1,.333-.289,37.007,37.007,0,0,1,5.945,10.323.221.221,0,0,1-.132.283A.237.237,0,0,1,513.217,884.256Z" transform="translate(-507.093 -873.561)" fill="#2b478b"/>
        </g>
        <g id="Group_11771" data-name="Group 11771" transform="translate(3.971 8.796)">
          <g id="Group_11769" data-name="Group 11769">
            <path id="Path_34272" data-name="Path 34272" d="M522.951,901.3a2.154,2.154,0,1,0-2.155,2.154A2.155,2.155,0,0,0,522.951,901.3Z" transform="translate(-518.642 -899.146)" fill="#2b478b"/>
          </g>
          <g id="Group_11770" data-name="Group 11770" transform="translate(1.173 1.173)">
            <path id="Path_34273" data-name="Path 34273" d="M524.016,903.54a.981.981,0,1,0-.981.981A.981.981,0,0,0,524.016,903.54Z" transform="translate(-522.055 -902.559)" fill="#6980e2"/>
          </g>
        </g>
      </g>
      <g id="Group_11773" data-name="Group 11773" transform="translate(25.812 82.483)">
        <path id="Path_34274" data-name="Path 34274" d="M447.081,996.757s-3.5-4.215-11.979-9.554l14.387,2.715,4.392,3.6-2,1.017Z" transform="translate(-435.101 -987.203)" fill="#ed985f"/>
      </g>
      <g id="Group_11774" data-name="Group 11774" transform="translate(52.341 80.816)">
        <path id="Path_34275" data-name="Path 34275" d="M512.264,983.251l12.267-.9-.856,3.5Z" transform="translate(-512.264 -982.354)" fill="#ed985f"/>
      </g>
      <g id="Group_11775" data-name="Group 11775" transform="translate(23.434 78.046)">
        <path id="Path_34276" data-name="Path 34276" d="M483.079,998.354s-25.284-2.745-54.894-21.425l4.871-2.631s38.834,4.216,43.7,7.872C484.392,987.907,488.8,997.018,483.079,998.354Z" transform="translate(-428.185 -974.297)" fill="#ffb27d"/>
      </g>
      <g id="Group_11776" data-name="Group 11776" transform="translate(15.867 81.341)">
        <path id="Path_34277" data-name="Path 34277" d="M406.174,986.166s8.416-1.439,8.27-1.549-3.059-.993-3.727-.661S406.174,986.166,406.174,986.166Z" transform="translate(-406.174 -983.881)" fill="#ed985f"/>
      </g>
    </g>
  </g>
</svg>
