<svg xmlns="http://www.w3.org/2000/svg" width="70" height="70" viewBox="0 0 70 70">
  <g id="Group_2347" data-name="Group 2347" transform="translate(-1090 -412)">
    <circle id="Ellipse_796" data-name="Ellipse 796" cx="35" cy="35" r="35" transform="translate(1090 412)" fill="#fff" opacity="0.4"/>
    <g id="Icon_ionic-ios-rocket" data-name="Icon ionic-ios-rocket" transform="translate(1107.161 429.011)">
      <path id="Path_7035" data-name="Path 7035" d="M32.47,3.769a.31.31,0,0,0-.232-.239c-3.825-.935-12.663,2.4-17.452,7.186a20.7,20.7,0,0,0-2.327,2.749,8.66,8.66,0,0,0-4.212.527c-3.551,1.561-4.584,5.639-4.873,7.39a.63.63,0,0,0,.689.731l5.7-.626a12.677,12.677,0,0,0,.077,1.287,1.276,1.276,0,0,0,.373.78l2.208,2.208a1.276,1.276,0,0,0,.78.373,12.652,12.652,0,0,0,1.28.077l-.626,5.7a.63.63,0,0,0,.731.689c1.751-.281,5.836-1.315,7.39-4.866a8.7,8.7,0,0,0,.534-4.2,20.73,20.73,0,0,0,2.756-2.327C30.08,16.425,33.391,7.784,32.47,3.769ZM21,15.012a3,3,0,1,1,4.247,0A3,3,0,0,1,21,15.012Z" fill="#4389ff"/>
      <path id="Path_7036" data-name="Path 7036" d="M12.27,26.754h0a2.667,2.667,0,0,1-1.392.563,1.893,1.893,0,0,1-2.18-2.18,2.615,2.615,0,0,1,.555-1.385l.007-.007a.235.235,0,0,0-.2-.4,3.232,3.232,0,0,0-1.891.921c-1.266,1.266-1.385,5.962-1.385,5.962s4.7-.12,5.97-1.385a3.211,3.211,0,0,0,.921-1.891A.241.241,0,0,0,12.27,26.754Z" fill="#4389ff"/>
    </g>
  </g>
</svg>
