<svg xmlns="http://www.w3.org/2000/svg" width="231.134" height="19.77" viewBox="0 0 231.134 19.77">
  <g id="Group_41962" data-name="Group 41962" transform="matrix(1, 0.017, -0.017, 1, -54.157, -128.554)">
    <path id="Path_6965" data-name="Path 6965" d="M115.839,141.2q0,.708,0,1.42c-.578.629-.974.188-1.395-.26h-2.834l-.909.688c-.314-.256-.582-.475-.852-.693l-.4.4a2.118,2.118,0,0,1-.508.141c-.655.016-1.312.007-1.877.007l-.8-.669-1.071.63H103.63l-.571-.487a.889.889,0,0,0-.957.3c-.175.159-.514.121-.746.237-.315.159-.442.629-1.062.545l-.849-.631-1.118.592H95.6l-.54-.54H91.643l-.523-.523H89.385l-.546,1.144-1.042-1.1H84.8l-.634.524a6.758,6.758,0,0,0-1.5-.564c-.493-.063-.925-.1-1.17-.616l-.646.586-18.738,0-.6-.55-.5.5-.682-.516H58.1a3.56,3.56,0,0,1-.248-.294c.259-.277.528-.544.8-.812l1.633-.1c-.626-.581-1.3-.563-1.635-1.038l-.467.468H56.826a4.036,4.036,0,0,1-.02-2.149c.686.344,1.28.764,2.114.317v-2.47l.831-.221.649.605h1.113l.6-.544.477.476.905-.572.895.563.555-.478h1.107l.592.54.7-.643,1.191.6h2.069l.663-.52h2.777l.527-.528.589.511.526-.468,1.789.954.538-.417h1.414c.607-.152.75-.866,1.677-.39.5.35-.154.813-.564,1.228.744.439,1.4.207,2.155.243l.265-1.539.534-.155c.612.124.757.808,1.4,1.018l.5-.411.53.471,2.121-1.152.782.589,6.869,0,.54-.54h3.981l.522-.523,12.473,0,.616-.565c.553-.186.843.212,1.149.545l.5-.5h4.094l.725.6,1.009-.608,8.524,0,.482.483.6-.545,8.5,0,.6-.561c.613-.223.805.391,1.133.527h1.157l.485-.486h5.721l.572.464.593-.5,13.588,0,.629-.583.375.391a1.882,1.882,0,0,0,.514.166c.848.017,1.7.008,2.486.007l.631-.535.374.374,1.7-.5.74.647h1.119l.592-.553,6.813,0,.524-.524c1.072-.136,2.289.033,3.464-.077l.6-.5.49.49.6-.477.594.506h5.664l.582-.54.591.532.429-.429c.52-.122,1.055-.325,1.53.156a1.282,1.282,0,0,0,1.532.17,17.3,17.3,0,0,0,1.724-1H198.6l.528,1.121h.6l1.009-1.01c.735-.4,1.316.1,1.942.333l.427-.427.609.53H208.3l.333-.954c.6-.388,1.274-.017,1.935-.251l.372,1.071a4.027,4.027,0,0,0,1.956.093l.387-1.07h2.338l.6-.6,6.825,0,.525-.525.609.532h1.679l.617-.569h2.25l.507-.507.615.458h4.614l.472-.472.616.506h2.252l.592-.539h2.254l.6.543.4-.4c.075-.048.15-.139.224-.139,2.37-.008,4.739-.007,7.108-.01a1.3,1.3,0,0,0,.262-.053l.457-.458h1.25l.475.475.614-.51h1.684l.593.543h2.256l.62-.577h2.814l.485-.486h1.916l.206.808-1.093.381-.168.825-.943.326c-.009.509.495.656.718,1h.6l.563-1.2,1.016,2.241,1.569.293c-.443.762-1.36-.045-1.71.7.073.073.139.2.207.2.943.013,1.886.009,2.9.008l.522-1.1h.879v.859l.829.811.6-.519h1.681l.593.552h5.041c.357.142.45.655.922.571l-.211.513h-6.953l-.485-.485h-3.36l-.634-.563a3.121,3.121,0,0,1-1.212,1.672c-.588.214-.766-.427-1.2-.572-.838-.413-1.3.553-2.079.577l-.6-.5-.929.625-1.6-1.362-.973,1.453L256,134.986l-.555.478-9.047,0-.617.575-.417-.417a3.99,3.99,0,0,0-1.884-.112l-.485.485-.564-.428c-.6-.123-1.25-.295-1.756.509l-11.978,0-.518.518-8.486,0-.643.582h-4.506l-.627.58-10.785,0-.5.5h-2.843l-.566.566-6.954,0-.46-.459-.7.554h-5.633l-.519.519-7.352,0-.638.583h-2.822l-.6-.544-.4.4c-.075.049-.149.141-.223.141-1.7.009-3.4.007-5.062.008-.47.752-1.125.6-1.769.487l-.447-.446-.615.5h-6.173l-.652.583h-2.816l-.426-.39c-.575-.361-1.241-.1-1.877-.16l-.512.513-1.77.087-.727.629-1-.56-.537.432h-2.82l-.58-.511-.593.542-3.965,0-.422.422a3.918,3.918,0,0,1-1.863.113l-.585-.51c-.654-.234-.808.457-1.41.574l-1.147-.669-.85.581-.56-.511H132.9c.045-.556-.345-.557-.935-.581l-.819,1.136h-1.893l-.626.579H125.81l-.6-.564H124.1l-.6-.566c-.825-.1-1.07.652-1.646,1.078h-3.467l-.83-.775v-.623l1.133-.529c-.4-.493-.91-.2-1.4-.3l-.538,1.108c-.309-.18-.607-.353-.9-.524-.062-.159-.123-.316-.195-.5a3.555,3.555,0,0,0-2.254.227A6,6,0,0,0,115.839,141.2ZM259.7,128.942c-.418-.557-1.013-.349-1.473-.177a11.511,11.511,0,0,0-1.574.953,1.672,1.672,0,0,1-.572.076c-.338-.219-.572-.731-1.223-.533l-.42.818,1.185.685.448-.417c1.132,0,2.256,0,3.379-.009.067,0,.133-.124.237-.229l-.493-.593Zm-2.818,4.8c0-.681.014-1.3-.016-1.924-.005-.091-.22-.173-.339-.26-.237.384-.787.519-.785,1.054C255.841,133.17,256.19,133.49,256.877,133.743Zm-4.839-3.957a1.193,1.193,0,0,0-.082,1.615l1.01-.687ZM106.86,140.853c-2.26-.274-2.26-.274-2.319.237a3.541,3.541,0,0,0,.764.1C105.747,141.151,106.226,141.368,106.86,140.853Zm12.881,1.372-.015-.36c-.254-.033-.506-.081-.76-.09-.062,0-.194.138-.182.18.039.135.125.355.2.36A3.909,3.909,0,0,0,119.741,142.225Zm130.677-12.353-.367.2c.063.063.14.188.187.178a1.784,1.784,0,0,0,.382-.178Zm-40.176,1.35c-.063-.063-.14-.188-.187-.178a1.784,1.784,0,0,0-.382.178c.063.063.14.188.187.178A1.807,1.807,0,0,0,210.242,131.222Zm48.138.759.2-.2a1.8,1.8,0,0,0-.381-.178c-.047-.01-.124.115-.187.178Zm-7.841.451-.2-.367c-.063.063-.188.14-.178.187a1.784,1.784,0,0,0,.178.382Zm2.274,0-.2-.366c-.063.063-.188.14-.178.187a1.777,1.777,0,0,0,.178.381Zm1.706,0-.2-.367c-.063.064-.188.141-.178.187a1.784,1.784,0,0,0,.178.382Zm5.852,0,.2.2a1.808,1.808,0,0,0,.178-.382c.01-.047-.115-.124-.178-.187ZM131.11,135.14l-.2-.2a1.758,1.758,0,0,0-.178.382c-.011.047.114.124.178.187ZM67.7,138.851l.366-.2c-.063-.063-.14-.188-.187-.178a1.808,1.808,0,0,0-.382.178Zm63.411.838-.2-.2a1.738,1.738,0,0,0-.178.382c-.011.047.115.123.178.187Zm1.706.569-.2-.2a1.807,1.807,0,0,0-.178.382c-.01.047.115.124.178.187ZM89.027,141.4l-.2-.2a1.733,1.733,0,0,0-.177.382c-.011.047.114.124.178.187Zm1.99-.12-.2.2a1.784,1.784,0,0,0,.382.178c.047.01.124-.115.187-.178Z" fill="#007aff"/>
    <path id="Path_6966" data-name="Path 6966" d="M273.461,131.459a5.5,5.5,0,0,0,.788.032l.527-1.152,1.43,1.43v.558c-.054.061-.115.19-.176.19-1.759.011-3.518.01-5.365.01l-.17-.65c.388-.709,1.06-.2,1.617-.51l.2-.862.977-.208a5.773,5.773,0,0,0,.174,1.162c-.375.093-.815.052-.429.548A6.365,6.365,0,0,0,273.461,131.459Z" fill="#007aff"/>
    <path id="Path_6967" data-name="Path 6967" d="M282.468,130.684v-.627c.061-.058.126-.175.2-.179.929-.054,1.859-.092,2.735-.131.6.385,1.148.728,1.089,1.554l1.027.364.044.71-1.4.712-1.437-.735,1.152-.543v-.647C284.833,130.511,283.522,131.311,282.468,130.684Z" fill="#007aff"/>
    <path id="Path_6968" data-name="Path 6968" d="M280.193,132.058c.566-.03.682.555,1.1.782v1.2l-.584.642c-.134.108-.2.21-.273.211-.738.012-1.476.008-2.1.008l-.988-.568c.066-.161.118-.453.2-.461.817-.085,1.638-.124,2.443-.175C280.361,133.166,280.123,132.594,280.193,132.058Z" fill="#007aff"/>
    <path id="Path_6969" data-name="Path 6969" d="M272.183,128.645v.935c-.441.415-.927.134-1.359.23-.249-.325-.7-.493-.762-.977C270.676,128.514,271.325,128.739,272.183,128.645Z" fill="#007aff"/>
    <path id="Path_6970" data-name="Path 6970" d="M275.226,129.7a1.429,1.429,0,0,1-.085-.228c.146-.086.3-.157.455-.232l1.246-.605.837,1.042a.574.574,0,0,1-.319.121A7.341,7.341,0,0,1,275.226,129.7Z" fill="#007aff"/>
    <path id="Path_6971" data-name="Path 6971" d="M281.9,132.058c.912-.21,1.441.64,2.245.78a1.714,1.714,0,0,1-1.443.3C282.461,132.759,281.895,132.619,281.9,132.058Z" fill="#007aff"/>
    <path id="Path_6972" data-name="Path 6972" d="M274.858,128.872l-1.552.91-.856-.173L274,128.7Z" fill="#007aff"/>
    <path id="Path_6973" data-name="Path 6973" d="M279.924,130.392l-.79-.79c.07-.534.485-.315.783-.359A.719.719,0,0,1,279.924,130.392Z" fill="#007aff"/>
    <path id="Path_6974" data-name="Path 6974" d="M287.3,133.185a1.219,1.219,0,0,1,0,1.724A1.219,1.219,0,0,1,287.3,133.185Z" fill="#007aff"/>
    <path id="Path_6975" data-name="Path 6975" d="M58.49,136.442l-1.11.694-.123-.794C57.684,136.007,58,135.984,58.49,136.442Z" fill="#007aff"/>
    <path id="Path_6976" data-name="Path 6976" d="M277.349,132.343a.684.684,0,0,1,1.14,0A.684.684,0,0,1,277.349,132.343Z" fill="#007aff"/>
    <path id="Path_6977" data-name="Path 6977" d="M267.682,132.061c.336-.582.336-.582,1.089-.333C268.56,132.336,268.047,131.957,267.682,132.061Z" fill="#007aff"/>
    <path id="Path_6978" data-name="Path 6978" d="M280.258,132.217l-.581-.5C280.174,131.336,280.132,131.776,280.258,132.217Z" fill="#007aff"/>
    <path id="Path_6979" data-name="Path 6979" d="M281.964,132.216l-.581-.5C281.88,131.335,281.838,131.775,281.964,132.216Z" fill="#007aff"/>
    <path id="Path_6980" data-name="Path 6980" d="M65.79,134.668a1.693,1.693,0,0,1-.382.178c-.046.011-.123-.114-.187-.177a1.713,1.713,0,0,1,.382-.178C65.65,134.48,65.727,134.6,65.79,134.668Z" fill="#007aff"/>
    <path id="Path_6981" data-name="Path 6981" d="M57.059,140.724l.2.2a1.784,1.784,0,0,1-.382.178c-.047.011-.124-.114-.187-.178Z" fill="#007aff"/>
    <path id="Path_6982" data-name="Path 6982" d="M133.058,141.7l-.495.581C132.177,141.781,132.617,141.822,133.058,141.7Z" fill="#007aff"/>
  </g>
</svg>
