<svg xmlns="http://www.w3.org/2000/svg" width="94" height="94" viewBox="0 0 94 94">
  <g id="Graphic" transform="translate(-740 -162)">
    <rect id="bounding" width="94" height="94" transform="translate(740 162)" fill="none"/>
    <g id="Art" transform="translate(757 179)">
      <rect id="Rectangle_1022" data-name="Rectangle 1022" width="52" height="52" rx="3" transform="translate(-12 4)" fill="#fff8c3"/>
      <rect id="Rectangle_1022-2" data-name="Rectangle 1022" width="56" height="56" rx="3" transform="translate(-6 2)" fill="#fff395"/>
      <rect id="Rectangle_1022-3" data-name="Rectangle 1022" width="60" height="60" rx="3" fill="#fff7ba"/>
      <rect id="Rectangle_1036" data-name="Rectangle 1036" width="24" height="24" rx="12" transform="translate(48 36)" fill="#ffe200"/>
      <path id="Path_1220" data-name="Path 1220" d="M16.667,11.667h-5v5H10v-5H5V10h5V5h1.667v5h5Z" transform="translate(49 37)" fill="#fff"/>
      <path id="Union_62" data-name="Union 62" d="M-94.366,16302.1h-20.362a1.274,1.274,0,0,1-1.272-1.272V16288.1a3.818,3.818,0,0,1,3.817-3.816h20.362A3.822,3.822,0,0,1-88,16288.1v12.729a1.278,1.278,0,0,1-1.276,1.272Zm-8.907-11.456v5.09A1.271,1.271,0,0,0-102,16297h7.634a1.271,1.271,0,0,0,1.272-1.272v-5.09a1.272,1.272,0,0,0-1.272-1.272H-96.91a1.272,1.272,0,0,0-1.272-1.272,1.272,1.272,0,0,0-1.272,1.272H-102A1.272,1.272,0,0,0-103.272,16290.642Zm2.545,3.813v-2.545h5.09v2.545ZM-109,16276a7.006,7.006,0,0,1,7-7,7.008,7.008,0,0,1,7,7,7.011,7.011,0,0,1-7,7A7.008,7.008,0,0,1-109,16276Z" transform="translate(132.001 -16258)" fill="#ffe200"/>
    </g>
  </g>
</svg>
