<svg id="Logo_Brand_Web" data-name="Logo Brand Web" xmlns="http://www.w3.org/2000/svg" width="101.608" height="18" viewBox="0 0 101.608 18">
  <path id="ARTWORK" d="M85.914,16.18v1.377H83.008V.108h3.158V5.617a6.3,6.3,0,0,1,8.824.467,6.983,6.983,0,0,1,1.917,4.946,6.914,6.914,0,0,1-1.917,4.933,6.311,6.311,0,0,1-9.077.216Zm1.169-8.12a4.112,4.112,0,0,0-1.109,2.946,4.169,4.169,0,0,0,1.109,2.947,3.573,3.573,0,0,0,2.748,1.2A3.655,3.655,0,0,0,92.6,13.965a4.106,4.106,0,0,0,1.109-2.935A4.214,4.214,0,0,0,92.6,8.072a3.794,3.794,0,0,0-5.521-.012ZM70.194,16.431a6.247,6.247,0,0,1-1.374-4.252V4.468h3.17v6.994h-.012a4.667,4.667,0,0,0,.675,2.731,2.279,2.279,0,0,0,1.977.934A2.393,2.393,0,0,0,76.7,14.18a4.811,4.811,0,0,0,.688-2.838V4.468H80.55V17.557H77.608V16.4A4.869,4.869,0,0,1,73.919,18,4.73,4.73,0,0,1,70.194,16.431Zm-37.056-.468A6.7,6.7,0,0,1,31.1,11.03a6.728,6.728,0,0,1,2.037-4.946,6.7,6.7,0,0,1,4.93-2.048A6.968,6.968,0,0,1,42.228,5.33a6.53,6.53,0,0,1,2.483,3.461h-3.52a3.314,3.314,0,0,0-1.254-1.4,3.61,3.61,0,0,0-1.893-.479A3.525,3.525,0,0,0,35.38,8.085a4.01,4.01,0,0,0-1.1,2.861A4.239,4.239,0,0,0,35.4,13.94a3.657,3.657,0,0,0,2.785,1.21,3.219,3.219,0,0,0,1.711-.492,3.274,3.274,0,0,0,1.218-1.34h3.513a6.444,6.444,0,0,1-2.439,3.4A6.933,6.933,0,0,1,38.068,18,6.719,6.719,0,0,1,33.138,15.964Zm-15.491,0A6.712,6.712,0,0,1,15.6,11.03a6.739,6.739,0,0,1,2.049-4.946A6.737,6.737,0,0,1,22.6,4.036a6.747,6.747,0,0,1,4.967,2.048,6.757,6.757,0,0,1,2.049,4.946,6.692,6.692,0,0,1-2.049,4.933,7.061,7.061,0,0,1-9.921,0ZM19.878,8.1a4.145,4.145,0,0,0-1.1,2.934,4.1,4.1,0,0,0,1.1,2.922,3.763,3.763,0,0,0,5.461,0,4.1,4.1,0,0,0,1.1-2.922,4.144,4.144,0,0,0-1.1-2.934,3.737,3.737,0,0,0-5.461,0Zm45.253,9.461H63.54V10.528a4.654,4.654,0,0,0-.662-2.719,2.245,2.245,0,0,0-1.953-.922,2.348,2.348,0,0,0-2.049.946,4.815,4.815,0,0,0-.675,2.838v6.886H55.029V.108H58.2V5.4a4.77,4.77,0,0,1,3.435-1.365,4.677,4.677,0,0,1,3.7,1.569,6.193,6.193,0,0,1,1.375,4.239v7.712Zm-18.624,0V.12h3.134V4.587h3.412V7.329H49.641V17.557Zm-44.88,0H0V.108H4A11.115,11.115,0,0,1,11.415,2.4a7.8,7.8,0,0,1,2.7,6.275,8.4,8.4,0,0,1-2.591,6.514,10.194,10.194,0,0,1-7.137,2.372Zm1.615-3.006H4.376a7.017,7.017,0,0,0,4.785-1.5,5.36,5.36,0,0,0,1.688-4.227,5.222,5.222,0,0,0-1.784-4.24A7.7,7.7,0,0,0,4,3.09h-.76Zm41.389-1.233.008-.025v.025ZM99.2,8.024V2.516H93.653V0h7.956V8.024ZM83,.108h.012Z" fill="#00a0c0"/>
</svg>
