<svg xmlns="http://www.w3.org/2000/svg" width="32.874" height="29.091" viewBox="0 0 32.874 29.091">
  <g id="Group_1979" data-name="Group 1979" transform="translate(0 0)">
    <g id="Group_1978" data-name="Group 1978" transform="translate(0 0.006)">
      <g id="Path_1332" data-name="Path 1332" transform="translate(0 0)">
        <path id="Path_1353" data-name="Path 1353" d="M526.723,515.582V541.42l-14.074-3.092a1.328,1.328,0,0,1-1.048-1.3v-23.1a1.337,1.337,0,0,1,1.617-1.315Z" transform="translate(-511.601 -512.584)" fill="#32b3c9"/>
      </g>
    </g>
    <g id="Path_1330" data-name="Path 1330" transform="translate(15.116 0)">
      <path id="Path_1356" data-name="Path 1356" d="M-.029.65,1.334.978l1.3-.349V26.476l-1.3.254-1.368-.254Z" transform="translate(0.034 2.362)" fill="#fff"/>
      <path id="Path_1354" data-name="Path 1354" d="M536.7,513.929v23.1a1.347,1.347,0,0,1-1.048,1.3l-14.041,3.092V515.564l6.2-1.351v4.814l2.666-.693V513.62l4.6-1.013a1.346,1.346,0,0,1,1.119.267A1.38,1.38,0,0,1,536.7,513.929Z" transform="translate(-518.939 -512.578)" fill="#32b3c9"/>
    </g>
    <g id="Path_1332-2" data-name="Path 1332-2" transform="translate(23.989 1.057)">
      <path id="Path_1355" data-name="Path 1355" d="M527.766,513.242v4.772l-2.666.627v-4.814Z" transform="translate(-525.1 -513.242)" fill="#fff"/>
    </g>
  </g>
</svg>
