<svg xmlns="http://www.w3.org/2000/svg" width="94" height="94" viewBox="0 0 94 94">
  <g id="Graphic" transform="translate(-740 -162)">
    <rect id="bounding" width="94" height="94" transform="translate(740 162)" fill="none"/>
    <g id="Art" transform="translate(766 187)">
      <rect id="Rectangle_1022" data-name="Rectangle 1022" width="60" height="60" rx="12" transform="translate(-8 -8)" fill="#fff"/>
      <g id="Group_1948" data-name="Group 1948" transform="translate(-14 -2)">
        <rect id="Rectangle_1036" data-name="Rectangle 1036" width="24" height="24" rx="12" transform="translate(48 36)" fill="#e3e3e3"/>
        <path id="Path_1220" data-name="Path 1220" d="M16.667,11.667h-5v5H10v-5H5V10h5V5h1.667v5h5Z" transform="translate(49 37)" fill="#fff"/>
      </g>
      <g id="Art-2" data-name="Art" transform="translate(20.334 8.165)">
        <g id="Path_1319" data-name="Path 1319" transform="translate(-14.334 2.625)" fill="#fcd5ea">
          <path d="M 28.30644989013672 23.6128978729248 L 4.193550109863281 23.6128978729248 C 2.156919956207275 23.6128978729248 0.5 21.95597839355469 0.5 19.91934776306152 L 0.5 4.193548202514648 C 0.5 2.156918048858643 2.156919956207275 0.4999979734420776 4.193550109863281 0.4999979734420776 L 28.30644989013672 0.4999979734420776 C 30.34308052062988 0.4999979734420776 32 2.156918048858643 32 4.193548202514648 L 32 13.16927814483643 L 32 19.91934776306152 C 32 21.95597839355469 30.34308052062988 23.6128978729248 28.30644989013672 23.6128978729248 Z" stroke="none"/>
          <path d="M 4.193550109863281 0.9999980926513672 C 2.432619094848633 0.9999980926513672 1 2.4326171875 1 4.193548202514648 L 1 19.91934776306152 C 1 21.68027877807617 2.432619094848633 23.1128978729248 4.193550109863281 23.1128978729248 L 28.30644989013672 23.1128978729248 C 30.06737899780273 23.1128978729248 31.5 21.68027877807617 31.5 19.91934776306152 L 31.5 4.193548202514648 C 31.5 2.4326171875 30.06737899780273 0.9999980926513672 28.30644989013672 0.9999980926513672 L 4.193550109863281 0.9999980926513672 M 4.193550109863281 -1.9073486328125e-06 L 28.30644989013672 -1.9073486328125e-06 C 30.62248039245605 -1.9073486328125e-06 32.5 1.877517700195312 32.5 4.193548202514648 L 32.5 19.91934776306152 C 32.5 22.23537826538086 30.62248039245605 24.1128978729248 28.30644989013672 24.1128978729248 L 4.193550109863281 24.1128978729248 C 1.877510070800781 24.1128978729248 0 22.23537826538086 0 19.91934776306152 L 0 4.193548202514648 C 0 1.877517700195312 1.877510070800781 -1.9073486328125e-06 4.193550109863281 -1.9073486328125e-06 Z" stroke="none" fill="#ef7ca4"/>
        </g>
        <line id="Line_21" data-name="Line 21" y2="6" transform="translate(-6.334 0.336)" fill="none" stroke="#ef7ca4" stroke-width="1"/>
        <line id="Line_22" data-name="Line 22" y2="6" transform="translate(9.666 0.336)" fill="none" stroke="#ef7ca4" stroke-width="1"/>
        <path id="Path_1322" data-name="Path 1322" d="M-3.135,16.973.541,20.648l7.395-7.395" transform="translate(0 -2)" fill="none" stroke="#d8678e" stroke-width="1"/>
      </g>
    </g>
  </g>
</svg>
