<svg id="Logo_Enterprise_Web" data-name="Logo Enterprise Web" xmlns="http://www.w3.org/2000/svg" width="214" height="28" viewBox="0 0 214 28">
  <rect id="bounding" width="214" height="28" fill="none"/>
  <path id="Docthub_logo" data-name="Docthub logo" d="M85.914,16.18v1.377H83.008V.108h3.158V5.617a6.3,6.3,0,0,1,8.824.467,6.983,6.983,0,0,1,1.917,4.946,6.914,6.914,0,0,1-1.917,4.933,6.311,6.311,0,0,1-9.077.216Zm1.169-8.12a4.112,4.112,0,0,0-1.109,2.946,4.169,4.169,0,0,0,1.109,2.947,3.573,3.573,0,0,0,2.748,1.2A3.655,3.655,0,0,0,92.6,13.965a4.106,4.106,0,0,0,1.109-2.935A4.214,4.214,0,0,0,92.6,8.072a3.794,3.794,0,0,0-5.521-.012ZM70.194,16.431a6.247,6.247,0,0,1-1.374-4.252V4.468h3.17v6.994h-.012a4.667,4.667,0,0,0,.675,2.731,2.279,2.279,0,0,0,1.977.934A2.393,2.393,0,0,0,76.7,14.18a4.811,4.811,0,0,0,.688-2.838V4.468H80.55V17.557H77.608V16.4A4.869,4.869,0,0,1,73.919,18,4.73,4.73,0,0,1,70.194,16.431Zm-37.056-.468A6.7,6.7,0,0,1,31.1,11.03a6.728,6.728,0,0,1,2.037-4.946,6.7,6.7,0,0,1,4.93-2.048A6.968,6.968,0,0,1,42.228,5.33a6.53,6.53,0,0,1,2.483,3.461h-3.52a3.314,3.314,0,0,0-1.254-1.4,3.61,3.61,0,0,0-1.893-.479A3.525,3.525,0,0,0,35.38,8.085a4.01,4.01,0,0,0-1.1,2.861A4.239,4.239,0,0,0,35.4,13.94a3.657,3.657,0,0,0,2.785,1.21,3.219,3.219,0,0,0,1.711-.492,3.274,3.274,0,0,0,1.218-1.34h3.513a6.444,6.444,0,0,1-2.439,3.4A6.933,6.933,0,0,1,38.068,18,6.719,6.719,0,0,1,33.138,15.964Zm-15.491,0A6.712,6.712,0,0,1,15.6,11.03a6.739,6.739,0,0,1,2.049-4.946A6.737,6.737,0,0,1,22.6,4.036a6.747,6.747,0,0,1,4.967,2.048,6.757,6.757,0,0,1,2.049,4.946,6.692,6.692,0,0,1-2.049,4.933,7.061,7.061,0,0,1-9.921,0ZM19.878,8.1a4.145,4.145,0,0,0-1.1,2.934,4.1,4.1,0,0,0,1.1,2.922,3.763,3.763,0,0,0,5.461,0,4.1,4.1,0,0,0,1.1-2.922,4.144,4.144,0,0,0-1.1-2.934,3.737,3.737,0,0,0-5.461,0Zm45.253,9.461H63.54V10.528a4.654,4.654,0,0,0-.662-2.719,2.245,2.245,0,0,0-1.953-.922,2.348,2.348,0,0,0-2.049.946,4.815,4.815,0,0,0-.675,2.838v6.886H55.029V.108H58.2V5.4a4.77,4.77,0,0,1,3.435-1.365,4.677,4.677,0,0,1,3.7,1.569,6.193,6.193,0,0,1,1.375,4.239v7.712Zm-18.624,0V.12h3.134V4.587h3.412V7.329H49.641V17.557Zm-44.88,0H0V.108H4A11.115,11.115,0,0,1,11.415,2.4a7.8,7.8,0,0,1,2.7,6.275,8.4,8.4,0,0,1-2.591,6.514,10.194,10.194,0,0,1-7.137,2.372Zm1.615-3.006H4.376a7.017,7.017,0,0,0,4.785-1.5,5.36,5.36,0,0,0,1.688-4.227,5.222,5.222,0,0,0-1.784-4.24A7.7,7.7,0,0,0,4,3.09h-.76Zm41.389-1.233.008-.025v.025ZM99.2,8.024V2.516H93.653V0h7.956V8.024ZM83,.108h.012Z" transform="translate(0 5)" fill="#00a0c0"/>
  <g id="second_version" data-name="second version">
    <path id="Path_1355" data-name="Path 1355" d="M1.758,0V-16H11.789v2.078H4.172v4.875h7.094v2.07H4.172v4.9h7.711V0ZM16.82-7.125V0H14.484V-12h2.242v1.953h.148a3.422,3.422,0,0,1,1.3-1.531,4.021,4.021,0,0,1,2.238-.578,4.355,4.355,0,0,1,2.148.512,3.472,3.472,0,0,1,1.43,1.52A5.5,5.5,0,0,1,24.5-7.633V0H22.164V-7.352a2.9,2.9,0,0,0-.68-2.043,2.412,2.412,0,0,0-1.867-.738,2.9,2.9,0,0,0-1.441.352,2.5,2.5,0,0,0-.992,1.027A3.4,3.4,0,0,0,16.82-7.125ZM32.874-12v1.875H26.319V-12Zm-4.8-2.875h2.336V-3.523a2.028,2.028,0,0,0,.2,1.02,1.033,1.033,0,0,0,.527.461,2.005,2.005,0,0,0,.707.121,2.732,2.732,0,0,0,.492-.039l.328-.062.422,1.93a4.2,4.2,0,0,1-.578.16,4.8,4.8,0,0,1-.937.09,4.113,4.113,0,0,1-1.719-.328,2.948,2.948,0,0,1-1.289-1.062,3.122,3.122,0,0,1-.492-1.8ZM40.147.242A5.849,5.849,0,0,1,37.1-.52a5.077,5.077,0,0,1-1.969-2.148,7.209,7.209,0,0,1-.691-3.254,7.277,7.277,0,0,1,.691-3.25,5.3,5.3,0,0,1,1.938-2.2,5.337,5.337,0,0,1,2.918-.789,5.88,5.88,0,0,1,1.969.336,4.768,4.768,0,0,1,1.711,1.055,4.96,4.96,0,0,1,1.2,1.863A7.8,7.8,0,0,1,45.3-6.125V-5.3H35.757v-1.75h7.25a3.471,3.471,0,0,0-.375-1.637,2.851,2.851,0,0,0-1.051-1.129A2.967,2.967,0,0,0,40-10.227a3.049,3.049,0,0,0-1.715.48A3.247,3.247,0,0,0,37.159-8.5a3.6,3.6,0,0,0-.395,1.668v1.367a4.5,4.5,0,0,0,.426,2.047,3,3,0,0,0,1.191,1.285,3.519,3.519,0,0,0,1.789.441,3.646,3.646,0,0,0,1.211-.191,2.571,2.571,0,0,0,.945-.574,2.511,2.511,0,0,0,.609-.945l2.211.4A3.994,3.994,0,0,1,44.2-1.293,4.6,4.6,0,0,1,42.487-.16,6.379,6.379,0,0,1,40.147.242ZM47.545,0V-12H49.8v1.906h.125a2.914,2.914,0,0,1,1.16-1.527,3.307,3.307,0,0,1,1.887-.559q.219,0,.52.016t.473.039v2.234a4.539,4.539,0,0,0-.5-.09,5.131,5.131,0,0,0-.719-.051,3.053,3.053,0,0,0-1.473.348,2.642,2.642,0,0,0-1.02.961,2.619,2.619,0,0,0-.375,1.395V0Zm8.1,4.5V-12h2.281v1.945h.2a6.529,6.529,0,0,1,.586-.867,3.357,3.357,0,0,1,1.063-.863,3.748,3.748,0,0,1,1.8-.371,4.687,4.687,0,0,1,2.594.734A4.955,4.955,0,0,1,65.955-9.3a7.749,7.749,0,0,1,.652,3.328,7.816,7.816,0,0,1-.648,3.332A5.027,5.027,0,0,1,64.177-.512a4.6,4.6,0,0,1-2.586.746,3.8,3.8,0,0,1-1.785-.367,3.375,3.375,0,0,1-1.082-.859,6.5,6.5,0,0,1-.6-.875h-.141V4.5ZM57.935-6A6.152,6.152,0,0,0,58.3-3.781a3.337,3.337,0,0,0,1.063,1.488,2.709,2.709,0,0,0,1.7.535,2.725,2.725,0,0,0,1.75-.559,3.443,3.443,0,0,0,1.066-1.52A6.084,6.084,0,0,0,64.248-6a6.026,6.026,0,0,0-.355-2.133A3.3,3.3,0,0,0,62.83-9.625a2.793,2.793,0,0,0-1.762-.547,2.78,2.78,0,0,0-1.715.523,3.2,3.2,0,0,0-1.059,1.461A6.1,6.1,0,0,0,57.935-6ZM68.872,0V-12H71.13v1.906h.125a2.914,2.914,0,0,1,1.16-1.527A3.307,3.307,0,0,1,74.3-12.18q.219,0,.52.016t.473.039v2.234a4.538,4.538,0,0,0-.5-.09,5.131,5.131,0,0,0-.719-.051,3.053,3.053,0,0,0-1.473.348,2.642,2.642,0,0,0-1.02.961,2.619,2.619,0,0,0-.375,1.395V0Zm8.1,0V-12h2.336V0Zm1.18-13.852a1.464,1.464,0,0,1-1.043-.41,1.3,1.3,0,0,1-.434-.98,1.312,1.312,0,0,1,.434-.988,1.464,1.464,0,0,1,1.043-.41,1.464,1.464,0,0,1,1.043.41,1.312,1.312,0,0,1,.434.988,1.3,1.3,0,0,1-.434.98A1.464,1.464,0,0,1,78.153-13.852ZM91.09-9.07,88.973-8.7a2.55,2.55,0,0,0-.418-.773,2.124,2.124,0,0,0-.77-.6,2.773,2.773,0,0,0-1.211-.234,2.929,2.929,0,0,0-1.656.441,1.321,1.321,0,0,0-.664,1.137,1.194,1.194,0,0,0,.445.969,3.606,3.606,0,0,0,1.438.6l1.906.437a5.113,5.113,0,0,1,2.469,1.18,2.772,2.772,0,0,1,.813,2.07A3.142,3.142,0,0,1,90.7-1.551,4.113,4.113,0,0,1,88.977-.234a6.416,6.416,0,0,1-2.559.477,5.748,5.748,0,0,1-3.289-.863,3.619,3.619,0,0,1-1.562-2.457l2.258-.344a2.145,2.145,0,0,0,.867,1.332,2.971,2.971,0,0,0,1.711.449,3.148,3.148,0,0,0,1.836-.48A1.405,1.405,0,0,0,88.926-3.3a1.231,1.231,0,0,0-.418-.945,2.794,2.794,0,0,0-1.277-.578L85.2-5.266a4.855,4.855,0,0,1-2.48-1.219,2.937,2.937,0,0,1-.8-2.117,3.027,3.027,0,0,1,.594-1.859,3.916,3.916,0,0,1,1.641-1.246,6.033,6.033,0,0,1,2.4-.449,4.991,4.991,0,0,1,3.063.84A3.943,3.943,0,0,1,91.09-9.07ZM98.707.242A5.849,5.849,0,0,1,95.656-.52a5.077,5.077,0,0,1-1.969-2.148A7.209,7.209,0,0,1,93-5.922a7.277,7.277,0,0,1,.691-3.25,5.3,5.3,0,0,1,1.938-2.2,5.337,5.337,0,0,1,2.918-.789,5.88,5.88,0,0,1,1.969.336,4.769,4.769,0,0,1,1.711,1.055,4.959,4.959,0,0,1,1.2,1.863,7.8,7.8,0,0,1,.438,2.777V-5.3H94.316v-1.75h7.25a3.471,3.471,0,0,0-.375-1.637,2.851,2.851,0,0,0-1.051-1.129,2.967,2.967,0,0,0-1.582-.414,3.049,3.049,0,0,0-1.715.48A3.247,3.247,0,0,0,95.719-8.5a3.6,3.6,0,0,0-.395,1.668v1.367a4.5,4.5,0,0,0,.426,2.047,3,3,0,0,0,1.191,1.285,3.519,3.519,0,0,0,1.789.441,3.646,3.646,0,0,0,1.211-.191,2.571,2.571,0,0,0,.945-.574A2.511,2.511,0,0,0,101.5-3.4l2.211.4a3.994,3.994,0,0,1-.949,1.707A4.6,4.6,0,0,1,101.047-.16,6.379,6.379,0,0,1,98.707.242Z" transform="translate(108 22)" fill="#002830" opacity="0.9"/>
  </g>
</svg>
