<svg xmlns="http://www.w3.org/2000/svg" width="94" height="94" viewBox="0 0 94 94">
  <g id="Graphic" transform="translate(-740 -162)">
    <rect id="bounding" width="94" height="94" transform="translate(740 162)" fill="none"/>
    <g id="Art" transform="translate(766 187)">
      <rect id="Rectangle_1022" data-name="Rectangle 1022" width="60" height="60" rx="12" transform="translate(-8 -8)" fill="#fff"/>
      <g id="Group_1948" data-name="Group 1948" transform="translate(-14 -2)">
        <rect id="Rectangle_1036" data-name="Rectangle 1036" width="24" height="24" rx="12" transform="translate(48 36)" fill="#e3e3e3"/>
        <path id="Path_1220" data-name="Path 1220" d="M16.667,11.667h-5v5H10v-5H5V10h5V5h1.667v5h5Z" transform="translate(49 37)" fill="#fff"/>
      </g>
      <g id="Art-2" data-name="Art" transform="translate(6 5.002)">
        <g id="Path_1192" data-name="Path 1192" transform="translate(0 6.288)" fill="#cdecf1">
          <path d="M 28.30644989013672 23.6128978729248 L 4.193550109863281 23.6128978729248 C 2.156919956207275 23.6128978729248 0.5 21.95597839355469 0.5 19.91934776306152 L 0.5 4.193548202514648 C 0.5 2.156918048858643 2.156919956207275 0.4999979734420776 4.193550109863281 0.4999979734420776 L 28.30644989013672 0.4999979734420776 C 30.34308052062988 0.4999979734420776 32 2.156918048858643 32 4.193548202514648 L 32 13.16927814483643 L 32 19.91934776306152 C 32 21.95597839355469 30.34308052062988 23.6128978729248 28.30644989013672 23.6128978729248 Z" stroke="none"/>
          <path d="M 4.193550109863281 0.9999980926513672 C 2.432619094848633 0.9999980926513672 1 2.4326171875 1 4.193548202514648 L 1 19.91934776306152 C 1 21.68027877807617 2.432619094848633 23.1128978729248 4.193550109863281 23.1128978729248 L 28.30644989013672 23.1128978729248 C 30.06737899780273 23.1128978729248 31.5 21.68027877807617 31.5 19.91934776306152 L 31.5 4.193548202514648 C 31.5 2.4326171875 30.06737899780273 0.9999980926513672 28.30644989013672 0.9999980926513672 L 4.193550109863281 0.9999980926513672 M 4.193550109863281 -1.9073486328125e-06 L 28.30644989013672 -1.9073486328125e-06 C 30.62248039245605 -1.9073486328125e-06 32.5 1.877517700195312 32.5 4.193548202514648 L 32.5 19.91934776306152 C 32.5 22.23537826538086 30.62248039245605 24.1128978729248 28.30644989013672 24.1128978729248 L 4.193550109863281 24.1128978729248 C 1.877510070800781 24.1128978729248 0 22.23537826538086 0 19.91934776306152 L 0 4.193548202514648 C 0 1.877517700195312 1.877510070800781 -1.9073486328125e-06 4.193550109863281 -1.9073486328125e-06 Z" stroke="none" fill="#67c6d8"/>
        </g>
        <g id="Subtraction_12" data-name="Subtraction 12" transform="translate(8.385)" fill="none">
          <path d="M4.2,1h7.339a4.194,4.194,0,0,1,4.194,4.194V8.385a4.194,4.194,0,0,1-4.194,4.194H4.2A4.194,4.194,0,0,1,0,8.385V5.191A4.194,4.194,0,0,1,4.2,1Z" stroke="none"/>
          <path d="M 4.195596694946289 1.997952461242676 C 2.434666633605957 1.997952461242676 1.002046585083008 3.430572509765625 1.002046585083008 5.191502571105957 L 1.002046585083008 8.385042190551758 C 1.002046585083008 10.14597320556641 2.434666633605957 11.57859325408936 4.195596694946289 11.57859325408936 L 11.53429698944092 11.57859325408936 C 13.29522705078125 11.57859325408936 14.7278470993042 10.14597320556641 14.7278470993042 8.385042190551758 L 14.7278470993042 5.191502571105957 C 14.7278470993042 3.430572509765625 13.29522705078125 1.997952461242676 11.53429698944092 1.997952461242676 L 4.195596694946289 1.997952461242676 M 4.195596694946289 0.9979524612426758 L 11.53429698944092 0.9979524612426758 C 13.85033702850342 0.9979524612426758 15.7278470993042 2.875462532043457 15.7278470993042 5.191502571105957 L 15.7278470993042 8.385042190551758 C 15.7278470993042 10.70107269287109 13.85033702850342 12.57859325408936 11.53429698944092 12.57859325408936 L 4.195596694946289 12.57859325408936 C 1.87956714630127 12.57859325408936 0.002046585083007812 10.70107269287109 0.002046585083007812 8.385042190551758 L 0.002046585083007812 5.191502571105957 C 0.002046585083007812 2.875462532043457 1.87956714630127 0.9979524612426758 4.195596694946289 0.9979524612426758 Z" stroke="none" fill="#67c6d8"/>
        </g>
        <g id="Path_1191" data-name="Path 1191" transform="translate(0 6.288)" fill="#cdecf1">
          <path d="M 28.30644989013672 11.03225708007812 L 4.193550109863281 11.03225708007812 C 2.156919956207275 11.03225708007812 0.5 9.375336647033691 0.5 7.338706970214844 L 0.5 4.193547248840332 C 0.5 2.156917095184326 2.156919956207275 0.4999971091747284 4.193550109863281 0.4999971091747284 L 26.24661064147949 0.4999971091747284 L 28.30644989013672 0.4999971091747284 C 30.34308052062988 0.4999971091747284 32 2.156917095184326 32 4.193547248840332 L 32 7.338706970214844 C 32 9.375336647033691 30.34308052062988 11.03225708007812 28.30644989013672 11.03225708007812 Z" stroke="none"/>
          <path d="M 4.193550109863281 0.9999971389770508 C 2.432619094848633 0.9999971389770508 1 2.4326171875 1 4.193547248840332 L 1 7.338706970214844 C 1 9.099637031555176 2.432619094848633 10.53225708007812 4.193550109863281 10.53225708007812 L 28.30644989013672 10.53225708007812 C 30.06737899780273 10.53225708007812 31.5 9.099637031555176 31.5 7.338706970214844 L 31.5 4.193547248840332 C 31.5 2.4326171875 30.06737899780273 0.9999971389770508 28.30644989013672 0.9999971389770508 L 4.193550109863281 0.9999971389770508 M 4.193550109863281 -2.86102294921875e-06 L 28.30644989013672 -2.86102294921875e-06 C 30.62248039245605 -2.86102294921875e-06 32.5 1.877516746520996 32.5 4.193547248840332 L 32.5 7.338706970214844 C 32.5 9.65473747253418 30.62248039245605 11.53225708007812 28.30644989013672 11.53225708007812 L 4.193550109863281 11.53225708007812 C 1.877510070800781 11.53225708007812 0 9.65473747253418 0 7.338706970214844 L 0 4.193547248840332 C 0 1.877516746520996 1.877510070800781 -2.86102294921875e-06 4.193550109863281 -2.86102294921875e-06 Z" stroke="none" fill="#67c6d8"/>
        </g>
        <g id="Path_1193" data-name="Path 1193" transform="translate(13.629 14.151)" fill="#cdecf1">
          <path d="M 2.620967149734497 6.838703632354736 C 1.451457142829895 6.838703632354736 0.4999971389770508 5.887243747711182 0.4999971389770508 4.717743873596191 L 0.4999971389770508 3.669363737106323 L 0.4999971389770508 2.62096381187439 C 0.4999971389770508 1.45146369934082 1.451457142829895 0.5000036954879761 2.620967149734497 0.5000036954879761 C 3.79047703742981 0.5000036954879761 4.741937160491943 1.45146369934082 4.741937160491943 2.62096381187439 L 4.741937160491943 4.717743873596191 C 4.741937160491943 5.887243747711182 3.79047703742981 6.838703632354736 2.620967149734497 6.838703632354736 Z" stroke="none"/>
          <path d="M 2.620967149734497 1.000003814697266 C 1.727157115936279 1.000003814697266 0.9999971389770508 1.727163791656494 0.9999971389770508 2.620963573455811 L 0.9999971389770508 4.717743873596191 C 0.9999971389770508 5.611543655395508 1.727157115936279 6.338703632354736 2.620967149734497 6.338703632354736 C 3.514777183532715 6.338703632354736 4.241937160491943 5.611543655395508 4.241937160491943 4.717743873596191 L 4.241937160491943 2.620963573455811 C 4.241937160491943 1.727163791656494 3.514777183532715 1.000003814697266 2.620967149734497 1.000003814697266 M 2.620967149734497 3.814697265625e-06 C 4.068487167358398 3.814697265625e-06 5.241937160491943 1.173443794250488 5.241937160491943 2.620963573455811 L 5.241937160491943 4.717743873596191 C 5.241937160491943 6.165263652801514 4.068487167358398 7.338703632354736 2.620967149734497 7.338703632354736 C 1.173447132110596 7.338703632354736 -2.86102294921875e-06 6.165263652801514 -2.86102294921875e-06 4.717743873596191 L -2.86102294921875e-06 2.620963573455811 C -2.86102294921875e-06 1.173443794250488 1.173447132110596 3.814697265625e-06 2.620967149734497 3.814697265625e-06 Z" stroke="none" fill="#67c6d8"/>
        </g>
      </g>
    </g>
  </g>
</svg>
