<svg xmlns="http://www.w3.org/2000/svg" width="94" height="94" viewBox="0 0 94 94">
  <g id="Graphic" transform="translate(-740 -162)">
    <rect id="bounding" width="94" height="94" transform="translate(740 162)" fill="none"/>
    <g id="Art" transform="translate(766 187)">
      <rect id="Rectangle_1022" data-name="Rectangle 1022" width="60" height="60" rx="12" transform="translate(-8 -8)" fill="#fff"/>
      <g id="Group_1948" data-name="Group 1948" transform="translate(-14 -2)">
        <rect id="Rectangle_1036" data-name="Rectangle 1036" width="24" height="24" rx="12" transform="translate(48 36)" fill="#e3e3e3"/>
        <path id="Path_1220" data-name="Path 1220" d="M16.667,11.667h-5v5H10v-5H5V10h5V5h1.667v5h5Z" transform="translate(49 37)" fill="#fff"/>
      </g>
      <g id="Icon_feather-book-open" data-name="Icon feather-book-open" transform="translate(4.999 6.5)">
        <path id="Path_1323" data-name="Path 1323" d="M3,4.5h8.4A5.6,5.6,0,0,1,17,10.1V29.7a4.2,4.2,0,0,0-4.2-4.2H3Z" transform="translate(0)" fill="#c6ffdd"/>
        <path id="Path_1325" data-name="Path 1325" d="M3,4.5h8.4A5.6,5.6,0,0,1,17,10.1V29.7a4.2,4.2,0,0,0-4.2-4.2H3Z" transform="translate(0)" fill="none" stroke="#00c752" stroke-linecap="round" stroke-linejoin="round" stroke-width="1"/>
        <path id="Path_1324" data-name="Path 1324" d="M32,4.5H23.6A5.6,5.6,0,0,0,18,10.1V29.7a4.2,4.2,0,0,1,4.2-4.2H32Z" transform="translate(-1)" fill="#c6ffdd"/>
        <path id="Path_1326" data-name="Path 1326" d="M32,4.5H23.6A5.6,5.6,0,0,0,18,10.1V29.7a4.2,4.2,0,0,1,4.2-4.2H32Z" transform="translate(-1)" fill="none" stroke="#00c752" stroke-linecap="round" stroke-linejoin="round" stroke-width="1"/>
      </g>
    </g>
  </g>
</svg>
