<svg xmlns="http://www.w3.org/2000/svg" xmlns:xlink="http://www.w3.org/1999/xlink" width="180" height="180" viewBox="0 0 180 180">
  <defs>
    <linearGradient id="linear-gradient" x1="1" y1="0.984" x2="1" y2="0.012" gradientUnits="objectBoundingBox">
      <stop offset="0" stop-color="#6d6d81"/>
      <stop offset="1"/>
    </linearGradient>
  </defs>
  <g id="EmptyStatNoItemsFound" transform="translate(40.5 58.5)">
    <rect id="bounding" width="180" height="180" transform="translate(-40.5 -58.5)" fill="none"/>
    <path id="Union_47" data-name="Union 47" d="M15943.6-4553.6a5.121,5.121,0,0,1-5.1-5.1v-23.5a5.9,5.9,0,0,1,.5-2.2l14-29.2a4.962,4.962,0,0,1,4.6-2.9h56.8a5.182,5.182,0,0,1,4.6,2.9l14,29.2a4.325,4.325,0,0,1,.4,2.2v23.5a5.124,5.124,0,0,1-5.1,5.1Zm8.3-34.2h20.8a4.55,4.55,0,0,1,4.3,3,9.407,9.407,0,0,0,8.9,6.4,9.312,9.312,0,0,0,8.9-6.4,4.552,4.552,0,0,1,4.3-3c6.832-.1,20.521-.1,20.7,0l-8.8-18.395h-50.3Zm51-37.5a4.31,4.31,0,0,1-2.4-5.6l6.2-14.9a4.636,4.636,0,0,1,5.8-2.5,4.416,4.416,0,0,1,2.3,5.7l-6.2,14.9a4.316,4.316,0,0,1-4,2.7A4.671,4.671,0,0,1,16002.9-4625.3Zm-40.3-2.4-6.2-14.8a4.3,4.3,0,0,1,2.3-5.7,4.255,4.255,0,0,1,5.7,2.3l6.2,14.9a4.3,4.3,0,0,1-2.3,5.7,5.082,5.082,0,0,1-1.7.3A4.316,4.316,0,0,1,15962.6-4627.7Zm18.7-5.4v-16.1a4.267,4.267,0,0,1,4.3-4.3,4.27,4.27,0,0,1,4.3,4.3v16.2a4.271,4.271,0,0,1-4.3,4.3A4.353,4.353,0,0,1,15981.3-4633.1Z" transform="translate(-15936 4635)" opacity="0.2" fill="url(#linear-gradient)"/>
  </g>
</svg>
