<svg id="EventsAppIcon" xmlns="http://www.w3.org/2000/svg" width="24" height="24" viewBox="0 0 24 24">
  <circle id="bounding" cx="12" cy="12" r="12" fill="none"/>
  <g id="Art" transform="translate(1.333 2.667)">
    <path id="Path_1201" data-name="Path 1201" d="M0,0H21.333V11.333a2,2,0,0,1-2,2H2a2,2,0,0,1-2-2Z" transform="translate(0 5.333)" fill="#00a0c0"/>
    <rect id="Rectangle_1019" data-name="Rectangle 1019" width="21.333" height="0.667" transform="translate(0 5.333)" fill="#99d9e3"/>
    <path id="Subtraction_14" data-name="Subtraction 14" d="M21.333,4H0V2A2,2,0,0,1,2,0H4V.333a1.667,1.667,0,1,0,3.334,0V0H14V.333a1.667,1.667,0,1,0,3.334,0V0h2a2,2,0,0,1,2,2V4Z" transform="translate(0.001 1.333)" fill="#67c6d8"/>
    <path id="Union_38" data-name="Union 38" d="M0,3.772,1.413,2.357,3.3,4.243,7.542,0,8.956,1.415,4.713,5.657h0L3.3,7.071Z" transform="translate(6.587 8.252)" fill="#cdecf1"/>
    <path id="Path_1198" data-name="Path 1198" d="M1,0A1,1,0,0,1,2,1v.667a1,1,0,0,1-2,0V1A1,1,0,0,1,1,0Z" transform="translate(4.667)" fill="#32b3c9"/>
    <path id="Path_1197" data-name="Path 1197" d="M1,0A1,1,0,0,1,2,1v.667a1,1,0,0,1-2,0V1A1,1,0,0,1,1,0Z" transform="translate(14.667)" fill="#32b3c9"/>
  </g>
</svg>
