<svg xmlns="http://www.w3.org/2000/svg" width="214.896" height="14.646" viewBox="0 0 214.896 14.646">
  <g id="Group_41927" data-name="Group 41927" transform="matrix(1, 0.017, -0.017, 1, -54.242, -128.553)">
    <path id="Path_6965" data-name="Path 6965" d="M111.5,137.058q0,.493,0,.988c-.536.438-.9.131-1.293-.181h-2.626l-.842.479c-.291-.178-.539-.331-.789-.482l-.373.28a2.488,2.488,0,0,1-.471.1c-.607.011-1.216,0-1.739,0l-.739-.465-.992.438h-1.448l-.529-.339a1,1,0,0,0-.887.208c-.162.111-.476.084-.691.165-.292.111-.41.438-.984.379l-.787-.439-1.036.412H92.739l-.5-.376H89.077l-.485-.364H86.985l-.506.8-.966-.762H82.739l-.587.365a7.67,7.67,0,0,0-1.394-.392c-.457-.044-.857-.066-1.084-.429l-.6.408-17.363,0-.559-.383-.462.348-.632-.359H58a2.8,2.8,0,0,1-.23-.2c.24-.193.489-.379.738-.565l1.513-.068c-.58-.4-1.206-.392-1.515-.722l-.433.326H56.815a2.139,2.139,0,0,1-.019-1.5,2.407,2.407,0,0,0,1.959.221v-1.719l.77-.154.6.421h1.031l.56-.379.442.331.839-.4.829.392.514-.333h1.026l.549.376.65-.447,1.1.415h1.917l.614-.362h2.573l.488-.367.546.356.487-.326,1.658.664.5-.29h1.31c.562-.106.695-.6,1.554-.271.467.244-.143.566-.523.854a4.834,4.834,0,0,0,2,.169l.246-1.071.495-.108c.567.086.7.562,1.3.708l.461-.286.491.328,1.965-.8.725.41h6.365l.5-.376h3.689l.484-.364,11.558,0,.571-.393a1.1,1.1,0,0,1,1.065.379l.462-.347h3.794l.672.418.935-.423h7.9l.447.336.56-.379h7.878l.557-.39c.568-.155.746.272,1.05.367h1.072l.449-.338h5.3l.53.323.549-.347,12.591,0,.583-.406.347.272a2.178,2.178,0,0,0,.476.116c.786.012,1.573.006,2.3,0l.585-.372.347.26,1.578-.35.686.45h1.037l.549-.385h6.313l.486-.365c.993-.095,2.121.023,3.21-.054l.552-.349.454.341.553-.332.55.352h5.248l.539-.376.548.37.4-.3a1.678,1.678,0,0,1,1.418.109,1.5,1.5,0,0,0,1.42.118c.524-.172,1-.43,1.6-.7h.96l.489.78h.553l.935-.7c.681-.278,1.219.07,1.8.232l.4-.3.564.369h4.255l.309-.664c.555-.27,1.181-.012,1.793-.175l.345.745a4.929,4.929,0,0,0,1.813.065l.359-.745h2.166l.558-.42h6.324l.486-.365.564.37h1.556l.572-.4h2.085l.47-.353.57.319h4.276l.437-.328.571.352h2.087l.549-.375h2.089l.555.378.375-.282c.069-.033.139-.1.208-.1q3.294-.008,6.587-.007a1.556,1.556,0,0,0,.243-.037l.423-.319h1.158l.44.331.569-.355h1.56l.549.378h2.09l.575-.4H245.1l.449-.338h1.775l.191.562-1.013.265-.156.574-.874.227c-.008.354.459.456.665.7h.556l.522-.838.941,1.559,1.454.2c-.411.53-1.26-.031-1.585.491.068.051.129.137.192.138.874.009,1.748.006,2.686.006l.484-.767h.815v.6l.768.564.558-.361h1.558l.549.384h4.671c.331.1.417.456.854.4l-.2.357h-6.443l-.449-.337h-3.113l-.587-.392a2.325,2.325,0,0,1-1.123,1.163c-.545.149-.71-.3-1.108-.4-.777-.287-1.2.385-1.926.4l-.56-.349-.861.435-1.478-.948-.9,1.011-1.037-.491-.514.333h-8.383l-.572.4-.386-.29a4.882,4.882,0,0,0-1.746-.078l-.449.337-.523-.3c-.555-.086-1.158-.205-1.627.354l-11.1,0-.48.36h-7.863l-.6.4h-4.175l-.581.4h-9.994l-.467.351h-2.634l-.524.394h-6.444l-.426-.319-.646.385h-5.22l-.481.361h-6.813l-.591.406h-2.615l-.556-.379-.373.28c-.07.034-.138.1-.207.1-1.573.006-3.146,0-4.691.006-.436.523-1.042.415-1.639.339l-.414-.31-.57.35h-5.72l-.6.406h-2.609l-.395-.271a4.785,4.785,0,0,0-1.739-.111l-.474.357-1.64.061-.674.438-.928-.39-.5.3h-2.613l-.537-.356-.549.377h-3.674l-.391.294a4.794,4.794,0,0,1-1.726.079l-.542-.355c-.606-.163-.749.318-1.307.4l-1.063-.466-.788.4-.519-.356h-.777c.042-.387-.32-.388-.866-.4l-.759.79h-1.754l-.58.4h-2.61l-.556-.392h-1.033l-.559-.394c-.764-.07-.992.454-1.525.75h-3.213l-.769-.539v-.434l1.05-.368c-.373-.343-.843-.14-1.3-.211l-.5.771-.838-.365c-.057-.111-.114-.22-.181-.345a4.314,4.314,0,0,0-2.089.158A7.311,7.311,0,0,0,111.5,137.058Zm133.3-8.529a1.326,1.326,0,0,0-1.365-.123,11.784,11.784,0,0,0-1.459.663,2.033,2.033,0,0,1-.53.053c-.313-.152-.53-.509-1.133-.371l-.389.569,1.1.477.415-.29c1.049,0,2.09,0,3.131-.006.062,0,.123-.086.22-.159l-.457-.413Zm-2.611,3.341c0-.474.013-.907-.015-1.339,0-.063-.2-.12-.314-.181-.22.267-.729.361-.727.733C241.23,131.471,241.553,131.693,242.19,131.87Zm-4.484-2.753a.688.688,0,0,0-.076,1.124l.936-.478Zm-134.528,7.7c-2.094-.191-2.094-.191-2.149.165a4.317,4.317,0,0,0,.708.069A2.4,2.4,0,0,0,103.178,136.817Zm11.936.955-.014-.25c-.235-.023-.469-.056-.7-.063-.057,0-.18.1-.169.125.036.094.116.247.188.25A4.774,4.774,0,0,0,115.114,137.771Zm121.09-8.6-.34.141c.058.044.13.131.173.124a1.947,1.947,0,0,0,.354-.124Zm-37.229.939c-.058-.044-.13-.131-.173-.124a1.948,1.948,0,0,0-.354.124c.058.044.13.131.173.124A1.973,1.973,0,0,0,198.976,130.115Zm44.607.528.187-.141a1.963,1.963,0,0,0-.353-.124c-.044-.007-.115.08-.173.124Zm-7.266.314-.188-.255c-.058.044-.174.1-.165.13a1.133,1.133,0,0,0,.165.266Zm2.107,0-.187-.255c-.058.044-.174.1-.165.13a1.13,1.13,0,0,0,.165.265Zm1.581,0-.187-.255c-.058.045-.174.1-.165.13a1.132,1.132,0,0,0,.165.266Zm5.423,0,.187.141a1.147,1.147,0,0,0,.165-.266c.009-.033-.107-.086-.165-.13Zm-119.778,1.886-.187-.141a1.116,1.116,0,0,0-.165.266c-.01.033.106.086.165.13Zm-58.758,2.582.339-.141c-.058-.044-.13-.131-.173-.124a1.973,1.973,0,0,0-.354.124Zm58.759.583-.187-.141a1.1,1.1,0,0,0-.165.266c-.01.033.107.086.165.13Zm1.581.4-.187-.141a1.147,1.147,0,0,0-.165.266c-.009.033.107.086.165.13Zm-40.578.8-.188-.141a1.1,1.1,0,0,0-.164.266c-.01.033.106.086.165.13Zm1.844-.083-.187.141a1.948,1.948,0,0,0,.354.124c.044.007.115-.08.173-.124Z" fill="#007aff"/>
    <path id="Path_6966" data-name="Path 6966" d="M273.461,131.459a5.5,5.5,0,0,0,.788.032l.527-1.152,1.43,1.43v.558c-.054.061-.115.19-.176.19-1.759.011-3.518.01-5.365.01l-.17-.65c.388-.709,1.06-.2,1.617-.51l.2-.862.977-.208a5.773,5.773,0,0,0,.174,1.162c-.375.093-.815.052-.429.548A6.365,6.365,0,0,0,273.461,131.459Z" transform="translate(-16.189 -0.96)" fill="#007aff"/>
    <path id="Path_6967" data-name="Path 6967" d="M282.468,130.684v-.627c.061-.058.126-.175.2-.179.929-.054,1.859-.092,2.735-.131.6.385,1.148.728,1.089,1.554l1.027.364.044.71-1.4.712-1.437-.735,1.152-.543v-.647C284.833,130.511,283.522,131.311,282.468,130.684Z" transform="translate(-16.189)" fill="#007aff"/>
    <path id="Path_6968" data-name="Path 6968" d="M280.193,132.058c.566-.03.682.555,1.1.782v1.2l-.584.642c-.134.108-.2.21-.273.211-.738.012-1.476.008-2.1.008l-.988-.568c.066-.161.118-.453.2-.461.817-.085,1.638-.124,2.443-.175C280.361,133.166,280.123,132.594,280.193,132.058Z" transform="translate(-16.189 -1.657)" fill="#007aff"/>
    <path id="Path_6969" data-name="Path 6969" d="M272.183,128.645v.935c-.441.415-.927.134-1.359.23-.249-.325-.7-.493-.762-.977C270.676,128.514,271.325,128.739,272.183,128.645Z" transform="translate(-16.189)" fill="#007aff"/>
    <path id="Path_6970" data-name="Path 6970" d="M275.226,129.7a1.429,1.429,0,0,1-.085-.228c.146-.086.3-.157.455-.232l1.246-.605.837,1.042a.574.574,0,0,1-.319.121A7.341,7.341,0,0,1,275.226,129.7Z" transform="translate(-16.189)" fill="#007aff"/>
    <path id="Path_6971" data-name="Path 6971" d="M281.9,132.058c.912-.21,1.441.64,2.245.78a1.714,1.714,0,0,1-1.443.3C282.461,132.759,281.895,132.619,281.9,132.058Z" transform="translate(-16.189 -1.455)" fill="#007aff"/>
    <path id="Path_6972" data-name="Path 6972" d="M274.858,128.872l-1.552.91-.856-.173L274,128.7Z" transform="translate(-16.189)" fill="#007aff"/>
    <path id="Path_6973" data-name="Path 6973" d="M279.924,130.392l-.79-.79c.07-.534.485-.315.783-.359A.719.719,0,0,1,279.924,130.392Z" transform="translate(-16.189)" fill="#007aff"/>
    <path id="Path_6974" data-name="Path 6974" d="M287.3,133.185a1.219,1.219,0,0,1,0,1.724A1.219,1.219,0,0,1,287.3,133.185Z" transform="translate(-16.189 -1.911)" fill="#007aff"/>
    <path id="Path_6975" data-name="Path 6975" d="M58.49,136.442l-1.11.694-.123-.794C57.684,136.007,58,135.984,58.49,136.442Z" transform="translate(0 -2.77)" fill="#007aff"/>
    <path id="Path_6976" data-name="Path 6976" d="M277.349,132.343a.684.684,0,0,1,1.14,0A.684.684,0,0,1,277.349,132.343Z" transform="translate(-16.189 -1.409)" fill="#007aff"/>
    <path id="Path_6977" data-name="Path 6977" d="M267.682,132.061c.336-.582.336-.582,1.089-.333C268.56,132.336,268.047,131.957,267.682,132.061Z" transform="translate(-16.189 -1.253)" fill="#007aff"/>
    <path id="Path_6978" data-name="Path 6978" d="M280.258,132.217l-.581-.5C280.174,131.336,280.132,131.776,280.258,132.217Z" transform="translate(-16.189 -1.265)" fill="#007aff"/>
    <path id="Path_6979" data-name="Path 6979" d="M281.964,132.216l-.581-.5C281.88,131.335,281.838,131.775,281.964,132.216Z" transform="translate(-16.189 -1.264)" fill="#007aff"/>
    <path id="Path_6980" data-name="Path 6980" d="M65.79,134.668a1.693,1.693,0,0,1-.382.178c-.046.011-.123-.114-.187-.177a1.713,1.713,0,0,1,.382-.178C65.65,134.48,65.727,134.6,65.79,134.668Z" transform="translate(0 -2.149)" fill="#007aff"/>
    <path id="Path_6981" data-name="Path 6981" d="M57.059,140.724l.2.2a1.784,1.784,0,0,1-.382.178c-.047.011-.124-.114-.187-.178Z" transform="translate(0 -4.843)" fill="#007aff"/>
    <path id="Path_6982" data-name="Path 6982" d="M133.058,141.7l-.495.581C132.177,141.781,132.617,141.822,133.058,141.7Z" transform="translate(-5.324 -4.843)" fill="#007aff"/>
  </g>
</svg>
