<svg xmlns="http://www.w3.org/2000/svg" width="24" height="18" viewBox="0 0 24 18">
  <g id="india_indian_Flag_Raclangle" data-name="india indian Flag Raclangle" transform="translate(0 -1.279)">
    <rect id="Rectangle_826" data-name="Rectangle 826" width="24" height="6" transform="translate(0 1.279)" fill="#fab446"/>
    <rect id="Rectangle_827" data-name="Rectangle 827" width="24" height="6" transform="translate(0 13.279)" fill="#73af00"/>
    <rect id="Rectangle_828" data-name="Rectangle 828" width="24" height="6" transform="translate(0 7.279)" fill="#f5f5f5"/>
    <g id="Group_815" data-name="Group 815" transform="translate(9.26 7.536)">
      <path id="Path_854" data-name="Path 854" d="M200.292,203.04a2.743,2.743,0,1,1,2.74-2.743A2.744,2.744,0,0,1,200.292,203.04Zm0-4.975a2.232,2.232,0,1,0,2.23,2.232A2.234,2.234,0,0,0,200.292,198.065Z" transform="translate(-197.552 -197.555)" fill="#41479b"/>
      <ellipse id="Ellipse_79" data-name="Ellipse 79" cx="0.311" cy="0.311" rx="0.311" ry="0.311" transform="translate(2.429 2.432)" fill="#41479b"/>
      <path id="Path_855" data-name="Path 855" d="M205.474,253.482l-.789.08-1.7-.08v-.093l1.7-.08.789.08Z" transform="translate(-202.734 -250.693)" fill="#41479b"/>
      <path id="Path_856" data-name="Path 856" d="M256,253.482l.79.08,1.7-.08v-.093l-1.7-.08-.79.08Z" transform="translate(-253.26 -250.693)" fill="#41479b"/>
      <path id="Path_857" data-name="Path 857" d="M253.386,205.48l-.08-.79.08-1.7h.093l.08,1.7-.08.79Z" transform="translate(-250.692 -202.737)" fill="#41479b"/>
      <path id="Path_858" data-name="Path 858" d="M253.386,256l-.08.79.08,1.7h.093l.08-1.7-.08-.79Z" transform="translate(-250.692 -253.26)" fill="#41479b"/>
      <path id="Path_859" data-name="Path 859" d="M219.57,219.641l-.615-.5-1.143-1.257.066-.066,1.255,1.144.5.615Z" transform="translate(-216.863 -216.865)" fill="#41479b"/>
      <path id="Path_860" data-name="Path 860" d="M255.3,255.366l.5.615,1.255,1.144.066-.066-1.143-1.257-.614-.5Z" transform="translate(-252.59 -252.59)" fill="#41479b"/>
      <path id="Path_861" data-name="Path 861" d="M255.3,219.575l.5-.615,1.255-1.144.066.066-1.143,1.257-.614.5Z" transform="translate(-252.59 -216.865)" fill="#41479b"/>
      <path id="Path_862" data-name="Path 862" d="M219.57,255.3l-.615.5-1.143,1.257.066.066,1.255-1.144.5-.615Z" transform="translate(-216.863 -252.59)" fill="#41479b"/>
      <path id="Path_863" data-name="Path 863" d="M208.975,255.171l-.7.376-1.6.576-.036-.086,1.536-.723.76-.229Z" transform="translate(-206.218 -252.385)" fill="#41479b"/>
      <path id="Path_864" data-name="Path 864" d="M255.656,235.836l.76-.229,1.536-.723-.036-.086-1.6.576-.7.376Z" transform="translate(-252.898 -233.05)" fill="#41479b"/>
      <path id="Path_865" data-name="Path 865" d="M235.746,208.981l-.376-.7-.575-1.6.086-.036.722,1.538.228.761Z" transform="translate(-233.049 -206.22)" fill="#41479b"/>
      <path id="Path_866" data-name="Path 866" d="M255.082,255.659l.228.761.722,1.538.086-.036-.575-1.6-.376-.7Z" transform="translate(-252.385 -252.898)" fill="#41479b"/>
      <path id="Path_867" data-name="Path 867" d="M208.94,235.836l-.76-.229-1.536-.723.036-.086,1.6.576.7.376Z" transform="translate(-206.218 -233.05)" fill="#41479b"/>
      <path id="Path_868" data-name="Path 868" d="M255.62,255.171l.7.376,1.6.576.036-.086-1.536-.723-.76-.229Z" transform="translate(-252.898 -252.385)" fill="#41479b"/>
      <path id="Path_869" data-name="Path 869" d="M255.082,208.945l.228-.761.722-1.538.086.036-.575,1.6-.376.7Z" transform="translate(-252.385 -206.22)" fill="#41479b"/>
      <path id="Path_870" data-name="Path 870" d="M235.746,255.623l-.376.7-.575,1.6.086.036.722-1.538.228-.761Z" transform="translate(-233.049 -252.898)" fill="#41479b"/>
    </g>
    <ellipse id="Ellipse_80" data-name="Ellipse 80" cx="0.34" cy="0.341" rx="0.34" ry="0.341" transform="translate(11.66 11.939)" fill="#f5f5f5"/>
    <ellipse id="Ellipse_81" data-name="Ellipse 81" cx="0.251" cy="0.251" rx="0.251" ry="0.251" transform="translate(11.749 12.028)" fill="#41479b"/>
  </g>
</svg>
