<svg xmlns="http://www.w3.org/2000/svg" width="32.204" height="29.967" viewBox="0 0 32.204 29.967">
  <g id="Group_2104" data-name="Group 2104" transform="translate(0 0)">
    <g id="Group_2103" data-name="Group 2103" transform="translate(0 0)">
      <g id="line-2" transform="translate(0 11.416)">
        <g id="Path_1349" data-name="Path 1349" transform="translate(0 0)">
          <path id="Path_1351" data-name="Path 1351" d="M519.494,518.535v10.731a7.156,7.156,0,0,1-7.158,7.157H494.449a7.166,7.166,0,0,1-7.157-7.157V518.535c0-.233.018-.447.036-.662.429.233.859.484,1.3.7a34.812,34.812,0,0,0,7.747,2.862,33.754,33.754,0,0,0,5.672.877V525.7h2.684V522.35a26.32,26.32,0,0,0,3.56-.286,29.515,29.515,0,0,0,9.858-3.328,10.744,10.744,0,0,0,1.3-.751,2.733,2.733,0,0,1,.038.55Z" transform="translate(-487.292 -517.873)" fill="#32b3c9"/>
        </g>
      </g>
      <g id="Path_1338" data-name="Path 1338" transform="translate(0.892)">
        <path id="Path_1352" data-name="Path 1352" d="M511.944,516.414H510.6a5.31,5.31,0,0,0-5.278-4.92H500.71a5.31,5.31,0,0,0-5.278,4.92h-1.378a7.185,7.185,0,0,0-6.262,3.686c.393.233.769.465,1.163.662a31.509,31.509,0,0,0,8.07,3.149,25.883,25.883,0,0,0,20.092-3.024c.376-.233.751-.465,1.127-.716v-.018A7.192,7.192,0,0,0,511.944,516.414Zm-13.812,0a2.619,2.619,0,0,1,2.577-2.237h4.614a2.608,2.608,0,0,1,2.577,2.237Z" transform="translate(-487.791 -511.494)" fill="#32b3c9"/>
      </g>
    </g>
    <path id="Path_1350" data-name="Path 1350" d="M519.446,519.22a10.707,10.707,0,0,1-1.3.751,29.509,29.509,0,0,1-9.858,3.328,26.568,26.568,0,0,1-3.56.286v3.347H502.04v-3.382a33.761,33.761,0,0,1-5.672-.877,34.808,34.808,0,0,1-7.747-2.862c-.447-.215-.877-.465-1.3-.7a7.086,7.086,0,0,1,.859-2.808c.393.233.769.465,1.163.662a31.61,31.61,0,0,0,8.069,3.149,25.908,25.908,0,0,0,20.093-3.024c.376-.233.751-.465,1.127-.716a6.962,6.962,0,0,1,.818,2.848Z" transform="translate(-487.276 -507.696)" fill="#fff"/>
  </g>
</svg>
