<svg xmlns="http://www.w3.org/2000/svg" xmlns:xlink="http://www.w3.org/1999/xlink" width="44" height="44" viewBox="0 0 44 44">
  <defs>
    <clipPath id="clip-path">
      <rect id="Rectangle_3" data-name="Rectangle 3" width="44" height="44" fill="none"/>
    </clipPath>
  </defs>
  <g id="Group_14842" data-name="Group 14842" transform="translate(0 0.111)">
    <g id="_3" data-name="3" transform="translate(0 -0.111)" opacity="0">
      <g id="border" transform="translate(0 0)">
        <g id="material_system_icon_border">
          <rect id="Rectangle_1" data-name="Rectangle 1" width="44" height="44" fill="none"/>
        </g>
      </g>
      <g id="keylines" transform="translate(0 0)">
        <g id="material_system_icon_keylines" transform="translate(0 0)">
          <g id="Group_10" data-name="Group 10" opacity="0.4">
            <g id="Group_9" data-name="Group 9" clip-path="url(#clip-path)">
              <line id="Line_47" data-name="Line 47" y2="44" transform="translate(23.535)" fill="none" stroke="#000" stroke-width="0.25" opacity="0.1"/>
              <line id="Line_48" data-name="Line 48" x1="44" transform="translate(0 22.512)" fill="none" stroke="#000" stroke-width="0.25" opacity="0.1"/>
              <line id="Line_49" data-name="Line 49" x1="44" transform="translate(0 14.326)" fill="none" stroke="#000" stroke-width="0.25" opacity="0.1"/>
              <line id="Line_50" data-name="Line 50" x1="44" transform="translate(0 30.698)" fill="none" stroke="#000" stroke-width="0.25" opacity="0.1"/>
              <line id="Line_51" data-name="Line 51" y1="44" transform="translate(30.698)" fill="none" stroke="#000" stroke-width="0.25" opacity="0.1"/>
              <line id="Line_52" data-name="Line 52" y1="44" transform="translate(15.349)" fill="none" stroke="#000" stroke-width="0.25" opacity="0.1"/>
              <line id="Line_53" data-name="Line 53" x1="44.478" y2="44.478" transform="translate(0.459 0.203)" fill="none" stroke="#000" stroke-width="0.25" opacity="0.1"/>
              <line id="Line_54" data-name="Line 54" x2="44.478" y2="44.478" transform="translate(0.459 0.203)" fill="none" stroke="#000" stroke-width="0.25" opacity="0.1"/>
              <path id="Path_2" data-name="Path 2" d="M16.364,7a9.364,9.364,0,1,0,9.364,9.364A9.364,9.364,0,0,0,16.364,7Z" transform="translate(6.334 6.078)" fill="none" stroke="#e3f045" stroke-width="0.25"/>
              <path id="Path_3" data-name="Path 3" d="M20.728,2A18.728,18.728,0,1,0,39.456,20.728,18.719,18.719,0,0,0,20.728,2Z" transform="translate(1.97 1.714)" fill="none" stroke="#006cff" stroke-width="0.25"/>
              <path id="Path_4" data-name="Path 4" d="M32.965,3H6.746A3.743,3.743,0,0,0,3,6.746V32.965A3.745,3.745,0,0,0,6.746,36.71H32.965a3.746,3.746,0,0,0,3.746-3.746V6.746A3.745,3.745,0,0,0,32.965,3Z" transform="translate(2.843 2.587)" fill="none" stroke="#00e5b9" stroke-width="0.25"/>
              <path id="Path_5" data-name="Path 5" d="M35.71,4H5.746A3.745,3.745,0,0,0,2,7.746V30.219a3.746,3.746,0,0,0,3.746,3.746H35.71a3.747,3.747,0,0,0,3.746-3.746V7.746A3.746,3.746,0,0,0,35.71,4Z" transform="translate(1.97 3.46)" fill="none" stroke="#ff6aba" stroke-width="0.25"/>
              <path id="Path_6" data-name="Path 6" d="M33.965,35.71V5.746A3.746,3.746,0,0,0,30.219,2H7.746A3.745,3.745,0,0,0,4,5.746V35.71a3.746,3.746,0,0,0,3.746,3.746H30.219A3.747,3.747,0,0,0,33.965,35.71Z" transform="translate(3.716 1.714)" fill="none" stroke="#cb79ff" stroke-width="0.25"/>
            </g>
          </g>
        </g>
      </g>
    </g>
    <g id="Group_1982" data-name="Group 1982" transform="translate(5.844 5.944)">
      <path id="line" d="M7.491,2.809A4.687,4.687,0,0,0,2.809,7.491V18.728A4.687,4.687,0,0,0,7.491,23.41H26.219A4.687,4.687,0,0,0,30.9,18.728V7.491a4.687,4.687,0,0,0-4.682-4.682H7.491M7.491,0H26.219A7.491,7.491,0,0,1,33.71,7.491V18.728a7.491,7.491,0,0,1-7.491,7.491H7.491A7.491,7.491,0,0,1,0,18.728V7.491A7.491,7.491,0,0,1,7.491,0Z" transform="translate(0 5.15)" fill="#f77188"/>
      <path id="Path_1338" data-name="Path 1338" d="M22.259,9.633a1.4,1.4,0,0,1-1.4-1.4V7.543A2.737,2.737,0,0,0,18.12,4.809H13.289a2.737,2.737,0,0,0-2.734,2.734v.685a1.4,1.4,0,1,1-2.809,0V7.543A5.55,5.55,0,0,1,13.289,2H18.12a5.55,5.55,0,0,1,5.543,5.543v.685A1.4,1.4,0,0,1,22.259,9.633Z" transform="translate(1.61 -2)" fill="#f77188"/>
      <path id="Path_1340" data-name="Path 1340" d="M5616.949-17145.17a23.006,23.006,0,0,1-6.568-.986,28.06,28.06,0,0,1-9.882-5.309l1.873-2.092-.936,1.043.934-1.047a25.723,25.723,0,0,0,8.906,4.74,19.194,19.194,0,0,0,8.913.553,21.227,21.227,0,0,0,10.279-5.293l1.866,2.1a23.909,23.909,0,0,1-11.71,5.971A20.818,20.818,0,0,1,5616.949-17145.17Z" transform="translate(-5599.563 17163.699)" fill="#f77188"/>
      <path id="Line_480" data-name="Line 480" d="M2.059,3.746H-.75V0H2.059Z" transform="translate(16.2 18.26)" fill="#f77188"/>
    </g>
  </g>
</svg>
