<svg id="Icon" xmlns="http://www.w3.org/2000/svg" xmlns:xlink="http://www.w3.org/1999/xlink" width="24" height="24" viewBox="0 0 24 24">
  <defs>
    <linearGradient id="linear-gradient" x1="0.5" x2="0.5" y2="1" gradientUnits="objectBoundingBox">
      <stop offset="0" stop-color="#aaa" stop-opacity="0.8"/>
      <stop offset="1" stop-color="#aaa" stop-opacity="0.902"/>
    </linearGradient>
  </defs>
  <circle id="bounding" cx="12" cy="12" r="12" transform="translate(0)" fill="none"/>
  <g id="artwork" transform="translate(0 4.286)">
    <g id="ART" transform="translate(0 0)">
      <path id="Union_46" data-name="Union 46" d="M5.779,11.019H.239A.239.239,0,0,1,0,10.779V10.3A3.568,3.568,0,0,1,.965,7.778a3.89,3.89,0,0,1,2.867-1.07H6.707a4.421,4.421,0,0,1,1.944.409,5.78,5.78,0,0,0-2.871,3.9h0ZM2.395,2.875A2.875,2.875,0,1,1,5.27,5.749,2.875,2.875,0,0,1,2.395,2.875Z" transform="translate(0 1.746)" fill="url(#linear-gradient)"/>
      <path id="Union_45" data-name="Union 45" d="M9.138,14.907H.324A.324.324,0,0,1,0,14.583v-.648a4.829,4.829,0,0,1,1.305-3.414,5.264,5.264,0,0,1,3.88-1.448H9.074a5.523,5.523,0,0,1,3.34.98,4.75,4.75,0,0,0-2.36,1.681,4.666,4.666,0,0,0-.93,2.809c0,.121,0,.243.014.364h0ZM3.24,3.889A3.889,3.889,0,1,1,7.129,7.778,3.889,3.889,0,0,1,3.24,3.889Z" transform="translate(6.533 0)" fill="url(#linear-gradient)"/>
    </g>
    <path id="Path_1227" data-name="Path 1227" d="M8.686,5.993a2.44,2.44,0,0,0,0-.713l.789-.6a.18.18,0,0,0,.045-.233L8.772,3.189a.19.19,0,0,0-.228-.08l-.931.364a2.751,2.751,0,0,0-.632-.356l-.142-.964A.181.181,0,0,0,6.656,2H5.16a.181.181,0,0,0-.183.153l-.142.964a2.893,2.893,0,0,0-.632.356l-.931-.364a.185.185,0,0,0-.228.08L2.3,4.447a.176.176,0,0,0,.045.233l.789.6a2.44,2.44,0,0,0,0,.713l-.789.6a.18.18,0,0,0-.045.233l.748,1.258a.19.19,0,0,0,.228.08L4.2,7.8a2.751,2.751,0,0,0,.632.356l.142.964a.181.181,0,0,0,.183.153h1.5a.181.181,0,0,0,.183-.153l.142-.964A2.893,2.893,0,0,0,7.613,7.8l.931.364a.185.185,0,0,0,.228-.08l.748-1.258a.18.18,0,0,0-.045-.233Zm-2.778.916A1.273,1.273,0,1,1,7.216,5.636,1.292,1.292,0,0,1,5.908,6.909Z" transform="translate(14.456 8.907)" fill="#32b3c9"/>
  </g>
</svg>
