<svg xmlns="http://www.w3.org/2000/svg" width="140" height="140" viewBox="0 0 140 140">
  <g id="USER_PROFILE" data-name="USER PROFILE" transform="translate(-378 -858)">
    <g id="Ellipse_78" data-name="Ellipse 78" transform="translate(378 858)" fill="#fff" stroke="#e3e3e3" stroke-linecap="round" stroke-width="2" stroke-dasharray="2 6">
      <circle cx="70" cy="70" r="70" stroke="none"/>
      <circle cx="70" cy="70" r="69" fill="none"/>
    </g>
    <g id="add_a_photo-24px_Picture_media_image" transform="translate(426 906)">
      <rect id="Rectangle_831" data-name="Rectangle 831" width="44" height="44" fill="none"/>
      <path id="Path_955" data-name="Path 955" d="M5.5,6.5V1H9.167V6.5h5.5v3.667h-5.5v5.5H5.5v-5.5H0V6.5Zm5.5,11V12h5.5V6.5H29.333l3.355,3.667H38.5a3.677,3.677,0,0,1,3.667,3.667v22A3.677,3.677,0,0,1,38.5,39.5H9.167A3.677,3.677,0,0,1,5.5,35.833V17.5ZM23.833,34a9.167,9.167,0,1,0-9.167-9.167A9.17,9.17,0,0,0,23.833,34Zm-5.867-9.167a5.867,5.867,0,1,0,5.867-5.867A5.86,5.86,0,0,0,17.967,24.833Z" transform="translate(0 0.833)" fill="#aaa"/>
    </g>
  </g>
</svg>