<svg xmlns="http://www.w3.org/2000/svg" width="55" height="55" viewBox="0 0 55 55">
  <g id="Group_14982" data-name="Group 14982" transform="translate(-693 -1837.002)">
    <path id="Union_1" data-name="Union 1" d="M2465.5-9150a27.5,27.5,0,0,1,27.5,27.5,27.5,27.5,0,0,1-27.5,27.5,27.5,27.5,0,0,1-27.5-27.5A27.5,27.5,0,0,1,2465.5-9150Z" transform="translate(-1745 10987.002)" fill="#007aff" opacity="0.82"/>
    <path id="Path_1983" data-name="Path 1983" d="M11.043,3.055a2,2,0,0,1,3.477,0l9.343,16.421a2,2,0,0,1-1.738,2.989H3.439A2,2,0,0,1,1.7,19.476Z" transform="translate(734.465 1851.72) rotate(90)" fill="#fff"/>
  </g>
</svg>
