<svg id="Layer_2" data-name="Layer 2" xmlns="http://www.w3.org/2000/svg" width="26" height="26" viewBox="0 0 26 26">
  <g id="arrow-ios-downward">
    <rect id="Rectangle_3064" data-name="Rectangle 3064" width="26" height="26" opacity="0"/>
    <path id="Path_1986" data-name="Path 1986" d="M13,16a1.246,1.246,0,0,1-.731-.23l-6.856-5a.918.918,0,0,1-.149-1.41,1.259,1.259,0,0,1,1.611-.13L13,13.71l6.124-4.32a1.259,1.259,0,0,1,.841-.218,1.2,1.2,0,0,1,.77.368.923.923,0,0,1,.284.761.977.977,0,0,1-.444.7l-6.856,4.83A1.267,1.267,0,0,1,13,16Z" transform="translate(0 1.059)"/>
  </g>
</svg>
