<svg id="round-star_border-24px" xmlns="http://www.w3.org/2000/svg" width="16" height="16" viewBox="0 0 16 16">
  <path id="Path_1156" data-name="Path 1156" d="M0,0H16V16H0Z" fill="none"/>
  <path id="Path_1157" data-name="Path 1157" d="M14.248,7.214l-3.227-.28L9.761,3.968a.667.667,0,0,0-1.227,0L7.274,6.941l-3.22.273a.665.665,0,0,0-.38,1.167L6.121,10.5l-.733,3.147a.665.665,0,0,0,.993.72L9.148,12.7l2.767,1.673a.665.665,0,0,0,.993-.72L12.174,10.5l2.447-2.12a.664.664,0,0,0-.373-1.167Zm-5.1,4.24L6.641,12.968l.667-2.853L5.094,8.194l2.92-.253L9.148,5.254l1.14,2.693,2.92.253-2.213,1.92.667,2.853Z" transform="translate(-1.148 -1.188)" fill="#aaa"/>
</svg>
