<svg xmlns="http://www.w3.org/2000/svg" width="183.244" height="66.941" viewBox="0 0 183.244 66.941">
  <g id="Group_10453" data-name="Group 10453" transform="translate(-31.923 -153.581)">
    <g id="Group_10452" data-name="Group 10452">
      <g id="Group_10451" data-name="Group 10451">
        <g id="Path_32480" data-name="Path 32480">
          <path id="Path_34501" data-name="Path 34501" d="M55.326,165.282h-1a5.324,5.324,0,0,0-1.753-4.211,4.644,4.644,0,0,0-4.011-.757l-.208-.979a5.6,5.6,0,0,1,4.848.959A6.31,6.31,0,0,1,55.326,165.282Z"/>
        </g>
        <g id="Path_32481" data-name="Path 32481">
          <path id="Path_34502" data-name="Path 34502" d="M49.724,153.581a10.9,10.9,0,0,0-8.632,17.549l-8.67,8.67a1.709,1.709,0,0,0,2.42,2.414l8.733-8.727a10.9,10.9,0,1,0,6.149-19.906Zm0,18.216a7.2,7.2,0,1,1,7.2-7.2,7.2,7.2,0,0,1-7.2,7.2Z"/>
        </g>
        <g id="Path_32482" data-name="Path 32482">
          <path id="Path_34503" data-name="Path 34503" d="M49.546,176.726A11.079,11.079,0,0,0,38.469,187.8v21.635a11.077,11.077,0,1,0,22.154.018V187.8a11.078,11.078,0,0,0-11.075-11.077Zm6.758,33.46a6.892,6.892,0,0,1-13.783,0v-22.83a6.9,6.9,0,0,1,5.233-6.7l1.157,1.245-1.9,16.336,2.541,3.087,2.529-3.03-1.817-16.362.934-1.245a6.9,6.9,0,0,1,5.113,6.663Z"/>
        </g>
      </g>
    </g>
    <g id="Talent_acquisition_services" data-name="Talent acquisition services" style="mix-blend-mode: normal;isolation: isolate">
      <g id="Group_12338" data-name="Group 12338" style="mix-blend-mode: normal;isolation: isolate">
        <path id="Path_34504" data-name="Path 34504" d="M84.49,163.47H80.682v-2.243H91.051v2.243H87.244v9.655H84.49Z"/>
        <path id="Path_34505" data-name="Path 34505" d="M101.473,170.575H95.948l-1.053,2.55H92.073l5.3-11.9h2.72l5.32,11.9h-2.89Zm-.867-2.091-1.887-4.555-1.887,4.555Z"/>
        <path id="Path_34506" data-name="Path 34506" d="M108.358,161.227h2.754v9.654h5.966v2.244h-8.72Z"/>
        <path id="Path_34507" data-name="Path 34507" d="M129.539,170.915v2.21h-9.213v-11.9h8.992v2.209h-6.256v2.584h5.525v2.141h-5.525v2.754Z"/>
        <path id="Path_34508" data-name="Path 34508" d="M144.346,161.227v11.9h-2.261l-5.933-7.225v7.225h-2.719v-11.9h2.277l5.916,7.223v-7.223Z"/>
        <path id="Path_34509" data-name="Path 34509" d="M151.333,163.47h-3.807v-2.243H157.9v2.243h-3.808v9.655h-2.754Z"/>
      </g>
      <g id="Group_12339" data-name="Group 12339" style="mix-blend-mode: normal;isolation: isolate">
        <path id="Path_34510" data-name="Path 34510" d="M89.861,190.575H84.337l-1.054,2.55H80.461l5.3-11.9h2.719l5.321,11.9h-2.89ZM89,188.484l-1.888-4.555-1.886,4.555Z"/>
        <path id="Path_34511" data-name="Path 34511" d="M95.829,187.176a6.552,6.552,0,0,1,11.355-4.046l-1.768,1.632a3.829,3.829,0,0,0-2.992-1.394,3.808,3.808,0,0,0,0,7.615,3.792,3.792,0,0,0,2.992-1.411l1.768,1.632a6.541,6.541,0,0,1-11.355-4.028Z"/>
        <path id="Path_34512" data-name="Path 34512" d="M123.351,194.4a4.031,4.031,0,0,1-3.213,1.462c-1.768,0-3.009-.645-4.845-2.583a6.074,6.074,0,0,1-5.558-6.1,6.52,6.52,0,0,1,13.02,0,5.988,5.988,0,0,1-4.249,5.813,2.2,2.2,0,0,0,1.682.833,2.584,2.584,0,0,0,1.938-.884Zm-7.106-3.416a3.808,3.808,0,1,0-3.723-3.807A3.629,3.629,0,0,0,116.245,190.983Z"/>
        <path id="Path_34513" data-name="Path 34513" d="M126.429,187.89v-6.663h2.754v6.56c0,2.261.985,3.2,2.651,3.2,1.683,0,2.652-.935,2.652-3.2v-6.56h2.72v6.663c0,3.5-2.006,5.439-5.389,5.439S126.429,191.392,126.429,187.89Z"/>
        <path id="Path_34514" data-name="Path 34514" d="M141.626,181.227h2.754v11.9h-2.754Z"/>
        <path id="Path_34515" data-name="Path 34515" d="M147.968,191.952l.934-2.074a7,7,0,0,0,3.927,1.241c1.632,0,2.295-.544,2.295-1.274,0-2.228-6.918-.7-6.918-5.117,0-2.023,1.631-3.706,5.014-3.706a7.982,7.982,0,0,1,4.131,1.054l-.85,2.091a6.721,6.721,0,0,0-3.3-.935c-1.632,0-2.261.612-2.261,1.36,0,2.192,6.919.679,6.919,5.049,0,1.988-1.649,3.688-5.049,3.688A8.476,8.476,0,0,1,147.968,191.952Z"/>
        <path id="Path_34516" data-name="Path 34516" d="M161.448,181.227H164.2v11.9h-2.754Z"/>
        <path id="Path_34517" data-name="Path 34517" d="M171.188,183.47h-3.807v-2.243H177.75v2.243h-3.808v9.655h-2.754Z"/>
        <path id="Path_34518" data-name="Path 34518" d="M180.93,181.227h2.754v11.9H180.93Z"/>
        <path id="Path_34519" data-name="Path 34519" d="M187.458,187.176a6.521,6.521,0,0,1,13.021,0c0,3.553-2.771,6.153-6.511,6.153A6.157,6.157,0,0,1,187.458,187.176Zm10.233,0a3.723,3.723,0,1,0-3.723,3.807A3.63,3.63,0,0,0,197.691,187.176Z"/>
        <path id="Path_34520" data-name="Path 34520" d="M215.167,181.227v11.9h-2.261l-5.932-7.225v7.225h-2.72v-11.9h2.277l5.916,7.223v-7.223Z"/>
      </g>
      <g id="Group_12340" data-name="Group 12340" style="mix-blend-mode: normal;isolation: isolate">
        <path id="Path_34521" data-name="Path 34521" d="M81.09,211.952l.935-2.074a7,7,0,0,0,3.927,1.241c1.631,0,2.295-.544,2.295-1.274,0-2.228-6.919-.7-6.919-5.117,0-2.023,1.632-3.706,5.015-3.706a7.981,7.981,0,0,1,4.13,1.054l-.849,2.091a6.724,6.724,0,0,0-3.3-.935c-1.632,0-2.261.612-2.261,1.36,0,2.192,6.918.679,6.918,5.049,0,1.988-1.649,3.688-5.048,3.688A8.482,8.482,0,0,1,81.09,211.952Z"/>
        <path id="Path_34522" data-name="Path 34522" d="M103.784,210.915v2.21H94.571v-11.9h8.992v2.209H97.308v2.584h5.524v2.141H97.308v2.754Z"/>
        <path id="Path_34523" data-name="Path 34523" d="M115.259,213.125l-2.3-3.314h-2.533v3.314h-2.754v-11.9h5.151c3.179,0,5.168,1.648,5.168,4.317a3.87,3.87,0,0,1-2.448,3.757l2.668,3.824Zm-2.584-9.655h-2.244v4.147h2.244c1.683,0,2.533-.781,2.533-2.073C115.208,204.235,114.358,203.47,112.675,203.47Z"/>
        <path id="Path_34524" data-name="Path 34524" d="M133.312,201.227l-5.15,11.9h-2.72l-5.133-11.9h2.974l3.621,8.5,3.671-8.5Z"/>
        <path id="Path_34525" data-name="Path 34525" d="M136,201.227h2.754v11.9H136Z"/>
        <path id="Path_34526" data-name="Path 34526" d="M142.527,207.176a6.552,6.552,0,0,1,11.355-4.046l-1.768,1.632a3.828,3.828,0,0,0-2.991-1.394,3.808,3.808,0,1,0,0,7.615,3.792,3.792,0,0,0,2.991-1.411l1.768,1.632a6.541,6.541,0,0,1-11.355-4.028Z"/>
        <path id="Path_34527" data-name="Path 34527" d="M166.649,210.915v2.21h-9.213v-11.9h8.992v2.209h-6.256v2.584H165.7v2.141h-5.525v2.754Z"/>
        <path id="Path_34528" data-name="Path 34528" d="M169.608,211.952l.934-2.074a7,7,0,0,0,3.927,1.241c1.632,0,2.3-.544,2.3-1.274,0-2.228-6.918-.7-6.918-5.117,0-2.023,1.632-3.706,5.014-3.706a7.982,7.982,0,0,1,4.131,1.054l-.85,2.091a6.721,6.721,0,0,0-3.3-.935c-1.632,0-2.26.612-2.26,1.36,0,2.192,6.918.679,6.918,5.049,0,1.988-1.649,3.688-5.049,3.688A8.478,8.478,0,0,1,169.608,211.952Z"/>
      </g>
    </g>
  </g>
</svg>
