<svg xmlns="http://www.w3.org/2000/svg" xmlns:xlink="http://www.w3.org/1999/xlink" width="79" height="72" viewBox="0 0 79 72">
  <defs>
    <filter id="Rectangle_1022" x="0" y="0" width="79" height="72" filterUnits="userSpaceOnUse">
      <feOffset dy="1" input="SourceAlpha"/>
      <feGaussianBlur stdDeviation="1" result="blur"/>
      <feFlood flood-opacity="0.031"/>
      <feComposite operator="in" in2="blur"/>
      <feComposite in="SourceGraphic"/>
    </filter>
  </defs>
  <g id="Graphic" transform="translate(-748 -263)">
    <g transform="matrix(1, 0, 0, 1, 748, 263)" filter="url(#Rectangle_1022)">
      <rect id="Rectangle_1022-2" data-name="Rectangle 1022" width="73" height="66" rx="3" transform="translate(3 2)" fill="#fff"/>
    </g>
    <path id="Rectangle_1023" data-name="Rectangle 1023" d="M3,0H70a3,3,0,0,1,3,3V40a0,0,0,0,1,0,0H0a0,0,0,0,1,0,0V3A3,3,0,0,1,3,0Z" transform="translate(751 265)" fill="#f9f9f9"/>
    <rect id="Rectangle_1024" data-name="Rectangle 1024" width="43" height="4" rx="2" transform="translate(757 310)" fill="#f4f4f4"/>
    <rect id="Rectangle_1025" data-name="Rectangle 1025" width="17" height="4" rx="2" transform="translate(757 317)" fill="#f4f4f4"/>
    <g id="Group_1911" data-name="Group 1911" transform="translate(-4.898 -1.057)">
      <path id="Polygon_2" data-name="Polygon 2" d="M13.5,0,27,18H0Z" transform="translate(791.898 288.056)" fill="#b2f2ce"/>
      <path id="Polygon_1" data-name="Polygon 1" d="M18.5,0,37,26H0Z" transform="translate(765.898 280.056)" fill="#cbf7de"/>
      <circle id="Ellipse_104" data-name="Ellipse 104" cx="3.5" cy="3.5" r="3.5" transform="translate(792.898 279.056)" fill="#ebf419"/>
    </g>
  </g>
</svg>
