<svg xmlns="http://www.w3.org/2000/svg" width="94" height="94" viewBox="0 0 94 94">
  <g id="Graphic" transform="translate(-740 -162)">
    <rect id="bounding" width="94" height="94" transform="translate(740 162)" fill="none"/>
    <g id="Group_1916" data-name="Group 1916" transform="translate(10 16)">
      <g id="Group_1917" data-name="Group 1917" transform="translate(731 160)">
        <rect id="Rectangle_1022" data-name="Rectangle 1022" width="92.857" height="20.714" rx="3" fill="#d5e4ff"/>
        <rect id="Rectangle_1024" data-name="Rectangle 1024" width="22.143" height="2.857" rx="1.429" transform="translate(27.857 6.428)" fill="#fff"/>
        <rect id="Rectangle_1027" data-name="Rectangle 1027" width="19.286" height="2.857" rx="1.429" transform="translate(60.714 6.428)" fill="#fff"/>
        <rect id="Rectangle_1025" data-name="Rectangle 1025" width="13.571" height="2.857" rx="1.429" transform="translate(27.857 11.428)" fill="#fff"/>
        <rect id="Rectangle_1028" data-name="Rectangle 1028" width="12.143" height="2.857" rx="1.429" transform="translate(60.714 11.428)" fill="#fff"/>
        <g id="_Ticket_-_confirmation_number_black_24dp" data-name=" Ticket - confirmation_number_black_24dp" transform="translate(5.714 4.285)">
          <g id="Group_1912" data-name="Group 1912" transform="translate(0 0)">
            <rect id="Rectangle_1029" data-name="Rectangle 1029" width="12.857" height="12.857" fill="none"/>
          </g>
          <g id="Group_1915" data-name="Group 1915" transform="translate(1.837 2.5)">
            <g id="Group_1914" data-name="Group 1914" transform="translate(0 0)">
              <g id="Group_1913" data-name="Group 1913" transform="translate(0 0)">
                <path id="Subtraction_17" data-name="Subtraction 17" d="M8.265,7.957H1.225A1.226,1.226,0,0,1,0,6.733V5.2A1.225,1.225,0,0,0,1.225,3.979,1.224,1.224,0,0,0,.006,2.754V1.225A1.224,1.224,0,0,1,1.225,0h7.04A1.227,1.227,0,0,1,9.491,1.225V2.754a1.224,1.224,0,1,0,0,2.447V6.733A1.226,1.226,0,0,1,8.265,7.957ZM4.745,3.263c-.592,0-1.073.321-1.073.716s.482.715,1.073.715,1.07-.321,1.07-.715S5.336,3.263,4.745,3.263Z" fill="#5e99fd"/>
              </g>
            </g>
          </g>
        </g>
      </g>
      <g id="Group_1918" data-name="Group 1918" transform="translate(731 182.715)">
        <rect id="Rectangle_1022-2" data-name="Rectangle 1022" width="92.857" height="20.714" rx="3" fill="#ffdbee"/>
        <rect id="Rectangle_1024-2" data-name="Rectangle 1024" width="22.143" height="2.857" rx="1.429" transform="translate(27.857 6.428)" fill="#fff"/>
        <rect id="Rectangle_1027-2" data-name="Rectangle 1027" width="19.286" height="2.857" rx="1.429" transform="translate(60.714 6.428)" fill="#fff"/>
        <rect id="Rectangle_1025-2" data-name="Rectangle 1025" width="13.571" height="2.857" rx="1.429" transform="translate(27.857 11.428)" fill="#fff"/>
        <rect id="Rectangle_1028-2" data-name="Rectangle 1028" width="12.143" height="2.857" rx="1.429" transform="translate(60.714 11.428)" fill="#fff"/>
        <g id="_Ticket_-_confirmation_number_black_24dp-2" data-name=" Ticket - confirmation_number_black_24dp" transform="translate(5.714 4.285)">
          <g id="Group_1912-2" data-name="Group 1912" transform="translate(0 0)">
            <rect id="Rectangle_1029-2" data-name="Rectangle 1029" width="12.857" height="12.857" fill="none"/>
          </g>
          <g id="Group_1915-2" data-name="Group 1915" transform="translate(1.837 2.5)">
            <g id="Group_1914-2" data-name="Group 1914" transform="translate(0 0)">
              <g id="Group_1913-2" data-name="Group 1913" transform="translate(0 0)">
                <path id="Subtraction_17-2" data-name="Subtraction 17" d="M8.265,7.957H1.225A1.226,1.226,0,0,1,0,6.733V5.2A1.225,1.225,0,0,0,1.225,3.979,1.224,1.224,0,0,0,.006,2.754V1.225A1.224,1.224,0,0,1,1.225,0h7.04A1.227,1.227,0,0,1,9.491,1.225V2.754a1.224,1.224,0,1,0,0,2.447V6.733A1.226,1.226,0,0,1,8.265,7.957ZM4.745,3.263c-.592,0-1.073.321-1.073.716s.482.715,1.073.715,1.07-.321,1.07-.715S5.336,3.263,4.745,3.263Z" fill="#fd92cb"/>
              </g>
            </g>
          </g>
        </g>
      </g>
      <g id="Group_1919" data-name="Group 1919" transform="translate(731 205.43)">
        <rect id="Rectangle_1022-3" data-name="Rectangle 1022" width="92.857" height="20.714" rx="3" fill="#c6e5e0"/>
        <rect id="Rectangle_1024-3" data-name="Rectangle 1024" width="22.143" height="2.857" rx="1.429" transform="translate(27.857 6.428)" fill="#fff"/>
        <rect id="Rectangle_1027-3" data-name="Rectangle 1027" width="19.286" height="2.857" rx="1.429" transform="translate(60.714 6.428)" fill="#fff"/>
        <rect id="Rectangle_1025-3" data-name="Rectangle 1025" width="13.571" height="2.857" rx="1.429" transform="translate(27.857 11.428)" fill="#fff"/>
        <rect id="Rectangle_1028-3" data-name="Rectangle 1028" width="12.143" height="2.857" rx="1.429" transform="translate(60.714 11.428)" fill="#fff"/>
        <g id="_Ticket_-_confirmation_number_black_24dp-3" data-name=" Ticket - confirmation_number_black_24dp" transform="translate(5.714 4.285)">
          <g id="Group_1912-3" data-name="Group 1912" transform="translate(0 0)">
            <rect id="Rectangle_1029-3" data-name="Rectangle 1029" width="12.857" height="12.857" fill="none"/>
          </g>
          <g id="Group_1915-3" data-name="Group 1915" transform="translate(1.837 2.5)">
            <g id="Group_1914-3" data-name="Group 1914" transform="translate(0 0)">
              <g id="Group_1913-3" data-name="Group 1913" transform="translate(0 0)">
                <path id="Subtraction_17-3" data-name="Subtraction 17" d="M8.265,7.957H1.225A1.226,1.226,0,0,1,0,6.733V5.2A1.225,1.225,0,0,0,1.225,3.979,1.224,1.224,0,0,0,.006,2.754V1.225A1.224,1.224,0,0,1,1.225,0h7.04A1.227,1.227,0,0,1,9.491,1.225V2.754a1.224,1.224,0,1,0,0,2.447V6.733A1.226,1.226,0,0,1,8.265,7.957ZM4.745,3.263c-.592,0-1.073.321-1.073.716s.482.715,1.073.715,1.07-.321,1.07-.715S5.336,3.263,4.745,3.263Z" fill="#6fb1a6"/>
              </g>
            </g>
          </g>
        </g>
      </g>
    </g>
  </g>
</svg>
