<svg xmlns="http://www.w3.org/2000/svg" xmlns:xlink="http://www.w3.org/1999/xlink" width="175.062" height="123.715" viewBox="0 0 175.062 123.715">
  <defs>
    <linearGradient id="linear-gradient" x1="0.515" y1="-0.013" x2="0.486" y2="0.813" gradientUnits="objectBoundingBox">
      <stop offset="0" stop-color="#fff"/>
      <stop offset="1" stop-color="#fff" stop-opacity="0"/>
    </linearGradient>
    <linearGradient id="linear-gradient-2" x1="0.521" y1="-0.015" x2="0.489" y2="0.812" xlink:href="#linear-gradient"/>
    <linearGradient id="linear-gradient-3" x1="-0.463" y1="0.5" x2="0.537" y2="0.5" gradientUnits="objectBoundingBox">
      <stop offset="0" stop-color="#40d5e6"/>
      <stop offset="1" stop-color="#57f"/>
    </linearGradient>
  </defs>
  <g id="PMT_M43_010" transform="translate(-22.133 -14.549)">
    <path id="Path" d="M4.206.133a2.828,2.828,0,0,1-.268,4.145A2.619,2.619,0,0,1,.083,3.014,2.44,2.44,0,0,1,2.676.03,4.487,4.487,0,0,1,4.17.707" transform="translate(174.159 72.732)" fill="#00a0c0" opacity="0.29"/>
    <path id="Path-2" data-name="Path" d="M144.736,39.695c-.433,1.091-.879,2.193-1.321,3.3a81.042,81.042,0,0,0-2.854,8.145l-.042.151c-.165.607-.318,1.214-.454,1.822a23.713,23.713,0,0,0-.154,11.034c.595,2.384,1.66,4.6,2.369,6.952a24.512,24.512,0,0,1-2.132,18.953,22.041,22.041,0,0,1-9.408,8.791,20.1,20.1,0,0,1-2.36.967,19.237,19.237,0,0,1-3.09.774,80.716,80.716,0,0,1-8.143.484c-1.81.109-3.616.346-5.428.328q-1.556-.015-3.1-.106l-.249-.015h-.032q-.326-.02-.65-.044l-.194-.014c-.2-.015-.394-.03-.59-.047q-.366-.03-.732-.064l-.73-.071q-.362-.037-.724-.077h-.011l-.569-.065h-.013l-.286-.033-.073-.009c-.169-.02-.339-.041-.509-.063s-.346-.044-.519-.068l-.084-.011-.74-.1-.739-.108q-.323-.047-.646-.1l-.167-.025q-.6-.094-1.2-.195l-.239-.039c-.355-.059-.711-.12-1.067-.182s-.728-.127-1.091-.194H96.76c-5.212-.946-10.375-2.111-15.589-2.966q-1.182-.193-2.369-.364c-.528-.075-1.055-.147-1.584-.213q-.5-.063-1.007-.121a64.01,64.01,0,0,0-10.331-.41c-1.429.067-2.868.193-4.318.388a54.217,54.217,0,0,0-9.856,2.31q-1.882.623-3.713,1.348c-6.248,2.462-12.126,5.682-18.5,8.655l-.353.165a23.991,23.991,0,0,1-8.159,2.241c-7.931.634-14.9-3.556-18.855-12.369a25.718,25.718,0,0,1,.669-21.879q.267-.516.561-1.013.242-.412.5-.81c4-6.241,10.5-10.592,13.367-17.518a27.146,27.146,0,0,0,1.376-4.377q.206-.906.357-1.823c1.216-7.245.175-14.979.644-22.447q.058-.914.147-1.823a28.523,28.523,0,0,1,4.283-13.121C31.786,1.705,49.167-2.462,61.575,1.394a43.708,43.708,0,0,1,5.671,2.249c1.5.706,2.97,1.478,4.435,2.279l.3.163q1.03.563,2.055,1.147c6.848,3.865,13.581,7.939,21.2,8.372,6,.342,11.882-1.658,17.57-3.735,1.195-.436,2.394-.879,3.6-1.3q1-.356,2.01-.693c.808-.269,1.62-.527,2.433-.766a40.985,40.985,0,0,1,6.184-1.361q.744-.1,1.5-.16.876-.07,1.755-.084.3,0,.6,0c5.83.078,11.918,2.533,15.069,7.762C150.259,22.411,147.843,31.871,144.736,39.695Z" transform="translate(33.139 16.533)" fill="#00a0c0" opacity="0.8"/>
    <path id="Path-3" data-name="Path" d="M24.629,3.072a4.6,4.6,0,0,1-1.882.468c-4.1.394-8.236.412-12.327.919C6.863,4.9,3.309,6.823,0,7.182,1.293,1.816,10.86.339,17.715.056c2.11-.088,3.961-.061,5.237,0a3.033,3.033,0,0,1,2.39.95,1.231,1.231,0,0,1,.179.461A1.648,1.648,0,0,1,24.629,3.072Z" transform="translate(80.896 108.013)" fill="#00a0c0" opacity="0.8"/>
    <path id="Path-4" data-name="Path" d="M8.006,12.538q-.26.86-.573,1.7A24.364,24.364,0,0,1,2.58,22.288,3.708,3.708,0,0,1,.092,23.762c-.463-1.391.917-2.631,2-3.619A12.718,12.718,0,0,0,5.3,15.615a13.738,13.738,0,0,0,.778-2.691h0c.025-.129.047-.259.068-.388.586-3.546.155-7.328.871-10.891C7.16.949,7.826-.6,8.788.249A2.164,2.164,0,0,1,9.3,1.83,32.528,32.528,0,0,1,8.006,12.538Z" transform="translate(39.663 51.588)" fill="#00a0c0" opacity="0.8"/>
    <path id="Path-5" data-name="Path" d="M5.737,3.232C5.468,4.293,5.2,5.357,4.861,6.4c-.187.576-.394,1.144-.634,1.7-.019.048-.04.1-.062.144a21.667,21.667,0,0,0-1.031,2.415c-.919,3.021.444,6.468-.807,9.368-.75.382-1.484-.557-1.737-1.357-1.069-3.4-.5-7.055.219-10.574q.1-.482.2-.959c.052-.247.1-.494.157-.744a15.736,15.736,0,0,1,.948-3.136l-.293.26A4.974,4.974,0,0,1,3.284,1.161,1.882,1.882,0,0,1,3.768.908,4.812,4.812,0,0,1,5.209,0l-.2.676L4.84.827a1.285,1.285,0,0,1,.9.644A2.487,2.487,0,0,1,5.737,3.232Z" transform="translate(174.805 58.013)" fill="#33b3cc"/>
    <g id="Group" transform="translate(80.172 42.43)" opacity="0.27">
      <path id="Path-6" data-name="Path" d="M4.49.01,0,0,1.728,19.714l4.933.011L4.49.01Z" transform="translate(4.565 1.918)" fill="#fff" opacity="0.57"/>
      <path id="Path-7" data-name="Path" d="M0,.823,1.241,0s1.2,2.3,1.084,3.306l-.649-.12A2.885,2.885,0,0,0,0,.823Z" transform="translate(2.782 0)" fill="#fff"/>
      <path id="Path-8" data-name="Path" d="M3.313,0,0,.693,2.2,16.185l4.365.01L3.313,0Z" transform="translate(11.251 5.463)" fill="#fff" opacity="0.57"/>
      <path id="Path-9" data-name="Path" d="M5,0,0,.021,1.168,14.158l5.188.011L5,0Z" transform="translate(9.675 7.484)" fill="#fff" opacity="0.57"/>
      <path id="Path-10" data-name="Path" d="M2.912,0,0,.232.042.76,2.954.529,2.912,0Z" transform="translate(10.313 15.061)" fill="#fff"/>
      <path id="Path-11" data-name="Path" d="M2.147.03,0,0,4.02,11.418l2.453-.824L2.147.03Z" transform="translate(18.083 10.249)" fill="#fff"/>
      <path id="Path-12" data-name="Path" d="M1.85,0,0,.334l2.743,11.1,3.195.007L1.85,0Z" transform="translate(16.245 10.227)" fill="#fff" opacity="0.57"/>
      <path id="Path-13" data-name="Path" d="M1.571.079,0,0,3.105,16.187l2.008,0L1.571.079Z" transform="translate(14.557 5.47)" fill="#fff"/>
      <path id="Path-14" data-name="Path" d="M5.544.012.042,0,0,19.731l6.688.014L5.544.012Z" transform="translate(0 1.888)" fill="#fff" opacity="0.57"/>
      <path id="Path-15" data-name="Path" d="M3.318.007,0,0,.123,2.772l3.454.007L3.318.007Z" transform="translate(5.659 3.719)" fill="#fff"/>
      <path id="Path-16" data-name="Path" d="M3.013.158,0,0,.447,6.089,3.51,5.755l-.5-5.6Z" transform="translate(11.373 8.203)" fill="#fff"/>
      <path id="Path-17" data-name="Path" d="M4.211,0,0,.336.04.862,4.25.527,4.211,0Z" transform="translate(11.284 14.863)" fill="#fff"/>
      <path id="Path-18" data-name="Path" d="M5.6.012.006,0,0,2.632l5.751.19L5.6.012Z" transform="translate(0.057 3.708)" fill="#fff"/>
      <path id="Path-19" data-name="Path" d="M1.416,0,0,0,.128,2.057l1.416,0L1.416,0Z" transform="translate(7.618 18.588)" fill="#fff"/>
      <path id="Path-20" data-name="Path" d="M3.319,0,0,.716.036.981,3.378.3,3.319,0Z" transform="translate(11.337 5.995)" fill="#fff"/>
      <path id="Path-21" data-name="Path" d="M0,0,1.571.063l.08.288L.059.3,0,0Z" transform="translate(14.657 5.995)" fill="#fff"/>
      <path id="Path-22" data-name="Path" d="M.967,0,0,.008,1.878,9.156l.966-.009L.967,0Z" transform="translate(16.144 11.554)" fill="#fff"/>
      <path id="Path-23" data-name="Path" d="M1.284,0,0,.263l.248.985L1.643.708,1.284,0Z" transform="translate(22.081 19.529)" fill="#fff"/>
      <path id="Path-24" data-name="Path" d="M1.167,0,0,.185l.251.983L1.513.718,1.167,0Z" transform="translate(21.661 18.368)" fill="#fff"/>
      <path id="Path-25" data-name="Path" d="M1.983,3.542.818,0,0,.02,1.474,3.629l.509-.087Z" transform="translate(19.004 10.673)" fill="#fff"/>
    </g>
    <g id="Group-2" data-name="Group" transform="translate(35.931 19.927)" opacity="0.93">
      <path id="Path-26" data-name="Path" d="M12.2,0,4.883,17.943l-.015.036a.161.161,0,0,1-.211.088l-.311-.127L.1,16.208A.162.162,0,0,1,.012,16l6-14.728A43.459,43.459,0,0,1,12.2,0Z" transform="translate(112.044 3.834)" fill="#fff" opacity="0.15"/>
      <path id="Path-27" data-name="Path" d="M12.832,2.284l-.3.744h0l-7.6,18.628-.063.157a.161.161,0,0,1-.211.088l-.607-.247h0L.1,20.042a.161.161,0,0,1-.088-.211L8.1,0c1.495.659,2.97,1.379,4.435,2.127Z" transform="translate(56.36 0)" fill="#fff" opacity="0.15"/>
      <g id="Group-3" data-name="Group" transform="translate(71.398 15.161)" opacity="0.15">
        <path id="Path-28" data-name="Path" d="M17.892,3.137,17.9.169a.131.131,0,0,0-.131-.131L.137,0A.131.131,0,0,0,.006.131L0,3.1a.131.131,0,0,0,.131.131l17.63.038A.131.131,0,0,0,17.892,3.137Z" transform="translate(0.906 11.961)" fill="#fff"/>
        <path id="Path-29" data-name="Path" d="M0,7.437.015.162A.163.163,0,0,1,.179,0l15.01.032A.162.162,0,0,1,15.35.2L15.335,7.47a.163.163,0,0,1-.163.162L.162,7.6A.162.162,0,0,1,0,7.437Z" transform="translate(1.026 15.059)" fill="#fff" opacity="0.57"/>
        <path id="Path-30" data-name="Path" d="M0,6.361.014.162A.162.162,0,0,1,.176,0L20.5.044a.162.162,0,0,1,.162.163l-.013,6.2a.162.162,0,0,1-.163.162L.162,6.524A.163.163,0,0,1,0,6.361Z" transform="translate(0.475 22.253)" fill="#fff"/>
        <path id="Path-31" data-name="Path" d="M.011.769,0,6.177a.341.341,0,0,0,.339.342l19.966.044a.342.342,0,0,0,.342-.341L20.66.38A.342.342,0,0,0,20.32.038L2.723,0Q1.38.427.011.769Z" transform="translate(0 0)" fill="#fff"/>
        <path id="Path-32" data-name="Path" d="M.5,4.082A16.8,16.8,0,0,0,.5.173a.179.179,0,0,0-.358,0A16.832,16.832,0,0,0,.119,4.082.2.2,0,0,0,.5,4.082Z" transform="translate(13.296 16.458)" fill="#fff"/>
        <path id="Path-33" data-name="Path" d="M.5,4.082A16.8,16.8,0,0,0,.5.173a.179.179,0,0,0-.358,0,16.812,16.812,0,0,0-.022,3.91.2.2,0,0,0,.385,0Z" transform="translate(11.502 16.454)" fill="#fff"/>
        <path id="Path-34" data-name="Path" d="M.5,4.083A16.806,16.806,0,0,0,.5.173a.179.179,0,0,0-.358,0A16.808,16.808,0,0,0,.119,4.082a.2.2,0,0,0,.385,0Z" transform="translate(9.709 16.45)" fill="#fff"/>
      </g>
      <path id="Shape" d="M125.6,66.145l-9.4-.02-32.267-.069-12.8-.028-.014,5.891-2.356-.006.013-5.891-2.481,0L0,65.91q.267-.482.565-.943.242-.384.5-.755l65.44.109,2.282,0L68.831,43.9l-1.519,0-2.84-.006-16.81-.036L15.8,43.784c.138-.563.255-1.132.357-1.7l31.166.068,19.338.044h.321l1.846,0,.041-18.941,0-2.007-20.216-.044-1.632,0L16.8,21.137q.056-.854.147-1.7l43.462.093h.881l7.586.017L68.89.9V0l.3.156q1.028.53,2.053,1.07l-.011,18.323h.5l19.97.044,24.682.055h.537l8.772.018.039-18.11q.875-.066,1.755-.079.3,0,.6,0l-.087,40.844,9.72.022c-.165.566-.318,1.13-.455,1.7L128,44.024l-.055,42.692a20.942,20.942,0,0,1-2.36.9Z" transform="translate(0 2.128)" fill="#fff" opacity="0.47"/>
      <path id="Path-35" data-name="Path" d="M13.027,1.276,2.632,15.516a.131.131,0,0,1-.181.028l-2.4-1.751a.131.131,0,0,1-.028-.181L9.489.647q1-.332,2.01-.647L13,1.094a.131.131,0,0,1,.028.181Z" transform="translate(104.127 5.818)" fill="#fff" opacity="0.15"/>
      <path id="Path-36" data-name="Path" d="M8.273,14.892l-2.014.832a.163.163,0,0,1-.212-.088L.012,1.059A.163.163,0,0,1,.1.846L2.114.012A.163.163,0,0,1,2.326.1L8.36,14.678a.162.162,0,0,1-.088.215Z" transform="translate(81.133 50.703)" fill="#fff" opacity="0.14"/>
      <g id="Group-4" data-name="Group" transform="translate(70.941 47.687)" opacity="0.14">
        <path id="Path-37" data-name="Path" d="M7.558,18.028l-4.472.732a.162.162,0,0,1-.186-.134L0,.921A.162.162,0,0,1,.136.735L4.608,0a.162.162,0,0,1,.186.134l2.9,17.706a.162.162,0,0,1-.136.186Z" transform="translate(0 0)" fill="#fff"/>
        <path id="Path-38" data-name="Path" d="M2.7.034A7.79,7.79,0,0,0,.225.343C.037.373-.024.585.008.78s.158.378.345.348A7.811,7.811,0,0,0,2.8.631.359.359,0,0,0,2.7.034Z" transform="translate(1.237 1.934)" fill="#fff"/>
        <path id="Path-39" data-name="Path" d="M2.7.034A7.779,7.779,0,0,0,.225.343C.037.373-.024.585.008.781s.158.379.345.348A7.8,7.8,0,0,0,2.8.631.359.359,0,0,0,2.7.034Z" transform="translate(2.333 8.623)" fill="#fff"/>
        <path id="Path-40" data-name="Path" d="M.472.006A.736.736,0,0,0,.014.9c.071.436.4.755.72.7a.736.736,0,0,0,.458-.9C1.121.271.794-.047.472.006Z" transform="translate(2.646 4.972)" fill="#fff"/>
      </g>
      <g id="Group-5" data-name="Group" transform="translate(76.519 50.624)" opacity="0.1">
        <path id="Path-41" data-name="Path" d="M7.45,14.723l-3.91.907a.162.162,0,0,1-.194-.121L0,1.106A.162.162,0,0,1,.126.911L4.036,0A.162.162,0,0,1,4.23.125l3.342,14.4a.162.162,0,0,1-.122.195Z" transform="translate(0 0)" fill="#fff"/>
        <path id="Path-42" data-name="Path" d="M.331.007C.045.073-.081.615.055,1.2s.487,1.015.773.949S1.239,1.539,1.1.955.617-.06.331.007Z" transform="translate(2.284 2.432)" fill="#fff"/>
        <path id="Path-43" data-name="Path" d="M2.2.006c-.385.056-.761.153-1.138.234a2.183,2.183,0,0,0-1,.329c-.146.118-.026.634.157.675A2.18,2.18,0,0,0,1.26,1.1c.376-.094.756-.172,1.126-.292.134-.016.148-.239.1-.446S2.326-.038,2.2.006Z" transform="translate(2.301 6.666)" fill="#fff"/>
      </g>
      <path id="Path-44" data-name="Path" d="M4.112,11.791l-1.038,0-1.208,0C-2.256,6.233,1.739,0,1.739,0A10.8,10.8,0,0,1,4.55,5.154,12.641,12.641,0,0,1,4.112,11.791Z" transform="translate(130.762 24.952)" fill="#fff" opacity="0.21"/>
      <path id="Path-45" data-name="Path" d="M2.588,9.965,0,9.971A12.637,12.637,0,0,0,.438,3.335,12.731,12.731,0,0,1,3.472,0,10.909,10.909,0,0,1,2.588,9.965Z" transform="translate(134.874 26.772)" fill="#fff" opacity="0.1"/>
      <path id="Path-46" data-name="Path" d="M10.259,0A72.3,72.3,0,0,0,7.405,7.6L1.2,7.616,0,.025,2.263.018H3.472l1.038,0L7.1.009Z" transform="translate(130.364 36.73)" fill="#fff" opacity="0.1"/>
      <path id="Path-47" data-name="Path" d="M4.112,11.791l-1.038,0-1.208,0C-2.256,6.233,1.739,0,1.739,0A10.8,10.8,0,0,1,4.55,5.154,12.655,12.655,0,0,1,4.112,11.791Z" transform="translate(98.714 24.883)" fill="#fff" opacity="0.21"/>
      <path id="Path-48" data-name="Path" d="M2.588,9.966,0,9.972A12.637,12.637,0,0,0,.438,3.335,12.729,12.729,0,0,1,3.472,0,10.91,10.91,0,0,1,2.588,9.966Z" transform="translate(102.826 26.703)" fill="#fff" opacity="0.1"/>
      <path id="Path-49" data-name="Path" d="M10.343,0,8.921,7.6,1.2,7.616,0,.025,2.264.019l1.208,0,1.038,0L7.1.007,10.343,0Z" transform="translate(98.315 36.661)" fill="#fff" opacity="0.1"/>
    </g>
    <circle id="Oval" cx="6.519" cy="6.519" r="6.519" transform="translate(145.411 52.475)" fill="#fff" opacity="0.91"/>
    <circle id="Oval-2" data-name="Oval" cx="1.383" cy="1.383" r="1.383" transform="matrix(0.992, -0.123, 0.123, 0.992, 44.227, 88.017)" fill="#fff" opacity="0.65"/>
    <circle id="Oval-3" data-name="Oval" cx="1.81" cy="1.81" r="1.81" transform="translate(85.076 45.73) rotate(-22.5)" fill="#fff" opacity="0.91"/>
    <path id="Path-50" data-name="Path" d="M.453,0A.453.453,0,1,0,.905.452.453.453,0,0,0,.453,0Z" transform="translate(95.618 49.835)" fill="#fff" opacity="0.79"/>
    <circle id="Oval-4" data-name="Oval" cx="0.905" cy="0.905" r="0.905" transform="translate(51.159 74.811) rotate(-22.5)" fill="#fff"/>
    <circle id="Oval-5" data-name="Oval" cx="0.905" cy="0.905" r="0.905" transform="translate(95.429 91.752) rotate(-13.28)" fill="#fff"/>
    <circle id="Oval-6" data-name="Oval" cx="0.905" cy="0.905" r="0.905" transform="translate(150.745 47.568) rotate(-22.5)" fill="#fff"/>
    <circle id="Oval-7" data-name="Oval" cx="4.221" cy="4.221" r="4.221" transform="translate(155.982 85.59)" fill="#fff" opacity="0.53"/>
    <path id="Path-51" data-name="Path" d="M29.5,23.32a15.937,15.937,0,0,1-17.283,9.543,13.44,13.44,0,0,1-7.084-3.743q-.32-.318-.626-.665a17.672,17.672,0,0,1-3.254-5.442A19.047,19.047,0,0,1,1.545,8.695C3.309,4.733,8.331,1.388,13.321.341a12.648,12.648,0,0,1,6.638.2c.082.028.163.057.244.088l.079.031a11.4,11.4,0,0,1,4.128,2.9,19.809,19.809,0,0,1,2.031,2.578q.318.472.613.954C30.022,11.914,31.738,17.88,29.5,23.32Z" transform="translate(56.328 14.549)" fill="#fff"/>
    <path id="Path-52" data-name="Path" d="M29.5,23.32a15.937,15.937,0,0,1-17.283,9.543,13.44,13.44,0,0,1-7.084-3.743q-.32-.318-.626-.665a17.672,17.672,0,0,1-3.254-5.442A19.047,19.047,0,0,1,1.545,8.695C3.309,4.733,8.331,1.388,13.321.341a12.648,12.648,0,0,1,6.638.2c.082.028.163.057.244.088l.079.031a11.4,11.4,0,0,1,4.128,2.9,19.809,19.809,0,0,1,2.031,2.578q.318.472.613.954C30.022,11.914,31.738,17.88,29.5,23.32Z" transform="translate(56.328 14.549)" fill="#1f60e5" opacity="0.08"/>
    <path id="Path-53" data-name="Path" d="M12.608,0,10.96,10.761l-.131.846L9.662,19.236,2.609,16.012l-.777-.355L0,14.818c.276-.368,2.117-3.682,2.117-3.682l1.474,1.182.648.517,2.477,1.983V0Z" transform="translate(64.235 19.358)" fill="#003fc3" opacity="0.72"/>
    <g id="Group-6" data-name="Group" transform="translate(65.936 29.839)" opacity="0.42">
      <path id="Shape-2" data-name="Shape" d="M5.041,13.007A6.732,6.732,0,0,1,.129,5.184V5.175h0l.774.355A5.891,5.891,0,1,0,9.127,1.125L9.258.279a6.774,6.774,0,0,1,1.92,1.2,6.717,6.717,0,0,1-4.461,11.74H6.71A6.709,6.709,0,0,1,5.041,13.007ZM1.906,1.85l-.017-.014.052-.052h0A6.7,6.7,0,0,1,5.016,0V.86A5.885,5.885,0,0,0,2.538,2.354Z" transform="translate(0 0)" fill="#003fc3"/>
    </g>
    <path id="Path-54" data-name="Path" d="M19.03.663,16.822,4.808,13.369,11.3l-3.076,5.779-.035.065L8.488,20.466l0,.007-4.6,8.647q-.32-.318-.626-.665A17.672,17.672,0,0,1,0,23.013L12.069.341a12.648,12.648,0,0,1,6.638.2c.082.028.163.057.244.088Z" transform="translate(57.582 14.55)" opacity="0.75" fill="url(#linear-gradient)"/>
    <path id="Path-55" data-name="Path" d="M17.152,2.578,11.5,13.2l-.4.756-2.55,4.791h0l-.792,1.488L5.76,23.976l-.4.756L2.926,29.3A13.5,13.5,0,0,1,0,28.4l2.691-5.056.4-.751,1.922-3.609,4.9-9.212L15.12,0A19.775,19.775,0,0,1,17.152,2.578Z" transform="translate(65.619 18.114)" opacity="0.75" fill="url(#linear-gradient-2)"/>
    <path id="Path-56" data-name="Path" d="M.045.041.052.053" transform="translate(66.73 72.847)" fill="#512d50"/>
    <path id="Path-57" data-name="Path" d="M.533,0C.353.095.176.2,0,.3A1.028,1.028,0,0,1,.529,0Z" transform="translate(81.283 83.997)" fill="#fe7101" opacity="0.43"/>
    <path id="Path-58" data-name="Path" d="M.068.11A.734.734,0,0,1,0,0Z" transform="translate(81.393 80.985)" fill="#fff"/>
    <path id="Path-59" data-name="Path" d="M6.045.921A4.085,4.085,0,0,1,4.978,2.935a8.018,8.018,0,0,1-1.566.848,9.32,9.32,0,0,1-.858.457,4.615,4.615,0,0,1-2.408.071A3.635,3.635,0,0,1,.079,2.593a2.375,2.375,0,0,1,.365-.681,5.371,5.371,0,0,1,.464-.562A2.354,2.354,0,0,0,4.127.9,2.407,2.407,0,0,1,4.726.3a1.838,1.838,0,0,1,.525-.17c.21-.044.412-.088.61-.131A.933.933,0,0,1,6.045.921Z" transform="translate(74.567 84.455)" fill="none"/>
    <path id="Path-60" data-name="Path" d="M.016.11C.03.073.046.037.06,0,.067.073.059.119.016.11Z" transform="translate(76.03 57.818)" fill="#020e49" opacity="0.71"/>
    <path id="Path-61" data-name="Path" d="M9.756.023C8.837.851,0,13.277,0,13.277L3.222,27.083,5.06,30.856l4.694-12.7L12.17,0Z" transform="translate(114.485 55.966)" fill="none"/>
    <path id="Path-62" data-name="Path" d="M2.089,0,0,1.615A9.26,9.26,0,0,1,2.089,0Z" transform="translate(119.611 86.608)" fill="#000060" opacity="0.1"/>
    <circle id="Oval-8" data-name="Oval" cx="1.399" cy="1.399" r="1.399" transform="translate(23.427 98.257) rotate(-14.94)" fill="#ffb200" opacity="0.28"/>
    <circle id="Oval-9" data-name="Oval" cx="1.178" cy="1.178" r="1.178" transform="matrix(0.854, -0.52, 0.52, 0.854, 27.485, 110.323)" fill="#ffb200" opacity="0.57"/>
    <circle id="Oval-10" data-name="Oval" cx="0.773" cy="0.773" r="0.773" transform="matrix(0.663, -0.748, 0.748, 0.663, 38.153, 122.504)" fill="#ffb200" opacity="0.35"/>
    <circle id="Oval-11" data-name="Oval" cx="0.773" cy="0.773" r="0.773" transform="translate(178.789 114.199) rotate(-85.88)" fill="#00a0c0" opacity="0.72"/>
    <circle id="Oval-12" data-name="Oval" cx="0.81" cy="0.81" r="0.81" transform="matrix(0.581, -0.814, 0.814, 0.581, 190.648, 106.604)" fill="#00a0c0" opacity="0.28"/>
    <circle id="Oval-13" data-name="Oval" cx="0.994" cy="0.994" r="0.994" transform="translate(194.383 89.092) rotate(-44.11)" fill="#00a0c0" opacity="0.54"/>
    <g id="Group_33" data-name="Group 33" transform="translate(142.229 91.43)">
      <circle id="Oval-14" data-name="Oval" cx="0.453" cy="0.453" r="0.453" transform="translate(29.916 18.356)" fill="#fff" opacity="0.79"/>
      <path id="Path-63" data-name="Path" d="M9.332,0,9.24,1.583A12.783,12.783,0,0,1,.572,12.953L0,13.146l.157-1.828A12.783,12.783,0,0,1,7.68.737Z" transform="translate(23.981)" fill="#fff"/>
      <path id="Path-64" data-name="Path" d="M0,1,1.383.558A11.814,11.814,0,0,1,14,4.2l.357.423-1.614.467A11.814,11.814,0,0,1,1.184,2.164Z" transform="translate(19.07 15.387)" fill="#fff"/>
      <path id="Path-65" data-name="Path" d="M9.332,0,9.24,1.583A12.783,12.783,0,0,1,.572,12.953L0,13.146l.157-1.828A12.783,12.783,0,0,1,7.68.737Z" transform="translate(23.981)" fill="#fff" opacity="0.54"/>
      <path id="Path-66" data-name="Path" d="M0,1,1.383.558A11.814,11.814,0,0,1,14,4.2l.357.423-1.614.467A11.814,11.814,0,0,1,1.184,2.164Z" transform="translate(19.07 15.387)" fill="#fff"/>
      <path id="Path-67" data-name="Path" d="M16.019,1.86l-1.242.986A12.783,12.783,0,0,1,.525,3.958L0,3.66l1.467-1.1a12.783,12.783,0,0,1,12.9-1.44Z" transform="translate(28.473 7.922)" fill="#fff"/>
      <path id="Path-68" data-name="Path" d="M16.019,1.86l-1.242.986A12.783,12.783,0,0,1,.525,3.958L0,3.66l1.467-1.1a12.783,12.783,0,0,1,12.9-1.44Z" transform="translate(28.473 7.922)" fill="#fff"/>
      <path id="Path-69" data-name="Path" d="M9.332,0,9.24,1.583A12.783,12.783,0,0,1,.572,12.953L0,13.146l.157-1.828A12.783,12.783,0,0,1,7.68.737Z" transform="translate(23.981)" fill="#fff"/>
      <path id="Path-70" data-name="Path" d="M.287,13.7.66,15.43l.45-.383A13.867,13.867,0,0,0,5.467,8.192a.018.018,0,0,0,0-.008,13.346,13.346,0,0,0,.135-6.7L5.241,0,3.986,1.273A13.829,13.829,0,0,0,.287,13.7Z" transform="translate(14.025 4.465)" fill="#fff"/>
      <path id="Path-71" data-name="Path" d="M0,1,1.182,2.168A11.807,11.807,0,0,0,12.747,5.094l1.614-.468L14,4.2A11.816,11.816,0,0,0,5.692.022h0a11.732,11.732,0,0,0-4.3.537Z" transform="translate(19.069 15.384)" fill="#fff"/>
      <g id="Group-7" data-name="Group" transform="translate(11.146 9.329)" opacity="0.78">
        <path id="Path-72" data-name="Path" d="M0,15.671l.371.032a19.648,19.648,0,0,1,1.786-2.964c.078-.109.158-.216.239-.323a22.218,22.218,0,0,1,1.839-2.132A26.669,26.669,0,0,1,7.985,7.12c.073-.052.144-.1.219-.15A36.608,36.608,0,0,1,15.3,3.2c.331-.134.657-.263.984-.384q.637-.239,1.251-.45h0c.514-.178,1.016-.341,1.5-.49A44.064,44.064,0,0,1,25.612.35.175.175,0,1,0,25.568,0a44.27,44.27,0,0,0-6.5,1.5q-.627.192-1.289.413l-.383.131q-.541.186-1.1.394t-1.119.434s0,0-.006,0q-.845.341-1.653.709A34.35,34.35,0,0,0,6.684,7.633q-.492.382-.958.777-.793.672-1.5,1.383-.358.355-.7.721a22.5,22.5,0,0,0-1.532,1.848q-.121.163-.237.327A20.251,20.251,0,0,0,0,15.654a.1.1,0,0,0,0,.017Z" transform="translate(0 0)" fill="#fe7101"/>
      </g>
      <path id="Path-73" data-name="Path" d="M9.331,0,9.239,1.583A12.783,12.783,0,0,1,.571,12.953L0,13.146l.156-1.828A12.783,12.783,0,0,1,7.68.737Z" transform="translate(23.969 0.337)" fill="#fe7101" opacity="0.69"/>
      <path id="Path-74" data-name="Path" d="M.287,13.333.66,15.066l.45-.383A13.867,13.867,0,0,0,5.467,7.827a.018.018,0,0,0,0-.008,14.192,14.192,0,0,0-.083-6.227L5,0,3.654,1.364A14.573,14.573,0,0,0,2.6,2.563,13.736,13.736,0,0,0,.287,13.333Z" transform="translate(14.025 4.83)" fill="#fe7101" opacity="0.44"/>
      <path id="Path-75" data-name="Path" d="M0,1,1.182,2.167a10.784,10.784,0,0,0,10.978,2.9L13.774,4.6l-.357-.423A11.816,11.816,0,0,0,5.105,0h0A11.732,11.732,0,0,0,1.384.559Z" transform="translate(19.656 15.405)" fill="#fe7101" opacity="0.43"/>
      <path id="Path-76" data-name="Path" d="M16.019,1.86l-1.242.986A12.783,12.783,0,0,1,.525,3.958L0,3.66l1.467-1.1a12.783,12.783,0,0,1,12.9-1.44Z" transform="translate(28.473 7.922)" fill="#fff"/>
      <path id="Path-77" data-name="Path" d="M16.019,1.86l-1.242.986A12.783,12.783,0,0,1,.525,3.958L0,3.66l1.467-1.1a12.783,12.783,0,0,1,12.9-1.44Z" transform="translate(28.473 7.922)" fill="#fe7101" opacity="0.45"/>
      <path id="Path-78" data-name="Path" d="M21.644,4.6a.213.213,0,0,1-.184-.07,11.611,11.611,0,0,0-1.413-1.339C16.21.125,11.052.155,7.4.72A31.323,31.323,0,0,0,.3,2.709a.214.214,0,0,1-.175-.39A31.9,31.9,0,0,1,7.334.3c3.735-.576,9.018-.6,12.978,2.556a12.065,12.065,0,0,1,1.465,1.388.213.213,0,0,1-.017.3.216.216,0,0,1-.115.053Z" transform="translate(8.418 22.488)" fill="#fff"/>
      <path id="Path-79" data-name="Path" d="M8.376,8.847A9.293,9.293,0,0,0,.028,0S-.927,6.981,8.376,8.847Z" transform="translate(12.852 23.423)" fill="#fff"/>
      <path id="Path-80" data-name="Path" d="M10.662.189A9.293,9.293,0,0,0,0,6.044S6.517,8.726,10.662.189Z" transform="translate(18.928 16.436)" fill="#fff"/>
      <path id="Path-81" data-name="Path" d="M.189.106C.3-.485,8.209,1.233,6.73,9.2,6.73,9.2-1.321,7.785.189.106Z" transform="translate(26.854 25.537)" fill="#fff"/>
      <g id="Group-8" data-name="Group" transform="translate(8.418 16.436)" opacity="0.78">
        <path id="Path-82" data-name="Path" d="M21.644,4.6a.213.213,0,0,1-.184-.07,11.611,11.611,0,0,0-1.413-1.339C16.21.125,11.052.155,7.4.72A31.323,31.323,0,0,0,.3,2.709a.214.214,0,0,1-.175-.39A31.9,31.9,0,0,1,7.334.3c3.735-.576,9.018-.6,12.978,2.556a12.065,12.065,0,0,1,1.465,1.388.213.213,0,0,1-.017.3.216.216,0,0,1-.115.053Z" transform="translate(0 6.052)" fill="#fe7101"/>
        <g id="Group-9" data-name="Group" transform="translate(4.434 6.987)" opacity="0.61">
          <path id="Path-83" data-name="Path" d="M8.376,8.847A9.293,9.293,0,0,0,.028,0S-.927,6.981,8.376,8.847Z" transform="translate(0 0)" fill="#fe7101"/>
        </g>
        <path id="Path-84" data-name="Path" d="M10.662.189A9.293,9.293,0,0,0,0,6.044S6.517,8.726,10.662.189Z" transform="translate(10.51 0)" fill="#fe7101"/>
        <g id="Group-10" data-name="Group" transform="translate(18.268 7.7)" opacity="0.42">
          <path id="Path-85" data-name="Path" d="M.189.106c.116-.591,8.02,1.127,6.542,9.1C6.731,9.2-1.321,7.785.189.106Z" transform="translate(0 0)" fill="#fe7101"/>
        </g>
      </g>
      <path id="Path-86" data-name="Path" d="M12.4.77c.01.08.019.167.029.259a38.022,38.022,0,0,1,.169,6.114c-.015.244-.035.489-.059.732h0c-.008.091-.018.18-.027.271-.017.153-.035.306-.055.456a13.965,13.965,0,0,1-.475,2.274c-.013.04-.025.078-.038.118q-1.389.232-2.8.37h0q-.131.008-.263.012-.206.011-.412.018H8.433l-.323.011-.241.007-.343.007c-.3.007-.6.009-.895.01H6.345c-.114,0-.227,0-.341,0H5.942c-.023.049-.046.1-.068.144a.59.59,0,0,0-.063,0c.022-.049.046-.1.069-.147-.144,0-.286,0-.429-.006-.117,0-.233,0-.348-.008s-.25-.006-.374-.01c-.088,0-.175-.006-.263-.009q-.189-.006-.377-.015c-1.418-.06-2.778-.17-4.04-.314A.364.364,0,0,1,0,11.055,17.767,17.767,0,0,1,12.3,0s.014.088.035.252l.013.1C12.363.467,12.377.6,12.4.77Z" transform="translate(0 15.327)" fill="#fff"/>
      <path id="Path-87" data-name="Path" d="M6.585.517c.01.08.019.167.029.259A38.022,38.022,0,0,1,6.783,6.89c-.015.244-.035.489-.059.732h0c-.008.091-.018.18-.027.271-.017.153-.035.306-.055.456a13.965,13.965,0,0,1-.475,2.274c-.013.04-.025.078-.038.118q-1.389.232-2.8.37h0q-.131.008-.263.012-.206.011-.412.018H2.622l-.323.011-.241.007-.343.007c-.3.007-.6.009-.895.01H.534c-.114,0-.227,0-.341,0H.131c-.023.049-.046.1-.068.144a.59.59,0,0,0-.063,0c.022-.049.046-.1.069-.147A84.765,84.765,0,0,1,6.525,0h0l.013.1C6.552.214,6.566.351,6.585.517Z" transform="translate(5.811 15.579)" fill="#fff" opacity="0.56"/>
      <g id="Group-11" data-name="Group" transform="translate(0.049 15.429)" opacity="0.67">
        <path id="Path-88" data-name="Path" d="M12.347.668c.01.08.019.167.029.259a38.315,38.315,0,0,1,.191,6.082c-.015.24-.033.482-.054.722-.009.1-.019.206-.029.306-.016.153-.033.306-.053.454a14.189,14.189,0,0,1-.489,2.386c-.014.04-.025.078-.038.118q-.381.064-.762.119a0,0,0,0,1-.005,0l-.313.028-.019,0-.345.028-.421.03c-.238.017-.475.032-.712.044-.078,0-.155.009-.232.012h0q-.131.008-.263.012-.206.011-.412.018H8.384l-.323.011-.241.007-.343.007c-.3.007-.6.009-.895.01H6.3c-.114,0-.227,0-.341,0H5.892c-.023.049-.046.1-.068.144a.59.59,0,0,0-.063,0c.022-.049.046-.1.069-.147-.144,0-.286,0-.429-.006-.117,0-.233,0-.348-.008s-.25-.006-.374-.01c-.088,0-.175-.006-.263-.009q-.189-.006-.377-.015c-1.418-.06-2.778-.17-4.04-.314A17.765,17.765,0,0,1,12.265,0s.008.051.021.148c0,.021.005.044.009.067l0,.037C12.313.364,12.328.5,12.347.668Z" transform="translate(0 0)" fill="#ffb600"/>
      </g>
      <path id="Path-89" data-name="Path" d="M6.454.415c.01.08.019.167.029.259a38.315,38.315,0,0,1,.191,6.082c-.015.24-.033.482-.054.722-.009.1-.019.206-.029.306-.016.153-.033.306-.053.454a14.189,14.189,0,0,1-.489,2.386c-.014.04-.025.078-.038.118q-.381.064-.762.119a0,0,0,0,1-.005,0l-.313.028-.019,0-.345.028-.421.03c-.238.017-.475.032-.712.044-.078,0-.155.009-.232.012h0q-.131.008-.263.012-.206.011-.412.018H2.491l-.323.011-.241.007-.343.007c-.3.007-.6.009-.895.01H.4c-.114,0-.227,0-.341,0H0A85.033,85.033,0,0,1,6.407,0C6.421.112,6.435.249,6.454.415Z" transform="translate(5.942 15.682)" fill="#fe7101" opacity="0.5"/>
    </g>
    <g id="Group_32" data-name="Group 32" transform="translate(22.133 94.939)">
      <circle id="Oval-15" data-name="Oval" cx="6.165" cy="6.165" r="6.165" transform="translate(23.366 8.719) rotate(-45)" fill="#fff" opacity="0.91"/>
      <path id="Path-90" data-name="Path" d="M.034,0,.056.032a.317.317,0,0,0,0,.036Z" transform="translate(32.089 6.384)" fill="#fe7101" opacity="0.68"/>
      <path id="Path-91" data-name="Path" d="M0,.688Q.776.345,1.544,0,.777.345,0,.688Z" transform="translate(41.321 28.689)" fill="#fe7101" opacity="0.68"/>
      <path id="Path-92" data-name="Path" d="M20.818,1.077h0l-.461.162-.044.016h0s0,0,0,0c-.1-.028-.213-.062-.35-.1s-.31-.082-.5-.128l-.07-.017A24.018,24.018,0,0,0,14.462.357c-.529-.014-1.078-.009-1.639.022A18.211,18.211,0,0,0,10.256.7c-.131.026-.263.053-.391.083h0a15.275,15.275,0,0,0-2.543.806,13.962,13.962,0,0,0-2,1.024q-.266.165-.53.347a13.44,13.44,0,0,0-1.119.858A14.784,14.784,0,0,0,.326,7.976a.175.175,0,0,1-.131.088H.183a.168.168,0,0,1-.094-.02A.162.162,0,0,1,.024,7.98a.175.175,0,0,1,0-.173,15.447,15.447,0,0,1,3.2-4.066A13.762,13.762,0,0,1,5.993,1.813,14.245,14.245,0,0,1,7.4,1.165,15.46,15.46,0,0,1,9.6.48c.131-.031.263-.06.394-.088A18.588,18.588,0,0,1,12.817.029C13.229.007,13.636,0,14.033,0a24.107,24.107,0,0,1,5.14.6L19.5.677l.276.069c.127.033.243.063.345.092.39.108.609.182.617.184A.178.178,0,0,1,20.818,1.077Z" transform="translate(20.953 25.818)" fill="#fff"/>
      <path id="Path-93" data-name="Path" d="M5.31,0,4.363.569A8.981,8.981,0,0,0,.1,9.6l.062.416,1.078-.686A8.981,8.981,0,0,0,5.38,1.263Z" transform="translate(16.01 33.311)" fill="#fff"/>
      <path id="Path-94" data-name="Path" d="M2.691,0,2,.858A8.98,8.98,0,0,0,1.1,10.8l.2.369.776-1.014a8.982,8.982,0,0,0,1.115-9Z" transform="translate(23.503 28.23)" fill="#fff"/>
      <path id="Path-95" data-name="Path" d="M2.691,0,2,.858A8.98,8.98,0,0,0,1.1,10.8l.2.369.776-1.014a8.982,8.982,0,0,0,1.115-9Z" transform="translate(23.503 28.23)" fill="#fe7101" opacity="0.34"/>
      <g id="Group-12" data-name="Group" transform="translate(20.953 25.818)" opacity="0.21">
        <path id="Path-96" data-name="Path" d="M20.818,1.077h0l-.461.162-.044.016h0s0,0,0,0c-.1-.028-.213-.062-.35-.1s-.31-.082-.5-.128l-.07-.017A24.018,24.018,0,0,0,14.462.357c-.529-.014-1.078-.009-1.639.022A18.211,18.211,0,0,0,10.256.7c-.131.026-.263.053-.391.083h0a15.275,15.275,0,0,0-2.543.806,13.962,13.962,0,0,0-2,1.024q-.266.165-.53.347a13.44,13.44,0,0,0-1.119.858A14.784,14.784,0,0,0,.326,7.976a.175.175,0,0,1-.131.088H.183a.168.168,0,0,1-.094-.02A.162.162,0,0,1,.024,7.98a.175.175,0,0,1,0-.173,15.447,15.447,0,0,1,3.2-4.066A13.762,13.762,0,0,1,5.993,1.813,14.245,14.245,0,0,1,7.4,1.165,15.46,15.46,0,0,1,9.6.48c.131-.031.263-.06.394-.088A18.588,18.588,0,0,1,12.817.029C13.229.007,13.636,0,14.033,0a24.107,24.107,0,0,1,5.14.6L19.5.677l.276.069c.127.033.243.063.345.092.39.108.609.182.617.184A.178.178,0,0,1,20.818,1.077Z" transform="translate(0 0)" fill="#fe7101"/>
      </g>
      <path id="Path-97" data-name="Path" d="M5.31,0,4.363.569A8.981,8.981,0,0,0,.1,9.6l.062.416,1.078-.686A8.981,8.981,0,0,0,5.38,1.263Z" transform="translate(16.01 33.311)" fill="#fe7101" opacity="0.56"/>
      <path id="Path-98" data-name="Path" d="M26.637,12.9l-.45-.055a19.556,19.556,0,0,0-1.594-2.111h0c-.088-.1-.175-.2-.265-.3a22.2,22.2,0,0,0-2.014-1.97,26.7,26.7,0,0,0-4-2.839c-.077-.046-.152-.09-.229-.131h0a36.785,36.785,0,0,0-7.377-3.161c-.342-.1-.679-.206-1.013-.3-.435-.123-.864-.238-1.284-.344h0c-.525-.135-1.04-.255-1.536-.364-.186-.041-.371-.08-.552-.117A43.708,43.708,0,0,0,.188.35.175.175,0,1,1,.2,0a43.539,43.539,0,0,1,5.974.82L6.81.953c.428.093.868.193,1.32.306h0c.131.03.258.063.39.1q.373.094.756.2c.124.033.248.068.373.1q.569.158,1.15.339h.006q.87.27,1.707.569h0c.232.084.463.167.691.255a33.621,33.621,0,0,1,6.45,3.2q.525.34,1.02.694h0q.844.6,1.612,1.252.386.324.753.66a22.681,22.681,0,0,1,1.68,1.714q.135.152.263.306A20.492,20.492,0,0,1,26.637,12.9Z" transform="translate(7.515 18.811)" fill="#fff"/>
      <path id="Path-99" data-name="Path" d="M0,0,.224,1.568A12.78,12.78,0,0,0,9.811,12.174l.586.145-.309-1.808A12.783,12.783,0,0,0,1.708.6Z" transform="translate(10.323 9.227)" fill="#fff"/>
      <path id="Path-100" data-name="Path" d="M14.008.624,12.592.3A11.816,11.816,0,0,0,.32,4.982L0,5.433l1.647.331A11.816,11.816,0,0,0,12.925,1.882Z" transform="translate(11.878 23.743)" fill="#fff"/>
      <path id="Path-101" data-name="Path" d="M0,0,.224,1.568A12.78,12.78,0,0,0,9.811,12.174l.586.145-.309-1.808A12.783,12.783,0,0,0,1.708.6Z" transform="translate(10.323 9.227)" fill="#fff" opacity="0.54"/>
      <path id="Path-102" data-name="Path" d="M14.008.624,12.592.3A11.816,11.816,0,0,0,.32,4.982L0,5.433l1.647.331A11.816,11.816,0,0,0,12.925,1.882Z" transform="translate(11.878 23.743)" fill="#fff"/>
      <path id="Path-103" data-name="Path" d="M0,2.472l1.319.879a12.783,12.783,0,0,0,14.3-.083l.5-.34-1.554-.975A12.783,12.783,0,0,0,1.583,1.6Z" transform="translate(0 17.436)" fill="#fff"/>
      <path id="Path-104" data-name="Path" d="M0,2.472l1.319.879a12.783,12.783,0,0,0,14.3-.083l.5-.34-1.554-.975A12.783,12.783,0,0,0,1.583,1.6Z" transform="translate(0 17.436)" fill="#fff"/>
      <path id="Path-105" data-name="Path" d="M0,0,.224,1.568A12.78,12.78,0,0,0,9.811,12.174l.586.145-.309-1.808A12.783,12.783,0,0,0,1.708.6Z" transform="translate(10.323 9.227)" fill="#fff"/>
      <path id="Path-106" data-name="Path" d="M6.471,13.237l-.227,1.757-.482-.344A13.861,13.861,0,0,1,.849,8.182a.029.029,0,0,1,0-.008A13.347,13.347,0,0,1,.152,1.51L.388,0,1.745,1.164A13.654,13.654,0,0,1,3.269,2.7,13.732,13.732,0,0,1,6.471,13.237Z" transform="translate(24.303 12.503)" fill="#fff"/>
      <path id="Path-107" data-name="Path" d="M14.008.625,12.926,1.883A11.809,11.809,0,0,1,1.647,5.766L0,5.435l.32-.452A11.8,11.8,0,0,1,12.588.3Z" transform="translate(11.878 23.742)" fill="#fff"/>
      <g id="Group-13" data-name="Group" transform="translate(7.515 18.811)" opacity="0.32">
        <path id="Path-108" data-name="Path" d="M26.637,12.9l-.45-.055a19.556,19.556,0,0,0-1.594-2.111h0c-.088-.1-.175-.2-.265-.3a22.2,22.2,0,0,0-2.014-1.97,26.7,26.7,0,0,0-4-2.839c-.077-.046-.152-.09-.229-.131h0a36.785,36.785,0,0,0-7.377-3.161c-.342-.1-.679-.206-1.013-.3-.435-.123-.864-.238-1.284-.344h0c-.525-.135-1.04-.255-1.536-.364-.186-.041-.371-.08-.552-.117A43.708,43.708,0,0,0,.188.35.175.175,0,1,1,.2,0a43.539,43.539,0,0,1,5.974.82L6.81.953c.428.093.868.193,1.32.306h0c.131.03.258.063.39.1q.373.094.756.2c.124.033.248.068.373.1q.569.158,1.15.339h.006q.87.27,1.707.569h0c.232.084.463.167.691.255a33.621,33.621,0,0,1,6.45,3.2q.525.34,1.02.694h0q.844.6,1.612,1.252.386.324.753.66a22.681,22.681,0,0,1,1.68,1.714q.135.152.263.306A20.492,20.492,0,0,1,26.637,12.9Z" transform="translate(0 0)" fill="#fe7101"/>
      </g>
      <path id="Path-109" data-name="Path" d="M0,0,.223,1.57A12.783,12.783,0,0,0,9.811,12.176l.585.145-.306-1.808A12.783,12.783,0,0,0,1.707.6Z" transform="translate(10.363 9.562)" fill="#fe7101" opacity="0.56"/>
      <path id="Path-110" data-name="Path" d="M6.225,12.895,6,14.652l-.482-.344A13.861,13.861,0,0,1,.6,7.841a.029.029,0,0,1,0-.008A14.2,14.2,0,0,1,.163,1.62L.414,0,1.867,1.246A14.609,14.609,0,0,1,3.022,2.353,13.734,13.734,0,0,1,6.225,12.895Z" transform="translate(24.55 12.845)" fill="#fe7101" opacity="0.27"/>
      <path id="Path-111" data-name="Path" d="M13.425.624,12.342,1.883A11.826,11.826,0,0,1,5.079,5.874,11.718,11.718,0,0,1,1.647,5.7L0,5.364l.32-.452A11.82,11.82,0,0,1,8.254.053,11.735,11.735,0,0,1,12.005.3Z" transform="translate(11.878 23.814)" fill="#fe7101" opacity="0.56"/>
      <path id="Path-112" data-name="Path" d="M0,2.472l1.319.879a12.783,12.783,0,0,0,14.3-.083l.5-.34-1.554-.975A12.783,12.783,0,0,0,1.583,1.6Z" transform="translate(0 17.436)" fill="#fff"/>
      <path id="Path-113" data-name="Path" d="M0,2.472l1.319.879a12.783,12.783,0,0,0,14.3-.083l.5-.34-1.554-.975A12.783,12.783,0,0,0,1.583,1.6Z" transform="translate(0 17.436)" fill="#ff7100" opacity="0.9"/>
      <path id="Path-114" data-name="Path" d="M9.71,11.43q.14.363.263.725c.169.493.318.985.44,1.475l.059.243c.021.1.044.193.062.288.014.063.027.124.039.186.027.137.053.273.074.409q.01.049.017.1c.007.044.014.088.02.131.01.065.02.131.027.195.016.111.028.222.039.332.005.044.01.088.014.134.006.067.011.131.015.2,0,.025,0,.05.006.075.006.1.011.191.013.285-.108.063-.219.125-.327.187q-.2.113-.4.222c-.114.064-.229.131-.342.192l-.1.055-.006,0q-.415.233-.832.463l-.27.149-.271.149-.011.006-.288.156h0l-.8.438-.1-.034q-1.6.731-3.24,1.37L3.771,19.5h0l-.076-.108q-.135-.191-.278-.4c-.338-.5-.7-1.082-1.06-1.74-.058-.1-.114-.211-.172-.319a20.565,20.565,0,0,1-.976-2.14h0c-.115-.3-.226-.606-.331-.919v0a17.571,17.571,0,0,1-.711-2.992h0c-.008-.049-.015-.1-.022-.151v0A15.525,15.525,0,0,1,.132,6.582Q.2,6.036.319,5.48h0V5.466C.374,5.207.434,4.95.5,4.689h0C.547,4.52.6,4.348.648,4.176c.14-.466.3-.936.5-1.411A17.935,17.935,0,0,1,2.555,0,48.781,48.781,0,0,1,5.609,3.984,36.49,36.49,0,0,1,9.71,11.43Z" transform="translate(38.808 9.261)" fill="#fff"/>
      <path id="Path-115" data-name="Path" d="M9.71,11.43q.14.363.263.725c.169.493.318.985.44,1.475l.059.243c.021.1.044.193.062.288.014.063.027.124.039.186.027.137.053.273.074.409q.01.049.017.1c.007.044.014.088.02.131.01.065.02.131.027.195.016.111.028.222.039.332.005.044.01.088.014.134.006.067.011.131.015.2,0,.025,0,.05.006.075.006.1.011.191.013.285-.108.063-.219.125-.327.187q-.2.113-.4.222c-.114.064-.229.131-.342.192l-.1.055-.006,0q-.415.233-.832.463l-.27.149-.271.149-.011.006-.288.156h0l-.8.438-.1-.034q-1.6.731-3.24,1.37L3.771,19.5h0l-.076-.108q-.135-.191-.278-.4c-.338-.5-.7-1.082-1.06-1.74-.058-.1-.114-.211-.172-.319a20.565,20.565,0,0,1-.976-2.14h0c-.115-.3-.226-.606-.331-.919v0a17.571,17.571,0,0,1-.711-2.992h0c-.008-.049-.015-.1-.022-.151v0A15.525,15.525,0,0,1,.132,6.582Q.2,6.036.319,5.48h0V5.466C.374,5.207.434,4.95.5,4.689h0C.547,4.52.6,4.348.648,4.176c.14-.466.3-.936.5-1.411A17.935,17.935,0,0,1,2.555,0,48.781,48.781,0,0,1,5.609,3.984,36.49,36.49,0,0,1,9.71,11.43Z" transform="translate(38.808 9.261)" fill="#ffb600" opacity="0.36"/>
      <path id="Path-116" data-name="Path" d="M10.572,8.881c.027.137.053.273.074.409q.01.049.017.1c.007.044.014.088.02.131.01.065.02.131.027.195.016.111.028.222.039.332.005.044.01.088.014.134.006.067.011.131.015.2,0,.025,0,.05.006.075.006.1.011.191.013.285-.108.063-.219.125-.327.187q-.2.113-.4.222c-.114.064-.229.131-.342.192l-.1.055-.006,0q-.415.233-.832.463l-.27.149-.271.149-.011.006-.288.156h0l-.8.438-.1-.034q-1.6.731-3.24,1.37l-.044-.056h0l-.076-.108q-.135-.191-.278-.4c-.338-.5-.7-1.082-1.06-1.74-.058-.1-.114-.211-.172-.319a20.565,20.565,0,0,1-.976-2.14h0c-.115-.3-.226-.606-.331-.919v0A17.571,17.571,0,0,1,.167,5.412h0c-.008-.049-.015-.1-.022-.151v0A15.525,15.525,0,0,1,.132,1.115Q.2.57.319.014h0V0C.409.044.5.091.586.139A.608.608,0,0,1,.647.17C.771.237.9.3,1.018.376c.139.078.277.158.415.243.056.032.111.065.166.1a24.814,24.814,0,0,1,2.293,1.6c.175.134.345.271.514.411l.131.106c.112.093.222.185.333.279h0c.158.131.315.267.471.4.113.1.225.2.336.3a49.293,49.293,0,0,1,3.8,3.822c.127.14.253.282.376.422C10.1,8.331,10.341,8.608,10.572,8.881Z" transform="translate(38.809 14.727)" fill="#ffb600" opacity="0.67"/>
      <path id="Path-117" data-name="Path" d="M18.784,13.853l-.1.055-.006,0q-.415.233-.832.463l-.27.149-.271.149-.011.006-.288.156h0l-.8.438-.1-.034q-1.6.731-3.24,1.37-1.313.511-2.645.954-.3-.116-.613-.244a12,12,0,0,1-1.865-.97c-.163-.1-.321-.211-.478-.322-.1-.073-.2-.147-.3-.222s-.209-.159-.31-.242C.33,10.471,0,.046,0,.046L.175.028.289.02.464.009C.578,0,.694,0,.81,0H.985c.088,0,.175,0,.263.01l.131.008c.044,0,.088.007.131.011s.117.01.175.017l.091.01.107.013c.051.007.1.014.152.022s.079.011.118.018.047.007.071.012c.1.017.2.036.3.057l.135.029c.145.032.29.067.438.106.067.018.131.037.2.056s.134.04.2.06c.2.063.4.131.605.207.067.025.134.049.2.077.1.038.195.077.292.119q.1.038.19.08l.041.018.208.094c.246.113.492.233.739.362.081.044.162.085.243.131.1.053.2.109.3.167q.29.165.58.343c.193.119.387.241.58.367s.384.257.576.39.382.271.569.412.38.284.569.431.344.272.513.411c.044.035.088.071.131.106.112.093.222.185.332.278h0q.236.2.472.4a48.76,48.76,0,0,1,4.133,4.12C16.349,10.7,17.723,12.438,18.784,13.853Z" transform="translate(29.756 12.213)" fill="#fff"/>
      <path id="Path-118" data-name="Path" d="M18.784,13.853l-.1.055-.006,0q-.415.233-.832.463l-.27.149-.271.149-.011.006-.288.156h0l-.8.438-.1-.034q-1.6.731-3.24,1.37-1.313.511-2.645.954-.3-.116-.613-.244a12,12,0,0,1-1.865-.97c-.163-.1-.321-.211-.478-.322-.1-.073-.2-.147-.3-.222s-.209-.159-.31-.242C.33,10.471,0,.046,0,.046L.175.028.289.02.464.009C.578,0,.694,0,.81,0H.985c.088,0,.175,0,.263.01l.131.008c.044,0,.088.007.131.011s.117.01.175.017l.091.01.107.013c.051.007.1.014.152.022s.079.011.118.018.047.007.071.012c.1.017.2.036.3.057l.135.029c.145.032.29.067.438.106.067.018.131.037.2.056s.134.04.2.06c.2.063.4.131.605.207.067.025.134.049.2.077.1.038.195.077.292.119q.1.038.19.08l.041.018.208.094c.246.113.492.233.739.362.081.044.162.085.243.131.1.053.2.109.3.167q.29.165.58.343c.193.119.387.241.58.367s.384.257.576.39.382.271.569.412.38.284.569.431.344.272.513.411c.044.035.088.071.131.106.112.093.222.185.332.278h0q.236.2.472.4a48.76,48.76,0,0,1,4.133,4.12C16.349,10.7,17.723,12.438,18.784,13.853Z" transform="translate(29.756 12.213)" fill="#ffb600" opacity="0.44"/>
      <path id="Path-119" data-name="Path" d="M18.495,13.849l-.1.055-.006,0q-.415.233-.832.463l-.27.149-.29.158-.28.153h0l-.8.438-.1-.034a16.157,16.157,0,0,1-2.807-1.294c-.158-.09-.315-.183-.47-.277a24.133,24.133,0,0,1-2.566-1.826A50.355,50.355,0,0,1,0,.018L.175.007H.208Q.348,0,.489,0H.7C.784,0,.871,0,.959.01L1.09.018c.044,0,.088.007.131.011s.117.01.175.017l.091.01.107.013c.051.007.1.014.152.022s.079.011.118.018.047.007.071.012c.1.017.2.036.3.057l.135.029c.145.032.29.067.438.106.067.018.131.037.2.056s.134.04.2.06c.2.063.4.131.605.207.067.025.134.049.2.077.1.038.195.077.292.119q.1.038.19.08l.041.018.208.094c.246.113.492.233.739.362.081.044.162.085.243.131.1.053.2.109.3.167q.29.165.58.343c.193.119.387.241.58.367s.384.257.576.39.382.271.569.412.38.284.569.431.344.272.513.411c.044.035.088.071.131.106.112.093.222.185.332.278h0q.236.2.473.4a48.76,48.76,0,0,1,4.133,4.12C16.06,10.7,17.434,12.434,18.495,13.849Z" transform="translate(30.046 12.216)" fill="#fff"/>
      <path id="Path-120" data-name="Path" d="M18.495,13.849l-.1.055-.006,0q-.415.233-.832.463l-.27.149-.29.158-.28.153h0l-.8.438-.1-.034a16.157,16.157,0,0,1-2.807-1.294c-.158-.09-.315-.183-.47-.277a24.133,24.133,0,0,1-2.566-1.826A50.355,50.355,0,0,1,0,.018L.175.007H.208Q.348,0,.489,0H.7C.784,0,.871,0,.959.01L1.09.018c.044,0,.088.007.131.011s.117.01.175.017l.091.01.107.013c.051.007.1.014.152.022s.079.011.118.018.047.007.071.012c.1.017.2.036.3.057l.135.029c.145.032.29.067.438.106.067.018.131.037.2.056s.134.04.2.06c.2.063.4.131.605.207.067.025.134.049.2.077.1.038.195.077.292.119q.1.038.19.08l.041.018.208.094c.246.113.492.233.739.362.081.044.162.085.243.131.1.053.2.109.3.167q.29.165.58.343c.193.119.387.241.58.367s.384.257.576.39.382.271.569.412.38.284.569.431.344.272.513.411c.044.035.088.071.131.106.112.093.222.185.332.278h0q.236.2.473.4a48.76,48.76,0,0,1,4.133,4.12C16.06,10.7,17.434,12.434,18.495,13.849Z" transform="translate(30.046 12.216)" fill="#ffb600" opacity="0.29"/>
    </g>
    <g id="Group_42226" data-name="Group 42226" transform="translate(-22.797 -16.256)">
      <g id="Group_42223" data-name="Group 42223" transform="translate(85.374 32.294)">
        <g id="Group_42231" data-name="Group 42231" transform="translate(-2.411 -2.126)">
          <g id="Group_41977" data-name="Group 41977" transform="translate(19.143 19.481)">
            <path id="Rectangle_7421" data-name="Rectangle 7421" d="M0,0H70.992a0,0,0,0,1,0,0V51.585a1,1,0,0,1-1,1H1a1,1,0,0,1-1-1V0A0,0,0,0,1,0,0Z" transform="translate(70.992 52.585) rotate(180)" fill="#d6e2fb"/>
          </g>
          <g id="Group_41978" data-name="Group 41978" transform="translate(21.652 22.057)">
            <rect id="Rectangle_7422" data-name="Rectangle 7422" width="65.847" height="40.451" transform="translate(65.847 40.451) rotate(180)" fill="#fff"/>
          </g>
          <g id="Group_41989" data-name="Group 41989" transform="translate(19.464 55.363)">
            <rect id="Rectangle_7423" data-name="Rectangle 7423" width="6.634" height="0.751" fill="#1487e3"/>
          </g>
          <path id="Path_25483" data-name="Path 25483" d="M233.415,335.812H162.451l-7.766,29.026h86.5Z" transform="translate(-143.283 -271.338)" fill="#719bee"/>
          <path id="Path_25484" data-name="Path 25484" d="M192.281,355.21h4.36a.263.263,0,0,1,.286.294l-.422,1.9a.283.283,0,0,1-.286.2h-4.434a.261.261,0,0,1-.284-.3l.5-1.9A.285.285,0,0,1,192.281,355.21Z" transform="translate(-170.428 -285.644)" fill="#fff"/>
          <path id="Path_25485" data-name="Path 25485" d="M217.31,355.21h3.3l-.438,2.393h-3.359Z" transform="translate(-189.098 -285.644)" fill="#fff"/>
          <path id="Path_25486" data-name="Path 25486" d="M236.406,355.21h3.3l-.345,2.393-3.359,0Z" transform="translate(-203.25 -285.644)" fill="#fff"/>
          <path id="Path_25487" data-name="Path 25487" d="M255.505,355.21h3.3l-.251,2.393h-3.359Z" transform="translate(-217.404 -285.644)" fill="#fff"/>
          <path id="Path_25488" data-name="Path 25488" d="M274.6,355.21h3.3l-.157,2.393h-3.359Z" transform="translate(-231.559 -285.644)" fill="#fff"/>
          <path id="Path_25489" data-name="Path 25489" d="M293.7,355.21H297l-.063,2.393-3.359,0Z" transform="translate(-245.712 -285.644)" fill="#fff"/>
          <path id="Path_25490" data-name="Path 25490" d="M430.876,355.21h-4.944l.533,2.393H431.5Z" transform="translate(-343.323 -285.644)" fill="#fff"/>
          <path id="Path_25491" data-name="Path 25491" d="M410.394,355.21h-3.3l.439,2.393H410.9Z" transform="translate(-329.434 -285.644)" fill="#fff"/>
          <path id="Path_25492" data-name="Path 25492" d="M391.56,355.21h-3.3l.344,2.393,3.359,0Z" transform="translate(-315.543 -285.644)" fill="#fff"/>
          <path id="Path_25493" data-name="Path 25493" d="M372.726,355.21h-3.3l.251,2.393h3.359Z" transform="translate(-301.654 -285.644)" fill="#fff"/>
          <path id="Path_25494" data-name="Path 25494" d="M353.892,355.21h-3.3l.157,2.393h3.359Z" transform="translate(-287.764 -285.644)" fill="#fff"/>
          <path id="Path_25495" data-name="Path 25495" d="M335.058,355.21h-3.3l.063,2.393,3.359,0Z" transform="translate(-273.874 -285.644)" fill="#fff"/>
          <path id="Path_25496" data-name="Path 25496" d="M312.887,355.21h3.3l.054,2.393h-3.351Z" transform="translate(-259.954 -285.644)" fill="#fff"/>
          <path id="Path_25497" data-name="Path 25497" d="M187.5,371.115h6.888L194,373.583h-7.018Z" transform="translate(-167.098 -297.374)" fill="#fff"/>
          <path id="Path_25498" data-name="Path 25498" d="M424.944,371.115H416.43l.485,2.468h8.675Z" transform="translate(-336.316 -297.374)" fill="#fff"/>
          <path id="Path_25499" data-name="Path 25499" d="M400.377,371.115h-3.405l.388,2.468h3.47Z" transform="translate(-321.966 -297.374)" fill="#fff"/>
          <path id="Path_25500" data-name="Path 25500" d="M380.918,371.115h-3.406l.291,2.468h3.47Z" transform="translate(-307.615 -297.374)" fill="#fff"/>
          <path id="Path_25501" data-name="Path 25501" d="M361.46,371.115h-3.406l.194,2.468h3.47Z" transform="translate(-293.264 -297.374)" fill="#fff"/>
          <path id="Path_25502" data-name="Path 25502" d="M342,371.115H338.6l.1,2.468h3.47Z" transform="translate(-278.914 -297.374)" fill="#fff"/>
          <path id="Path_25503" data-name="Path 25503" d="M183.246,387.875h7.041l-.514,2.452H182.6Z" transform="translate(-163.873 -309.734)" fill="#fff"/>
          <path id="Path_25504" data-name="Path 25504" d="M217.226,387.875h3.521l-.417,2.452h-3.585Z" transform="translate(-189.051 -309.734)" fill="#fff"/>
          <path id="Path_25505" data-name="Path 25505" d="M237.614,387.875h26.4l.1,2.452H237.229Z" transform="translate(-204.157 -309.734)" fill="#fff"/>
          <path id="Path_25506" data-name="Path 25506" d="M345.988,387.875h3.52l.193,2.452h-3.585Z" transform="translate(-284.366 -309.734)" fill="#fff"/>
          <path id="Path_25507" data-name="Path 25507" d="M366.105,387.875h3.521l.289,2.452H366.33Z" transform="translate(-299.202 -309.734)" fill="#fff"/>
          <path id="Path_25508" data-name="Path 25508" d="M386.223,387.875h3.52l.386,2.452h-3.585Z" transform="translate(-314.038 -309.734)" fill="#fff"/>
          <path id="Path_25509" data-name="Path 25509" d="M406.34,387.875h3.521l.482,2.452h-3.585Z" transform="translate(-328.874 -309.734)" fill="#fff"/>
          <path id="Path_25510" data-name="Path 25510" d="M426.457,387.875H433.5l.642,2.452h-7.17Z" transform="translate(-343.71 -309.734)" fill="#fff"/>
          <path id="Path_25511" data-name="Path 25511" d="M322.647,371.115H319.27v2.468h3.443Z" transform="translate(-264.661 -297.374)" fill="#fff"/>
          <path id="Path_25512" data-name="Path 25512" d="M302.839,371.115h-3.406l-.1,2.468h3.47Z" transform="translate(-249.961 -297.374)" fill="#fff"/>
          <path id="Path_25513" data-name="Path 25513" d="M283.108,371.115H279.7l-.194,2.468h3.47Z" transform="translate(-235.339 -297.374)" fill="#fff"/>
          <path id="Path_25514" data-name="Path 25514" d="M263.377,371.115h-3.406l-.291,2.468h3.47Z" transform="translate(-220.715 -297.374)" fill="#fff"/>
          <path id="Path_25515" data-name="Path 25515" d="M243.645,371.115H240.24l-.388,2.468h3.47Z" transform="translate(-206.092 -297.374)" fill="#fff"/>
          <path id="Path_25516" data-name="Path 25516" d="M223.915,371.115h-3.406l-.485,2.468h3.47Z" transform="translate(-191.47 -297.374)" fill="#fff"/>
          <path id="Path_25517" data-name="Path 25517" d="M195.108,343.481l.559-2.136h1.6l-.522,2.136Z" transform="translate(-173.094 -275.419)" fill="#fff"/>
          <path id="Path_25518" data-name="Path 25518" d="M208.017,341.345h3.2l-.448,2.136h-3.257Z" transform="translate(-182.243 -275.419)" fill="#fff"/>
          <path id="Path_25519" data-name="Path 25519" d="M226.541,341.345h3.2l-.364,2.136h-3.257Z" transform="translate(-195.965 -275.419)" fill="#fff"/>
          <path id="Path_25520" data-name="Path 25520" d="M245.066,341.345h3.2l-.28,2.136H244.73Z" transform="translate(-209.69 -275.419)" fill="#fff"/>
          <path id="Path_25521" data-name="Path 25521" d="M263.591,341.345h3.2l-.2,2.136h-3.257Z" transform="translate(-223.413 -275.419)" fill="#fff"/>
          <path id="Path_25522" data-name="Path 25522" d="M282.115,341.345h3.2l-.112,2.136h-3.257Z" transform="translate(-237.137 -275.419)" fill="#fff"/>
          <path id="Path_25523" data-name="Path 25523" d="M300.64,341.345h3.2l-.028,2.136h-3.257Z" transform="translate(-250.861 -275.419)" fill="#fff"/>
          <path id="Path_25524" data-name="Path 25524" d="M319.164,341.345h3.2l.056,2.136h-3.257Z" transform="translate(-264.584 -275.419)" fill="#fff"/>
          <path id="Path_25525" data-name="Path 25525" d="M337.453,341.345h3.2l.14,2.136h-3.257Z" transform="translate(-278.072 -275.419)" fill="#fff"/>
          <path id="Path_25526" data-name="Path 25526" d="M355.742,341.345h3.2l.224,2.136H355.91Z" transform="translate(-291.559 -275.419)" fill="#fff"/>
          <path id="Path_25527" data-name="Path 25527" d="M374.031,341.345h3.2l.308,2.136h-3.257Z" transform="translate(-305.047 -275.419)" fill="#fff"/>
          <path id="Path_25528" data-name="Path 25528" d="M392.32,341.345h3.2l.392,2.136h-3.257Z" transform="translate(-318.536 -275.419)" fill="#fff"/>
          <path id="Path_25529" data-name="Path 25529" d="M410.609,341.345h3.2l.476,2.136h-3.257Z" transform="translate(-332.023 -275.419)" fill="#fff"/>
          <path id="Path_25530" data-name="Path 25530" d="M428.9,341.345h3.2l.56,2.136H429.4Z" transform="translate(-345.511 -275.419)" fill="#fff"/>
          <path id="Path_25531" data-name="Path 25531" d="M238.921,448.639H156.945a2.26,2.26,0,0,1-2.259-2.26h86.5A2.26,2.26,0,0,1,238.921,448.639Z" transform="translate(-143.283 -352.88)" fill="url(#linear-gradient-3)"/>
          <path id="Path_25532" data-name="Path 25532" d="M298.033,408.162a1.059,1.059,0,0,0-1.045-.886H278.967a1.058,1.058,0,0,0-1.044.886l-1.126,6.813a1.058,1.058,0,0,0,1.044,1.231h20.273a1.058,1.058,0,0,0,1.045-1.231Z" transform="translate(-233.329 -324.042)" fill="#2e6be7"/>
          <g id="Group_42120" data-name="Group 42120" transform="translate(26.098 25.489)">
            <g id="Group_42066" data-name="Group 42066">
              <rect id="Rectangle_7430" data-name="Rectangle 7430" width="7.336" height="0.751" fill="#404b61"/>
            </g>
            <g id="Group_42067" data-name="Group 42067" transform="translate(9.389 5.656)">
              <rect id="Rectangle_7431" data-name="Rectangle 7431" width="5.296" height="0.751" fill="#404b61"/>
            </g>
            <g id="Group_42068" data-name="Group 42068" transform="translate(15.51 5.656)">
              <rect id="Rectangle_7432" data-name="Rectangle 7432" width="3.514" height="0.751" fill="#1487e3"/>
            </g>
            <g id="Group_42069" data-name="Group 42069" transform="translate(0.083 19.878)">
              <rect id="Rectangle_7433" data-name="Rectangle 7433" width="3.514" height="0.751" fill="#1487e3"/>
            </g>
            <g id="Group_42070" data-name="Group 42070" transform="translate(19.719 5.656)">
              <rect id="Rectangle_7434" data-name="Rectangle 7434" width="8.486" height="0.751" fill="#404b61"/>
            </g>
            <g id="Group_42071" data-name="Group 42071" transform="translate(0.083 17.029)">
              <rect id="Rectangle_7435" data-name="Rectangle 7435" width="5.453" height="0.751" fill="#404b61"/>
            </g>
            <g id="Group_42072" data-name="Group 42072" transform="translate(7.684 22.706)">
              <rect id="Rectangle_7436" data-name="Rectangle 7436" width="3.329" height="0.751" fill="#404b61"/>
            </g>
            <g id="Group_42073" data-name="Group 42073" transform="translate(0.083 22.706)">
              <rect id="Rectangle_7437" data-name="Rectangle 7437" width="6.595" height="0.751" fill="#1487e3"/>
            </g>
            <g id="Group_42074" data-name="Group 42074" transform="translate(0.083 25.534)">
              <rect id="Rectangle_7438" data-name="Rectangle 7438" width="3.638" height="0.751" fill="#404b61"/>
            </g>
            <g id="Group_42075" data-name="Group 42075" transform="translate(8.763)">
              <rect id="Rectangle_7439" data-name="Rectangle 7439" width="5.208" height="0.751" fill="#78c2ff"/>
            </g>
            <g id="Group_42076" data-name="Group 42076" transform="translate(8.763 8.483)">
              <rect id="Rectangle_7440" data-name="Rectangle 7440" width="5.208" height="0.751" fill="#1487e3"/>
            </g>
            <g id="Group_42077" data-name="Group 42077" transform="translate(6.159 11.311)">
              <rect id="Rectangle_7441" data-name="Rectangle 7441" width="2.225" height="0.751" fill="#404b61"/>
            </g>
            <g id="Group_42078" data-name="Group 42078" transform="translate(3.934 14.181)">
              <rect id="Rectangle_7442" data-name="Rectangle 7442" width="4.998" height="0.751" fill="#78c2ff"/>
            </g>
            <g id="Group_42079" data-name="Group 42079" transform="translate(9.687 14.181)">
              <rect id="Rectangle_7443" data-name="Rectangle 7443" width="6.899" height="0.751" fill="#1487e3"/>
            </g>
            <g id="Group_42080" data-name="Group 42080" transform="translate(0.083 11.332)">
              <rect id="Rectangle_7444" data-name="Rectangle 7444" width="5.208" height="0.751" fill="#1487e3"/>
            </g>
            <g id="Group_42081" data-name="Group 42081" transform="translate(0.083 14.181)">
              <rect id="Rectangle_7445" data-name="Rectangle 7445" width="3.09" height="0.751" fill="#1487e3"/>
            </g>
            <g id="Group_42082" data-name="Group 42082" transform="translate(9.433 11.332)">
              <rect id="Rectangle_7446" data-name="Rectangle 7446" width="2.915" height="0.751" fill="#ff8761"/>
            </g>
            <g id="Group_42083" data-name="Group 42083" transform="translate(0.171 28.362)">
              <rect id="Rectangle_7447" data-name="Rectangle 7447" width="2.915" height="0.751" fill="#ff8761"/>
            </g>
            <g id="Group_42084" data-name="Group 42084" transform="translate(0.063 5.656)">
              <rect id="Rectangle_7448" data-name="Rectangle 7448" width="5.207" height="0.751" fill="#78c2ff"/>
            </g>
            <g id="Group_42085" data-name="Group 42085" transform="translate(4.668 19.878)">
              <rect id="Rectangle_7449" data-name="Rectangle 7449" width="5.208" height="0.751" fill="#78c2ff"/>
            </g>
            <g id="Group_42086" data-name="Group 42086" transform="translate(4.732 25.534)">
              <rect id="Rectangle_7450" data-name="Rectangle 7450" width="5.207" height="0.751" fill="#78c2ff"/>
            </g>
            <g id="Group_42087" data-name="Group 42087" transform="translate(13.983 25.534)">
              <rect id="Rectangle_7451" data-name="Rectangle 7451" width="5.207" height="0.751" fill="#78c2ff"/>
            </g>
            <g id="Group_42088" data-name="Group 42088" transform="translate(0.063 8.483)">
              <rect id="Rectangle_7452" data-name="Rectangle 7452" width="7.423" height="0.751" fill="#78c2ff"/>
            </g>
            <g id="Group_42089" data-name="Group 42089" transform="translate(34.848)">
              <rect id="Rectangle_7453" data-name="Rectangle 7453" width="5.207" height="0.751" fill="#78c2ff"/>
            </g>
            <g id="Group_42090" data-name="Group 42090" transform="translate(16.297 28.362)">
              <rect id="Rectangle_7454" data-name="Rectangle 7454" width="5.208" height="0.751" fill="#78c2ff"/>
            </g>
            <g id="Group_42091" data-name="Group 42091" transform="translate(41.676)">
              <rect id="Rectangle_7455" data-name="Rectangle 7455" width="3.486" height="0.751" fill="#78c2ff"/>
            </g>
            <g id="Group_42092" data-name="Group 42092" transform="translate(53.469 2.828)">
              <rect id="Rectangle_7456" data-name="Rectangle 7456" width="3.486" height="0.751" fill="#78c2ff"/>
            </g>
            <g id="Group_42093" data-name="Group 42093" transform="translate(15.372)">
              <rect id="Rectangle_7457" data-name="Rectangle 7457" width="6.635" height="0.751" fill="#1487e3"/>
            </g>
            <g id="Group_42094" data-name="Group 42094" transform="translate(41.222 2.828)">
              <rect id="Rectangle_7458" data-name="Rectangle 7458" width="6.634" height="0.751" fill="#1487e3"/>
            </g>
            <g id="Group_42095" data-name="Group 42095" transform="translate(33.085 5.656)">
              <rect id="Rectangle_7459" data-name="Rectangle 7459" width="6.635" height="0.751" fill="#1487e3"/>
            </g>
            <g id="Group_42096" data-name="Group 42096" transform="translate(24.448 8.483)">
              <rect id="Rectangle_7460" data-name="Rectangle 7460" width="6.634" height="0.751" fill="#1487e3"/>
            </g>
            <g id="Group_42097" data-name="Group 42097" transform="translate(40.555 5.656)">
              <rect id="Rectangle_7461" data-name="Rectangle 7461" width="4.716" height="0.751" fill="#78c2ff"/>
            </g>
            <g id="Group_42098" data-name="Group 42098" transform="translate(26.914)">
              <rect id="Rectangle_7462" data-name="Rectangle 7462" width="6.634" height="0.751" fill="#ff8761"/>
            </g>
            <g id="Group_42099" data-name="Group 42099" transform="translate(19.343 8.483)">
              <rect id="Rectangle_7463" data-name="Rectangle 7463" width="3.89" height="0.751" fill="#ff8761"/>
            </g>
            <g id="Group_42100" data-name="Group 42100" transform="translate(16.297 19.92)">
              <rect id="Rectangle_7464" data-name="Rectangle 7464" width="3.89" height="0.751" fill="#ff8761"/>
            </g>
            <g id="Group_42101" data-name="Group 42101" transform="translate(23.233)">
              <rect id="Rectangle_7465" data-name="Rectangle 7465" width="2.429" height="0.751" fill="#404b61"/>
            </g>
            <g id="Group_42102" data-name="Group 42102" transform="translate(15.372 8.483)">
              <rect id="Rectangle_7466" data-name="Rectangle 7466" width="2.428" height="0.751" fill="#404b61"/>
            </g>
            <g id="Group_42103" data-name="Group 42103" transform="translate(49.457 2.828)">
              <rect id="Rectangle_7467" data-name="Rectangle 7467" width="2.429" height="0.751" fill="#404b61"/>
            </g>
            <g id="Group_42104" data-name="Group 42104" transform="translate(0 2.828)">
              <rect id="Rectangle_7468" data-name="Rectangle 7468" width="3.799" height="0.751" fill="#1487e3"/>
            </g>
            <g id="Group_42105" data-name="Group 42105" transform="translate(10.137 17.05)">
              <rect id="Rectangle_7469" data-name="Rectangle 7469" width="2.999" height="0.751" fill="#1487e3"/>
            </g>
            <g id="Group_42106" data-name="Group 42106" transform="translate(4.732 2.828)">
              <rect id="Rectangle_7470" data-name="Rectangle 7470" width="1.226" height="0.751" fill="#1487e3"/>
            </g>
            <g id="Group_42107" data-name="Group 42107" transform="translate(29.916 2.828)">
              <rect id="Rectangle_7471" data-name="Rectangle 7471" width="10.139" height="0.751" fill="#404b61"/>
            </g>
            <g id="Group_42108" data-name="Group 42108" transform="translate(20.187 25.534)">
              <rect id="Rectangle_7472" data-name="Rectangle 7472" width="10.14" height="0.751" fill="#404b61"/>
            </g>
            <g id="Group_42109" data-name="Group 42109" transform="translate(6.86 2.828)">
              <rect id="Rectangle_7473" data-name="Rectangle 7473" width="1.252" height="0.751" fill="#ff8761"/>
            </g>
            <g id="Group_42110" data-name="Group 42110" transform="translate(25.662 2.828)">
              <rect id="Rectangle_7474" data-name="Rectangle 7474" width="3.317" height="0.751" fill="#1487e3"/>
            </g>
            <g id="Group_42111" data-name="Group 42111" transform="translate(28.979 5.656)">
              <rect id="Rectangle_7475" data-name="Rectangle 7475" width="3.317" height="0.751" fill="#ff8761"/>
            </g>
            <g id="Group_42112" data-name="Group 42112" transform="translate(11.921 28.362)">
              <rect id="Rectangle_7476" data-name="Rectangle 7476" width="3.317" height="0.751" fill="#ff8761"/>
            </g>
            <g id="Group_42113" data-name="Group 42113" transform="translate(17.726 2.828)">
              <rect id="Rectangle_7477" data-name="Rectangle 7477" width="7.058" height="0.751" fill="#1487e3"/>
            </g>
            <g id="Group_42114" data-name="Group 42114" transform="translate(11.156 19.92)">
              <rect id="Rectangle_7478" data-name="Rectangle 7478" width="4.124" height="0.751" fill="#1487e3"/>
            </g>
            <g id="Group_42115" data-name="Group 42115" transform="translate(10.89 25.534)">
              <rect id="Rectangle_7479" data-name="Rectangle 7479" width="2.062" height="0.751" fill="#1487e3"/>
            </g>
            <g id="Group_42116" data-name="Group 42116" transform="translate(14.295 2.828)">
              <rect id="Rectangle_7480" data-name="Rectangle 7480" width="2.429" height="0.751" fill="#78c2ff"/>
            </g>
            <g id="Group_42117" data-name="Group 42117" transform="translate(6.121 5.656)">
              <rect id="Rectangle_7481" data-name="Rectangle 7481" width="2.428" height="0.751" fill="#ff8761"/>
            </g>
            <g id="Group_42118" data-name="Group 42118" transform="translate(6.605 17.05)">
              <rect id="Rectangle_7482" data-name="Rectangle 7482" width="2.428" height="0.751" fill="#ff8761"/>
            </g>
            <g id="Group_42119" data-name="Group 42119" transform="translate(9.138 2.828)">
              <rect id="Rectangle_7483" data-name="Rectangle 7483" width="4.231" height="0.751" fill="#1487e3"/>
            </g>
          </g>
        </g>
        <g id="Group_42230" data-name="Group 42230">
          <g id="Group_42229" data-name="Group 42229">
            <rect id="Rectangle_7484" data-name="Rectangle 7484" width="30.964" height="22.075" rx="2" transform="translate(62.44 34.052)" fill="#dcdcdc" opacity="0.76"/>
            <g id="Group_42123" data-name="Group 42123" transform="translate(84.689 45.413)">
              <g id="Group_42122" data-name="Group 42122">
                <path id="Rectangle_7485" data-name="Rectangle 7485" d="M.766,0H4.986a.767.767,0,0,1,.767.767v0a.767.767,0,0,1-.767.767H.767A.767.767,0,0,1,0,.767v0A.766.766,0,0,1,.766,0Z" fill="#4aafff"/>
              </g>
            </g>
            <g id="Group_42125" data-name="Group 42125" transform="translate(84.689 48.285)">
              <g id="Group_42124" data-name="Group 42124">
                <path id="Rectangle_7486" data-name="Rectangle 7486" d="M.766,0H4.986a.767.767,0,0,1,.767.767v0a.767.767,0,0,1-.767.767H.767A.767.767,0,0,1,0,.767v0A.766.766,0,0,1,.766,0Z" fill="#4aafff"/>
              </g>
            </g>
            <g id="Group_42127" data-name="Group 42127" transform="translate(84.689 51.157)">
              <g id="Group_42126" data-name="Group 42126">
                <path id="Rectangle_7487" data-name="Rectangle 7487" d="M.767,0H4.986a.767.767,0,0,1,.767.767v0a.767.767,0,0,1-.767.767H.767A.767.767,0,0,1,0,.767v0A.767.767,0,0,1,.767,0Z" fill="#4aafff"/>
              </g>
            </g>
            <g id="Group_42136" data-name="Group 42136" transform="translate(65.313 36.321)">
              <g id="Group_42129" data-name="Group 42129">
                <g id="Group_42128" data-name="Group 42128">
                  <path id="Path_25533" data-name="Path 25533" d="M388.763,238.028a8.546,8.546,0,1,0-16.094,5.756q.1.272.21.533a8.547,8.547,0,0,0,15.884-6.289Zm-5.889,8.912a6.4,6.4,0,0,1-8.033-3.477c-.056-.13-.109-.264-.158-.4a6.408,6.408,0,1,1,8.191,3.876Z" transform="translate(-372.167 -232.358)" fill="#4aafff"/>
                </g>
              </g>
              <g id="Group_42131" data-name="Group 42131" transform="translate(0.39 0.004)">
                <g id="Group_42130" data-name="Group 42130">
                  <path id="Path_25534" data-name="Path 25534" d="M375.783,239.008l-2.042-.638a8.557,8.557,0,0,1,7.9-6l.064,2.138a6.417,6.417,0,0,0-5.925,4.5Z" transform="translate(-373.741 -232.373)" fill="#1a598c"/>
                </g>
              </g>
              <g id="Group_42133" data-name="Group 42133" transform="translate(0 6.001)">
                <g id="Group_42132" data-name="Group 42132">
                  <path id="Path_25535" data-name="Path 25535" d="M374.84,261.672l-1.961.854q-.113-.261-.21-.533a8.509,8.509,0,0,1-.112-5.425l2.042.638a6.378,6.378,0,0,0,.083,4.067C374.731,261.409,374.784,261.542,374.84,261.672Z" transform="translate(-372.167 -256.568)" fill="#2273b5"/>
                </g>
              </g>
              <g id="Group_42135" data-name="Group 42135" transform="translate(0.712 11.106)">
                <g id="Group_42134" data-name="Group 42134">
                  <path id="Path_25536" data-name="Path 25536" d="M376.364,280.141a8.516,8.516,0,0,1-1.325-2.127L377,277.16a6.366,6.366,0,0,0,.993,1.6Z" transform="translate(-375.039 -277.16)" fill="#3788cc"/>
                </g>
              </g>
            </g>
          </g>
          <g id="Group_42173" data-name="Group 42173" transform="translate(68.325 41.745)">
            <g id="Group_42138" data-name="Group 42138" transform="translate(8.261 4.117)">
              <g id="Group_42137" data-name="Group 42137">
                <path id="Path_25537" data-name="Path 25537" d="M417.773,274.923s-.414-.725.243-2.666a1.957,1.957,0,0,1,3.531-.5c.7,1.2.463,1.95-.566,3.309S418.2,275.544,417.773,274.923Z" transform="translate(-417.645 -270.846)" fill="#eea886"/>
              </g>
            </g>
            <g id="Group_42140" data-name="Group 42140" transform="translate(13.495 41.497)">
              <g id="Group_42139" data-name="Group 42139">
                <path id="Path_25538" data-name="Path 25538" d="M438.76,421.745s.109.8.122.917,1.21-.071,1.21-.071l.1-.949A6.739,6.739,0,0,0,438.76,421.745Z" transform="translate(-438.76 -421.642)" fill="#eea886"/>
              </g>
            </g>
            <g id="Group_42142" data-name="Group 42142" transform="translate(11.528 42.362)">
              <g id="Group_42141" data-name="Group 42141">
                <path id="Path_25539" data-name="Path 25539" d="M432.9,425.185a3.292,3.292,0,0,1-.746.69c-.366.21-.942.293-1.159.509-.156.156-.57.83.953.816s2.257.1,2.42-.163a6.337,6.337,0,0,0-.236-1.906A4.2,4.2,0,0,1,432.9,425.185Z" transform="translate(-430.827 -425.131)" fill="#414773"/>
              </g>
            </g>
            <g id="Group_42144" data-name="Group 42144" transform="translate(5.211 41.497)">
              <g id="Group_42143" data-name="Group 42143">
                <path id="Path_25540" data-name="Path 25540" d="M405.342,421.745s.109.8.122.917,1.21-.071,1.21-.071l.1-.949A6.741,6.741,0,0,0,405.342,421.745Z" transform="translate(-405.342 -421.642)" fill="#eea886"/>
              </g>
            </g>
            <g id="Group_42146" data-name="Group 42146" transform="translate(2.542 42.362)">
              <g id="Group_42145" data-name="Group 42145">
                <path id="Path_25541" data-name="Path 25541" d="M397.352,425.185a3.3,3.3,0,0,1-.746.69c-.366.21-1.716.382-1.932.6-.157.157-.417.787,1.726.727,1.522-.042,2.257.1,2.42-.163a6.337,6.337,0,0,0-.236-1.906A6.335,6.335,0,0,1,397.352,425.185Z" transform="translate(-394.572 -425.131)" fill="#414773"/>
              </g>
            </g>
            <g id="Group_42148" data-name="Group 42148" transform="translate(9.903 21.745)">
              <g id="Group_42147" data-name="Group 42147">
                <path id="Path_25542" data-name="Path 25542" d="M427.458,341.959a11.829,11.829,0,0,1,.532,3.549,37.989,37.989,0,0,0,.48,5.157c.181,1.913.924,6.442.95,7.465s-.115,4.291-.115,4.291l-1.486.036s-1.248-7.918-1.571-8.725-1.926-6.568-1.979-7.214S427.458,341.959,427.458,341.959Z" transform="translate(-424.269 -341.959)" fill="#2d314f"/>
              </g>
            </g>
            <g id="Group_42150" data-name="Group 42150" transform="translate(5.043 21.142)">
              <g id="Group_42149" data-name="Group 42149">
                <path id="Path_25543" data-name="Path 25543" d="M406.552,339.931s-.9,5.04-1.01,6.046-.18,4.865-.233,5.494-.359,8.223-.646,9.156h1.657s1.7-5.521,1.7-8.133a21.141,21.141,0,0,1,1.853-7.4c.727-1.724,2.391-1.764,2.839-4.962C412.712,340.129,407.157,338.917,406.552,339.931Z" transform="translate(-404.662 -339.526)" fill="#2d314f"/>
              </g>
            </g>
            <g id="Group_42152" data-name="Group 42152" transform="translate(8.981 8.112)">
              <g id="Group_42151" data-name="Group 42151">
                <path id="Path_25544" data-name="Path 25544" d="M420.559,287.557a1.441,1.441,0,0,1,0,.932c-.187.388,2.387.155,2.387.155a2.768,2.768,0,0,1,.22-1.462C423.5,286.523,420.559,287.557,420.559,287.557Z" transform="translate(-420.549 -286.963)" fill="#eea886"/>
              </g>
            </g>
            <g id="Group_42154" data-name="Group 42154" transform="translate(6.849 21.546)">
              <g id="Group_42153" data-name="Group 42153">
                <path id="Path_25545" data-name="Path 25545" d="M418.312,341.772s-.926.951-6.362-.148l.083-.466,6.18.233Z" transform="translate(-411.95 -341.158)" fill="#2b3b57"/>
              </g>
            </g>
            <g id="Group_42156" data-name="Group 42156" transform="translate(1.022 3.144)">
              <g id="Group_42155" data-name="Group 42155">
                <path id="Path_25546" data-name="Path 25546" d="M396.02,273.542s-.951.1-1.223.149-2.1-.327-2.475-.366a7.667,7.667,0,0,1-2.027-1.264,26.682,26.682,0,0,1-1.025-2.967c-.052-.505-.9-.244-.825.1.136.65.31,2.229.406,2.687a7.149,7.149,0,0,0,.535,1.751,11.148,11.148,0,0,0,3.006,1.7,11.977,11.977,0,0,1,2.472,1.152h6.949s2.7-3.864,2.761-4.446-1.888-4.451-2.276-4.937-.949.158-.949.158,1.163,3.412,1.318,3.9-1.352,2.616-1.767,2.623-1.477-.13-1.949-.149a3.312,3.312,0,0,1-.97-.227Z" transform="translate(-388.441 -266.922)" fill="#eea886"/>
              </g>
            </g>
            <g id="Group_42158" data-name="Group 42158" transform="translate(4.131 8.545)">
              <g id="Group_42157" data-name="Group 42157">
                <path id="Path_25547" data-name="Path 25547" d="M402.46,292.51a2.245,2.245,0,0,1,.928,1.536,20.1,20.1,0,0,0,.543,3.027,34.613,34.613,0,0,1-.175,4.6c-.039.272,5.378.917,6.21.272,0,0,.233-3.551.33-4.56a26.519,26.519,0,0,1,.718-3.784c.155-.33,2.037-2.97,2.115-3.318,0,0-.974-1.552-1.672-1.572,0,0-1.11,1.3-1.471,1.358a20.462,20.462,0,0,1-2.58-.352s-.242.33-1.528-.059c0,0-1.532.173-1.781.2-.3.039-2.4-.263-2.4-.263s-.842,1.421-.694,2.139Z" transform="translate(-400.985 -288.71)" fill="#4372d2"/>
              </g>
            </g>
            <g id="Group_42160" data-name="Group 42160" transform="translate(0 1.769)">
              <g id="Group_42159" data-name="Group 42159">
                <path id="Path_25548" data-name="Path 25548" d="M386.219,265.226s-.19-.9.039-1.158c.13-.147.443-.536.471-.593s.365-.25.365-.343-.329-.207-.615.057-.465.322-.579.293a3.543,3.543,0,0,1-.293-1.215c-.014-.236-.105-.858-.253-.815s-.14.314-.14.314-.172-.472-.286-.379-.1.322-.1.322-.214-.265-.272-.072a.668.668,0,0,0,0,.364s-.222-.121-.236.179a4.565,4.565,0,0,0,.222,1.494,11.777,11.777,0,0,1,.816,1.458C385.429,265.455,386.219,265.226,386.219,265.226Z" transform="translate(-384.319 -261.376)" fill="#eea886"/>
              </g>
            </g>
            <g id="Group_42162" data-name="Group 42162" transform="translate(11.837)">
              <g id="Group_42161" data-name="Group 42161">
                <path id="Path_25549" data-name="Path 25549" d="M434.354,258.278a5.92,5.92,0,0,0-.867-1.184,3.7,3.7,0,0,1-.8-.346c-.272-.194-.631-.356-.611-.42s.34-.039.682.11.493.077.526,0a2,2,0,0,0-.286-.755c-.1-.13-.841-.871-.718-.981s.6.3.679.382c0,0-.382-.8-.233-.841s.427.246.427.246-.032-.685.705.427c0,0-.155-.369.071-.246s.446.815.518,1.164a5.262,5.262,0,0,0,.669,1.73C435.389,257.832,434.354,258.278,434.354,258.278Z" transform="translate(-432.073 -254.238)" fill="#eea886"/>
              </g>
            </g>
            <g id="Group_42164" data-name="Group 42164" transform="translate(8.614 3.952)">
              <g id="Group_42163" data-name="Group 42163">
                <path id="Path_25550" data-name="Path 25550" d="M422.054,274.56a2.938,2.938,0,0,1-1.065-.22c-.725-.25-.779-1.517-.935-1.367a.458.458,0,0,1-.742-.086s.354-.466.19-.69a1.736,1.736,0,0,0-.431-.388,1.861,1.861,0,0,1,2.829-1.337C424.615,271.783,422.054,274.56,422.054,274.56Z" transform="translate(-419.07 -270.18)" fill="#353a3d"/>
              </g>
            </g>
            <g id="Group_42166" data-name="Group 42166" transform="translate(8.99 9.28)">
              <g id="Group_42165" data-name="Group 42165">
                <path id="Path_25551" data-name="Path 25551" d="M420.588,292.034l.082-.355a18.822,18.822,0,0,1,2.287.087l.085.424A3.178,3.178,0,0,1,420.588,292.034Z" transform="translate(-420.588 -291.676)" fill="#d4d8e8"/>
              </g>
            </g>
            <g id="Group_42168" data-name="Group 42168" transform="translate(9.148 6.241)">
              <g id="Group_42167" data-name="Group 42167">
                <path id="Path_25552" data-name="Path 25552" d="M421.431,279.61c.134-.223.631-.374.69.259.045.491-.888,1.026-.9.569A1.38,1.38,0,0,1,421.431,279.61Z" transform="translate(-421.223 -279.417)" fill="#eea886"/>
              </g>
            </g>
            <g id="Group_42170" data-name="Group 42170" transform="translate(1.07 5.415)">
              <g id="Group_42169" data-name="Group 42169">
                <path id="Path_25553" data-name="Path 25553" d="M389.429,276.085a1.474,1.474,0,0,0-.793.247.529.529,0,0,0,.043.265,3.3,3.3,0,0,1,.818-.256S389.491,276.147,389.429,276.085Z" transform="translate(-388.634 -276.085)" fill="#e55353"/>
              </g>
            </g>
            <g id="Group_42172" data-name="Group 42172" transform="translate(1.217 5.408)">
              <g id="Group_42171" data-name="Group 42171">
                <path id="Path_25554" data-name="Path 25554" d="M389.247,276.2a.23.23,0,1,0,.3-.122A.23.23,0,0,0,389.247,276.2Z" transform="translate(-389.229 -276.055)" fill="#353a3d"/>
              </g>
            </g>
          </g>
        </g>
        <g id="Group_42228" data-name="Group 42228">
          <g id="Group_41993" data-name="Group 41993" transform="translate(0.05 49.001)">
            <path id="Path_25447" data-name="Path 25447" d="M110.995,285.247s-.284,3.978.494,4.453c.487.3,2.428,1.3,2.371,1.493s-1.1,1.678-1.1,1.678-3.729-2.455-3.849-3.229c-.117-.756.184-5.824.7-6.057.384-.175.586-.03,1.07.329A1.132,1.132,0,0,1,110.995,285.247Z" transform="translate(-108.888 -283.511)" fill="#535fa4"/>
          </g>
          <g id="Group_41996" data-name="Group 41996" transform="translate(0.199 79.58)">
            <g id="Group_41995" data-name="Group 41995">
              <g id="Group_41994" data-name="Group 41994">
                <path id="Path_25448" data-name="Path 25448" d="M111.014,406.974s-.116.8-.13.926-1.29-.071-1.29-.071l-.1-.958A7.554,7.554,0,0,1,111.014,406.974Z" transform="translate(-109.49 -406.87)" fill="#424773"/>
              </g>
            </g>
          </g>
          <g id="Group_41999" data-name="Group 41999" transform="translate(0 80.453)">
            <g id="Group_41998" data-name="Group 41998">
              <g id="Group_41997" data-name="Group 41997">
                <path id="Path_25449" data-name="Path 25449" d="M110.293,410.445a3.439,3.439,0,0,0,.795.7c.391.212,1,.295,1.236.514.167.158.608.838-1.016.824s-2.406.1-2.579-.165.251-1.924.251-1.924A3.445,3.445,0,0,0,110.293,410.445Z" transform="translate(-108.687 -410.391)" fill="#292c47"/>
              </g>
            </g>
          </g>
          <g id="Group_42002" data-name="Group 42002" transform="translate(6.582 79.58)">
            <g id="Group_42001" data-name="Group 42001">
              <g id="Group_42000" data-name="Group 42000">
                <path id="Path_25450" data-name="Path 25450" d="M136.764,406.974s-.116.8-.131.926-1.29-.071-1.29-.071l-.1-.958A7.554,7.554,0,0,1,136.764,406.974Z" transform="translate(-135.24 -406.87)" fill="#424773"/>
              </g>
            </g>
          </g>
          <g id="Group_42005" data-name="Group 42005" transform="translate(6.383 80.453)">
            <g id="Group_42004" data-name="Group 42004">
              <g id="Group_42003" data-name="Group 42003">
                <path id="Path_25451" data-name="Path 25451" d="M136.042,410.445a3.444,3.444,0,0,0,.795.7c.391.212,1.829.385,2.06.6.167.158.444.794-1.84.734-1.623-.042-2.406.1-2.58-.165s.252-1.924.252-1.924A3.124,3.124,0,0,0,136.042,410.445Z" transform="translate(-134.435 -410.391)" fill="#292c47"/>
              </g>
            </g>
          </g>
          <g id="Group_42008" data-name="Group 42008" transform="translate(0 59.003)">
            <g id="Group_42007" data-name="Group 42007">
              <g id="Group_42006" data-name="Group 42006">
                <path id="Path_25452" data-name="Path 25452" d="M110.867,323.861a7.436,7.436,0,0,0-1.109,3.625,36.282,36.282,0,0,1-.287,5.358c-.2,2-.747,6.176-.777,7.247s.039,5.107.039,5.107l2.079-.016s.738-8.15,1.1-9,1.825-6.969,1.885-7.646S110.867,323.861,110.867,323.861Z" transform="translate(-108.686 -323.861)" fill="#292c47"/>
              </g>
            </g>
          </g>
          <g id="Group_42011" data-name="Group 42011" transform="translate(1.577 58.676)">
            <g id="Group_42010" data-name="Group 42010">
              <g id="Group_42009" data-name="Group 42009">
                <path id="Path_25453" data-name="Path 25453" d="M121.962,323.124s.473,4.679.592,5.732.038,5.618.1,6.276-.4,7.621-.511,8.947l-2.285-.014s-.158-5.633-.158-8.37a21.422,21.422,0,0,0-1.507-7.728c-.8-1.806-2.646-1.848-3.141-5.2C115.05,322.769,121.292,322.062,121.962,323.124Z" transform="translate(-115.05 -322.539)" fill="#292c47"/>
              </g>
            </g>
          </g>
          <g id="Group_42014" data-name="Group 42014" transform="translate(2.75 42.546)">
            <g id="Group_42013" data-name="Group 42013">
              <g id="Group_42012" data-name="Group 42012">
                <path id="Path_25454" data-name="Path 25454" d="M120.477,257.875s1.428-.954,2.431.068,1.5,3.424.776,3.9a2.082,2.082,0,0,1-2.521-.045,6.135,6.135,0,0,1-1.351-2.367A1.612,1.612,0,0,1,120.477,257.875Z" transform="translate(-119.78 -257.47)" fill="#eea886"/>
              </g>
            </g>
          </g>
          <g id="Group_42017" data-name="Group 42017" transform="translate(3.631 46.067)">
            <g id="Group_42016" data-name="Group 42016">
              <g id="Group_42015" data-name="Group 42015">
                <path id="Path_25455" data-name="Path 25455" d="M125.871,272.69a5.186,5.186,0,0,0,.092,1.217c.111.214-2.084.219-2.084.219a14.421,14.421,0,0,0-.516-2.147C123.025,271,125.871,272.69,125.871,272.69Z" transform="translate(-123.335 -271.673)" fill="#eea886"/>
              </g>
            </g>
          </g>
          <g id="Group_42020" data-name="Group 42020" transform="translate(2.558 42.327)">
            <g id="Group_42019" data-name="Group 42019">
              <g id="Group_42018" data-name="Group 42018">
                <path id="Path_25456" data-name="Path 25456" d="M120.161,260.618s.2.209.784-.028,1.125-1.21,1.355-1.357.2-.3.2-.3l.211.193.271-.046s-.412-.659-.114-1.037-.927-2.229-2.7-1.1c0,0-1.386.758-1.133,1.588A4.814,4.814,0,0,0,120.161,260.618Z" transform="translate(-119.005 -256.588)" fill="#754836"/>
              </g>
            </g>
          </g>
          <g id="Group_42023" data-name="Group 42023" transform="translate(3.924 47.674)">
            <g id="Group_42022" data-name="Group 42022">
              <g id="Group_42021" data-name="Group 42021">
                <path id="Path_25457" data-name="Path 25457" d="M126.983,278.759s-.007-.409-.192-.448a13.231,13.231,0,0,0-2.273-.128v.476S124.956,278.928,126.983,278.759Z" transform="translate(-124.518 -278.158)" fill="#e2d2ca"/>
              </g>
            </g>
          </g>
          <g id="Group_42026" data-name="Group 42026" transform="translate(5.38 44.149)">
            <g id="Group_42025" data-name="Group 42025">
              <g id="Group_42024" data-name="Group 42024">
                <path id="Path_25458" data-name="Path 25458" d="M130.951,264.168c-.067-.134-.522-.453-.558.012s.447.965.628.871S131.121,264.506,130.951,264.168Z" transform="translate(-130.391 -263.937)" fill="#eea886"/>
              </g>
            </g>
          </g>
          <g id="Group_42029" data-name="Group 42029" transform="translate(2.28 43.196)">
            <g id="Group_42028" data-name="Group 42028">
              <g id="Group_42027" data-name="Group 42027">
                <path id="Path_25459" data-name="Path 25459" d="M118.639,260.093s-2.042.548.6,3.082Z" transform="translate(-117.886 -260.093)" fill="#754836"/>
              </g>
            </g>
          </g>
          <g id="Group_42031" data-name="Group 42031" transform="translate(17.158 53.624)">
            <g id="Group_42030" data-name="Group 42030">
              <path id="Path_25460" data-name="Path 25460" d="M182.025,302.59l-2.081-.019c.18-.1.47-.293.406-.378-.092-.122-.681.146-.92.171a3.5,3.5,0,0,0-.867.1l-.657.28.6.557s1.088.156,1.407.179a6.029,6.029,0,0,0,2.129-.674C182.091,302.633,182.025,302.59,182.025,302.59Z" transform="translate(-177.905 -302.161)" fill="#eea886"/>
            </g>
          </g>
          <g id="Group_42034" data-name="Group 42034" transform="translate(0.454 48.175)">
            <g id="Group_42033" data-name="Group 42033">
              <g id="Group_42032" data-name="Group 42032">
                <path id="Path_25461" data-name="Path 25461" d="M119.172,280.844c-1.324-.233-2.717-.566-2.717-.566l-2.465-.1a23.963,23.963,0,0,0-3.153.9,24.678,24.678,0,0,1-.317,2.537l.738,1.558s.427,3.087.515,4.459c.041.63-.88,5.91-.88,5.91a17.025,17.025,0,0,0,2.669.476,24.487,24.487,0,0,0,5.912-.266c.027-.2-.814-7.4-.851-7.771-.057-.572.165-3.216.165-3.216a16.971,16.971,0,0,0,3.044,2.53,5.933,5.933,0,0,0,2.657.094c1-.1,3.744-.3,3.8-.4a2.735,2.735,0,0,0-.273-1.1c-.1-.033-3.65-.209-4.54-.163-.361.019-1.539-1.3-1.539-1.3S119.9,281.172,119.172,280.844Z" transform="translate(-110.521 -280.177)" fill="#535fa4"/>
              </g>
            </g>
          </g>
        </g>
        <g id="Group_42227" data-name="Group 42227">
          <g id="Group_42176" data-name="Group 42176" transform="translate(55.18 27.679)">
            <g id="Group_42175" data-name="Group 42175">
              <g id="Group_42174" data-name="Group 42174">
                <path id="Path_25555" data-name="Path 25555" d="M332.553,198.132a8.191,8.191,0,0,0,1.085,1.505c.438.287.163.577-.044.577s-1.269.076-1.5-.189-.349-1.06-.567-1.268-.442-1.035.106-1.235C332.115,197.344,332.553,198.132,332.553,198.132Z" transform="translate(-331.288 -197.495)" fill="#6069a8"/>
              </g>
            </g>
          </g>
          <g id="Group_42179" data-name="Group 42179" transform="translate(55.484 27.705)">
            <g id="Group_42178" data-name="Group 42178">
              <g id="Group_42177" data-name="Group 42177">
                <path id="Path_25556" data-name="Path 25556" d="M333.147,197.642s.874,1.515,1.025,1.739-.284.223-.553.117a5.272,5.272,0,0,1-1.043-1.391.73.73,0,0,1-.021-.507Z" transform="translate(-332.518 -197.601)" fill="#202338"/>
              </g>
            </g>
          </g>
          <g id="Group_42182" data-name="Group 42182" transform="translate(55.228 28.562)">
            <g id="Group_42181" data-name="Group 42181">
              <g id="Group_42180" data-name="Group 42180">
                <path id="Path_25557" data-name="Path 25557" d="M331.482,201.057l.2,1.553.107,0-.033-1.117Z" transform="translate(-331.482 -201.057)" fill="#6069a8"/>
              </g>
            </g>
          </g>
          <g id="Group_42185" data-name="Group 42185" transform="translate(47.607 27.684)">
            <g id="Group_42184" data-name="Group 42184">
              <g id="Group_42183" data-name="Group 42183">
                <path id="Path_25558" data-name="Path 25558" d="M302.01,198.147a8.2,8.2,0,0,0,1.085,1.505c.438.287.164.577-.044.577s-1.269.076-1.5-.189-.35-1.06-.567-1.268-.449-1.056.106-1.235C301.574,197.379,302.01,198.147,302.01,198.147Z" transform="translate(-300.742 -197.515)" fill="#6069a8"/>
              </g>
            </g>
          </g>
          <g id="Group_42188" data-name="Group 42188" transform="translate(47.915 27.705)">
            <g id="Group_42187" data-name="Group 42187">
              <g id="Group_42186" data-name="Group 42186">
                <path id="Path_25559" data-name="Path 25559" d="M302.658,197.645s.828,1.512.979,1.736-.284.223-.553.117a5.272,5.272,0,0,1-1.043-1.391.73.73,0,0,1-.021-.507Z" transform="translate(-301.984 -197.601)" fill="#202338"/>
              </g>
            </g>
          </g>
          <g id="Group_42191" data-name="Group 42191" transform="translate(47.658 28.562)">
            <g id="Group_42190" data-name="Group 42190">
              <g id="Group_42189" data-name="Group 42189">
                <path id="Path_25560" data-name="Path 25560" d="M300.947,201.057l.2,1.553.107,0-.033-1.117Z" transform="translate(-300.947 -201.057)" fill="#6069a8"/>
              </g>
            </g>
          </g>
          <g id="Group_42194" data-name="Group 42194" transform="translate(45.488 15.463)">
            <g id="Group_42193" data-name="Group 42193">
              <g id="Group_42192" data-name="Group 42192">
                <path id="Path_25561" data-name="Path 25561" d="M292.192,149.29l6.907,3.147a1.329,1.329,0,0,1,.857,1.107,28.456,28.456,0,0,0,2.268,6.911c.641.313.592.041.592.041a78.963,78.963,0,0,1-1.072-8.794c-.037-.455-.06-.767-.065-.867,0-.068-.078-.156-.205-.26a34.175,34.175,0,0,0-4.848-2.36A7.366,7.366,0,0,0,292.192,149.29Z" transform="translate(-292.192 -148.212)" fill="#202338"/>
              </g>
            </g>
          </g>
          <g id="Group_42197" data-name="Group 42197" transform="translate(44.158 14.988)">
            <g id="Group_42196" data-name="Group 42196">
              <g id="Group_42195" data-name="Group 42195">
                <path id="Path_25562" data-name="Path 25562" d="M286.857,149.2c.214,1.867,2.879,1.653,2.879,1.653h3.23a20.166,20.166,0,0,0-1.176,3.48c-.347,1.69-1.167,4.68-1.167,4.68s.054.1.638.044c0,0,2.536-5.053,3.506-6.324a8.576,8.576,0,0,0,.91-2.643c.035-.3.013-.528-.1-.621a8.117,8.117,0,0,0-.713-.488,16.157,16.157,0,0,0-3.748-1.84c-1.311-.295-3.385-.847-3.385-.847A3.569,3.569,0,0,0,286.857,149.2Z" transform="translate(-286.829 -146.297)" fill="#202338"/>
              </g>
            </g>
          </g>
          <g id="Group_42198" data-name="Group 42198" transform="translate(46.072)">
            <path id="Path_25563" data-name="Path 25563" d="M294.86,89.345a3.009,3.009,0,0,1-.248-1.9,1.894,1.894,0,0,1,2.47-1.5c1.328.447,2.4,1.479,1.606,2.672s.72,1.731.334,2.3a1.1,1.1,0,0,0-.076,1.292,1.506,1.506,0,0,1,.633,1.16c-.058.557-2.577-1.624-2.577-1.624S295.631,88.989,294.86,89.345Z" transform="translate(-294.548 -85.834)" fill="#464240"/>
          </g>
          <g id="Group_42199" data-name="Group 42199" transform="translate(45.073 14.793)">
            <path id="Path_25564" data-name="Path 25564" d="M295.878,145.961s-.2.972-5.358-.255C290.52,145.706,292.249,145.131,295.878,145.961Z" transform="translate(-290.52 -145.512)" fill="#eb4747"/>
          </g>
          <g id="Group_42201" data-name="Group 42201" transform="translate(43.966 5.965)">
            <g id="Group_42200" data-name="Group 42200">
              <path id="Path_25565" data-name="Path 25565" d="M287.1,119.191l-.24.458,5.657.165a10.92,10.92,0,0,1-.149-3.378c.064-1.254.756-2.126.683-3.394.373.061.438.072.811.129-.572-1.628-.767-2.435-2.542-3.061a3.318,3.318,0,0,0-1.583-.193c-2.056.169-2.676.194-3.685,2.056,1.581.252,1.32.819,1.8,2.392a5.631,5.631,0,0,1,.352,2.431C288.081,117.592,287.1,118.465,287.1,119.191Z" transform="translate(-286.053 -109.896)" fill="#535fa4"/>
            </g>
          </g>
          <g id="Group_42203" data-name="Group 42203" transform="translate(47.617 4.34)">
            <g id="Group_42202" data-name="Group 42202">
              <path id="Path_25566" data-name="Path 25566" d="M301.46,105.573c-.842-.159-.662-.627-.662-.627s.039-.264.054-.6c0-.085.006-.176.006-.267a3.569,3.569,0,0,0-.023-.414c-.069-.565,1.527-.228,1.527-.228a3.807,3.807,0,0,0,.128,1.485C302.709,105.267,302.3,105.732,301.46,105.573Z" transform="translate(-300.781 -103.34)" fill="#eea886"/>
            </g>
          </g>
          <g id="Group_42205" data-name="Group 42205" transform="translate(46.69 5.79)">
            <g id="Group_42204" data-name="Group 42204">
              <path id="Path_25567" data-name="Path 25567" d="M297.043,109.342a26.591,26.591,0,0,0,2.324,2.414s.721-.651.276-2.371A4.319,4.319,0,0,0,297.043,109.342Z" transform="translate(-297.043 -109.189)" fill="#eea886"/>
            </g>
          </g>
          <g id="Group_42206" data-name="Group 42206" transform="translate(46.343 0.911)">
            <path id="Path_25568" data-name="Path 25568" d="M296.034,89.823a3.815,3.815,0,0,0-.008,3.307c.875,1.608,2.592-.7,2.7-.971s.7-1.8-.471-2.269S296.284,89.362,296.034,89.823Z" transform="translate(-295.64 -89.507)" fill="#eea886"/>
          </g>
          <g id="Group_42207" data-name="Group 42207" transform="translate(46.31 0.559)">
            <path id="Path_25569" data-name="Path 25569" d="M296.227,89.358a3.822,3.822,0,0,0-.678,1.386,3.156,3.156,0,0,1,.441-2.183c.683-1.07,2.419-.051,2.652.376s.914.8-.231,2.64C298.41,91.578,296.351,90.147,296.227,89.358Z" transform="translate(-295.506 -88.088)" fill="#464240"/>
          </g>
          <g id="Group_42208" data-name="Group 42208" transform="translate(47.688 4.702)">
            <path id="Path_25570" data-name="Path 25570" d="M301.816,104.8a1.645,1.645,0,0,1-.751.645c0-.085.006-.176.005-.267A1.428,1.428,0,0,0,301.816,104.8Z" transform="translate(-301.065 -104.804)" fill="#a77860"/>
          </g>
          <g id="Group_42209" data-name="Group 42209" transform="translate(37.782 13.672)">
            <path id="Path_25571" data-name="Path 25571" d="M262.854,141.048s-.419.186-.618.1a1.854,1.854,0,0,0-.6-.1c-.129,0-.535-.145-.528.014s.659.269.792.319-.4.342-.448.472.552.984.89.741.522-.729.591-.76a2.5,2.5,0,0,0,.254-.167Z" transform="translate(-261.106 -140.988)" fill="#eea886"/>
          </g>
          <g id="Group_42210" data-name="Group 42210" transform="translate(37.189 14.461)">
            <path id="Path_25572" data-name="Path 25572" d="M259.715,144.173a8.766,8.766,0,0,0-1,.925c-.016.11.036.162.132.089s.974-.759.974-.759-.985,1.163-1.018,1.249c-.019.051.075.156.13.122s1.1-1.129,1.1-1.129-.917,1.087-.922,1.169a.107.107,0,0,0,.18.072c.074-.076.987-1.035.987-1.035a5.431,5.431,0,0,0-.576.908c.023.045.1.139.252-.081s.566-.7.566-.7Z" transform="translate(-258.715 -144.173)" fill="#eea886"/>
          </g>
          <g id="Group_42212" data-name="Group 42212" transform="translate(44.158 14.988)">
            <g id="Group_42211" data-name="Group 42211">
              <path id="Path_25573" data-name="Path 25573" d="M292.629,150.854h-2.893s-2.665.214-2.879-1.653a3.569,3.569,0,0,1,.876-2.9s1.408.375,2.637.672a9.535,9.535,0,0,1,2.223-.194s5.211,1.722,5.054,2.628C297.648,149.4,295.468,148.238,292.629,150.854Z" transform="translate(-286.83 -146.297)" fill="#ff7e55"/>
            </g>
          </g>
          <g id="Group_42213" data-name="Group 42213" transform="translate(48.075 16.231)">
            <path id="Path_25574" data-name="Path 25574" d="M302.629,151.392l5.515-.081-2.785,1.414Z" transform="translate(-302.629 -151.311)" fill="#5e5853"/>
          </g>
          <g id="Group_42214" data-name="Group 42214" transform="translate(46.955 15.085)">
            <path id="Path_25575" data-name="Path 25575" d="M300.945,147.212a4.718,4.718,0,0,1-2.762.046l-.071-.568,3.132.174Z" transform="translate(-298.112 -146.69)" fill="#325bb3"/>
          </g>
          <g id="Group_42215" data-name="Group 42215" transform="translate(48.075 16.312)">
            <path id="Path_25576" data-name="Path 25576" d="M305.36,152.972l-2.731-1.058v-.275l2.947,1.063Z" transform="translate(-302.629 -151.639)" fill="#91887f"/>
          </g>
          <g id="Group_42218" data-name="Group 42218" transform="translate(39.049 5.821)">
            <g id="Group_42216" data-name="Group 42216" transform="translate(10.242 0.165)">
              <path id="Path_25577" data-name="Path 25577" d="M308.013,119.863a.273.273,0,0,0,.38.27l.32-.137a.228.228,0,0,0,.136-.246c-.133-.834-.419-4.082,0-4.639a2.027,2.027,0,0,0,.305-.544c.276.712.62,1.629.756,2.122l2.606,3.467.874.222a29.582,29.582,0,0,0-1.966-4.019c-.171-.458-.66-1.844-1.093-3.079-.274-.78-.525-1.5-.659-1.885a.884.884,0,0,0-.382-.467c-.4-.241-1.076-.622-1.686-.918l-.007,0-.058-.028h0c1.16,1.755.707,6.709.479,9.878Z" transform="translate(-307.535 -109.978)" fill="#eddad3"/>
            </g>
            <g id="Group_42217" data-name="Group 42217">
              <path id="Path_25578" data-name="Path 25578" d="M272.633,109.628a4.324,4.324,0,0,0-1.782,1.854,13.652,13.652,0,0,1-1.552,2.589c-.783.71-2.975,3.218-3.079,3.157a6.757,6.757,0,0,0,.683.785c.041.018,3.6-3.069,3.945-3.539.324-.446,1.192-2.317,1.451-2.276h0a13.9,13.9,0,0,1,.634,1.727l.015.05a5.552,5.552,0,0,1,.076,2.306,7.853,7.853,0,0,1-.853,2.2.348.348,0,0,0,.012.267h0a.192.192,0,0,0,.095.111l1.046.387.246.091a.536.536,0,0,0,.717-.433,31.76,31.76,0,0,1,.761-4.3,6.522,6.522,0,0,0-.4-5.291A19.464,19.464,0,0,0,272.633,109.628Z" transform="translate(-266.218 -109.314)" fill="#eddad3"/>
            </g>
          </g>
          <g id="Group_42219" data-name="Group 42219" transform="translate(50.806 13.166)">
            <path id="Path_25579" data-name="Path 25579" d="M313.645,143.425l1.641-4.479,5.289.086-1.564,4.128Z" transform="translate(-313.645 -138.945)" fill="#6e6760"/>
          </g>
          <g id="Group_42220" data-name="Group 42220" transform="translate(54.044 14.73)">
            <path id="Path_25580" data-name="Path 25580" d="M326.8,145.673c-.161.323-.113.674.109.785s.532-.061.693-.384.113-.674-.109-.785S326.963,145.351,326.8,145.673Z" transform="translate(-326.707 -145.256)" fill="#807066"/>
          </g>
          <g id="Group_42221" data-name="Group 42221" transform="translate(48.233 2.881)">
            <path id="Path_25581" data-name="Path 25581" d="M303.6,97.494a.952.952,0,0,1,.026.982c-.313.455.079.9.147,1.383s-1.306,1.761.222,2.4,2.015-.42,1.625-1.006a3.308,3.308,0,0,1-.7-1.9C304.884,98.526,304.61,97.224,303.6,97.494Z" transform="translate(-303.267 -97.458)" fill="#464240"/>
          </g>
        </g>
      </g>
    </g>
  </g>
</svg>
