<svg xmlns="http://www.w3.org/2000/svg" xmlns:xlink="http://www.w3.org/1999/xlink" width="162.664" height="108.45" viewBox="0 0 162.664 108.45">
  <defs>
    <linearGradient id="linear-gradient" x1="0.515" y1="-0.013" x2="0.486" y2="0.813" gradientUnits="objectBoundingBox">
      <stop offset="0" stop-color="#fff"/>
      <stop offset="1" stop-color="#fff" stop-opacity="0"/>
    </linearGradient>
    <linearGradient id="linear-gradient-2" x1="0.521" y1="-0.015" x2="0.489" y2="0.812" xlink:href="#linear-gradient"/>
  </defs>
  <g id="PMT_M43_010" transform="translate(-22.133 -14.549)">
    <path id="Path" d="M135.645,34.628c-.406.952-.824,1.913-1.238,2.882a67.481,67.481,0,0,0-2.675,7.106l-.039.132c-.155.529-.3,1.059-.426,1.589a19.3,19.3,0,0,0-.144,9.625c.558,2.08,1.555,4.016,2.22,6.064a19.773,19.773,0,0,1-10.815,24.2,19.656,19.656,0,0,1-2.212.844,19.135,19.135,0,0,1-2.9.675c-2.521.383-5.087.279-7.631.422-1.7.1-3.388.3-5.087.286q-1.459-.013-2.9-.093l-.233-.013h-.03q-.305-.018-.609-.038l-.182-.012c-.185-.013-.369-.026-.553-.041q-.343-.026-.686-.056l-.684-.062q-.339-.032-.678-.067h-.01l-.533-.056h-.012l-.268-.029-.068-.008c-.158-.017-.318-.036-.477-.055s-.325-.038-.487-.059l-.078-.009-.694-.088-.693-.094q-.3-.041-.606-.085l-.157-.022q-.565-.082-1.128-.17l-.224-.034c-.333-.052-.667-.1-1-.159s-.682-.111-1.023-.169h-.005c-4.885-.825-9.724-1.842-14.61-2.587q-1.108-.169-2.22-.318c-.494-.065-.988-.128-1.484-.186q-.472-.055-.944-.106a64.413,64.413,0,0,0-9.683-.358c-1.34.059-2.688.169-4.047.338a54,54,0,0,0-9.237,2.015q-1.764.544-3.48,1.176c-5.856,2.148-11.365,4.957-17.341,7.55l-.331.144a23.8,23.8,0,0,1-7.647,1.955c-7.433.553-13.967-3.1-17.671-10.79a21.041,21.041,0,0,1,.627-19.086q.25-.45.526-.884.226-.359.468-.706c3.748-5.445,9.842-9.24,12.528-15.282a22.508,22.508,0,0,0,1.289-3.818c.128-.527.239-1.057.334-1.59,1.14-6.32.164-13.067.6-19.581q.054-.8.138-1.59a23.716,23.716,0,0,1,4.014-11.446C29.79,1.487,46.078-2.148,57.707,1.216a42.809,42.809,0,0,1,5.315,1.962c1.4.616,2.784,1.29,4.156,1.988l.284.142q.965.491,1.926,1c6.418,3.372,12.728,6.925,19.869,7.3,5.624.3,11.136-1.446,16.466-3.259,1.12-.38,2.243-.767,3.372-1.138q.94-.31,1.884-.6c.757-.235,1.518-.46,2.28-.668a40.877,40.877,0,0,1,5.8-1.187q.7-.087,1.4-.139.821-.061,1.645-.073.281,0,.563,0c5.464.068,11.169,2.21,14.122,6.772C140.82,19.551,138.557,27.8,135.645,34.628Z" transform="translate(31.871 16.305)" fill="#ffb200" opacity="0.8"/>
    <path id="Path-2" data-name="Path" d="M3.722.117a2.5,2.5,0,0,1-.237,3.668A2.318,2.318,0,0,1,.074,2.667,2.159,2.159,0,0,1,2.368.026a3.97,3.97,0,0,1,1.322.6" transform="translate(164.413 68.72)" fill="#ffb200" opacity="0.29"/>
    <path id="Path-3" data-name="Path" d="M21.793,2.719a4.072,4.072,0,0,1-1.666.414c-3.63.349-7.288.364-10.908.813C6.073,4.337,2.928,6.038,0,6.355,1.144,1.606,9.61.3,15.675.05,17.542-.028,19.18,0,20.309.05a2.684,2.684,0,0,1,2.115.841,1.089,1.089,0,0,1,.158.408A1.459,1.459,0,0,1,21.793,2.719Z" transform="translate(77.179 102.425)" fill="#ffb200" opacity="0.8"/>
    <path id="Path-4" data-name="Path" d="M7.084,11.095q-.23.761-.507,1.5a21.559,21.559,0,0,1-4.294,7.123,3.281,3.281,0,0,1-2.2,1.3c-.409-1.231.811-2.328,1.769-3.2a11.254,11.254,0,0,0,2.843-4.007,12.156,12.156,0,0,0,.688-2.381h0c.022-.114.041-.229.06-.344.519-3.138.137-6.484.77-9.637C6.336.84,6.925-.533,7.776.22a1.915,1.915,0,0,1,.457,1.4A28.783,28.783,0,0,1,7.084,11.095Z" transform="translate(37.645 49.385)" fill="#ffb200" opacity="0.8"/>
    <path id="Path-5" data-name="Path" d="M5.076,2.86C4.838,3.8,4.6,4.741,4.3,5.662c-.165.51-.349,1.012-.561,1.5-.017.043-.036.085-.055.127A19.172,19.172,0,0,0,2.774,9.43c-.813,2.673.393,5.723-.714,8.29-.664.338-1.314-.493-1.537-1.2-.946-3.011-.439-6.243.194-9.356Q.8,6.737.891,6.315c.046-.218.091-.437.139-.659A13.924,13.924,0,0,1,1.87,2.881l-.259.23a4.4,4.4,0,0,1,1.3-2.085A1.666,1.666,0,0,1,3.335.8,4.258,4.258,0,0,1,4.609,0L4.433.6,4.282.732a1.137,1.137,0,0,1,.8.569A2.2,2.2,0,0,1,5.076,2.86Z" transform="translate(164.986 55.336)" fill="#ffb200" opacity="0.8"/>
    <g id="Group" transform="translate(76.481 40.737)" opacity="0.27">
      <path id="Path-6" data-name="Path" d="M3.973.009,0,0,1.529,17.445l4.365.009L3.973.009Z" transform="translate(4.039 1.697)" fill="#fff" opacity="0.57"/>
      <path id="Path-7" data-name="Path" d="M0,.728,1.1,0a8.114,8.114,0,0,1,.96,2.925l-.574-.106A2.552,2.552,0,0,0,0,.728Z" transform="translate(2.462 0)" fill="#fff"/>
      <path id="Path-8" data-name="Path" d="M2.932,0,0,.613,1.943,14.322l3.862.009L2.932,0Z" transform="translate(9.955 4.834)" fill="#fff" opacity="0.57"/>
      <path id="Path-9" data-name="Path" d="M4.423,0,0,.019,1.034,12.528l4.591.01L4.423,0Z" transform="translate(8.561 6.623)" fill="#fff" opacity="0.57"/>
      <path id="Path-10" data-name="Path" d="M2.577,0,0,.2.037.673l2.577-.2L2.577,0Z" transform="translate(9.126 13.327)" fill="#fff"/>
      <path id="Path-11" data-name="Path" d="M1.9.027,0,0,3.557,10.1l2.171-.729L1.9.027Z" transform="translate(16.001 9.069)" fill="#fff"/>
      <path id="Path-12" data-name="Path" d="M1.637,0,0,.3l2.427,9.821,2.827.006L1.637,0Z" transform="translate(14.375 9.05)" fill="#fff" opacity="0.57"/>
      <path id="Path-13" data-name="Path" d="M1.39.07,0,0,2.748,14.323l1.777,0L1.39.07Z" transform="translate(12.881 4.84)" fill="#fff"/>
      <path id="Path-14" data-name="Path" d="M4.906.01.038,0,0,17.46l5.918.013L4.906.01Z" transform="translate(0 1.67)" fill="#fff" opacity="0.57"/>
      <path id="Path-15" data-name="Path" d="M2.936.006,0,0,.109,2.453l3.056.007L2.936.006Z" transform="translate(5.008 3.291)" fill="#fff"/>
      <path id="Path-16" data-name="Path" d="M2.666.139,0,0,.4,5.388l2.71-.3L2.666.139Z" transform="translate(10.064 7.259)" fill="#fff"/>
      <path id="Path-17" data-name="Path" d="M3.726,0,0,.3.036.763l3.725-.3L3.726,0Z" transform="translate(9.985 13.152)" fill="#fff"/>
      <path id="Path-18" data-name="Path" d="M4.957.01.005,0,0,2.329,5.089,2.5,4.957.01Z" transform="translate(0.051 3.281)" fill="#fff"/>
      <path id="Path-19" data-name="Path" d="M1.253,0,0,0,.114,1.82l1.253,0L1.253,0Z" transform="translate(6.741 16.448)" fill="#fff"/>
      <path id="Path-20" data-name="Path" d="M2.937,0,0,.633.032.868,2.989.261,2.937,0Z" transform="translate(10.032 5.305)" fill="#fff"/>
      <path id="Path-21" data-name="Path" d="M0,0,1.39.055,1.461.31.052.261,0,0Z" transform="translate(12.969 5.305)" fill="#fff"/>
      <path id="Path-22" data-name="Path" d="M.855,0,0,.007,1.661,8.1l.855-.008L.855,0Z" transform="translate(14.285 10.224)" fill="#fff"/>
      <path id="Path-23" data-name="Path" d="M1.136,0,0,.232.22,1.1,1.454.627,1.136,0Z" transform="translate(19.539 17.28)" fill="#fff"/>
      <path id="Path-24" data-name="Path" d="M1.033,0,0,.164l.222.87,1.117-.4L1.033,0Z" transform="translate(19.167 16.253)" fill="#fff"/>
      <path id="Path-25" data-name="Path" d="M1.755,3.134.724,0,0,.018,1.3,3.211l.451-.077Z" transform="translate(16.816 9.445)" fill="#fff"/>
    </g>
    <g id="Group-2" data-name="Group" transform="translate(34.342 19.308)" opacity="0.93">
      <path id="Path-26" data-name="Path" d="M10.794,0,4.321,15.877l-.013.032a.143.143,0,0,1-.186.077l-.275-.112L.088,14.342a.143.143,0,0,1-.077-.187L5.322,1.123A38.456,38.456,0,0,1,10.794,0Z" transform="translate(106.902 3.393)" fill="#fff" opacity="0.15"/>
      <path id="Path-27" data-name="Path" d="M11.355,2.021l-.268.659h0L4.365,19.163l-.056.139a.142.142,0,0,1-.186.077l-.537-.219h0l-3.5-1.426a.143.143,0,0,1-.077-.187L7.164,0c1.323.583,2.628,1.221,3.924,1.882Z" transform="translate(53.292 0)" fill="#fff" opacity="0.15"/>
      <g id="Group-3" data-name="Group" transform="translate(67.814 13.415)" opacity="0.15">
        <path id="Path-28" data-name="Path" d="M15.832,2.776,15.838.15a.116.116,0,0,0-.116-.116L.122,0A.116.116,0,0,0,.005.116L0,2.742a.116.116,0,0,0,.116.116l15.6.033A.116.116,0,0,0,15.832,2.776Z" transform="translate(0.801 10.584)" fill="#fff"/>
        <path id="Path-29" data-name="Path" d="M0,6.581.014.144A.144.144,0,0,1,.158,0L13.44.029a.144.144,0,0,1,.143.144L13.569,6.61a.144.144,0,0,1-.144.144L.143,6.725A.143.143,0,0,1,0,6.581Z" transform="translate(0.908 13.325)" fill="#fff" opacity="0.57"/>
        <path id="Path-30" data-name="Path" d="M0,5.629.012.143A.143.143,0,0,1,.156,0L18.139.039a.144.144,0,0,1,.144.144l-.012,5.485a.144.144,0,0,1-.144.143L.144,5.773A.144.144,0,0,1,0,5.629Z" transform="translate(0.42 19.691)" fill="#fff"/>
        <path id="Path-31" data-name="Path" d="M.01.681,0,5.466a.3.3,0,0,0,.3.3l17.668.039a.3.3,0,0,0,.3-.3l.011-5.17a.3.3,0,0,0-.3-.3L2.41,0Q1.221.378.01.681Z" transform="translate(0 0)" fill="#fff"/>
        <path id="Path-32" data-name="Path" d="M.446,3.612a14.868,14.868,0,0,0,0-3.459.158.158,0,0,0-.316,0,14.894,14.894,0,0,0-.02,3.459A.175.175,0,0,0,.446,3.612Z" transform="translate(11.765 14.563)" fill="#fff"/>
        <path id="Path-33" data-name="Path" d="M.446,3.612a14.868,14.868,0,0,0,0-3.459.158.158,0,0,0-.316,0,14.876,14.876,0,0,0-.019,3.46.175.175,0,0,0,.341,0Z" transform="translate(10.178 14.56)" fill="#fff"/>
        <path id="Path-34" data-name="Path" d="M.446,3.613a14.871,14.871,0,0,0,0-3.46.158.158,0,0,0-.316,0A14.873,14.873,0,0,0,.106,3.612a.175.175,0,0,0,.341,0Z" transform="translate(8.591 14.556)" fill="#fff"/>
      </g>
      <path id="Shape" d="M118.214,58.53l-8.849-.018L79,58.451l-12.043-.024-.013,5.213-2.217,0,.012-5.212-2.335,0L0,58.321q.252-.427.532-.835.228-.339.47-.668l61.592.1,2.148,0,.041-18.073-1.43,0-2.673-.005L44.858,38.8l-29.984-.061c.13-.5.24-1,.336-1.505l29.333.06,18.2.039h.3l1.738,0,.038-16.76,0-1.776L45.8,18.765l-1.536,0L15.816,18.7q.053-.755.138-1.5l40.906.082h.829l7.14.015L64.839.8V0l.284.138q.968.469,1.933.947L67.045,17.3h.474l18.8.039,23.231.048h.506l8.256.016.037-16.025q.823-.059,1.652-.07.283,0,.566,0l-.082,36.142,9.148.02c-.156.5-.3,1-.428,1.5l-8.724-.017-.051,37.777a20.5,20.5,0,0,1-2.221.8Z" transform="translate(0 1.883)" fill="#fff" opacity="0.47"/>
      <path id="Path-35" data-name="Path" d="M11.527,1.129l-9.2,12.6a.116.116,0,0,1-.16.024L.047,12.2a.116.116,0,0,1-.025-.16L8.4.573Q9.283.279,10.175,0L11.5.968a.116.116,0,0,1,.025.16Z" transform="translate(98.47 5.148)" fill="#fff" opacity="0.15"/>
      <path id="Path-36" data-name="Path" d="M7.32,13.178l-1.782.736a.144.144,0,0,1-.188-.077L.011.937A.144.144,0,0,1,.088.749L1.87.011a.144.144,0,0,1,.188.077l5.34,12.9a.143.143,0,0,1-.077.19Z" transform="translate(76.551 44.865)" fill="#fff" opacity="0.14"/>
      <g id="Group-4" data-name="Group" transform="translate(66.914 42.197)" opacity="0.14">
        <path id="Path-37" data-name="Path" d="M6.688,15.952,2.731,16.6a.143.143,0,0,1-.165-.119L0,.815A.144.144,0,0,1,.12.65L4.077,0A.143.143,0,0,1,4.242.12L6.808,15.788a.143.143,0,0,1-.12.165Z" transform="translate(0 0)" fill="#fff"/>
        <path id="Path-38" data-name="Path" d="M2.39.03A6.893,6.893,0,0,0,.2.3C.033.33-.021.518.007.691s.14.335.305.308A6.912,6.912,0,0,0,2.477.558.317.317,0,0,0,2.39.03Z" transform="translate(1.095 1.711)" fill="#fff"/>
        <path id="Path-39" data-name="Path" d="M2.39.03A6.884,6.884,0,0,0,.2.3C.033.33-.021.518.007.691s.14.335.306.308A6.9,6.9,0,0,0,2.477.559.317.317,0,0,0,2.39.03Z" transform="translate(2.064 7.63)" fill="#fff"/>
        <path id="Path-40" data-name="Path" d="M.418.005A.651.651,0,0,0,.012.8c.063.385.353.668.637.62A.652.652,0,0,0,1.055.625C.992.239.7-.041.418.005Z" transform="translate(2.342 4.4)" fill="#fff"/>
      </g>
      <g id="Group-5" data-name="Group" transform="translate(72.171 44.796)" opacity="0.1">
        <path id="Path-41" data-name="Path" d="M6.593,13.028l-3.46.8a.143.143,0,0,1-.172-.107L0,.979A.143.143,0,0,1,.111.806L3.571,0a.143.143,0,0,1,.172.107L6.7,12.856a.143.143,0,0,1-.108.172Z" transform="translate(0 0)" fill="#fff"/>
        <path id="Path-42" data-name="Path" d="M.293.006C.04.064-.071.544.048,1.06s.431.9.684.839S1.1,1.361.977.845.546-.053.293.006Z" transform="translate(2.021 2.152)" fill="#fff"/>
        <path id="Path-43" data-name="Path" d="M1.946.006C1.605.055,1.272.141.938.213A1.932,1.932,0,0,0,.058.5c-.129.1-.023.561.139.6A1.929,1.929,0,0,0,1.115.975c.333-.083.669-.152,1-.258C2.23.7,2.243.506,2.2.323S2.058-.033,1.946.006Z" transform="translate(2.036 5.898)" fill="#fff"/>
      </g>
      <path id="Path-44" data-name="Path" d="M3.638,10.433l-.919,0-1.069,0C-2,5.515,1.539,0,1.539,0A9.559,9.559,0,0,1,4.026,4.561,11.186,11.186,0,0,1,3.638,10.433Z" transform="translate(123.465 22.079)" fill="#fff" opacity="0.21"/>
      <path id="Path-45" data-name="Path" d="M2.29,8.818,0,8.823A11.182,11.182,0,0,0,.387,2.951,11.265,11.265,0,0,1,3.072,0,9.653,9.653,0,0,1,2.29,8.818Z" transform="translate(127.103 23.69)" fill="#fff" opacity="0.1"/>
      <path id="Path-46" data-name="Path" d="M9.078,0A63.975,63.975,0,0,0,6.553,6.726l-5.495.013L0,.022,2,.016H3.072l.919,0L6.282.008Z" transform="translate(123.112 32.501)" fill="#fff" opacity="0.1"/>
      <path id="Path-47" data-name="Path" d="M3.638,10.433l-.919,0-1.069,0C-2,5.515,1.538,0,1.538,0A9.56,9.56,0,0,1,4.026,4.561,11.2,11.2,0,0,1,3.638,10.433Z" transform="translate(92.988 22.018)" fill="#fff" opacity="0.21"/>
      <path id="Path-48" data-name="Path" d="M2.29,8.818,0,8.824A11.182,11.182,0,0,0,.387,2.951,11.263,11.263,0,0,1,3.072,0,9.654,9.654,0,0,1,2.29,8.818Z" transform="translate(96.838 23.628)" fill="#fff" opacity="0.1"/>
      <path id="Path-49" data-name="Path" d="M9.152,0,7.893,6.722l-6.835.016L0,.022,2,.017l1.069,0,.919,0L6.281.007,9.152,0Z" transform="translate(92.851 32.44)" fill="#fff" opacity="0.1"/>
    </g>
    <circle id="Oval" cx="5.768" cy="5.768" r="5.768" transform="translate(137.12 50)" fill="#fff" opacity="0.91"/>
    <circle id="Oval-2" data-name="Oval" cx="1.224" cy="1.224" r="1.224" transform="matrix(0.992, -0.123, 0.123, 0.992, 41.683, 82.887)" fill="#fff" opacity="0.65"/>
    <circle id="Oval-3" data-name="Oval" cx="1.601" cy="1.601" r="1.601" transform="translate(80.696 43.517) rotate(-22.5)" fill="#fff" opacity="0.91"/>
    <path id="Path-50" data-name="Path" d="M.4,0A.4.4,0,1,0,.8.4.4.4,0,0,0,.4,0Z" transform="translate(90.431 47.349)" fill="#fff" opacity="0.79"/>
    <circle id="Oval-4" data-name="Oval" cx="0.801" cy="0.801" r="0.801" transform="translate(47.817 70.567) rotate(-22.5)" fill="#fff"/>
    <circle id="Oval-5" data-name="Oval" cx="0.801" cy="0.801" r="0.801" transform="translate(90.279 86.331) rotate(-13.28)" fill="#fff"/>
    <circle id="Oval-6" data-name="Oval" cx="0.801" cy="0.801" r="0.801" transform="translate(141.715 45.228) rotate(-22.5)" fill="#fff"/>
    <circle id="Oval-7" data-name="Oval" cx="3.735" cy="3.735" r="3.735" transform="translate(146.803 80.805)" fill="#fff" opacity="0.53"/>
    <path id="Path-51" data-name="Path" d="M26.1,20.636A14.1,14.1,0,0,1,10.811,29.08a11.892,11.892,0,0,1-6.268-3.312q-.283-.282-.554-.589a15.637,15.637,0,0,1-2.88-4.815,16.854,16.854,0,0,1,.258-12.67c1.56-3.505,6-6.466,10.42-7.392a11.192,11.192,0,0,1,5.873.18c.072.024.144.05.216.077l.07.027A10.087,10.087,0,0,1,21.6,3.154a17.529,17.529,0,0,1,1.8,2.281q.281.418.542.844C26.566,10.543,28.084,15.821,26.1,20.636Z" transform="translate(54.227 14.549)" fill="#fff"/>
    <path id="Path-52" data-name="Path" d="M26.1,20.636A14.1,14.1,0,0,1,10.811,29.08a11.892,11.892,0,0,1-6.268-3.312q-.283-.282-.554-.589a15.637,15.637,0,0,1-2.88-4.815,16.854,16.854,0,0,1,.258-12.67c1.56-3.505,6-6.466,10.42-7.392a11.192,11.192,0,0,1,5.873.18c.072.024.144.05.216.077l.07.027A10.087,10.087,0,0,1,21.6,3.154a17.529,17.529,0,0,1,1.8,2.281q.281.418.542.844C26.566,10.543,28.084,15.821,26.1,20.636Z" transform="translate(54.227 14.549)" fill="#1f60e5" opacity="0.08"/>
    <path id="Path-53" data-name="Path" d="M11.156,0,9.7,9.522l-.116.749-1.033,6.75L2.308,14.169l-.687-.315L0,13.112c.244-.326,1.873-3.258,1.873-3.258l1.3,1.046.573.457,2.192,1.754V0Z" transform="translate(61.398 18.804)" fill="#003fc3" opacity="0.72"/>
    <g id="Group-6" data-name="Group" transform="translate(62.995 28.079)" opacity="0.42">
      <path id="Shape-2" data-name="Shape" d="M4.46,11.509A5.957,5.957,0,0,1,.114,4.587V4.579h0L.8,4.893A5.212,5.212,0,1,0,8.076,1L8.192.247a5.994,5.994,0,0,1,1.7,1.061A5.944,5.944,0,0,1,5.944,11.7H5.938A5.937,5.937,0,0,1,4.46,11.509ZM1.687,1.637l-.015-.012.046-.046h0A5.93,5.93,0,0,1,4.438,0V.761A5.208,5.208,0,0,0,2.246,2.083Z" transform="translate(0 0)" fill="#003fc3"/>
    </g>
    <path id="Path-54" data-name="Path" d="M16.839.586,14.886,4.254,11.83,9.995,9.108,15.108l-.031.058L7.51,18.11l0,.007L3.433,25.768q-.283-.282-.554-.589A15.637,15.637,0,0,1,0,20.364L10.679.3a11.192,11.192,0,0,1,5.873.18c.072.024.144.05.216.077Z" transform="translate(55.263 14.55)" opacity="0.75" fill="url(#linear-gradient)"/>
    <path id="Path-55" data-name="Path" d="M15.177,2.281l-5.005,9.4-.356.669L7.558,16.592h0l-.7,1.317L5.1,21.216l-.356.669L2.589,25.927A11.942,11.942,0,0,1,0,25.133l2.382-4.474.354-.664,1.7-3.194L8.774,8.65,13.379,0A17.5,17.5,0,0,1,15.177,2.281Z" transform="translate(62.749 17.703)" opacity="0.75" fill="url(#linear-gradient-2)"/>
    <path id="Path-56" data-name="Path" d="M.045.041l.007.01" transform="translate(63.569 68.715)" fill="#512d50"/>
    <path id="Path-57" data-name="Path" d="M.471,0C.313.084.155.174,0,.267A.91.91,0,0,1,.468,0Z" transform="translate(77.102 79.087)" fill="#fe7101" opacity="0.43"/>
    <path id="Path-58" data-name="Path" d="M.06.1A.65.65,0,0,1,0,0Z" transform="translate(77.197 76.283)" fill="#fff"/>
    <path id="Path-59" data-name="Path" d="M5.349.815A3.614,3.614,0,0,1,4.4,2.6a7.1,7.1,0,0,1-1.386.75,8.247,8.247,0,0,1-.759.4,4.084,4.084,0,0,1-2.131.063,3.216,3.216,0,0,1-.06-1.52,2.1,2.1,0,0,1,.323-.6A4.752,4.752,0,0,1,.8,1.2a2.083,2.083,0,0,0,2.85-.4,2.13,2.13,0,0,1,.53-.526A1.626,1.626,0,0,1,4.647.116c.186-.039.365-.077.54-.116A.826.826,0,0,1,5.349.815Z" transform="translate(70.938 79.627)" fill="none"/>
    <path id="Path-60" data-name="Path" d="M.016.1C.029.064.043.033.055,0,.061.064.054.105.016.1Z" transform="translate(72.213 54.755)" fill="#020e49" opacity="0.71"/>
    <path id="Path-61" data-name="Path" d="M8.633.021C7.82.753,0,11.748,0,11.748L2.851,23.964,4.478,27.3,8.631,16.064,10.769,0Z" transform="translate(108.251 53.692)" fill="none"/>
    <path id="Path-62" data-name="Path" d="M1.848,0,0,1.429A8.194,8.194,0,0,1,1.848,0Z" transform="translate(112.76 81.55)" fill="#000060" opacity="0.1"/>
    <circle id="Oval-8" data-name="Oval" cx="1.238" cy="1.238" r="1.238" transform="translate(23.278 92.409) rotate(-14.94)" fill="#ffb200" opacity="0.28"/>
    <circle id="Oval-9" data-name="Oval" cx="1.042" cy="1.042" r="1.042" transform="matrix(0.854, -0.52, 0.52, 0.854, 26.869, 104.468)" fill="#ffb200" opacity="0.57"/>
    <circle id="Oval-10" data-name="Oval" cx="0.684" cy="0.684" r="0.684" transform="matrix(0.663, -0.748, 0.748, 0.663, 36.308, 115.247)" fill="#ffb200" opacity="0.35"/>
    <circle id="Oval-11" data-name="Oval" cx="0.684" cy="0.684" r="0.684" transform="translate(168.511 107.899) rotate(-85.88)" fill="#ffb200" opacity="0.72"/>
    <circle id="Oval-12" data-name="Oval" cx="0.717" cy="0.717" r="0.717" transform="matrix(0.581, -0.814, 0.814, 0.581, 179.004, 100.105)" fill="#ffb200" opacity="0.28"/>
    <circle id="Oval-13" data-name="Oval" cx="0.88" cy="0.88" r="0.88" transform="translate(182.309 83.832) rotate(-44.11)" fill="#ffb200" opacity="0.54"/>
    <g id="Group_33" data-name="Group 33" transform="translate(136.16 81.557)">
      <circle id="Oval-14" data-name="Oval" cx="0.401" cy="0.401" r="0.401" transform="translate(26.471 16.243)" fill="#fff" opacity="0.79"/>
      <path id="Path-63" data-name="Path" d="M8.257,0,8.176,1.4A11.311,11.311,0,0,1,.506,11.462L0,11.633l.139-1.617A11.311,11.311,0,0,1,6.8.652Z" transform="translate(21.22)" fill="#fff"/>
      <path id="Path-64" data-name="Path" d="M0,.886,1.224.494A10.454,10.454,0,0,1,12.392,3.717l.316.374L11.279,4.5A10.454,10.454,0,0,1,1.048,1.914Z" transform="translate(16.874 13.615)" fill="#fff"/>
      <path id="Path-65" data-name="Path" d="M8.257,0,8.176,1.4A11.311,11.311,0,0,1,.506,11.462L0,11.633l.139-1.617A11.311,11.311,0,0,1,6.8.652Z" transform="translate(21.22)" fill="#fff" opacity="0.54"/>
      <path id="Path-66" data-name="Path" d="M0,.886,1.224.494A10.454,10.454,0,0,1,12.392,3.717l.316.374L11.279,4.5A10.454,10.454,0,0,1,1.048,1.914Z" transform="translate(16.874 13.615)" fill="#fff"/>
      <path id="Path-67" data-name="Path" d="M14.175,1.646l-1.1.873A11.311,11.311,0,0,1,.465,3.5L0,3.239l1.3-.974A11.311,11.311,0,0,1,12.716.99Z" transform="translate(25.195 7.01)" fill="#fff"/>
      <path id="Path-68" data-name="Path" d="M14.175,1.646l-1.1.873A11.311,11.311,0,0,1,.465,3.5L0,3.239l1.3-.974A11.311,11.311,0,0,1,12.716.99Z" transform="translate(25.195 7.01)" fill="#fff"/>
      <path id="Path-69" data-name="Path" d="M8.257,0,8.176,1.4A11.311,11.311,0,0,1,.506,11.462L0,11.633l.139-1.617A11.311,11.311,0,0,1,6.8.652Z" transform="translate(21.22)" fill="#fff"/>
      <path id="Path-70" data-name="Path" d="M.254,12.121l.33,1.533.4-.339A12.27,12.27,0,0,0,4.838,7.249a.016.016,0,0,0,0-.007,11.81,11.81,0,0,0,.12-5.927L4.638,0,3.527,1.127A12.237,12.237,0,0,0,.254,12.121Z" transform="translate(12.411 3.951)" fill="#fff"/>
      <path id="Path-71" data-name="Path" d="M0,.889l1.046,1.03A10.447,10.447,0,0,0,11.28,4.507l1.428-.414-.316-.375A10.456,10.456,0,0,0,5.037.02h0A10.382,10.382,0,0,0,1.225.5Z" transform="translate(16.874 13.613)" fill="#fff"/>
      <g id="Group-7" data-name="Group" transform="translate(9.862 8.255)" opacity="0.78">
        <path id="Path-72" data-name="Path" d="M0,13.867l.328.028a17.386,17.386,0,0,1,1.58-2.623c.069-.1.139-.191.212-.285A19.66,19.66,0,0,1,3.747,9.1,23.6,23.6,0,0,1,7.065,6.3c.064-.046.128-.09.194-.133a32.394,32.394,0,0,1,6.275-3.331c.293-.118.581-.232.87-.34q.563-.212,1.107-.4h0c.455-.157.9-.3,1.328-.433A38.991,38.991,0,0,1,22.663.31.155.155,0,1,0,22.624,0a39.173,39.173,0,0,0-5.756,1.328q-.555.17-1.14.365l-.339.116q-.479.165-.973.349t-.991.384s0,0-.005,0q-.748.3-1.463.628A30.4,30.4,0,0,0,5.914,6.755q-.436.338-.848.688-.7.595-1.331,1.224-.316.314-.615.638A19.911,19.911,0,0,0,1.765,10.94q-.107.144-.21.29A17.919,17.919,0,0,0,0,13.852a.089.089,0,0,0,0,.015Z" transform="translate(0 0)" fill="#fe7101"/>
      </g>
      <path id="Path-73" data-name="Path" d="M8.256,0,8.175,1.4A11.311,11.311,0,0,1,.506,11.462L0,11.633l.138-1.617A11.311,11.311,0,0,1,6.8.652Z" transform="translate(21.21 0.298)" fill="#fe7101" opacity="0.69"/>
      <path id="Path-74" data-name="Path" d="M.254,11.8l.33,1.533.4-.339A12.27,12.27,0,0,0,4.838,6.926a.016.016,0,0,0,0-.007,12.558,12.558,0,0,0-.074-5.51L4.422,0,3.233,1.207A12.9,12.9,0,0,0,2.3,2.268,12.155,12.155,0,0,0,.254,11.8Z" transform="translate(12.411 4.274)" fill="#fe7101" opacity="0.44"/>
      <path id="Path-75" data-name="Path" d="M0,.888l1.046,1.03a9.542,9.542,0,0,0,9.714,2.57l1.428-.414L11.873,3.7A10.456,10.456,0,0,0,4.518,0h0a10.382,10.382,0,0,0-3.29.494Z" transform="translate(17.393 13.632)" fill="#fe7101" opacity="0.43"/>
      <path id="Path-76" data-name="Path" d="M14.175,1.646l-1.1.873A11.311,11.311,0,0,1,.465,3.5L0,3.239l1.3-.974A11.311,11.311,0,0,1,12.716.99Z" transform="translate(25.195 7.01)" fill="#fff"/>
      <path id="Path-77" data-name="Path" d="M14.175,1.646l-1.1.873A11.311,11.311,0,0,1,.465,3.5L0,3.239l1.3-.974A11.311,11.311,0,0,1,12.716.99Z" transform="translate(25.195 7.01)" fill="#fe7101" opacity="0.45"/>
      <path id="Path-78" data-name="Path" d="M19.152,4.067a.189.189,0,0,1-.163-.062,10.274,10.274,0,0,0-1.25-1.185C14.344.111,9.78.137,6.548.637A27.717,27.717,0,0,0,.266,2.4a.189.189,0,0,1-.155-.345A28.224,28.224,0,0,1,6.489.264c3.305-.509,7.98-.533,11.484,2.261a10.676,10.676,0,0,1,1.3,1.228.189.189,0,0,1-.015.266.191.191,0,0,1-.1.047Z" transform="translate(7.449 19.899)" fill="#fff"/>
      <path id="Path-79" data-name="Path" d="M7.412,7.828A8.223,8.223,0,0,0,.025,0S-.82,6.177,7.412,7.828Z" transform="translate(11.372 20.726)" fill="#fff"/>
      <path id="Path-80" data-name="Path" d="M9.434.167A8.223,8.223,0,0,0,0,5.348S5.767,7.721,9.434.167Z" transform="translate(16.749 14.544)" fill="#fff"/>
      <path id="Path-81" data-name="Path" d="M.167.094c.1-.523,7.1,1,5.789,8.05C5.955,8.143-1.169,6.889.167.094Z" transform="translate(23.762 22.597)" fill="#fff"/>
      <g id="Group-8" data-name="Group" transform="translate(7.449 14.544)" opacity="0.78">
        <path id="Path-82" data-name="Path" d="M19.152,4.067a.189.189,0,0,1-.163-.062,10.274,10.274,0,0,0-1.25-1.185C14.344.111,9.78.137,6.548.637A27.717,27.717,0,0,0,.266,2.4a.189.189,0,0,1-.155-.345A28.224,28.224,0,0,1,6.489.264c3.305-.509,7.98-.533,11.484,2.261a10.676,10.676,0,0,1,1.3,1.228.189.189,0,0,1-.015.266.191.191,0,0,1-.1.047Z" transform="translate(0 5.355)" fill="#fe7101"/>
        <g id="Group-9" data-name="Group" transform="translate(3.924 6.182)" opacity="0.61">
          <path id="Path-83" data-name="Path" d="M7.412,7.828A8.223,8.223,0,0,0,.025,0S-.82,6.177,7.412,7.828Z" transform="translate(0 0)" fill="#fe7101"/>
        </g>
        <path id="Path-84" data-name="Path" d="M9.434.167A8.223,8.223,0,0,0,0,5.348S5.767,7.721,9.434.167Z" transform="translate(9.3 0)" fill="#fe7101"/>
        <g id="Group-10" data-name="Group" transform="translate(16.165 6.813)" opacity="0.42">
          <path id="Path-85" data-name="Path" d="M.167.094c.1-.523,7.1,1,5.789,8.05C5.956,8.143-1.169,6.889.167.094Z" transform="translate(0 0)" fill="#fe7101"/>
        </g>
      </g>
      <path id="Path-86" data-name="Path" d="M10.969.681c.009.071.017.148.026.229a33.644,33.644,0,0,1,.15,5.41c-.014.216-.031.433-.052.648h0c-.007.081-.015.16-.024.239-.015.135-.031.271-.048.4a12.357,12.357,0,0,1-.42,2.012c-.012.035-.022.069-.034.1q-1.23.205-2.475.328h0q-.116.007-.232.011-.182.009-.365.015H7.462l-.285.01-.213.006-.3.006c-.265.006-.529.008-.792.009H5.614c-.1,0-.2,0-.3,0H5.258c-.02.043-.041.085-.06.127a.522.522,0,0,0-.056,0c.02-.043.041-.086.061-.13-.127,0-.253,0-.379-.005-.1,0-.206,0-.308-.007l-.331-.009c-.077,0-.155-.005-.232-.008q-.167-.005-.334-.013C2.363,10.012,1.16,9.915.044,9.787A.322.322,0,0,1,0,9.782,15.722,15.722,0,0,1,10.885,0s.012.077.031.223l.011.093C10.939.413,10.952.534,10.969.681Z" transform="translate(0 13.562)" fill="#fff"/>
      <path id="Path-87" data-name="Path" d="M5.827.458c.009.071.017.148.026.229A33.644,33.644,0,0,1,6,6.1c-.014.216-.031.433-.052.648h0c-.007.081-.015.16-.024.239-.015.135-.031.271-.048.4A12.357,12.357,0,0,1,5.458,9.4c-.012.035-.022.069-.034.1q-1.23.205-2.475.328h0q-.116.007-.232.011-.182.009-.365.015H2.32l-.285.01-.213.006-.3.006c-.265.006-.529.008-.792.009H.472c-.1,0-.2,0-.3,0H.116c-.02.043-.041.085-.06.127a.522.522,0,0,0-.056,0c.02-.043.041-.086.061-.13A75.006,75.006,0,0,1,5.773,0h0l.011.093C5.8.189,5.81.311,5.827.458Z" transform="translate(5.142 13.785)" fill="#fff" opacity="0.56"/>
      <g id="Group-11" data-name="Group" transform="translate(0.044 13.653)" opacity="0.67">
        <path id="Path-88" data-name="Path" d="M10.925.591c.009.071.017.148.026.229A33.9,33.9,0,0,1,11.12,6.2c-.013.213-.029.426-.048.639-.008.091-.017.182-.026.271-.014.135-.029.271-.046.4a12.556,12.556,0,0,1-.433,2.111c-.012.035-.022.069-.034.1q-.337.057-.674.105h0l-.277.025-.017,0-.305.025-.373.027c-.211.015-.42.028-.63.039-.069,0-.137.008-.206.01h0q-.116.007-.232.011-.182.009-.365.015H7.419L7.133,10,6.92,10l-.3.006c-.265.006-.529.008-.792.009H5.57c-.1,0-.2,0-.3,0H5.214c-.02.043-.041.085-.06.127a.522.522,0,0,0-.056,0c.02-.043.041-.086.061-.13-.127,0-.253,0-.379-.005-.1,0-.206,0-.308-.007l-.331-.009c-.077,0-.155-.005-.232-.008q-.167-.005-.334-.013C2.32,9.919,1.116,9.822,0,9.695A15.72,15.72,0,0,1,10.853,0s.007.045.019.131c0,.019,0,.039.008.059l0,.033C10.9.322,10.908.444,10.925.591Z" transform="translate(0 0)" fill="#ffb600"/>
      </g>
      <path id="Path-89" data-name="Path" d="M5.711.367c.009.071.017.148.026.229a33.9,33.9,0,0,1,.169,5.381c-.013.213-.029.426-.048.639-.008.091-.017.182-.026.271-.014.135-.029.271-.046.4A12.556,12.556,0,0,1,5.353,9.4c-.012.035-.022.069-.034.1q-.337.057-.674.105h0l-.277.025-.017,0-.305.025-.373.027c-.211.015-.42.028-.63.039-.069,0-.137.008-.206.01h0q-.116.007-.232.011-.182.009-.365.015H2.2l-.285.01-.213.006-.3.006C1.137,9.793.873,9.8.61,9.8H.356c-.1,0-.2,0-.3,0H0A75.243,75.243,0,0,1,5.67,0C5.682.1,5.694.22,5.711.367Z" transform="translate(5.258 13.876)" fill="#fe7101" opacity="0.5"/>
    </g>
    <g id="Group_32" data-name="Group 32" transform="translate(22.133 84.662)">
      <circle id="Oval-15" data-name="Oval" cx="5.455" cy="5.455" r="5.455" transform="translate(20.676 7.715) rotate(-45)" fill="#fff" opacity="0.91"/>
      <path id="Path-90" data-name="Path" d="M.034,0l.02.029a.28.28,0,0,0,0,.032Z" transform="translate(28.39 5.649)" fill="#fe7101" opacity="0.68"/>
      <path id="Path-91" data-name="Path" d="M0,.609Q.687.305,1.367,0,.688.306,0,.609Z" transform="translate(36.564 25.386)" fill="#fe7101" opacity="0.68"/>
      <path id="Path-92" data-name="Path" d="M18.421.953h0l-.408.143-.039.014h0s0,0,0,0c-.085-.025-.189-.055-.31-.088S17.387.95,17.223.909L17.161.894A21.253,21.253,0,0,0,12.8.316c-.468-.012-.954-.008-1.45.02A16.115,16.115,0,0,0,9.075.62c-.116.023-.232.047-.346.074h0a13.517,13.517,0,0,0-2.251.713,12.355,12.355,0,0,0-1.766.906q-.235.146-.469.307a11.892,11.892,0,0,0-.991.759A13.082,13.082,0,0,0,.288,7.058a.155.155,0,0,1-.116.077H.162a.149.149,0,0,1-.083-.018.143.143,0,0,1-.057-.056.155.155,0,0,1,0-.153,13.668,13.668,0,0,1,2.828-3.6A12.177,12.177,0,0,1,5.3,1.6a12.605,12.605,0,0,1,1.247-.573A13.68,13.68,0,0,1,8.494.425C8.61.4,8.726.371,8.842.347a16.448,16.448,0,0,1,2.5-.322C11.706.006,12.066,0,12.418,0a21.331,21.331,0,0,1,4.548.531L17.254.6,17.5.66c.112.029.215.056.306.081.345.1.539.161.546.163A.157.157,0,0,1,18.421.953Z" transform="translate(18.541 22.846)" fill="#fff"/>
      <path id="Path-93" data-name="Path" d="M4.7,0,3.861.5A7.947,7.947,0,0,0,.087,8.493l.055.368L1.1,8.254A7.947,7.947,0,0,0,4.76,1.117Z" transform="translate(14.167 29.476)" fill="#fff"/>
      <path id="Path-94" data-name="Path" d="M2.381,0,1.766.759a7.946,7.946,0,0,0-.8,8.8l.178.327.687-.9a7.948,7.948,0,0,0,.987-7.961Z" transform="translate(20.797 24.98)" fill="#fff"/>
      <path id="Path-95" data-name="Path" d="M2.381,0,1.766.759a7.946,7.946,0,0,0-.8,8.8l.178.327.687-.9a7.948,7.948,0,0,0,.987-7.961Z" transform="translate(20.797 24.98)" fill="#fe7101" opacity="0.34"/>
      <g id="Group-12" data-name="Group" transform="translate(18.541 22.846)" opacity="0.21">
        <path id="Path-96" data-name="Path" d="M18.421.953h0l-.408.143-.039.014h0s0,0,0,0c-.085-.025-.189-.055-.31-.088S17.387.95,17.223.909L17.161.894A21.253,21.253,0,0,0,12.8.316c-.468-.012-.954-.008-1.45.02A16.115,16.115,0,0,0,9.075.62c-.116.023-.232.047-.346.074h0a13.517,13.517,0,0,0-2.251.713,12.355,12.355,0,0,0-1.766.906q-.235.146-.469.307a11.892,11.892,0,0,0-.991.759A13.082,13.082,0,0,0,.288,7.058a.155.155,0,0,1-.116.077H.162a.149.149,0,0,1-.083-.018.143.143,0,0,1-.057-.056.155.155,0,0,1,0-.153,13.668,13.668,0,0,1,2.828-3.6A12.177,12.177,0,0,1,5.3,1.6a12.605,12.605,0,0,1,1.247-.573A13.68,13.68,0,0,1,8.494.425C8.61.4,8.726.371,8.842.347a16.448,16.448,0,0,1,2.5-.322C11.706.006,12.066,0,12.418,0a21.331,21.331,0,0,1,4.548.531L17.254.6,17.5.66c.112.029.215.056.306.081.345.1.539.161.546.163A.157.157,0,0,1,18.421.953Z" transform="translate(0 0)" fill="#fe7101"/>
      </g>
      <path id="Path-97" data-name="Path" d="M4.7,0,3.861.5A7.947,7.947,0,0,0,.087,8.493l.055.368L1.1,8.254A7.947,7.947,0,0,0,4.76,1.117Z" transform="translate(14.167 29.476)" fill="#fe7101" opacity="0.56"/>
      <path id="Path-98" data-name="Path" d="M23.571,11.417l-.4-.049A17.3,17.3,0,0,0,21.761,9.5h0c-.077-.091-.155-.18-.235-.267A19.64,19.64,0,0,0,19.745,7.49,23.622,23.622,0,0,0,16.2,4.978c-.068-.041-.134-.079-.2-.116h0a32.55,32.55,0,0,0-6.528-2.8c-.3-.093-.6-.182-.9-.266-.385-.109-.765-.211-1.136-.3h0c-.465-.12-.92-.226-1.359-.322-.165-.036-.328-.071-.489-.1A38.676,38.676,0,0,0,.166.309.155.155,0,1,1,.179,0,38.527,38.527,0,0,1,5.466.727l.56.116c.379.083.768.171,1.168.271h0c.116.027.229.056.346.086q.33.083.669.176c.11.029.22.06.33.091q.5.14,1.018.3h.005q.77.239,1.511.5h0c.205.074.409.148.611.225a29.75,29.75,0,0,1,5.708,2.836q.465.3.9.614h0q.747.535,1.426,1.108.342.287.666.584a20.069,20.069,0,0,1,1.487,1.517q.119.135.232.271a18.133,18.133,0,0,1,1.464,1.99Z" transform="translate(6.65 16.645)" fill="#fff"/>
      <path id="Path-99" data-name="Path" d="M0,0,.2,1.388a11.309,11.309,0,0,0,8.483,9.385L9.2,10.9,8.927,9.3A11.311,11.311,0,0,0,1.511.528Z" transform="translate(9.135 8.165)" fill="#fff"/>
      <path id="Path-100" data-name="Path" d="M12.4.552,11.142.264A10.455,10.455,0,0,0,.283,4.408L0,4.808,1.458,5.1a10.456,10.456,0,0,0,9.979-3.436Z" transform="translate(10.51 21.009)" fill="#fff"/>
      <path id="Path-101" data-name="Path" d="M0,0,.2,1.388a11.309,11.309,0,0,0,8.483,9.385L9.2,10.9,8.927,9.3A11.311,11.311,0,0,0,1.511.528Z" transform="translate(9.135 8.165)" fill="#fff" opacity="0.54"/>
      <path id="Path-102" data-name="Path" d="M12.4.552,11.142.264A10.455,10.455,0,0,0,.283,4.408L0,4.808,1.458,5.1a10.456,10.456,0,0,0,9.979-3.436Z" transform="translate(10.51 21.009)" fill="#fff"/>
      <path id="Path-103" data-name="Path" d="M0,2.188l1.168.778A11.311,11.311,0,0,0,13.82,2.892l.44-.3-1.375-.863A11.311,11.311,0,0,0,1.4,1.413Z" transform="translate(0 15.428)" fill="#fff"/>
      <path id="Path-104" data-name="Path" d="M0,2.188l1.168.778A11.311,11.311,0,0,0,13.82,2.892l.44-.3-1.375-.863A11.311,11.311,0,0,0,1.4,1.413Z" transform="translate(0 15.428)" fill="#fff"/>
      <path id="Path-105" data-name="Path" d="M0,0,.2,1.388a11.309,11.309,0,0,0,8.483,9.385L9.2,10.9,8.927,9.3A11.311,11.311,0,0,0,1.511.528Z" transform="translate(9.135 8.165)" fill="#fff"/>
      <path id="Path-106" data-name="Path" d="M5.726,11.713l-.2,1.555-.426-.3A12.265,12.265,0,0,1,.751,7.24a.026.026,0,0,1,0-.007,11.81,11.81,0,0,1-.614-5.9L.343,0l1.2,1.03A12.082,12.082,0,0,1,2.893,2.386,12.151,12.151,0,0,1,5.726,11.713Z" transform="translate(21.505 11.064)" fill="#fff"/>
      <path id="Path-107" data-name="Path" d="M12.4.553l-.958,1.114A10.449,10.449,0,0,1,1.458,5.1L0,4.809l.283-.4A10.444,10.444,0,0,1,11.139.265Z" transform="translate(10.51 21.008)" fill="#fff"/>
      <g id="Group-13" data-name="Group" transform="translate(6.65 16.645)" opacity="0.32">
        <path id="Path-108" data-name="Path" d="M23.571,11.417l-.4-.049A17.3,17.3,0,0,0,21.761,9.5h0c-.077-.091-.155-.18-.235-.267A19.64,19.64,0,0,0,19.745,7.49,23.622,23.622,0,0,0,16.2,4.978c-.068-.041-.134-.079-.2-.116h0a32.55,32.55,0,0,0-6.528-2.8c-.3-.093-.6-.182-.9-.266-.385-.109-.765-.211-1.136-.3h0c-.465-.12-.92-.226-1.359-.322-.165-.036-.328-.071-.489-.1A38.676,38.676,0,0,0,.166.309.155.155,0,1,1,.179,0,38.527,38.527,0,0,1,5.466.727l.56.116c.379.083.768.171,1.168.271h0c.116.027.229.056.346.086q.33.083.669.176c.11.029.22.06.33.091q.5.14,1.018.3h.005q.77.239,1.511.5h0c.205.074.409.148.611.225a29.75,29.75,0,0,1,5.708,2.836q.465.3.9.614h0q.747.535,1.426,1.108.342.287.666.584a20.069,20.069,0,0,1,1.487,1.517q.119.135.232.271a18.133,18.133,0,0,1,1.464,1.99Z" transform="translate(0 0)" fill="#fe7101"/>
      </g>
      <path id="Path-109" data-name="Path" d="M0,0,.2,1.389a11.311,11.311,0,0,0,8.483,9.385L9.2,10.9,8.928,9.3A11.311,11.311,0,0,0,1.511.528Z" transform="translate(9.17 8.461)" fill="#fe7101" opacity="0.56"/>
      <path id="Path-110" data-name="Path" d="M5.508,11.41l-.2,1.555-.426-.3A12.265,12.265,0,0,1,.533,6.938a.026.026,0,0,1,0-.007,12.562,12.562,0,0,1-.387-5.5L.367,0,1.652,1.1a12.927,12.927,0,0,1,1.022.979A12.153,12.153,0,0,1,5.508,11.41Z" transform="translate(21.723 11.366)" fill="#fe7101" opacity="0.27"/>
      <path id="Path-111" data-name="Path" d="M11.879.552l-.958,1.114A10.465,10.465,0,0,1,4.494,5.2,10.369,10.369,0,0,1,1.458,5.04L0,4.747l.283-.4A10.459,10.459,0,0,1,7.3.047a10.384,10.384,0,0,1,3.319.218Z" transform="translate(10.51 21.072)" fill="#fe7101" opacity="0.56"/>
      <path id="Path-112" data-name="Path" d="M0,2.188l1.168.778A11.311,11.311,0,0,0,13.82,2.892l.44-.3-1.375-.863A11.311,11.311,0,0,0,1.4,1.413Z" transform="translate(0 15.428)" fill="#fff"/>
      <path id="Path-113" data-name="Path" d="M0,2.188l1.168.778A11.311,11.311,0,0,0,13.82,2.892l.44-.3-1.375-.863A11.311,11.311,0,0,0,1.4,1.413Z" transform="translate(0 15.428)" fill="#ff7100" opacity="0.9"/>
      <path id="Path-114" data-name="Path" d="M8.592,10.114q.124.321.232.641c.149.437.281.872.39,1.305l.052.215c.019.085.039.17.055.255.012.056.024.11.034.165.024.121.047.242.066.362q.009.043.015.087c.007.039.012.077.018.116.009.058.018.116.024.172.014.1.025.2.034.294,0,.039.009.077.012.119.005.059.009.116.014.173,0,.022,0,.045.005.066.005.084.009.169.012.252-.1.056-.194.11-.289.165l-.352.2c-.1.057-.2.116-.3.17l-.086.048-.005,0q-.367.206-.736.409l-.239.132-.239.132L7.3,15.6l-.255.138h0l-.711.387-.087-.03q-1.416.647-2.867,1.212l-.039-.05h0l-.067-.1q-.12-.169-.246-.357c-.3-.441-.62-.957-.938-1.54-.052-.092-.1-.186-.152-.282a18.2,18.2,0,0,1-.863-1.893h0c-.1-.264-.2-.537-.292-.813v0A15.548,15.548,0,0,1,.148,9.626h0C.141,9.582.135,9.537.129,9.492v0A13.738,13.738,0,0,1,.117,5.824q.064-.483.165-.975h0V4.837c.048-.229.1-.456.163-.687h0c.039-.15.082-.3.128-.454.124-.412.269-.828.439-1.248A15.87,15.87,0,0,1,2.261,0a43.165,43.165,0,0,1,2.7,3.525A32.289,32.289,0,0,1,8.592,10.114Z" transform="translate(34.34 8.195)" fill="#fff"/>
      <path id="Path-115" data-name="Path" d="M8.592,10.114q.124.321.232.641c.149.437.281.872.39,1.305l.052.215c.019.085.039.17.055.255.012.056.024.11.034.165.024.121.047.242.066.362q.009.043.015.087c.007.039.012.077.018.116.009.058.018.116.024.172.014.1.025.2.034.294,0,.039.009.077.012.119.005.059.009.116.014.173,0,.022,0,.045.005.066.005.084.009.169.012.252-.1.056-.194.11-.289.165l-.352.2c-.1.057-.2.116-.3.17l-.086.048-.005,0q-.367.206-.736.409l-.239.132-.239.132L7.3,15.6l-.255.138h0l-.711.387-.087-.03q-1.416.647-2.867,1.212l-.039-.05h0l-.067-.1q-.12-.169-.246-.357c-.3-.441-.62-.957-.938-1.54-.052-.092-.1-.186-.152-.282a18.2,18.2,0,0,1-.863-1.893h0c-.1-.264-.2-.537-.292-.813v0A15.548,15.548,0,0,1,.148,9.626h0C.141,9.582.135,9.537.129,9.492v0A13.738,13.738,0,0,1,.117,5.824q.064-.483.165-.975h0V4.837c.048-.229.1-.456.163-.687h0c.039-.15.082-.3.128-.454.124-.412.269-.828.439-1.248A15.87,15.87,0,0,1,2.261,0a43.165,43.165,0,0,1,2.7,3.525A32.289,32.289,0,0,1,8.592,10.114Z" transform="translate(34.34 8.195)" fill="#ffb600" opacity="0.36"/>
      <path id="Path-116" data-name="Path" d="M9.355,7.858c.024.121.047.242.066.362q.009.043.015.087c.007.039.012.077.018.116.009.058.018.116.024.172.014.1.025.2.034.294,0,.039.009.077.012.119.005.059.009.116.014.173,0,.022,0,.045.005.066.005.084.009.169.012.252-.1.056-.194.11-.289.165l-.352.2c-.1.057-.2.116-.3.17l-.086.048-.005,0q-.367.206-.736.409l-.239.132-.239.132-.01.005L7.04,10.9h0l-.711.387-.087-.03Q4.826,11.9,3.375,12.47l-.039-.05h0l-.067-.1q-.12-.169-.246-.357c-.3-.441-.62-.957-.938-1.54-.052-.092-.1-.186-.152-.282A18.2,18.2,0,0,1,1.07,8.252h0c-.1-.264-.2-.537-.292-.813v0A15.548,15.548,0,0,1,.148,4.789h0C.141,4.745.135,4.7.129,4.655v0A13.738,13.738,0,0,1,.117.987Q.181.5.283.012h0V0C.362.039.44.081.518.123A.538.538,0,0,1,.572.15C.683.21.792.269.9.332s.245.14.367.215c.05.029.1.057.147.088A21.957,21.957,0,0,1,3.445,2.052c.155.119.306.24.454.363l.116.093.295.247h0c.139.116.279.236.417.358.1.087.2.175.3.264a43.618,43.618,0,0,1,3.36,3.382c.112.124.224.249.333.374C8.936,7.372,9.15,7.617,9.355,7.858Z" transform="translate(34.341 13.032)" fill="#ffb600" opacity="0.67"/>
      <path id="Path-117" data-name="Path" d="M16.621,12.258l-.086.048-.005,0q-.367.206-.736.409l-.239.132-.239.132-.01.005-.255.138h0l-.711.387-.087-.03q-1.416.647-2.867,1.212-1.162.452-2.341.844-.267-.1-.542-.216a10.616,10.616,0,0,1-1.65-.858c-.144-.092-.284-.187-.423-.285-.091-.065-.18-.13-.268-.2s-.185-.141-.274-.214C.292,9.265,0,.041,0,.041L.155.025l.1-.007L.411.008C.512,0,.614,0,.717,0H.872C.949,0,1.027,0,1.1.009L1.22.015l.116.01L1.491.04l.081.009L1.666.06c.045.007.09.012.134.02s.07.01.1.016l.063.011c.089.015.177.032.266.051l.12.026c.129.028.257.06.387.094.059.015.116.033.177.05S3.037.363,3.1.38c.178.055.357.116.535.183.06.022.119.044.179.068.086.033.172.068.258.1q.085.034.168.071l.036.015.184.083c.217.1.435.206.654.32.072.039.143.076.215.116.089.047.178.1.267.148q.257.146.513.3c.171.1.343.213.513.325s.34.227.509.346.338.24.5.365.336.251.5.381.3.241.454.363l.116.093c.1.082.2.163.294.246H9q.209.177.418.358a43.146,43.146,0,0,1,3.657,3.646C14.467,9.47,15.683,11.006,16.621,12.258Z" transform="translate(26.33 10.806)" fill="#fff"/>
      <path id="Path-118" data-name="Path" d="M16.621,12.258l-.086.048-.005,0q-.367.206-.736.409l-.239.132-.239.132-.01.005-.255.138h0l-.711.387-.087-.03q-1.416.647-2.867,1.212-1.162.452-2.341.844-.267-.1-.542-.216a10.616,10.616,0,0,1-1.65-.858c-.144-.092-.284-.187-.423-.285-.091-.065-.18-.13-.268-.2s-.185-.141-.274-.214C.292,9.265,0,.041,0,.041L.155.025l.1-.007L.411.008C.512,0,.614,0,.717,0H.872C.949,0,1.027,0,1.1.009L1.22.015l.116.01L1.491.04l.081.009L1.666.06c.045.007.09.012.134.02s.07.01.1.016l.063.011c.089.015.177.032.266.051l.12.026c.129.028.257.06.387.094.059.015.116.033.177.05S3.037.363,3.1.38c.178.055.357.116.535.183.06.022.119.044.179.068.086.033.172.068.258.1q.085.034.168.071l.036.015.184.083c.217.1.435.206.654.32.072.039.143.076.215.116.089.047.178.1.267.148q.257.146.513.3c.171.1.343.213.513.325s.34.227.509.346.338.24.5.365.336.251.5.381.3.241.454.363l.116.093c.1.082.2.163.294.246H9q.209.177.418.358a43.146,43.146,0,0,1,3.657,3.646C14.467,9.47,15.683,11.006,16.621,12.258Z" transform="translate(26.33 10.806)" fill="#ffb600" opacity="0.44"/>
      <path id="Path-119" data-name="Path" d="M16.365,12.255l-.086.048-.005,0q-.367.206-.736.409l-.239.132-.256.14-.248.136h0l-.711.387L14,13.481a14.3,14.3,0,0,1-2.484-1.145c-.14-.079-.279-.162-.416-.245a21.354,21.354,0,0,1-2.27-1.616A44.558,44.558,0,0,1,0,.016L.155.007H.184Q.308,0,.433,0H.616C.693,0,.771,0,.848.009L.965.015l.116.01L1.236.04l.081.009L1.411.06c.045.007.09.012.134.02s.07.01.1.016l.063.011c.089.015.177.032.266.051L2.1.183c.129.028.257.06.387.094.059.015.116.033.177.05s.119.036.178.053c.178.055.357.116.535.183.06.022.119.044.179.068.086.033.172.068.258.1Q3.9.77,3.98.807l.036.015L4.2.905c.217.1.435.206.654.32.072.039.143.076.215.116.089.047.178.1.267.148q.257.146.513.3c.171.1.343.213.513.325s.34.227.509.346.338.24.5.365.336.251.5.381.3.241.454.363l.116.093c.1.082.2.163.294.246h0q.209.177.418.358a43.146,43.146,0,0,1,3.657,3.646C14.211,9.467,15.427,11,16.365,12.255Z" transform="translate(26.586 10.81)" fill="#fff"/>
      <path id="Path-120" data-name="Path" d="M16.365,12.255l-.086.048-.005,0q-.367.206-.736.409l-.239.132-.256.14-.248.136h0l-.711.387L14,13.481a14.3,14.3,0,0,1-2.484-1.145c-.14-.079-.279-.162-.416-.245a21.354,21.354,0,0,1-2.27-1.616A44.558,44.558,0,0,1,0,.016L.155.007H.184Q.308,0,.433,0H.616C.693,0,.771,0,.848.009L.965.015l.116.01L1.236.04l.081.009L1.411.06c.045.007.09.012.134.02s.07.01.1.016l.063.011c.089.015.177.032.266.051L2.1.183c.129.028.257.06.387.094.059.015.116.033.177.05s.119.036.178.053c.178.055.357.116.535.183.06.022.119.044.179.068.086.033.172.068.258.1Q3.9.77,3.98.807l.036.015L4.2.905c.217.1.435.206.654.32.072.039.143.076.215.116.089.047.178.1.267.148q.257.146.513.3c.171.1.343.213.513.325s.34.227.509.346.338.24.5.365.336.251.5.381.3.241.454.363l.116.093c.1.082.2.163.294.246h0q.209.177.418.358a43.146,43.146,0,0,1,3.657,3.646C14.211,9.467,15.427,11,16.365,12.255Z" transform="translate(26.586 10.81)" fill="#ffb600" opacity="0.29"/>
    </g>
    <g id="Group_17" data-name="Group 17" transform="translate(59.916 35.378)">
      <g id="Background_Simple" data-name="Background Simple" transform="translate(7.38 0)">
        <g id="Group_17-2" data-name="Group 17" transform="translate(0 0)">
          <path id="Path_40" data-name="Path 40" d="M132.353,80.011C122.931,89.759,118,90.463,106.064,95.856c-9.76,4.409-19.425,12.978-22.721,23.656-8.685,28.129,29.918,31.647,48.145,27.055,12.833-3.233,17.967-10.679,21.217-23.032,1.264-4.8,1.633-10,3.714-14.572,2.237-4.912,6.817-7.3,9.1-11.616C176.567,76.443,144.912,67.017,132.353,80.011Z" transform="translate(-82.088 -74.063)" fill="#fff" opacity="0.47"/>
        </g>
      </g>
      <g id="Window" transform="translate(0 8.222)">
        <g id="Group_24" data-name="Group 24" transform="translate(0 0)">
          <g id="Group_23" data-name="Group 23">
            <g id="Group_18" data-name="Group 18">
              <path id="Path_41" data-name="Path 41" d="M52.3,108.8a1.56,1.56,0,0,1,1.555-1.555h69.43a1.56,1.56,0,0,1,1.556,1.555v5.008H52.3Z" transform="translate(-52.301 -107.247)" fill="#263238"/>
              <path id="Path_42" data-name="Path 42" d="M99.077,117.816a1.314,1.314,0,1,1,1.314-1.314A1.316,1.316,0,0,1,99.077,117.816Zm0-2.353a1.039,1.039,0,1,0,1.038,1.038A1.04,1.04,0,0,0,99.077,115.464Z" transform="translate(-86.499 -113.221)" fill="#f0f0f0"/>
              <path id="Path_43" data-name="Path 43" d="M82.255,117.816a1.314,1.314,0,1,1,1.314-1.314A1.316,1.316,0,0,1,82.255,117.816Zm0-2.353a1.039,1.039,0,1,0,1.038,1.038A1.04,1.04,0,0,0,82.255,115.464Z" transform="translate(-73.845 -113.221)" fill="#f0f0f0"/>
              <path id="Path_44" data-name="Path 44" d="M65.433,117.816a1.314,1.314,0,1,1,1.314-1.314A1.315,1.315,0,0,1,65.433,117.816Zm0-2.353a1.039,1.039,0,1,0,1.039,1.038A1.04,1.04,0,0,0,65.433,115.464Z" transform="translate(-61.191 -113.221)" fill="#f0f0f0"/>
              <path id="Path_45" data-name="Path 45" d="M123.286,181.515H53.856a1.56,1.56,0,0,1-1.555-1.556V133.736h72.541v46.223A1.56,1.56,0,0,1,123.286,181.515Z" transform="translate(-52.301 -127.173)" fill="#1f60e5"/>
              <rect id="Rectangle_4" data-name="Rectangle 4" width="71.66" height="40.964" transform="translate(0.441 7.894)" fill="#fff"/>
              <rect id="Rectangle_5" data-name="Rectangle 5" width="29.184" height="5.533" rx="2.767" transform="translate(3.952 11.405)" fill="#1f60e5"/>
              <path id="Path_46" data-name="Path 46" d="M239.581,153.527a.7.7,0,0,1,.7.7v3.645a.7.7,0,0,1-.7.7h-27.3a.7.7,0,0,1-.7-.7v-3.645a.7.7,0,0,1,.7-.7h27.3m0-.248h-27.3a.944.944,0,0,0-.944.944v3.645a.944.944,0,0,0,.944.944h27.3a.944.944,0,0,0,.944-.944v-3.645a.944.944,0,0,0-.944-.944Z" transform="translate(-171.936 -141.874)" fill="#407bff"/>
            </g>
            <g id="Group_20" data-name="Group 20" transform="translate(3.952 19.169)">
              <g id="Group_19" data-name="Group 19">
                <path id="Path_47" data-name="Path 47" d="M73.1,184.861a4.6,4.6,0,1,1-4.6,4.6,4.609,4.609,0,0,1,4.6-4.6m0-.248a4.851,4.851,0,1,0,4.851,4.851,4.851,4.851,0,0,0-4.851-4.851Z" transform="translate(-68.252 -184.613)" fill="#407bff"/>
                <path id="Path_48" data-name="Path 48" d="M80.665,208.651a4,4,0,0,1-7.04,0,6.341,6.341,0,0,1,7.04,0Z" transform="translate(-72.294 -201.893)" fill="#407bff" opacity="0.4"/>
                <circle id="Ellipse_6" data-name="Ellipse 6" cx="1.783" cy="1.783" r="1.783" transform="translate(3.068 1.698)" fill="#407bff" opacity="0.4"/>
              </g>
              <path id="Path_49" data-name="Path 49" d="M168.127,199.116H120.906a2.494,2.494,0,0,1-2.494-2.494h0a2.494,2.494,0,0,1,2.494-2.494h47.221a2.494,2.494,0,0,1,2.494,2.494h0A2.494,2.494,0,0,1,168.127,199.116Z" transform="translate(-105.984 -191.77)" fill="#407bff" opacity="0.4"/>
            </g>
            <g id="Group_22" data-name="Group 22" transform="translate(3.952 32.383)">
              <g id="Group_21" data-name="Group 21">
                <path id="Path_50" data-name="Path 50" d="M73.1,238.194a4.6,4.6,0,1,1-4.6,4.6,4.609,4.609,0,0,1,4.6-4.6m0-.248a4.851,4.851,0,1,0,4.851,4.851,4.851,4.851,0,0,0-4.851-4.851Z" transform="translate(-68.252 -237.946)" fill="#407bff"/>
                <path id="Path_51" data-name="Path 51" d="M80.665,261.983a4,4,0,0,1-7.04,0,6.342,6.342,0,0,1,7.04,0Z" transform="translate(-72.294 -255.226)" fill="#407bff" opacity="0.4"/>
                <circle id="Ellipse_7" data-name="Ellipse 7" cx="1.783" cy="1.783" r="1.783" transform="translate(3.068 1.698)" fill="#407bff" opacity="0.4"/>
              </g>
              <rect id="Rectangle_6" data-name="Rectangle 6" width="52.209" height="4.988" rx="2.494" transform="translate(12.428 2.357)" fill="#407bff" opacity="0.4"/>
            </g>
          </g>
          <path id="Path_52" data-name="Path 52" d="M259.633,198.869a23.161,23.161,0,0,0,.444,4.514,9.312,9.312,0,0,0-4.556,7.986,9.212,9.212,0,0,0,.26,2.185h20.374A1.56,1.56,0,0,0,277.71,212V176.33A23.125,23.125,0,0,0,259.633,198.869Z" transform="translate(-205.169 -159.213)" opacity="0.1"/>
        </g>
      </g>
      <g id="Character" transform="translate(48.403 19.705)">
        <g id="Group_31" data-name="Group 31" transform="translate(0 0)">
          <g id="Group_30" data-name="Group 30">
            <g id="Group_28" data-name="Group 28">
              <g id="Group_25" data-name="Group 25">
                <circle id="Ellipse_8" data-name="Ellipse 8" cx="20.612" cy="20.612" r="20.612" transform="translate(0 29.149) rotate(-45)" fill="#407bff"/>
                <circle id="Ellipse_9" data-name="Ellipse 9" cx="18.79" cy="18.79" r="18.79" transform="translate(2.673 29.122) rotate(-45)" fill="#fff"/>
              </g>
              <g id="Group_27" data-name="Group 27" transform="translate(16.175 11.531)">
                <path id="Path_53" data-name="Path 53" d="M319.672,220.249l-1.2,1.536a6.9,6.9,0,0,0-1.452,1.482c-.466.462-.893.934-1.315,1.431a20.419,20.419,0,0,0-1.347,1.786,10.528,10.528,0,0,0-1.12,2.129,4.51,4.51,0,0,0-.3,1.484,2.766,2.766,0,0,0,.187,1.053,2.486,2.486,0,0,0,.786,1.04l.263.2.394.074a13.352,13.352,0,0,0,2.359.231c.017,0,.3-.026.312-.026l-.315-3.135c-.266.01-.835.052-1.1.047.009-.049.019-.1.032-.148a9.433,9.433,0,0,1,.646-1.732c.277-.6.6-1.2.929-1.8.291-.529.605-1.062.911-1.582l1.483-.936.871-1.545Zm-3.868,9.787a.371.371,0,0,1-.009-.072.264.264,0,0,1,.022.057C315.834,230.08,315.815,230.084,315.8,230.036Z" transform="translate(-312.939 -215.265)" fill="#f8bbc2"/>
                <path id="Path_54" data-name="Path 54" d="M360.593,233.033c.038-.19-.023-.2-.071-.2a.312.312,0,0,0-.185.208,3.413,3.413,0,0,1-.89.937c-.049.035-.1.071-.148.105a2.858,2.858,0,0,1-1.461.481c.01.052.019.1.027.156.019.122.033.243.041.363a1.794,1.794,0,0,1-1.04,1.944c0,.049-.121.1-.161.136a1.764,1.764,0,0,0-.59,1.127c0,.323.3.578.659.885l.5.335.679-.065a4.7,4.7,0,0,0,3.011-2.657A6.5,6.5,0,0,1,360.593,233.033Z" transform="translate(-345.417 -224.729)" fill="#f8bbc2"/>
                <path id="Path_55" data-name="Path 55" d="M343.738,249.625s-.14-.026-.378-.064c-.494-.079-2.7-.579-3.772-.675v0a4.824,4.824,0,0,1-3.144,2.426l-.516.122-.485-.258a1.311,1.311,0,0,1-.541-.95,1.4,1.4,0,0,1,.54-.994.179.179,0,0,0,.043-.057.292.292,0,0,1,0-.1c-.155.02-2.131.32-2.3.347a32.223,32.223,0,0,0-5.468,1.518l.021.178.358,3.122.135,1.181s.993-.111,2.292-.34a46.574,46.574,0,0,0,.658,13.611c1.14-.021,4.23-.082,4.23-.079l7.348-.138c.03-.494-.024-1.52-.078-2.922l-.066-2.165c-.04-1.913-.032-4.207.14-6.672q.04-.582.094-1.176h0c1.5,1.625,3.006,3.176,3.006,3.176l.71-.684a5.9,5.9,0,0,0,2.251-2.169l.834-.8S345.769,249.967,343.738,249.625Z" transform="translate(-324.056 -236.807)" fill="#003fc3"/>
                <path id="Path_56" data-name="Path 56" d="M384.16,270.644a3.677,3.677,0,0,0,.483,1.461l.571.975q.041-.582.094-1.176C384.916,271.48,384.525,271.052,384.16,270.644Z" transform="translate(-366.514 -253.174)" opacity="0.3"/>
                <path id="Path_57" data-name="Path 57" d="M388.509,275.733v0q-.053.593-.094,1.176h0C388.441,276.52,388.473,276.127,388.509,275.733Z" transform="translate(-369.713 -257)" opacity="0.3"/>
                <path id="Path_58" data-name="Path 58" d="M363.066,239.817c.01.052.019.1.028.156-.008-.052-.018-.1-.027-.156Z" transform="translate(-350.646 -229.985)" fill="#7f3e3b"/>
                <path id="Path_59" data-name="Path 59" d="M363.218,240.811c-.008-.12-.022-.241-.041-.363C363.2,240.569,363.21,240.69,363.218,240.811Z" transform="translate(-350.73 -230.458)" opacity="0.2"/>
                <path id="Path_60" data-name="Path 60" d="M364.676,237.452c-.049.035-.1.071-.148.105a2.859,2.859,0,0,1-1.461.481c.01.052.019.1.027.156.019.122.032.243.041.363,0,.007,0,.014,0,.021A2.494,2.494,0,0,0,364.676,237.452Z" transform="translate(-350.647 -228.206)" fill="#7f3e3b"/>
                <path id="Path_61" data-name="Path 61" d="M357.227,248.731a.554.554,0,0,0-.411-.42l-.515-.123a.308.308,0,0,0-.338.144.282.282,0,0,0-.017.024,4.824,4.824,0,0,1-3.144,2.426l-.162.039h0l-.354.084-.485-.258a1.311,1.311,0,0,1-.541-.95,1.4,1.4,0,0,1,.54-.994.473.473,0,0,0,.071-.092c.023-.057.018-.085-.022-.111-.545-.394-1.772.214-1.82.319a2.075,2.075,0,0,0-.155.167,1.705,1.705,0,0,0-.4,1.313,2.65,2.65,0,0,0,1.255,1.923.071.071,0,0,0,.035.009.073.073,0,0,0,.073-.078,1.48,1.48,0,0,1,.917-1.366l.434.231c-1.864,7.648-.6,16.811-.565,17.06l.144,0s0-.006,0-.009c-.014-.093-1.315-9.338.563-17.026l.455-.108a2.007,2.007,0,0,1,.275,1.611.072.072,0,0,0,.022.074.074.074,0,0,0,.048.018.072.072,0,0,0,.029-.006,11.62,11.62,0,0,0,3.262-2.049,3.879,3.879,0,0,0,.8-1.61A.549.549,0,0,0,357.227,248.731Z" transform="translate(-340.416 -236.275)" fill="#04137a" opacity="0.55"/>
                <path id="Path_62" data-name="Path 62" d="M364.676,237.452c-.049.035-.1.071-.148.105a2.859,2.859,0,0,1-1.461.481c.01.052.019.1.027.156.019.122.032.243.041.363,0,.007,0,.014,0,.021A2.494,2.494,0,0,0,364.676,237.452Z" transform="translate(-350.647 -228.206)" opacity="0.2"/>
                <path id="Path_63" data-name="Path 63" d="M353.489,209.252a4.588,4.588,0,0,1,.909-1.171,1.793,1.793,0,0,1-.42-.433c-.39.183-.759.7-.95,1.86a2.983,2.983,0,0,0-.02.83c.075-.218.16-.433.256-.642Z" transform="translate(-343.065 -205.786)" fill="#263238"/>
                <path id="Path_64" data-name="Path 64" d="M356.874,211.67a2.3,2.3,0,0,0-.247-3.313c.121-1.73-2.368-1.956-3.449-.9a4.593,4.593,0,0,0-.909,1.171l-.225.444c-.1.209-.181.424-.256.642a7.605,7.605,0,0,0-.421,2.435,2.832,2.832,0,0,0,2.9,2.846h0a2.859,2.859,0,0,0,1.461-.481c.052-.034.1-.07.148-.105a3.413,3.413,0,0,0,.89-.937C357.322,212.582,357.176,212.133,356.874,211.67Z" transform="translate(-341.846 -205.163)" fill="#f8bbc2"/>
                <path id="Path_65" data-name="Path 65" d="M353.484,214.049a.1.1,0,0,0,.016.144.1.1,0,0,0,.066.022.1.1,0,0,0,.054-.019.1.1,0,0,0,.024-.019.855.855,0,0,1,.677-.34.1.1,0,0,0,.109-.1.1.1,0,0,0-.095-.109,1.028,1.028,0,0,0-.49.121A1.1,1.1,0,0,0,353.484,214.049Z" transform="translate(-343.421 -210.287)" fill="#263238"/>
                <path id="Path_66" data-name="Path 66" d="M360.223,227.257a.052.052,0,0,0-.073,0,1.444,1.444,0,0,1-1.232.307.051.051,0,0,0-.02.1,1.653,1.653,0,0,0,.359.033,1.491,1.491,0,0,0,.965-.367A.051.051,0,0,0,360.223,227.257Z" transform="translate(-347.48 -220.525)" fill="#263238"/>
                <path id="Path_67" data-name="Path 67" d="M355.452,220.161a6.529,6.529,0,0,1-1.161,1.292.993.993,0,0,0,.782.316Z" transform="translate(-344.045 -215.199)" fill="#f59ca2"/>
                <path id="Path_68" data-name="Path 68" d="M355.029,218.527c.112.023.235-.1.275-.267s-.018-.326-.13-.348-.235.1-.275.268S354.917,218.5,355.029,218.527Z" transform="translate(-344.493 -213.504)" fill="#263238"/>
                <path id="Path_69" data-name="Path 69" d="M362.842,220.083c.112.022.235-.1.275-.268s-.018-.326-.13-.348-.235.1-.275.268S362.73,220.061,362.842,220.083Z" transform="translate(-350.37 -214.675)" fill="#263238"/>
                <path id="Path_70" data-name="Path 70" d="M371.8,211.569c-.068,0-.144.006-.226.006a4.625,4.625,0,0,0-.294,1.077,2.866,2.866,0,0,0,.541,2.236c.508.863,1.159.839,1.722.181.908-.871,1.782-2.608-.023-3.972A2.966,2.966,0,0,1,371.8,211.569Z" transform="translate(-356.795 -208.381)" fill="#263238"/>
                <path id="Path_71" data-name="Path 71" d="M372.7,224.884a1.275,1.275,0,0,0-1.242.329,2.471,2.471,0,0,0-.511.562c-.351.548-.226,1.185.4,1.24a1.011,1.011,0,0,0,.108,0c.049,0,.1,0,.148-.01a2.142,2.142,0,0,0,1.307-.62,1,1,0,0,0,.269-1A.809.809,0,0,0,372.7,224.884Z" transform="translate(-356.431 -218.705)" fill="#f8bbc2"/>
                <path id="Path_72" data-name="Path 72" d="M356.747,202.428a6.523,6.523,0,0,0,3.449.9c.082,0,.158,0,.226-.006a2.965,2.965,0,0,0,1.72-.471c1.047-.9-1.34-2.717-1.34-2.717s.266.653-.289.833-4.468-1.275-4.4.376a1.253,1.253,0,0,0,.216.652A1.8,1.8,0,0,0,356.747,202.428Z" transform="translate(-345.414 -200.133)" fill="#263238"/>
                <path id="Path_73" data-name="Path 73" d="M341.182,328.153s-.067.578-.171,1.552a18.811,18.811,0,0,0,11.716.109c.027-1.176.043-1.879.043-1.879l-7.358.138-.143,0Z" transform="translate(-334.056 -296.27)" fill="#263238"/>
                <g id="Group_26" data-name="Group 26" transform="translate(15.818 19.054)">
                  <path id="Path_74" data-name="Path 74" d="M387.247,279.887a2.529,2.529,0,0,0-.27-.9l-.073-.136-.04-.067a20.1,20.1,0,0,0-1.139-1.744l-2.251,2.169c.3.371.588.745.856,1.125a1.808,1.808,0,0,1-.19.358,8.285,8.285,0,0,1-1.227,1.365,35.944,35.944,0,0,1-3.047,2.46l-.343.047-1.383.188-1.359.918.894,1.82,1.124-.576a4.256,4.256,0,0,0,.791-.186,1.687,1.687,0,0,0,.974-.689,20.664,20.664,0,0,0,1.932-.882,19.136,19.136,0,0,0,1.955-1.161c.32-.22.634-.456.947-.718a7.325,7.325,0,0,0,.918-.9,4.174,4.174,0,0,0,.807-1.38A2.7,2.7,0,0,0,387.247,279.887Zm-2.9.39c0-.013,0-.026-.005-.037,0-.06.021-.081.021-.046A.285.285,0,0,1,384.351,280.277Z" transform="translate(-376.781 -277.036)" fill="#f8bbc2"/>
                </g>
              </g>
            </g>
            <g id="Group_29" data-name="Group 29" transform="translate(3.425 31.864)">
              <circle id="Ellipse_10" data-name="Ellipse 10" cx="6.801" cy="6.801" r="6.801" transform="matrix(0.16, -0.987, 0.987, 0.16, 0, 13.427)" fill="#263238"/>
              <path id="Path_75" data-name="Path 75" d="M283.427,299.766h-3.1v-3.1a.637.637,0,0,0-1.273,0v3.1h-3.1a.637.637,0,1,0,0,1.273h3.1v3.1a.637.637,0,0,0,1.273,0v-3.1h3.1a.637.637,0,0,0,0-1.273Z" transform="translate(-271.885 -292.6)" fill="#fff"/>
            </g>
          </g>
          <path id="Path_76" data-name="Path 76" d="M364.5,216.142a.781.781,0,0,1,.564.46.1.1,0,0,0,.1.06.1.1,0,0,0,.041-.009.1.1,0,0,0,.051-.136.985.985,0,0,0-.724-.578.1.1,0,0,0-.026.2Z" transform="translate(-335.485 -200.491)" fill="#263238"/>
        </g>
      </g>
    </g>
  </g>
</svg>
