<svg xmlns="http://www.w3.org/2000/svg" xmlns:xlink="http://www.w3.org/1999/xlink" width="156.22" height="101.686" viewBox="0 0 156.22 101.686">
  <defs>
    <linearGradient id="linear-gradient" x1="0.217" y1="0.925" x2="0.818" y2="0.147" gradientUnits="objectBoundingBox">
      <stop offset="0" stop-color="#fff"/>
      <stop offset="1" stop-color="#fff" stop-opacity="0"/>
    </linearGradient>
    <linearGradient id="linear-gradient-2" x1="0.208" y1="0.034" x2="0.751" y2="0.9" xlink:href="#linear-gradient"/>
    <linearGradient id="linear-gradient-3" x1="0.005" y1="-0.164" x2="0.711" y2="0.745" xlink:href="#linear-gradient"/>
    <linearGradient id="linear-gradient-4" x1="0.497" y1="0.063" x2="0.505" y2="0.774" xlink:href="#linear-gradient"/>
    <linearGradient id="linear-gradient-5" x1="0.5" y1="0.348" x2="0.506" y2="0.91" xlink:href="#linear-gradient"/>
  </defs>
  <g id="PMT_M43_02" transform="translate(-46.807 -29.187)">
    <path id="Path" d="M134.635,75.1q-.349.627-.748,1.228c-.07.106-.141.21-.213.315a19.138,19.138,0,0,1-1.638,2.058q-.314.345-.647.674a24.754,24.754,0,0,1-2.065,1.83c-.027.022-.055.044-.083.065a26.958,26.958,0,0,1-3.834,2.508c-.058.031-.117.063-.176.093a31.822,31.822,0,0,1-3.4,1.559h0c-.14.054-.281.11-.423.161l-.25.094h0q-1.458.535-2.971.952h0q-.687.192-1.382.362l-.263.063q-.583.136-1.165.248c-.136.026-.273.052-.409.075a31.609,31.609,0,0,1-4.927.471,40.587,40.587,0,0,1-4.889-.21C96.71,86.8,88.4,83.762,79.783,83.158c-8.838-.62-17.943.411-25.947,4.209C47.432,90.4,41.343,92.636,35,93.11h-.011l-.055,0h0q-.562.02-1.123.028-1.224.02-2.444-.019l.006.007.36.021-.359-.019-.037,0L31,93.109h0q-1.281-.053-2.551-.183h-.016l-.2-.016-.243-.021h-.013c-.14-.02-.283-.041-.424-.063q-.512-.078-1.025-.174h0a34.94,34.94,0,0,1-3.456-.827h0c-.1-.029-.2-.059-.3-.089q-.978-.293-1.972-.653a24.161,24.161,0,0,1-2.468-1.052c-.122-.06-.243-.121-.363-.183a24.344,24.344,0,0,1-4.453-2.941l-.187-.157a21.211,21.211,0,0,1-2.99-3.106h0a17.341,17.341,0,0,1-1.951-3.122c-.094-.195-.183-.391-.269-.59q-.078-.179-.15-.36-.091-.228-.175-.458l-.015-.04q-.213-.592-.373-1.2h0c-.037-.143-.073-.287-.106-.431v0c-.013-.055-.025-.11-.037-.166q-.054-.251-.1-.5a7.134,7.134,0,0,1-.091-.725c0-.029-.005-.059-.007-.088A10.014,10.014,0,0,1,7.73,71.84c.026-.076.055-.152.083-.228s.068-.183.1-.273.08-.2.121-.3c1.545-3.742,4.282-7.259,3.6-11.176-.005-.029-.011-.059-.016-.088q-.062-.333-.158-.67-.1-.356-.232-.7c-.01-.029-.021-.059-.033-.087C9.643,54.338,5.522,51.83,2.96,48.454q-.366-.483-.692-.978A12.413,12.413,0,0,1,.434,37.13c1.407-5.216,5.962-9.886,12.092-9.56,2.105.112,4.209.652,6.295.375a12.273,12.273,0,0,0,5.251-2.276A25.552,25.552,0,0,0,28.4,21.888q.133-.146.263-.293c.168-.188.332-.378.492-.571.033-.037.064-.075.1-.114q.612-.743,1.162-1.529c.089-.127.177-.256.263-.383q.293-.434.566-.878a23.834,23.834,0,0,0,1.146-2.095q.206-.426.395-.859.165-.379.315-.763c.888-2.263,1.638-4.653,2.708-6.849a15.041,15.041,0,0,1,3.409-4.727c.132-.119.268-.236.409-.351l.03-.025c.134-.108.269-.214.409-.318a12.077,12.077,0,0,1,1.171-.769c.11-.064.222-.126.333-.183.04-.021.078-.041.117-.06,3.935-2.027,8.124-1.045,12,.861C57.777,4,61.309,6.807,65.67,8.276q.6.2,1.225.369l.056.015q.414.11.83.206a30.3,30.3,0,0,0,3.152.556q.491.061.984.1a32.322,32.322,0,0,0,5.019.062c.1-.005.192-.012.289-.019q1.01-.073,2.013-.212.745-.1,1.481-.235.719-.131,1.427-.293C86.887,7.743,91.831,5.592,96.7,7.345c4.786,1.726,7.021,5.846,8.077,10.284.067.281.127.562.181.846.1.536.188,1.077.264,1.618a26.975,26.975,0,0,0,1.326,6.387c1.944,4.845,5.895,5.955,10.5,6.122,1.164.042,2.37.024,3.6-.009,3.724-.1,8.075.517,9.915,3.542a6.409,6.409,0,0,1,.886,3.874,11.652,11.652,0,0,1-.228,1.619c-.678,3.3-2.463,6.7-1.371,10,.865,2.608,3.084,4.594,4.639,6.905C137.9,63.618,137.512,69.946,134.635,75.1Z" transform="translate(60.079 29.187)" fill="#f77188" opacity="0.49"/>
    <path id="Path-2" data-name="Path" d="M4.35,10.881c.726.406,1.752.651,2.3.025a1.53,1.53,0,0,0-.022-1.764A12.452,12.452,0,0,0,5.381,7.727C3.567,5.6,5.088,4.2,4.9,2.009A2.2,2.2,0,0,0,1.077.714C-1.767,3.6,1.617,9.352,4.35,10.881Z" transform="translate(167.167 46.554)" fill="#f77188" opacity="0.57"/>
    <path id="Path-3" data-name="Path" d="M.659,7.413A2.435,2.435,0,0,0,1.717,8.55a1.122,1.122,0,0,0,1.4-.336,1.525,1.525,0,0,0-.144-1.436A7.284,7.284,0,0,1,1.846,4.3C1.725,3.065,5.226-1.048,2.01.25-.424,1.233-.344,5.523.659,7.413Z" transform="translate(191.495 75.657)" fill="#f77188" opacity="0.57"/>
    <path id="Path-4" data-name="Path" d="M2.321,6.606a15.94,15.94,0,0,1-.874,2.183,2.066,2.066,0,0,0,.288,2.2c.795.706,2.056.025,2.618-.895A5.812,5.812,0,0,0,4.809,5.6C4.572,4.736,1.493-1.594.076.379-.525,1.216,2.639,5.006,2.321,6.606Z" transform="translate(62.196 84.006)" fill="#f77188" opacity="0.57"/>
    <path id="Path-5" data-name="Path" d="M.029,3.266a2.255,2.255,0,0,0,1.033,1.55A3.244,3.244,0,0,0,2.9,5.289,3.371,3.371,0,0,0,5.367,4.2a2.446,2.446,0,0,0,.411-2.591A2.728,2.728,0,0,0,5.13.79C3.147-.982-.357.392.029,3.266Z" transform="translate(85.83 36.845)" fill="#f77188" opacity="0.57"/>
    <g id="Group" transform="translate(71.006 38.138)" opacity="0.93">
      <path id="Path-6" data-name="Path" d="M8.366.063,4.354,9.972a.259.259,0,0,1-.338.143L.162,8.555a.258.258,0,0,1-.143-.338L3.346,0A32.273,32.273,0,0,0,8.366.063Z" transform="translate(57.379 0.662)" fill="#fff" opacity="0.15"/>
      <g id="Group-2" data-name="Group" transform="translate(21.124 15.795)" opacity="0.15">
        <path id="Path-7" data-name="Path" d="M15.943,2.79V.087A.087.087,0,0,0,15.856,0L.087,0A.087.087,0,0,0,0,.091v2.7a.087.087,0,0,0,.087.087l15.769,0a.086.086,0,0,0,.087-.087Z" transform="translate(0.371 0)" fill="#fff"/>
        <rect id="Rectangle" width="6.773" height="13.665" rx="2.96" transform="translate(14.144 2.75) rotate(90)" fill="#fff" opacity="0.57"/>
        <rect id="Rectangle-2" data-name="Rectangle" width="5.814" height="18.4" rx="2.907" transform="translate(18.4 9.161) rotate(90)" fill="#fff"/>
        <path id="Path-8" data-name="Path" d="M.452,3.638A14.975,14.975,0,0,0,.439.154a.159.159,0,0,0-.318,0A14.975,14.975,0,0,0,.109,3.638.176.176,0,0,0,.452,3.638Z" transform="translate(11.42 3.983)" fill="#fff"/>
        <path id="Path-9" data-name="Path" d="M.452,3.638A14.975,14.975,0,0,0,.439.154a.159.159,0,0,0-.318,0A14.975,14.975,0,0,0,.109,3.638.176.176,0,0,0,.452,3.638Z" transform="translate(9.822 3.983)" fill="#fff"/>
        <path id="Path-10" data-name="Path" d="M.452,3.638A14.955,14.955,0,0,0,.439.154a.159.159,0,0,0-.318,0A14.971,14.971,0,0,0,.109,3.637.176.176,0,0,0,.452,3.638Z" transform="translate(8.225 3.983)" fill="#fff"/>
      </g>
      <path id="Shape" d="M17.486,55.452V50.417H.423q-.062-.333-.158-.67-.116-.4-.265-.785H17.486l0-17.457H9.425V30.05h8.057l0-17.606v-.206c.169-.188.331-.378.492-.57q.049-.056.1-.114.761-.923,1.425-1.912v1.05l26.288-.006,8.282,0,11.977,0,0-10.469Q67.046.138,68.048,0l.008,30.038h40.12l9.978,0v1.455h-50.1l.006,23.946H66.047l0-5.035-16.638,0L19.5,50.417v5.035Z" transform="translate(0 0.49)" fill="#fff" opacity="0.47"/>
      <path id="Path-11" data-name="Path" d="M9.417.557l-7.047,9.7a.209.209,0,0,1-.293.046L.087,8.861A.209.209,0,0,1,.04,8.568L6.262,0A30.323,30.323,0,0,0,9.417.557Z" transform="translate(50.326 0)" fill="#fff" opacity="0.15"/>
      <path id="Path-12" data-name="Path" d="M7.447,13.252l-1.861.775a.11.11,0,0,1-.142-.058L.008.925A.11.11,0,0,1,.066.783L1.927.008a.11.11,0,0,1,.141.058L7.505,13.11A.11.11,0,0,1,7.447,13.252Z" transform="translate(29.859 36.548)" fill="#fff" opacity="0.14"/>
      <g id="Group-3" data-name="Group" transform="translate(20.773 33.881)" opacity="0.14">
        <path id="Path-13" data-name="Path" d="M6.816,16.058l-4.055.674a.11.11,0,0,1-.124-.089L0,.8A.11.11,0,0,1,.091.675L4.145,0A.11.11,0,0,1,4.27.09L6.9,15.934a.11.11,0,0,1-.089.124Z" transform="translate(0 0)" fill="#fff"/>
        <path id="Path-14" data-name="Path" d="M2.4.029A6.933,6.933,0,0,0,.2.31C.032.337-.021.526.007.7s.141.337.308.309A6.937,6.937,0,0,0,2.493.562.32.32,0,0,0,2.4.029Z" transform="translate(1.115 1.731)" fill="#fff"/>
        <path id="Path-15" data-name="Path" d="M2.4.029A6.951,6.951,0,0,0,.2.309C.032.337-.021.526.007.7s.142.337.309.309A6.945,6.945,0,0,0,2.493.562.321.321,0,0,0,2.4.029Z" transform="translate(2.105 7.688)" fill="#fff"/>
        <ellipse id="Oval" cx="0.532" cy="0.722" rx="0.532" ry="0.722" transform="translate(2.272 4.53) rotate(-9.44)" fill="#fff"/>
      </g>
      <g id="Group-4" data-name="Group" transform="translate(25.752 36.484)" opacity="0.1">
        <path id="Path-16" data-name="Path" d="M6.711,13.113l-3.553.833a.11.11,0,0,1-.13-.081L0,.966A.11.11,0,0,1,.083.836L3.636,0a.11.11,0,0,1,.13.081l3.025,12.9a.11.11,0,0,1-.081.131Z" transform="translate(0 0)" fill="#fff"/>
        <path id="Path-17" data-name="Path" d="M.294.006C.038.066-.072.55.05,1.068s.436.9.691.844S1.107,1.369.984.85.548-.055.294.006Z" transform="translate(2.047 2.18)" fill="#fff"/>
        <path id="Path-18" data-name="Path" d="M1.958.006C1.616.056,1.281.143.944.217A1.951,1.951,0,0,0,.058.512c-.13.105-.022.565.141.6a1.957,1.957,0,0,0,.925-.13C1.458.9,1.8.829,2.126.722c.119-.015.132-.213.085-.4S2.072-.034,1.958.006Z" transform="translate(2.07 5.947)" fill="#fff"/>
      </g>
    </g>
    <g id="Group-5" data-name="Group" transform="translate(92.207 30.396)" opacity="0.47">
      <path id="Path-19" data-name="Path" d="M16.351,8.891a9.243,9.243,0,0,1-9.319,9.165A9.356,9.356,0,0,1,0,14.9q.206-.426.395-.859.164-.38.315-.763C1.6,11.017,2.348,8.627,3.418,6.43A15,15,0,0,1,6.826,1.705q.2-.179.409-.351l.03-.025c.134-.11.269-.214.409-.318A12.086,12.086,0,0,1,8.844.244c.11-.064.222-.126.333-.183C9.216.04,9.255.019,9.294,0A9.2,9.2,0,0,1,16.351,8.891Z" transform="translate(0 0)" fill="#fff" opacity="0.47"/>
      <g id="Group-6" data-name="Group" transform="translate(6.833 1.355)" opacity="0.8">
        <rect id="Rectangle-3" data-name="Rectangle" width="0.532" height="1.69" transform="translate(0 14.499)" fill="#fff"/>
        <path id="Path-20" data-name="Path" d="M.532,0V.624H0V.351Q.259.172.532,0Z" transform="translate(0.001 0)" fill="#fff"/>
      </g>
      <g id="Group-7" data-name="Group" transform="translate(13.97 8.718)" opacity="0.8">
        <path id="Path-21" data-name="Path" d="M1.689.491V0H0V.491Z" transform="translate(0 0)" fill="#fff"/>
      </g>
      <g id="Group-8" data-name="Group" transform="translate(11.793 13.678)" opacity="0.8">
        <path id="Path-22" data-name="Path" d="M1.195,1.484l.289-.289L.289,0,0,.289,1.195,1.484Z" transform="translate(0 0)" fill="#fff"/>
      </g>
      <g id="Group-9" data-name="Group" transform="translate(0.786 2.671)" opacity="0.8">
        <path id="Rectangle-4" data-name="Rectangle" d="M0,0H1.69V.41H0Z" transform="translate(11.005 1.194) rotate(-44.97)" fill="#fff"/>
        <path id="Path-23" data-name="Path" d="M0,1.195l.289.29L1.484.289,1.195,0,0,1.195Z" transform="translate(0 11.008)" fill="#fff"/>
      </g>
      <rect id="Rectangle-5" data-name="Rectangle" width="0.922" height="3.981" transform="translate(6.571 5.084)" fill="#fff" opacity="0.8"/>
      <path id="Path-24" data-name="Path" d="M4.022,4.511l.486-.486L.485,0,0,.486,4.022,4.511Z" transform="translate(6.765 8.414)" fill="#fff" opacity="0.8"/>
    </g>
    <path id="Path-25" data-name="Path" d="M.58.1a2.111,2.111,0,0,0,.2,3.093,1.956,1.956,0,0,0,2.876-.942A1.821,1.821,0,0,0,1.721.022a3.371,3.371,0,0,0-1.115.5" transform="translate(100.064 73.763)" fill="#1f60e5" opacity="0.29"/>
    <circle id="Oval-2" data-name="Oval" cx="4.864" cy="4.864" r="4.864" transform="translate(119.625 61.394)" fill="#fff" opacity="0.91"/>
    <circle id="Oval-3" data-name="Oval" cx="1.032" cy="1.032" r="1.032" transform="matrix(0.806, -0.592, 0.592, 0.806, 184.854, 85.65)" fill="#fff" opacity="0.65"/>
    <circle id="Oval-4" data-name="Oval" cx="1.35" cy="1.35" r="1.35" transform="translate(114.28 43.045) rotate(-45)" fill="#fff" opacity="0.91"/>
    <circle id="Oval-5" data-name="Oval" cx="0.338" cy="0.338" r="0.338" transform="translate(109.342 45.965) rotate(-76.72)" fill="#fff" opacity="0.79"/>
    <circle id="Oval-6" data-name="Oval" cx="0.338" cy="0.338" r="0.338" transform="translate(83.154 82.858)" fill="#fff" opacity="0.79"/>
    <circle id="Oval-7" data-name="Oval" cx="3.15" cy="3.15" r="3.15" transform="translate(84.371 75.797)" fill="#fff" opacity="0.53"/>
    <path id="Path-26" data-name="Path" d="M37.642,31.215a7.183,7.183,0,0,1-2.6,2.183A15.691,15.691,0,0,1,30.4,34.853a51.5,51.5,0,0,1-13.444,0c-3.409-.369-6.717-.918-9.493-1.452C3.061,32.552,0,31.741,0,31.741s6.756-7.02,3.861-12.2A20.749,20.749,0,0,1,2.155,15.5c-.153-.5-.284-.984-.4-1.455-.19-.79-.329-1.534-.43-2.2a21.9,21.9,0,0,1-.274-3.266,7.284,7.284,0,0,1,.168-1.483,8.432,8.432,0,0,1,2.5-4.517A10.372,10.372,0,0,1,9.74.064a9.042,9.042,0,0,1,7.75,2.975q.265.275.516.569c2.42,2.84,3.158,7.07,7.117,8.313,5.017,1.574,10.46.784,13.354,6.189A12.846,12.846,0,0,1,37.642,31.215Z" transform="translate(123.31 35.269)" fill="#512d50"/>
    <path id="Path-27" data-name="Path" d="M4.651,8.522l-.013.125A14.562,14.562,0,0,1,.766,17.1L0,17.91l29.746,3.773S32.818,13.435,27.9,8.96a17.668,17.668,0,0,0-7.219-3.5C18.576,4.86,16,4.046,15.159,1.749,14.95,1.178,14.87.566,14.646,0" transform="translate(124.756 48.091)" fill="#020e49" opacity="0.32"/>
    <path id="Path-28" data-name="Path" d="M.512,7.224A6.706,6.706,0,0,1,.89,14.248L0,15.883l18.268.31c.267,0,1.7-2.9,1.793-3.319.336-1.626-1.241-3.33-2.452-4.161-1.532-1.052-3.349-1.645-4.848-2.745C11.641,5.146,8.1,1.377,9.688,0,8.2,1.331,6.73,2.681,5.216,3.983c-.31.266-4.6,3.7-4.7,3.243Z" transform="translate(128.529 49.781)" fill="#020e49" opacity="0.64"/>
    <rect id="Rectangle-6" data-name="Rectangle" width="7.81" height="1.755" transform="translate(132.522 98.512)" fill="none" stroke="#000" stroke-width="1"/>
    <path id="Path-29" data-name="Path" d="M16.074,3.227A3.556,3.556,0,0,1,15.8,4.4c-.1.233-.216.5-.35.8-.217.484-.48,1.04-.784,1.63-.005.012-.011.024-.018.037a25.5,25.5,0,0,1-2.066,3.406,7.932,7.932,0,0,1-3.672,3.085,3,3,0,0,1-.326.08c-.073.015-.146.027-.223.037a7.061,7.061,0,0,1-5.69-2.308A5.5,5.5,0,0,1,1.1,8.118,26.119,26.119,0,0,0,.158,4.543C.105,4.381.053,4.22,0,4.064A9.45,9.45,0,0,0,3.492,2.287Q4.119,1.82,4.7,1.457c.1-.064.2-.125.3-.183l.146-.087.175-.1c.068-.037.135-.075.2-.11l.2-.1L5.813.827c.11-.056.22-.108.326-.157.091-.042.183-.082.271-.12L6.548.491,6.674.442c.048-.019.1-.037.144-.055.076-.028.153-.055.227-.079l.14-.045L7.3.231C7.353.214,7.408.2,7.463.184L7.555.161C7.64.139,7.723.12,7.805.1L7.879.09l.1-.019c.046-.008.09-.016.135-.022L8.212.037,8.3.026,8.4.017l.122-.01C8.572,0,8.623,0,8.673,0H8.8c.114,0,.226,0,.335.014A.5.5,0,0,1,9.2.019c.094.009.187.021.277.037l.066.012.034.006.091.02a3.311,3.311,0,0,1,.508.159c.028.01.055.022.082.034q.082.035.161.073l.078.04.077.042.076.044.075.046L10.8.581c.049.033.1.067.146.1s.117.089.175.137.112.1.167.146c.022.02.044.041.065.062s.043.042.064.064c.049.05.1.1.143.154s.085.1.126.149l.02.026c.019.024.037.048.056.073.044.056.085.113.126.171l.06.087c.058.086.113.174.167.263s.106.183.156.278a.007.007,0,0,0,0,0,8.234,8.234,0,0,1,.633,1.63L12.923,4c.017-.031.033-.063.051-.093.048-.087.1-.175.141-.265v0a3.721,3.721,0,0,0,.156-.568.059.059,0,0,1,0-.011,4.494,4.494,0,0,1,.442-.958l.085-.146c.037-.064.076-.136.114-.212l0-.005h0L14,1.575c.011-.022.024-.044.037-.067.025-.045.051-.09.078-.134.01-.017.02-.034.031-.049s.037-.053.054-.079.03-.041.046-.06.033-.04.05-.059.031-.034.048-.05.033-.031.049-.045c0,0,0,0,.005,0a.628.628,0,0,1,.055-.042.606.606,0,0,1,.22-.1c.593-.124,1,.471,1.179.941A3.3,3.3,0,0,1,16.074,3.227Z" transform="translate(123.589 45.77)" fill="#f8bbc2"/>
    <path id="Path-30" data-name="Path" d="M.271,0C.182.039.091.078,0,.12.091.077.182.038.271,0Z" transform="translate(129.73 46.316)" fill="#f8bbc2"/>
    <path id="Path-31" data-name="Path" d="M.051.043.044.051.05.043Z" transform="translate(137.474 47.475)" fill="#f8bbc2"/>
    <path id="Path-32" data-name="Path" d="M14.212,6.371l-.347.648c-1.053-3.861-3.9-5.835-9.433-1.711A9.45,9.45,0,0,1,.939,7.085C.452,5.631,0,4.475,0,4.475L3.247,1.492,13.952,0S14.178,6.12,14.212,6.371Z" transform="translate(122.65 42.748)" fill="#f8bbc2"/>
    <path id="Path-33" data-name="Path" d="M9.672,13.261l-4.036,5.7S-.155,16.42.02,15.192c.024-.164,0-2.912-.016-5.209,0-.251,0-.5,0-.732V8.494c0-.922,0-1.58.023-1.636A46.783,46.783,0,0,1,3.442,1.4C4.53.012,5.492-.681,5.624.934c.008.095.013.2.015.307,0,.256.021.52.047.791.014.149.032.3.053.453.037.286.086.578.143.874A29.761,29.761,0,0,0,7.5,8.561a50.079,50.079,0,0,0,2.173,4.7Z" transform="translate(132.502 50.152)" fill="#f8bbc2"/>
    <path id="Path-34" data-name="Path" d="M19.054,8.9l-.029.007s-.017.021-.046.06a.628.628,0,0,0-.055.042s0,0-.005,0q-.025.021-.049.045c-.016.016-.032.032-.048.05s-.034.039-.05.059-.031.04-.046.06-.037.052-.054.079-.021.033-.031.049c-.027.044-.054.089-.078.134l-.037.067c-.073.137-.138.271-.2.381-.029.048-.057.1-.085.146a4.491,4.491,0,0,0-.446.969,3.721,3.721,0,0,1-.156.568v0l-.192.358A6.617,6.617,0,0,0,15.934,9.07c-1.383-1.418-3.553-1.625-6.714.366L9.1,9.515l-.022.014h0q-.512.329-1.059.737a9.45,9.45,0,0,1-3.492,1.777,4.566,4.566,0,0,1-.507.085C1.16,12.439-.223,9.706.029,5.791.38.351,9.418,0,9.418,0l8.029,3.29Z" transform="translate(119.069 37.791)" fill="#512d50"/>
    <path id="Path-35" data-name="Path" d="M52.273,26.152l-19.448,8.93-.814.374-.183.084a6.752,6.752,0,0,0-.467-.807,0,0,0,0,0,0,0,9.169,9.169,0,0,0-1-1.263c-.053-.057-.11-.115-.167-.172,0-.2.006-.4.011-.61.029-1.229.1-2.565.189-3.94.559-.427,1.148-.883,1.735-1.349,2.606-2.067,5.186-4.315,5.055-5.018-.037-.2-.07-.382-.1-.539a9.486,9.486,0,0,1-.165-1.128s-3.093-6.033-4.2-6.7l-.042-.024h0a.278.278,0,0,0-.146-.034c-.166.017-.4.836-.65,2.168h0c-.23,1.208-.478,2.84-.711,4.678-.168,1.32-.327,2.745-.467,4.2-.121,1.244-.227,2.511-.312,3.744-1.91,1.459-3.477,2.583-3.477,2.583a6.8,6.8,0,0,1,.645.217l-.9.527a1.874,1.874,0,0,1-1.144.244l-5.091-.549-5.307,2.8-1.186.626a12.568,12.568,0,0,0,3.195,1.137c.033,0,.065,0,.1,0,1.009,0,5.133-1.492,5.748-1.317A23.431,23.431,0,0,1,25.2,36.078a4.318,4.318,0,0,0,4.245-.169l.764-.472c.067,1.7.267,2.928.65,3.347.114.125.119.238.027.34-1.457,1.636-27.4.626-27.4.626l-3.159-15L0,9.676a6.258,6.258,0,0,1,4.98-6.261L13.32,1.681l3.943,12.271L24.2,0l5.96.366a10.909,10.909,0,0,1,2.61.485c.06.018.119.037.178.058a10.887,10.887,0,0,1,5.168,3.681c.1.132.2.268.3.407.063.089.124.178.183.269l.59.9Z" transform="translate(119.209 62.181)" fill="#003fc3"/>
    <path id="Path-36" data-name="Path" d="M21.968,11.672a9.486,9.486,0,0,1-.165-1.128s-3.093-6.033-4.2-6.7l-.042-.025c-.819-1.106-.777,1.909-.8,2.136-.128,1.555-.512,3.125-.711,4.678-.137,1.08.058,2.672-.422,3.74-.1,1.008-.193,2.033-.272,3.048a2.583,2.583,0,0,1-1.021,1.866c-1.46,1.1-2.54,1.873-2.54,1.873a6.8,6.8,0,0,1,.645.217l-.9.527a1.874,1.874,0,0,1-1.144.244L5.307,21.6,0,24.4c1.094-1.437,3.646-4.265,6.667-4.069,1.943.126,4.849,2.067,6.932-1.843a19.312,19.312,0,0,0,1.281-3.248,1.918,1.918,0,0,1-.411.175,5.941,5.941,0,0,1-1.693.166c-.815,0-1.96-.166-2.775-.164,1.8-.369,3.861-.878,4.747-2.846.833-1.85.586-3.913.308-5.822Q14.68,4.156,14.3,1.566A1.233,1.233,0,0,1,15.289.178,4.127,4.127,0,0,1,17.622.167c.886.439,1.5,2.2,1.915,3.022A22.5,22.5,0,0,1,21.984,11,1.9,1.9,0,0,1,21.968,11.672Z" transform="translate(134.323 72.348)" fill="#03157a" opacity="0.3"/>
    <path id="Path-37" data-name="Path" d="M13.74,3.788c.114.125.119.238.027.34-2.142.061-6.76.169-6.828-.033C6.882,3.923,2.8,2.373,0,1.328c.033,0,.065,0,.1,0C1.1,1.332,5.229-.16,5.843.014A23.431,23.431,0,0,1,8.082,1.081,4.318,4.318,0,0,0,12.327.913l.765-.472C13.157,2.142,13.357,3.371,13.74,3.788Z" transform="translate(136.331 97.181)" fill="#03157a" opacity="0.44"/>
    <path id="Path-38" data-name="Path" d="M16.286,6.692l-.765.472a4.318,4.318,0,0,1-4.245.169A23.431,23.431,0,0,0,9.038,6.266C8.424,6.091,4.3,7.584,3.29,7.584A11.779,11.779,0,0,1,0,6.443L6.493,3.021l5.091.549a1.874,1.874,0,0,0,1.144-.244l.9-.527a6.8,6.8,0,0,0-.645-.217S14.553,1.459,16.463,0c-.094,1.375-.16,2.711-.189,3.94,0,.206-.009.41-.011.61C16.254,5.319,16.26,6.041,16.286,6.692Z" transform="translate(133.135 90.93)" fill="#003fc3"/>
    <path id="Path-39" data-name="Path" d="M19.319.36,14.186,10.67l-.953.239-2.206.551.059.161.994,2.735L6.64,25.148l-.383-.89L2.516,15.584l1.4-2.369-1.93-1.58L.045,2.669,0,2.462l3.92-.83L4.945,4.58,7.663,12.4l.4,1.137L12.916,1.9,13.524.441,13.7.009,14.787,0l4.532.36Z" transform="translate(128.602 62.132)" fill="#03157a"/>
    <path id="Path-40" data-name="Path" d="M19.319.36,14.186,10.67l-.953.239-2.206.551.059.161.994,2.735L6.64,25.148l-.384-.89L2.516,15.584l1.4-2.369-1.93-1.58L.045,2.668,0,2.462l3.92-.83L4.945,4.58,7.663,12.4l.4,1.137L12.916,1.9,13.524.441,13.7.009,14.787,0l4.532.36Z" transform="translate(129.567 62.22)" fill="#03157a" opacity="0.3"/>
    <path id="Path-41" data-name="Path" d="M2.206,0l-.1.2L.059.712,0,.551,2.206,0Z" transform="translate(139.629 73.041)" fill="#03157a"/>
    <path id="Path-42" data-name="Path" d="M5.861,0,5.253,1.456.4,13.093,0,11.955,4.2,1.895,4.988.007,5.861,0Z" transform="translate(136.265 62.573)" fill="#03157a"/>
    <path id="Path-43" data-name="Path" d="M17.432,3.576l-1.147.71-.765.472a4.318,4.318,0,0,1-4.245.169A23.431,23.431,0,0,0,9.037,3.859C8.423,3.684,4.3,5.177,3.29,5.177a6.8,6.8,0,0,1-2.082-.594C.538,4.306,0,4.036,0,4.036L6.493.614l5.091.549c.039,0,.077.007.115.008a1.859,1.859,0,0,0,.9-.183c.045-.021.089-.044.132-.069l.9-.527.411-.24L14.3,0A10.229,10.229,0,0,1,17.432,3.576Z" transform="translate(133.136 93.336)" fill="#f8bbc2"/>
    <path id="Path-44" data-name="Path" d="M8.983,0,6.707,3.531a3.384,3.384,0,0,1-2.845,1.55H3.85A3.381,3.381,0,0,1,.893,3.312L0,1.667l4.139,11.9L9.784.044Z" transform="translate(132.522 62.096)" fill="#fff"/>
    <path id="Path-45" data-name="Path" d="M7.971,0,3.114,11.638,0,2.684l.131.24A3.382,3.382,0,0,0,3.089,4.692H3.1A3.386,3.386,0,0,0,5.947,3.141Z" transform="translate(133.547 64.028)" fill="#fb4a44"/>
    <path id="Path-46" data-name="Path" d="M4.4,0,4.358.329a3.038,3.038,0,0,1-.073.355,2.9,2.9,0,0,1-.116.345,2.668,2.668,0,0,1-.39.654,2.18,2.18,0,0,1-.629.532,1.74,1.74,0,0,1-.827.22l0-.031c.066-.02.129-.041.19-.066h0A1.913,1.913,0,0,0,3,2.056a2.218,2.218,0,0,0,.47-.519,3.3,3.3,0,0,0,.212-.371c.037-.076.073-.153.106-.23L3.8.907c.041-.094.078-.189.113-.285L3.924.6,3.758.656C3.583.718,3.406.771,3.23.82c-.354.1-.711.179-1.068.252s-.717.137-1.076.2l-.2.033c-.293.046-.586.09-.881.127L0,1.4q.532-.11,1.061-.233c.352-.081.7-.169,1.052-.261s.7-.191,1.032-.3c.169-.055.336-.114.5-.179A2.807,2.807,0,0,0,4.089.2Z" transform="translate(128.517 55.379)" fill="#e8635d" opacity="0.75"/>
    <path id="Path-47" data-name="Path" d="M5.879.874A10.748,10.748,0,0,1,0,6.766V6.493C2.348,5.794,4.415,2.578,5.738,0,5.774.286,5.822.578,5.879.874Z" transform="translate(132.502 52.636)" fill="#e8635d" opacity="0.3"/>
    <path id="Path-48" data-name="Path" d="M7.5,6.074A17.663,17.663,0,0,1,0,7.5c0-.251,0-.5,0-.732V6.493C2.348,5.794,4.415,2.578,5.738,0c.037.286.086.578.143.874A29.561,29.561,0,0,0,7.5,6.074Z" transform="translate(132.502 52.637)" fill="#fe8796" opacity="0.3"/>
    <path id="Path-49" data-name="Path" d="M2.02,2.355C1.656.238.629.329,0,.613a1.464,1.464,0,0,1,.4-.5.606.606,0,0,1,.22-.1c.593-.124,1,.471,1.179.941A3.3,3.3,0,0,1,2.02,2.355Z" transform="translate(137.644 46.643)" fill="#fe8796" opacity="0.3"/>
    <g id="Group-10" data-name="Group" transform="translate(137.318 48.677)" opacity="0.67">
      <path id="Path-50" data-name="Path" d="M.884,0A1.506,1.506,0,0,0,.42.43,2.157,2.157,0,0,0,.1.984,1.7,1.7,0,0,0,.133,2.232a2,2,0,0,1-.058-.615,1.931,1.931,0,0,1,.13-.594A2.753,2.753,0,0,1,.505.49,3.294,3.294,0,0,1,.884,0Z" transform="translate(0 0)" fill="#e8635d"/>
    </g>
    <g id="Group-11" data-name="Group" transform="translate(137.343 50.207)" opacity="0.67">
      <path id="Path-51" data-name="Path" d="M.039.28C.391.532.775.43,1.09,0A.643.643,0,0,1,.08.044C.051.015.018.044,0,.108A.211.211,0,0,0,.034.275Z" transform="translate(0 0)" fill="#e8635d"/>
    </g>
    <path id="Path-52" data-name="Path" d="M2.083.035h0A25.516,25.516,0,0,1,0,3.475L1.244.421A.676.676,0,0,1,2.083.035Z" transform="translate(136.172 52.565)" fill="#fe8796" opacity="0.3"/>
    <path id="Path-53" data-name="Path" d="M12.924,4S9.765-1,5.9,1.973C2.982,4.221.963,4.531.158,4.548.105,4.386.053,4.225,0,4.069A9.45,9.45,0,0,0,3.492,2.292C9.019-1.832,11.871.143,12.924,4Z" transform="translate(123.591 45.765)" fill="#fe8796" opacity="0.3"/>
    <path id="Path-54" data-name="Path" d="M6.839,2.291C5.438.855,3.229.661,0,2.735c.089-.081.345-.466.378-.5A8.337,8.337,0,0,1,1.523,1.089,3.608,3.608,0,0,1,5.293.252,3.158,3.158,0,0,1,6.839,2.291Z" transform="translate(128.164 44.57)" fill="#020e49" opacity="0.32"/>
    <path id="Path-55" data-name="Path" d="M9.219,3.63l0,.005A3.72,3.72,0,0,0,8.573,4.95a.059.059,0,0,0,0,.011,3.721,3.721,0,0,1-.156.568v0c-.044.09-.093.177-.141.265a.224.224,0,0,1-.068.019h0a8.234,8.234,0,0,0-.633-1.63.007.007,0,0,1,0,0c-.05-.094-.1-.187-.156-.278s-.11-.177-.167-.263l-.06-.087c-.041-.058-.082-.115-.126-.171L7,3.309l-.02-.026c-.041-.051-.083-.1-.126-.149s-.094-.1-.143-.154c-.021-.022-.042-.043-.064-.064l-.065-.062c-.055-.052-.11-.1-.167-.146s-.115-.093-.175-.137-.1-.07-.146-.1l-.073-.047-.075-.046c-.025-.015-.05-.03-.076-.044l-.077-.042-.078-.04q-.079-.04-.161-.073c-.027-.012-.055-.024-.082-.034a3.311,3.311,0,0,0-.508-.159l-.091-.02-.034-.006-.066-.012c-.09-.016-.183-.029-.277-.037L4.434,1.9c-.11-.01-.22-.014-.335-.014H3.973c-.051,0-.1,0-.154.007L3.7,1.9c-.031,0-.063.005-.095.01l-.09.011-.094.012c-.045.006-.089.013-.135.022s-.069.012-.1.019l-.073.015c-.082.016-.166.037-.25.056l-.092.024c-.055.014-.11.03-.168.046l-.11.033-.14.045c-.073.025-.151.051-.227.079l-.144.055-.127.049-.138.058c-.09.039-.18.078-.271.12-.107.049-.216.1-.326.157l-.091.045c-.066.034-.132.068-.2.1l-.2.11-.175.1C.4,3.1.348,3.132.3,3.162c-.1.06-.2.12-.3.183A5.206,5.206,0,0,1,4.628.007a2.746,2.746,0,0,1,2.1.714A5.667,5.667,0,0,1,7.859,2.668a1.83,1.83,0,0,0,1.364.959Z" transform="translate(128.294 43.879)" fill="#020e49" opacity="0.32"/>
    <path id="Path-56" data-name="Path" d="M0,.231A9.8,9.8,0,0,1,5.524,1a4.66,4.66,0,0,0,1.343.412l.755.116a.187.187,0,0,0,.127-.343C6.747.548,4.375-.456,0,.231Z" transform="translate(127.126 37.867)" fill="#020e49" opacity="0.32"/>
    <path id="Path-57" data-name="Path" d="M16.224,3.578l-.54.334-.606.375-.765.472a4.318,4.318,0,0,1-4.245.169A23.431,23.431,0,0,0,7.829,3.861c-.614-.175-4.738,1.317-5.748,1.317A6.8,6.8,0,0,1,0,4.584l1.433.169A4.008,4.008,0,0,0,3.37,4.5L6.684,3.2a1.45,1.45,0,0,1,1.306.122,13.4,13.4,0,0,1,1.2.846c1.3,1.038,4.752,1.314,5.089-.878.127-.827-.882-2.36-1.445-3.138L13.094,0A10.24,10.24,0,0,1,16.224,3.578Z" transform="translate(134.343 93.335)" fill="#fe8796" opacity="0.3"/>
    <path id="Path-58" data-name="Path" d="M2.123,2.741A5.553,5.553,0,0,0,0,.183,1.859,1.859,0,0,0,.9,0,3.385,3.385,0,0,1,2.123,2.741Z" transform="translate(144.833 94.323)" fill="#fe8796" opacity="0.3"/>
    <path id="Path-59" data-name="Path" d="M21.916,21.56,2.468,30.49,1,30.141a0,0,0,0,0,0,0,9.169,9.169,0,0,0-1-1.263,92.391,92.391,0,0,1,9.11-6.189,7.743,7.743,0,0,0,3.242-9.044L7.753,0q.253.327.481.676Z" transform="translate(149.566 66.773)" fill="#03157a" opacity="0.3"/>
    <path id="Path-60" data-name="Path" d="M5.644,4.145c-1.67.635-3.412.8-3.894-.966A7.921,7.921,0,0,0,0,0C.06.018.119.037.178.058A10.887,10.887,0,0,1,5.346,3.739Q5.5,3.937,5.644,4.145Z" transform="translate(151.973 63.036)" fill="#03157a" opacity="0.3"/>
    <path id="Path-61" data-name="Path" d="M83.624,40.649,36.591,62.673l-13.907-8.9-2.271-1.454L6.961,43.7l-3.3-2.113-.427-.273L.842,39.783,0,39.245l3.312-4.381.919-1.214.183-.24,3.95-5.223.2-.261.069-.091L17.955,15.5l1.1-1.455L28.021,2.191q.6.2,1.225.369l.056.015A10.372,10.372,0,0,1,35.321.064a9.042,9.042,0,0,1,7.75,2.975q.719-.131,1.427-.293C49.239,1.659,54.183-.493,59.05,1.261c4.786,1.726,7.021,5.846,8.077,10.284.067.281.127.562.181.846.1.536.188,1.077.264,1.618A26.975,26.975,0,0,0,68.9,20.4c1.944,4.845,5.895,5.955,10.5,6.122l2.059,6.88.436,1.455Z" transform="translate(97.73 35.268)" opacity="0.11" fill="url(#linear-gradient)"/>
    <g id="laptop" transform="translate(97.591 74.082)">
      <path id="Path-62" data-name="Path" d="M36.887,23.941l-.726,0-.781,0-4.113-.024-1.72-.01-2.025-.011-5.105-.03L13.127,23.8l-4.8-.027-2.035-.012-.008-.03L.194.732.116.437,0,0,3.461.02l7.13.041L16.423.1l2.723.016L30.594.178l5.689,21.481.6,2.282Z" transform="translate(0 0)" fill="#fff"/>
      <path id="Path-63" data-name="Path" d="M36.887,23.941l-.726,0-.781,0-4.113-.024-1.72-.01-2.025-.011-5.105-.03L13.127,23.8l-4.8-.027-2.035-.012-.008-.03L.194.732.116.437,0,0,3.461.02l7.13.041L16.423.1l2.723.016L30.594.178l5.689,21.481.6,2.282Z" transform="translate(0 0)" fill="#fe7101" opacity="0.39"/>
      <path id="Path-64" data-name="Path" d="M42.7,2.1v.034L30.515,2.048l-5.66-.038-7.135-.048L0,1.841.013,0,1.88.013l4.8.033,9.569.065,4.828.033L23.381.16l3.3.022L29.218.2,30.5.208h.028l10.345.07h.012A1.84,1.84,0,0,1,42.7,2.1Z" transform="translate(6.444 24.091)" fill="#fe7101"/>
      <path id="Path-65" data-name="Path" d="M6.17,23.3l29.89.2L29.89.2,0,0,6.17,23.3Z" transform="translate(0.102 0.437)" fill="#fff"/>
      <path id="Path-66" data-name="Path" d="M.425,1.23c1.584.714,7.14,1.322,12.409,1.358S21.089,2.076,19.5,1.36,12.365.038,7.1,0-1.16.517.425,1.23Z" transform="translate(7.573 11.029)" fill="#fe7101" opacity="0.82"/>
      <path id="Path-67" data-name="Path" d="M12.187,1.889v.034L0,1.84.013,0,10.357.07h.012A1.842,1.842,0,0,1,12.187,1.889Z" transform="translate(36.959 24.299)" fill="#fff" opacity="0.63"/>
      <rect id="Rectangle-7" data-name="Rectangle" width="0.809" height="5.608" transform="translate(27.516 24.691) rotate(-89.61)" fill="#fff"/>
      <rect id="Rectangle-8" data-name="Rectangle" width="0.809" height="4.799" transform="translate(8.323 24.562) rotate(-89.61)" fill="#fff"/>
      <rect id="Rectangle-9" data-name="Rectangle" width="0.809" height="5.608" transform="translate(27.516 24.691) rotate(-89.61)" fill="#fe7101" opacity="0.57"/>
      <rect id="Rectangle-10" data-name="Rectangle" width="0.809" height="4.799" transform="translate(8.323 24.562) rotate(-89.61)" fill="#fe7101" opacity="0.57"/>
      <path id="Path-68" data-name="Path" d="M29.691.5.078.3,0,0,29.89.2l6.17,23.3-.277,0L29.691.5Z" transform="translate(0.102 0.437)" fill="#fe7101" opacity="0.44"/>
    </g>
    <g id="Group-12" data-name="Group" transform="translate(101.052 74.103)" opacity="0.47">
      <path id="Path-69" data-name="Path" d="M27.838,26.08,20.7,26.032l-1.472-1.851-.275-.345-.01-.014L.587.738.352.442,0,0,7.13.041,7.487.49l.235.3L26.081,23.872l0,.005h0l.28.352.366.459,1.106,1.391Z" transform="translate(0 0)" fill="url(#linear-gradient-2)"/>
      <path id="Path-70" data-name="Path" d="M21.4,23.5l-.881.7-.779.62-.5-.628-.284-.358h0L.6.751.362.455,0,0,2.723.016l.364.458.235.3L18.359,19.675l.414.521,1.086,1.366L21.4,23.5Z" transform="translate(12.962 0.075)" fill="url(#linear-gradient-3)"/>
    </g>
    <path id="Path-71" data-name="Path" d="M38.9,25.786c-2.525,6.734-10.2,8.68-16.549,9.16a29.986,29.986,0,0,1-11.272-.966,16.241,16.241,0,0,1-7.3-4.589,13.93,13.93,0,0,1-2.6-4.258C-1.239,18.876.11,8.929,4.817,3.92,11.884-3.6,25.458,1.094,32.454,6.4,38.019,10.619,41.432,19.014,38.9,25.786Z" transform="translate(55.532 39.134)" fill="#fff"/>
    <path id="Path-72" data-name="Path" d="M38.9,25.786c-2.525,6.734-10.2,8.68-16.549,9.16a29.986,29.986,0,0,1-11.272-.966,16.241,16.241,0,0,1-7.3-4.589,13.93,13.93,0,0,1-2.6-4.258C-1.239,18.876.11,8.929,4.817,3.92,11.884-3.6,25.458,1.094,32.454,6.4,38.019,10.619,41.432,19.014,38.9,25.786Z" transform="translate(55.532 39.134)" fill="#f77188" opacity="0.08"/>
    <path id="Path-73" data-name="Path" d="M25.62,18.891q.089-.146.173-.3C31.976,7.671,20.468-2.122,10.128.4,3.307,2.064-.969,7.6.189,14.719,2.086,26.382,19.652,28.784,25.62,18.891Z" transform="translate(175.495 49.058)" fill="#fff"/>
    <path id="Path-74" data-name="Path" d="M25.62,18.891q.089-.146.173-.3C31.976,7.671,20.468-2.122,10.128.4,3.307,2.064-.969,7.6.189,14.719,2.086,26.382,19.652,28.784,25.62,18.891Z" transform="translate(175.495 49.058)" fill="#f77188" opacity="0.08"/>
    <rect id="Rectangle-11" data-name="Rectangle" width="5.094" height="14.107" rx="2.547" transform="translate(93.074 91.355) rotate(90)" fill="#fff"/>
    <rect id="Rectangle-12" data-name="Rectangle" width="5.094" height="14.107" rx="2.547" transform="translate(93.074 91.355) rotate(90)" fill="#fe7101" opacity="0.36"/>
    <rect id="Rectangle-13" data-name="Rectangle" width="4.373" height="18.994" rx="2.186" transform="translate(97.466 96.178) rotate(90)" fill="#fff"/>
    <rect id="Rectangle-14" data-name="Rectangle" width="4.373" height="18.994" rx="2.186" transform="translate(97.466 96.178) rotate(90)" fill="#fe7101" opacity="0.73"/>
    <path id="Path-75" data-name="Path" d="M.467,2.736A8.227,8.227,0,0,0,.454.116C.447-.039.133-.039.125.116a8.227,8.227,0,0,0-.013,2.62A.2.2,0,0,0,.467,2.736Z" transform="translate(90.247 92.276)" fill="#fff"/>
    <path id="Path-76" data-name="Path" d="M.467,2.736A8.227,8.227,0,0,0,.454.116C.447-.039.133-.039.125.116a8.227,8.227,0,0,0-.013,2.62A.2.2,0,0,0,.467,2.736Z" transform="translate(88.597 92.276)" fill="#fff"/>
    <path id="Path-77" data-name="Path" d="M.467,2.736A8.217,8.217,0,0,0,.454.116C.447-.039.133-.039.125.116a8.227,8.227,0,0,0-.012,2.62C.154,2.873.43,2.873.467,2.736Z" transform="translate(86.946 92.276)" fill="#fff"/>
    <rect id="Rectangle-15" data-name="Rectangle" width="112.405" height="6.23" transform="translate(66.931 100.223)" fill="#fff"/>
    <path id="Path-78" data-name="Path" d="M112.4,0V6.23H0V4.388H111.966V0Z" transform="translate(67.369 102.066)" fill="#03157a" opacity="0.17"/>
    <path id="Path-79" data-name="Path" d="M31.207,9.634a6.062,6.062,0,0,1-2.428,2.546.374.374,0,0,0-.175.469c.164.43.071,1.313-2.061,2.674a16.166,16.166,0,0,0-4.026,3.861h3.147L25,22.215l-.083.38-.039.178-.083.381-.391,1.793h0l-.1.439-.238,1.09-.043.2-.089.409-.009.041-.613,2.807-.371,1.7L22.865,32l-.095.434H15.136l-.3-1.518-.356-1.793-.2-1.021-.252-1.267h0l-.4-2.024-.028-.141-.349-1.754-.106-.534-.053-.266L12.5,19.185h5.338L17.5,18.1c-.209-.08-.428-.161-.654-.242l-.185-.065-.112-.039-.151-.052-.124-.042-.251-.082-.087-.028-.04-.012-.09-.028-.135-.042-.13-.04q-.3-.091-.608-.173l-.136-.037-.142-.037-.081-.02-.163-.04c-.253-.06-.506-.115-.758-.162l-.064-.012-.153-.027L13.3,16.9a.284.284,0,0,1-.042-.007l-.136-.021-.052-.007-.092-.013-.136-.017-.138-.016-.07-.007c-.149-.015-.3-.026-.443-.034l-.157-.007H11.97c-.141,0-.281,0-.417,0a2.584,2.584,0,0,1-1.876-.725l-1.036-.988c.19.18-1.325.779-1.409.791a5.465,5.465,0,0,1-2.58-.456A7.673,7.673,0,0,1,0,10.844L2.947,9.176A6.378,6.378,0,0,1,11,10.652l.455.549,2.094-.183.552-.048a2.1,2.1,0,0,1,1.217.263.252.252,0,0,1,0-.037v-.18a.588.588,0,0,0-.713-.579,1.418,1.418,0,0,1-.377.037c-.915-.025-3.3-3.573-4.525-4.625a.854.854,0,0,1-.087-.087,1,1,0,0,1-.1-.138c-.015-.025-.03-.051-.044-.078a1.531,1.531,0,0,1-.09-.22,3.636,3.636,0,0,1-.128-1.2c0-.037,0-.075,0-.113q.005-.11.014-.224c0-.034.005-.069.008-.1s.005-.059.008-.089.006-.065.01-.1.006-.055.009-.082.01-.081.015-.12a.174.174,0,0,1,0-.02c0-.03.008-.059.012-.088s.007-.052.011-.078q.026-.185.058-.371c.006-.037.012-.068.018-.1s.011-.062.017-.093.015-.083.023-.125q.019-.1.04-.2.012-.064.026-.127c.033-.156.067-.308.1-.457l.024-.1c.006-.023.011-.046.017-.069l.027-.11c.059-.239.118-.461.173-.659L9.876.648,9.913.519,9.928.465l.01-.033a.011.011,0,0,1,0-.008h0a.586.586,0,0,1,.769-.386,21.36,21.36,0,0,0,4.074.984c2.983.471,4.071,5.791,4.266,6.9a.573.573,0,0,0,.183.329,4.1,4.1,0,0,1,.327.329l.056.065c.045.052.089.106.131.161.018.023.037.046.053.07l.056.077c.02.026.042.059.063.089l.049.073.045.069.02.032.041.066.051.083.037.062L20.2,9.5c.048.084.094.17.138.256.01.018.019.037.028.055.024.048.048.1.071.146.011.022.022.045.032.068l.031.068q.047.105.092.213c.014.033.027.066.041.1q.07.173.135.352c.01.026.019.052.028.078s.016.043.023.065l.041.12a4.339,4.339,0,0,1,.631-.737,2.694,2.694,0,0,1,2.7-.554l1.506.517a.37.37,0,0,0,.491-.35,1.764,1.764,0,0,1,1.763-1.763h2.417a.422.422,0,0,1,.049,0h.01a.211.211,0,0,1,.034,0l.018,0,.048.009.047.011.04.011.021.007.024.008.016.006.032.013.023.01h0l.023.011a.909.909,0,0,1,.113.065l.025.016.037.026a.959.959,0,0,1,.1.092l.028.03a1.025,1.025,0,0,1,.113.15c.008.013.016.026.023.039h0l.017.033c.005.011.017.033.024.05l.016.037.007.018c0,.006.008.02.011.031s.01.029.014.042.007.023.009.034,0,.016.006.023.005.024.008.037.006.03.008.046V9c0,.03.007.059.009.09a1,1,0,0,1-.127.546Z" transform="translate(149.282 67.701)" fill="#fff"/>
    <path id="Path-80" data-name="Path" d="M31.207,9.634a6.062,6.062,0,0,1-2.428,2.546.374.374,0,0,0-.175.469c.164.43.071,1.313-2.061,2.674a16.166,16.166,0,0,0-4.026,3.861h3.147L25,22.215l-.083.38-.039.178-.083.381-.391,1.793h0l-.1.439-.238,1.09-.043.2-.089.409-.009.041-.613,2.807-.371,1.7L22.865,32l-.095.434H15.136l-.3-1.518-.356-1.793-.2-1.021-.252-1.267h0l-.4-2.024-.028-.141-.349-1.754-.106-.534-.053-.266L12.5,19.185h5.338L17.5,18.1c-.209-.08-.428-.161-.654-.242l-.185-.065-.112-.039-.151-.052-.124-.042-.251-.082-.087-.028-.04-.012-.09-.028-.135-.042-.13-.04q-.3-.091-.608-.173l-.136-.037-.142-.037-.081-.02-.163-.04c-.253-.06-.506-.115-.758-.162l-.064-.012-.153-.027L13.3,16.9a.284.284,0,0,1-.042-.007l-.136-.021-.052-.007-.092-.013-.136-.017-.138-.016-.07-.007c-.149-.015-.3-.026-.443-.034l-.157-.007H11.97c-.141,0-.281,0-.417,0a2.584,2.584,0,0,1-1.876-.725l-1.036-.988c.19.18-1.325.779-1.409.791a5.465,5.465,0,0,1-2.58-.456A7.673,7.673,0,0,1,0,10.844L2.947,9.176A6.378,6.378,0,0,1,11,10.652l.455.549,2.094-.183.552-.048a2.1,2.1,0,0,1,1.217.263.252.252,0,0,1,0-.037v-.18a.588.588,0,0,0-.713-.579,1.418,1.418,0,0,1-.377.037c-.915-.025-3.3-3.573-4.525-4.625a.854.854,0,0,1-.087-.087,1,1,0,0,1-.1-.138c-.015-.025-.03-.051-.044-.078a1.531,1.531,0,0,1-.09-.22,3.636,3.636,0,0,1-.128-1.2c0-.037,0-.075,0-.113q.005-.11.014-.224c0-.034.005-.069.008-.1s.005-.059.008-.089.006-.065.01-.1.006-.055.009-.082.01-.081.015-.12a.174.174,0,0,1,0-.02c0-.03.008-.059.012-.088s.007-.052.011-.078q.026-.185.058-.371c.006-.037.012-.068.018-.1s.011-.062.017-.093.015-.083.023-.125q.019-.1.04-.2.012-.064.026-.127c.033-.156.067-.308.1-.457l.024-.1c.006-.023.011-.046.017-.069l.027-.11c.059-.239.118-.461.173-.659L9.876.648,9.913.519,9.928.465l.01-.033a.011.011,0,0,1,0-.008h0a.586.586,0,0,1,.769-.386,21.36,21.36,0,0,0,4.074.984c2.983.471,4.071,5.791,4.266,6.9a.573.573,0,0,0,.183.329,4.1,4.1,0,0,1,.327.329l.056.065c.045.052.089.106.131.161.018.023.037.046.053.07l.056.077c.02.026.042.059.063.089l.049.073.045.069.02.032.041.066.051.083.037.062L20.2,9.5c.048.084.094.17.138.256.01.018.019.037.028.055.024.048.048.1.071.146.011.022.022.045.032.068l.031.068q.047.105.092.213c.014.033.027.066.041.1q.07.173.135.352c.01.026.019.052.028.078s.016.043.023.065l.041.12a4.339,4.339,0,0,1,.631-.737,2.694,2.694,0,0,1,2.7-.554l1.506.517a.37.37,0,0,0,.491-.35,1.764,1.764,0,0,1,1.763-1.763h2.417a.422.422,0,0,1,.049,0h.01a.211.211,0,0,1,.034,0l.018,0,.048.009.047.011.04.011.021.007.024.008.016.006.032.013.023.01h0l.023.011a.909.909,0,0,1,.113.065l.025.016.037.026a.959.959,0,0,1,.1.092l.028.03a1.025,1.025,0,0,1,.113.15c.008.013.016.026.023.039h0l.017.033c.005.011.017.033.024.05l.016.037.007.018c0,.006.008.02.011.031s.01.029.014.042.007.023.009.034,0,.016.006.023.005.024.008.037.006.03.008.046V9c0,.03.007.059.009.09a1,1,0,0,1-.127.546Z" transform="translate(149.282 67.701)" fill="#1f60e5" opacity="0.8"/>
    <path id="Path-81" data-name="Path" d="M13.162,0,12.5,3.029l-.083.38-.039.178-.083.381L11.9,5.761l-.1.439-.238,1.09-.043.2-.089.409-.009.041-.613,2.807-.371,1.7-.082.374-.095.434H2.632l-.3-1.518L1.975,9.941l-.2-1.021L1.52,7.653h0l-.4-2.024L1.09,5.488.741,3.734h0L.636,3.2.583,2.935,0,0Z" transform="translate(161.786 86.886)" fill="#fff"/>
    <path id="Path-82" data-name="Path" d="M13.162,0,12.5,3.029l-.083.38-.039.178-.083.381L11.9,5.761l-.1.439-.238,1.09-.043.2-.089.409-.009.041-.613,2.807-.371,1.7-.082.374-.095.434H2.632l-.3-1.518L1.975,9.941l-.2-1.021L1.52,7.653h0l-.4-2.024L1.09,5.488.741,3.734h0L.636,3.2.583,2.935,0,0Z" transform="translate(161.786 86.886)" fill="#fe7101" opacity="0.67"/>
    <path id="Path-83" data-name="Path" d="M12.143,1.506A6.062,6.062,0,0,1,9.715,4.052a.374.374,0,0,0-.175.469c.164.43.071,1.313-2.061,2.674a16.166,16.166,0,0,0-4.026,3.861H0v-.014c0-.063,0-.128,0-.195,0-.037,0-.073,0-.11s0-.073,0-.11c.01-.333.025-.7.049-1.078C.195,7.394.612,4.606,1.8,2.89a4.339,4.339,0,0,1,.631-.74,2.694,2.694,0,0,1,2.7-.554l1.506.517a.37.37,0,0,0,.491-.35A1.764,1.764,0,0,1,8.891,0h2.363a1,1,0,0,1,.721.3L12,.33a1,1,0,0,1,.139,1.175Z" transform="translate(168.346 75.83)" fill="#fff" opacity="0.53"/>
    <path id="Path-84" data-name="Path" d="M11.616,11.015c-1.184,1.718-1.6,4.506-1.738,6.661-.025.383-.04.745-.049,1.078,0,.037,0,.073,0,.11s0,.073,0,.11c0,.067,0,.132,0,.195v.014H8.6L8.251,18.1,6.1,11.375a.544.544,0,0,1-.026-.141.253.253,0,0,1,0-.037v-.18a.588.588,0,0,0-.713-.579,1.418,1.418,0,0,1-.377.037C4.062,10.449,1.68,6.9.451,5.848-.507,5.027.3,1.8.7.423A.586.586,0,0,1,1.466.037a21.36,21.36,0,0,0,4.074.984c2.983.471,4.071,5.791,4.266,6.9a.573.573,0,0,0,.183.329,5.466,5.466,0,0,1,1.267,1.835A9.917,9.917,0,0,1,11.616,11.015Z" transform="translate(158.526 67.703)" fill="#fff" opacity="0.72"/>
    <path id="Path-85" data-name="Path" d="M17.5,9.755c-.209-.08-.428-.161-.654-.242a15.587,15.587,0,0,0-5.289-1.086A2.584,2.584,0,0,1,9.678,7.7L8.642,6.713c.19.18-1.325.779-1.409.791a5.465,5.465,0,0,1-2.58-.456A7.673,7.673,0,0,1,0,2.5L2.947.828A6.378,6.378,0,0,1,11,2.3l.455.549,2.094-.183.552-.048a2.1,2.1,0,0,1,1.217.263.544.544,0,0,0,.026.141l1.349,4.209.084.263Z" transform="translate(149.282 76.049)" fill="#fff" opacity="0.87"/>
    <g id="Group-13" data-name="Group" transform="translate(162.37 86.886)" opacity="0.51">
      <path id="Path-86" data-name="Path" d="M3.1,1.287a18.838,18.838,0,0,0-2.942.166h0L0,.654.82,0Z" transform="translate(0 2.281)" fill="#fff"/>
      <path id="Path-87" data-name="Path" d="M9.353,6.953l-.082.374L4.165,5.012,1.947,4.005.682,3.432.43,2.165h0L.028.141,0,0,.1.093C.589.529,1.2,1.027,1.872,1.557c.651.511,1.367,1.051,2.1,1.593.559.412,1.129.825,1.693,1.228C7.026,5.35,8.343,6.263,9.353,6.953Z" transform="translate(0.506 5.489)" fill="#fff"/>
      <path id="Path-88" data-name="Path" d="M7.881,3.722l-.043.2-.089.409L7.74,4.37h0L7.7,4.349,5.734,3.237,3.219,1.817.359.2,0,0C.22,0,.443,0,.672,0,2.285.024,4.1.109,5.658.2l.293.466L7.188,2.625Z" transform="translate(3.103 3.569)" fill="#fff"/>
      <path id="Path-89" data-name="Path" d="M5.456,3.409l-.122.56c-.693-.053-1.747-.128-2.952-.2L0,0H1.411Z" transform="translate(6.377 0)" fill="#fff"/>
    </g>
    <g id="Group-14" data-name="Group" transform="translate(159.217 68.116)" opacity="0.29">
      <path id="Path-90" data-name="Path" d="M.012,0c.326.267.64.549.952.833s.613.578.911.875Q2.769,2.6,3.6,3.558T5.171,5.534q.749,1.02,1.4,2.106.326.543.625,1.1t.564,1.134q.263.576.49,1.171c.149.4.281.8.4,1.2s.22.818.306,1.231l.06.311c.019.1.035.209.053.313l.025.157.021.157c.013.105.029.209.039.315.047.42.073.842.082,1.264v.4l0,.079-.005.158c0,.211-.024.421-.039.631H9.177c.009-.421.008-.842-.017-1.26s-.064-.837-.125-1.251-.135-.827-.23-1.235-.2-.813-.324-1.213A21.717,21.717,0,0,0,6.448,7.716Q5.811,6.631,5.074,5.606T3.526,3.617q-.811-.965-1.692-1.87Q1.394,1.295.936.86C.631.571.321.285,0,.014Z" transform="translate(0 0)" fill="#1f60e5"/>
    </g>
    <g id="Group-15" data-name="Group" transform="translate(150.129 78.622)" opacity="0.33">
      <path id="Path-91" data-name="Path" d="M15.926,4.927c-.151-.122-.3-.242-.46-.357-.337-.249-.68-.489-1.034-.712A21.721,21.721,0,0,0,9.906,1.69Q8.715,1.279,7.49.978T5.021.472Q3.777.265,2.52.149C2.1.113,1.681.08,1.261.058S.419.022,0,.022V0C.421-.005.842,0,1.263.02s.842.041,1.261.073q1.26.1,2.511.287T7.518.861q1.232.288,2.435.689.6.2,1.191.431t1.166.5q.575.268,1.132.571c.371.2.732.424,1.088.653s.7.479,1.032.737l.248.2.03.025Z" transform="translate(0 0)" fill="#1f60e5"/>
    </g>
    <g id="Group-16" data-name="Group" transform="translate(169.316 76.128)" opacity="0.58">
      <path id="Path-92" data-name="Path" d="M11.035.031c-.3.165-.6.337-.9.512Q9.044,1.184,8.006,1.9T5.987,3.41Q5.009,4.2,4.105,5.084A21.742,21.742,0,0,0,.933,8.972C.708,9.325.5,9.688.3,10.057q-.138.256-.265.519L0,10.3l.017-.037.14-.285c.193-.376.4-.747.62-1.107s.458-.711.707-1.054.511-.674.781-1,.554-.638.842-.946.589-.6.894-.9Q4.916,4.1,5.91,3.316T7.952,1.824Q9,1.121,10.1.495C10.4.325,10.7.16,11,0A.405.405,0,0,1,11.035.031Z" transform="translate(0 0)" fill="#1f60e5"/>
    </g>
    <path id="Path-93" data-name="Path" d="M3.951,7.142c-.209-.08-.428-.161-.654-.242C2.576,5.06.618,1.247,0,.056L.552.008A2.1,2.1,0,0,1,1.769.272.544.544,0,0,0,1.8.413L3.144,4.621l.084.263Z" transform="translate(162.827 78.663)" fill="#1f60e5" opacity="0.05"/>
    <path id="Path-94" data-name="Path" d="M2.642,0A9.918,9.918,0,0,1,3,.926C1.818,2.644,1.4,5.432,1.263,7.587c-.025.383-.04.745-.049,1.078,0,.037,0,.073,0,.11s0,.073,0,.11c0,.067,0,.132,0,.195v.014H.105C-.481,5.535,1.517,1.774,2.642,0Z" transform="translate(167.14 77.791)" fill="#1f60e5" opacity="0.08"/>
    <path id="Path-95" data-name="Path" d="M109.741,0V11.045q-.578.141-1.16.268l-.429.093c0-.02.01-.041.015-.061a31.608,31.608,0,0,1-4.927.471,40.585,40.585,0,0,1-4.889-.21C89.913,10.76,81.6,7.726,72.986,7.122c-8.838-.62-17.943.411-25.947,4.209-6.4,3.038-12.493,5.27-18.836,5.744h-.011l-.053,0q-.562.02-1.123.028-1.224.02-2.444-.019l-.363-.014h0q-1.281-.053-2.551-.183h-.016q-.442-.045-.882-.1-.5-.063-1-.141a32.1,32.1,0,0,1-6.021-1.515,23.719,23.719,0,0,1-2.452-1.045h0q-.179-.087-.355-.178a24.382,24.382,0,0,1-4.447-2.928c-.061-.049-.12-.1-.18-.151A21.13,21.13,0,0,1,3.254,7.668,17.422,17.422,0,0,1,1.335,4.6q-.2-.411-.372-.83h0Q.89,3.592.821,3.413h0C.778,3.3.737,3.189.7,3.076s-.078-.22-.114-.333h0C.553,2.654.525,2.565.5,2.476Q.31,1.862.178,1.234C.173,1.209.168,1.184.162,1.157h0C.139,1.045.119.933.1.819.094.8.09.773.087.749.076.689.067.629.059.569.031.381.012.193,0,.007Z" transform="translate(66.874 105.225)" fill="#fff" opacity="0.17"/>
    <path id="Path-96" data-name="Path" d="M3.129,3.578l-.54.334C2.395,2.516.518.526,0,0A10.242,10.242,0,0,1,3.129,3.578Z" transform="translate(147.439 93.335)" fill="#e8635d" opacity="0.3"/>
    <path id="Path-97" data-name="Path" d="M112.4,3.447V5.964H0V0L112.4,3.447Z" transform="translate(66.931 100.489)" fill="#1f60e5" opacity="0.28"/>
    <circle id="Oval-8" data-name="Oval" cx="0.675" cy="0.675" r="0.675" transform="translate(106.321 58.269)" fill="#fff"/>
    <g id="Group-17" data-name="Group" transform="translate(162.904 86.886)" opacity="0.7">
      <path id="Path-98" data-name="Path" d="M12.044,0l-.662,3.029-.356.15-1.582.666h0l-.924.39L5.786,5.386l-2.312.973-1.63.686L.4,7.653,0,5.629l.075-.047,2.851-1.81.313-.2,2-1.269L6.8,1.521,8.219.814,9.849,0Z" transform="translate(0 0)" fill="url(#linear-gradient-4)"/>
      <path id="Path-99" data-name="Path" d="M9.928,0l-.1.441L9.593,1.531l-.043.2-.089.409h0l-.047.02-4.63,1.95-1.5.633L.356,5.972,0,4.181l1.062-.447,2.029-.855L7.444,1.046,8.9.433,9.928,0Z" transform="translate(0.857 5.76)" fill="url(#linear-gradient-5)"/>
    </g>
    <path id="Path-100" data-name="Path" d="M9.015,0,8.782,1.3A10.638,10.638,0,0,1,.491,9.837L0,9.94.31,8.445a10.638,10.638,0,0,1,7.266-8Z" transform="translate(185.718 97.277)" fill="#fff"/>
    <path id="Path-101" data-name="Path" d="M0,.4,1.187.176A9.834,9.834,0,0,1,11.256,4.437l.253.385-1.38.227A9.835,9.835,0,0,1,.863,1.484Z" transform="translate(181.339 109.004)" fill="#fff"/>
    <path id="Path-102" data-name="Path" d="M9.015,0,8.782,1.3A10.638,10.638,0,0,1,.491,9.837L0,9.94.31,8.445a10.638,10.638,0,0,1,7.266-8Z" transform="translate(185.718 97.277)" fill="#fff" opacity="0.54"/>
    <path id="Path-103" data-name="Path" d="M0,.4,1.187.176A9.834,9.834,0,0,1,11.256,4.437l.253.385-1.38.227A9.835,9.835,0,0,1,.863,1.484Z" transform="translate(181.339 109.004)" fill="#fff"/>
    <path id="Path-104" data-name="Path" d="M13.417,2.294l-1.124.692A10.639,10.639,0,0,1,.4,2.493L0,2.2,1.322,1.43a10.638,10.638,0,0,1,10.806.089Z" transform="translate(189.586 104.174)" fill="#fff"/>
    <path id="Path-105" data-name="Path" d="M13.417,2.294l-1.124.692A10.639,10.639,0,0,1,.4,2.493L0,2.2,1.322,1.43a10.638,10.638,0,0,1,10.806.089Z" transform="translate(189.586 104.174)" fill="#fff"/>
    <path id="Path-106" data-name="Path" d="M9.015,0,8.782,1.3A10.638,10.638,0,0,1,.491,9.837L0,9.94.31,8.445a10.638,10.638,0,0,1,7.266-8Z" transform="translate(185.718 97.277)" fill="#fff"/>
    <path id="Path-107" data-name="Path" d="M.045,10.829.182,12.3l.41-.272A11.552,11.552,0,0,0,4.871,6.792a.022.022,0,0,0,0-.007,11.1,11.1,0,0,0,.775-5.522L5.5,0,4.334.928a11.514,11.514,0,0,0-4.289,9.9Z" transform="translate(177.187 99.575)" fill="#fff"/>
    <path id="Path-108" data-name="Path" d="M0,.406.863,1.485a9.828,9.828,0,0,0,9.266,3.565l1.38-.227-.253-.385A9.834,9.834,0,0,0,4.8.16h0A9.758,9.758,0,0,0,1.188.177Z" transform="translate(181.339 109.003)" fill="#fff"/>
    <g id="Group-18" data-name="Group" transform="translate(173.937 105.324)" opacity="0.78">
      <path id="Path-109" data-name="Path" d="M0,10.417l.3.063A16.348,16.348,0,0,1,2.072,8.207c.075-.082.152-.163.229-.243a18.466,18.466,0,0,1,1.733-1.58A22.178,22.178,0,0,1,7.447,4.141c.066-.037.13-.07.194-.1a30.626,30.626,0,0,1,6.232-2.411c.287-.077.57-.152.851-.22q.549-.135,1.079-.248h0c.442-.1.874-.181,1.289-.256a36.665,36.665,0,0,1,5.59-.613.146.146,0,1,0,0-.289,36.836,36.836,0,0,0-5.524.6q-.537.1-1.106.213c-.11.022-.22.046-.329.07q-.466.1-.948.218t-.968.248H13.8q-.732.2-1.436.422A28.518,28.518,0,0,0,6.319,4.435q-.445.266-.869.547-.721.476-1.38.994-.329.256-.646.527A18.821,18.821,0,0,0,1.976,7.879c-.077.082-.154.164-.228.247A16.883,16.883,0,0,0,.005,10.4.09.09,0,0,0,0,10.417Z" transform="translate(0 0)" fill="#fe7101"/>
    </g>
    <path id="Path-110" data-name="Path" d="M9.015,0,8.782,1.3A10.639,10.639,0,0,1,.491,9.837L0,9.94.31,8.445a10.64,10.64,0,0,1,7.266-8Z" transform="translate(185.675 97.554)" fill="#fe7101" opacity="0.69"/>
    <path id="Path-111" data-name="Path" d="M.045,10.552l.137,1.469.41-.272A11.552,11.552,0,0,0,4.871,6.516a.022.022,0,0,0,0-.007,11.8,11.8,0,0,0,.549-5.155L5.26,0,4.016.994a12.123,12.123,0,0,0-.994.886A11.435,11.435,0,0,0,.045,10.552Z" transform="translate(177.187 99.852)" fill="#fe7101" opacity="0.44"/>
    <path id="Path-112" data-name="Path" d="M0,.406.863,1.485A8.976,8.976,0,0,0,9.647,4.974l1.38-.227-.253-.385A9.834,9.834,0,0,0,4.319.084h0A9.749,9.749,0,0,0,1.188.177Z" transform="translate(181.822 109.079)" fill="#fe7101" opacity="0.43"/>
    <path id="Path-113" data-name="Path" d="M13.417,2.294l-1.124.692A10.639,10.639,0,0,1,.4,2.493L0,2.2,1.322,1.43a10.638,10.638,0,0,1,10.806.089Z" transform="translate(189.586 104.174)" fill="#fff"/>
    <path id="Path-114" data-name="Path" d="M13.417,2.294l-1.124.692A10.639,10.639,0,0,1,.4,2.493L0,2.2,1.322,1.43a10.638,10.638,0,0,1,10.806.089Z" transform="translate(189.586 104.174)" fill="#fe7101" opacity="0.45"/>
    <path id="Path-115" data-name="Path" d="M17.88,1.694h0l-.4.088-.037.009h0c-.076-.033-.17-.073-.279-.117s-.247-.1-.4-.154L16.711,1.5A20,20,0,0,0,12.7.47c-.436-.064-.89-.114-1.357-.144A15.148,15.148,0,0,0,9.19.337c-.11.009-.22.018-.332.03h0A12.725,12.725,0,0,0,6.677.78a11.615,11.615,0,0,0-1.751.648q-.237.11-.473.234a11.235,11.235,0,0,0-1.01.6,12.288,12.288,0,0,0-3.18,3.1.143.143,0,0,1-.118.06H.135A.138.138,0,0,1,.06,5.4a.131.131,0,0,1-.047-.059A.144.144,0,0,1,.027,5.2,12.816,12.816,0,0,1,3.072,2.155,11.455,11.455,0,0,1,5.558.834a11.85,11.85,0,0,1,1.229-.4A12.909,12.909,0,0,1,8.67.09c.11-.012.22-.024.333-.034a15.419,15.419,0,0,1,2.37-.02c.343.022.68.055,1.008.1a20.074,20.074,0,0,1,4.188,1.005c.091.033.18.064.262.1s.152.057.22.084c.1.04.194.076.276.11.311.127.485.21.492.213A.15.15,0,0,1,17.88,1.694Z" transform="translate(72.632 118.139)" fill="#fff"/>
    <path id="Path-116" data-name="Path" d="M5.261,0,4.422.374A7.475,7.475,0,0,0,0,7.413l.01.35L.972,7.3A7.475,7.475,0,0,0,5.193,1.048Z" transform="translate(67.715 123.109)" fill="#fff"/>
    <path id="Path-117" data-name="Path" d="M2.92,0,2.261.64A7.476,7.476,0,0,0,.533,8.769l.13.325.742-.761A7.475,7.475,0,0,0,3.218,1.008Z" transform="translate(74.586 119.392)" fill="#fff"/>
    <path id="Path-118" data-name="Path" d="M2.92,0,2.261.64A7.476,7.476,0,0,0,.533,8.769l.13.325.742-.761A7.475,7.475,0,0,0,3.218,1.008Z" transform="translate(74.586 119.392)" fill="#fe7101" opacity="0.78"/>
    <g id="Group-19" data-name="Group" transform="translate(72.632 118.139)" opacity="0.78">
      <path id="Path-119" data-name="Path" d="M17.88,1.694h0l-.4.088-.037.009h0c-.076-.033-.17-.073-.279-.117s-.247-.1-.4-.154L16.711,1.5A20,20,0,0,0,12.7.47c-.436-.064-.89-.114-1.357-.144A15.148,15.148,0,0,0,9.19.337c-.11.009-.22.018-.332.03h0A12.725,12.725,0,0,0,6.677.78a11.615,11.615,0,0,0-1.751.648q-.237.11-.473.234a11.235,11.235,0,0,0-1.01.6,12.288,12.288,0,0,0-3.18,3.1.143.143,0,0,1-.118.06H.135A.138.138,0,0,1,.06,5.4a.131.131,0,0,1-.047-.059A.144.144,0,0,1,.027,5.2,12.816,12.816,0,0,1,3.072,2.155,11.455,11.455,0,0,1,5.558.834a11.85,11.85,0,0,1,1.229-.4A12.909,12.909,0,0,1,8.67.09c.11-.012.22-.024.333-.034a15.419,15.419,0,0,1,2.37-.02c.343.022.68.055,1.008.1a20.074,20.074,0,0,1,4.188,1.005c.091.033.18.064.262.1s.152.057.22.084c.1.04.194.076.276.11.311.127.485.21.492.213A.15.15,0,0,1,17.88,1.694Z" transform="translate(0 0)" fill="#fe7101"/>
    </g>
    <path id="Path-120" data-name="Path" d="M5.261,0,4.422.374A7.475,7.475,0,0,0,0,7.413l.01.35L.972,7.3A7.475,7.475,0,0,0,5.193,1.048Z" transform="translate(67.715 123.109)" fill="#fe7101" opacity="0.42"/>
    <path id="Path-121" data-name="Path" d="M20.989,13.8l-.309.015a16.351,16.351,0,0,0-1.4-2.518q-.093-.139-.19-.276a18.441,18.441,0,0,0-1.468-1.83A22.177,22.177,0,0,0,14.6,6.448c-.059-.045-.117-.089-.176-.131A30.646,30.646,0,0,0,8.638,2.973c-.272-.121-.54-.238-.805-.349q-.522-.217-1.027-.411h0c-.422-.164-.835-.314-1.234-.452A36.534,36.534,0,0,0,.143.293.146.146,0,1,1,.19.007,36.885,36.885,0,0,1,5.556,1.448q.516.179,1.061.382l.314.12q.445.171.9.362t.918.394s0,0,0,0q.693.309,1.354.639a28.505,28.505,0,0,1,5.559,3.567q.4.332.774.674.639.583,1.21,1.2.287.306.557.622a18.672,18.672,0,0,1,1.218,1.583q.1.139.188.279a16.881,16.881,0,0,1,1.37,2.517.063.063,0,0,1,0,.016Z" transform="translate(62.208 107.206)" fill="#fff"/>
    <path id="Path-122" data-name="Path" d="M17.682,4.983a.177.177,0,0,1-.146-.076A9.635,9.635,0,0,0,16.5,3.661C13.633.75,9.368.263,6.294.367a26.137,26.137,0,0,0-6.064.94.177.177,0,1,1-.1-.339A26.521,26.521,0,0,1,6.281.013c3.144-.106,7.514.4,10.472,3.4A10.013,10.013,0,0,1,17.827,4.7a.178.178,0,0,1-.146.279Z" transform="translate(171.682 114.355)" fill="#fff"/>
    <path id="Path-123" data-name="Path" d="M6.141,8.138A7.735,7.735,0,0,0,.118,0S-1.361,5.676,6.141,8.138Z" transform="translate(175.408 114.609)" fill="#fff"/>
    <path id="Path-124" data-name="Path" d="M9.391.408A7.735,7.735,0,0,0,0,4.19S5.12,7.05,9.391.408Z" transform="translate(180.618 110.24)" fill="#fff"/>
    <path id="Path-125" data-name="Path" d="M.384.062C.539-.413,6.9,1.788,4.889,8.229,4.889,8.229-1.624,6.26.384.062Z" transform="translate(186.626 117.784)" fill="#fff"/>
    <g id="Group-20" data-name="Group" transform="translate(171.682 110.24)" opacity="0.78">
      <path id="Path-126" data-name="Path" d="M17.682,4.983a.177.177,0,0,1-.146-.076A9.635,9.635,0,0,0,16.5,3.661C13.633.75,9.368.263,6.294.367a26.137,26.137,0,0,0-6.064.94.177.177,0,1,1-.1-.339A26.521,26.521,0,0,1,6.281.013c3.144-.106,7.514.4,10.472,3.4A10.013,10.013,0,0,1,17.827,4.7a.178.178,0,0,1-.146.279Z" transform="translate(0 4.115)" fill="#fe7101"/>
      <g id="Group-21" data-name="Group" transform="translate(3.726 4.369)" opacity="0.61">
        <path id="Path-127" data-name="Path" d="M6.141,8.138A7.735,7.735,0,0,0,.118,0S-1.361,5.676,6.141,8.138Z" transform="translate(0 0)" fill="#fe7101"/>
      </g>
      <path id="Path-128" data-name="Path" d="M9.391.408A7.735,7.735,0,0,0,0,4.19S5.12,7.05,9.391.408Z" transform="translate(8.937 0)" fill="#fe7101"/>
      <g id="Group-22" data-name="Group" transform="translate(14.944 6.37)" opacity="0.42">
        <path id="Path-129" data-name="Path" d="M.384.062C.539-.413,6.9,1.788,4.889,8.229,4.889,8.229-1.624,6.26.384.062Z" transform="translate(0 0)" fill="#fe7101"/>
      </g>
    </g>
    <path id="Path-130" data-name="Path" d="M10.137,6.132h0c0,.159-.01.318-.019.476-.005.1-.012.2-.018.3-.009.121-.019.242-.031.362A11.829,11.829,0,0,1,9.816,8.88a31.608,31.608,0,0,1-4.927.471A40.585,40.585,0,0,1,0,9.141,14.75,14.75,0,0,1,7.992.607,15.956,15.956,0,0,1,9.622,0s.014.073.037.209c.018.1.041.235.067.4A31.367,31.367,0,0,1,10.137,6.132Z" transform="translate(165.224 107.688)" fill="#fff"/>
    <path id="Path-131" data-name="Path" d="M5.247,5.924h0c0,.159-.01.318-.019.476-.005.1-.012.2-.018.3-.009.121-.019.242-.031.362a11.829,11.829,0,0,1-.253,1.607A31.608,31.608,0,0,1,0,9.143,70.813,70.813,0,0,1,4.528.4c.083-.137.164-.269.243-.4.018.1.041.235.067.4A31.5,31.5,0,0,1,5.247,5.924Z" transform="translate(170.114 107.897)" fill="#fff" opacity="0.56"/>
    <g id="Group-23" data-name="Group" transform="translate(165.224 107.688)" opacity="0.67">
      <path id="Path-132" data-name="Path" d="M10.137,6.132h0c0,.159-.01.318-.019.476-.005.1-.012.2-.018.3-.009.121-.019.242-.031.362A11.829,11.829,0,0,1,9.816,8.88a31.608,31.608,0,0,1-4.927.471A40.585,40.585,0,0,1,0,9.141,14.75,14.75,0,0,1,7.992.607,15.956,15.956,0,0,1,9.622,0s.014.073.037.209c.018.1.041.235.067.4A31.367,31.367,0,0,1,10.137,6.132Z" transform="translate(0 0)" fill="#ffb600"/>
    </g>
    <path id="Path-133" data-name="Path" d="M5.247,5.924h0c0,.159-.01.318-.019.476-.005.1-.012.2-.018.3-.009.121-.019.242-.031.362a11.829,11.829,0,0,1-.253,1.607A31.608,31.608,0,0,1,0,9.143,70.813,70.813,0,0,1,4.528.4c.083-.137.164-.269.243-.4.018.1.041.235.067.4A31.5,31.5,0,0,1,5.247,5.924Z" transform="translate(170.114 107.897)" fill="#fe7101" opacity="0.5"/>
    <path id="Path-134" data-name="Path" d="M0,0,.029,1.32A10.639,10.639,0,0,0,6.9,11.033l.47.177L7.3,9.686A10.638,10.638,0,0,0,1.352.661Z" transform="translate(65.5 99.554)" fill="#fff"/>
    <path id="Path-135" data-name="Path" d="M12.053.986,10.915.577A9.834,9.834,0,0,0,.309,3.233L0,3.574l1.328.437a9.835,9.835,0,0,0,9.705-2.091Z" transform="translate(64.808 112.622)" fill="#fff"/>
    <path id="Path-136" data-name="Path" d="M0,0,.029,1.32A10.639,10.639,0,0,0,6.9,11.033l.47.177L7.3,9.686A10.638,10.638,0,0,0,1.352.661Z" transform="translate(65.5 99.554)" fill="#fff" opacity="0.54"/>
    <path id="Path-137" data-name="Path" d="M12.053.986,10.915.577A9.834,9.834,0,0,0,.309,3.233L0,3.574l1.328.437a9.835,9.835,0,0,0,9.705-2.091Z" transform="translate(64.808 112.622)" fill="#fff"/>
    <path id="Path-138" data-name="Path" d="M0,1.351l1,.857A10.639,10.639,0,0,0,12.828,3.555l.445-.232-1.187-.959A10.639,10.639,0,0,0,1.4.783Z" transform="translate(55.911 106.007)" fill="#fff"/>
    <path id="Path-139" data-name="Path" d="M0,1.351l1,.857A10.639,10.639,0,0,0,12.828,3.555l.445-.232-1.187-.959A10.639,10.639,0,0,0,1.4.783Z" transform="translate(55.911 106.007)" fill="#fff"/>
    <path id="Path-140" data-name="Path" d="M0,0,.029,1.32A10.639,10.639,0,0,0,6.9,11.033l.47.177L7.3,9.686A10.638,10.638,0,0,0,1.352.661Z" transform="translate(65.5 99.554)" fill="#fff"/>
    <path id="Path-141" data-name="Path" d="M4.458,11.541,4.1,12.971l-.363-.332A11.536,11.536,0,0,1,.313,6.807a.015.015,0,0,1,0-.007A11.106,11.106,0,0,1,.4,1.225L.744,0,1.751,1.1A11.39,11.39,0,0,1,2.858,2.514,11.433,11.433,0,0,1,4.458,11.541Z" transform="translate(76.307 103.685)" fill="#fff"/>
    <path id="Path-142" data-name="Path" d="M12.053.988l-1.019.933A9.828,9.828,0,0,1,1.328,4.012L0,3.575l.309-.341A9.835,9.835,0,0,1,7.348,0h0a9.771,9.771,0,0,1,3.565.575Z" transform="translate(64.808 112.621)" fill="#fff"/>
    <g id="Group-24" data-name="Group" transform="translate(62.208 107.206)" opacity="0.78">
      <path id="Path-143" data-name="Path" d="M20.989,13.8l-.309.015a16.351,16.351,0,0,0-1.4-2.518q-.093-.139-.19-.276a18.441,18.441,0,0,0-1.468-1.83A22.177,22.177,0,0,0,14.6,6.448c-.059-.045-.117-.089-.176-.131A30.646,30.646,0,0,0,8.638,2.973c-.272-.121-.54-.238-.805-.349q-.522-.217-1.027-.411h0c-.422-.164-.835-.314-1.234-.452A36.534,36.534,0,0,0,.143.293.146.146,0,1,1,.19.007,36.885,36.885,0,0,1,5.556,1.448q.516.179,1.061.382l.314.12q.445.171.9.362t.918.394s0,0,0,0q.693.309,1.354.639a28.505,28.505,0,0,1,5.559,3.567q.4.332.774.674.639.583,1.21,1.2.287.306.557.622a18.672,18.672,0,0,1,1.218,1.583q.1.139.188.279a16.881,16.881,0,0,1,1.37,2.517.063.063,0,0,1,0,.016Z" transform="translate(0 0)" fill="#fe7101"/>
    </g>
    <path id="Path-144" data-name="Path" d="M0,0,.029,1.32A10.638,10.638,0,0,0,6.9,11.035l.47.178L7.3,9.687A10.638,10.638,0,0,0,1.352.662Z" transform="translate(65.5 99.834)" fill="#fe7101" opacity="0.42"/>
    <path id="Path-145" data-name="Path" d="M4.32,11.23l-.362,1.43L3.6,12.329A11.536,11.536,0,0,1,.175,6.5a.015.015,0,0,1,0-.007A11.806,11.806,0,0,1,.428,1.312L.8,0,1.874,1.175A12.051,12.051,0,0,1,2.719,2.2,11.427,11.427,0,0,1,4.32,11.23Z" transform="translate(76.445 103.995)" fill="#fe7101" opacity="0.17"/>
    <path id="Path-146" data-name="Path" d="M11.564.984l-1.02.933A9.844,9.844,0,0,1,4.146,4.5a9.752,9.752,0,0,1-2.818-.487L0,3.572.309,3.23A9.835,9.835,0,0,1,7.348,0h0a9.751,9.751,0,0,1,3.074.575Z" transform="translate(64.809 112.624)" fill="#fe7101" opacity="0.43"/>
    <path id="Path-147" data-name="Path" d="M0,1.351l1,.857A10.639,10.639,0,0,0,12.828,3.555l.445-.232-1.187-.959A10.639,10.639,0,0,0,1.4.783Z" transform="translate(55.911 106.007)" fill="#fff"/>
    <path id="Path-148" data-name="Path" d="M0,1.351l1,.857A10.639,10.639,0,0,0,12.828,3.555l.445-.232-1.187-.959A10.639,10.639,0,0,0,1.4.783Z" transform="translate(55.911 106.007)" fill="#fe7101" opacity="0.78"/>
    <path id="Path-149" data-name="Path" d="M7.766,11.22c-.04.213-.082.421-.129.629-.094.424-.2.838-.329,1.238q-.031.1-.064.2c-.026.078-.053.155-.081.232-.018.05-.037.1-.054.148q-.06.165-.124.323c-.011.026-.02.052-.031.077s-.029.069-.044.1c-.021.05-.042.1-.065.149-.037.086-.077.17-.117.254-.016.033-.032.068-.049.1l-.073.146-.028.056c-.006.012-.013.024-.019.037q-.562.02-1.123.028-1.224.02-2.444-.019L3,14.927l.36.02L3,14.929l-.037,0-.334-.02h0l-.437-.026-.026,0c-.142-.009-.284-.018-.425-.028-.037,0-.077,0-.115-.007l-.251-.018-.278-.02h0l-.408-.031H.647l-.068-.005-.131-.011-.034,0c-.023,0-.046,0-.068-.005l-.269-.024c-.01-.114-.021-.232-.03-.36h0c0-.037,0-.073-.007-.11-.009-.13-.016-.265-.023-.406a18.127,18.127,0,0,1,.018-1.9c.006-.1.012-.2.021-.3A16.893,16.893,0,0,1,.28,9.911v0c.047-.262.1-.529.166-.8v0a14.575,14.575,0,0,1,.8-2.432h0c.017-.039.033-.077.051-.116v0a12.978,12.978,0,0,1,1.8-2.945c.192-.237.4-.47.612-.7h0s0-.005.007-.008c.151-.16.306-.315.469-.471h0c.105-.1.215-.2.326-.3h0q.453-.4.966-.785.3-.22.62-.433A15.364,15.364,0,0,1,7.678,0s.057.335.132.915c.1.743.224,1.889.3,3.243A30.938,30.938,0,0,1,7.766,11.22Z" transform="translate(88.455 107.391)" fill="#fff"/>
    <path id="Path-150" data-name="Path" d="M7.766,11.22c-.04.213-.082.421-.129.629-.094.424-.2.838-.329,1.238q-.031.1-.064.2c-.026.078-.053.155-.081.232-.018.05-.037.1-.054.148q-.06.165-.124.323c-.011.026-.02.052-.031.077s-.029.069-.044.1c-.021.05-.042.1-.065.149-.037.086-.077.17-.117.254-.016.033-.032.068-.049.1l-.073.146-.028.056c-.006.012-.013.024-.019.037q-.562.02-1.123.028-1.224.02-2.444-.019L3,14.927l.36.02L3,14.929l-.037,0-.334-.02h0l-.437-.026-.026,0c-.142-.009-.284-.018-.425-.028-.037,0-.077,0-.115-.007l-.251-.018-.278-.02h0l-.408-.031H.647l-.068-.005-.131-.011-.034,0c-.023,0-.046,0-.068-.005l-.269-.024c-.01-.114-.021-.232-.03-.36h0c0-.037,0-.073-.007-.11-.009-.13-.016-.265-.023-.406a18.127,18.127,0,0,1,.018-1.9c.006-.1.012-.2.021-.3A16.893,16.893,0,0,1,.28,9.911v0c.047-.262.1-.529.166-.8v0a14.575,14.575,0,0,1,.8-2.432h0c.017-.039.033-.077.051-.116v0a12.978,12.978,0,0,1,1.8-2.945c.192-.237.4-.47.612-.7h0s0-.005.007-.008c.151-.16.306-.315.469-.471h0c.105-.1.215-.2.326-.3h0q.453-.4.966-.785.3-.22.62-.433A15.364,15.364,0,0,1,7.678,0s.057.335.132.915c.1.743.224,1.889.3,3.243A30.938,30.938,0,0,1,7.766,11.22Z" transform="translate(88.455 107.391)" fill="#ffb600" opacity="0.67"/>
    <path id="Path-151" data-name="Path" d="M7.11,10.759q-.06.165-.124.323c-.011.026-.02.052-.031.077s-.029.069-.044.1c-.021.05-.042.1-.065.149-.037.086-.077.17-.117.254-.016.033-.032.068-.049.1l-.073.146-.028.056c-.006.012-.013.024-.019.037q-.562.02-1.123.028-1.224.02-2.444-.019L3,12.021l.36.02L3,12.022l-.037,0L2.628,12h0l-.437-.026-.026,0c-.142-.009-.284-.018-.425-.028-.037,0-.077,0-.115-.007l-.251-.018-.278-.02h0l-.408-.031H.647l-.068-.005-.131-.011-.034,0c-.023,0-.046,0-.068-.005L.076,11.82c-.01-.114-.021-.232-.03-.36h0c0-.037,0-.073-.007-.11-.009-.13-.016-.265-.023-.406a18.127,18.127,0,0,1,.018-1.9c.006-.1.012-.2.021-.3A16.893,16.893,0,0,1,.28,7V7c.047-.262.1-.529.166-.8v0a14.575,14.575,0,0,1,.8-2.432h0c.017-.039.033-.077.051-.116v0A12.978,12.978,0,0,1,3.091.708c.192-.237.4-.47.612-.7h0S3.707,0,3.71,0c.044.071.087.142.129.214.011.016.02.032.029.049.06.1.119.2.175.307S4.17.8,4.231.924c.025.046.05.095.073.143A20.917,20.917,0,0,1,5.234,3.2c.065.17.127.342.186.515.016.044.03.088.046.131.04.115.077.227.115.343h0c.055.163.107.326.159.492l.11.357A40.98,40.98,0,0,1,6.881,9.4c.029.156.056.31.083.463C7.013,10.164,7.063,10.463,7.11,10.759Z" transform="translate(88.455 110.297)" fill="#ffb600" opacity="0.67"/>
    <path id="Path-152" data-name="Path" d="M7.554,17.844l.006.007.36.02-.359-.019-.037,0-.334-.02h0L6.749,17.8l-.026,0c-.142-.009-.284-.018-.425-.028-.037,0-.077,0-.115-.007l-.251-.018-.278-.02h0L5.246,17.7H5.21l-.068-.005-.131-.011-.034,0c-.023,0-.046,0-.068-.005l-.269-.024H4.623l-.2-.016-.243-.021H4.165c-.14-.02-.283-.041-.424-.063q-.5-.063-1-.141l-.026-.033h0c-.235-.293-.476-.605-.719-.941a9.945,9.945,0,0,1-.9-1.5c-.07-.144-.137-.289-.2-.436S.772,14.2.718,14.055c-.039-.1-.073-.2-.11-.3-1.168-3.44-.451-7.2.449-9.918.227-.689.467-1.31.691-1.843.205-.491.4-.906.554-1.229C2.54.275,2.7,0,2.7,0l.131.062.084.044.077.04.05.027.126.07.124.073c.016.01.031.018.046.029.073.046.146.094.22.143L3.62.534l.1.073c.041.03.082.06.121.09L3.885.73l.043.033h0c.029.023.057.045.085.068l.1.082.076.065.044.037c.183.162.362.333.535.516q.179.189.349.392l.055.066h0q.142.171.279.352.271.36.523.751c.079.124.158.25.235.379q.053.088.105.179c.018.031.037.06.052.09s.034.06.052.091.027.048.041.073c.09.163.178.329.263.5a20.84,20.84,0,0,1,.931,2.134q.1.256.185.515c.009.022.016.044.024.066l.013.037.01.028c.04.115.076.227.115.342v0c.033.1.068.2.1.3.02.063.04.125.06.188.06.194.119.39.175.586s.112.392.166.59c.134.492.256.988.372,1.484.046.2.09.4.132.593.026.124.053.247.078.37q.116.554.215,1.1c.027.146.053.293.078.439.051.29.1.578.144.861q.033.213.065.423c.187,1.244.319,2.4.414,3.4Q8.774,17.883,7.554,17.844Z" transform="translate(83.89 104.465)" fill="#fff"/>
    <path id="Path-153" data-name="Path" d="M7.554,17.844l.006.007.36.02-.359-.019-.037,0-.334-.02h0L6.749,17.8l-.026,0c-.142-.009-.284-.018-.425-.028-.037,0-.077,0-.115-.007l-.251-.018-.278-.02h0L5.246,17.7H5.21l-.068-.005-.131-.011-.034,0c-.023,0-.046,0-.068-.005l-.269-.024H4.623l-.2-.016-.243-.021H4.165c-.14-.02-.283-.041-.424-.063q-.5-.063-1-.141l-.026-.033h0c-.235-.293-.476-.605-.719-.941a9.945,9.945,0,0,1-.9-1.5c-.07-.144-.137-.289-.2-.436S.772,14.2.718,14.055c-.039-.1-.073-.2-.11-.3-1.168-3.44-.451-7.2.449-9.918.227-.689.467-1.31.691-1.843.205-.491.4-.906.554-1.229C2.54.275,2.7,0,2.7,0l.131.062.084.044.077.04.05.027.126.07.124.073c.016.01.031.018.046.029.073.046.146.094.22.143L3.62.534l.1.073c.041.03.082.06.121.09L3.885.73l.043.033h0c.029.023.057.045.085.068l.1.082.076.065.044.037c.183.162.362.333.535.516q.179.189.349.392l.055.066h0q.142.171.279.352.271.36.523.751c.079.124.158.25.235.379q.053.088.105.179c.018.031.037.06.052.09s.034.06.052.091.027.048.041.073c.09.163.178.329.263.5a20.84,20.84,0,0,1,.931,2.134q.1.256.185.515c.009.022.016.044.024.066l.013.037.01.028c.04.115.076.227.115.342v0c.033.1.068.2.1.3.02.063.04.125.06.188.06.194.119.39.175.586s.112.392.166.59c.134.492.256.988.372,1.484.046.2.09.4.132.593.026.124.053.247.078.37q.116.554.215,1.1c.027.146.053.293.078.439.051.29.1.578.144.861q.033.213.065.423c.187,1.244.319,2.4.414,3.4Q8.774,17.883,7.554,17.844Z" transform="translate(83.89 104.465)" fill="#ffb600" opacity="0.67"/>
    <path id="Path-154" data-name="Path" d="M7.092,17.763q-1.224.02-2.444-.019a13.769,13.769,0,0,1-1.632-2.489c-.067-.128-.132-.258-.2-.389a20.278,20.278,0,0,1-.886-2.133,36.466,36.466,0,0,1-1.757-9Q.1,2.786.059,1.887C.04,1.468.025,1.057.014.659Q.005.324,0,0L.077.04l.05.027.126.07L.377.211C.392.221.408.229.423.24.5.286.569.334.643.383L.708.428.81.5c.041.03.082.06.121.09L.973.624l.043.033h0C1.044.68,1.073.7,1.1.726l.1.082.076.065L1.321.91c.183.162.362.333.535.516q.179.189.349.392c.019.022.037.044.055.066q.142.171.279.352.271.36.523.751c.079.124.158.25.235.379q.053.088.105.179c.018.031.037.06.052.09s.034.06.051.091h0c.013.024.027.048.041.073.09.163.178.329.263.5A20.839,20.839,0,0,1,4.74,6.43q.1.256.185.515c.009.022.016.044.024.066l.013.037c0,.011.006.018.01.028.04.114.077.227.115.342v0c.033.1.068.2.1.3.02.063.04.125.059.188.061.194.119.39.176.586s.112.392.166.59c.134.492.256.988.372,1.484.046.2.09.4.132.593.026.124.053.247.078.37q.114.554.214,1.1.041.22.079.439c.051.29.1.578.144.861q.033.213.065.423C6.864,15.6,7,16.765,7.092,17.763Z" transform="translate(86.797 104.566)" fill="#fff"/>
    <path id="Path-155" data-name="Path" d="M7.092,17.763q-1.224.02-2.444-.019a13.769,13.769,0,0,1-1.632-2.489c-.067-.128-.132-.258-.2-.389a20.278,20.278,0,0,1-.886-2.133,36.466,36.466,0,0,1-1.757-9Q.1,2.786.059,1.887C.04,1.468.025,1.057.014.659Q.005.324,0,0L.077.04l.05.027.126.07L.377.211C.392.221.408.229.423.24.5.286.569.334.643.383L.708.428.81.5c.041.03.082.06.121.09L.973.624l.043.033h0C1.044.68,1.073.7,1.1.726l.1.082.076.065L1.321.91c.183.162.362.333.535.516q.179.189.349.392c.019.022.037.044.055.066q.142.171.279.352.271.36.523.751c.079.124.158.25.235.379q.053.088.105.179c.018.031.037.06.052.09s.034.06.051.091h0c.013.024.027.048.041.073.09.163.178.329.263.5A20.839,20.839,0,0,1,4.74,6.43q.1.256.185.515c.009.022.016.044.024.066l.013.037c0,.011.006.018.01.028.04.114.077.227.115.342v0c.033.1.068.2.1.3.02.063.04.125.059.188.061.194.119.39.176.586s.112.392.166.59c.134.492.256.988.372,1.484.046.2.09.4.132.593.026.124.053.247.078.37q.114.554.214,1.1.041.22.079.439c.051.29.1.578.144.861q.033.213.065.423C6.864,15.6,7,16.765,7.092,17.763Z" transform="translate(86.797 104.566)" fill="#ffb600" opacity="0.29"/>
    <circle id="Oval-9" data-name="Oval" cx="1.165" cy="1.165" r="1.165" transform="translate(46.807 94.404) rotate(-81.37)" fill="#f77188" opacity="0.28"/>
    <circle id="Oval-10" data-name="Oval" cx="0.98" cy="0.98" r="0.98" transform="translate(48.892 103.288) rotate(-45)" fill="#f77188" opacity="0.57"/>
    <circle id="Oval-11" data-name="Oval" cx="0.643" cy="0.643" r="0.643" transform="translate(66.85 123.338)" fill="#ffb600" opacity="0.35"/>
    <circle id="Oval-12" data-name="Oval" cx="0.643" cy="0.643" r="0.643" transform="translate(183.302 120.632)" fill="#ffb600" opacity="0.72"/>
    <circle id="Oval-13" data-name="Oval" cx="0.674" cy="0.674" r="0.674" transform="translate(194.027 115.974)" fill="#f77188" opacity="0.28"/>
    <circle id="Oval-14" data-name="Oval" cx="0.827" cy="0.827" r="0.827" transform="translate(198.899 101.91)" fill="#ffb600" opacity="0.54"/>
  </g>
</svg>
