<svg xmlns="http://www.w3.org/2000/svg" xmlns:xlink="http://www.w3.org/1999/xlink" width="176" height="115.737" viewBox="0 0 176 115.737">
  <defs>
    <clipPath id="clip-path">
      <path id="Path" d="M147.47,63.035a24.75,24.75,0,0,1,4.538,16.3q-.026.589-.076,1.174-.013.165-.03.327h0a25.952,25.952,0,0,1-2.26,8.516q-.1.225-.216.448t-.212.416h0c-.071.139-.145.275-.22.412a20.811,20.811,0,0,1-1.479,2.322q-.31.422-.641.823-.193.235-.393.464-.428.493-.887.958a21.933,21.933,0,0,1-2.82,2.406c-.078.057-.157.113-.237.169a25.469,25.469,0,0,1-4.342,2.432l-.2.086c-.3.129-.6.254-.907.372q-1.265.493-2.581.874c-.9.26-1.814.481-2.734.661q-.4.081-.807.147a34.415,34.415,0,0,1-5.72.488h-.083c-.207,0-.414,0-.62,0h-.076c-.161,0-.322-.006-.484-.011s-.344-.011-.516-.018a.3.3,0,0,1-.045,0l-.348-.016-.347-.019-.347-.021c-.2-.013-.4-.028-.6-.045l-.247-.02-.191-.017-.346-.032-.307-.031h0c-.243-.025-.484-.051-.726-.08l-.345-.042c-.179-.022-.359-.045-.541-.07l-.264-.036-.391-.057c-.112-.016-.224-.033-.334-.051-.064-.009-.128-.019-.192-.03l-.329-.053-.028,0-.33-.056-.179-.031-.277-.049-.227-.041-.343-.064q-.913-.172-1.822-.37l-.269-.06q-1-.221-2-.472l-.647-.164c-.329-.086-.659-.173-.989-.263-.065-.017-.13-.035-.2-.053l-.2-.055-.338-.094q-.948-.264-1.892-.546-.493-.145-.981-.3-.918-.281-1.831-.573l-.334-.107-.766-.247-.129-.042-.441-.143q-1.349-.442-2.689-.891c-8-2.67-16.1-5.449-24.522-5.771-9.039-.344-17.953,2.175-26.4,5.4-3.953,1.511-8.023,3.195-12.131,4.515q-.871.281-1.745.538h0c-1.084.317-2.169.6-3.254.852h0q-1.173.265-2.338.464h0q-.312.054-.623.1l-.112.017q-1.35.2-2.7.3a26.376,26.376,0,0,1-5.334-.148c-.138-.018-.274-.037-.412-.058a22.572,22.572,0,0,1-3.742-.891q-.72-.238-1.419-.527-.256-.1-.509-.217A26.193,26.193,0,0,1,9.5,98.481l-.208-.169q-.339-.281-.67-.569a26.132,26.132,0,0,1-3.351-3.516h0a24.6,24.6,0,0,1-2.412-3.7,23.905,23.905,0,0,1-1.118-2.4c-.058-.146-.115-.293-.169-.439q-.292-.777-.528-1.569C-1.536,77.51.73,67.8,7.124,60.469c4.221-4.842,10.02-7.99,14.8-12.271A40.973,40.973,0,0,0,35.24,21.92c.366-3.756.218-7.62,1.4-11.2A16,16,0,0,1,49.664.108C55.033-.52,60.365,1.673,64.908,4.6c3.619,2.333,6.906,5.145,10.4,7.654.893.642,1.8,1.264,2.729,1.851q.371.235.748.462.754.456,1.527.879.8.442,1.623.847A44.244,44.244,0,0,0,87,18.422a46.417,46.417,0,0,0,35.783-2.152c4.987-2.517,9.936-6.063,15.509-5.7,11.5.756,16.076,14.757,12.852,24.469-1.332,4.011-4.25,7.319-5.8,11.251A18.379,18.379,0,0,0,147.47,63.035Z" transform="translate(0 0)" fill="#1f60e5"/>
    </clipPath>
    <linearGradient id="linear-gradient" x1="-34.704" y1="-0.811" x2="-35.909" y2="1.528" gradientUnits="objectBoundingBox">
      <stop offset="0" stop-color="#4f52ff"/>
      <stop offset="1" stop-color="#4042e2"/>
    </linearGradient>
    <linearGradient id="linear-gradient-2" x1="-26.51" y1="-0.811" x2="-27.716" y2="1.528" xlink:href="#linear-gradient"/>
    <linearGradient id="linear-gradient-3" x1="-18.24" y1="-0.811" x2="-19.446" y2="1.528" xlink:href="#linear-gradient"/>
    <linearGradient id="linear-gradient-4" x1="-10.046" y1="-0.811" x2="-11.252" y2="1.528" xlink:href="#linear-gradient"/>
    <linearGradient id="linear-gradient-5" x1="1.254" y1="0.348" x2="0.119" y2="0.86" gradientUnits="objectBoundingBox">
      <stop offset="0" stop-color="#fe7101"/>
      <stop offset="1" stop-color="#ffa761"/>
    </linearGradient>
    <linearGradient id="linear-gradient-7" x1="-11.319" y1="-0.79" x2="-13.464" y2="1.509" gradientUnits="objectBoundingBox">
      <stop offset="0" stop-color="#ff928e"/>
      <stop offset="1" stop-color="#fe7062"/>
    </linearGradient>
    <linearGradient id="linear-gradient-8" x1="-15.333" y1="-0.791" x2="-17.479" y2="1.509" xlink:href="#linear-gradient-7"/>
    <linearGradient id="linear-gradient-9" x1="1.03" y1="-1.616" x2="0.06" y2="2.235" xlink:href="#linear-gradient-7"/>
    <linearGradient id="linear-gradient-10" x1="1.216" y1="-2.121" x2="0.25" y2="1.4" xlink:href="#linear-gradient-7"/>
    <linearGradient id="linear-gradient-11" x1="1.123" y1="-1.878" x2="0.155" y2="1.797" xlink:href="#linear-gradient-7"/>
    <linearGradient id="linear-gradient-12" x1="0.608" y1="0.264" x2="0.266" y2="1.005" gradientUnits="objectBoundingBox">
      <stop offset="0" stop-color="#8385a5"/>
      <stop offset="1" stop-color="#b2b7d6"/>
    </linearGradient>
    <linearGradient id="linear-gradient-13" x1="0.336" y1="0.26" x2="1.697" y2="1.995" gradientUnits="objectBoundingBox">
      <stop offset="0"/>
      <stop offset="1" stop-color="#1a0f91"/>
    </linearGradient>
    <linearGradient id="linear-gradient-16" x1="0.721" y1="0.212" x2="0.27" y2="0.899" gradientUnits="objectBoundingBox">
      <stop offset="0" stop-color="#febbba"/>
      <stop offset="1" stop-color="#ff928e"/>
    </linearGradient>
    <linearGradient id="linear-gradient-17" x1="0.513" y1="0.631" x2="1.172" y2="-2.738" xlink:href="#linear-gradient-16"/>
    <linearGradient id="linear-gradient-18" x1="-0.177" y1="2.883" x2="0.588" y2="0.434" xlink:href="#linear-gradient-16"/>
    <linearGradient id="linear-gradient-19" x1="0.716" y1="1.11" x2="0.208" y2="-0.407" xlink:href="#linear-gradient-16"/>
    <linearGradient id="linear-gradient-20" x1="1.751" y1="2.976" x2="-0.655" y2="-1.822" xlink:href="#linear-gradient-16"/>
    <linearGradient id="linear-gradient-21" x1="-0.076" y1="1.031" x2="0.732" y2="0.196" gradientUnits="objectBoundingBox">
      <stop offset="0" stop-color="#09005d"/>
      <stop offset="1" stop-color="#1a0f91"/>
    </linearGradient>
    <clipPath id="clip-path-2">
      <path id="Path_80" data-name="Path 80" d="M2854.469,675.688c-.327-.333-1.04-1.616-1.651-4.935a75.388,75.388,0,0,1,0-23.427c.611-3.319,1.323-4.6,1.651-4.935.327.333,1.04,1.616,1.651,4.935.59,3.207,5.25,7.367,5.25,11.713s-4.659,8.506-5.25,11.713C2855.509,674.072,2854.8,675.355,2854.469,675.688Z" transform="translate(-2851.903 -642.392)" fill="none"/>
    </clipPath>
    <linearGradient id="linear-gradient-24" x1="1.291" y1="0.458" x2="-1.117" y2="0.593" xlink:href="#linear-gradient-21"/>
    <linearGradient id="linear-gradient-25" x1="0.525" y1="0.934" x2="0.436" y2="-0.664" xlink:href="#linear-gradient-21"/>
  </defs>
  <g id="PMT_M43_08" transform="translate(-67.643 -48.294)">
    <path id="Path-2" data-name="Path" d="M147.47,63.035a24.75,24.75,0,0,1,4.538,16.3q-.026.589-.076,1.174-.013.165-.03.327h0a25.952,25.952,0,0,1-2.26,8.516q-.1.225-.216.448t-.212.416h0c-.071.139-.145.275-.22.412a20.811,20.811,0,0,1-1.479,2.322q-.31.422-.641.823-.193.235-.393.464-.428.493-.887.958a21.933,21.933,0,0,1-2.82,2.406c-.078.057-.157.113-.237.169a25.469,25.469,0,0,1-4.342,2.432l-.2.086c-.3.129-.6.254-.907.372q-1.265.493-2.581.874c-.9.26-1.814.481-2.734.661q-.4.081-.807.147a34.415,34.415,0,0,1-5.72.488h-.083c-.207,0-.414,0-.62,0h-.076c-.161,0-.322-.006-.484-.011s-.344-.011-.516-.018a.3.3,0,0,1-.045,0l-.348-.016-.347-.019-.347-.021c-.2-.013-.4-.028-.6-.045l-.247-.02-.191-.017-.346-.032-.307-.031h0c-.243-.025-.484-.051-.726-.08l-.345-.042c-.179-.022-.359-.045-.541-.07l-.264-.036-.391-.057c-.112-.016-.224-.033-.334-.051-.064-.009-.128-.019-.192-.03l-.329-.053-.028,0-.33-.056-.179-.031-.277-.049-.227-.041-.343-.064q-.913-.172-1.822-.37l-.269-.06q-1-.221-2-.472l-.647-.164c-.329-.086-.659-.173-.989-.263-.065-.017-.13-.035-.2-.053l-.2-.055-.338-.094q-.948-.264-1.892-.546-.493-.145-.981-.3-.918-.281-1.831-.573l-.334-.107-.766-.247-.129-.042-.441-.143q-1.349-.442-2.689-.891c-8-2.67-16.1-5.449-24.522-5.771-9.039-.344-17.953,2.175-26.4,5.4-3.953,1.511-8.023,3.195-12.131,4.515q-.871.281-1.745.538h0c-1.084.317-2.169.6-3.254.852h0q-1.173.265-2.338.464h0q-.312.054-.623.1l-.112.017q-1.35.2-2.7.3a26.376,26.376,0,0,1-5.334-.148c-.138-.018-.274-.037-.412-.058a22.572,22.572,0,0,1-3.742-.891q-.72-.238-1.419-.527-.256-.1-.509-.217A26.193,26.193,0,0,1,9.5,98.481l-.208-.169q-.339-.281-.67-.569a26.132,26.132,0,0,1-3.351-3.516h0a24.6,24.6,0,0,1-2.412-3.7,23.905,23.905,0,0,1-1.118-2.4c-.058-.146-.115-.293-.169-.439q-.292-.777-.528-1.569C-1.536,77.51.73,67.8,7.124,60.469c4.221-4.842,10.02-7.99,14.8-12.271A40.973,40.973,0,0,0,35.24,21.92c.366-3.756.218-7.62,1.4-11.2A16,16,0,0,1,49.664.108C55.033-.52,60.365,1.673,64.908,4.6c3.619,2.333,6.906,5.145,10.4,7.654.893.642,1.8,1.264,2.729,1.851q.371.235.748.462.754.456,1.527.879.8.442,1.623.847A44.244,44.244,0,0,0,87,18.422a46.417,46.417,0,0,0,35.783-2.152c4.987-2.517,9.936-6.063,15.509-5.7,11.5.756,16.076,14.757,12.852,24.469-1.332,4.011-4.25,7.319-5.8,11.251A18.379,18.379,0,0,0,147.47,63.035Z" transform="translate(78.094 48.294)" fill="#6ecac9"/>
    <g id="PMT_M43_08-2" data-name="PMT_M43_08" transform="translate(78.094 48.294)" clip-path="url(#clip-path)">
      <g id="Group" transform="translate(18.233 80.367)" opacity="0.81">
        <g id="Group-2" data-name="Group" transform="translate(0)">
          <path id="Path-3" data-name="Path" d="M0,6.891,20.5,0" transform="translate(0)" fill="none" stroke="#1f60e5" stroke-width="2"/>
          <path id="Path-4" data-name="Path" d="M0,6.891,20.5,0" transform="translate(0.818 2.44)" fill="none" stroke="#1f60e5" stroke-width="2"/>
          <path id="Path-5" data-name="Path" d="M0,6.891,20.5,0" transform="translate(1.656 4.943)" fill="none" stroke="#1f60e5" stroke-width="2"/>
          <path id="Path-6" data-name="Path" d="M0,6.891,20.5,0" transform="translate(2.494 7.446)" fill="none" stroke="#1f60e5" stroke-width="2"/>
          <path id="Path-7" data-name="Path" d="M0,6.891,20.5,0" transform="translate(3.333 9.949)" fill="none" stroke="#1f60e5" stroke-width="2"/>
        </g>
      </g>
    </g>
    <g id="Group-3" data-name="Group" transform="translate(141.595 66.901)">
      <path id="Path-8" data-name="Path" d="M1.663,1.623.387,2.048l-.074-.3L.16,1.15,0,.513.97,0l.274.642.265.619.154.361Z" transform="translate(1.729 3.802)" fill="#fff"/>
      <path id="Path-9" data-name="Path" d="M6.5,2.743.574,4.718.048,2.795A1.31,1.31,0,0,1,.516,1.4c.026-.019.052-.038.079-.055L.819,1.2,1.18.972,1.373.849l.41-.262L1.8.578l.009.039.049.209L1.974.814,2.851.73,3.162.7,3.026.217,2.994.1,3.068.094l.257-.02L3.6.052,4.239,0a1.131,1.131,0,0,1,.229.009h.009A1.37,1.37,0,0,1,5.437.8Z" transform="translate(0.085 4.49)" fill="#fff"/>
      <path id="Path-10" data-name="Path" d="M6.5,2.743.574,4.718.048,2.795A1.31,1.31,0,0,1,.516,1.4c.026-.019.052-.038.079-.055L.819,1.2,1.18.972,1.373.849l.41-.262L1.8.578l.009.039.049.209L1.974.814,2.851.73,3.162.7,3.026.217,2.994.1,3.068.094l.257-.02L3.6.052,4.239,0a1.131,1.131,0,0,1,.229.009h.009A1.37,1.37,0,0,1,5.437.8Z" transform="translate(0.085 4.49)" fill="#1f60e5" opacity="0.47"/>
      <path id="Path-11" data-name="Path" d="M2.7,1.926a1.614,1.614,0,0,1,.037.6h0q0,.042-.009.083a1.81,1.81,0,0,1-.175.471c-.03.07-.062.142-.1.212a.941.941,0,0,1-.507.493A.814.814,0,0,1,1.4,3.757a2.973,2.973,0,0,1-.707-.428c-.058-.045-.11-.082-.158-.122a.96.96,0,0,1-.314-.451,1.556,1.556,0,0,1-.074-.305c-.03-.2-.033-.4-.055-.6C.06,1.577.029,1.3,0,1.028L1.477,0l.56.759.4.672c.038.064.08.128.12.193a1.272,1.272,0,0,1,.14.3Z" transform="translate(0.393 0.832)" fill="#fff"/>
      <path id="Path-12" data-name="Path" d="M1.146.21A.972.972,0,0,1,.623.733.829.829,0,0,1,.054.7L0,.466A.814.814,0,0,0,.544.493.947.947,0,0,0,1.051,0Z" transform="translate(1.792 4.124)" fill="#1f60e5" opacity="0.11"/>
      <path id="Path-13" data-name="Path" d="M.3,0,.069.195A.2.2,0,0,0,.031.453h0a.672.672,0,0,0,.4.292L.714.82Z" transform="translate(0.287 3.239)" fill="#fff"/>
      <path id="Path-14" data-name="Path" d="M.439.2A.538.538,0,0,1,.42.569l0,0A.078.078,0,0,1,.41.588.632.632,0,0,1,.36.665L.194.884.182.9h0L0,0H.006L.29.008h0A.31.31,0,0,1,.439.2Z" transform="translate(2.944 2.458)" fill="#fff"/>
      <path id="Path-15" data-name="Path" d="M.1.2C.053.109.017.035,0,0Z" transform="translate(2.196 1.394)" fill="#2d1d2c"/>
      <path id="Path-16" data-name="Path" d="M.065.07.013,0Z" transform="translate(2.32 1.66)" fill="#2d1d2c"/>
      <path id="Path-17" data-name="Path" d="M.069.07C.048.047.027.023,0,0Q.038.035.069.07Z" transform="translate(2.59 1.057)" fill="#2d1d2c"/>
      <path id="Path-18" data-name="Path" d="M2.162.884A5.139,5.139,0,0,1,1.516.277,4.22,4.22,0,0,1,.2.716a2.182,2.182,0,0,1-.1.749A8.764,8.764,0,0,0,0,.583C0,.575.013.566.037.556.249.472,1.328.349,1.656,0l0,.01c.013.027.052.108.108.216l0,0a5.635,5.635,0,0,0,.39.654Z" transform="translate(0.529 1.373)" fill="#fff"/>
      <path id="Path-19" data-name="Path" d="M3.8,1.894,3.306,2l.387.327L3.3,3.564,2.838,5.035,1.694,4.1.658,3.254l.154-.878-.4.134L0,1.28.082,1.2.444.972.637.849l.41-.262.024.029.167.2.6.709L2.115.73,2.294.217,2.337.094l.257-.02L2.871.052,3.507,0a1.131,1.131,0,0,1,.229.009h.009Z" transform="translate(0.817 4.491)" fill="#fff"/>
      <path id="Path-20" data-name="Path" d="M3.8,1.894,3.306,2l.387.327L3.3,3.564,2.838,5.035,1.694,4.1.658,3.254l.154-.878-.4.134L0,1.28.082,1.2.444.972.637.849l.41-.262.024.029.167.2.6.709L2.115.73,2.294.217,2.337.094l.257-.02L2.871.052,3.507,0a1.131,1.131,0,0,1,.229.009h.009Z" transform="translate(0.817 4.491)" fill="#003fc3" opacity="0.5"/>
      <path id="Path-21" data-name="Path" d="M1.186,0,1.125.09A.88.88,0,0,1,.132.432L.008.393,0,.538,1.383,3.7,1.5,1.607Z" transform="translate(1.887 4.591)" fill="#fff"/>
      <path id="Path-22" data-name="Path" d="M2.823,1.491a5.212,5.212,0,0,1,.193.991c0,.022.021.129-.121.009-.019-.016-.039-.035-.058-.056s-.04-.045-.06-.067l-.02-.025c-.031-.039-.063-.082-.094-.126l-.026-.039c-.035-.05-.068-.1-.1-.157l-.019-.031L2.5,1.959l-.021-.035-.034-.059-.018-.031L2.38,1.755l-.007-.013-.012-.021L2.328,1.66,2.3,1.6l0,0-.1-.2,0-.006,0-.005h0l0-.009-.021.021c-.35.333-1.39.453-1.6.536-.024.009-.036.018-.037.027a.09.09,0,0,0,0,.027.035.035,0,0,0,0,.006V2.01c0,.006,0,.026.006.042a.07.07,0,0,1,0,.01v.01s0,.018,0,.028,0,.013,0,.019,0,.017,0,.026c0,.03.009.064.014.1a.164.164,0,0,0,0,.021l.014.1a.159.159,0,0,0,0,.035l.007.055,0,.026c0,.014,0,.029,0,.045s.005.054.008.081c0,.045.007.087.01.13a.457.457,0,0,0,0,.066.425.425,0,0,1,0,.063v.109A1.031,1.031,0,0,1,.6,3.129c-.028.143-.071.122-.064.179C.4,2.966.291,2.819.159,2.475A2.363,2.363,0,0,1,.012,1.96a1,1,0,0,1-.01-.2A1.171,1.171,0,0,1,.569.877a1.908,1.908,0,0,1,.7-.284h0A1.967,1.967,0,0,0,1.549.562C2.221.437,2.317,0,2.317,0s.51.606.264,1.06c.015.02.028.039.042.059s.026.039.038.06.012.019.017.03l.017.03c.005.01.011.02.016.03s.026.05.038.076l.01.021c0,.007.01.022.015.034l.009.023.01.024c0,.008.006.016.009.024S2.82,1.483,2.823,1.491Z" transform="translate(0 0)" fill="#003fc3" opacity="0.63"/>
      <path id="Path-23" data-name="Path" d="M.061.042h0L.022.059.054.027Z" transform="translate(2.148 1.352)" fill="#2d1d2c"/>
    </g>
    <path id="Path-24" data-name="Path" d="M8.839,0,0,2.97" transform="translate(148.043 62.864)" fill="none" stroke="#1f60e5" stroke-width="2"/>
    <path id="Path-25" data-name="Path" d="M9.946,0,0,3.343" transform="translate(148.462 63.743)" fill="none" stroke="#1f60e5" stroke-width="2"/>
    <path id="Path-26" data-name="Path" d="M9.946,0,0,3.343" transform="translate(148.462 63.743)" fill="none" stroke="#1f60e5" stroke-width="2"/>
    <path id="Path-27" data-name="Path" d="M11.149,0,0,3.747" transform="translate(148.882 64.59)" fill="none" stroke="#1f60e5" stroke-width="2"/>
    <path id="Path-28" data-name="Path" d="M0,6.891,20.5,0" transform="translate(142.571 69.59)" fill="none" stroke="#1f60e5" stroke-width="2"/>
    <path id="Path-29" data-name="Path" d="M0,6.891,20.5,0" transform="translate(143.388 72.03)" fill="none" stroke="#1f60e5" stroke-width="2"/>
    <path id="Path-30" data-name="Path" d="M0,6.891,20.5,0" transform="translate(144.227 74.533)" fill="none" stroke="#1f60e5" stroke-width="2"/>
    <path id="Path-31" data-name="Path" d="M0,6.891,20.5,0" transform="translate(145.066 77.035)" fill="none" stroke="#1f60e5" stroke-width="2"/>
    <path id="Path-32" data-name="Path" d="M0,6.891,20.5,0" transform="translate(145.904 79.538)" fill="none" stroke="#1f60e5" stroke-width="2"/>
    <path id="Path-33" data-name="Path" d="M17.054,8.426a8.382,8.382,0,0,1-.844,3.728c-.028.06-.058.118-.087.176a8.551,8.551,0,0,1-11.469,3.7l-.017-.009A8.456,8.456,0,0,1,.535,5.527,8.543,8.543,0,0,1,11.965.722c.146.064.29.134.434.2a8.565,8.565,0,0,1,1.454.931,8.474,8.474,0,0,1,3.2,6.568Z" transform="translate(138.9 64.979)" fill="#fff" opacity="0.25"/>
    <path id="Path-34" data-name="Path" d="M17.054,8.426a8.382,8.382,0,0,1-.844,3.728c-.028.06-.058.118-.087.176a8.551,8.551,0,0,1-11.469,3.7l-.017-.009A8.456,8.456,0,0,1,.535,5.527,8.543,8.543,0,0,1,11.965.722c.146.064.29.134.434.2a8.565,8.565,0,0,1,1.454.931,8.474,8.474,0,0,1,3.2,6.568Z" transform="translate(138.9 64.979)" fill="#fff"/>
    <path id="Path-35" data-name="Path" d="M.387,0l-.3.247A.251.251,0,0,0,.041.576h0A.859.859,0,0,0,.549.947l.363.094Z" transform="translate(140.945 70.086)" fill="#fff"/>
    <path id="Path-36" data-name="Path" d="M.561.261A.679.679,0,0,1,.536.723l0,.006L.524.747a.9.9,0,0,1-.065.1l-.212.278-.015.02h0L0,0H.009L.371.01l.006,0A.394.394,0,0,1,.561.261Z" transform="translate(144.335 69.093)" fill="#fff"/>
    <path id="Path-37" data-name="Path" d="M.13.259C.067.139.021.044,0,0Z" transform="translate(143.381 67.746)" fill="#2d1d2c"/>
    <path id="Path-38" data-name="Path" d="M.069.078,0,0Z" transform="translate(143.55 68.082)" fill="#2d1d2c"/>
    <path id="Path-39" data-name="Path" d="M.07.075C.047.05.024.025,0,0,.025.027.048.05.07.075Z" transform="translate(143.887 67.318)" fill="#2d1d2c"/>
    <path id="Path-40" data-name="Path" d="M.064.041h0l-.05.02L.055.021Z" transform="translate(143.331 67.702)" fill="#2d1d2c"/>
    <path id="Path-41" data-name="Path" d="M10.012,9.365,3.156,11.657,0,2.292,6.857,0l3.156,9.365Z" transform="translate(138.173 64.473)" fill="none"/>
    <path id="Path-42" data-name="Path" d="M15.907,1.909c-1.3-2.841-4.058-2.36-5.14.448-1.185,3.073.074,5.879-2.04,8.934a29.674,29.674,0,0,1-6.934,6.868A4.547,4.547,0,0,0,.324,19.6c-1.59,3.072,3.138,1.23,4.281.566,5.37-3.118,9.664-7.775,11.369-13.786A6.55,6.55,0,0,0,15.907,1.909Z" transform="translate(92.209 74.132)" fill="#6ecac9"/>
    <path id="Path-43" data-name="Path" d="M10.294,6.561C12.32,6.74,15.6,6.368,17,4.667c2.152-2.6-1.474-2.785-3.345-2.489a18.374,18.374,0,0,1-7.629-.417C4.886,1.451,1.989-.221.866.025-.6.345.122,1.773.651,2.445,2.374,4.644,7.637,6.327,10.294,6.561Z" transform="translate(160.175 57.202)" fill="#6ecac9"/>
    <circle id="Oval" cx="6.325" cy="6.325" r="6.325" transform="translate(109.967 57.622)" fill="#fff" opacity="0.91"/>
    <circle id="Oval-2" data-name="Oval" cx="5.981" cy="5.981" r="5.981" transform="translate(177.38 129.927)" fill="#fff" opacity="0.91"/>
    <circle id="Oval-3" data-name="Oval" cx="1.342" cy="1.342" r="1.342" transform="translate(145.022 105.415) rotate(-75.79)" fill="#fff" opacity="0.65"/>
    <circle id="Oval-4" data-name="Oval" cx="0.878" cy="0.878" r="0.878" transform="matrix(0.16, -0.987, 0.987, 0.16, 215.834, 85.009)" fill="#fff"/>
    <circle id="Oval-5" data-name="Oval" cx="0.439" cy="0.439" r="0.439" transform="translate(99.724 110.946)" fill="#fff" opacity="0.79"/>
    <circle id="Oval-6" data-name="Oval" cx="4.095" cy="4.095" r="4.095" transform="translate(99.611 105.859) rotate(-45)" fill="#fff" opacity="0.53"/>
    <circle id="Oval-7" data-name="Oval" cx="1.756" cy="1.756" r="1.756" transform="translate(92.802 116.998)" fill="#fff" opacity="0.91"/>
    <path id="Path-44" data-name="Path" d="M.439,0A.439.439,0,1,1,0,.439.439.439,0,0,1,.439,0Z" transform="translate(85.745 121.787)" fill="#fff" opacity="0.79"/>
    <path id="Path-45" data-name="Path" d="M13.771,5.447,0,10.536V7.278A1.54,1.54,0,0,1,.755,5.954C2.659,4.827,7.688,2.1,10.6.53c.175-.1.342-.186.5-.272l.224-.12a1.173,1.173,0,0,1,1.712.845Z" transform="translate(193.526 79.539)" fill="#003fc3"/>
    <path id="Path-46" data-name="Path" d="M.187.247H.154A.166.166,0,0,1,.025.212.173.173,0,0,1,.012.055C.017.037.021.019.026,0a1,1,0,0,0,.16.247Z" transform="translate(192.063 69.116)" fill="#512d50"/>
    <path id="Path-47" data-name="Path" d="M0,.21A.846.846,0,0,1,.526,0Z" transform="translate(193.931 71.79)" fill="#e8635d" opacity="0.3"/>
    <path id="Path-48" data-name="Path" d="M.291,0A1.055,1.055,0,0,0,.2.121a1.094,1.094,0,0,0-.2,0Z" transform="translate(194.457 71.674)" fill="#e8635d" opacity="0.3"/>
    <path id="Path-49" data-name="Path" d="M.054,0A.2.2,0,0,1,.045.046l0,.023A.42.42,0,0,1,.054,0Z" transform="translate(195.856 79.766)" fill="#fe8796" opacity="0.18"/>
    <path id="Path-50" data-name="Path" d="M.054,0A.2.2,0,0,1,.045.046l0,.023A.42.42,0,0,1,.054,0Z" transform="translate(195.856 79.766)" fill="#fe8796" opacity="0.18"/>
    <path id="Path-51" data-name="Path" d="M0,.015A2.09,2.09,0,0,0,.215,0C.173.087.138.131.114.116A.668.668,0,0,1,0,.015Z" transform="translate(192.25 69.347)" fill="#fe8796" opacity="0.18"/>
    <circle id="Oval-8" data-name="Oval" cx="1.394" cy="1.394" r="1.394" transform="matrix(0.762, -0.648, 0.648, 0.762, 67.754, 129.327)" fill="#6ecac9" opacity="0.28"/>
    <circle id="Oval-9" data-name="Oval" cx="1.173" cy="1.173" r="1.173" transform="matrix(0.996, -0.087, 0.087, 0.996, 71.47, 140.119)" fill="#6ecac9" opacity="0.57"/>
    <circle id="Oval-10" data-name="Oval" cx="0.77" cy="0.77" r="0.77" transform="translate(80.767 153.722) rotate(-48.86)" fill="#ffb600" opacity="0.35"/>
    <circle id="Oval-11" data-name="Oval" cx="0.77" cy="0.77" r="0.77" transform="translate(221.105 156.747) rotate(-84.55)" fill="#ffb600" opacity="0.72"/>
    <circle id="Oval-12" data-name="Oval" cx="0.807" cy="0.807" r="0.807" transform="translate(233.452 150.074) rotate(-47.2)" fill="#6ecac9" opacity="0.28"/>
    <circle id="Oval-13" data-name="Oval" cx="0.99" cy="0.99" r="0.99" transform="translate(238.771 133.898) rotate(-77.19)" fill="#ffb600" opacity="0.54"/>
    <path id="Path-52" data-name="Path" d="M11.036,0l-.285,1.591A13.023,13.023,0,0,1,.6,12.043l-.6.126.38-1.83A13.023,13.023,0,0,1,9.275.546Z" transform="translate(222.482 127.585)" fill="#fff"/>
    <path id="Path-53" data-name="Path" d="M0,.5,1.453.215A12.039,12.039,0,0,1,13.78,5.431l.309.472L12.4,6.18A12.038,12.038,0,0,1,1.056,1.817Z" transform="translate(217.121 141.943)" fill="#fff"/>
    <path id="Path-54" data-name="Path" d="M11.036,0l-.285,1.591A13.023,13.023,0,0,1,.6,12.043l-.6.126.38-1.83A13.023,13.023,0,0,1,9.275.546Z" transform="translate(222.482 127.585)" fill="#fff" opacity="0.54"/>
    <path id="Path-55" data-name="Path" d="M0,.5,1.453.215A12.039,12.039,0,0,1,13.78,5.431l.309.472L12.4,6.18A12.038,12.038,0,0,1,1.056,1.817Z" transform="translate(217.121 141.943)" fill="#fff"/>
    <path id="Path-56" data-name="Path" d="M16.426,2.809l-1.376.848a13.023,13.023,0,0,1-14.557-.6L0,2.688l1.618-.936a13.024,13.024,0,0,1,13.229.108Z" transform="translate(227.217 136.03)" fill="#fff"/>
    <path id="Path-57" data-name="Path" d="M16.426,2.809l-1.376.848a13.023,13.023,0,0,1-14.557-.6L0,2.688l1.618-.936a13.024,13.024,0,0,1,13.229.108Z" transform="translate(227.217 136.03)" fill="#fff"/>
    <path id="Path-58" data-name="Path" d="M11.036,0l-.285,1.591A13.023,13.023,0,0,1,.6,12.043l-.6.126.38-1.83A13.023,13.023,0,0,1,9.275.546Z" transform="translate(222.482 127.585)" fill="#fff"/>
    <g id="Illustration" transform="translate(108.347 53.154)">
      <g id="Group_18" data-name="Group 18" transform="translate(0 0)">
        <g id="Group_9" data-name="Group 9" transform="translate(1.843 11.592)">
          <path id="Path_6" data-name="Path 6" d="M629.341,1162.2c1.318-13.3,4.617-46.319,5.337-51.146.905-6.067,8.339-4.728,8.339-4.728l1.592,61.391H634.244a4.886,4.886,0,0,1-3.655-1.653A5.068,5.068,0,0,1,629.341,1162.2Z" transform="translate(-629.316 -1100.712)" fill="#6b85b8"/>
          <path id="Path_7" data-name="Path 7" d="M916.438,1170.372a5.862,5.862,0,0,0,5.736-5.985l-1.057-49.839a5.165,5.165,0,0,0-5.01-5.053l-72.335-2.146a3.808,3.808,0,0,0-3.921,3.818l.173,57.144a3.615,3.615,0,0,0,3.692,3.6Z" transform="translate(-832.556 -1101.816)" fill="#7996cf"/>
          <g id="Group_6" data-name="Group 6" transform="translate(10.095 8.911)">
            <path id="Path_8" data-name="Path 8" d="M999.129,1260.359a1.7,1.7,0,0,0,1.657-1.967c-1.067-6.786-4.418-30.13-3.343-49.511a1.575,1.575,0,0,0-1.521-1.664L923.26,1204.9a1.812,1.812,0,0,0-1.869,1.742c-.309,8.148-1.46,41.7.046,53.632a1.436,1.436,0,0,0,1.448,1.254Z" transform="translate(-920.679 -1204.898)" fill="#bdd0fb"/>
            <path id="Path_9" data-name="Path 9" d="M1028.45,1296.52a1.639,1.639,0,0,0,1.595-1.893c-1.027-6.531-4.252-29-3.218-47.647a1.515,1.515,0,0,0-1.463-1.6l-69.925-2.231a1.744,1.744,0,0,0-1.8,1.677c-.3,7.842-1.4,40.134.044,51.613a1.381,1.381,0,0,0,1.393,1.207Z" transform="translate(-951.837 -1241.823)" fill="#91b3fa"/>
          </g>
          <path id="Path_10" data-name="Path 10" d="M1670.682,1605.631l.107,5.036a1.377,1.377,0,0,1-1.369,1.406l-5.166.029a1.377,1.377,0,0,1-1.384-1.348l-.112-5.294a1.377,1.377,0,0,1,1.438-1.4l5.171.229A1.377,1.377,0,0,1,1670.682,1605.631Z" transform="translate(-1626.951 -1581.313)" fill="#fff" opacity="0.72"/>
          <path id="Path_11" data-name="Path 11" d="M2227.551,1632.9l-5.166.029a1.377,1.377,0,0,1-1.384-1.348l-.1-4.5a1.376,1.376,0,0,1,1.426-1.405l5.17.186a1.377,1.377,0,0,1,1.327,1.347l.091,4.288A1.377,1.377,0,0,1,2227.551,1632.9Z" transform="translate(-2165.762 -1602.181)" fill="#fff" opacity="0.72"/>
          <path id="Path_12" data-name="Path 12" d="M2240.629,2480.38l4.914-.047a1.5,1.5,0,0,1,1.517,1.47l.1,4.6a1.5,1.5,0,0,1-1.439,1.533l-4.91.208a1.5,1.5,0,0,1-1.566-1.469l-.1-4.762A1.5,1.5,0,0,1,2240.629,2480.38Z" transform="translate(-2183.365 -2427.23)" fill="#fff" opacity="0.72"/>
          <path id="Path_13" data-name="Path 13" d="M2518.011,2483.676l-.1-4.5a1.477,1.477,0,0,1,1.462-1.508l4.965-.048a1.477,1.477,0,0,1,1.491,1.446l.092,4.337a1.477,1.477,0,0,1-1.414,1.507l-4.962.21A1.477,1.477,0,0,1,2518.011,2483.676Z" transform="translate(-2452.481 -2424.613)" fill="#fff" opacity="0.72"/>
          <path id="Path_14" data-name="Path 14" d="M2506.052,1918.05l-.078-3.693a1.589,1.589,0,0,1,1.592-1.623l4.742.009a1.59,1.59,0,0,1,1.586,1.556l.075,3.529a1.589,1.589,0,0,1-1.537,1.622l-4.738.155A1.589,1.589,0,0,1,2506.052,1918.05Z" transform="translate(-2440.952 -1879.297)" fill="#fff" opacity="0.72"/>
          <path id="Path_15" data-name="Path 15" d="M2511.468,2172.1l-.12-5.649a1.476,1.476,0,0,1,1.428-1.507l4.849-.159a1.589,1.589,0,0,1,1.641,1.555l.121,5.7a1.477,1.477,0,0,1-1.476,1.508h-4.966A1.477,1.477,0,0,1,2511.468,2172.1Z" transform="translate(-2446.14 -2122.614)" fill="#fff" opacity="0.72"/>
          <path id="Path_16" data-name="Path 16" d="M1948.5,1623.276l-5.165.029a1.377,1.377,0,0,1-1.384-1.348l-.1-4.9a1.377,1.377,0,0,1,1.426-1.405l5.17.186a1.377,1.377,0,0,1,1.327,1.347l.1,4.69A1.377,1.377,0,0,1,1948.5,1623.276Z" transform="translate(-1896.375 -1592.504)" fill="#fff" opacity="0.72"/>
          <path id="Path_17" data-name="Path 17" d="M2232.822,2180.8l-.113-5.283a1.5,1.5,0,0,1,1.454-1.534l4.911-.161a1.5,1.5,0,0,1,1.552,1.47l.115,5.444a1.5,1.5,0,0,1-1.5,1.534h-4.915A1.5,1.5,0,0,1,2232.822,2180.8Z" transform="translate(-2177.156 -2131.338)" fill="#fff" opacity="0.72"/>
          <path id="Path_18" data-name="Path 18" d="M1949.125,1911.7l5.641.01a1.14,1.14,0,0,1,1.137,1.115l.108,5.08a1.139,1.139,0,0,1-1.1,1.163l-5.637.184a1.139,1.139,0,0,1-1.177-1.115l-.112-5.275A1.139,1.139,0,0,1,1949.125,1911.7Z" transform="translate(-1902.295 -1878.303)" fill="#fff" opacity="0.72"/>
          <path id="Path_19" data-name="Path 19" d="M1677.226,1912.625l.1,4.838a1.433,1.433,0,0,1-1.385,1.462l-5.052.165a1.433,1.433,0,0,1-1.479-1.4l-.106-5.013a1.432,1.432,0,0,1,1.435-1.463l5.055.009A1.432,1.432,0,0,1,1677.226,1912.625Z" transform="translate(-1633.273 -1877.83)" fill="#fff" opacity="0.72"/>
          <path id="Path_20" data-name="Path 20" d="M2233.756,1919.241l-5.637.185a1.139,1.139,0,0,1-1.177-1.115l-.1-4.941a1.139,1.139,0,0,1,1.141-1.164l5.641.01a1.139,1.139,0,0,1,1.137,1.115l.1,4.747A1.14,1.14,0,0,1,2233.756,1919.241Z" transform="translate(-2171.488 -1878.788)" fill="#fff" opacity="0.72"/>
          <path id="Path_21" data-name="Path 21" d="M1955.512,2183.1l4.911-.161a1.5,1.5,0,0,1,1.552,1.47l.109,5.128a1.5,1.5,0,0,1-1.5,1.535h-4.915a1.5,1.5,0,0,1-1.5-1.471l-.105-4.969A1.5,1.5,0,0,1,1955.512,2183.1Z" transform="translate(-1908.159 -2140.143)" fill="#fff" opacity="0.72"/>
          <path id="Path_22" data-name="Path 22" d="M1676.589,2192.073l5.255-.172a1.33,1.33,0,0,1,1.374,1.3l.109,5.163a1.33,1.33,0,0,1-1.33,1.359h-5.259a1.331,1.331,0,0,1-1.331-1.3l-.106-4.992A1.33,1.33,0,0,1,1676.589,2192.073Z" transform="translate(-1639.062 -2148.792)" fill="#fff" opacity="0.72"/>
          <path id="Path_23" data-name="Path 23" d="M2506.04,1640.932l-3.921.022a1.909,1.909,0,0,1-1.919-1.869l-.069-3.234a1.7,1.7,0,0,1,1.761-1.736l4.363.157a1.869,1.869,0,0,1,1.8,1.828l.057,2.7A2.087,2.087,0,0,1,2506.04,1640.932Z" transform="translate(-2435.312 -1610.332)" fill="#fff" opacity="0.72"/>
          <path id="Path_24" data-name="Path 24" d="M2796.773,2477.434a1.589,1.589,0,0,1,1.573-1.623l1.708-.017a2.2,2.2,0,0,1,2.382,1.926l.066,3.126a2.19,2.19,0,0,1-2.271,2.024l-1.834.078a1.477,1.477,0,0,1-1.539-1.444Z" transform="translate(-2721.676 -2422.85)" fill="#fff" opacity="0.72"/>
          <path id="Path_25" data-name="Path 25" d="M1145.9,2491.182l3.359-.033a1.5,1.5,0,0,1,1.518,1.472l.124,5.859a1.5,1.5,0,0,1-1.44,1.534l-3.343.142a2.214,2.214,0,0,1-2.475-1.923l-.106-5.024A2.209,2.209,0,0,1,1145.9,2491.182Z" transform="translate(-1125.723 -2437.673)" fill="#fff" opacity="0.72"/>
          <path id="Path_26" data-name="Path 26" d="M2793.447,2167.508h-1.667a1.589,1.589,0,0,1-1.589-1.555l-.122-5.743a1.588,1.588,0,0,1,1.537-1.622l1.678-.055a2.209,2.209,0,0,1,2.447,1.924l.107,5.024A2.215,2.215,0,0,1,2793.447,2167.508Z" transform="translate(-2715.205 -2116.58)" fill="#fff" opacity="0.72"/>
          <path id="Path_27" data-name="Path 27" d="M2788.018,1919.7l-2.1.069a1.2,1.2,0,0,1-1.241-1.176l-.088-4.148a1.2,1.2,0,0,1,1.2-1.227l2.119,0a2.189,2.189,0,0,1,2.349,1.926l.053,2.527A2.2,2.2,0,0,1,2788.018,1919.7Z" transform="translate(-2709.915 -1879.764)" fill="#fff" opacity="0.72"/>
          <path id="Path_28" data-name="Path 28" d="M1126.8,1585.439l3.368.121a1.432,1.432,0,0,1,1.38,1.4l.123,5.787a1.432,1.432,0,0,1-1.424,1.463l-3.468.02a2.194,2.194,0,0,1-2.371-1.926l-.1-4.841A2.234,2.234,0,0,1,1126.8,1585.439Z" transform="translate(-1107.159 -1563.341)" fill="#fff" opacity="0.72"/>
          <path id="Path_29" data-name="Path 29" d="M1961.842,2483.084l4.913-.048a1.5,1.5,0,0,1,1.517,1.471l.1,4.917a1.5,1.5,0,0,1-1.439,1.533l-4.91.208a1.5,1.5,0,0,1-1.566-1.469l-.108-5.076A1.5,1.5,0,0,1,1961.842,2483.084Z" transform="translate(-1914.237 -2429.841)" fill="#fff" opacity="0.72"/>
          <path id="Path_30" data-name="Path 30" d="M1133.6,1910.293l3.414.006a1.432,1.432,0,0,1,1.429,1.4l.117,5.505a1.432,1.432,0,0,1-1.385,1.462l-3.428.112a2.209,2.209,0,0,1-2.448-1.924l-.1-4.537A2.215,2.215,0,0,1,1133.6,1910.293Z" transform="translate(-1113.811 -1876.941)" fill="#fff" opacity="0.72"/>
          <path id="Path_31" data-name="Path 31" d="M1139.929,2210.257l3.563-.117a1.331,1.331,0,0,1,1.374,1.3l.1,4.533a1.331,1.331,0,0,1-1.33,1.359h-3.58a2.191,2.191,0,0,1-2.355-1.926l-.066-3.127A2.2,2.2,0,0,1,1139.929,2210.257Z" transform="translate(-1120.018 -2166.399)" fill="#fff" opacity="0.72"/>
          <path id="Path_32" data-name="Path 32" d="M1404.567,2202.323l.1,4.848a1.331,1.331,0,0,1-1.33,1.359h-5.259a1.331,1.331,0,0,1-1.331-1.3l-.1-4.677a1.33,1.33,0,0,1,1.287-1.358l5.255-.172A1.33,1.33,0,0,1,1404.567,2202.323Z" transform="translate(-1370.065 -2157.596)" fill="#fff" opacity="0.72"/>
          <path id="Path_33" data-name="Path 33" d="M1404.268,2488.494l4.911-.048a1.5,1.5,0,0,1,1.518,1.472l.118,5.544a1.5,1.5,0,0,1-1.44,1.534l-4.908.208a1.5,1.5,0,0,1-1.567-1.47l-.121-5.7A1.5,1.5,0,0,1,1404.268,2488.494Z" transform="translate(-1375.98 -2435.063)" fill="#fff" opacity="0.72"/>
          <path id="Path_34" data-name="Path 34" d="M2782.221,1650.048l-2.055.012a1.2,1.2,0,0,1-1.209-1.177l-.086-4.057a1.2,1.2,0,0,1,1.245-1.227l2.177.078a2.17,2.17,0,0,1,2.252,1.924l.052,2.42A2.211,2.211,0,0,1,2782.221,1650.048Z" transform="translate(-2704.395 -1619.488)" fill="#fff" opacity="0.72"/>
          <path id="Path_35" data-name="Path 35" d="M1683.057,2485.811l4.828-.046a1.587,1.587,0,0,1,1.6,1.553l.109,5.146a1.5,1.5,0,0,1-1.44,1.534l-4.907.208a1.5,1.5,0,0,1-1.567-1.471l-.115-5.389A1.5,1.5,0,0,1,1683.057,2485.811Z" transform="translate(-1645.11 -2432.474)" fill="#fff" opacity="0.72"/>
          <path id="Path_36" data-name="Path 36" d="M1391.651,1595.318l.114,5.385a1.432,1.432,0,0,1-1.424,1.463l-5.055.029a1.432,1.432,0,0,1-1.44-1.4l-.119-5.6a1.432,1.432,0,0,1,1.484-1.462l5.059.182A1.432,1.432,0,0,1,1391.651,1595.318Z" transform="translate(-1357.589 -1571.351)" fill="#fff" opacity="0.72"/>
          <path id="Path_37" data-name="Path 37" d="M1398.37,1912.122l.11,5.172a1.432,1.432,0,0,1-1.385,1.462l-5.052.165a1.432,1.432,0,0,1-1.479-1.4l-.113-5.346a1.432,1.432,0,0,1,1.435-1.463l5.055.009A1.432,1.432,0,0,1,1398.37,1912.122Z" transform="translate(-1364.079 -1877.345)" fill="#fff" opacity="0.72"/>
          <path id="Path_38" data-name="Path 38" d="M2819.844,1483.459l-.233,1.705a1.12,1.12,0,0,1-1.086.969l-.08,0a1.12,1.12,0,0,1-1.144-1.1l-.037-1.745a1.12,1.12,0,0,1,1.242-1.137l.35.038A1.12,1.12,0,0,1,2819.844,1483.459Z" transform="translate(-2741.457 -1463.631)" fill="#fff" opacity="0.72"/>
          <path id="Path_39" data-name="Path 39" d="M2591.391,1470.79l-.233,1.705a1.12,1.12,0,0,1-1.086.969l-.081,0a1.121,1.121,0,0,1-1.144-1.1l-.037-1.746a1.12,1.12,0,0,1,1.242-1.137l.35.039A1.121,1.121,0,0,1,2591.391,1470.79Z" transform="translate(-2520.919 -1451.401)" fill="#fff" opacity="0.72"/>
          <path id="Path_40" data-name="Path 40" d="M2310.307,1474.659l-.233,1.705a1.12,1.12,0,0,1-1.086.969l-.081,0a1.12,1.12,0,0,1-1.144-1.1l-.037-1.746a1.12,1.12,0,0,1,1.243-1.137l.35.039A1.12,1.12,0,0,1,2310.307,1474.659Z" transform="translate(-2249.574 -1455.136)" fill="#fff" opacity="0.72"/>
          <path id="Path_41" data-name="Path 41" d="M2036.453,1462.394l-.233,1.705a1.12,1.12,0,0,1-1.086.969l-.081,0a1.12,1.12,0,0,1-1.144-1.1l-.037-1.746a1.12,1.12,0,0,1,1.242-1.137l.35.038A1.12,1.12,0,0,1,2036.453,1462.394Z" transform="translate(-1985.208 -1443.297)" fill="#fff" opacity="0.72"/>
          <path id="Path_42" data-name="Path 42" d="M1755.172,1426.627l-.233,1.706a1.12,1.12,0,0,1-1.086.968l-.081,0a1.12,1.12,0,0,1-1.144-1.1l-.037-1.746a1.12,1.12,0,0,1,1.243-1.137l.35.039A1.12,1.12,0,0,1,1755.172,1426.627Z" transform="translate(-1713.673 -1408.769)" fill="#fff" opacity="0.72"/>
          <path id="Path_43" data-name="Path 43" d="M1457.2,1432.948l-.233,1.705a1.12,1.12,0,0,1-1.086.968l-.081,0a1.12,1.12,0,0,1-1.144-1.1l-.037-1.745a1.12,1.12,0,0,1,1.242-1.137l.35.039A1.12,1.12,0,0,1,1457.2,1432.948Z" transform="translate(-1426.028 -1414.871)" fill="#fff" opacity="0.72"/>
          <path id="Path_44" data-name="Path 44" d="M1205.694,1427.681l-.233,1.705a1.12,1.12,0,0,1-1.086.969l-.081,0a1.12,1.12,0,0,1-1.144-1.1l-.037-1.745a1.12,1.12,0,0,1,1.243-1.137l.35.039A1.12,1.12,0,0,1,1205.694,1427.681Z" transform="translate(-1183.233 -1409.786)" fill="#fff" opacity="0.72"/>
          <g id="Group_7" data-name="Group 7" transform="translate(7.111 14.893)">
            <path id="Path_45" data-name="Path 45" d="M834.74,1947.664a.183.183,0,0,0,.183-.182l.223-32.177a.184.184,0,0,0-.182-.185h0a.184.184,0,0,0-.184.182l-.223,32.177a.183.183,0,0,0,.182.185Z" transform="translate(-834.557 -1896.495)" fill="#bdd0fb"/>
            <path id="Path_46" data-name="Path 46" d="M842.648,1389.136a.183.183,0,0,0,.183-.182l.078-11.238a.184.184,0,0,0-.182-.185h0a.183.183,0,0,0-.183.182l-.078,11.238a.184.184,0,0,0,.182.185Z" transform="translate(-842.191 -1377.532)" fill="#bdd0fb"/>
          </g>
          <circle id="Ellipse_1" data-name="Ellipse 1" cx="1.961" cy="1.961" r="1.961" transform="translate(74.078 16.559) rotate(-76.718)" fill="url(#linear-gradient)"/>
          <circle id="Ellipse_2" data-name="Ellipse 2" cx="1.961" cy="1.961" r="1.961" transform="translate(57.601 14.951) rotate(-45)" fill="url(#linear-gradient-2)"/>
          <circle id="Ellipse_3" data-name="Ellipse 3" cx="1.961" cy="1.961" r="1.961" transform="matrix(0.973, -0.23, 0.23, 0.973, 41.801, 12.965)" fill="url(#linear-gradient-3)"/>
          <circle id="Ellipse_4" data-name="Ellipse 4" cx="1.961" cy="1.961" r="1.961" transform="translate(25.781 12.143) rotate(-11.599)" fill="url(#linear-gradient-4)"/>
          <g id="Group_8" data-name="Group 8" transform="translate(21.477)">
            <path id="Path_47" data-name="Path 47" d="M1254.307,947.776c3.3.72,2.988,9.4,2.722,12.923a1.588,1.588,0,0,1-1.585,1.469.815.815,0,0,1-.808-.9c.285-2.663.891-10.333-1.537-10.744,0,0-1.742-.308-2.035,3.067h-1.885S1250.159,946.871,1254.307,947.776Z" transform="translate(-1249.179 -947.692)" fill="url(#linear-gradient-5)"/>
            <path id="Path_48" data-name="Path 48" d="M1717.933,960.657c3.3.72,2.988,9.4,2.722,12.927a1.59,1.59,0,0,1-1.585,1.47.814.814,0,0,1-.808-.9c.285-2.663.891-10.339-1.537-10.75,0,0-1.742-.241-2.035,3.06H1712.8S1713.785,959.752,1717.933,960.657Z" transform="translate(-1696.741 -960.127)" fill="url(#linear-gradient-5)"/>
            <path id="Path_49" data-name="Path 49" d="M2181.558,973.6c3.3.72,2.988,9.4,2.722,12.929A1.59,1.59,0,0,1,2182.7,988a.813.813,0,0,1-.808-.9c.285-2.663.891-10.343-1.537-10.753,0,0-1.741-.2-2.035,3.122l-1.885-.066S2177.41,972.694,2181.558,973.6Z" transform="translate(-2144.303 -972.62)" fill="url(#linear-gradient-7)"/>
            <path id="Path_50" data-name="Path 50" d="M2645.183,988.564c3.3.72,2.988,9.409,2.723,12.933a1.592,1.592,0,0,1-1.585,1.474.811.811,0,0,1-.809-.9c.285-2.663.891-10.352-1.537-10.762,0,0-1.742-.254-2.035,3.047h-1.885S2641.035,987.659,2645.183,988.564Z" transform="translate(-2591.865 -987.067)" fill="url(#linear-gradient-8)"/>
          </g>
          <path id="Path_51" data-name="Path 51" d="M2502.009,1914.177a1.792,1.792,0,0,1-1.79-1.754l-.078-3.693a1.792,1.792,0,0,1,1.791-1.829h0l4.741.009a1.8,1.8,0,0,1,1.788,1.753l.075,3.529a1.8,1.8,0,0,1-1.732,1.829l-4.738.155Zm-.077-6.872a1.387,1.387,0,0,0-1.387,1.417l.078,3.693a1.388,1.388,0,0,0,1.433,1.357l4.738-.155a1.392,1.392,0,0,0,1.342-1.416l-.075-3.529a1.4,1.4,0,0,0-1.384-1.358l-4.741-.009Z" transform="translate(-2435.321 -1873.667)" fill="url(#linear-gradient-9)"/>
          <path id="Path_52" data-name="Path 52" d="M1943.6,1913.83a1.342,1.342,0,0,1-1.34-1.313l-.112-5.275a1.342,1.342,0,0,1,1.341-1.37h0l5.641.01a1.35,1.35,0,0,1,1.339,1.313l.108,5.08a1.347,1.347,0,0,1-1.3,1.37l-5.637.184Zm-.11-7.554a.937.937,0,0,0-.937.957l.112,5.275a.938.938,0,0,0,.968.917l5.637-.184a.941.941,0,0,0,.907-.957l-.108-5.08a.943.943,0,0,0-.936-.918l-5.641-.01Z" transform="translate(-1896.666 -1872.673)" fill="url(#linear-gradient-10)"/>
          <path id="Path_53" data-name="Path 53" d="M2222.45,1914a1.341,1.341,0,0,1-1.34-1.313l-.1-4.941a1.342,1.342,0,0,1,1.341-1.37h0l5.641.01a1.35,1.35,0,0,1,1.339,1.313l.1,4.747a1.347,1.347,0,0,1-1.3,1.37l-5.637.184Zm-.1-7.221a.938.938,0,0,0-.937.957l.1,4.941a.93.93,0,0,0,.292.661.941.941,0,0,0,.675.256l5.637-.184a.941.941,0,0,0,.906-.957l-.1-4.747a.943.943,0,0,0-.936-.918l-5.641-.01Z" transform="translate(-2165.857 -1873.157)" fill="url(#linear-gradient-11)"/>
        </g>
        <g id="Group_12" data-name="Group 12" transform="translate(0 46.102)">
          <g id="Group_11" data-name="Group 11">
            <path id="Path_54" data-name="Path 54" d="M580.6,2141.99s-4.045,2.24-4.379,6.032-.028,19.531,8.082,23.4,18.845,2.981,22.955,2.558a7.8,7.8,0,0,0,6.9-5.139c.509-1.923,1.331-9.086-2.992-11.4s-8.863-5.85-13.4-9.3S585.447,2139.078,580.6,2141.99Z" transform="translate(-576.133 -2134.928)" fill="url(#linear-gradient-12)"/>
            <path id="Path_55" data-name="Path 55" d="M1604.46,2696.174s-1.091.058-1.225,2.3a12.972,12.972,0,0,0,5.95,2.809c.257.04-.359-1.752-.451-2C1608.293,2698.136,1606.907,2697.392,1604.46,2696.174Z" transform="translate(-1570.71 -2672.346)" fill="url(#linear-gradient-13)"/>
            <path id="Path_56" data-name="Path 56" d="M1247.326,2349.926h2.3s7.07-7.808,11.707-8.6c0,0,3.228,4.12-.172,11.819a1.124,1.124,0,0,1-1.609.53.921.921,0,0,1-.368-.438l.273-6.573s-6.031,5.275-7.079,6.292S1246.006,2353.357,1247.326,2349.926Z" transform="translate(-1225.869 -2328.739)" fill="#01299e"/>
            <path id="Path_57" data-name="Path 57" d="M1789.577,3067.279a8.659,8.659,0,0,0-4.724-2.067l-.751.459a8.17,8.17,0,0,0,1.354,1.452,9.454,9.454,0,0,0,3.075,1.236C1789.531,3068.493,1789.679,3067.888,1789.577,3067.279Z" transform="translate(-1745.851 -3029.698)" fill="url(#linear-gradient-13)"/>
            <path id="Path_58" data-name="Path 58" d="M1608.734,2759.239c-.594.192-.856,1.035-2.365.478a13.355,13.355,0,0,1-3.1-1.635c-.012.109-.023.222-.03.343a12.962,12.962,0,0,0,6.088,3.078.34.34,0,0,0,.368-.458A8.6,8.6,0,0,0,1608.734,2759.239Z" transform="translate(-1570.71 -2732.294)" fill="url(#linear-gradient-13)"/>
            <path id="Path_59" data-name="Path 59" d="M1831.7,3126.457a7.936,7.936,0,0,0-.727-.722c.1.61-.046,1.214-1.046,1.081a9.455,9.455,0,0,1-3.075-1.237,6.647,6.647,0,0,0,4.476,1.718A.508.508,0,0,0,1831.7,3126.457Z" transform="translate(-1787.241 -3088.154)"/>
            <path id="Path_60" data-name="Path 60" d="M1114.677,2665.418l10.787.117s6.16,5.1,7.278,12.868c0,0,.185.572-.928.669a21.383,21.383,0,0,1-6.153-6.733c-2.978-5.273-8.877-2.9-8.877-2.9-1.938-1.4-4.677-1.682-6.741-2.147Z" transform="translate(-1093.136 -2642.565)" fill="#01299e"/>
            <path id="Path_61" data-name="Path 61" d="M1206.138,2391.008a11.922,11.922,0,0,0,6.851,8.122l2.024-.239.478.761-4.747.151a12.984,12.984,0,0,1-6.208-5.987C1204.464,2393.672,1203.28,2391.228,1206.138,2391.008Z" transform="translate(-1184.342 -2376.844)" fill="url(#linear-gradient-16)"/>
            <path id="Path_62" data-name="Path 62" d="M905.718,2228.839a31.086,31.086,0,0,1-1.6-7.078,15.236,15.236,0,0,1,1.57-1.188.437.437,0,0,0,.171-.566,33.646,33.646,0,0,0-3.33-4.581c-1.093-.272-5.576-2.4-8.734,1.915-1.355,1.853.269,7.559,6.417,13.468l1.268.242Z" transform="translate(-883.3 -2206.081)" fill="#003fc3"/>
            <path id="Path_63" data-name="Path 63" d="M1063.672,2463.751s3.669,4.344,8.36,4.979c0,0,1.212-1.1,2.114-.71a8.136,8.136,0,0,1,2.137,2.136h-6.023s-5.695-.2-8.541-3.654A4.452,4.452,0,0,1,1063.672,2463.751Z" transform="translate(-1046.342 -2447.283)" fill="url(#linear-gradient-17)"/>
            <path id="Path_64" data-name="Path 64" d="M1030.858,2142.616l-.8,2.677a.3.3,0,0,0,.114.328,2.992,2.992,0,0,0,2.782.28.437.437,0,0,0,.281-.375l.19-2.333Z" transform="translate(-1015.669 -2136.318)" fill="url(#linear-gradient-18)"/>
            <g id="Group_10" data-name="Group 10" transform="translate(13.016)">
              <path id="Path_65" data-name="Path 65" d="M1041.988,2018.182s-.395,2.776-1.461,3.629-3.143.211-3.845-1.881l1.4-3.578Z" transform="translate(-1035.114 -2014.052)" fill="url(#linear-gradient-19)"/>
              <path id="Path_66" data-name="Path 66" d="M989.987,1948.346a.138.138,0,0,0,.179-.11,3.589,3.589,0,0,1,.329-1.109s-.1-.364.92.186,2.557,1.358,3.461.877c.881-.469,1.774-2.83-.555-2.392a.137.137,0,0,1-.163-.144,1.417,1.417,0,0,0-.914-1.567c-.846-.268-.392.167-.583.4-.056.068.071-.231-1.131-.056-.413.06-.942-1.035-1.955-.589-.835.368-.964.882-.951,1.2a.137.137,0,0,1-.2.131.824.824,0,0,0-1.06.315c-.544.682.234,1.274.467,1.429a.138.138,0,0,1,.062.114,4.685,4.685,0,0,0,.833,2.775.139.139,0,0,0,.23-.04l.6-1.423a.138.138,0,0,1,.17-.078Z" transform="translate(-987.179 -1943.731)" fill="#512d50"/>
              <path id="Path_67" data-name="Path 67" d="M1042.008,2064.964s-.365-1.485-.919-1,.144,1.543.779,1.746Z" transform="translate(-1039.188 -2060.061)" fill="url(#linear-gradient-20)"/>
            </g>
            <path id="Path_68" data-name="Path 68" d="M1512.046,2373.17l2.7-9.018a.922.922,0,0,1,.82-.655l3.651-.25a.518.518,0,0,1,.524.688l-3.023,8.612a.757.757,0,0,1-.639.5l-3.6.4Z" transform="translate(-1482.409 -2349.961)" fill="#719bee"/>
            <path id="Path_69" data-name="Path 69" d="M1640.037,2458.706c-.2.407-.55.646-.779.533s-.249-.535-.047-.943.551-.646.779-.533S1640.239,2458.3,1640.037,2458.706Z" transform="translate(-1605.413 -2441.458)" fill="#b3cbfe"/>
            <path id="Path_70" data-name="Path 70" d="M1281.232,2652.638h-.018l-7.661-.387a.343.343,0,1,1,.035-.686l7.661.387a.343.343,0,0,1-.017.686Z" transform="translate(-1251.153 -2629.149)" fill="#719bee"/>
            <path id="Path_71" data-name="Path 71" d="M1212.553,2322.02a.061.061,0,0,1-.061-.061,16.256,16.256,0,0,0-.619-3.746.061.061,0,1,1,.117-.034,16.382,16.382,0,0,1,.624,3.781A.061.061,0,0,1,1212.553,2322.02Z" transform="translate(-1191.739 -2306.279)" fill="#05379f"/>
            <path id="Path_72" data-name="Path 72" d="M1052.424,2352a.061.061,0,0,1-.048-.023,19.353,19.353,0,0,1-2.269-3.611.061.061,0,1,1,.113-.045,19.241,19.241,0,0,0,2.251,3.581.061.061,0,0,1-.048.1Z" transform="translate(-1035.095 -2335.469)" fill="#05379f"/>
            <path id="Path_73" data-name="Path 73" d="M926.972,2444.091l-.045-.019a9.553,9.553,0,0,1-3.936-3.961.061.061,0,1,1,.108-.055,9.467,9.467,0,0,0,3.831,3.885l.25-.353a.061.061,0,1,1,.1.07Z" transform="translate(-912 -2424.306)" fill="#05379f"/>
          </g>
        </g>
        <g id="Group_17" data-name="Group 17" transform="translate(34.938)">
          <g id="Group_13" data-name="Group 13" transform="translate(1.322 24.539)">
            <path id="Path_74" data-name="Path 74" d="M1622.691,1321.37s5.927,15.631,7.8,18.883c2.174,3.775,8.522,1.369,8.206-1.79s-7.733-16.216-7.733-16.216Z" transform="translate(-1622.691 -1321.37)" fill="url(#linear-gradient-21)"/>
            <path id="Path_75" data-name="Path 75" d="M1752.372,1507.937a3.863,3.863,0,0,1-.822-.089,3.8,3.8,0,0,1-2.681-2.172l-4.717-10.48a.152.152,0,1,1,.277-.125l4.717,10.48a3.5,3.5,0,0,0,2.469,2,3.427,3.427,0,0,0,3.016-.771q.067-.058.134-.12a.152.152,0,0,1,.2.224l-.139.124A3.717,3.717,0,0,1,1752.372,1507.937Z" transform="translate(-1739.931 -1488.967)" fill="#91b3fa"/>
            <path id="Path_76" data-name="Path 76" d="M1709.5,1417.992a.151.151,0,0,1-.138-.089l-.526-1.169a.152.152,0,1,1,.277-.125l.526,1.169a.152.152,0,0,1-.076.2A.154.154,0,0,1,1709.5,1417.992Z" transform="translate(-1705.835 -1413.223)" fill="#91b3fa"/>
          </g>
          <g id="Group_16" data-name="Group 16">
            <path id="Path_77" data-name="Path 77" d="M1825.777,636.873l36.837-12.772-.387,34.563-37.457-8.358Z" transform="translate(-1816.447 -623.721)" fill="url(#linear-gradient-5)"/>
            <ellipse id="Ellipse_5" data-name="Ellipse 5" cx="3.619" cy="17.762" rx="3.619" ry="17.762" transform="translate(42.583)" fill="#feb57b"/>
            <path id="Path_78" data-name="Path 78" d="M2854.469,675.688c-.327-.333-1.04-1.616-1.651-4.935a75.388,75.388,0,0,1,0-23.427c.611-3.319,1.323-4.6,1.651-4.935.327.333,1.04,1.616,1.651,4.935a75.388,75.388,0,0,1,0,23.427C2855.509,674.072,2854.8,675.355,2854.469,675.688Z" transform="translate(-2807.992 -641.378)" fill="url(#linear-gradient-5)"/>
            <g id="Group_15" data-name="Group 15" transform="translate(43.911 1.014)">
              <g id="Group_14" data-name="Group 14" clip-path="url(#clip-path-2)">
                <path id="Path_79" data-name="Path 79" d="M2762.561,966.817c0,3.018-1.626,5.465-4.844,5.465a5.476,5.476,0,1,1,0-10.929C2760.935,961.352,2762.561,963.8,2762.561,966.817Z" transform="translate(-2755.356 -950.301)" fill="url(#linear-gradient-24)"/>
              </g>
            </g>
            <path id="Path_81" data-name="Path 81" d="M1587.922,967.276a20.639,20.639,0,0,1,6.9.342,36.873,36.873,0,0,0,.272,14.434h-7.578a2.456,2.456,0,0,1-2.427-2.071,34.534,34.534,0,0,1-.347-9.642A3.634,3.634,0,0,1,1587.922,967.276Z" transform="translate(-1584.533 -954.866)" fill="url(#linear-gradient-25)"/>
            <path id="Path_82" data-name="Path 82" d="M1634.071,1031.794h-5.9a.539.539,0,0,1-.452-.831.152.152,0,0,1,.255.165.235.235,0,0,0,.2.362h5.9a.235.235,0,0,0,.235-.235v-.42a.235.235,0,0,0-.235-.235h-5.948a.152.152,0,0,1,0-.3h5.948a.539.539,0,0,1,.539.538v.42A.539.539,0,0,1,1634.071,1031.794Z" transform="translate(-1626.134 -1015.843)" fill="#91b3fa"/>
            <path id="Path_83" data-name="Path 83" d="M1618.875,1107.265h-5.9a.538.538,0,0,1-.452-.831.152.152,0,0,1,.255.165.235.235,0,0,0,.2.362h5.9a.235.235,0,0,0,.235-.235v-.42a.235.235,0,0,0-.235-.235h-5.948a.152.152,0,0,1,0-.3h5.948a.539.539,0,0,1,.538.538v.42A.539.539,0,0,1,1618.875,1107.265Z" transform="translate(-1611.465 -1088.699)" fill="#91b3fa"/>
            <path id="Path_84" data-name="Path 84" d="M2004.088,709.9a.152.152,0,0,1-.046-.3l27.9-8.878a.152.152,0,0,1,.092.289l-27.9,8.878A.152.152,0,0,1,2004.088,709.9Z" transform="translate(-1989.405 -697.682)" fill="#fff" opacity="0.76"/>
            <path id="Path_85" data-name="Path 85" d="M1895.19,985.431a.152.152,0,0,1-.058-.292l1.436-.587a.152.152,0,1,1,.115.281l-1.436.587A.15.15,0,0,1,1895.19,985.431Z" transform="translate(-1884.28 -971.671)" fill="#fff" opacity="0.76"/>
            <path id="Path_86" data-name="Path 86" d="M1634.071,1195.653h-5.9a.538.538,0,0,1-.452-.831.152.152,0,1,1,.255.165.235.235,0,0,0,.2.362h5.9a.235.235,0,0,0,.235-.235v-.42a.235.235,0,0,0-.235-.235h-5.948a.152.152,0,0,1,0-.3h5.948a.539.539,0,0,1,.539.538v.42A.539.539,0,0,1,1634.071,1195.653Z" transform="translate(-1626.134 -1174.025)" fill="#91b3fa"/>
            <path id="Path_87" data-name="Path 87" d="M1650.027,1293.761h-5.9a.538.538,0,0,1-.452-.831.152.152,0,1,1,.255.165.235.235,0,0,0,.2.362h5.9a.235.235,0,0,0,.235-.235v-.42a.235.235,0,0,0-.235-.235h-5.948a.152.152,0,1,1,0-.3h5.948a.539.539,0,0,1,.538.538v.42A.539.539,0,0,1,1650.027,1293.761Z" transform="translate(-1641.537 -1268.733)" fill="#91b3fa"/>
            <path id="Path_88" data-name="Path 88" d="M2876.706,986.848a.151.151,0,0,1-.151-.141,4.3,4.3,0,0,0-1.523-3.277,5.368,5.368,0,0,0-3.825-.785.152.152,0,1,1-.057-.3,5.589,5.589,0,0,1,4.067.842,4.582,4.582,0,0,1,1.641,3.5.151.151,0,0,1-.14.162Z" transform="translate(-2826.453 -969.476)" fill="#91b3fa"/>
          </g>
        </g>
      </g>
    </g>
    <path id="Path-59" data-name="Path" d="M.055,13.26l.167,1.8.5-.333a14.126,14.126,0,0,0,5.239-6.41.02.02,0,0,0,0-.009,13.591,13.591,0,0,0,.949-6.761L6.728,0,5.3,1.136A14.087,14.087,0,0,0,.055,13.26Z" transform="translate(212.038 130.397)" fill="#fff"/>
    <path id="Path-60" data-name="Path" d="M0,.5,1.056,1.818A12.058,12.058,0,0,0,8.9,6.239a11.934,11.934,0,0,0,3.5-.057L14.091,5.9l-.309-.472A12.041,12.041,0,0,0,5.879.2h0a11.951,11.951,0,0,0-4.42.022Z" transform="translate(217.121 141.941)" fill="#fff"/>
    <g id="Group-4" data-name="Group" transform="translate(208.06 137.437)" opacity="0.78">
      <path id="Path-61" data-name="Path" d="M0,12.753l.371.077a20.043,20.043,0,0,1,2.166-2.782c.092-.1.186-.2.281-.3A22.531,22.531,0,0,1,4.939,7.817,27.2,27.2,0,0,1,9.117,5.07c.08-.045.158-.085.238-.126a37.479,37.479,0,0,1,7.63-2.951c.351-.095.7-.185,1.042-.269q.672-.164,1.321-.3h0c.542-.118,1.069-.224,1.578-.314a44.752,44.752,0,0,1,6.843-.75.179.179,0,1,0,0-.355,45.114,45.114,0,0,0-6.763.73c-.438.079-.89.165-1.354.261-.134.027-.269.056-.4.086q-.571.123-1.161.266t-1.185.3H16.9q-.9.242-1.758.517a34.918,34.918,0,0,0-7.4,3.264q-.545.327-1.064.67-.883.583-1.689,1.217-.4.314-.791.645A22.864,22.864,0,0,0,2.422,9.645c-.1.1-.188.2-.28.3A20.619,20.619,0,0,0,.009,12.734.1.1,0,0,0,0,12.753Z" transform="translate(0 0)" fill="#fe7101"/>
    </g>
    <g id="Group_21" data-name="Group 21" transform="translate(80.349 127.925)">
      <path id="Path-62" data-name="Path" d="M11.035,0,10.75,1.591A13.024,13.024,0,0,1,.6,12.043l-.6.126.38-1.83A13.024,13.024,0,0,1,9.275.546Z" transform="translate(142.081)" fill="#fe7101" opacity="0.69"/>
      <path id="Path-63" data-name="Path" d="M.055,12.922l.167,1.8.5-.333a14.126,14.126,0,0,0,5.239-6.41.02.02,0,0,0,0-.009,14.445,14.445,0,0,0,.672-6.31L6.438,0,4.914,1.217A14.908,14.908,0,0,0,3.7,2.3,14,14,0,0,0,.055,12.922Z" transform="translate(131.689 2.81)" fill="#fe7101" opacity="0.44"/>
      <path id="Path-64" data-name="Path" d="M0,.5,1.057,1.818A10.988,10.988,0,0,0,11.809,6.089L13.5,5.812l-.309-.472A12.041,12.041,0,0,0,5.286.1h0A11.942,11.942,0,0,0,1.454.217Z" transform="translate(137.363 14.109)" fill="#fe7101" opacity="0.43"/>
      <path id="Path-65" data-name="Path" d="M16.426,2.809l-1.376.848a13.023,13.023,0,0,1-14.557-.6L0,2.688l1.618-.936a13.024,13.024,0,0,1,13.229.108Z" transform="translate(146.868 8.105)" fill="#fff"/>
      <path id="Path-66" data-name="Path" d="M16.426,2.809l-1.376.848a13.023,13.023,0,0,1-14.557-.6L0,2.688l1.618-.936a13.024,13.024,0,0,1,13.229.108Z" transform="translate(146.868 8.105)" fill="#fe7101" opacity="0.45"/>
      <path id="Path-67" data-name="Path" d="M21.462,2.3q-.312.054-.623.1l-.071-.032c-.022-.01-.045-.019-.068-.03A24.441,24.441,0,0,0,15.875.783C15.347.673,14.8.578,14.228.507A18.541,18.541,0,0,0,11.6.361c-.134,0-.269.006-.407.012h0a15.649,15.649,0,0,0-2.7.345c-.452.1-.909.221-1.367.37q-.41.132-.82.294c-.2.078-.4.162-.593.25h0a13.978,13.978,0,0,0-1.282.658A15.056,15.056,0,0,0,.4,5.749c-.027.033-.055.066-.082.1a.175.175,0,0,1-.149.065l-.011,0a.166.166,0,0,1-.09-.038A.158.158,0,0,1,.012,5.8a.176.176,0,0,1,.028-.174c.041-.05.081-.1.123-.147A15.654,15.654,0,0,1,3.985,2.131,14.055,14.055,0,0,1,6.615.872c.166-.06.335-.116.5-.169A14.581,14.581,0,0,1,8.65.31,15.8,15.8,0,0,1,10.977.023q.2-.011.41-.017a18.837,18.837,0,0,1,2.9.151c.418.052.827.117,1.225.192a24.588,24.588,0,0,1,5.044,1.537l.314.137.263.119c.122.056.232.108.33.155C21.459,2.3,21.459,2.3,21.462,2.3Z" transform="translate(6.543 21.634)" fill="#fff"/>
      <path id="Path-68" data-name="Path" d="M6.985,0,5.932.4A9.152,9.152,0,0,0,.013,8.672L0,9.1l1.205-.493a9.152,9.152,0,0,0,5.62-7.333Z" transform="translate(0 27.005)" fill="#fff"/>
      <path id="Path-69" data-name="Path" d="M4.028,0,3.176.734A9.15,9.15,0,0,0,.464,10.54l.134.407.963-.875A9.151,9.151,0,0,0,4.317,1.254Z" transform="translate(8.768 22.799)" fill="#fff"/>
      <path id="Path-70" data-name="Path" d="M4.028,0,3.176.734A9.15,9.15,0,0,0,.464,10.54l.134.407.963-.875A9.151,9.151,0,0,0,4.317,1.254Z" transform="translate(8.768 22.799)" fill="#fe7101" opacity="0.78"/>
      <path id="Path-71" data-name="Path" d="M9.32,14.774c0,.08-.01.16-.016.238-.008.094-.017.189-.027.281-.006.061-.012.122-.019.182-.015.134-.032.266-.052.4,0,.032-.008.064-.014.1s-.013.086-.02.128-.01.061-.016.09q-.871.281-1.745.538h0c-1.084.317-2.169.6-3.254.852h0q-1.171.266-2.337.465h0q-.312.054-.623.1l-.112.017c-.008-.026-.017-.052-.027-.079-.049-.143-.1-.293-.147-.448a19.612,19.612,0,0,1-.867-4.49C.023,12.832.008,12.518,0,12.2H0A15.944,15.944,0,0,1,.221,9.251h0c.007-.048.016-.1.025-.145h0A14.265,14.265,0,0,1,1.491,5.312q.235-.479.515-.954h0l.007-.012c.13-.221.269-.437.414-.657h0c.094-.143.194-.285.3-.428h0q.415-.578.908-1.145A17.636,17.636,0,0,1,5.842,0,45.271,45.271,0,0,1,7.594,4.541a34,34,0,0,1,1.711,8.023c.017.248.03.493.036.74C9.356,13.8,9.35,14.29,9.32,14.774Z" transform="translate(26.185 5.893)" fill="#fff"/>
      <path id="Path-72" data-name="Path" d="M9.32,14.774c0,.08-.01.16-.016.238-.008.094-.017.189-.027.281-.006.061-.012.122-.019.182-.015.134-.032.266-.052.4,0,.032-.008.064-.014.1s-.013.086-.02.128-.01.061-.016.09q-.871.281-1.745.538h0c-1.084.317-2.169.6-3.254.852h0q-1.171.266-2.337.465h0q-.312.054-.623.1l-.112.017c-.008-.026-.017-.052-.027-.079-.049-.143-.1-.293-.147-.448a19.612,19.612,0,0,1-.867-4.49C.023,12.832.008,12.518,0,12.2H0A15.944,15.944,0,0,1,.221,9.251h0c.007-.048.016-.1.025-.145h0A14.265,14.265,0,0,1,1.491,5.312q.235-.479.515-.954h0l.007-.012c.13-.221.269-.437.414-.657h0c.094-.143.194-.285.3-.428h0q.415-.578.908-1.145A17.636,17.636,0,0,1,5.842,0,45.271,45.271,0,0,1,7.594,4.541a34,34,0,0,1,1.711,8.023c.017.248.03.493.036.74C9.356,13.8,9.35,14.29,9.32,14.774Z" transform="translate(26.185 5.893)" fill="#ffb600" opacity="0.67"/>
      <path id="Path-73" data-name="Path" d="M9.258,11.13c-.015.134-.032.266-.052.4,0,.032-.008.064-.014.1s-.013.086-.02.128-.01.061-.016.09q-.871.281-1.745.538h0c-1.084.317-2.169.6-3.254.852h0q-1.171.266-2.337.465h0q-.312.054-.623.1l-.112.017c-.008-.026-.017-.052-.027-.079-.049-.143-.1-.293-.147-.448a19.612,19.612,0,0,1-.867-4.49C.023,8.486.008,8.173,0,7.852H0A15.944,15.944,0,0,1,.221,4.905h0c.007-.048.016-.1.025-.145h0A14.265,14.265,0,0,1,1.491.966q.235-.479.515-.954h0L2.014,0c.073.068.144.134.216.206l.05.045q.152.145.3.3c.111.112.221.224.328.344.045.045.09.09.131.139a24.493,24.493,0,0,1,1.74,2.137q.19.26.373.526c.033.045.063.09.095.134.081.117.159.234.239.352h0c.113.168.224.336.335.508.079.124.159.247.235.371A47.06,47.06,0,0,1,8.578,9.668q.121.25.237.5C8.966,10.488,9.115,10.811,9.258,11.13Z" transform="translate(26.185 10.239)" fill="#ffb600" opacity="0.67"/>
      <path id="Path-74" data-name="Path" d="M21.462,2.3q-.312.054-.623.1l-.071-.032c-.022-.01-.045-.019-.068-.03A24.441,24.441,0,0,0,15.875.783C15.347.673,14.8.578,14.228.507A18.541,18.541,0,0,0,11.6.361c-.134,0-.269.006-.407.012h0a15.649,15.649,0,0,0-2.7.345c-.452.1-.909.221-1.367.37q-.41.132-.82.294c-.2.078-.4.162-.593.25h0a13.978,13.978,0,0,0-1.282.658A15.056,15.056,0,0,0,.4,5.749c-.027.033-.055.066-.082.1a.175.175,0,0,1-.149.065l-.011,0a.166.166,0,0,1-.09-.038A.158.158,0,0,1,.012,5.8a.176.176,0,0,1,.028-.174c.041-.05.081-.1.123-.147A15.654,15.654,0,0,1,3.985,2.131,14.055,14.055,0,0,1,6.615.872c.166-.06.335-.116.5-.169A14.581,14.581,0,0,1,8.65.31,15.8,15.8,0,0,1,10.977.023q.2-.011.41-.017a18.837,18.837,0,0,1,2.9.151c.418.052.827.117,1.225.192a24.588,24.588,0,0,1,5.044,1.537l.314.137.263.119c.122.056.232.108.33.155C21.459,2.3,21.459,2.3,21.462,2.3Z" transform="translate(6.543 21.634)" fill="#fe7101"/>
    </g>
    <g id="Group_20" data-name="Group 20" transform="translate(75.366 133.157)">
      <path id="Path-75" data-name="Path" d="M14.615,17.38h0c-1.084.317-2.169.6-3.254.852h0q-1.171.269-2.337.468h0q-.312.054-.623.1l-.112.017q-1.35.2-2.7.3-.314-.238-.642-.5a11.91,11.91,0,0,1-1.515-1.434q-.189-.214-.366-.435C-2.155,10.25.872,0,.872,0l.173.034L1.158.06c.057.013.114.026.171.041.113.029.224.059.338.093S1.9.264,2.009.3c.05.018.1.035.147.054a.524.524,0,0,1,.054.02l.124.048L2.4.45l.033.013L2.5.492l.126.053L2.749.6l.125.058c.042.019.083.039.124.06l.151.076c.092.047.183.1.273.146l.015.008.175.1.175.1c.119.072.236.146.353.224.176.116.349.238.522.364q.433.32.852.683c.112.1.224.195.331.3.056.051.111.1.165.154.109.1.216.207.325.314l.16.162c.156.158.308.319.46.484q.455.5.891,1.031.217.269.428.543c.142.185.282.371.42.561q.19.261.373.526l.095.134c.081.118.159.234.239.352h0c.113.169.224.338.335.509.453.7.885,1.426,1.294,2.156q.264.47.514.941.166.314.328.628c.108.209.214.419.317.628s.206.418.306.628c.531,1.1,1.008,2.178,1.428,3.187.049.119.1.237.146.353l.107.261q.156.388.3.76C14.525,17.15,14.57,17.267,14.615,17.38Z" transform="translate(23.965)" fill="#fff"/>
      <path id="Path-76" data-name="Path" d="M6.985,0,5.932.4A9.152,9.152,0,0,0,.013,8.672L0,9.1l1.205-.493a9.152,9.152,0,0,0,5.62-7.333Z" transform="translate(4.983 21.773)" fill="#fe7101" opacity="0.42"/>
      <path id="Path-77" data-name="Path" d="M14.615,17.38h0c-1.084.317-2.169.6-3.254.852h0q-1.171.269-2.337.468h0q-.312.054-.623.1l-.112.017q-1.35.2-2.7.3-.314-.238-.642-.5a11.91,11.91,0,0,1-1.515-1.434q-.189-.214-.366-.435C-2.155,10.25.872,0,.872,0l.173.034L1.158.06c.057.013.114.026.171.041.113.029.224.059.338.093S1.9.264,2.009.3c.05.018.1.035.147.054a.524.524,0,0,1,.054.02l.124.048L2.4.45l.033.013L2.5.492l.126.053L2.749.6l.125.058c.042.019.083.039.124.06l.151.076c.092.047.183.1.273.146l.015.008.175.1.175.1c.119.072.236.146.353.224.176.116.349.238.522.364q.433.32.852.683c.112.1.224.195.331.3.056.051.111.1.165.154.109.1.216.207.325.314l.16.162c.156.158.308.319.46.484q.455.5.891,1.031.217.269.428.543c.142.185.282.371.42.561q.19.261.373.526l.095.134c.081.118.159.234.239.352h0c.113.169.224.338.335.509.453.7.885,1.426,1.294,2.156q.264.47.514.941.166.314.328.628c.108.209.214.419.317.628s.206.418.306.628c.531,1.1,1.008,2.178,1.428,3.187.049.119.1.237.146.353l.107.261q.156.388.3.76C14.525,17.15,14.57,17.267,14.615,17.38Z" transform="translate(23.965)" fill="#ffb600" opacity="0.67"/>
      <path id="Path-78" data-name="Path" d="M13.457,17.32c-1.084.317-2.169.6-3.254.852h0a20.119,20.119,0,0,1-4.113-4.435A47.307,47.307,0,0,1,0,0C.057.013.114.026.171.041.284.069.395.1.509.134S.737.2.85.243C.9.261.949.278,1,.3a.524.524,0,0,1,.054.02l.124.048L1.238.39,1.271.4c.065.026.129.053.194.082l.126.056L1.715.6c.042.019.083.039.124.06L1.99.734c.051.026.094.051.142.076l.131.07.015.008.175.1.175.1c.119.072.236.146.353.224.176.116.349.238.522.364q.433.32.852.683c.112.1.224.195.331.3.056.051.111.1.165.154.109.1.216.207.325.314l.16.162c.156.158.308.319.46.484q.455.5.891,1.031.217.269.428.543c.142.185.282.371.42.561q.189.261.373.526L8,6.564c.08.118.159.234.238.352h0c.113.169.224.338.335.509.453.7.885,1.426,1.294,2.156q.264.47.514.941.166.314.328.628c.108.209.214.419.317.628s.206.418.306.628c.531,1.1,1.008,2.178,1.428,3.187.049.119.1.237.146.353l.107.261c.1.259.2.512.3.76C13.367,17.089,13.412,17.206,13.457,17.32Z" transform="translate(25.122 0.063)" fill="#fff"/>
      <path id="Path-79" data-name="Path" d="M13.457,17.32c-1.084.317-2.169.6-3.254.852h0a20.119,20.119,0,0,1-4.113-4.435A47.307,47.307,0,0,1,0,0C.057.013.114.026.171.041.284.069.395.1.509.134S.737.2.85.243C.9.261.949.278,1,.3a.524.524,0,0,1,.054.02l.124.048L1.238.39,1.271.4c.065.026.129.053.194.082l.126.056L1.715.6c.042.019.083.039.124.06L1.99.734c.051.026.094.051.142.076l.131.07.015.008.175.1.175.1c.119.072.236.146.353.224.176.116.349.238.522.364q.433.32.852.683c.112.1.224.195.331.3.056.051.111.1.165.154.109.1.216.207.325.314l.16.162c.156.158.308.319.46.484q.455.5.891,1.031.217.269.428.543c.142.185.282.371.42.561q.189.261.373.526L8,6.564c.08.118.159.234.238.352h0c.113.169.224.338.335.509.453.7.885,1.426,1.294,2.156q.264.47.514.941.166.314.328.628c.108.209.214.419.317.628s.206.418.306.628c.531,1.1,1.008,2.178,1.428,3.187.049.119.1.237.146.353l.107.261c.1.259.2.512.3.76C13.367,17.089,13.412,17.206,13.457,17.32Z" transform="translate(25.122 0.063)" fill="#ffb600" opacity="0.29"/>
      <path id="Path-80" data-name="Path" d="M24.222,17.4c-.138-.018-.274-.037-.412-.058a20.365,20.365,0,0,0-1.1-2.133h0c-.069-.117-.139-.234-.212-.35a22.616,22.616,0,0,0-1.658-2.343,27.125,27.125,0,0,0-3.494-3.574h0c-.069-.06-.134-.116-.2-.173h0a37.473,37.473,0,0,0-6.822-4.511Q9.838,4,9.362,3.767c-.414-.2-.823-.4-1.224-.579h0c-.5-.231-1-.448-1.475-.644-.775-.323-1.51-.606-2.189-.852A40.248,40.248,0,0,0,.139.352.179.179,0,0,1,0,.139.177.177,0,0,1,.217,0,40.1,40.1,0,0,1,4.3,1.253c.724.259,1.519.561,2.362.909.412.171.834.351,1.267.545.125.055.25.113.375.169q.359.164.723.338c.118.055.237.112.355.17q.538.262,1.092.55s0,0,.005,0q.823.426,1.6.878h0q.328.188.648.381a34.263,34.263,0,0,1,5.883,4.388q.463.436.9.88.738.762,1.39,1.551.329.394.633.8h0a22.8,22.8,0,0,1,1.372,2.024c.071.119.142.237.208.355A20.871,20.871,0,0,1,24.222,17.4Z" transform="translate(0 1.571)" fill="#fff"/>
      <path id="Path-81" data-name="Path" d="M21.647,6.1A.217.217,0,0,1,21.468,6,11.854,11.854,0,0,0,20.2,4.48C16.69.917,11.469.321,7.7.45A31.99,31.99,0,0,0,.281,1.6a.217.217,0,1,1-.128-.415A32.5,32.5,0,0,1,7.69.016c3.849-.13,9.2.484,12.82,4.16a12.293,12.293,0,0,1,1.314,1.582.217.217,0,0,1-.179.342Z" transform="translate(129.933 15.339)" fill="#fff"/>
      <path id="Path-82" data-name="Path" d="M7.518,9.963A9.469,9.469,0,0,0,.145,0S-1.667,6.947,7.518,9.963Z" transform="translate(134.495 15.648)" fill="#fff"/>
      <path id="Path-83" data-name="Path" d="M11.5.5A9.469,9.469,0,0,0,0,5.13S6.268,8.63,11.5.5Z" transform="translate(140.874 10.298)" fill="#fff"/>
      <path id="Path-84" data-name="Path" d="M.471.076c.19-.583,7.979,2.113,5.513,10C5.986,10.075-1.988,7.663.471.076Z" transform="translate(148.229 19.534)" fill="#fff"/>
    </g>
    <g id="Group-5" data-name="Group" transform="translate(205.299 143.455)" opacity="0.78">
      <path id="Path-85" data-name="Path" d="M21.647,6.1A.217.217,0,0,1,21.468,6,11.854,11.854,0,0,0,20.2,4.48C16.69.917,11.469.321,7.7.45A31.99,31.99,0,0,0,.281,1.6a.217.217,0,1,1-.128-.415A32.5,32.5,0,0,1,7.69.016c3.849-.13,9.2.484,12.82,4.16a12.293,12.293,0,0,1,1.314,1.582.217.217,0,0,1-.179.342Z" transform="translate(0 5.041)" fill="#fe7101"/>
      <g id="Group-6" data-name="Group" transform="translate(4.562 5.349)" opacity="0.61">
        <path id="Path-86" data-name="Path" d="M7.518,9.963A9.469,9.469,0,0,0,.145,0S-1.667,6.947,7.518,9.963Z" transform="translate(0 0)" fill="#fe7101"/>
      </g>
      <path id="Path-87" data-name="Path" d="M11.5.5A9.469,9.469,0,0,0,0,5.13S6.268,8.63,11.5.5Z" transform="translate(10.94 0)" fill="#fe7101"/>
      <g id="Group-7" data-name="Group" transform="translate(18.296 7.798)" opacity="0.42">
        <path id="Path-88" data-name="Path" d="M.471.076c.19-.583,7.979,2.113,5.513,10C5.986,10.074-1.988,7.663.471.076Z" fill="#fe7101"/>
      </g>
    </g>
    <path id="Path-89" data-name="Path" d="M13.363,7.395c-.048.25-.1.5-.156.747-.017.078-.035.156-.054.234-.036.152-.074.3-.113.455-.124.473-.264.933-.424,1.372a34.416,34.416,0,0,1-5.72.488H6.814c-.207,0-.414,0-.62,0H6.117c-.161,0-.322-.006-.484-.011s-.344-.011-.516-.018a.3.3,0,0,1-.045,0l-.348-.016-.347-.019L4.03,10.6c-.2-.013-.4-.028-.6-.045l-.247-.02-.191-.017-.346-.032-.307-.031h0Q1.163,10.266,0,10.03c.02-.045.042-.087.063-.131A18.118,18.118,0,0,1,13.958,0s0,.09,0,.26A39.4,39.4,0,0,1,13.363,7.395Z" transform="translate(196.443 140.44)" fill="#fff"/>
    <path id="Path-90" data-name="Path" d="M7.229,7.135c-.048.25-.1.5-.156.747-.017.078-.035.156-.054.234-.036.152-.074.3-.113.455-.124.473-.264.933-.424,1.372a34.416,34.416,0,0,1-5.72.488H.68c-.207,0-.414,0-.62,0H0A86.725,86.725,0,0,1,7.827,0,39.343,39.343,0,0,1,7.229,7.135Z" transform="translate(202.577 140.7)" fill="#fff" opacity="0.56"/>
    <g id="Group-8" data-name="Group" transform="translate(196.443 140.44)" opacity="0.67">
      <path id="Path-91" data-name="Path" d="M13.363,7.395c-.048.25-.1.5-.156.747-.017.078-.035.156-.054.234-.036.152-.074.3-.113.455-.124.473-.264.933-.424,1.372a34.416,34.416,0,0,1-5.72.488H6.814c-.207,0-.414,0-.62,0H6.117c-.161,0-.322-.006-.484-.011s-.344-.011-.516-.018a.3.3,0,0,1-.045,0l-.348-.016-.347-.019L4.03,10.6c-.2-.013-.4-.028-.6-.045l-.247-.02-.191-.017-.346-.032-.307-.031h0Q1.163,10.266,0,10.03c.02-.045.042-.087.063-.131A18.118,18.118,0,0,1,13.958,0s0,.09,0,.26A39.4,39.4,0,0,1,13.363,7.395Z" transform="translate(0 0)" fill="#ffb600"/>
    </g>
    <path id="Path-92" data-name="Path" d="M7.229,7.135c-.048.25-.1.5-.156.747-.017.078-.035.156-.054.234-.036.152-.074.3-.113.455-.124.473-.264.933-.424,1.372a34.416,34.416,0,0,1-5.72.488H.68c-.207,0-.414,0-.62,0H0A86.725,86.725,0,0,1,7.827,0,39.343,39.343,0,0,1,7.229,7.135Z" transform="translate(202.577 140.7)" fill="#fe7101" opacity="0.5"/>
    <path id="Path-93" data-name="Path" d="M.071,0,.01,1.614A13.023,13.023,0,0,0,7.692,13.993l.561.252.02-1.869A13.023,13.023,0,0,0,1.675.908Z" transform="translate(79.865 125.595)" fill="#fff"/>
    <path id="Path-94" data-name="Path" d="M14.92,1.554,13.56.972A12.04,12.04,0,0,0,.4,3.434L0,3.828l1.591.632A12.041,12.041,0,0,0,13.6,2.623Z" transform="translate(77.863 142.053)" fill="#fff"/>
    <path id="Path-95" data-name="Path" d="M.071,0,.01,1.614A13.023,13.023,0,0,0,7.692,13.993l.561.252.02-1.869A13.023,13.023,0,0,0,1.675.908Z" transform="translate(79.865 125.595)" fill="#fff" opacity="0.54"/>
    <path id="Path-96" data-name="Path" d="M14.92,1.554,13.56.972A12.04,12.04,0,0,0,.4,3.434L0,3.828l1.591.632A12.041,12.041,0,0,0,13.6,2.623Z" transform="translate(77.863 142.053)" fill="#fff"/>
    <path id="Path-97" data-name="Path" d="M0,1.275,1.163,2.4a13.023,13.023,0,0,0,14.35,2.52l.561-.251-1.381-1.26A13.023,13.023,0,0,0,1.747.685Z" transform="translate(67.643 133.148)" fill="#fff"/>
    <path id="Path-98" data-name="Path" d="M0,1.275,1.163,2.4a13.023,13.023,0,0,0,14.35,2.52l.561-.251-1.381-1.26A13.023,13.023,0,0,0,1.747.685Z" transform="translate(67.643 133.148)" fill="#fff"/>
    <path id="Path-99" data-name="Path" d="M.071,0,.01,1.614A13.023,13.023,0,0,0,7.692,13.993l.561.252.02-1.869A13.023,13.023,0,0,0,1.675.908Z" transform="translate(79.865 125.595)" fill="#fff"/>
    <path id="Path-100" data-name="Path" d="M4.929,14.378,4.381,16.1l-.42-.433A14.132,14.132,0,0,1,.213,8.287a.03.03,0,0,1,0-.009A13.593,13.593,0,0,1,.73,1.472L1.241,0,2.39,1.414A13.976,13.976,0,0,1,3.639,3.228,13.993,13.993,0,0,1,4.929,14.378Z" transform="translate(92.506 131.498)" fill="#fff"/>
    <path id="Path-101" data-name="Path" d="M14.919,1.558,13.6,2.623A12.03,12.03,0,0,1,1.592,4.46L0,3.829l.4-.395A12.043,12.043,0,0,1,9.243.007h0A11.958,11.958,0,0,1,13.56.973Z" transform="translate(77.865 142.05)" fill="#fff"/>
    <g id="Group-9" data-name="Group" transform="translate(75.365 134.728)" opacity="0.78">
      <path id="Path-102" data-name="Path" d="M24.222,17.4c-.138-.018-.274-.037-.412-.058a20.365,20.365,0,0,0-1.1-2.133h0c-.069-.117-.139-.234-.212-.35a22.616,22.616,0,0,0-1.658-2.343,27.125,27.125,0,0,0-3.494-3.574h0c-.069-.06-.134-.116-.2-.173h0a37.473,37.473,0,0,0-6.822-4.511Q9.838,4,9.362,3.767c-.414-.2-.823-.4-1.224-.579h0c-.5-.231-1-.448-1.475-.644-.775-.323-1.51-.606-2.189-.852A40.248,40.248,0,0,0,.139.352.179.179,0,0,1,0,.139.177.177,0,0,1,.217,0,40.1,40.1,0,0,1,4.3,1.253c.724.259,1.519.561,2.362.909.412.171.834.351,1.267.545.125.055.25.113.375.169q.359.164.723.338c.118.055.237.112.355.17q.538.262,1.092.55s0,0,.005,0q.823.426,1.6.878h0q.328.188.648.381a34.263,34.263,0,0,1,5.883,4.388q.463.436.9.88.738.762,1.39,1.551.329.394.633.8h0a22.8,22.8,0,0,1,1.372,2.024c.071.119.142.237.208.355A20.871,20.871,0,0,1,24.222,17.4Z" transform="translate(0 0)" fill="#fe7101"/>
    </g>
    <path id="Path-103" data-name="Path" d="M.071,0,.01,1.614a13.024,13.024,0,0,0,7.682,12.38l.561.251.02-1.869A13.024,13.024,0,0,0,1.675.909Z" transform="translate(79.846 125.938)" fill="#fe7101" opacity="0.42"/>
    <path id="Path-104" data-name="Path" d="M4.806,13.985l-.547,1.721-.42-.433A14.132,14.132,0,0,1,.09,7.894a.03.03,0,0,1,0-.009A14.455,14.455,0,0,1,.783,1.577L1.33,0,2.56,1.514a14.881,14.881,0,0,1,.956,1.32A14,14,0,0,1,4.806,13.985Z" transform="translate(92.629 131.891)" fill="#fe7101" opacity="0.17"/>
    <path id="Path-105" data-name="Path" d="M14.32,1.522,13.007,2.586A12.053,12.053,0,0,1,5,5.265a11.941,11.941,0,0,1-3.407-.8L0,3.83l.4-.395A12.043,12.043,0,0,1,9.242.007h0a11.955,11.955,0,0,1,3.716.929Z" transform="translate(77.866 142.051)" fill="#fe7101" opacity="0.43"/>
    <path id="Path-106" data-name="Path" d="M0,1.275,1.163,2.4a13.023,13.023,0,0,0,14.35,2.52l.561-.251-1.381-1.26A13.023,13.023,0,0,0,1.747.685Z" transform="translate(67.643 133.148)" fill="#fff"/>
    <path id="Path-107" data-name="Path" d="M0,1.275,1.163,2.4a13.023,13.023,0,0,0,14.35,2.52l.561-.251-1.381-1.26A13.023,13.023,0,0,0,1.747.685Z" transform="translate(67.643 133.148)" fill="#fe7101" opacity="0.78"/>
  </g>
</svg>
