<svg id="Group_15003" data-name="Group 15003" xmlns="http://www.w3.org/2000/svg" xmlns:xlink="http://www.w3.org/1999/xlink" width="244" height="178" viewBox="0 0 244 178">
  <defs>
    <clipPath id="clip-path">
      <circle id="Ellipse_150" data-name="Ellipse 150" cx="11.222" cy="11.222" r="11.222" transform="translate(0 5.112) rotate(-13.166)" fill="none"/>
    </clipPath>
    <clipPath id="clip-path-2">
      <circle id="Ellipse_152" data-name="Ellipse 152" cx="11.222" cy="11.222" r="11.222" transform="translate(0 15.87) rotate(-45)" fill="none"/>
    </clipPath>
    <clipPath id="clip-path-3">
      <circle id="Ellipse_154" data-name="Ellipse 154" cx="11.222" cy="11.222" r="11.222" transform="matrix(0.522, -0.853, 0.853, 0.522, 0, 19.14)" fill="none"/>
    </clipPath>
  </defs>
  <g id="OBJECTS">
    <g id="Group_15074" data-name="Group 15074">
      <g id="Group_15073" data-name="Group 15073">
        <path id="Path_34897" data-name="Path 34897" d="M279.895,387.8c0-3.486-52.422-6.312-117.087-6.312S45.721,384.313,45.721,387.8s52.422,6.312,117.087,6.312S279.895,391.284,279.895,387.8Z" transform="translate(-35.895 -216.11)" fill="#e6f8ff"/>
        <g id="Group_15072" data-name="Group 15072">
          <g id="Group_15003-2" data-name="Group 15003" transform="translate(0 7.224)">
            <path id="Path_34898" data-name="Path 34898" d="M52.243,255.329a24.418,24.418,0,0,1-24.351-24.955c.2-7.425,2.971-14.625,11.4-18.55,22.2-10.338-8.778-77.536,30.462-84.255s37.691-57.893,83.644-19.642,54.213-13.44,84.159,13.44-19.62,60.995,17.555,78.57c24.513,11.589,16.474,32.393,8.154,45.22a24.375,24.375,0,0,1-20.579,11.067Z" transform="translate(-27.883 -93.864)" fill="#caedff"/>
            <path id="Path_34899" data-name="Path 34899" d="M324.191,256.285a24.465,24.465,0,0,0,20.64-11.067c8.344-12.827,16.407-33.631-8.178-45.22-37.283-17.575,12.428-51.691-17.606-78.57s-38.319,24.811-84.405-13.44C223.3,98.578,214.848,94.582,207.958,94a25.737,25.737,0,0,1,6.508,6.451c16.743,23.4,26.79,40.484,61.764,37.512s-15.627,57.941,11.906,65c18.188,4.662,15.753,32.659,2.569,53.164Z" transform="translate(-109.473 -93.927)" fill="#bae6f7" opacity="0.44" style="mix-blend-mode: multiply;isolation: isolate"/>
          </g>
          <g id="Group_15007" data-name="Group 15007" transform="translate(45.254 11.246)">
            <g id="Group_15004" data-name="Group 15004" transform="translate(32.088)">
              <path id="Path_34900" data-name="Path 34900" d="M184.88,141.188a25.436,25.436,0,0,1-7.962-2.181c-3.785-1.753-7.182-5.118-5.261-8.438,2.839-4.55-5.234-8.4-2.49-10.936,2.795-2.244,3.381-.386,2.305-5.4-.886-5.122,2.639-6.353,4.622-10.935,2.266-4.61,7.473-1.161,6.185,4.855-1.013,6.207,1.382-.206,3.144,2.593,1.5,2.312-4.412,12.274-1.8,11.371,2.418-1.088,4.5.429,4.179,3.211C186.865,131.734,184.761,141.061,184.88,141.188Z" transform="translate(-168.589 -101.164)" fill="#7bc7ff"/>
              <path id="Path_34901" data-name="Path 34901" d="M189.437,148.527a.082.082,0,0,1-.071-.034,43.6,43.6,0,0,1-8.774-16.43l-.014-.053-.045-.027a23.8,23.8,0,0,1-4.656-3.913c-.472-.486-.938-.984-1.405-1.484a.065.065,0,0,1-.015-.084.1.1,0,0,1,.122-.057.108.108,0,0,1,.033.024c.456.489.912.975,1.372,1.452a24.9,24.9,0,0,0,4.269,3.672l.257.165q-.04-.155-.08-.311a41.456,41.456,0,0,1-1.266-9.166l0-.086-.073-.034a.067.067,0,0,1-.031-.026,23.3,23.3,0,0,1-2.852-6.16.084.084,0,0,1,.018-.093.1.1,0,0,1,.111-.02.087.087,0,0,1,.033.051,23.19,23.19,0,0,0,2.56,5.695c.075.12.15.239.226.358q0-.217-.006-.435a46.57,46.57,0,0,1,.95-9.8c.008-.041.026-.049.033-.052a.1.1,0,0,1,.127.119,45.468,45.468,0,0,0-.766,13.153c.008.085.015.171.024.256l.176-.167a33.45,33.45,0,0,0,5.091-6.156c.017-.026.033-.037.066-.02a.125.125,0,0,1,.061.076.09.09,0,0,1-.013.077,33.429,33.429,0,0,1-5.3,6.365l-.058.048.008.075a40.388,40.388,0,0,0,1.165,6.351l.009.035.025.025a.083.083,0,0,1,.02.083l-.008.035.009.035a40.461,40.461,0,0,0,1.941,5.461l.138.312c.029-.109.058-.218.088-.327a32.055,32.055,0,0,1,3.636-8.414.078.078,0,0,1,.1-.036.1.1,0,0,1,.066.052.059.059,0,0,1-.01.057,32.129,32.129,0,0,0-3.754,8.868l-.012.047.02.044a44.6,44.6,0,0,0,6.539,10.272c.027.033.019.052.016.061a.111.111,0,0,1-.092.063Z" transform="translate(-171.221 -105.883)" fill="#379cf7"/>
            </g>
            <g id="Group_15005" data-name="Group 15005" transform="translate(0 34.947)">
              <path id="Path_34902" data-name="Path 34902" d="M148.889,185.359a29.883,29.883,0,0,0-.8-8.926c-1.088-4.356-3.833-8.543-7.44-6.989-4.978,2.353-7.412-6.954-10.379-4.388-2.692,2.665-.956,3.586-5.73,1.644-4.909-1.754-6.724,1.856-11.588,3.281-4.938,1.725-2.417,7.878,3.744,7.426,6.3-.126-.438,1.459,2.028,3.8,2.028,1.98,12.874-2.847,11.538-.165-1.486,2.438-.343,4.921,2.461,5.007C139.212,186.029,148.783,185.211,148.889,185.359Z" transform="translate(-110.339 -164.605)" fill="#7bc7ff"/>
              <path id="Path_34903" data-name="Path 34903" d="M156.026,190.82a.1.1,0,0,0-.021-.082,42.611,42.611,0,0,0-14.737-12.021l-.05-.024-.019-.052a25.6,25.6,0,0,0-3.073-5.631c-.4-.585-.813-1.165-1.227-1.747a.061.061,0,0,0-.08-.03.113.113,0,0,0-.078.122.119.119,0,0,0,.018.039c.405.568.809,1.135,1.2,1.706a26.633,26.633,0,0,1,2.9,5.175q.06.151.12.3l-.294-.136a38.184,38.184,0,0,0-8.839-2.792l-.085-.016-.021-.084a.073.073,0,0,0-.02-.038,22.436,22.436,0,0,0-5.6-4.035.077.077,0,0,0-.094.006.11.11,0,0,0-.039.117.086.086,0,0,0,.045.044,22.311,22.311,0,0,1,5.191,3.648l.314.3-.428-.074a42.767,42.767,0,0,0-9.844-.5c-.042,0-.053.02-.057.027a.113.113,0,0,0,0,.1.091.091,0,0,0,.1.056,41.713,41.713,0,0,1,13.123,1.222l.25.066-.2.164a34.285,34.285,0,0,1-6.946,4.531.048.048,0,0,0-.031.068.131.131,0,0,0,.065.078.086.086,0,0,0,.078,0,34.315,34.315,0,0,0,7.188-4.721l.057-.056.073.02a37.426,37.426,0,0,1,6.075,2.246l.033.015.021.031a.078.078,0,0,0,.078.035l.036,0,.034.016a38.229,38.229,0,0,1,5.064,2.944l.285.2-.337.045a30.73,30.73,0,0,0-8.93,2.611.089.089,0,0,0-.052.1.109.109,0,0,0,.041.079.055.055,0,0,0,.057,0,30.722,30.722,0,0,1,9.4-2.667l.048-.006.041.029a44.276,44.276,0,0,1,9.035,8.652c.028.034.048.029.058.026a.122.122,0,0,0,.078-.089Z" transform="translate(-115.215 -167.579)" fill="#379cf7"/>
            </g>
            <g id="Group_15006" data-name="Group 15006" transform="translate(2.282 8.179)">
              <path id="Path_34904" data-name="Path 34904" d="M147.92,154.575a31.229,31.229,0,0,0,4.293-9.18c1.371-4.935.927-10.788-3.706-11.632-6.513-.965-3.7-11.58-8.247-11.027-4.322.828-3.05,2.855-6.887-2.143-4.085-4.9-8.04-2.585-13.9-4.376-6.113-1.548-7.03,6.065-.379,9.646,6.611,3.99-1.292,1.129-.075,5,.967,3.243,14.988,5.636,12.063,7.366-2.941,1.4-3.181,4.55-.322,6.462C137.5,148.912,147.9,154.362,147.92,154.575Z" transform="translate(-114.482 -116.012)" fill="#379cf7"/>
              <path id="Path_34905" data-name="Path 34905" d="M154.743,161.821a.1.1,0,0,0,.025-.093,53.537,53.537,0,0,0-8.386-21.274l-.038-.056.01-.063a29.243,29.243,0,0,0,.044-7.466c-.079-.828-.174-1.66-.27-2.494a.08.08,0,0,0-.066-.082.125.125,0,0,0-.151.068.133.133,0,0,0,0,.05c.094.815.187,1.628.266,2.438a30.557,30.557,0,0,1,.039,6.912q-.025.186-.051.371c-.075-.107-.15-.215-.226-.323a50.875,50.875,0,0,0-7.565-8.474l-.079-.072.027-.1a.082.082,0,0,0,0-.05,28.589,28.589,0,0,0-3.493-7.567.1.1,0,0,0-.1-.056.118.118,0,0,0-.107.088.108.108,0,0,0,.021.072,28.461,28.461,0,0,1,3.29,6.924q.078.248.154.5l-.4-.351a57.191,57.191,0,0,0-9.923-6.91c-.045-.025-.067-.015-.074-.01a.116.116,0,0,0-.057.1.117.117,0,0,0,.067.117,55.834,55.834,0,0,1,12.911,9.745l.221.226-.3.031a41.058,41.058,0,0,1-9.806-.137c-.037,0-.061,0-.071.046a.159.159,0,0,0,.023.118.113.113,0,0,0,.082.049,41.028,41.028,0,0,0,10.166.109l.091-.017.064.067a49.509,49.509,0,0,1,5.013,6.141l.026.037,0,.044a.1.1,0,0,0,.061.084l.04.02.025.037a49.615,49.615,0,0,1,3.563,6.159q.092.188.183.377l-.376-.177a39.369,39.369,0,0,0-10.761-3.292.1.1,0,0,0-.11.061.125.125,0,0,0,0,.1.073.073,0,0,0,.061.036,39.423,39.423,0,0,1,11.279,3.544l.053.026.025.054a54.776,54.776,0,0,1,4.406,14.286c.008.052.032.06.044.064a.139.139,0,0,0,.132-.036Z" transform="translate(-120.387 -119.373)" fill="#2481c6"/>
            </g>
          </g>
          <g id="Group_15011" data-name="Group 15011" transform="translate(76.882 42.111)">
            <g id="Group_15010" data-name="Group 15010">
              <g id="Group_15009" data-name="Group 15009" transform="translate(0)">
                <g id="Group_15008" data-name="Group 15008">
                  <rect id="Rectangle_1863" data-name="Rectangle 1863" width="70.598" height="127.456" rx="16.658" fill="#0a4d7a"/>
                </g>
              </g>
              <path id="Path_34906" data-name="Path 34906" d="M229.445,157.719H177.2a9.176,9.176,0,0,0-9.176,9.176V276a9.152,9.152,0,0,0,3.542,7.232l66.3-119.977A9.176,9.176,0,0,0,229.445,157.719Z" transform="translate(-168.023 -157.719)" fill="#083954"/>
              <path id="Path_34907" data-name="Path 34907" d="M234.028,165.834H214.645a.972.972,0,0,0-.969.969h0a.972.972,0,0,0,.969.969h19.383A.972.972,0,0,0,235,166.8h0A.972.972,0,0,0,234.028,165.834Z" transform="translate(-188.527 -161.364)" fill="#fff"/>
            </g>
            <path id="Path_34908" data-name="Path 34908" d="M232.249,163.96h-7.666l-2.758,5.228a5.957,5.957,0,0,1-5.268,3.177H195.7a5.957,5.957,0,0,1-5.268-3.177l-2.758-5.228H180a5.744,5.744,0,0,0-5.738,5.738V278.8A5.745,5.745,0,0,0,180,284.54h52.246a5.744,5.744,0,0,0,5.738-5.738V169.7A5.744,5.744,0,0,0,232.249,163.96Z" transform="translate(-170.827 -160.522)" fill="#caedff"/>
            <path id="Path_34909" data-name="Path 34909" d="M237.987,169.7v1.211L176.06,282.967a5.737,5.737,0,0,1-1.795-4.169V169.7A5.746,5.746,0,0,1,180,163.957h7.669l2.757,5.231a5.961,5.961,0,0,0,5.273,3.176h20.86a5.96,5.96,0,0,0,5.268-3.176l2.756-5.231h7.669A5.747,5.747,0,0,1,237.987,169.7Z" transform="translate(-170.827 -160.521)" fill="#bae6f7" opacity="0.85" style="mix-blend-mode: multiply;isolation: isolate"/>
          </g>
          <g id="Group_15021" data-name="Group 15021" transform="translate(86.176 62.142)">
            <rect id="Rectangle_1864" data-name="Rectangle 1864" width="87.394" height="27.674" rx="7.292" transform="translate(0)" fill="#fff"/>
            <g id="Group_15020" data-name="Group 15020" transform="translate(4.395 0.771)">
              <g id="Group_15013" data-name="Group 15013" transform="translate(30.85 4.052)">
                <g id="Group_15012" data-name="Group 15012" transform="translate(0 4.215)">
                  <path id="Path_34910" data-name="Path 34910" d="M252.377,210.383l.538,1.656a.281.281,0,0,0,.267.194h1.742a.281.281,0,0,1,.165.508l-1.409,1.024a.281.281,0,0,0-.1.314l.538,1.656a.281.281,0,0,1-.432.314l-1.409-1.024a.28.28,0,0,0-.33,0l-1.41,1.024a.281.281,0,0,1-.432-.314l.538-1.656a.28.28,0,0,0-.1-.314l-1.409-1.024a.281.281,0,0,1,.165-.508h1.742a.28.28,0,0,0,.267-.194l.538-1.656A.281.281,0,0,1,252.377,210.383Z" transform="translate(-249.015 -210.189)" fill="#fbbe42"/>
                  <path id="Path_34911" data-name="Path 34911" d="M269.924,210.383l.538,1.656a.281.281,0,0,0,.267.194h1.742a.281.281,0,0,1,.165.508l-1.41,1.024a.281.281,0,0,0-.1.314l.538,1.656a.281.281,0,0,1-.432.314l-1.409-1.024a.28.28,0,0,0-.33,0l-1.41,1.024a.281.281,0,0,1-.432-.314l.538-1.656a.28.28,0,0,0-.1-.314l-1.409-1.024a.281.281,0,0,1,.165-.508h1.742a.28.28,0,0,0,.267-.194l.539-1.656A.28.28,0,0,1,269.924,210.383Z" transform="translate(-256.896 -210.189)" fill="#fbbe42"/>
                  <path id="Path_34912" data-name="Path 34912" d="M287.47,210.383l.538,1.656a.281.281,0,0,0,.267.194h1.742a.281.281,0,0,1,.165.508l-1.41,1.024a.281.281,0,0,0-.1.314l.538,1.656a.281.281,0,0,1-.432.314l-1.409-1.024a.28.28,0,0,0-.33,0l-1.41,1.024a.281.281,0,0,1-.432-.314l.539-1.656a.282.282,0,0,0-.1-.314l-1.41-1.024a.281.281,0,0,1,.165-.508h1.742a.281.281,0,0,0,.267-.194l.538-1.656A.281.281,0,0,1,287.47,210.383Z" transform="translate(-264.776 -210.189)" fill="#fbbe42"/>
                  <path id="Path_34913" data-name="Path 34913" d="M305.016,210.383l.538,1.656a.281.281,0,0,0,.267.194h1.742a.281.281,0,0,1,.165.508l-1.41,1.024a.282.282,0,0,0-.1.314l.539,1.656a.281.281,0,0,1-.432.314l-1.41-1.024a.28.28,0,0,0-.33,0l-1.409,1.024a.281.281,0,0,1-.432-.314l.538-1.656a.282.282,0,0,0-.1-.314l-1.41-1.024a.281.281,0,0,1,.165-.508h1.742a.281.281,0,0,0,.267-.194l.538-1.656A.28.28,0,0,1,305.016,210.383Z" transform="translate(-272.657 -210.189)" fill="#fbbe42"/>
                  <path id="Path_34914" data-name="Path 34914" d="M322.562,210.383l.539,1.656a.28.28,0,0,0,.267.194h1.742a.281.281,0,0,1,.165.508l-1.409,1.024a.281.281,0,0,0-.1.314l.539,1.656a.281.281,0,0,1-.432.314l-1.41-1.024a.28.28,0,0,0-.33,0l-1.409,1.024a.281.281,0,0,1-.432-.314l.538-1.656a.282.282,0,0,0-.1-.314l-1.41-1.024a.281.281,0,0,1,.165-.508h1.742a.281.281,0,0,0,.267-.194l.538-1.656A.281.281,0,0,1,322.562,210.383Z" transform="translate(-280.537 -210.189)" fill="#b1d7dd"/>
                </g>
                <rect id="Rectangle_1865" data-name="Rectangle 1865" width="28.107" height="0.781" transform="translate(0 12.85)" fill="#b1d7dd"/>
                <rect id="Rectangle_1866" data-name="Rectangle 1866" width="28.107" height="1.471" transform="translate(0)" fill="#379cf7"/>
                <rect id="Rectangle_1867" data-name="Rectangle 1867" width="28.107" height="0.781" transform="translate(0 15.822)" fill="#b1d7dd"/>
                <rect id="Rectangle_1868" data-name="Rectangle 1868" width="12.848" height="0.781" transform="translate(0 18.581)" fill="#b1d7dd"/>
              </g>
              <g id="Group_15019" data-name="Group 15019" transform="translate(0 0)">
                <circle id="Ellipse_149" data-name="Ellipse 149" cx="11.222" cy="11.222" r="11.222" transform="translate(0 5.112) rotate(-13.166)" fill="#7bc7ff"/>
                <g id="Group_15018" data-name="Group 15018">
                  <g id="Group_15017" data-name="Group 15017" clip-path="url(#clip-path)">
                    <g id="Group_15016" data-name="Group 15016" transform="translate(2.518 5.13)">
                      <path id="Path_34915" data-name="Path 34915" d="M218.169,219.64l-.985-10.369c0-2.655-1.043-5.1-3.852-4.373h0a3.38,3.38,0,0,0-3.89.478,5.925,5.925,0,0,0-1.729,4.243l-1.1,10.08Z" transform="translate(-201.638 -204.494)" fill="#0a4d7a"/>
                      <g id="Group_15015" data-name="Group 15015" transform="translate(9 9.494)">
                        <g id="Group_15014" data-name="Group 15014" transform="translate(0 0.327)">
                          <path id="Path_34916" data-name="Path 34916" d="M217.551,222.321V224.6s-.319,1.784-1.821,2.086a2.633,2.633,0,0,1-1.808-2.086v-2.283Z" transform="translate(-213.921 -222.321)" fill="#ffa683"/>
                        </g>
                        <path id="Path_34917" data-name="Path 34917" d="M217.551,221.728v1.453a3.826,3.826,0,0,1-3.63,0v-1.453Z" transform="translate(-213.921 -221.728)" fill="#e57c5c"/>
                      </g>
                      <path id="Path_34918" data-name="Path 34918" d="M217.894,212.3a4.114,4.114,0,0,1-2.761-1.339c-1.016.885-4.578,1.339-4.578,1.339l-.024,1.406a6.087,6.087,0,0,0,1.163,3.337,3.13,3.13,0,0,0,5.039,0A6.087,6.087,0,0,0,217.9,213.7Z" transform="translate(-203.398 -207.397)" fill="#ffa683"/>
                      <path id="Path_34919" data-name="Path 34919" d="M217.373,230.261c-1.422-2.445-7.441-3.8-7.441-3.8l-1.583.606-1.582-.606s-6.019,1.351-7.441,3.8l-1.745,13.179,2.768-.043,1.621-11a24.889,24.889,0,0,1,.967,5.63,45.9,45.9,0,0,1-.7,5.506h12.23a45.9,45.9,0,0,1-.7-5.506,24.857,24.857,0,0,1,.967-5.63l1.621,11,2.768.043Z" transform="translate(-197.583 -214.362)" fill="#ffa683"/>
                      <path id="Path_34920" data-name="Path 34920" d="M213.68,231.55" transform="translate(-204.813 -216.646)" fill="#379cf7"/>
                      <path id="Path_34921" data-name="Path 34921" d="M215.874,228.313a5.066,5.066,0,0,1-9.721-.013,14.146,14.146,0,0,0-2.678,1.335l1.081,3.583c.018.027.032.063.048.094l.014-.094s.045.157.113.416c.012.039.023.082.033.124a22.079,22.079,0,0,1,.82,5.09,45.9,45.9,0,0,1-.7,5.506h12.23a45.906,45.906,0,0,1-.7-5.506,24.856,24.856,0,0,1,.967-5.63l.022.152a1.3,1.3,0,0,1,.078-.152l1.075-3.562A13.994,13.994,0,0,0,215.874,228.313Z" transform="translate(-200.229 -215.186)" fill="#379cf7"/>
                    </g>
                  </g>
                </g>
              </g>
            </g>
          </g>
          <g id="Group_15025" data-name="Group 15025" transform="translate(160.356 79.325)">
            <path id="Path_34922" data-name="Path 34922" d="M351.369,240.058a1.1,1.1,0,0,1-.951-.587l-5.75-11.446s-.688-2.752-1.5-2.752l-.081,3.642,3.889,14.071a1.867,1.867,0,0,0,1.858,1.658,51.947,51.947,0,0,1,9.609,1.569,10.54,10.54,0,0,0,5.365-.018C363.992,239.762,353.82,240.112,351.369,240.058Z" transform="translate(-330.383 -225.274)" fill="#ffa683"/>
            <g id="Group_15024" data-name="Group 15024" transform="translate(0 2.954)">
              <g id="Group_15023" data-name="Group 15023">
                <g id="Group_15022" data-name="Group 15022" transform="translate(21.555)">
                  <path id="Path_34923" data-name="Path 34923" d="M367.187,243.889v3.254h-4.94v-1.833s-3.248-.767-3.09-3.7,1.534-4.353,2.278-4.579,4.331,1.218,4.4,1.4.451,3.294.451,3.294Z" transform="translate(-359.151 -233.498)" fill="#ffa683"/>
                  <path id="Path_34924" data-name="Path 34924" d="M363.042,236.584s.876-1.235,1.691-.624.408,1.836-.611,2.447c0,0,1.02,3.468,3.059,3.263a5.339,5.339,0,0,0,4.433-5.718c-.226-3.361-4.615-5.727-7.015-5.256S359.816,233.854,363.042,236.584Z" transform="translate(-360.194 -230.637)" fill="#004cba"/>
                  <path id="Path_34925" data-name="Path 34925" d="M379.841,235.094s2.662-3.383,5.324-.451,4.331,6.226,5.549,6.858-1.037,2.165-3.97,1.218S380.021,238.162,379.841,235.094Z" transform="translate(-368.444 -231.899)" fill="#004cba"/>
                  <path id="Path_34926" data-name="Path 34926" d="M364.771,253.34v-1.833s2.019.079,2.878-.7a2.416,2.416,0,0,1-1.923,1.436v1.1Z" transform="translate(-361.675 -239.695)" fill="#ed7d5a"/>
                </g>
                <path id="Path_34927" data-name="Path 34927" d="M360.143,302.659s1.163,18.2,2.645,22.006,10.85,21.135,10.85,21.135l4.853-1.069-6.922-20.7c-.053,1.27-.972-4.7.74-10.738a15.064,15.064,0,0,0-.885-10.5l-12.128-.131" transform="translate(-337.661 -262.985)" fill="#006cbc"/>
                <path id="Path_34928" data-name="Path 34928" d="M362.445,299.694s-.454,5.056-6.269,10.791a54.7,54.7,0,0,0-8.173,9.68l-.873,25.074h-4.84s-2.857-26.423-2.777-27.375,8.094-18.171,9.046-19.678S362.445,299.694,362.445,299.694Z" transform="translate(-328.775 -260.786)" fill="#379cf7"/>
                <path id="Path_34929" data-name="Path 34929" d="M364.956,254.932s5.191.388,3.28,6.824c-2.089,7.036.305,18.312.781,19.476l-1.556.62a19.372,19.372,0,0,1-14.408-.311h0s4.127-9.1,1.19-13.859c-1.888-3.062-1.331-6.153.873-8.888,1.428-1.772,3.229-3.618,3.941-3.651Z" transform="translate(-334.858 -241.549)" fill="#57bfff"/>
                <path id="Path_34930" data-name="Path 34930" d="M342.291,347.772h1.023l-2.072-27.184c.342-.566,1.527-2.738,5.119-9.653a37.351,37.351,0,0,0,2.753-6.863,18.524,18.524,0,0,1-1.928-.674c-2.565,5.27-7.61,16.244-7.673,17C339.432,321.345,342.291,347.772,342.291,347.772Z" transform="translate(-328.775 -263.316)" fill="#2481c6"/>
                <path id="Path_34931" data-name="Path 34931" d="M358.425,270.786c-2.424.9-.623,7.34-3.23,16.333a19.314,19.314,0,0,1-2.141-.761h0s4.127-9.1,1.19-13.859a6.985,6.985,0,0,1-1.1-4.5l10.291-2.339S361.722,269.565,358.425,270.786Z" transform="translate(-334.858 -246.366)" fill="#30afef"/>
                <path id="Path_34932" data-name="Path 34932" d="M321.408,242.324s9.419,15.655,12.169,16.545c1.222.4,8.84-2.58,12.054-3.108a3.355,3.355,0,0,0,2.8-3.617h0a3.948,3.948,0,0,0-4.46-3.285l-10.574,3.295s-8.954-9.259-10.948-11.376c0,0-.826-2.605-2.056-2.605C319.291,238.173,320.96,241.429,321.408,242.324Z" transform="translate(-320.022 -234.021)" fill="#ffa683"/>
                <path id="Path_34933" data-name="Path 34933" d="M335.066,385.554c1.336-.435,3.834-.964,4.739-1.6h4.7c-.046.942-.072,1.857-.084,2.466a.75.75,0,0,1-.751.734h-9.359a.605.605,0,0,1-.314-1.122A4.956,4.956,0,0,1,335.066,385.554Z" transform="translate(-326.168 -299.497)" fill="#004cba"/>
                <path id="Path_34934" data-name="Path 34934" d="M376.876,382.744c1.2-.725,3.517-1.805,4.254-2.63l4.579-1.063c.167.928.35,1.826.475,2.422a.75.75,0,0,1-.566.885l-9.116,2.115a.605.605,0,0,1-.56-1.022A4.97,4.97,0,0,1,376.876,382.744Z" transform="translate(-345.056 -297.296)" fill="#004cba"/>
                <path id="Path_34935" data-name="Path 34935" d="M335.555,255.645c2.215.054,12.12-3.662,14.751-1.887a3.986,3.986,0,0,0-4.362-2.775l-10.574,3.295s-8.954-9.259-10.948-11.376C324.422,242.9,333.147,255.586,335.555,255.645Z" transform="translate(-321.998 -236.145)" fill="#ed7d5a" opacity="0.58"/>
              </g>
              <path id="Path_34936" data-name="Path 34936" d="M379.148,236.073l-.691.124a4.979,4.979,0,0,1,.707,2.807l.894-.166S379.964,236.364,379.148,236.073Z" transform="translate(-346.267 -233.078)" fill="#fff"/>
            </g>
          </g>
          <g id="Group_15041" data-name="Group 15041" transform="translate(20.194 94.448)">
            <g id="Group_15030" data-name="Group 15030" transform="translate(28.174 0)">
              <rect id="Rectangle_1869" data-name="Rectangle 1869" width="87.394" height="27.674" rx="7.292" transform="translate(0 1.616)" fill="#fff"/>
              <g id="Group_15029" data-name="Group 15029" transform="translate(2.008)">
                <g id="Group_15027" data-name="Group 15027" transform="translate(33.237 6.439)">
                  <g id="Group_15026" data-name="Group 15026" transform="translate(0 4.215)">
                    <path id="Path_34937" data-name="Path 34937" d="M183.032,272.263l.539,1.657a.28.28,0,0,0,.267.194h1.742a.281.281,0,0,1,.165.508l-1.409,1.024a.279.279,0,0,0-.1.313l.538,1.657a.281.281,0,0,1-.432.314l-1.41-1.024a.28.28,0,0,0-.33,0l-1.409,1.024a.281.281,0,0,1-.432-.314l.538-1.657a.281.281,0,0,0-.1-.313l-1.41-1.024a.281.281,0,0,1,.165-.508h1.742a.281.281,0,0,0,.267-.194l.538-1.657A.281.281,0,0,1,183.032,272.263Z" transform="translate(-179.669 -272.069)" fill="#fbbe42"/>
                    <path id="Path_34938" data-name="Path 34938" d="M200.578,272.263l.538,1.657a.28.28,0,0,0,.267.194h1.742a.281.281,0,0,1,.165.508l-1.409,1.024a.279.279,0,0,0-.1.313l.538,1.657a.281.281,0,0,1-.432.314l-1.41-1.024a.28.28,0,0,0-.33,0l-1.409,1.024a.281.281,0,0,1-.432-.314l.538-1.657a.28.28,0,0,0-.1-.313l-1.409-1.024a.281.281,0,0,1,.165-.508h1.742a.281.281,0,0,0,.267-.194l.538-1.657A.281.281,0,0,1,200.578,272.263Z" transform="translate(-187.55 -272.069)" fill="#fbbe42"/>
                    <path id="Path_34939" data-name="Path 34939" d="M218.124,272.263l.538,1.657a.28.28,0,0,0,.267.194h1.742a.281.281,0,0,1,.165.508l-1.409,1.024a.28.28,0,0,0-.1.313l.538,1.657a.281.281,0,0,1-.432.314l-1.409-1.024a.28.28,0,0,0-.33,0l-1.41,1.024a.281.281,0,0,1-.432-.314l.538-1.657a.279.279,0,0,0-.1-.313l-1.409-1.024a.281.281,0,0,1,.165-.508h1.742a.28.28,0,0,0,.267-.194l.539-1.657A.281.281,0,0,1,218.124,272.263Z" transform="translate(-195.431 -272.069)" fill="#fbbe42"/>
                    <path id="Path_34940" data-name="Path 34940" d="M235.671,272.263l.538,1.657a.281.281,0,0,0,.267.194h1.742a.281.281,0,0,1,.165.508l-1.41,1.024a.281.281,0,0,0-.1.313l.538,1.657a.281.281,0,0,1-.432.314l-1.409-1.024a.28.28,0,0,0-.33,0l-1.41,1.024a.281.281,0,0,1-.432-.314l.539-1.657a.28.28,0,0,0-.1-.313l-1.409-1.024a.281.281,0,0,1,.165-.508h1.742a.28.28,0,0,0,.267-.194l.539-1.657A.281.281,0,0,1,235.671,272.263Z" transform="translate(-203.311 -272.069)" fill="#fbbe42"/>
                    <path id="Path_34941" data-name="Path 34941" d="M253.217,272.263l.538,1.657a.281.281,0,0,0,.267.194h1.742a.281.281,0,0,1,.165.508l-1.41,1.024a.281.281,0,0,0-.1.313l.538,1.657a.281.281,0,0,1-.432.314l-1.409-1.024a.28.28,0,0,0-.33,0l-1.41,1.024a.281.281,0,0,1-.432-.314l.539-1.657a.281.281,0,0,0-.1-.313l-1.41-1.024a.281.281,0,0,1,.165-.508h1.742a.281.281,0,0,0,.267-.194l.538-1.657A.281.281,0,0,1,253.217,272.263Z" transform="translate(-211.192 -272.069)" fill="#fbbe42"/>
                  </g>
                  <rect id="Rectangle_1870" data-name="Rectangle 1870" width="28.107" height="0.781" transform="translate(0 12.85)" fill="#b1d7dd"/>
                  <rect id="Rectangle_1871" data-name="Rectangle 1871" width="28.107" height="1.471" transform="translate(0)" fill="#0a4d7a"/>
                  <rect id="Rectangle_1872" data-name="Rectangle 1872" width="28.107" height="0.781" transform="translate(0 15.822)" fill="#b1d7dd"/>
                  <rect id="Rectangle_1873" data-name="Rectangle 1873" width="12.848" height="0.781" transform="translate(0 18.581)" fill="#b1d7dd"/>
                </g>
                <g id="Group_15028" data-name="Group 15028" transform="translate(0)">
                  <circle id="Ellipse_151" data-name="Ellipse 151" cx="11.222" cy="11.222" r="11.222" transform="translate(0 15.87) rotate(-45)" fill="#7bc7ff"/>
                </g>
              </g>
            </g>
            <g id="Group_15034" data-name="Group 15034" transform="translate(0 5.633)">
              <g id="Group_15032" data-name="Group 15032" transform="translate(0 41.588)">
                <path id="Path_34942" data-name="Path 34942" d="M104.641,349.966s19.03-15.946,22.378-10.308-1.586,23.875-1.586,23.875Z" transform="translate(-82.552 -338.451)" fill="#0a85e0"/>
                <path id="Path_34943" data-name="Path 34943" d="M122.77,358.127l10.805,7.051s4.51-16.682,1.97-23.066C136.707,350.508,127.8,355.825,122.77,358.127Z" transform="translate(-90.695 -340.095)" fill="#006cbc"/>
                <g id="Group_15031" data-name="Group 15031" transform="translate(0 8.257)">
                  <path id="Path_34944" data-name="Path 34944" d="M99.262,354.995s11.785,9.457,12.745,12.863c1.557,5.521-7.672,4.9-11.658,4.9s-29.392-.7-29.392-.7l.23-3.908,23.435-1.116s-12.981-1.924-12.5-9.416S99.262,354.995,99.262,354.995Z" transform="translate(-67.423 -353.44)" fill="#379cf7"/>
                  <path id="Path_34945" data-name="Path 34945" d="M111.367,382.066c-2.151,2.124-8.04,1.779-11.019,1.779-3.988,0-29.394-.7-29.394-.7l.234-3.909,23.435-1.115s9.336,4.493,16.558,3.967C111.245,382.081,111.309,382.076,111.367,382.066Z" transform="translate(-67.422 -364.525)" fill="#0a85e0"/>
                  <path id="Path_34946" data-name="Path 34946" d="M68.2,383.7s-1.036,2.335-.242,3.876-2.643.419-3.194-2.621-.286-6.674,3.546-5.044Z" transform="translate(-64.542 -365.147)" fill="#004cba"/>
                </g>
              </g>
              <path id="Path_34947" data-name="Path 34947" d="M95.151,293.654s8.555-24.722,8.81-24.609a20.314,20.314,0,0,0,2.76.852L103.2,297.031Z" transform="translate(-78.29 -265.69)" fill="#0a4d7a"/>
              <path id="Path_34948" data-name="Path 34948" d="M103.991,307.1a14.6,14.6,0,0,0-7.225-1.821c-1.174,3.367-1.615,4.64-1.615,4.64L103.2,313.3Z" transform="translate(-78.29 -281.956)" fill="#083954"/>
              <g id="Group_15033" data-name="Group 15033" transform="translate(17.613 11.519)">
                <path id="Path_34949" data-name="Path 34949" d="M108.515,298.416a2.733,2.733,0,0,1-3.136,1.9v2.221h-4.321v-3s.015,0,.02,0c2.246.518,4.683-1.113,3.607-1.915a2.044,2.044,0,0,1-.745-2.769c.564-.647,1.915-.166,1.915-.166a6.828,6.828,0,0,0,2.758-.486A10.66,10.66,0,0,1,108.515,298.416Z" transform="translate(-98.556 -288.508)" fill="#ffa683"/>
                <path id="Path_34950" data-name="Path 34950" d="M103.813,290.047s-1.349-.484-1.91.164a2.043,2.043,0,0,0,.744,2.772c1.074.8-1.365,2.43-3.61,1.912s-3.5-5.2-1.572-8.254c1.769-2.8,7.985-4.017,9.237-1.081S108.028,289.932,103.813,290.047Z" transform="translate(-96.517 -283.865)" fill="#004cba"/>
                <path id="Path_34951" data-name="Path 34951" d="M107.251,307.115v-2.221a8.817,8.817,0,0,1-2.025-.5,5,5,0,0,0,1.266,1.126v1.589Z" transform="translate(-100.428 -293.088)" fill="#e57c5c"/>
              </g>
              <path id="Path_34952" data-name="Path 34952" d="M101.714,308.96s-7.141-2.473-9.151,3.094,1.406,18.914-2.235,23.5h0a22.978,22.978,0,0,0,17.9.65l.782-.3s-2.5-17.022-2.615-16.431c-.1.5,8.43,3.218,10.131,2.29s12-12.555,12-12.555l-3.466-.514-9.28,6.108S104.062,309.113,101.714,308.96Z" transform="translate(-76.123 -283.372)" fill="#0a4d7a"/>
              <path id="Path_34953" data-name="Path 34953" d="M156.832,308.022s3.568-1.541,3.788-2.246H155.48a1.67,1.67,0,0,0-1.351.687l-.762,1.046Z" transform="translate(-104.437 -282.188)" fill="#ffa683"/>
              <path id="Path_34954" data-name="Path 34954" d="M116.08,341.972s-2.193-14.955-2.566-16.342a1.035,1.035,0,0,0,.212.148l-.261-.236s-5.446-1.321-7.384-3.613c0,0,1.85,3.789,4.229,4.67,2.124.787,1.37,12.245,3,16.321.668-.187,1.331-.4,1.985-.65Z" transform="translate(-83.198 -289.442)" fill="#083954"/>
              <path id="Path_34955" data-name="Path 34955" d="M111.625,266.427s.908-3.244,2.26-3.472v4.236Z" transform="translate(-85.689 -262.955)" fill="#ffa683"/>
            </g>
            <g id="Group_15040" data-name="Group 15040" transform="translate(30.182 0)">
              <g id="Group_15039" data-name="Group 15039" transform="translate(0)" clip-path="url(#clip-path-2)">
                <path id="Path_34956" data-name="Path 34956" d="M150.517,300.924l-.723-6.476a3.591,3.591,0,0,0-1.611-2.564l-2.246-1.468-.01.056v-.051l-1.854-.717-1.886-.73-1.562-.6-.685-.266-1.719.878-1.717-.878-.6.234-1.474.569-1.992.772-1.917.743v.03l-2.194,1.433a3.592,3.592,0,0,0-1.611,2.564l-.723,6.476h4.552l.013,5.387H145.89l.013-5.387Z" transform="translate(-122.324 -268.617)" fill="#fbbe42"/>
                <g id="Group_15038" data-name="Group 15038" transform="translate(11.347 8.111)">
                  <path id="Path_34957" data-name="Path 34957" d="M144.593,267.453h0a4.578,4.578,0,0,0-4.579,4.578v2.184h9.157v-2.184A4.578,4.578,0,0,0,144.593,267.453Z" transform="translate(-139.968 -267.453)" fill="#0a4d7a"/>
                  <g id="Group_15036" data-name="Group 15036" transform="translate(2.851 9.851)">
                    <g id="Group_15035" data-name="Group 15035" transform="translate(0 0.323)">
                      <path id="Path_34958" data-name="Path 34958" d="M148.695,285.921v1.6s-.009.047-.029.128c-.239.944-1.037,2.772-1.821,2.754s-1.552-1.883-1.732-2.84c0-.027-.007-.042-.007-.042v-1.6Z" transform="translate(-145.106 -285.921)" fill="#ffa683"/>
                    </g>
                    <path id="Path_34959" data-name="Path 34959" d="M148.695,285.335v1.437a3.786,3.786,0,0,1-3.589,0v-1.437Z" transform="translate(-145.106 -285.335)" fill="#e57c5c"/>
                  </g>
                  <g id="Group_15037" data-name="Group 15037" transform="translate(0 5.672)">
                    <path id="Path_34960" data-name="Path 34960" d="M142.152,278.86a1.111,1.111,0,1,0-1.111,1.111A1.11,1.11,0,0,0,142.152,278.86Z" transform="translate(-139.931 -277.749)" fill="#ffa683"/>
                    <path id="Path_34961" data-name="Path 34961" d="M154.784,278.86a1.111,1.111,0,1,0-1.111,1.111A1.111,1.111,0,0,0,154.784,278.86Z" transform="translate(-145.604 -277.749)" fill="#ffa683"/>
                  </g>
                  <path id="Path_34962" data-name="Path 34962" d="M149.035,275.268a7.753,7.753,0,0,1-1.844-1.319h-3.605c-.289.816-1.8,1.319-1.8,1.319l-.031,1.8a6.015,6.015,0,0,0,1.15,3.3A3.02,3.02,0,0,0,144,281.3a3.113,3.113,0,0,0,1.4.331,3.071,3.071,0,0,0,2.492-1.258,6.011,6.011,0,0,0,1.15-3.3Z" transform="translate(-140.75 -270.371)" fill="#ffa683"/>
                </g>
              </g>
            </g>
          </g>
          <g id="Group_15052" data-name="Group 15052" transform="translate(86.176 128.462)">
            <g id="Group_15045" data-name="Group 15045" transform="translate(0 1.487)">
              <rect id="Rectangle_1874" data-name="Rectangle 1874" width="87.394" height="27.674" rx="7.292" fill="#fff"/>
              <g id="Group_15044" data-name="Group 15044" transform="translate(35.245 4.822)">
                <g id="Group_15043" data-name="Group 15043">
                  <g id="Group_15042" data-name="Group 15042" transform="translate(0 4.215)">
                    <path id="Path_34963" data-name="Path 34963" d="M252.377,333.774l.538,1.657a.281.281,0,0,0,.267.194h1.742a.281.281,0,0,1,.165.508l-1.409,1.024a.28.28,0,0,0-.1.314l.538,1.657a.281.281,0,0,1-.432.314l-1.409-1.024a.28.28,0,0,0-.33,0l-1.41,1.024a.281.281,0,0,1-.432-.314l.538-1.657a.279.279,0,0,0-.1-.314l-1.409-1.024a.281.281,0,0,1,.165-.508h1.742a.28.28,0,0,0,.267-.194l.538-1.657A.281.281,0,0,1,252.377,333.774Z" transform="translate(-249.015 -333.58)" fill="#fbbe42"/>
                    <path id="Path_34964" data-name="Path 34964" d="M269.924,333.774l.538,1.657a.281.281,0,0,0,.267.194h1.742a.281.281,0,0,1,.165.508l-1.41,1.024a.28.28,0,0,0-.1.314l.538,1.657a.281.281,0,0,1-.432.314l-1.409-1.024a.28.28,0,0,0-.33,0l-1.41,1.024a.281.281,0,0,1-.432-.314l.538-1.657a.279.279,0,0,0-.1-.314l-1.409-1.024a.281.281,0,0,1,.165-.508h1.742a.28.28,0,0,0,.267-.194l.539-1.657A.281.281,0,0,1,269.924,333.774Z" transform="translate(-256.896 -333.58)" fill="#fbbe42"/>
                    <path id="Path_34965" data-name="Path 34965" d="M287.47,333.774l.538,1.657a.281.281,0,0,0,.267.194h1.742a.281.281,0,0,1,.165.508l-1.41,1.024a.281.281,0,0,0-.1.314l.538,1.657a.281.281,0,0,1-.432.314l-1.409-1.024a.28.28,0,0,0-.33,0l-1.41,1.024a.281.281,0,0,1-.432-.314l.539-1.657a.281.281,0,0,0-.1-.314l-1.41-1.024a.281.281,0,0,1,.165-.508h1.742a.281.281,0,0,0,.267-.194l.538-1.657A.281.281,0,0,1,287.47,333.774Z" transform="translate(-264.776 -333.58)" fill="#b1d7dd"/>
                    <path id="Path_34966" data-name="Path 34966" d="M287.158,333.605a.264.264,0,0,0-.222.18l-.538,1.657a.281.281,0,0,1-.267.194h-1.742a.281.281,0,0,0-.165.508l1.409,1.024a.28.28,0,0,1,.1.314l-.539,1.657a.281.281,0,0,0,.432.314l1.41-1.024a.275.275,0,0,1,.12-.039Z" transform="translate(-264.776 -333.591)" fill="#fbbe42"/>
                    <path id="Path_34967" data-name="Path 34967" d="M305.016,333.774l.538,1.657a.281.281,0,0,0,.267.194h1.742a.281.281,0,0,1,.165.508l-1.41,1.024a.281.281,0,0,0-.1.314l.539,1.657a.281.281,0,0,1-.432.314l-1.41-1.024a.28.28,0,0,0-.33,0l-1.409,1.024a.281.281,0,0,1-.432-.314l.538-1.657a.281.281,0,0,0-.1-.314l-1.41-1.024a.281.281,0,0,1,.165-.508h1.742a.281.281,0,0,0,.267-.194l.538-1.657A.281.281,0,0,1,305.016,333.774Z" transform="translate(-272.657 -333.58)" fill="#b1d7dd"/>
                    <path id="Path_34968" data-name="Path 34968" d="M322.562,333.774l.539,1.657a.28.28,0,0,0,.267.194h1.742a.281.281,0,0,1,.165.508l-1.409,1.024a.28.28,0,0,0-.1.314l.539,1.657a.281.281,0,0,1-.432.314l-1.41-1.024a.28.28,0,0,0-.33,0l-1.409,1.024a.281.281,0,0,1-.432-.314l.538-1.657a.281.281,0,0,0-.1-.314l-1.41-1.024a.281.281,0,0,1,.165-.508h1.742a.281.281,0,0,0,.267-.194l.538-1.657A.281.281,0,0,1,322.562,333.774Z" transform="translate(-280.537 -333.58)" fill="#b1d7dd"/>
                  </g>
                  <rect id="Rectangle_1875" data-name="Rectangle 1875" width="28.107" height="0.781" transform="translate(0 12.85)" fill="#b1d7dd"/>
                  <rect id="Rectangle_1876" data-name="Rectangle 1876" width="28.107" height="1.471" transform="translate(0)" fill="#ff5a5a"/>
                  <rect id="Rectangle_1877" data-name="Rectangle 1877" width="28.107" height="0.781" transform="translate(0 15.822)" fill="#b1d7dd"/>
                  <rect id="Rectangle_1878" data-name="Rectangle 1878" width="12.848" height="0.781" transform="translate(0 18.581)" fill="#b1d7dd"/>
                </g>
              </g>
            </g>
            <g id="Group_15051" data-name="Group 15051" transform="translate(2.447 0)">
              <circle id="Ellipse_153" data-name="Ellipse 153" cx="11.222" cy="11.222" r="11.222" transform="matrix(0.522, -0.853, 0.853, 0.522, 0, 19.14)" fill="#7bc7ff"/>
              <g id="Group_15050" data-name="Group 15050" transform="translate(0)">
                <g id="Group_15049" data-name="Group 15049" clip-path="url(#clip-path-3)">
                  <g id="Group_15048" data-name="Group 15048" transform="translate(4.466 7.281)">
                    <path id="Path_34969" data-name="Path 34969" d="M209.115,333.436s-.64-2.544.352-3.664,2.96-2.3,4.561-1.7a2.619,2.619,0,0,1,2.417-.128c1.152.64,2.816,1.2,2.992.432,0,0,.1,2.928-1.216,3.392l-.544,2.256h-8.4Z" transform="translate(-202.671 -327.693)" fill="#0a4d7a"/>
                    <path id="Path_34970" data-name="Path 34970" d="M217.373,353.091c-1.422-2.445-7.441-3.8-7.441-3.8l-1.583.607-1.582-.607s-6.019,1.351-7.441,3.8l-1.745,13.179,2.768-.043,1.621-11a24.889,24.889,0,0,1,.967,5.63,45.9,45.9,0,0,1-.7,5.506h12.23a45.9,45.9,0,0,1-.7-5.506,24.858,24.858,0,0,1,.967-5.63l1.621,11,2.768.043Z" transform="translate(-197.583 -337.395)" fill="#0a4d7a"/>
                    <path id="Path_34971" data-name="Path 34971" d="M213.68,354.379" transform="translate(-204.813 -339.679)" fill="#379cf7"/>
                    <g id="Group_15047" data-name="Group 15047" transform="translate(9 9.29)">
                      <g id="Group_15046" data-name="Group 15046" transform="translate(0 0.327)">
                        <path id="Path_34972" data-name="Path 34972" d="M217.551,345.15v2.283s-.319,1.785-1.821,2.086a2.633,2.633,0,0,1-1.808-2.086V345.15Z" transform="translate(-213.921 -345.15)" fill="#ffa683"/>
                      </g>
                      <path id="Path_34973" data-name="Path 34973" d="M217.551,344.557v1.453a3.827,3.827,0,0,1-3.63,0v-1.453Z" transform="translate(-213.921 -344.557)" fill="#e57c5c"/>
                    </g>
                    <path id="Path_34974" data-name="Path 34974" d="M217.894,335.126a4.111,4.111,0,0,1-2.761-1.339c-1.016.885-4.578,1.339-4.578,1.339l-.024,1.406a6.086,6.086,0,0,0,1.163,3.337,3.13,3.13,0,0,0,5.039,0,6.086,6.086,0,0,0,1.163-3.337Z" transform="translate(-203.398 -330.43)" fill="#ffa683"/>
                    <path id="Path_34975" data-name="Path 34975" d="M210.629,338.256a1.008,1.008,0,1,1-1.008-1.008A1.008,1.008,0,0,1,210.629,338.256Z" transform="translate(-202.537 -331.984)" fill="#ffa683"/>
                    <path id="Path_34976" data-name="Path 34976" d="M224.116,338.256a1.008,1.008,0,1,1-1.008-1.008A1.009,1.009,0,0,1,224.116,338.256Z" transform="translate(-208.594 -331.984)" fill="#ffa683"/>
                  </g>
                </g>
              </g>
            </g>
          </g>
          <g id="Group_15054" data-name="Group 15054" transform="translate(7.502)">
            <g id="Group_15053" data-name="Group 15053" transform="translate(130.787)">
              <circle id="Ellipse_155" data-name="Ellipse 155" cx="16.446" cy="16.446" r="16.446" transform="translate(0 0)" fill="#fbbe42"/>
              <path id="Path_34977" data-name="Path 34977" d="M300.363,80.749c-.1,0-.2.006-.3.008a15.394,15.394,0,0,1-11.076,28.31,16.444,16.444,0,1,0,11.374-28.318Z" transform="translate(-283.917 -80.749)" fill="#f9a643"/>
            </g>
            <path id="Path_34978" data-name="Path 34978" d="M73.49,192.929a2.676,2.676,0,0,0,.189-5.345l-.1-.006c0-.021,0-.042,0-.064a6.635,6.635,0,0,0-9.821-5.819,6.889,6.889,0,0,0-12.96,3.256c0,.2.01.406.028.605a8.02,8.02,0,0,0-8.88,3.238,2.671,2.671,0,0,0,2.243,4.135Z" transform="translate(-41.501 -124.456)" fill="#7bc7ff"/>
            <path id="Path_34979" data-name="Path 34979" d="M257.436,113.155c4.512,0,4.751-6.717.248-7l-.128-.008c0-.028,0-.056,0-.084a8.694,8.694,0,0,0-12.868-7.625,9.027,9.027,0,0,0-16.981,4.266c0,.268.014.532.037.794a10.508,10.508,0,0,0-11.636,4.243,3.5,3.5,0,0,0,2.939,5.418Z" transform="translate(-120.029 -86.555)" fill="#7bc7ff"/>
            <path id="Path_34980" data-name="Path 34980" d="M387.543,143.145c-4.146,0-4.366-6.172-.228-6.436l.118-.007c0-.026,0-.051,0-.077a7.99,7.99,0,0,1,11.825-7.007,8.295,8.295,0,0,1,15.6,3.92c0,.246-.013.489-.034.729a9.657,9.657,0,0,1,10.692,3.9,3.216,3.216,0,0,1-2.7,4.979Z" transform="translate(-196.186 -100.733)" fill="#7bc7ff"/>
          </g>
          <g id="Group_15063" data-name="Group 15063" transform="translate(197.64 115.227)">
            <g id="Group_15061" data-name="Group 15061">
              <g id="Group_15055" data-name="Group 15055" transform="translate(0 14.493)">
                <path id="Path_34981" data-name="Path 34981" d="M403.781,344.683l.816-.273c.118-1.41-.488-3.784-3.686-7.447-5.92-6.779-11-16.438-9.714-20.206,0,0-5.791,8.718-1.884,14.471C392.979,336.629,402.725,337.788,403.781,344.683Z" transform="translate(-387.958 -316.758)" fill="#379cf7"/>
                <path id="Path_34982" data-name="Path 34982" d="M405.833,344.572l.484-.161c.118-1.41-.487-3.783-3.687-7.447-5.92-6.779-11-16.438-9.714-20.206,0,0-3.067,8.011.911,13.374C397.754,335.427,404.758,336.529,405.833,344.572Z" transform="translate(-389.678 -316.758)" fill="#006cbc"/>
              </g>
              <g id="Group_15057" data-name="Group 15057" transform="translate(17.09 7.893)">
                <path id="Path_34983" data-name="Path 34983" d="M420.086,333.508a16.9,16.9,0,0,1-1.1,3.378l.377.065a27.027,27.027,0,0,0,5.214-12.843c.923-8.585,2.169-19.33,2.169-19.33s-8.739,7.21-6.782,17.23A28.187,28.187,0,0,1,420.086,333.508Z" transform="translate(-418.982 -304.778)" fill="#379cf7"/>
                <g id="Group_15056" data-name="Group 15056" transform="translate(0.598)">
                  <path id="Path_34984" data-name="Path 34984" d="M423.648,317.91c-.478,7.163-1.829,15.043-3.581,18.172.255-.2.527-.4.8-.609a26.445,26.445,0,0,0,4.189-11.365c.923-8.585,2.169-19.33,2.169-19.33S424.269,308.587,423.648,317.91Z" transform="translate(-420.067 -304.778)" fill="#006cbc"/>
                </g>
              </g>
              <g id="Group_15059" data-name="Group 15059" transform="translate(17.766 23.066)">
                <path id="Path_34985" data-name="Path 34985" d="M422.2,349.21a13.033,13.033,0,0,1-1.993,1.867l.23.183a20.815,20.815,0,0,0,8.266-6.725c3.8-5.44,8.613-12.215,8.613-12.215s-8.557,1.634-10.945,9.1A21.654,21.654,0,0,1,422.2,349.21Z" transform="translate(-420.21 -332.321)" fill="#379cf7"/>
                <g id="Group_15058" data-name="Group 15058" transform="translate(0.701)">
                  <path id="Path_34986" data-name="Path 34986" d="M430.617,339.842c-2.972,4.647-6.8,9.454-9.135,10.915.244-.038.5-.076.767-.113a20.363,20.363,0,0,0,7.028-6.107c3.8-5.44,8.613-12.215,8.613-12.215S434.486,333.794,430.617,339.842Z" transform="translate(-421.482 -332.321)" fill="#006cbc"/>
                </g>
              </g>
              <g id="Group_15060" data-name="Group 15060" transform="translate(7.909)">
                <path id="Path_34987" data-name="Path 34987" d="M410.89,330.14c.537,1.529.929,2.579,1.16,3.306l.309-.071c-.5-2.685-1.372-7.321-2.192-10.365-1.207-4.482-.267-6.658-1.238-14.46s-5.6-18.1-5.6-18.1-2.987,10.871,1.283,21.239S408.525,323.4,410.89,330.14Z" transform="translate(-402.316 -290.449)" fill="#379cf7"/>
                <path id="Path_34988" data-name="Path 34988" d="M412.9,333.441l.059-.014.035-1.1c-.515-2.731-1.275-6.643-2-9.321-1.207-4.482-.267-6.658-1.238-14.46s-5.6-18.1-5.6-18.1,1.453,15.493,3.572,22.265C409.694,318.98,412.491,331.591,412.9,333.441Z" transform="translate(-403.144 -290.449)" fill="#006cbc"/>
              </g>
            </g>
            <g id="Group_15062" data-name="Group 15062" transform="translate(8.8 39.509)">
              <path id="Path_34989" data-name="Path 34989" d="M403.957,364.086l1.872,11.081a2.147,2.147,0,0,0,2.116,1.789h10.825a2.146,2.146,0,0,0,2.116-1.789l1.872-11.081a1.641,1.641,0,0,0-1.618-1.915H405.575A1.641,1.641,0,0,0,403.957,364.086Z" transform="translate(-403.933 -362.171)" fill="#fff"/>
              <path id="Path_34990" data-name="Path 34990" d="M422.756,363.526v0a1.6,1.6,0,0,0-.085-.3l-.008-.021a1.691,1.691,0,0,0-.131-.257c-.01-.016-.021-.03-.031-.046a1.589,1.589,0,0,0-.158-.2c-.022-.024-.047-.045-.071-.068a1.571,1.571,0,0,0-.165-.143c-.04-.029-.084-.052-.126-.078a1.628,1.628,0,0,0-.155-.088,1.568,1.568,0,0,0-.2-.068c-.042-.013-.083-.031-.127-.041a1.618,1.618,0,0,0-.354-.04H405.583a1.636,1.636,0,0,0-1.632,1.687h13.9a1.6,1.6,0,0,1-.013.229l-1.872,11.081a2.147,2.147,0,0,1-2.117,1.789h4.929a2.146,2.146,0,0,0,2.116-1.789l1.872-11.081A1.616,1.616,0,0,0,422.756,363.526Z" transform="translate(-403.941 -362.171)" fill="#caedff"/>
            </g>
          </g>
          <g id="Group_15071" data-name="Group 15071" transform="translate(36.605 50.066)">
            <g id="Group_15065" data-name="Group 15065" transform="translate(0 25.914)">
              <path id="Path_34991" data-name="Path 34991" d="M121.95,218.945H97.508a3.174,3.174,0,0,0-3.174,3.175v19.2l6.216-5.631a2.746,2.746,0,0,1,1.844-.711H121.95a2.18,2.18,0,0,0,2.179-2.18V221.125A2.18,2.18,0,0,0,121.95,218.945Z" transform="translate(-94.334 -218.945)" fill="#0a4d7a"/>
              <g id="Group_15064" data-name="Group 15064" transform="translate(10.077 4.134)">
                <path id="Path_34992" data-name="Path 34992" d="M121.8,227.242a2.707,2.707,0,0,0-3.828,0l-.36.36-.36-.36a2.707,2.707,0,0,0-3.828,3.828l.36.36,3.828,3.829,3.828-3.829.36-.36a2.708,2.708,0,0,0,0-3.828Z" transform="translate(-112.627 -226.449)" fill="#ff5a5a"/>
              </g>
            </g>
            <g id="Group_15068" data-name="Group 15068" transform="translate(144.46)">
              <path id="Path_34993" data-name="Path 34993" d="M385.647,171.9H361.062a3.193,3.193,0,0,0-3.193,3.192v19.315l6.252-5.664a2.762,2.762,0,0,1,1.855-.715h19.671a2.192,2.192,0,0,0,2.192-2.192V174.094A2.192,2.192,0,0,0,385.647,171.9Z" transform="translate(-357.869 -171.902)" fill="#0a4d7a"/>
              <g id="Group_15067" data-name="Group 15067" transform="translate(8.901 3.028)">
                <path id="Path_34994" data-name="Path 34994" d="M390.934,183.142a.853.853,0,0,0-.068-1.7H389.2a1.706,1.706,0,0,0-.256-.018,4.465,4.465,0,0,1-1.294-.069c-.726-.156.128-1.039-.324-2.66s-2.029-1.525-1.954-.769.163,2.559-.257,3.128a3.712,3.712,0,0,1-2.492,1.407l-.031,4.292,1.686.012a4.1,4.1,0,0,0,2.342,1.072v.015h3.211a.781.781,0,0,0,.488-1.39.852.852,0,0,0,.208-1.661h.125a.853.853,0,0,0,.853-.853h0A.852.852,0,0,0,390.934,183.142Z" transform="translate(-377.874 -177.399)" fill="#379cf7"/>
                <g id="Group_15066" data-name="Group 15066" transform="translate(0 3.89)">
                  <path id="Path_34995" data-name="Path 34995" d="M374.027,190.729l2.889,0,.036-6.269-2.889,0Z" transform="translate(-374.027 -184.461)" fill="#379cf7"/>
                </g>
              </g>
            </g>
            <g id="Group_15070" data-name="Group 15070" transform="translate(115.247 58.198)">
              <path id="Path_34996" data-name="Path 34996" d="M305.532,289.458a7.921,7.921,0,0,1-1.045-4.076,7.96,7.96,0,1,1,5.15,7.579,2.443,2.443,0,0,0-1.569-.054l-3.1.936.757-2.505A2.4,2.4,0,0,0,305.532,289.458Z" transform="translate(-304.486 -277.551)" fill="#0a4d7a"/>
              <g id="Group_15069" data-name="Group 15069" transform="translate(3.644 3.423)">
                <path id="Path_34997" data-name="Path 34997" d="M315.245,284l-.82,2.522a.343.343,0,0,1-.327.238h-2.652a.344.344,0,0,0-.2.623l2.146,1.559a.344.344,0,0,1,.125.385l-.82,2.522a.344.344,0,0,0,.53.385l2.146-1.559a.345.345,0,0,1,.4,0l2.146,1.559a.344.344,0,0,0,.53-.385l-.819-2.522a.344.344,0,0,1,.125-.385l2.146-1.559a.344.344,0,0,0-.2-.623h-2.652a.345.345,0,0,1-.328-.238L315.9,284A.344.344,0,0,0,315.245,284Z" transform="translate(-311.101 -283.764)" fill="#fbbe42"/>
              </g>
            </g>
          </g>
        </g>
      </g>
    </g>
  </g>
</svg>
