<svg xmlns="http://www.w3.org/2000/svg" xmlns:xlink="http://www.w3.org/1999/xlink" width="346.787" height="183" viewBox="0 0 346.787 183">
  <defs>
    <clipPath id="clip-path">
      <rect id="Rectangle_1846" data-name="Rectangle 1846" width="92.343" height="60.972" rx="14.222" fill="none"/>
    </clipPath>
    <radialGradient id="radial-gradient" cx="0.109" cy="0.359" r="0.627" gradientUnits="objectBoundingBox">
      <stop offset="0" stop-color="#fff"/>
      <stop offset="1" stop-color="#fff" stop-opacity="0"/>
    </radialGradient>
    <linearGradient id="linear-gradient" x1="0.5" x2="0.5" y2="1" gradientUnits="objectBoundingBox">
      <stop offset="0" stop-color="#ffd71d"/>
      <stop offset="1" stop-color="#feb200"/>
    </linearGradient>
    <linearGradient id="linear-gradient-2" x1="-0.692" y1="0.5" x2="0.308" y2="0.5" gradientUnits="objectBoundingBox">
      <stop offset="0" stop-color="#343a44"/>
      <stop offset="0.301" stop-color="#232c3d"/>
      <stop offset="0.639" stop-color="#172339"/>
      <stop offset="1" stop-color="#142138"/>
    </linearGradient>
    <linearGradient id="linear-gradient-3" x1="0.15" y1="0.5" x2="1.15" y2="0.5" xlink:href="#linear-gradient-2"/>
  </defs>
  <g id="Group_14889" data-name="Group 14889" transform="translate(-70.247 -58.644)">
    <g id="OBJECTS" transform="translate(70.247 58.644)">
      <g id="Group_14924" data-name="Group 14924">
        <path id="Path_34691" data-name="Path 34691" d="M123.62,171.806c-17.506,11.009-26.676,35.817-12.5,68.878H389.939c4.732-11.978,7.564-27.714,8.454-37.079,1.94-20.434-5.007-41.659-17.252-52.865-30.986-28.358-56.748,11.032-73.037-5.62-9.4-9.612-8.511-36.591-15.868-49.115a74.939,74.939,0,0,0-76.961-36.381C195.215,62.88,177.121,73.5,166.084,91.457c-15.118,24.6-4.114,42.224-10.786,59.227C147.858,169.64,135.315,164.452,123.62,171.806Z" transform="translate(-84.867 -58.644)" fill="#b0d4ff" opacity="0.67"/>
        <g id="Group_14896" data-name="Group 14896" transform="translate(60.64 57.262)">
          <g id="Group_14890" data-name="Group 14890">
            <path id="Path_34692" data-name="Path 34692" d="M181.835,171.818a24.127,24.127,0,0,0,2.547-1.447l1.092-1.694s1.069-.69,1.834-1.062,2.174-2.662,2.174-2.662l-.557-.7a9.565,9.565,0,0,1-1.067,1.14,1.368,1.368,0,0,1-.8.026,14.386,14.386,0,0,1,.617-1.728,16.1,16.1,0,0,1,1.734-2.659l-.49-.514a14.074,14.074,0,0,0-1.067,1.117c-.283.374-.826,1.159-.826,1.159a15.474,15.474,0,0,1,.913-1.9c.349-.516.728-1.215.728-1.215l-.567-.394a12.8,12.8,0,0,0-1,1.432c-.342.613-.973,1.63-.973,1.63a20.17,20.17,0,0,1,.719-2.01,7.175,7.175,0,0,0,.327-.68l-.673-.23a5.4,5.4,0,0,0-.795,1.42,7.527,7.527,0,0,1-.512,1.174,8.076,8.076,0,0,1,.421-1.7,1.479,1.479,0,0,0,.23-.545l-.545-.1s-1.047,1.928-1.6,3.124-.98,2.811-1.29,3.685a33.794,33.794,0,0,0-.713,3.852Z" transform="translate(-178.923 -159.287)" fill="#f5c5b3"/>
            <path id="Path_34693" data-name="Path 34693" d="M195.868,190.347l-13.254-2.283a44.182,44.182,0,0,1-.144-6.792c.234-3.967.72-5.072.72-5.072l-3.557-.492s-.7,3.124-1.206,5.369c-1.117,4.978-2.138,9.642-1.285,10.681,1.238,1.508,12.267,4.578,16.041,7.409C195.455,200.87,195.323,195.416,195.868,190.347Z" transform="translate(-176.826 -166.365)" fill="#42b2fc"/>
          </g>
          <path id="Path_34694" data-name="Path 34694" d="M242.816,264.611l-.67,4.584,1.385,3.142,1.012-1.368.233-2.561,1.5.225.734-.921-.064-1.919-.246-5.224Z" transform="translate(-204.981 -202.943)" fill="#fec4ad"/>
          <path id="Path_34695" data-name="Path 34695" d="M238.368,206.1a17.751,17.751,0,0,0-4.354-.131,13.717,13.717,0,0,0,1.039,6.306c1.353,2.748,4.709,12.76,5.134,13.7s-.89,15.068-.89,15.068l4.869-1s2.346-10.9,2.328-13.665-2.609-13.136-4.451-16.441S240.846,207.014,238.368,206.1Z" transform="translate(-201.463 -179.374)" fill="#42b2fc"/>
          <path id="Path_34696" data-name="Path 34696" d="M221.514,188.346s-1.071,4.7-.233,5.79c.491.641,2.573,2.922,2.573,2.922s-6.9,3.641-8.924,3.641-1.317-4.067-1.317-4.067,2.211-1.748,2.54-2.631a19.842,19.842,0,0,0,.513-3.439Z" transform="translate(-192.631 -171.813)" fill="#fec4ad"/>
          <g id="Group_14894" data-name="Group 14894" transform="translate(19.86 6.8)">
            <g id="Group_14891" data-name="Group 14891" transform="translate(9.695 8.24)">
              <path id="Path_34697" data-name="Path 34697" d="M228.907,187.389s-.079-1.711,1.355-1.667c.915.028.986.867.273,1.949-.3.455-.331,1.486-.7,1.817-.453.4-.832-.218-.97-.5A3.409,3.409,0,0,1,228.907,187.389Z" transform="translate(-228.771 -185.722)" fill="#f5c5b3"/>
            </g>
            <g id="Group_14892" data-name="Group 14892" transform="translate(0 8.24)">
              <path id="Path_34698" data-name="Path 34698" d="M213.841,187.389s.079-1.711-1.355-1.667c-.915.028-.986.867-.273,1.949.3.455.331,1.486.7,1.817.453.4.832-.218.97-.5A3.409,3.409,0,0,0,213.841,187.389Z" transform="translate(-211.732 -185.722)" fill="#f5c5b3"/>
            </g>
            <path id="Path_34699" data-name="Path 34699" d="M223.544,178.067a16.251,16.251,0,0,1-.29,1.74c-.034.2-.071.426-.109.689-.3,2.053-.672,4.846-.834,5.262a7.356,7.356,0,0,1-2.431,2.219,4.182,4.182,0,0,1-3.145-.084c-.7-.41-2.272-1.445-2.54-2.135-.164-.424-.554-3.3-.852-5.385-.034-.238-.067-.443-.1-.625a15.722,15.722,0,0,1-.283-1.682c-.106-1.735,1.846-4.258,5.292-4.258C222.328,173.809,223.651,176.332,223.544,178.067Z" transform="translate(-212.26 -172.347)" fill="#f5c5b3"/>
            <path id="Path_34700" data-name="Path 34700" d="M216,176.35a8.241,8.241,0,0,1,6.311.231l1.216-.774a9.972,9.972,0,0,0-4.32-.909C216.658,174.917,216,176.35,216,176.35Z" transform="translate(-213.571 -172.816)" fill="#e8d4e5" style="mix-blend-mode: multiply;isolation: isolate"/>
            <g id="Group_14893" data-name="Group 14893" transform="translate(0.984 6.982)">
              <path id="Path_34701" data-name="Path 34701" d="M223.471,183.99c-.034.2-.071.426-.109.689-.3,2.053-.672,4.846-.834,5.262a7.351,7.351,0,0,1-2.431,2.219,4.182,4.182,0,0,1-3.145-.084c-.7-.41-2.273-1.445-2.54-2.135-.164-.424-.554-3.3-.852-5.385-.034-.238-.067-.443-.1-.625l.281-.42s.508,2.977,1.285,3.9.925.967.925.967l1.59-.393.127-.032a3.734,3.734,0,0,1,1.854.015c.034.008.067.017.1.027l.115.034,1.2.348s.28-.043,1.058-.967,1.152-3.9,1.152-3.9Z" transform="translate(-213.461 -183.511)" fill="#7b2b1a"/>
            </g>
            <path id="Path_34702" data-name="Path 34702" d="M230.807,177.727c-.011.057-.291,2.085-.406,2.406-.176.492-.311.847-.311.847l-.209-.453a6.75,6.75,0,0,1-.616-2.679l-.037-1.739.579-.511C230.947,175.766,231.069,176.427,230.807,177.727Z" transform="translate(-219.273 -173.117)" fill="#7b2b1a"/>
            <path id="Path_34703" data-name="Path 34703" d="M214.459,176.283v.008l-.278,1.789a6.761,6.761,0,0,1-.832,2.355l-.024.041-.316.544s-.093-.316-.222-.766c-.1-.331-.331-2.027-.388-2.267-.018-.075-.034-.147-.048-.218-.243-1.273-.006-1.806,1.123-1.975Z" transform="translate(-211.961 -173.203)" fill="#7b2b1a"/>
            <path id="Path_34704" data-name="Path 34704" d="M222.941,173.718l-.579.511-1.1.4a8.747,8.747,0,0,0-3.883-.7c-2.209.17-2.51.806-2.542.845v0l-.228-.049-1.085-.237-.221-.049a6.876,6.876,0,0,1,.432-1.227c.869-1.31,3.233-2.157,5.38-1.939.073.007.145.015.216.025a5.176,5.176,0,0,1,2.926,1.21Z" transform="translate(-212.408 -171.239)" fill="#7b2b1a"/>
          </g>
          <path id="Path_34705" data-name="Path 34705" d="M233.431,371.488v4.3h-8.268s.311-1.557,4.231-2.276l.577-2.026Z" transform="translate(-197.661 -250.753)" fill="#133a50"/>
          <path id="Path_34706" data-name="Path 34706" d="M211.33,371.488v4.3h-8.268s.311-1.557,4.231-2.276l.576-2.026Z" transform="translate(-188.135 -250.753)" fill="#133a50"/>
          <path id="Path_34707" data-name="Path 34707" d="M225.718,258.934s1.157,13.857,1.2,25.157.713,39.867.713,39.867h-4.563s-4.7-27.437-6.416-34.7-6.157-30.186-6.157-30.186Z" transform="translate(-191.338 -202.239)" fill="#133a50"/>
          <path id="Path_34708" data-name="Path 34708" d="M211.566,273.857s-.855,17.217-1.026,20.607,0,29.52,0,29.52-4.276.115-4.276,0-4.032-27.826-4.554-36.179-.216-18.256-.91-19.411,1.872-9.362,1.872-9.362l6.053,1.614Z" transform="translate(-187.108 -202.281)" fill="#133a50"/>
          <path id="Path_34709" data-name="Path 34709" d="M210.938,199.962s-1.9,4.3.957,4.775c4.536.755,5.917-5.048,5.917-5.048l5,2.575s-.092,31.133,1.874,40.637c1.141,5.518-17.851,2.888-20.637-2.01-2.411-4.239,4.555-39.468,4.555-39.468Z" transform="translate(-188.342 -176.702)" fill="#fff"/>
          <path id="Path_34710" data-name="Path 34710" d="M226.874,200.635c-.138.191-6.845,19.825-4.563,38.3.532,4.309,8.389.744,10.263.744,0,0,.891-13.791,1.109-18.92s-2.226-6.814-2.008-9.324,2.946-6.983,2.946-6.983Z" transform="translate(-196.228 -177.11)" fill="#42b2fc"/>
          <g id="Group_14895" data-name="Group 14895" transform="translate(13.297 23.713)">
            <path id="Path_34711" data-name="Path 34711" d="M206.332,241.036c.767-12.846,1.081-39.735,1.081-39.735l-4.532-.337s-2.267,22.553-2.3,25.117c-.014,1.019.3,13.4-.383,15.722C201.726,242.032,206.24,242.584,206.332,241.036Z" transform="translate(-200.197 -200.964)" fill="#42b2fc"/>
          </g>
        </g>
        <path id="Path_34712" data-name="Path 34712" d="M287.239,188.343c-3.558,1.22-7.216,2.5-10.042,4.981s-4.646,6.5-3.456,10.07,6.15,5.646,9.017,3.211a3.24,3.24,0,0,0,1.113-3.609c-1.094-2.438-4.9-1.295-6.691.693a10.751,10.751,0,0,0-2.942,8.707c.525,3.126,3.254,5.935,6.424,5.932s7.686-4.784,4.973-6.423c-3.445-2.081-7.873,2.874-9.568,6.525s-.636,8.594,2.827,10.645,11.589-.543,9.46-3.959c-2.25-3.611-8.9,1.6-9.78,5.757a8.017,8.017,0,0,0,6.6,9.234c4.223.513,11.539-4.3,8.616-7.387-4.225-4.466-11.267,6.906-9.234,12.707s10.433,8.11,15.146,4.163a3.475,3.475,0,0,0,1.515-2.936c-.273-1.9-2.872-2.433-4.691-1.825-4.747,1.586-6.891,8.228-3.967,12.29s9.9,4.136,12.914.137a3.433,3.433,0,0,0,.829-2.709,2.762,2.762,0,0,0-3.21-1.828,5.232,5.232,0,0,0-3.182,2.389,9.753,9.753,0,0,0,15.166,12.162,4.1,4.1,0,0,0,1.355-3.381,3.2,3.2,0,0,0-3.254-2.361,5.679,5.679,0,0,0-3.806,1.921c-4.25,4.413-2.433,12.954,3.244,15.256s16.939-4.037,12.952-8.689c-2.662-3.107-7.915,3.613-7.243,7.649s5.314,6.787,9.271,5.747,9.168-6.715,6.111-9.434c-2.163-1.924-5.664,2.144-6.331,4.961a6.649,6.649,0,0,0,3.429,7.276c2.8,1.376,6.222.547,8.912-1.027s4.922-3.822,7.512-5.556a23.5,23.5,0,0,1,17.95-3.364" transform="translate(-157.801 -114.549)" fill="none" stroke="#fff" stroke-width="2"/>
        <g id="Group_14901" data-name="Group 14901" transform="translate(222.309 92.112)">
          <path id="Path_34713" data-name="Path 34713" d="M571.41,220.759c-5.763-3.678-57.135,39.629-55.253,73.845,0,0,10-13.505,18.718-20.088s9.568-13.472,9.551-20.3,13.02-4.005,14.488-11.574C561.512,229.252,576.6,224.07,571.41,220.759Z" transform="translate(-484.738 -220.539)" fill="#4fae86"/>
          <g id="Group_14898" data-name="Group 14898" transform="translate(29.913 8.556)">
            <g id="Group_14897" data-name="Group 14897" transform="translate(1.008)">
              <path id="Path_34714" data-name="Path 34714" d="M574.446,259.118c-8.3,5.027-5.856,11.728-10.75,15.643-3.558,2.847-9.5,1.357-12.457,5.233-3.336,4.369.457,10.381.738,15.646.388,7.272-6.1,12.725-12.691,14.935-7.654,2.565-17.56,1.763-21.75-5.848-4.945-8.983-1.243-22.526,7.433-26.745,2.107-1.025,4.784-1.3,6.505-3.377,2.906-3.5,1.041-8.539,2.387-12.993,1.311-4.341,5.6-7.394,9.558-8.747s7.982-1.627,11.845-3.2c5.262-2.137,9.87-6.833,14.251-10,3.908-2.825,17.629-8.128,19.86,1.138C591.409,249.246,581.418,254.9,574.446,259.118Z" transform="translate(-515.32 -235.577)" fill="#319188"/>
            </g>
            <path id="Path_34715" data-name="Path 34715" d="M574.538,253.219s-33.923,17.048-60.989,72.056" transform="translate(-513.549 -243.181)" fill="none" stroke="#194459" stroke-width="1"/>
          </g>
          <path id="Path_34716" data-name="Path 34716" d="M596.246,298.379s-43.619-.488-79.864,41.088" transform="translate(-484.857 -254.091)" fill="none" stroke="#fff" stroke-width="1"/>
          <g id="Group_14900" data-name="Group 14900" transform="translate(33.197 52.644)">
            <g id="Group_14899" data-name="Group 14899" transform="translate(6.729)">
              <path id="Path_34717" data-name="Path 34717" d="M580.98,324.16c-4.157,1.663-5.285,8.672-9.761,9.561-3.256.647-6.731-2.237-9.912-.74-3.586,1.686-2.955,6.742-4.421,10.177-2.024,4.745-8.042,6.092-13.111,5.344-5.886-.868-12.211-4.609-12.6-10.809-.464-7.317,6.244-14.71,13.328-14.559,1.72.036,3.585.733,5.378-.023,3.029-1.276,3.371-5.083,5.662-7.472,2.233-2.329,6.041-2.868,9.09-2.437s5.809,1.57,8.867,1.834c4.164.36,8.7-1.12,12.6-1.7,3.482-.519,17.7-.245,12.828,7.2C595.547,325.691,586.52,321.942,580.98,324.16Z" transform="translate(-531.148 -313.066)" fill="#4fae86"/>
            </g>
            <path id="Path_34718" data-name="Path 34718" d="M584.851,320.494s-30.3,2.579-65.53,28.682" transform="translate(-519.321 -316.268)" fill="none" stroke="#194459" stroke-width="1"/>
          </g>
          <path id="Path_34719" data-name="Path 34719" d="M460.974,360.076s6.895-12.071,8.019-13.315c7.092-7.851,16.5-7.937,26.078-5.955,2.771.574,10.108,4.428,12.77,3.9,2.074-.415,4.563-8.3,11.2-7.881s7.036,8.3,7.036,8.3,4.163-9.157,10.8-8.312,6.637,7.027,1.659,11.61c0,0,10.578-3.173,20.843,1.742s5.362,11.362,5.362,11.362Z" transform="translate(-460.974 -270.63)" fill="#319188"/>
        </g>
        <g id="Group_14906" data-name="Group 14906" transform="translate(13.089 92.112)">
          <path id="Path_34720" data-name="Path 34720" d="M135.877,220.759c5.763-3.678,57.135,39.629,55.253,73.845,0,0-10-13.505-18.718-20.088s-9.568-13.472-9.551-20.3-13.02-4.005-14.488-11.574C145.775,229.252,130.69,224.07,135.877,220.759Z" transform="translate(-111.16 -220.539)" fill="#4fae86"/>
          <g id="Group_14903" data-name="Group 14903" transform="translate(6.144 8.556)">
            <g id="Group_14902" data-name="Group 14902">
              <path id="Path_34721" data-name="Path 34721" d="M119.248,259.118c8.3,5.027,5.856,11.728,10.75,15.643,3.558,2.847,9.5,1.357,12.457,5.233,3.336,4.369-.457,10.381-.738,15.646-.387,7.272,6.1,12.725,12.691,14.935,7.654,2.565,17.56,1.763,21.75-5.848,4.945-8.983,1.243-22.526-7.433-26.745-2.107-1.025-4.784-1.3-6.506-3.377-2.906-3.5-1.041-8.539-2.387-12.993-1.311-4.341-5.6-7.394-9.558-8.747s-7.981-1.627-11.845-3.2c-5.262-2.137-9.87-6.833-14.251-10-3.908-2.825-17.629-8.128-19.86,1.138C102.285,249.246,112.276,254.9,119.248,259.118Z" transform="translate(-104.05 -235.577)" fill="#319188"/>
            </g>
            <path id="Path_34722" data-name="Path 34722" d="M129.257,253.219s33.923,17.048,60.989,72.056" transform="translate(-114.915 -243.181)" fill="none" stroke="#194459" stroke-width="1"/>
          </g>
          <path id="Path_34723" data-name="Path 34723" d="M93.251,298.379s43.619-.488,79.864,41.088" transform="translate(-93.251 -254.091)" fill="none" stroke="#fff" stroke-width="1"/>
          <g id="Group_14905" data-name="Group 14905" transform="translate(2.681 52.644)">
            <g id="Group_14904" data-name="Group 14904">
              <path id="Path_34724" data-name="Path 34724" d="M116.913,324.16c4.157,1.663,5.285,8.672,9.761,9.561,3.256.647,6.731-2.237,9.912-.74,3.586,1.686,2.955,6.742,4.42,10.177,2.025,4.745,8.042,6.092,13.112,5.344,5.886-.868,12.211-4.609,12.6-10.809.464-7.317-6.244-14.71-13.328-14.559-1.72.036-3.584.733-5.378-.023-3.029-1.276-3.371-5.083-5.662-7.472-2.233-2.329-6.041-2.868-9.09-2.437s-5.809,1.57-8.867,1.834c-4.164.36-8.7-1.12-12.6-1.7-3.481-.519-17.7-.245-12.828,7.2C102.345,325.691,111.373,321.942,116.913,324.16Z" transform="translate(-97.964 -313.066)" fill="#4fae86"/>
            </g>
            <path id="Path_34725" data-name="Path 34725" d="M115.5,320.494s30.3,2.579,65.53,28.682" transform="translate(-105.524 -316.268)" fill="none" stroke="#194459" stroke-width="1"/>
          </g>
          <path id="Path_34726" data-name="Path 34726" d="M209.526,360.076s-6.9-12.071-8.02-13.315c-7.092-7.851-16.5-7.937-26.078-5.955-2.771.574-10.108,4.428-12.77,3.9-2.074-.415-4.563-8.3-11.2-7.881s-7.036,8.3-7.036,8.3-4.163-9.157-10.8-8.312-6.637,7.027-1.659,11.61c0,0-10.578-3.173-20.843,1.742s-5.362,11.362-5.362,11.362Z" transform="translate(-98.137 -270.63)" fill="#319188"/>
        </g>
        <g id="Group_14913" data-name="Group 14913" transform="translate(177.772 107.583)">
          <g id="Group_14907" data-name="Group 14907" transform="translate(7.31 64.467)">
            <path id="Path_34727" data-name="Path 34727" d="M409.243,371.6h-10.73a2.276,2.276,0,0,1-2.268-2.088l-.7-8.471h16.672l-.7,8.471A2.276,2.276,0,0,1,409.243,371.6Z" transform="translate(-395.542 -361.037)" fill="#21295b"/>
            <path id="Path_34728" data-name="Path 34728" d="M520.6,371.6h-10.73a2.276,2.276,0,0,1-2.268-2.088l-.7-8.471h16.672l-.7,8.471A2.276,2.276,0,0,1,520.6,371.6Z" transform="translate(-443.539 -361.037)" fill="#21295b"/>
          </g>
          <path id="Path_34729" data-name="Path 34729" d="M475.3,306.978H397.5l5.5-40.111a6.32,6.32,0,0,1,6.261-5.461h54.279a6.319,6.319,0,0,1,6.261,5.461Z" transform="translate(-389.075 -253.625)" fill="#ff3a46"/>
          <path id="Path_34730" data-name="Path 34730" d="M472.755,293.3h-56.8l4.035-40.3a5.86,5.86,0,0,1,5.831-5.276h37.073a5.86,5.86,0,0,1,5.83,5.276Z" transform="translate(-397.029 -247.731)" fill="#ff3a46"/>
          <path id="Path_34731" data-name="Path 34731" d="M398.745,325.5,397.5,334.6h77.8l-1.249-9.106Z" transform="translate(-389.075 -281.251)" fill="#cfcfcf" style="mix-blend-mode: multiply;isolation: isolate"/>
          <path id="Path_34732" data-name="Path 34732" d="M477.342,353.273H382.695l1.752-20.563H475.59Z" transform="translate(-382.695 -284.36)" fill="#ff3a46"/>
          <g id="Group_14912" data-name="Group 14912" transform="translate(23.364 1.115)">
            <circle id="Ellipse_140" data-name="Ellipse 140" cx="17.316" cy="17.316" r="17.316" transform="translate(0 18.895) rotate(-33.065)" fill="#cfcfcf" style="mix-blend-mode: multiply;isolation: isolate"/>
            <circle id="Ellipse_141" data-name="Ellipse 141" cx="14.973" cy="14.973" r="14.973" transform="translate(8.641 9.341) rotate(-1.34)" fill="#fff"/>
            <g id="Group_14911" data-name="Group 14911" transform="translate(10.937 10.939)">
              <g id="Group_14908" data-name="Group 14908" transform="translate(15.258 21.448)">
                <path id="Path_34733" data-name="Path 34733" d="M471.748,310.5a1.956,1.956,0,0,1-1.377-.567,1.58,1.58,0,0,1-.239-.3,1.917,1.917,0,0,1-.183-.333,2.727,2.727,0,0,1-.111-.361,2.251,2.251,0,0,1-.039-.384,1.95,1.95,0,0,1,2.327-1.9,2.09,2.09,0,0,1,.361.112,2.174,2.174,0,0,1,.339.178,2.034,2.034,0,0,1,.294.245,1.954,1.954,0,0,1,.572,1.371,2.246,2.246,0,0,1-.039.384,2.636,2.636,0,0,1-.11.361,2.423,2.423,0,0,1-.178.333,1.834,1.834,0,0,1-.245.3,2.034,2.034,0,0,1-.294.239,1.527,1.527,0,0,1-.339.178,1.721,1.721,0,0,1-.361.112A1.808,1.808,0,0,1,471.748,310.5Z" transform="translate(-469.799 -306.616)" fill="#b3b3b3"/>
              </g>
              <g id="Group_14909" data-name="Group 14909">
                <path id="Path_34734" data-name="Path 34734" d="M454.163,294.935h0a1.944,1.944,0,0,1-1.649-2.2h0a1.944,1.944,0,0,1,2.2-1.649h0a1.95,1.95,0,0,1,1.65,2.2h0a1.947,1.947,0,0,1-1.928,1.671h0A1.5,1.5,0,0,1,454.163,294.935Zm-6.248-2.654h0a1.95,1.95,0,0,1-.333-2.733h0a1.943,1.943,0,0,1,2.727-.333h0a1.943,1.943,0,0,1,.333,2.726h0a1.932,1.932,0,0,1-1.533.75h0A1.934,1.934,0,0,1,447.915,292.281Zm-4.082-5.432a1.937,1.937,0,0,1,1.072-2.527h0a1.945,1.945,0,0,1,2.532,1.072h0a1.953,1.953,0,0,1-1.078,2.532h0a1.967,1.967,0,0,1-.728.139h0A1.929,1.929,0,0,1,443.833,286.849Zm.822-4.543a1.947,1.947,0,0,1-1.655-2.2h0a1.945,1.945,0,0,1,2.2-1.649h0a1.945,1.945,0,0,1,1.655,2.193h0a1.947,1.947,0,0,1-1.927,1.672h0A2.187,2.187,0,0,1,444.655,282.306Zm1.338-5.72a1.943,1.943,0,0,1-.339-2.727h0a1.94,1.94,0,0,1,2.727-.339h0a1.939,1.939,0,0,1,.339,2.727h0a1.931,1.931,0,0,1-1.533.75h0A1.934,1.934,0,0,1,445.994,276.586Zm15.694-1.933a1.939,1.939,0,0,1-.339-2.726h0a1.944,1.944,0,0,1,2.727-.344h0a1.95,1.95,0,0,1,.339,2.732h0a1.95,1.95,0,0,1-1.533.75h0A1.955,1.955,0,0,1,461.688,274.653ZM450.009,272.3a1.937,1.937,0,0,1,1.071-2.527h0a1.945,1.945,0,0,1,2.533,1.072h0a1.948,1.948,0,0,1-1.078,2.532h0a1.947,1.947,0,0,1-.727.139h0A1.937,1.937,0,0,1,450.009,272.3Zm7.27.489a1.944,1.944,0,0,1-1.649-2.2h0a1.938,1.938,0,0,1,2.194-1.65h0a1.939,1.939,0,0,1,1.655,2.194h0a1.945,1.945,0,0,1-1.921,1.672h0A2.271,2.271,0,0,1,457.279,272.788Z" transform="translate(-442.981 -268.918)" fill="#b3b3b3"/>
              </g>
              <g id="Group_14910" data-name="Group 14910" transform="translate(21.45 6.898)">
                <path id="Path_34735" data-name="Path 34735" d="M482.626,284.927a2.119,2.119,0,0,1-.377-.039,2,2,0,0,1-.367-.111,2.323,2.323,0,0,1-.333-.178,2.116,2.116,0,0,1-.3-.244,1.951,1.951,0,0,1-.567-1.372,1.829,1.829,0,0,1,.039-.383,1.692,1.692,0,0,1,.112-.361,1.913,1.913,0,0,1,.177-.339,2.006,2.006,0,0,1,.239-.295,2.252,2.252,0,0,1,.633-.422,2,2,0,0,1,.367-.105,1.955,1.955,0,0,1,1.749.527,1.72,1.72,0,0,1,.244.295,1.953,1.953,0,0,1,.178.339,1.723,1.723,0,0,1,.112.361,1.829,1.829,0,0,1,.038.383,1.952,1.952,0,0,1-1.944,1.944Z" transform="translate(-480.682 -281.041)" fill="#b3b3b3"/>
              </g>
            </g>
          </g>
        </g>
        <g id="Group_14914" data-name="Group 14914" transform="translate(122.214 41.423)">
          <path id="Path_34736" data-name="Path 34736" d="M426.2,174.368a8.305,8.305,0,0,1,1.668-8.686s14.081,9.123,29.819,6.549c0,0,1.726,4.746-3.112,9.142C454.573,181.373,437.726,184.568,426.2,174.368Z" transform="translate(-345.645 -146.205)" fill="#d6313b"/>
          <path id="Path_34737" data-name="Path 34737" d="M389.705,139.416c-10.132-8.544-29.326-9.745-53.621-5.834-20.891,3.363-42.168,11.254-49.269,22.4-3.235,5.076-1.038,19.175-1.038,19.175,19.245,1.2,26.294-15.343,26.294-15.343s-1.287-4.695,3.025-6.769c15.087-7.26,38.477-9.74,47.178-7.6a6.446,6.446,0,0,1,5,5.478s11.886,13.5,29.781,6.314C397.05,157.241,394.307,143.3,389.705,139.416Z" transform="translate(-285.048 -131.449)" fill="#ff3a46"/>
          <path id="Path_34738" data-name="Path 34738" d="M316.3,188.742a8.3,8.3,0,0,0-4.31-7.723S301.481,194.1,285.731,196.6c0,0-.149,5.048,5.824,7.7C291.555,204.3,308.552,202.045,316.3,188.742Z" transform="translate(-285.342 -152.815)" fill="#d6313b"/>
        </g>
        <g id="Group_14916" data-name="Group 14916" transform="translate(65.065 121.543)">
          <g id="Group_14915" data-name="Group 14915" clip-path="url(#clip-path)">
            <rect id="Rectangle_1845" data-name="Rectangle 1845" width="92.343" height="60.972" rx="14.222" fill="#ffd71d"/>
            <path id="Path_34739" data-name="Path 34739" d="M276.947,280.359a8.092,8.092,0,0,0-8.092-8.092H192.7a8.092,8.092,0,0,0-8.092,8.092L226.477,314.3a6.748,6.748,0,0,0,8.493,0Z" transform="translate(-184.604 -272.267)" fill="#ffd71d" style="mix-blend-mode: multiply;isolation: isolate"/>
            <path id="Path_34740" data-name="Path 34740" d="M189.994,326.946V282.158a8.091,8.091,0,0,1,8.092-8.092h75.8a8.015,8.015,0,0,0-5.03-1.8H192.7a8.092,8.092,0,0,0-8.092,8.092v44.788a8.091,8.091,0,0,0,8.092,8.092h.36A8.042,8.042,0,0,1,189.994,326.946Z" transform="translate(-184.604 -272.267)" opacity="0.7" fill="url(#radial-gradient)" style="mix-blend-mode: overlay;isolation: isolate"/>
            <path id="Path_34741" data-name="Path 34741" d="M225.672,308.4,184.6,272.267h92.343L235.879,308.4A7.726,7.726,0,0,1,225.672,308.4Z" transform="translate(-184.604 -272.267)" fill="url(#linear-gradient)"/>
            <path id="Path_34742" data-name="Path 34742" d="M225.672,308.4,184.6,272.267h92.343L235.879,308.4A7.726,7.726,0,0,1,225.672,308.4Z" transform="translate(-184.604 -272.267)" fill="#fd0" opacity="0.7" style="mix-blend-mode: overlay;isolation: isolate"/>
          </g>
        </g>
        <g id="Group_14919" data-name="Group 14919" transform="translate(157.672 51.637)">
          <g id="Group_14917" data-name="Group 14917" transform="translate(19.426)">
            <path id="Path_34743" data-name="Path 34743" d="M392,182.423s2.628-7.584,2.812-8.419c1.089-4.928,1.385-15.613,1.317-17.885s-.28-4.267-.324-4.573a10.168,10.168,0,0,0-1.46-1.8,3.082,3.082,0,0,1-.438.047l-.017.285-.609-.525-.508-.028-.054.238-.724-.348-.7-.013s.451,1.442.707,2.319-.011.95-.011.95a1.911,1.911,0,0,1-.782.145,5.447,5.447,0,0,0-.992-.043s2.122,2.761,2.22,3.017a5,5,0,0,1,.854,3.994,101.9,101.9,0,0,1-3.023,11.042c.066-.155-2.856,8.186-2.856,8.186Z" transform="translate(-384.054 -149.4)" fill="#fec4ad"/>
            <path id="Path_34744" data-name="Path 34744" d="M388.042,212.508c.814-6.383,4.08-13.837,4.08-13.837s-4.992-.988-6.281-2.763c0,0-1.72,4.2-2.71,6.29-1.095,2.313-2.63,4.83-.7,6.2C384.293,209.727,387.759,214.731,388.042,212.508Z" transform="translate(-381.51 -169.446)" fill="#42b2fc"/>
          </g>
          <path id="Path_34745" data-name="Path 34745" d="M359.364,372.337v4.1h7.886s-.3-1.485-4.036-2.171l-.55-1.933Z" transform="translate(-352.538 -245.494)" fill="#133a50"/>
          <path id="Path_34746" data-name="Path 34746" d="M380.446,372.337v4.1h7.887s-.3-1.485-4.037-2.171l-.55-1.933Z" transform="translate(-361.626 -245.494)" fill="#133a50"/>
          <path id="Path_34747" data-name="Path 34747" d="M360.312,264.971s-1.1,11.467-1.143,22.246-.68,39.781-.68,39.781h4.353s4.488-27.924,6.12-34.853,5.873-27.044,5.873-27.044Z" transform="translate(-352.161 -199.215)" fill="#133a50"/>
          <path id="Path_34748" data-name="Path 34748" d="M370.577,198.129s-.282,2.194-.513,3.311a8.936,8.936,0,0,1-.594,2.045,25.014,25.014,0,0,1-2.693,3.058s7.217,3.81,9.339,3.81,1.378-4.256,1.378-4.256-2.314-1.829-2.658-2.753a20.764,20.764,0,0,1-.537-3.6Z" transform="translate(-355.734 -170.404)" fill="#fec4ad"/>
          <path id="Path_34749" data-name="Path 34749" d="M378.33,277.295s.815,18.174.979,21.408,0,28.159,0,28.159,4.079.11,4.079,0,3.846-28.294,4.344-36.262.207-17.415.868-18.516-1.786-7.18-1.786-7.18l-5.773-.211Z" transform="translate(-360.714 -199.095)" fill="#133a50"/>
          <path id="Path_34750" data-name="Path 34750" d="M363.713,208.217s-6.093-2.445-7.1-.438c-.761,1.517-.106,11.267.232,13.991.295,2.37,1.935,22.307,1.935,22.307s2.278,3.529,13.238,2.124a11.411,11.411,0,0,0,6.3-2.6s-1.185-23.79-1.511-26.177a51.507,51.507,0,0,0-1.454-6.112l-3.263-2.148s1.04,2.3-1.9,2.951C364.256,213.432,363.713,208.217,363.713,208.217Z" transform="translate(-351.2 -174.222)" fill="#42b2fc"/>
          <path id="Path_34751" data-name="Path 34751" d="M377.542,183.55c.691.277,1.9.9,2.034,1.476a22.9,22.9,0,0,1,.688,3.261c.064,1.013.209,2.928.208,4.122a10.526,10.526,0,0,1-.995,3.864,5.936,5.936,0,0,1-2.955.477c-.678-.193-4.655-2.251-4.9-4.77,0,0-.706.371-2-1.731-.339-.548.828-4.62.985-5.345.381-1.764,4.73-.374,5.706-.653A2.117,2.117,0,0,0,377.542,183.55Z" transform="translate(-356.931 -164.12)" fill="#fec4ad"/>
          <path id="Path_34752" data-name="Path 34752" d="M378,183.512s-3.047,1.908-4.236,2.006-2.935,1.732-2.9,2.239a1.1,1.1,0,0,1-.5.855s-.74-1.179-1.346-1.056c-1.2.243-.5,1.724.157,2.049a10.067,10.067,0,0,0,1.285.526,6.215,6.215,0,0,1,.057,1.27,5.828,5.828,0,0,1-.508,1.488,16.581,16.581,0,0,0-2.668-4.066c-3-2.627-.828-7.51,2.126-8.427,1.193-.37,4.467-.616,6.062.1A4.343,4.343,0,0,1,378,183.512Z" transform="translate(-355.355 -162.605)" fill="#133a50"/>
          <path id="Path_34753" data-name="Path 34753" d="M374.328,192.036c.044.119.356.141.414.167.125.055.071.073.619.913.405.619,1.083.819,2.351.4.968-.324.833-1.156.9-1.552s.152-.463.307-.49.238.01.438.359.292,1.251,1.3,1.1c.7-.1.881-.3.975-.848a5.74,5.74,0,0,0,.08-1.335c-.027-.365-.035-.588-.221-.607a3.394,3.394,0,0,0-.83.091,3.351,3.351,0,0,0-1.364.355c-.327.237-.291.382-.463.414s-.206-.117-.594-.229a11.757,11.757,0,0,0-2.6.277c-.6.106-1.432.332-1.415.56A1.707,1.707,0,0,0,374.328,192.036Zm5.212-.9c.031-.3.053-.263.8-.434s.824-.138.974-.019a1.589,1.589,0,0,1,.185,1.2.825.825,0,0,1-.72.864c-.657.115-.81-.21-1-.665A2.83,2.83,0,0,1,379.54,191.137Zm-4.345.485a5.655,5.655,0,0,1,1.87-.394c.76-.094,1.012-.125,1.142.142a2.811,2.811,0,0,1,.1.976c-.019.491-.116.921-1.3,1.135a1.272,1.272,0,0,1-1.584-.706A1.384,1.384,0,0,1,375.195,191.623Zm-2.533.754,1.666-.341.563-.822s-.639.091-1.7.326a3.242,3.242,0,0,0-1,.473A1.636,1.636,0,0,1,372.662,192.377Z" transform="translate(-358.067 -166.956)" fill="#21295b"/>
          <g id="Group_14918" data-name="Group 14918" transform="translate(0 5.942)">
            <path id="Path_34754" data-name="Path 34754" d="M348.825,187.621s-1.442-9.132-1.455-9.987c-.082-5.047,2.476-11.827,3-14.04s.868-1.863.972-2.154,3.77-.852,3.77-.852a9.777,9.777,0,0,1,1.215-.434c.23-.023,1.2-.312,1.2-.312l-.563,1.011s-2.285,1.738-2.432,1.969a5,5,0,0,0-1.634,3.743c-.094,4.515-.08,9.407-.08,9.407-.034-.165,2.162,9.351,2.162,9.351Z" transform="translate(-347.368 -159.843)" fill="#fec4ad"/>
            <path id="Path_34755" data-name="Path 34755" d="M353.425,218.452c-1.551-4.4-5.1-16.222-5.1-16.222s5.275-1.328,6.763-2.94c0,0,1.78,5.285,2.519,7.476.818,2.424,2.05,5.1-.027,6.243C355.577,214.109,354.17,220.566,353.425,218.452Z" transform="translate(-347.781 -176.846)" fill="#42b2fc"/>
          </g>
        </g>
        <g id="Group_14923" data-name="Group 14923" transform="translate(228.427 55.716)">
          <g id="Group_14920" data-name="Group 14920" transform="translate(3.501 39.27)">
            <path id="Path_34756" data-name="Path 34756" d="M524.494,244.362c1.369,1.274,2.338.848,4.394,7.887,1.314,4.5,6.106,27.18,6.106,27.18l-2.862,1.242c-3.871-10.842-3.866-10.831-8.388-19.631a39.137,39.137,0,0,1-3.11-8.472l-8.36-.5c-5.227-2.148-3.435-9.777-3.435-9.777S523.124,243.087,524.494,244.362Z" transform="translate(-491.096 -232.787)" fill="url(#linear-gradient-2)"/>
            <path id="Path_34757" data-name="Path 34757" d="M479.608,230.421l7.543-4.831,7.3,5.669,9.089,2.936-.049.028c3.656,1.268,7.83,3.118,9.112,4.31,1.37,1.275,4.069,3.084,1.892,10.087-1.391,4.474-7.453,27.14-7.453,27.14l-3.072-.547s1.091-13.133,2.185-22.958c.53-4.763.71-6.091.71-6.091s-20.294,2.213-26.833-1.24C475.452,242.505,479.608,234.083,479.608,230.421Z" transform="translate(-477.879 -225.59)" fill="url(#linear-gradient-3)"/>
            <path id="Path_34758" data-name="Path 34758" d="M526.533,310.881s-.089.825-1.411,1.2a2.249,2.249,0,0,1-2.221-.72l-.293,2.7,4.221,2.976h3.506l-1.9-2.105Z" transform="translate(-497.159 -262.354)" fill="#133a50"/>
            <path id="Path_34759" data-name="Path 34759" d="M552.072,304.318a1.449,1.449,0,0,1-.523,1.912,2.249,2.249,0,0,1-2.335-.009l.542,2.656,9.968-3.118Z" transform="translate(-508.627 -259.525)" fill="#133a50"/>
          </g>
          <g id="Group_14922" data-name="Group 14922">
            <path id="Path_34760" data-name="Path 34760" d="M530.877,177a21.275,21.275,0,0,1-1.661-1.977l-.383-1.735s-.671-.9-1.19-1.44a9.5,9.5,0,0,1-.98-2.866l.675-.407a8.428,8.428,0,0,0,.533,1.269,1.206,1.206,0,0,0,.654.267,12.653,12.653,0,0,0,.021-1.617,14.157,14.157,0,0,0-.617-2.729l.563-.274a12.381,12.381,0,0,1,.539,1.251c.119.4.327,1.211.327,1.211a13.648,13.648,0,0,0-.172-1.849c-.131-.534-.229-1.227-.229-1.227l.589-.151a11.308,11.308,0,0,1,.391,1.491c.094.611.3,1.645.3,1.645a17.878,17.878,0,0,0,.023-1.881,6.133,6.133,0,0,1-.062-.662l.626.016a4.769,4.769,0,0,1,.221,1.417,6.6,6.6,0,0,0,.063,1.127,7.116,7.116,0,0,0,.175-1.536,1.307,1.307,0,0,1-.023-.521l.483.082s.274,1.915.361,3.071-.053,2.623-.064,3.441-.031,1.457-.031,1.457Z" transform="translate(-495.406 -160.086)" fill="#fec4ad"/>
            <path id="Path_34761" data-name="Path 34761" d="M507.92,186.171a75.939,75.939,0,0,0,7.78,5.558s1.447-3.63,2.137-6.2c.824-3.071,1.066-4.486,1.066-4.486l2.935-.24s-.93,7.853-2.085,13.181c-1.123,5.179-2.534,4.253-3.775,4s-12.921-6.53-12.921-6.53l1.251-6.669S505.138,183.886,507.92,186.171Z" transform="translate(-485.231 -167.014)" fill="#fec4ad"/>
            <path id="Path_34762" data-name="Path 34762" d="M489.911,156.866a7.445,7.445,0,0,1,5.53.559c3.613,2.225,1.879,8.32,1.653,9.724s1.07,3.933,1.049,5.61-.421,2.284-1.673,3.907a3.108,3.108,0,0,0-.466,1.3,11.964,11.964,0,0,1-1.681-4.954c-.3-2.884-.909-2.212-2.351-5.379a23.916,23.916,0,0,1-1.506-7.937Z" transform="translate(-479.564 -156.57)" fill="#471a16"/>
            <path id="Path_34763" data-name="Path 34763" d="M487.192,159.144l-3-2.066a4.393,4.393,0,0,0-4.057,1.94c-1.49,2.283-2.01,5.59-2.345,8.074s-1.21,7.154-1.15,9.006,2.311,2.105,2.311,2.105l7.548-3.266a22.4,22.4,0,0,1-.07-8.2A40.682,40.682,0,0,0,487.192,159.144Z" transform="translate(-473.84 -156.781)" fill="#471a16"/>
            <path id="Path_34764" data-name="Path 34764" d="M493.673,160.9a44.937,44.937,0,0,1,.958,5.469c.073,1.77-.138,4.686-1.31,5.491s-3.374.162-4.985-.5a3.8,3.8,0,0,1-2.315-2.836,16.833,16.833,0,0,1,.164-5.775,3.521,3.521,0,0,1,3.078-3.046C490.716,159.424,493.673,160.9,493.673,160.9Z" transform="translate(-477.808 -157.903)" fill="#fec4ad"/>
            <path id="Path_34765" data-name="Path 34765" d="M485.207,173.409s.412,4.4-.513,6.47c-.638,1.429-3.225,2.035-3.225,2.035a14.585,14.585,0,0,0,2.5,7.777c2.6,3.82,10.712,5.233,10.712,5.233a35.418,35.418,0,0,0,2.423-6.763,7.891,7.891,0,0,0-1.43-6.335s-2.194-.718-3.248-1.115c-2.557-.963-2.258-5.028-2.258-5.028Z" transform="translate(-475.925 -163.828)" fill="#fec4ad"/>
            <path id="Path_34766" data-name="Path 34766" d="M486.921,189.354s-5.248-1.333-6.824-2.357l-5.2,3.093s-3.057,2.918,2.16,10.584c0,0,1.98,6.983-1.234,19.287,0,0,.869,3.169,5.743,1.482,4.2-1.452,4.29-2.587,7.966-3.52,5.427-1.376,6.854-2.223,6.854-2.223-2.851-4.283-2.344-10.973-2.344-10.973s3.232-3.093,1.846-6.255a44.343,44.343,0,0,1-2.67-11.021l-2.785-.706a20.988,20.988,0,0,1-2.225,2.37A1.192,1.192,0,0,1,486.921,189.354Z" transform="translate(-472.707 -169.577)" fill="#42b2fc"/>
            <path id="Path_34767" data-name="Path 34767" d="M498.994,186.243s-.639,2.378-2.287,2.894c0,0,.645,3.257,2.187,2.691,2.165-.794,1.322-5.3,1.322-5.3Z" transform="translate(-482.494 -169.36)" fill="#fff"/>
            <path id="Path_34768" data-name="Path 34768" d="M483.61,185.928s1.028,4.975,3.777,5.378,3.675-2.621,3.675-2.621-5.827-1.709-6.4-3.492Z" transform="translate(-476.848 -168.908)" fill="#fff"/>
            <path id="Path_34769" data-name="Path 34769" d="M485.983,159.582c-.507.033-.881,2.431-.932,3.768s-2.054,2.393-1.17,5.336.765,5.785,1.949,9.01-.291,4.407-.931,5.517a42.892,42.892,0,0,1-3.394-4.171,3.347,3.347,0,0,0-3.626-1.625s3.872-7.52,3.741-9.548-.489-5.124,1.125-6.975S485.983,159.582,485.983,159.582Z" transform="translate(-474.378 -157.837)" fill="#471a16"/>
            <path id="Path_34770" data-name="Path 34770" d="M486.747,169.421s-1.076-1.179-1.787-1-.756,1.245-.215,2.119,2.544,1.366,2.544,1.366Z" transform="translate(-477.18 -161.671)" fill="#fec4ad"/>
            <path id="Path_34771" data-name="Path 34771" d="M491.386,162.8a14.261,14.261,0,0,0,3.055-.221,4.733,4.733,0,0,1,2.775.286l-.738-3.245a10.258,10.258,0,0,0-3.893-1.255c-2.055.014-3.852.8-2.835,1.464C490.828,160.529,491.386,162.8,491.386,162.8Z" transform="translate(-479.369 -157.342)" fill="#471a16"/>
            <g id="Group_14921" data-name="Group 14921" transform="translate(0 20.264)">
              <path id="Path_34772" data-name="Path 34772" d="M478.329,196.072c-.349,4.072-1.546,15.676-1.546,15.676,3.705,3.242,8.95,8.632,8.95,8.632s-1.493,2.944-2.131,2.444c-5.105-3.991-10.941-6.353-11.358-9.131-.684-4.563-.92-16.045.76-19.779C474.3,191.036,478.7,191.752,478.329,196.072Z" transform="translate(-471.726 -192.186)" fill="#fec4ad"/>
              <path id="Path_34773" data-name="Path 34773" d="M496.735,241.84c1.552.583,2.528,1.154,2.435,1.732-.064.4-1.388-.33-2.18-.3a4.4,4.4,0,0,0,1.886,1.85c1.025.5,1.6,1.205,1.05,1.8s-1.56,1.423-2.22,1.119-3-1.94-3.884-2.392-1.235-1.562-1.689-1.866.831-2.637.831-2.637c.244.068,1.523.341,1.523.341a8.14,8.14,0,0,0,1.268.106A3.1,3.1,0,0,1,496.735,241.84Z" transform="translate(-480.48 -213.287)" fill="#fec4ad"/>
            </g>
          </g>
        </g>
        <line id="Line_1" data-name="Line 1" x2="346.787" transform="translate(0 182.305)" fill="none" stroke="#194459" stroke-width="1"/>
      </g>
    </g>
  </g>
</svg>
