<svg xmlns="http://www.w3.org/2000/svg" width="71" height="71" viewBox="0 0 71 71">
  <g id="Group_41893" data-name="Group 41893" transform="translate(-185 -1108)">
    <rect id="Rectangle_3069" data-name="Rectangle 3069" width="71" height="71" rx="10" transform="translate(185 1108)" fill="#fff"/>
    <g id="data-random-squares" transform="translate(-1247.266 895.223)">
      <g id="Group_1470" data-name="Group 1470" transform="translate(1448.266 230.776)">
        <g id="Rectangle_6490" data-name="Rectangle 6490" transform="translate(15.07 0)">
          <rect id="Rectangle_7407" data-name="Rectangle 7407" width="3.857" height="3.857" fill="#00a0c0"/>
        </g>
        <g id="Rectangle_6491" data-name="Rectangle 6491" transform="translate(10.634 5.356)">
          <rect id="Rectangle_7408" data-name="Rectangle 7408" width="2.357" height="2.358" fill="#00a0c0"/>
        </g>
        <g id="Path_25215" data-name="Path 25215" transform="translate(20.143 1.517)">
          <path id="Path_25422" data-name="Path 25422" d="M1529.536,245.5h-5.969v-9.05h9.052v5.965h-3.083Zm-4.631-1.337h3.293v-3.085h3.083v-3.29h-6.377Z" transform="translate(-1523.568 -236.449)" fill="#00a0c0"/>
        </g>
        <g id="Path_25216" data-name="Path 25216" transform="translate(26.471 7.843)">
          <path id="Path_25423" data-name="Path 25423" d="M1547.226,260.1v8.014h4.176v3.772h7.609V260.1Z" transform="translate(-1547.226 -260.095)" fill="#00a0c0"/>
        </g>
        <g id="Path_25217" data-name="Path 25217" transform="translate(0 8.76)">
          <path id="Path_25424" data-name="Path 25424" d="M1458.2,279.262h-9.932V263.525H1464v7.766H1458.2Zm-8.594-1.337h7.257v-7.971h5.807v-5.091H1449.6Z" transform="translate(-1448.266 -263.525)" fill="#00a0c0"/>
        </g>
        <g id="Rectangle_6492" data-name="Rectangle 6492" transform="translate(10.971 17.565)">
          <path id="Path_25425" data-name="Path 25425" d="M1507.247,314.409h-17.969v-17.97h17.969Zm-16.632-1.337h15.294V297.776h-15.294Z" transform="translate(-1489.278 -296.439)" fill="#00a0c0"/>
        </g>
      </g>
    </g>
  </g>
</svg>
