<svg xmlns="http://www.w3.org/2000/svg" width="71" height="71" viewBox="0 0 71 71">
  <g id="Group_41893" data-name="Group 41893" transform="translate(-185 -1108)">
    <rect id="Rectangle_3069" data-name="Rectangle 3069" width="71" height="71" rx="10" transform="translate(185 1108)" fill="#fff"/>
    <g id="pc" transform="translate(201.15 1125.999)">
      <g id="Group_1444" data-name="Group 1444" transform="translate(0 0)">
        <g id="Group_1443" data-name="Group 1443" transform="translate(0 0)">
          <path id="Path_25206" data-name="Path 25206" d="M34.388,24.615H4.067A4.072,4.072,0,0,0,0,28.682V47.91a4.072,4.072,0,0,0,4.067,4.067h9.821l-1.183,5.916H8.874a.74.74,0,1,0,0,1.479H29.581a.74.74,0,1,0,0-1.479H25.751l-1.183-5.916h9.821a4.072,4.072,0,0,0,4.067-4.067V28.682A4.072,4.072,0,0,0,34.388,24.615ZM14.214,57.894,15.4,51.978h7.662l1.183,5.916H14.214ZM36.977,47.91A2.591,2.591,0,0,1,34.388,50.5H4.067A2.591,2.591,0,0,1,1.479,47.91V46.062h35.5V47.91Zm0-3.328H1.479V43.1H5.916a.74.74,0,0,0,0-1.479H1.479V28.682a2.591,2.591,0,0,1,2.588-2.588H34.388a2.591,2.591,0,0,1,2.588,2.588Z" transform="translate(0 -24.615)" fill="#00a0c0"/>
        </g>
      </g>
      <g id="Group_1446" data-name="Group 1446" transform="translate(17.749 22.186)">
        <g id="Group_1445" data-name="Group 1445">
          <path id="Path_25207" data-name="Path 25207" d="M237.787,320a1.479,1.479,0,1,0,1.479,1.479A1.481,1.481,0,0,0,237.787,320Z" transform="translate(-236.308 -320)" fill="#00a0c0"/>
        </g>
      </g>
      <g id="Group_1448" data-name="Group 1448" transform="translate(16.96 8.456)">
        <g id="Group_1447" data-name="Group 1447">
          <path id="Path_25208" data-name="Path 25208" d="M234.133,142.9l-1.569-1.569,1.307-1.307a.74.74,0,0,0-.357-1.244l-6.8-1.569a.74.74,0,0,0-.887.887l1.569,6.8a.74.74,0,0,0,1.244.357l1.307-1.307,1.569,1.569a.739.739,0,0,0,1.046,0l1.569-1.569A.74.74,0,0,0,234.133,142.9Zm-2.092,1.291-1.569-1.569c-.144-.144-.334-.462-.523-.462a.737.737,0,0,0-.523.217l-1.132,1.132-1-4.836,4.836,1L231,140.813c-.289.289-.043.757.245,1.046l1.569,1.569Z" transform="translate(-225.811 -137.198)" fill="#00a0c0"/>
        </g>
      </g>
      <g id="Group_1450" data-name="Group 1450" transform="translate(14.182 5.677)">
        <g id="Group_1449" data-name="Group 1449" transform="translate(0 0)">
          <path id="Path_25209" data-name="Path 25209" d="M190.818,101.157l-.74-.74a.74.74,0,0,0-1.046,1.046l.74.74a.74.74,0,1,0,1.046-1.046Z" transform="translate(-188.816 -100.201)" fill="#00a0c0"/>
        </g>
      </g>
      <g id="Group_1452" data-name="Group 1452" transform="translate(12.957 8.635)">
        <g id="Group_1451" data-name="Group 1451">
          <path id="Path_25210" data-name="Path 25210" d="M174.289,139.587h-1.046a.74.74,0,1,0,0,1.479h1.046a.74.74,0,1,0,0-1.479Z" transform="translate(-172.504 -139.587)" fill="#00a0c0"/>
        </g>
      </g>
      <g id="Group_1454" data-name="Group 1454" transform="translate(14.182 10.854)">
        <g id="Group_1453" data-name="Group 1453" transform="translate(0 0)">
          <path id="Path_25211" data-name="Path 25211" d="M190.819,169.341a.74.74,0,0,0-1.046,0l-.74.74a.74.74,0,1,0,1.046,1.046l.74-.74A.74.74,0,0,0,190.819,169.341Z" transform="translate(-188.817 -169.124)" fill="#00a0c0"/>
        </g>
      </g>
      <g id="Group_1456" data-name="Group 1456" transform="translate(19.359 5.677)">
        <g id="Group_1455" data-name="Group 1455" transform="translate(0 0)">
          <path id="Path_25212" data-name="Path 25212" d="M259.742,100.418a.74.74,0,0,0-1.046,0l-.74.74A.74.74,0,0,0,259,102.2l.74-.74A.74.74,0,0,0,259.742,100.418Z" transform="translate(-257.74 -100.201)" fill="#00a0c0"/>
        </g>
      </g>
      <g id="Group_1458" data-name="Group 1458" transform="translate(17.14 4.452)">
        <g id="Group_1457" data-name="Group 1457">
          <path id="Path_25213" data-name="Path 25213" d="M228.943,83.888a.739.739,0,0,0-.74.74v1.046a.74.74,0,1,0,1.479,0V84.628A.74.74,0,0,0,228.943,83.888Z" transform="translate(-228.203 -83.888)" fill="#00a0c0"/>
        </g>
      </g>
      <g id="Group_1460" data-name="Group 1460" transform="translate(7.395 17.01)">
        <g id="Group_1459" data-name="Group 1459">
          <path id="Path_25214" data-name="Path 25214" d="M99.926,251.676a.717.717,0,0,0-.042-.139.747.747,0,0,0-.068-.127.718.718,0,0,0-.2-.2.735.735,0,0,0-.128-.068.7.7,0,0,0-.138-.042.728.728,0,0,0-.288,0,.7.7,0,0,0-.138.042.724.724,0,0,0-.128.068.718.718,0,0,0-.2.2.753.753,0,0,0-.068.127.717.717,0,0,0-.042.139.711.711,0,0,0,0,.288.7.7,0,0,0,.042.138.724.724,0,0,0,.068.128.718.718,0,0,0,.2.2.734.734,0,0,0,.128.068.749.749,0,0,0,.138.043.747.747,0,0,0,.288,0,.749.749,0,0,0,.138-.043.722.722,0,0,0,.128-.068.718.718,0,0,0,.2-.2.735.735,0,0,0,.068-.128.7.7,0,0,0,.042-.138.71.71,0,0,0,0-.288Z" transform="translate(-98.462 -251.081)" fill="#00a0c0"/>
        </g>
      </g>
    </g>
  </g>
</svg>
