<svg xmlns="http://www.w3.org/2000/svg" width="71" height="71" viewBox="0 0 71 71">
  <g id="Group_41893" data-name="Group 41893" transform="translate(-185 -1108)">
    <rect id="Rectangle_3069" data-name="Rectangle 3069" width="71" height="71" rx="10" transform="translate(185 1108)" fill="#fff"/>
    <g id="Group_42253" data-name="Group 42253" transform="translate(-142.68 550.332)">
      <g id="Group_42252" data-name="Group 42252" transform="translate(353.504 569.669)">
        <path id="Path_25395" data-name="Path 25395" d="M365.4,607.917a.879.879,0,0,0,.9.874h1.426l0-1.751H366.3A.884.884,0,0,0,365.4,607.917Zm14.552-38.247H365.28a1.946,1.946,0,0,0-1.451.645l-10.644,11.74a1.934,1.934,0,0,0-.505,1.3V590.1h1.559v-6.741h8c3-.086,4.193-1.2,4.128-4.2v-7.73h14.772a1.034,1.034,0,0,1,1.086.978v33.662a1.037,1.037,0,0,1-1.1.978l-14.3,0v1.752l13.325,0c2.731.032,3.6-.978,3.634-3.72v-31.5C383.751,570.842,382.687,569.638,379.956,569.67Zm-15.148,10.493a1.549,1.549,0,0,1-1.451,1.634h-7.838l9.289-9.988Zm-11.339,11.179a.825.825,0,0,0,.771-.9v-.609h-1.561v.609A.845.845,0,0,0,353.468,591.342Z" transform="translate(-352.678 -569.669)" fill="#00a0c0"/>
        <g id="Group_41905" data-name="Group 41905" transform="translate(16.614 4.315)">
          <g id="rupee" transform="translate(0 0.61)">
            <g id="Group_4241" data-name="Group 4241">
              <g id="Path_25181" data-name="Path 25181">
                <g id="Path_25385" data-name="Path 25385" transform="translate(0.119 0.128)">
                  <path id="Path_25410" data-name="Path 25410" d="M372.341,576.1a.173.173,0,0,1,0,.149.169.169,0,0,1-.119.089h-.915a1.874,1.874,0,0,1-.31.849,1.711,1.711,0,0,1-.691.565,1.394,1.394,0,0,1-.676.16h-.655a.024.024,0,0,0-.019.011v.006l2.333,2.212a.191.191,0,0,1,0,.154.18.18,0,0,1-.132.107.2.2,0,0,1-.107-.015l-.019-.009-2.668-2.541a.188.188,0,0,1-.009-.164.2.2,0,0,1,.082-.072.253.253,0,0,1,.059-.024h1.21l.072-.015a1.653,1.653,0,0,0,.527-.2,1.355,1.355,0,0,0,.383-.359,1.31,1.31,0,0,0,.234-.473,1.274,1.274,0,0,0,.034-.189h-2.466a.174.174,0,0,1-.059-.312.182.182,0,0,1,.056-.024h2.474V576a1.417,1.417,0,0,0-.1-.379,1.356,1.356,0,0,0-.139-.247,1.377,1.377,0,0,0-.29-.29,1.585,1.585,0,0,0-.653-.284.6.6,0,0,0-.061-.009h-1.218a.187.187,0,0,1-.108-.065.139.139,0,0,1-.028-.053.119.119,0,0,1-.013-.043.142.142,0,0,1,.013-.073.186.186,0,0,1,.059-.073.226.226,0,0,1,.068-.034h3.75a.182.182,0,0,1,.1.06.179.179,0,0,1,.024.182.2.2,0,0,1-.119.1h-1.6a.02.02,0,0,0-.015.006v.006c.03.019.072.048.121.087a1.476,1.476,0,0,1,.4.538,1.729,1.729,0,0,1,.169.555v.026h.9l.026.009A.215.215,0,0,1,372.341,576.1Z" transform="translate(-368.235 -574.363)" fill="#00a0c0"/>
                  <path id="Path_25411" data-name="Path 25411" d="M371.141,580.508a.3.3,0,0,1-.119-.024l-.048-.028-2.688-2.563a.282.282,0,0,1-.013-.253.3.3,0,0,1,.13-.121.321.321,0,0,1,.075-.03h.025l1.26-.013a1.565,1.565,0,0,0,.5-.19,1.345,1.345,0,0,0,.569-.772c.005-.022.011-.044.015-.067h-2.336a.141.141,0,0,1-.043,0,.27.27,0,0,1-.009-.528.233.233,0,0,1,.054,0h2.326a1.366,1.366,0,0,0-.078-.252,1.181,1.181,0,0,0-.4-.5,1.474,1.474,0,0,0-.612-.267.4.4,0,0,0-.051-.008h-1.232a.281.281,0,0,1-.16-.1.251.251,0,0,1-.045-.083.178.178,0,0,1-.017-.062.242.242,0,0,1,.021-.126.3.3,0,0,1,.089-.108.332.332,0,0,1,.1-.049h3.8a.274.274,0,0,1,.2.331.327.327,0,0,1-.016.046.309.309,0,0,1-.169.148l-.013.013h-1.373a1.572,1.572,0,0,1,.346.5,1.791,1.791,0,0,1,.168.522h.845l.032.011a.311.311,0,0,1,.154.141h0a.274.274,0,0,1,0,.232.271.271,0,0,1-.189.143h-.847a1.97,1.97,0,0,1-.315.806,1.816,1.816,0,0,1-.732.6,1.48,1.48,0,0,1-.718.169h-.443l2.194,2.089a.293.293,0,0,1,.006.233.283.283,0,0,1-.206.163Zm-.044-.205h.008a.115.115,0,0,0,.051.005.079.079,0,0,0,.055-.046.09.09,0,0,0,0-.058l-2.351-2.229V577.9l.011-.019a.121.121,0,0,1,.108-.059h.652a1.293,1.293,0,0,0,.631-.149,1.619,1.619,0,0,0,.658-.538,1.767,1.767,0,0,0,.291-.8l.01-.088h1a.116.116,0,0,0,.032-.037.076.076,0,0,0,0-.061.108.108,0,0,0-.053-.047h-.987v-.124a1.587,1.587,0,0,0-.159-.511,1.37,1.37,0,0,0-.376-.5c-.032-.026-.062-.047-.088-.065h-.069v-.14l.055-.068H372.2a.107.107,0,0,0,.061-.05.079.079,0,0,0-.014-.075.072.072,0,0,0-.032-.024H368.5a.153.153,0,0,0-.025.015.1.1,0,0,0-.028.035.045.045,0,0,0,0,.024l.009.022a.043.043,0,0,0,.011.019.087.087,0,0,0,.041.029h1.205a.665.665,0,0,1,.078.011,1.7,1.7,0,0,1,.693.3,1.393,1.393,0,0,1,.46.576,1.5,1.5,0,0,1,.108.374h0v.146h-2.542a.062.062,0,0,0-.033.01.073.073,0,0,0-.019.1.077.077,0,0,0,.051.036h2.56l-.011.108a1.2,1.2,0,0,1-.037.2,1.411,1.411,0,0,1-.252.508,1.426,1.426,0,0,1-.409.382,1.735,1.735,0,0,1-.559.215l-.09.017h-1.2l-.024.011a.117.117,0,0,0-.048.04.088.088,0,0,0,.006.053Zm-2.113-2.282,1.638-3.225" transform="translate(-368.242 -574.369)" fill="#00a0c0"/>
                </g>
                <g id="Path_25386" data-name="Path 25386">
                  <path id="Path_25412" data-name="Path 25412" d="M371.143,580.531a.327.327,0,0,1-.128-.026l-.056-.032-2.688-2.567a.307.307,0,0,1-.014-.272.376.376,0,0,1,.22-.163h.03l1.255-.012a1.552,1.552,0,0,0,.491-.188,1.227,1.227,0,0,0,.347-.323,1.208,1.208,0,0,0,.215-.43.192.192,0,0,1,.01-.04H368.47a.292.292,0,0,1-.1-.531.292.292,0,0,1,.088-.038.414.414,0,0,1,.062-.005h2.3a1.364,1.364,0,0,0-.072-.221,1.148,1.148,0,0,0-.39-.488,1.467,1.467,0,0,0-.6-.263l-.048-.006h-1.235a.3.3,0,0,1-.172-.107.262.262,0,0,1-.048-.09.175.175,0,0,1-.018-.067.254.254,0,0,1,.024-.138.305.305,0,0,1,.095-.118.355.355,0,0,1,.108-.053l.037-.005h3.778a.3.3,0,0,1,.215.357.267.267,0,0,1-.017.049.324.324,0,0,1-.175.158l-.015.016h-1.331a1.617,1.617,0,0,1,.314.468,1.806,1.806,0,0,1,.167.51l.835.007.031.011a.335.335,0,0,1,.163.152v.005a.283.283,0,0,1-.2.4h-.833a1.966,1.966,0,0,1-.315.8,1.833,1.833,0,0,1-.742.609,1.477,1.477,0,0,1-.728.171h-.389l2.161,2.056a.312.312,0,0,1,.006.25.3.3,0,0,1-.221.176Zm-.034-.246a.082.082,0,0,0,.045.006.06.06,0,0,0,.038-.034.056.056,0,0,0,0-.038l-2.349-2.228V577.9l.017-.029a.15.15,0,0,1,.125-.068h.651a1.286,1.286,0,0,0,.62-.146,1.6,1.6,0,0,0,.645-.53,1.7,1.7,0,0,0,.229-.491,1.8,1.8,0,0,0,.059-.3l.011-.107h1.022c-.006,0,.006-.011.014-.025a.056.056,0,0,0,0-.042.1.1,0,0,0-.042-.038h-1V576a.107.107,0,0,1,0-.026,1.583,1.583,0,0,0-.157-.5,1.367,1.367,0,0,0-.371-.5c-.03-.024-.057-.043-.081-.059H370.5v-.167l.066-.085H372.2a.086.086,0,0,0,.045-.04.058.058,0,0,0-.012-.051.054.054,0,0,0-.019-.015h-3.71l-.017.011a.085.085,0,0,0-.021.026v.032a.086.086,0,0,0,.034.033h1.2a.73.73,0,0,1,.085.011,1.69,1.69,0,0,1,.7.305,1.481,1.481,0,0,1,.315.315,1.527,1.527,0,0,1,.153.271,1.559,1.559,0,0,1,.108.367l.008.006v.182h-2.553a.051.051,0,0,0-.038.026.057.057,0,0,0,.006.053.048.048,0,0,0,.033.023h2.58l-.014.132a1.4,1.4,0,0,1-.292.723,1.48,1.48,0,0,1-.414.387,1.786,1.786,0,0,1-.567.215l-.095.017h-1.2l-.017.008a.091.091,0,0,0-.042.033l.006.028Z" transform="translate(-368.124 -574.243)" fill="#00a0c0"/>
                  <path id="Path_25413" data-name="Path 25413" d="M371.148,580.636a.408.408,0,0,1-.163-.033l-.085-.052-2.707-2.59a.41.41,0,0,1-.019-.359.479.479,0,0,1,.285-.215l.043-.006,1.265-.013a1.45,1.45,0,0,0,.442-.174,1.279,1.279,0,0,0,.492-.616h-2.227a.393.393,0,0,1-.273-.18.387.387,0,0,1,.235-.584.478.478,0,0,1,.087-.009h2.166c-.01-.029-.02-.057-.032-.085a1.113,1.113,0,0,0-.116-.206,1.142,1.142,0,0,0-.242-.241,1.356,1.356,0,0,0-.563-.245l-.039-.005h-1.234a.415.415,0,0,1-.242-.145.37.37,0,0,1-.066-.122.254.254,0,0,1-.023-.089.351.351,0,0,1,.033-.187.42.42,0,0,1,.124-.154.442.442,0,0,1,.132-.068l.051-.009h3.817a.394.394,0,0,1,.29.475.385.385,0,0,1-.23.263l-.03.032h-1.161a1.65,1.65,0,0,1,.191.329,1.863,1.863,0,0,1,.158.452l.783.01.037.012a.438.438,0,0,1,.215.2.392.392,0,0,1,0,.346.385.385,0,0,1-.274.208h-.77a2.1,2.1,0,0,1-.316.753,1.936,1.936,0,0,1-.783.645,1.567,1.567,0,0,1-.77.18h-.141l2.005,1.916a.412.412,0,0,1,.009.329.4.4,0,0,1-.295.237c-.022,0-.044,0-.066,0h0Zm-.121-.234.045.027a.271.271,0,0,0,.077.012h.035a.2.2,0,0,0,.143-.118.211.211,0,0,0,0-.154L369,577.957h.635a1.355,1.355,0,0,0,.682-.159,1.748,1.748,0,0,0,.707-.578,1.89,1.89,0,0,0,.3-.753l.013-.083h.916a.193.193,0,0,0,.128-.243l-.009-.024a.235.235,0,0,0-.116-.107h-.009l-.9-.006-.014-.082a1.688,1.688,0,0,0-.158-.482,1.5,1.5,0,0,0-.3-.443l-.161-.167h1.521l.023-.01a.233.233,0,0,0,.124-.107l.009-.028a.2.2,0,0,0-.135-.237h-3.784a.323.323,0,0,0-.059.034.209.209,0,0,0-.063.08.162.162,0,0,0-.016.087.1.1,0,0,0,.009.034.206.206,0,0,0,.035.07.2.2,0,0,0,.117.073h1.214c.023,0,.045,0,.068.009a1.583,1.583,0,0,1,.645.281,1.236,1.236,0,0,1,.421.528,1.435,1.435,0,0,1,.077.239l.027.12h-2.42a.3.3,0,0,0-.044,0,.191.191,0,0,0-.132.234.21.21,0,0,0,.025.055.192.192,0,0,0,.126.087h2.458l-.026.118a.165.165,0,0,1-.011.044,1.3,1.3,0,0,1-.233.469,1.335,1.335,0,0,1-.372.348,1.646,1.646,0,0,1-.525.2l-1.29.017a.279.279,0,0,0-.151.118.207.207,0,0,0,.011.16Zm.126,0a.2.2,0,0,1-.075-.015l-.029-.019-2.654-2.525-.008-.023a.318.318,0,0,1-.011-.046v-.038l.021-.031a.192.192,0,0,1,.086-.069l.054-.015h1.191l.077-.016a1.66,1.66,0,0,0,.538-.205,1.348,1.348,0,0,0,.384-.36,1.3,1.3,0,0,0,.274-.675v-.024h-2.473a.154.154,0,0,1-.116-.069.146.146,0,0,1,.1-.228h2.473l-.008-.075a1.427,1.427,0,0,0-.1-.344,1.289,1.289,0,0,0-.43-.545,1.6,1.6,0,0,0-.66-.288.4.4,0,0,0-.073-.01H368.5l-.02-.011a.175.175,0,0,1-.076-.074l-.012-.033-.009-.06.011-.026a.175.175,0,0,1,.053-.066.216.216,0,0,1,.033-.02l.043-.01,3.753.01a.146.146,0,0,1,.055.044.155.155,0,0,1,.031.131l-.011.028a.184.184,0,0,1-.1.084l-.034.006h-1.588l-.015.019v.035h.017l.025.017c.026.017.055.038.086.062a1.475,1.475,0,0,1,.4.538,1.652,1.652,0,0,1,.164.527v.06h.922l.018.009a.187.187,0,0,1,.087.078.155.155,0,0,1,.005.129l-.024.039-.076-.055h0v.1h-.933v.019a1.836,1.836,0,0,1-.3.841,1.708,1.708,0,0,1-.691.564,1.4,1.4,0,0,1-.662.155H369a.053.053,0,0,0-.043.024h0v.022l2.342,2.22.006.029a.158.158,0,0,1-.1.187h-.02Zm-2.5-2.586.1.094v-.024l.032-.054.012-.017Zm1.459-3.139a1.822,1.822,0,0,1,.3.144v-.087l.044-.058Z" transform="translate(-368.131 -574.25)" fill="#00a0c0"/>
                </g>
              </g>
            </g>
          </g>
          <g id="Path_25381" data-name="Path 25381" transform="translate(6.217)">
            <g id="Path_25387" data-name="Path 25387">
              <path id="Path_25406" data-name="Path 25406" d="M376.293,573.772v.712a1.5,1.5,0,0,1,.7.284,2.19,2.19,0,0,1,.519.658l-.709.4a.947.947,0,0,0-.835-.582.766.766,0,0,0-.53.189.607.607,0,0,0-.215.471.579.579,0,0,0,.171.43,2.48,2.48,0,0,0,.675.4,6.847,6.847,0,0,1,.727.376,1.911,1.911,0,0,1,.43.34,1.518,1.518,0,0,1,.411,1.075,1.719,1.719,0,0,1-.371,1.09,1.8,1.8,0,0,1-.98.632v.753h-.635v-.73a1.932,1.932,0,0,1-1.086-.491,2.342,2.342,0,0,1-.552-1.155l.8-.168a1.883,1.883,0,0,0,.4.789,1.028,1.028,0,0,0,1.325-.032.866.866,0,0,0,.266-.658.775.775,0,0,0-.221-.577,2.008,2.008,0,0,0-.332-.238,5.548,5.548,0,0,0-.561-.29,2.727,2.727,0,0,1-.926-.582,1.455,1.455,0,0,1-.269-1.435,1.341,1.341,0,0,1,.242-.409,1.5,1.5,0,0,1,.39-.323,2.113,2.113,0,0,1,.526-.215v-.712Z" transform="translate(-373.906 -573.677)" fill="#00a0c0"/>
              <path id="Path_25407" data-name="Path 25407" d="M376.4,581.088h-.832v-.742a2.009,2.009,0,0,1-1.054-.5,2.444,2.444,0,0,1-.583-1.211l-.016-.094.986-.206.022.094a1.782,1.782,0,0,0,.378.753.936.936,0,0,0,1.183-.04.772.772,0,0,0,.234-.583.682.682,0,0,0-.194-.512,1.915,1.915,0,0,0-.311-.221,5.5,5.5,0,0,0-.554-.286,2.794,2.794,0,0,1-.954-.6,1.559,1.559,0,0,1-.293-1.538,1.451,1.451,0,0,1,.259-.44,1.631,1.631,0,0,1,.417-.34,2.2,2.2,0,0,1,.476-.2v-.735h.834v.726a1.61,1.61,0,0,1,.661.288,2.252,2.252,0,0,1,.548.691l.043.084-.887.5-.043-.1a.852.852,0,0,0-.753-.52.661.661,0,0,0-.461.164.512.512,0,0,0-.177.4.49.49,0,0,0,.142.36,2.36,2.36,0,0,0,.645.374,7.01,7.01,0,0,1,.741.383,2.022,2.022,0,0,1,.453.356,1.612,1.612,0,0,1,.438,1.142,1.816,1.816,0,0,1-.391,1.148,1.894,1.894,0,0,1-.959.645Zm-.635-.2h.44v-.73l.075-.018a1.706,1.706,0,0,0,.927-.6,1.619,1.619,0,0,0,.349-1.028,1.414,1.414,0,0,0-.384-1.006,1.8,1.8,0,0,0-.41-.323,6.884,6.884,0,0,0-.717-.371,2.565,2.565,0,0,1-.7-.41.687.687,0,0,1-.206-.508.7.7,0,0,1,.245-.537.864.864,0,0,1,.6-.215,1.05,1.05,0,0,1,.875.538l.538-.3a2.049,2.049,0,0,0-.45-.544,1.394,1.394,0,0,0-.645-.261l-.086-.011v-.7h-.441v.69l-.074.018a2.022,2.022,0,0,0-.5.2,1.411,1.411,0,0,0-.366.3,1.257,1.257,0,0,0-.224.378,1.36,1.36,0,0,0,.252,1.336,2.6,2.6,0,0,0,.886.554,5.727,5.727,0,0,1,.577.3,2.2,2.2,0,0,1,.347.248.875.875,0,0,1,.255.656.964.964,0,0,1-.295.724,1.129,1.129,0,0,1-1.457.037,2,2,0,0,1-.408-.753l-.613.129a2.248,2.248,0,0,0,.511,1.014,1.818,1.818,0,0,0,1.023.458l.087.01Z" transform="translate(-373.914 -573.683)" fill="#00a0c0"/>
            </g>
          </g>
        </g>
        <g id="Path_25405" data-name="Path 25405" transform="translate(4 16.848)">
          <path id="Path_25408" data-name="Path 25408" d="M356.763,589.446a.259.259,0,0,1-.263-.255v-3.433a.249.249,0,0,1,.075-.189.262.262,0,0,1,.45.189v3.424a.262.262,0,0,1-.073.187A.254.254,0,0,1,356.763,589.446Zm1.686,0a.245.245,0,0,1-.185-.076.257.257,0,0,1-.073-.187v-3.424a.259.259,0,0,1,.46-.167l2.205,2.934v-2.767a.254.254,0,0,1,.076-.189.259.259,0,0,1,.187-.073.249.249,0,0,1,.187.073.263.263,0,0,1,.071.189v3.424a.263.263,0,0,1-.071.187.241.241,0,0,1-.187.076.31.31,0,0,1-.108-.023.219.219,0,0,1-.094-.069l-2.206-2.935v2.762a.257.257,0,0,1-.073.187.25.25,0,0,1-.189.076Zm5.448,0a.249.249,0,0,1-.238-.167l-1.483-3.389a.338.338,0,0,1-.015-.283.216.216,0,0,1,.215-.108.242.242,0,0,1,.243.157l1.3,3.118h-.056l1.326-3.118a.266.266,0,0,1,.094-.124.279.279,0,0,1,.144-.033.216.216,0,0,1,.215.108.258.258,0,0,1,0,.241l-1.5,3.434a.294.294,0,0,1-.094.124.23.23,0,0,1-.144.043Zm4.1.051a2.156,2.156,0,0,1-.815-.149,1.835,1.835,0,0,1-.635-.419,1.907,1.907,0,0,1-.412-.645,2.339,2.339,0,0,1,0-1.631,1.906,1.906,0,0,1,.412-.645,1.845,1.845,0,0,1,.634-.419,2.292,2.292,0,0,1,1.627,0,1.867,1.867,0,0,1,1.049,1.06,2.339,2.339,0,0,1,0,1.631,1.86,1.86,0,0,1-1.049,1.063,2.138,2.138,0,0,1-.812.149Zm0-.475a1.514,1.514,0,0,0,.6-.119,1.438,1.438,0,0,0,.789-.822,1.777,1.777,0,0,0,0-1.225,1.454,1.454,0,0,0-.311-.493,1.435,1.435,0,0,0-.478-.323,1.63,1.63,0,0,0-1.208,0,1.407,1.407,0,0,0-.475.323,1.528,1.528,0,0,0-.311.493,1.752,1.752,0,0,0,0,1.225,1.516,1.516,0,0,0,.311.493,1.435,1.435,0,0,0,.474.329,1.5,1.5,0,0,0,.605.119Zm3.248.43a.259.259,0,0,1-.263-.255v-3.438a.253.253,0,0,1,.075-.189.278.278,0,0,1,.376,0,.254.254,0,0,1,.073.189v3.424a.257.257,0,0,1-.073.187.249.249,0,0,1-.189.075Zm3.2.05a1.915,1.915,0,0,1-1.389-.585,2.005,2.005,0,0,1-.415-.645,2.116,2.116,0,0,1-.149-.8,2.078,2.078,0,0,1,.149-.791,2,2,0,0,1,.415-.645,1.949,1.949,0,0,1,.619-.43,1.89,1.89,0,0,1,.769-.157,2,2,0,0,1,.67.1,1.932,1.932,0,0,1,.563.334.271.271,0,0,1,.063.063.2.2,0,0,1,.03.067.387.387,0,0,1,.008.078.217.217,0,0,1-.069.159.264.264,0,0,1-.352.008,1.5,1.5,0,0,0-.387-.248,1.365,1.365,0,0,0-.529-.086,1.331,1.331,0,0,0-.561.121,1.486,1.486,0,0,0-.463.334,1.527,1.527,0,0,0-.311.494,1.692,1.692,0,0,0,0,1.2,1.527,1.527,0,0,0,.311.494,1.457,1.457,0,0,0,.463.331,1.385,1.385,0,0,0,1.049.03,1.875,1.875,0,0,0,.443-.245.265.265,0,0,1,.18-.058.226.226,0,0,1,.149.071.268.268,0,0,1,.041.273.282.282,0,0,1-.061.089,2.036,2.036,0,0,1-.584.329,1.944,1.944,0,0,1-.656.107Zm2.575-.05a.259.259,0,0,1-.263-.255v-3.438a.254.254,0,0,1,.076-.189.259.259,0,0,1,.187-.073H379.3a.257.257,0,0,1,.187.069.244.244,0,0,1,.071.18.226.226,0,0,1-.071.172.26.26,0,0,1-.187.067h-2.023v1.229h1.451a.257.257,0,0,1,.187.069.251.251,0,0,1,0,.349.257.257,0,0,1-.187.069h-1.451v1.264H379.3a.266.266,0,0,1,.187.067.226.226,0,0,1,.071.172.242.242,0,0,1-.071.18.257.257,0,0,1-.187.069Z" transform="translate(-356.391 -585.333)" fill="#00a0c0"/>
          <path id="Path_25409" data-name="Path 25409" d="M369.495,586.824a1.685,1.685,0,0,0-.333-.527,1.529,1.529,0,0,0-.516-.355,1.684,1.684,0,0,0-.645-.129,1.645,1.645,0,0,0-.645.129,1.43,1.43,0,0,0-.516.355,1.687,1.687,0,0,0-.333.527,1.81,1.81,0,0,0,0,1.3,1.735,1.735,0,0,0,.333.538,1.58,1.58,0,0,0,.516.355,1.557,1.557,0,0,0,.634.129h.032a1.812,1.812,0,0,0,.624-.14,1.556,1.556,0,0,0,.849-.882A1.93,1.93,0,0,0,369.495,586.824Zm-.2,1.226a1.325,1.325,0,0,1-.72.763,1.421,1.421,0,0,1-.548.107H368a1.4,1.4,0,0,1-.559-.107,1.527,1.527,0,0,1-.441-.3,1.563,1.563,0,0,1-.28-.462,1.6,1.6,0,0,1,0-1.14,1.564,1.564,0,0,1,.28-.462,1.53,1.53,0,0,1,.441-.3,1.557,1.557,0,0,1,.548-.108h.032a1.657,1.657,0,0,1,.548.108,1.53,1.53,0,0,1,.441.3,1.439,1.439,0,0,1,.28.462A1.6,1.6,0,0,1,369.291,588.049Zm.2-1.226a1.685,1.685,0,0,0-.333-.527,1.529,1.529,0,0,0-.516-.355,1.684,1.684,0,0,0-.645-.129,1.645,1.645,0,0,0-.645.129,1.43,1.43,0,0,0-.516.355,1.687,1.687,0,0,0-.333.527,1.81,1.81,0,0,0,0,1.3,1.735,1.735,0,0,0,.333.538,1.58,1.58,0,0,0,.516.355,1.557,1.557,0,0,0,.634.129h.032a1.812,1.812,0,0,0,.624-.14,1.556,1.556,0,0,0,.849-.882A1.93,1.93,0,0,0,369.495,586.824Zm-.2,1.226a1.325,1.325,0,0,1-.72.763,1.421,1.421,0,0,1-.548.107H368a1.4,1.4,0,0,1-.559-.107,1.527,1.527,0,0,1-.441-.3,1.563,1.563,0,0,1-.28-.462,1.6,1.6,0,0,1,0-1.14,1.564,1.564,0,0,1,.28-.462,1.53,1.53,0,0,1,.441-.3,1.557,1.557,0,0,1,.548-.108h.032a1.657,1.657,0,0,1,.548.108,1.53,1.53,0,0,1,.441.3,1.439,1.439,0,0,1,.28.462A1.6,1.6,0,0,1,369.291,588.049Zm.677-1.43a1.942,1.942,0,0,0-1.118-1.118,2.345,2.345,0,0,0-1.709,0,1.852,1.852,0,0,0-.667.441,1.992,1.992,0,0,0-.441.677,2.5,2.5,0,0,0,0,1.709,1.937,1.937,0,0,0,.441.688,1.894,1.894,0,0,0,.677.441,2.143,2.143,0,0,0,.828.161h.054a2.341,2.341,0,0,0,.817-.151,1.991,1.991,0,0,0,1.118-1.129,2.378,2.378,0,0,0,.151-.86A2.339,2.339,0,0,0,369.968,586.619ZM368,589.393a2.1,2.1,0,0,1-.774-.14,1.6,1.6,0,0,1-.591-.4,1.7,1.7,0,0,1-.387-.6,1.935,1.935,0,0,1-.14-.774,2.094,2.094,0,0,1,.129-.774,2.065,2.065,0,0,1,.387-.6,1.731,1.731,0,0,1,.6-.4,2.136,2.136,0,0,1,1.548,0,1.724,1.724,0,0,1,.978,1,2.136,2.136,0,0,1,0,1.548,1.755,1.755,0,0,1-.978,1A2.1,2.1,0,0,1,368,589.393Zm1.494-2.57a1.685,1.685,0,0,0-.333-.527,1.529,1.529,0,0,0-.516-.355,1.684,1.684,0,0,0-.645-.129,1.645,1.645,0,0,0-.645.129,1.43,1.43,0,0,0-.516.355,1.687,1.687,0,0,0-.333.527,1.81,1.81,0,0,0,0,1.3,1.735,1.735,0,0,0,.333.538,1.58,1.58,0,0,0,.516.355,1.557,1.557,0,0,0,.634.129h.032a1.812,1.812,0,0,0,.624-.14,1.556,1.556,0,0,0,.849-.882A1.93,1.93,0,0,0,369.495,586.824Zm-.2,1.226a1.325,1.325,0,0,1-.72.763,1.421,1.421,0,0,1-.548.107H368a1.4,1.4,0,0,1-.559-.107,1.527,1.527,0,0,1-.441-.3,1.563,1.563,0,0,1-.28-.462,1.6,1.6,0,0,1,0-1.14,1.564,1.564,0,0,1,.28-.462,1.53,1.53,0,0,1,.441-.3,1.557,1.557,0,0,1,.548-.108h.032a1.657,1.657,0,0,1,.548.108,1.53,1.53,0,0,1,.441.3,1.439,1.439,0,0,1,.28.462A1.6,1.6,0,0,1,369.291,588.049Zm.2-1.226a1.685,1.685,0,0,0-.333-.527,1.529,1.529,0,0,0-.516-.355,1.684,1.684,0,0,0-.645-.129,1.645,1.645,0,0,0-.645.129,1.43,1.43,0,0,0-.516.355,1.687,1.687,0,0,0-.333.527,1.81,1.81,0,0,0,0,1.3,1.735,1.735,0,0,0,.333.538,1.58,1.58,0,0,0,.516.355,1.557,1.557,0,0,0,.634.129h.032a1.812,1.812,0,0,0,.624-.14,1.556,1.556,0,0,0,.849-.882A1.93,1.93,0,0,0,369.495,586.824Zm-.2,1.226a1.325,1.325,0,0,1-.72.763,1.421,1.421,0,0,1-.548.107H368a1.4,1.4,0,0,1-.559-.107,1.527,1.527,0,0,1-.441-.3,1.563,1.563,0,0,1-.28-.462,1.6,1.6,0,0,1,0-1.14,1.564,1.564,0,0,1,.28-.462,1.53,1.53,0,0,1,.441-.3,1.557,1.557,0,0,1,.548-.108h.032a1.657,1.657,0,0,1,.548.108,1.53,1.53,0,0,1,.441.3,1.439,1.439,0,0,1,.28.462A1.6,1.6,0,0,1,369.291,588.049Zm6.268.473a.349.349,0,0,0-.247.086,1.965,1.965,0,0,1-.419.226,1.236,1.236,0,0,1-.441.086h-.011a1.384,1.384,0,0,1-.516-.107,1.373,1.373,0,0,1-.71-.763,1.311,1.311,0,0,1-.108-.57,1.437,1.437,0,0,1,.108-.559,1.566,1.566,0,0,1,.28-.462,1.48,1.48,0,0,1,.43-.3,1.088,1.088,0,0,1,.516-.107h.011a1.02,1.02,0,0,1,.473.075,1.3,1.3,0,0,1,.366.226.385.385,0,0,0,.258.1.4.4,0,0,0,.237-.107.308.308,0,0,0,.107-.237.365.365,0,0,0-.011-.107.2.2,0,0,0-.054-.107.287.287,0,0,0-.075-.086,2.275,2.275,0,0,0-.6-.355,2.206,2.206,0,0,0-.7-.107,1.957,1.957,0,0,0-.817.172,1.987,1.987,0,0,0-.656.452,2.167,2.167,0,0,0-.441.677,2.036,2.036,0,0,0-.151.839,2.068,2.068,0,0,0,.151.839,2.163,2.163,0,0,0,.441.677,2,2,0,0,0,1.451.624h.021a2.152,2.152,0,0,0,.688-.118,2.123,2.123,0,0,0,.624-.355.477.477,0,0,0,.086-.118.629.629,0,0,0,.022-.14.33.33,0,0,0-.086-.258A.345.345,0,0,0,375.559,588.522Zm.086.408c-.011.011-.022.032-.032.043a1.833,1.833,0,0,1-1.161.419h-.011a1.725,1.725,0,0,1-1.3-.548,1.745,1.745,0,0,1-.387-.613,2,2,0,0,1-.151-.753,2.223,2.223,0,0,1,.14-.753,2.07,2.07,0,0,1,.4-.613,1.834,1.834,0,0,1,.581-.409,2.116,2.116,0,0,1,1.355-.054,2.1,2.1,0,0,1,.538.323c.022.011.032.032.043.043s.011.011.011.021v.064a.116.116,0,0,1-.032.075.173.173,0,0,1-.1.032.13.13,0,0,1-.108-.032,1.736,1.736,0,0,0-.419-.269,1.713,1.713,0,0,0-.57-.1,1.5,1.5,0,0,0-.613.14,1.609,1.609,0,0,0-.495.355,1.685,1.685,0,0,0-.333.527,1.78,1.78,0,0,0,0,1.29,1.818,1.818,0,0,0,.333.527,1.608,1.608,0,0,0,.495.355,1.48,1.48,0,0,0,.6.129h.021a1.419,1.419,0,0,0,.516-.1,1.831,1.831,0,0,0,.473-.258.138.138,0,0,1,.107-.043.16.16,0,0,1,.075.032.182.182,0,0,1,.032.107A.1.1,0,0,1,375.645,588.931Zm3.655-.075h-1.914v-1.043h1.344a.413.413,0,0,0,.269-.1.35.35,0,0,0,.107-.247.375.375,0,0,0-.107-.258.363.363,0,0,0-.269-.1h-1.344V586.1H379.3a.413.413,0,0,0,.269-.1.35.35,0,0,0,.108-.247.382.382,0,0,0-.108-.269.413.413,0,0,0-.269-.1h-2.279a.424.424,0,0,0-.269.107.357.357,0,0,0-.107.269v3.419a.382.382,0,0,0,.107.269.373.373,0,0,0,.269.108h2.3a.387.387,0,0,0,.237-.1.313.313,0,0,0,.108-.258.3.3,0,0,0-.108-.258A.366.366,0,0,0,379.3,588.856Zm.118.452a.141.141,0,0,1-.108.032h-2.3a.1.1,0,0,1-.108-.043.125.125,0,0,1-.043-.108v-3.43a.154.154,0,0,1,.043-.107.191.191,0,0,1,.108-.043h2.311a.134.134,0,0,1,.118.15.143.143,0,0,1-.032.086.217.217,0,0,1-.118.032h-2.129v1.451h1.57a.154.154,0,0,1,.107.043.131.131,0,0,1,.032.1.122.122,0,0,1-.032.086.154.154,0,0,1-.107.043h-1.57v1.484h2.14a.161.161,0,0,1,.107.032.131.131,0,0,1,.043.1A.174.174,0,0,1,379.418,589.307Zm-18.04-3.806a.3.3,0,0,0-.258-.107.373.373,0,0,0-.269.107.341.341,0,0,0-.107.269v2.43l-2.01-2.666a.356.356,0,0,0-.28-.14h-.021a.348.348,0,0,0-.344.376v3.419a.334.334,0,0,0,.107.269.375.375,0,0,0,.258.108h.021a.37.37,0,0,0,.355-.376v-2.43l1.634,2.161.376.505a.238.238,0,0,0,.14.107.3.3,0,0,0,.14.032h.022a.368.368,0,0,0,.344-.376V585.77A.309.309,0,0,0,361.378,585.5Zm-.107,3.7a.207.207,0,0,1-.032.108.141.141,0,0,1-.107.032.16.16,0,0,1-.075-.011.148.148,0,0,1-.043-.032l-.28-.376-2.129-2.828v3.1a.125.125,0,0,1-.043.108.1.1,0,0,1-.108.043.118.118,0,0,1-.108-.043.164.164,0,0,1-.043-.108V585.77a.164.164,0,0,1,.043-.107.138.138,0,0,1,.108-.043h.011a.149.149,0,0,1,.108.054l2.4,3.193v-3.1a.164.164,0,0,1,.043-.107.128.128,0,0,1,.118-.043.13.13,0,0,1,.107.032.154.154,0,0,1,.032.118Zm9.977-3.806a.373.373,0,0,0-.269.107.382.382,0,0,0-.108.269v3.419a.381.381,0,0,0,.376.376h.011a.4.4,0,0,0,.258-.108.424.424,0,0,0,.108-.269v-3.44A.362.362,0,0,0,371.247,585.394Zm.151,3.806v.011a.136.136,0,0,1-.151.129v.011a.125.125,0,0,1-.107-.043.11.11,0,0,1-.043-.108v-3.43a.13.13,0,0,1,.032-.107.162.162,0,0,1,.118-.043.138.138,0,0,1,.108.043.125.125,0,0,1,.043.107Zm-14.622-3.806a.341.341,0,0,0-.269.107.309.309,0,0,0-.107.269v3.419a.372.372,0,0,0,.366.376h.011a.367.367,0,0,0,.366-.376v-3.44A.353.353,0,0,0,356.776,585.394Zm.14,3.806v.011a.127.127,0,0,1-.14.129l-.011.011a.125.125,0,0,1-.107-.043.138.138,0,0,1-.043-.108v-3.43a.138.138,0,0,1,.043-.107.154.154,0,0,1,.107-.043.147.147,0,0,1,.151.151Zm8.816-3.645a.314.314,0,0,0-.3-.161.488.488,0,0,0-.215.054.405.405,0,0,0-.129.172l-1.193,2.806-1.172-2.806a.35.35,0,0,0-.333-.226.335.335,0,0,0-.323.183.435.435,0,0,0,.011.366l1.3,2.978.183.409a.363.363,0,0,0,.344.237h.011a.322.322,0,0,0,.194-.065.334.334,0,0,0,.129-.172l.183-.409,1.312-3.01A.41.41,0,0,0,365.732,585.555Zm-.2.247-1.355,3.118-.14.323a.137.137,0,0,1-.054.075.116.116,0,0,1-.075.032v-.011h-.011a.153.153,0,0,1-.14-.1l-.14-.323-1.344-3.075a.216.216,0,0,1-.011-.183.108.108,0,0,1,.118-.054.129.129,0,0,1,.129.1l1.258,3.01-.075.172h.387l-.065-.172,1.279-3.021c0-.021.021-.043.043-.064a.317.317,0,0,1,.108-.021.128.128,0,0,1,.1.054A.132.132,0,0,1,365.528,585.8Zm3.967,1.021a1.685,1.685,0,0,0-.333-.527,1.529,1.529,0,0,0-.516-.355,1.684,1.684,0,0,0-.645-.129,1.645,1.645,0,0,0-.645.129,1.43,1.43,0,0,0-.516.355,1.687,1.687,0,0,0-.333.527,1.81,1.81,0,0,0,0,1.3,1.735,1.735,0,0,0,.333.538,1.58,1.58,0,0,0,.516.355,1.557,1.557,0,0,0,.634.129h.032a1.812,1.812,0,0,0,.624-.14,1.556,1.556,0,0,0,.849-.882A1.93,1.93,0,0,0,369.495,586.824Zm-.2,1.226a1.325,1.325,0,0,1-.72.763,1.421,1.421,0,0,1-.548.107H368a1.4,1.4,0,0,1-.559-.107,1.527,1.527,0,0,1-.441-.3,1.563,1.563,0,0,1-.28-.462,1.6,1.6,0,0,1,0-1.14,1.564,1.564,0,0,1,.28-.462,1.53,1.53,0,0,1,.441-.3,1.557,1.557,0,0,1,.548-.108h.032a1.657,1.657,0,0,1,.548.108,1.53,1.53,0,0,1,.441.3,1.439,1.439,0,0,1,.28.462A1.6,1.6,0,0,1,369.291,588.049Z" transform="translate(-356.398 -585.34)" fill="#00a0c0"/>
        </g>
        <g id="Group_41911" data-name="Group 41911" transform="translate(7.936 26.997)">
          <g id="Group_41908" data-name="Group 41908">
            <g id="Path_25396" data-name="Path 25396">
              <path id="Path_25585" data-name="Path 25585" d="M372.746,595.565a.782.782,0,0,1-.785.785H360.845a.785.785,0,1,1,0-1.57h11.117A.789.789,0,0,1,372.746,595.565Z" transform="translate(-360.06 -594.78)" fill="#00a0c0"/>
            </g>
            <g id="Path_25398" data-name="Path 25398" transform="translate(14.448 0.001)">
              <path id="Path_25415" data-name="Path 25415" d="M378.262,596.352h-3.978a.785.785,0,0,1,0-1.571h3.978a.785.785,0,1,1,0,1.571Z" transform="translate(-373.499 -594.781)" fill="#00a0c0"/>
            </g>
          </g>
          <g id="Group_41909" data-name="Group 41909" transform="translate(0 4.709)">
            <g id="Path_25397" data-name="Path 25397">
              <path id="Path_25586" data-name="Path 25586" d="M372.746,599.945a.792.792,0,0,1-.785.8H360.845a.79.79,0,0,1,0-1.581h11.117A.789.789,0,0,1,372.746,599.945Z" transform="translate(-360.06 -599.16)" fill="#00a0c0"/>
            </g>
            <g id="Path_25400" data-name="Path 25400" transform="translate(14.448 0.004)">
              <path id="Path_25417" data-name="Path 25417" d="M378.262,600.735h-3.978a.785.785,0,0,1,0-1.571h3.978a.785.785,0,1,1,0,1.571Z" transform="translate(-373.499 -599.164)" fill="#00a0c0"/>
            </g>
          </g>
        </g>
      </g>
      <g id="Layer_2" data-name="Layer 2" transform="translate(341.68 590.097)">
        <g id="download">
          <path id="Path_25587" data-name="Path 25587" d="M362.225,595.239h5.257V588.67h-1.957l-.183.409a.335.335,0,0,1-.129.172.322.322,0,0,1-.194.065h-.011a.363.363,0,0,1-.344-.237l-.183-.409h-1.892v.269a.325.325,0,0,1-.1.258.321.321,0,0,1-.247.118h-.021a.3.3,0,0,1-.14-.032.237.237,0,0,1-.14-.107l-.376-.505h-1.634v.269a.37.37,0,0,1-.355.376h-.021a.375.375,0,0,1-.258-.108.334.334,0,0,1-.107-.269v-.269h-.946v.269a.367.367,0,0,1-.366.376h-.011a.372.372,0,0,1-.366-.376v-.269H341.68v25.8h25.8V601.528h-5.257a.79.79,0,0,1,0-1.581h5.257v-3.139h-5.257a.785.785,0,1,1,0-1.57ZM349.4,600.066a1.081,1.081,0,0,1,1.505-.247l2.6,1.817V592.97a1.07,1.07,0,0,1,1.559-.957,1.046,1.046,0,0,1,.591.957v8.6l2.58-1.935a1.059,1.059,0,0,1,1.505.215,1.08,1.08,0,0,1-.215,1.505l-4.3,3.225c-.043.032-.1.065-.151.1a1.116,1.116,0,0,1-.495.118,1.154,1.154,0,0,1-.624-.193l-.43-.3-3.87-2.731A1.083,1.083,0,0,1,349.4,600.066Zm12.708,5.806a1.071,1.071,0,0,1,1.075,1.075v2.15a1.078,1.078,0,0,1-1.075,1.075H347.056a1.071,1.071,0,0,1-1.075-1.075v-2.15a1.075,1.075,0,1,1,2.15,0v1.075h12.9v-1.075A1.065,1.065,0,0,1,362.107,605.872Z" transform="translate(-341.68 -588.67)" fill="rgba(0,0,0,0)"/>
          <path id="Path_25588" data-name="Path 25588" d="M359,601.131l-4.3,3.225c-.043.032-.1.065-.15.1a1.116,1.116,0,0,1-.495.118,1.154,1.154,0,0,1-.624-.193l-.43-.3-3.87-2.731a1.075,1.075,0,1,1,1.247-1.752l2.6,1.817v-8.665a1.07,1.07,0,0,1,1.559-.957,1.046,1.046,0,0,1,.591.957v8.6l2.58-1.935a1.059,1.059,0,0,1,1.505.215A1.08,1.08,0,0,1,359,601.131Z" transform="translate(-341.154 -588.445)" fill="#00a0c0"/>
          <path id="Path_25589" data-name="Path 25589" d="M357.142,588.67v.269a.367.367,0,0,1-.366.376h-.011a.372.372,0,0,1-.366-.376v-.269Z" transform="translate(-340.574 -588.67)" fill="rgba(0,0,0,0)"/>
          <path id="Path_25590" data-name="Path 25590" d="M358.712,588.67v.269a.37.37,0,0,1-.355.376h-.022a.375.375,0,0,1-.258-.108.334.334,0,0,1-.107-.269v-.269Z" transform="translate(-340.456 -588.67)" fill="rgba(0,0,0,0)"/>
          <path id="Path_25591" data-name="Path 25591" d="M361.2,588.67v.269a.325.325,0,0,1-.1.258.321.321,0,0,1-.247.118h-.022a.3.3,0,0,1-.14-.032.237.237,0,0,1-.14-.107l-.376-.505Z" transform="translate(-340.29 -588.67)" fill="rgba(0,0,0,0)"/>
          <path id="Path_25592" data-name="Path 25592" d="M362.882,605.745v2.15a1.078,1.078,0,0,1-1.075,1.075H346.755a1.071,1.071,0,0,1-1.075-1.075v-2.15a1.075,1.075,0,1,1,2.15,0v1.075h12.9v-1.075a1.075,1.075,0,1,1,2.15,0Z" transform="translate(-341.379 -587.468)" fill="#00a0c0"/>
          <path id="Path_25593" data-name="Path 25593" d="M363.933,588.67l-.183.409a.335.335,0,0,1-.129.172.322.322,0,0,1-.194.065h-.011a.363.363,0,0,1-.344-.237l-.183-.409Z" transform="translate(-340.087 -588.67)" fill="rgba(0,0,0,0)"/>
          <path id="Path_25594" data-name="Path 25594" d="M366.1,594.78v1.57h-5.257a.785.785,0,1,1,0-1.57Z" transform="translate(-340.299 -588.211)" fill="rgba(0,0,0,0)"/>
          <path id="Path_25595" data-name="Path 25595" d="M366.1,599.16v1.581h-5.257a.79.79,0,0,1,0-1.581Z" transform="translate(-340.299 -587.882)" fill="rgba(0,0,0,0)"/>
          <path id="Path_25596" data-name="Path 25596" d="M362.882,607.745a1.078,1.078,0,0,1-1.075,1.075H346.755a1.075,1.075,0,0,1,0-2.15h15.052A1.071,1.071,0,0,1,362.882,607.745Z" transform="translate(-341.379 -587.318)" fill="#00a0c0"/>
          <path id="Path_25597" data-name="Path 25597" d="M347.83,605.745v2.15a1.075,1.075,0,1,1-2.15,0v-2.15a1.075,1.075,0,1,1,2.15,0Z" transform="translate(-341.379 -587.468)" fill="#00a0c0"/>
          <path id="Path_25598" data-name="Path 25598" d="M361.83,605.745v2.15a1.075,1.075,0,1,1-2.15,0v-2.15a1.075,1.075,0,1,1,2.15,0Z" transform="translate(-340.328 -587.468)" fill="#00a0c0"/>
          <path id="Path_25599" data-name="Path 25599" d="M359,600.606l-4.3,3.225c-.043.032-.1.065-.15.1a1.117,1.117,0,0,1-.495.118,1.154,1.154,0,0,1-.624-.194l-.43-.3-3.87-2.731a1.075,1.075,0,1,1,1.247-1.752l2.6,1.817.011.011,1.064.742.484-.365.591-.441v-.011l2.58-1.935a1.059,1.059,0,0,1,1.505.215A1.08,1.08,0,0,1,359,600.606Z" transform="translate(-341.154 -587.919)" fill="#00a0c0"/>
          <path id="Path_25600" data-name="Path 25600" d="M354.83,592.745v8.612a1.084,1.084,0,0,1-1.075,1.064,1.055,1.055,0,0,1-1.064-1,.183.183,0,0,1-.011-.075v-8.6a1.07,1.07,0,0,1,1.559-.957A1.046,1.046,0,0,1,354.83,592.745Z" transform="translate(-340.854 -588.445)" fill="#00a0c0"/>
        </g>
      </g>
    </g>
  </g>
</svg>
