<svg xmlns="http://www.w3.org/2000/svg" width="71" height="71" viewBox="0 0 71 71">
  <g id="Group_41893" data-name="Group 41893" transform="translate(-185 -1108)">
    <rect id="Rectangle_3069" data-name="Rectangle 3069" width="71" height="71" rx="10" transform="translate(185 1108)" fill="#fff"/>
    <g id="list" transform="translate(206.725 1127)">
      <g id="Group_1406" data-name="Group 1406" transform="translate(0 12.18)">
        <g id="Group_1405" data-name="Group 1405" transform="translate(0)">
          <path id="Path_25174" data-name="Path 25174" d="M40.986,156.5a4.436,4.436,0,1,0,4.436,4.436A4.434,4.434,0,0,0,40.986,156.5Zm0,7.316a2.88,2.88,0,1,1,2.88-2.88A2.878,2.878,0,0,1,40.986,163.816Z" transform="translate(-36.55 -156.5)" fill="#00a0c0"/>
        </g>
      </g>
      <g id="Group_1408" data-name="Group 1408" transform="translate(10.157 13.425)">
        <g id="Group_1407" data-name="Group 1407">
          <path id="Path_25175" data-name="Path 25175" d="M183.666,172.5H167.828a.778.778,0,0,0,0,1.557h15.838a.778.778,0,0,0,0-1.557Z" transform="translate(-167.05 -172.5)" fill="#00a0c0"/>
        </g>
      </g>
      <g id="Group_1410" data-name="Group 1410" transform="translate(10.157 18.251)">
        <g id="Group_1409" data-name="Group 1409">
          <path id="Path_25176" data-name="Path 25176" d="M176.358,234.5h-8.53a.778.778,0,1,0,0,1.557h8.53a.778.778,0,1,0,0-1.557Z" transform="translate(-167.05 -234.5)" fill="#00a0c0"/>
        </g>
      </g>
      <g id="Group_1412" data-name="Group 1412" transform="translate(0)">
        <g id="Group_1411" data-name="Group 1411" transform="translate(0)">
          <path id="Path_25177" data-name="Path 25177" d="M40.986,0a4.436,4.436,0,1,0,4.436,4.436A4.434,4.434,0,0,0,40.986,0Zm0,7.308a2.88,2.88,0,1,1,2.88-2.88A2.878,2.878,0,0,1,40.986,7.308Z" transform="translate(-36.55)" fill="#00a0c0"/>
        </g>
      </g>
      <g id="Group_1414" data-name="Group 1414" transform="translate(10.157 1.206)">
        <g id="Group_1413" data-name="Group 1413">
          <path id="Path_25178" data-name="Path 25178" d="M183.666,15.5H167.828a.778.778,0,0,0,0,1.557h15.838a.778.778,0,0,0,0-1.557Z" transform="translate(-167.05 -15.5)" fill="#00a0c0"/>
        </g>
      </g>
      <g id="Group_1416" data-name="Group 1416" transform="translate(10.157 6.109)">
        <g id="Group_1415" data-name="Group 1415">
          <path id="Path_25179" data-name="Path 25179" d="M176.358,78.5h-8.53a.778.778,0,0,0,0,1.557h8.53a.778.778,0,0,0,0-1.557Z" transform="translate(-167.05 -78.5)" fill="#00a0c0"/>
        </g>
      </g>
      <g id="Group_1418" data-name="Group 1418" transform="translate(0 24.368)">
        <g id="Group_1417" data-name="Group 1417" transform="translate(0)">
          <path id="Path_25180" data-name="Path 25180" d="M40.986,313.1a4.436,4.436,0,1,0,4.436,4.436A4.434,4.434,0,0,0,40.986,313.1Zm0,7.308a2.88,2.88,0,1,1,2.88-2.88A2.878,2.878,0,0,1,40.986,320.408Z" transform="translate(-36.55 -313.1)" fill="#00a0c0"/>
        </g>
      </g>
      <g id="Group_1420" data-name="Group 1420" transform="translate(10.157 25.566)">
        <g id="Group_1419" data-name="Group 1419">
          <path id="Path_25181" data-name="Path 25181" d="M183.666,328.5H167.828a.778.778,0,1,0,0,1.557h15.838a.778.778,0,1,0,0-1.557Z" transform="translate(-167.05 -328.5)" fill="#00a0c0"/>
        </g>
      </g>
      <g id="Group_1422" data-name="Group 1422" transform="translate(10.157 30.47)">
        <g id="Group_1421" data-name="Group 1421">
          <path id="Path_25182" data-name="Path 25182" d="M176.358,391.5h-8.53a.778.778,0,1,0,0,1.557h8.53a.778.778,0,1,0,0-1.557Z" transform="translate(-167.05 -391.5)" fill="#00a0c0"/>
        </g>
      </g>
    </g>
  </g>
</svg>
