<svg xmlns="http://www.w3.org/2000/svg" width="71" height="71" viewBox="0 0 71 71">
  <g id="Group_41893" data-name="Group 41893" transform="translate(-185 -1108)">
    <rect id="Rectangle_3069" data-name="Rectangle 3069" width="71" height="71" rx="10" transform="translate(185 1108)" fill="#fff"/>
    <g id="Outline" transform="translate(208 1126)">
      <path id="Path_25192" data-name="Path 25192" d="M25.605,4.862A2.865,2.865,0,0,0,22.743,2H7.862A2.865,2.865,0,0,0,5,4.862V33.48a2.865,2.865,0,0,0,2.862,2.862H22.743a2.865,2.865,0,0,0,2.862-2.862V28.307q.414-.313.8-.66l.679.682-1.145,1.145L32.168,35.7a2.191,2.191,0,0,0,3.1-3.1L29.04,26.375,27.895,27.52l-.682-.679a11.39,11.39,0,0,0-1.608-16.806Zm8.852,28.549a1.047,1.047,0,1,1-1.48,1.48l-3.7-3.7,1.48-1.48Zm-4.51-4.51-1.48,1.48-.908-.908,1.48-1.48ZM6.145,33.48v-.572h7.887a1.691,1.691,0,0,0,0,2.289H7.862A1.717,1.717,0,0,1,6.145,33.48ZM15.3,34.625a.572.572,0,1,1,.572-.572A.572.572,0,0,1,15.3,34.625Zm9.158-1.145A1.717,1.717,0,0,1,22.743,35.2h-6.17a1.691,1.691,0,0,0,0-2.289h7.887ZM29.04,19.171a10.3,10.3,0,1,1-10.3-10.3,10.3,10.3,0,0,1,10.3,10.3ZM18.737,7.724A11.447,11.447,0,1,0,24.461,29.07v2.694H6.145V6.579H24.461V9.273A11.363,11.363,0,0,0,18.737,7.724ZM6.145,5.434V4.862A1.717,1.717,0,0,1,7.862,3.145H22.743a1.717,1.717,0,0,1,1.717,1.717v.572Z" transform="translate(-5 -2)" fill="#00a0c0"/>
      <path id="Path_25193" data-name="Path 25193" d="M22.979,5.171a.6.6,0,0,0-.813,0,.591.591,0,0,0-.12.189A.572.572,0,0,0,22,5.578a.48.48,0,0,0,.046.218.669.669,0,0,0,.12.189.591.591,0,0,0,.189.12.567.567,0,0,0,.624-.12A.669.669,0,0,0,23.1,5.8a.539.539,0,0,0,0-.435A.661.661,0,0,0,22.979,5.171Z" transform="translate(-12.27 -3.288)" fill="#00a0c0"/>
      <path id="Path_25194" data-name="Path 25194" d="M18,26.724h5.724V21H18Zm1.145-4.579h3.434v3.434H19.145Z" transform="translate(-10.559 -10.125)" fill="#00a0c0"/>
      <path id="Path_25195" data-name="Path 25195" d="M18,38.724h5.724V33H18Zm1.145-4.579h3.434v3.434H19.145Z" transform="translate(-10.559 -15.257)" fill="#00a0c0"/>
      <path id="Path_25196" data-name="Path 25196" d="M35.724,21H30v5.724h5.724Zm-1.145,4.579H31.145V22.145h3.434Z" transform="translate(-15.691 -10.125)" fill="#00a0c0"/>
      <rect id="Rectangle_6482" data-name="Rectangle 6482" width="1.14" height="1.14" transform="translate(9.731 13.153)" fill="#00a0c0"/>
      <rect id="Rectangle_6483" data-name="Rectangle 6483" width="1.14" height="1.14" transform="translate(16.574 13.153)" fill="#00a0c0"/>
      <rect id="Rectangle_6484" data-name="Rectangle 6484" width="1.14" height="1.216" transform="translate(9.731 19.995)" fill="#00a0c0"/>
      <path id="Path_25197" data-name="Path 25197" d="M33.434,34.145H32.289V33H30v1.145h1.145v1.145h2.289Z" transform="translate(-15.691 -15.257)" fill="#00a0c0"/>
      <path id="Path_25198" data-name="Path 25198" d="M31.145,40.434h1.145V38.145H31.145V37H30v2.289h1.145Z" transform="translate(-15.691 -16.967)" fill="#00a0c0"/>
      <rect id="Rectangle_6485" data-name="Rectangle 6485" width="1.14" height="1.14" transform="translate(17.714 22.352)" fill="#00a0c0"/>
      <rect id="Rectangle_6486" data-name="Rectangle 6486" width="1.14" height="1.14" transform="translate(18.855 17.714)" fill="#00a0c0"/>
      <path id="Path_25199" data-name="Path 25199" d="M37.145,38.145v1.145h1.145V37H36v1.145Z" transform="translate(-18.257 -16.967)" fill="#00a0c0"/>
    </g>
  </g>
</svg>
