<svg xmlns="http://www.w3.org/2000/svg" width="46.779" height="69.75" viewBox="0 0 46.779 69.75">
  <path id="Path_25609" data-name="Path 25609" d="M28.923,1.4A25.6,25.6,0,0,1,16.856-1.372,20.927,20.927,0,0,1,8.579-9a20.681,20.681,0,0,1-3-11.09,21.705,21.705,0,0,1,2.395-10,19.9,19.9,0,0,1,6.905-7.673L14.6-33.852a27.839,27.839,0,0,1-5.324-6.975A17.525,17.525,0,0,1,7.347-49.1a18.4,18.4,0,0,1,2.767-10.137A18.594,18.594,0,0,1,17.74-65.96a24.986,24.986,0,0,1,11.183-2.395A24.986,24.986,0,0,1,40.106-65.96a18.594,18.594,0,0,1,7.626,6.719A18.4,18.4,0,0,1,50.5-49.1a18.3,18.3,0,0,1-1.814,8.254,24.918,24.918,0,0,1-5.534,7.091v-3.906a18.7,18.7,0,0,1,6.812,7.533,21.987,21.987,0,0,1,2.395,10.044A20.56,20.56,0,0,1,49.337-9a21.056,21.056,0,0,1-8.324,7.626A25.743,25.743,0,0,1,28.923,1.4Zm0-11.9a10.679,10.679,0,0,0,7.254-2.418q2.79-2.418,2.79-7.161,0-4.7-2.79-7.184a10.49,10.49,0,0,0-7.254-2.488,10.317,10.317,0,0,0-7.208,2.488q-2.744,2.488-2.743,7.184,0,4.743,2.743,7.161A10.5,10.5,0,0,0,28.923-10.509Zm0-31.248a9.277,9.277,0,0,0,5.905-1.79q2.279-1.79,2.279-5.557a6.768,6.768,0,0,0-2.279-5.6,9.116,9.116,0,0,0-5.905-1.837,9.116,9.116,0,0,0-5.906,1.837,6.768,6.768,0,0,0-2.279,5.6q0,3.767,2.279,5.557A9.277,9.277,0,0,0,28.923-41.757Z" transform="translate(-5.58 68.355)" fill="#cdecf1"/>
</svg>
