<svg xmlns="http://www.w3.org/2000/svg" width="45.663" height="68.169" viewBox="0 0 45.663 68.169">
  <path id="Path_25604" data-name="Path 25604" d="M26.04,1.209A23.353,23.353,0,0,1,16.461-.814a23.7,23.7,0,0,1-7.928-5.7A21.408,21.408,0,0,1,3.72-15.159L16-18.414a9.8,9.8,0,0,0,3.836,5.7A10.532,10.532,0,0,0,26.04-10.7a10.3,10.3,0,0,0,5.278-1.4,10.573,10.573,0,0,0,3.813-3.766,10.044,10.044,0,0,0,1.418-5.255A10.36,10.36,0,0,0,33.6-28.528,9.99,9.99,0,0,0,26.04-31.62a9.233,9.233,0,0,0-2.7.4,11.971,11.971,0,0,0-2.511,1.093l-5.673-9.951,21.3-17.67.93,2.7H6.324v-11.9h41.85v11.9l-16.554,16-.093-3.534a20.385,20.385,0,0,1,9.742,4.022,20.41,20.41,0,0,1,6.045,7.719,23.388,23.388,0,0,1,2.069,9.742A20.737,20.737,0,0,1,46.174-9.742a23.423,23.423,0,0,1-8.509,8A23.487,23.487,0,0,1,26.04,1.209Z" transform="translate(-3.72 66.96)" fill="#cdecf1"/>
</svg>
