<svg xmlns="http://www.w3.org/2000/svg" width="46.872" height="68.262" viewBox="0 0 46.872 68.262">
  <path id="Path_25603" data-name="Path 25603" d="M4.65-.093V-11.067L32.736-35.991A19.632,19.632,0,0,0,37.2-41.246a9.928,9.928,0,0,0,1.3-4.6,11.591,11.591,0,0,0-1.256-5.464,9.4,9.4,0,0,0-3.534-3.767,10.168,10.168,0,0,0-5.348-1.372,10.767,10.767,0,0,0-5.65,1.465,10.4,10.4,0,0,0-3.79,3.86,9.71,9.71,0,0,0-1.255,5.185H4.65a22.649,22.649,0,0,1,3.023-11.9,20.383,20.383,0,0,1,8.417-7.765,27.339,27.339,0,0,1,12.555-2.743A23.9,23.9,0,0,1,40.385-65.5a21.017,21.017,0,0,1,8.161,7.975,23.148,23.148,0,0,1,2.976,11.858,21.18,21.18,0,0,1-1.4,8.254,19.31,19.31,0,0,1-4.139,6.045Q43.245-28.6,39.246-25.11L21.111-9.207,20.088-12H51.522v11.9Z" transform="translate(-4.65 68.355)" fill="#cdecf1"/>
</svg>
