<svg xmlns="http://www.w3.org/2000/svg" width="45.477" height="68.355" viewBox="0 0 45.477 68.355">
  <path id="Path_25606" data-name="Path 25606" d="M26.412,1.4A22.03,22.03,0,0,1,16.9-.7,22.862,22.862,0,0,1,9.254-6.51a22.4,22.4,0,0,1-4.6-8.649l12.183-3.255A9.479,9.479,0,0,0,19-14.322a11.137,11.137,0,0,0,3.627,2.674,10.066,10.066,0,0,0,4.255.953,10.3,10.3,0,0,0,5.278-1.4,10.573,10.573,0,0,0,3.813-3.766,10.044,10.044,0,0,0,1.418-5.255,10.044,10.044,0,0,0-1.418-5.254,10.573,10.573,0,0,0-3.813-3.766,10.3,10.3,0,0,0-5.278-1.4,12.256,12.256,0,0,0-5.766,1.186,15.294,15.294,0,0,0-3.348,2.255l-10.7-3.255L9.114-66.96H45.663v11.811H16.089l4.464-4.185-1.4,22.971-2.139-2.6a16.006,16.006,0,0,1,5.719-2.976,21.613,21.613,0,0,1,6-.93A21.661,21.661,0,0,1,39.874-40.06a20.027,20.027,0,0,1,7.533,7.719,22.768,22.768,0,0,1,2.72,11.23A20.531,20.531,0,0,1,46.826-9.7,24.221,24.221,0,0,1,38.13-1.6,23.717,23.717,0,0,1,26.412,1.4Z" transform="translate(-4.65 66.96)" fill="#cdecf1"/>
</svg>
