<svg xmlns="http://www.w3.org/2000/svg" width="46.686" height="69.657" viewBox="0 0 46.686 69.657">
  <path id="Path_25607" data-name="Path 25607" d="M29.853,1.4A23.017,23.017,0,0,1,17.926-1.72a22.464,22.464,0,0,1-8.347-8.672A26.16,26.16,0,0,1,6.51-23.25V-42.687A28.569,28.569,0,0,1,9.579-56.335a21.4,21.4,0,0,1,8.649-8.835,26.628,26.628,0,0,1,13.113-3.092,29.79,29.79,0,0,1,9.3,1.441,21.553,21.553,0,0,1,8.091,4.883l-9.021,9.021a12.118,12.118,0,0,0-3.86-2.6,11.411,11.411,0,0,0-4.51-.93,11.505,11.505,0,0,0-6.3,1.7A11.78,11.78,0,0,0,20.9-50.336a12.031,12.031,0,0,0-1.465,5.789V-34.6L17.3-36.921a19.868,19.868,0,0,1,6.673-4.487,20.422,20.422,0,0,1,7.835-1.558A21.521,21.521,0,0,1,42.943-40.13a20.149,20.149,0,0,1,7.533,7.765A22.9,22.9,0,0,1,53.2-21.111,20.968,20.968,0,0,1,49.988-9.7,23.673,23.673,0,0,1,41.478-1.6,23.2,23.2,0,0,1,29.853,1.4Zm0-12.09a10.3,10.3,0,0,0,5.278-1.4,10.573,10.573,0,0,0,3.813-3.766,10.044,10.044,0,0,0,1.418-5.255,10.3,10.3,0,0,0-1.395-5.278A10.573,10.573,0,0,0,35.2-30.2a10.044,10.044,0,0,0-5.254-1.418A10.166,10.166,0,0,0,24.668-30.2a10.7,10.7,0,0,0-3.813,3.813,10.166,10.166,0,0,0-1.418,5.278,10,10,0,0,0,1.4,5.162A10.821,10.821,0,0,0,24.6-12.137,9.92,9.92,0,0,0,29.853-10.7Z" transform="translate(-6.51 68.262)" fill="#cdecf1"/>
</svg>
