<svg xmlns="http://www.w3.org/2000/svg" width="71" height="71" viewBox="0 0 71 71">
  <g id="Group_41893" data-name="Group 41893" transform="translate(-185 -1108)">
    <rect id="Rectangle_3069" data-name="Rectangle 3069" width="71" height="71" rx="10" transform="translate(185 1108)" fill="#fff"/>
    <g id="pc" transform="translate(201.272 1126.121)">
      <g id="Group_1444" data-name="Group 1444" transform="translate(0 0)">
        <g id="Group_1443" data-name="Group 1443" transform="translate(0 0)">
          <path id="Path_25206" data-name="Path 25206" d="M34.388,24.615H4.067A4.072,4.072,0,0,0,0,28.682V47.91a4.072,4.072,0,0,0,4.067,4.067h9.821l-1.183,5.916H8.874a.74.74,0,1,0,0,1.479H29.581a.74.74,0,1,0,0-1.479H25.751l-1.183-5.916h9.821a4.072,4.072,0,0,0,4.067-4.067V28.682A4.072,4.072,0,0,0,34.388,24.615ZM14.214,57.894,15.4,51.978h7.662l1.183,5.916H14.214ZM36.977,47.91A2.591,2.591,0,0,1,34.388,50.5H4.067A2.591,2.591,0,0,1,1.479,47.91V46.062h35.5V47.91Zm0-3.328H1.479V43.1H5.916a.74.74,0,0,0,0-1.479H1.479V28.682a2.591,2.591,0,0,1,2.588-2.588H34.388a2.591,2.591,0,0,1,2.588,2.588Z" transform="translate(0 -24.615)" fill="#00a0c0"/>
          <g id="Group_41953" data-name="Group 41953" transform="translate(-26.974 -17.222)">
            <path id="Path_25395" data-name="Path 25395" d="M4.208,7.054,8.552,2.262A.8.8,0,0,1,9.143,2h5.991c1.116-.013,1.55.48,1.563,1.6v12.86c-.013,1.116-.367,1.529-1.483,1.516H5.644c-1.116.013-1.63-.32-1.644-1.435V7.589a.8.8,0,0,1,.208-.535ZM8.952,2.871,5.161,6.95h3.2a.631.631,0,0,0,.591-.679ZM5.083,17.254H15.614a.423.423,0,0,0,.447-.4V3.113a.423.423,0,0,0-.447-.4H9.587V5.871C9.614,7.1,9.128,7.551,7.9,7.586H4.635v9.269a.423.423,0,0,0,.447.4Z" transform="translate(35.854 17.925)" fill="#00a0c0"/>
            <g id="Group_41954" data-name="Group 41954" transform="translate(41.451 26.511)">
              <g id="Group_41905" data-name="Group 41905" transform="translate(2.7 0)">
                <g id="rupee" transform="translate(0 0.247)">
                  <g id="Group_4241" data-name="Group 4241" transform="translate(0 0)">
                    <g id="Path_25181" data-name="Path 25181">
                      <g id="Path_25385" data-name="Path 25385" transform="translate(0.049 0.048)">
                        <path id="Path_25410" data-name="Path 25410" d="M1230.176,171.955a.073.073,0,0,1,0,.061.07.07,0,0,1-.049.036h-.374a.766.766,0,0,1-.126.347.7.7,0,0,1-.282.231.567.567,0,0,1-.276.065h-.267a.009.009,0,0,0-.008,0v0l.952.9a.078.078,0,0,1,0,.063.073.073,0,0,1-.054.042.085.085,0,0,1-.043-.006l-.008,0-1.089-1.037a.074.074,0,0,1,0-.067.08.08,0,0,1,.033-.029.1.1,0,0,1,.024-.01h.494l.029-.006a.676.676,0,0,0,.215-.082.562.562,0,0,0,.156-.146.545.545,0,0,0,.1-.193.52.52,0,0,0,.014-.077H1228.6a.07.07,0,0,1-.046-.032.069.069,0,0,1,.02-.1.068.068,0,0,1,.023-.01h1.01s0,0,0,0a.6.6,0,0,0-.042-.155.569.569,0,0,0-.057-.1.559.559,0,0,0-.119-.119.642.642,0,0,0-.266-.116l-.025,0h-.5a.073.073,0,0,1-.042-.027.064.064,0,0,1-.012-.021.055.055,0,0,1,0-.048.077.077,0,0,1,.024-.03.091.091,0,0,1,.027-.014h1.531a.074.074,0,0,1,.039.025.074.074,0,0,1,.01.074.083.083,0,0,1-.049.04l-.005,0h-.647a.007.007,0,0,0-.006,0s0,0,0,0,.029.02.05.035a.6.6,0,0,1,.164.219.7.7,0,0,1,.069.227s0,.006,0,.011h.368l.01,0A.088.088,0,0,1,1230.176,171.955Z" transform="translate(-1228.502 -171.236)" fill="#00a0c0"/>
                        <path id="Path_25411" data-name="Path 25411" d="M1229.223,173.291a.123.123,0,0,1-.049-.01l-.02-.011-1.1-1.046a.116.116,0,0,1-.005-.1.123.123,0,0,1,.053-.049.124.124,0,0,1,.031-.012h.01l.514-.005a.636.636,0,0,0,.2-.078.563.563,0,0,0,.234-.315c0-.009,0-.018.006-.027h-.953l-.018,0a.11.11,0,0,1-.071-.05.109.109,0,0,1,.068-.165l.022,0h.949a.549.549,0,0,0-.032-.1.525.525,0,0,0-.052-.093.514.514,0,0,0-.11-.109.6.6,0,0,0-.25-.109l-.021,0h-.5a.116.116,0,0,1-.065-.041.108.108,0,0,1-.018-.034.072.072,0,0,1-.007-.025.1.1,0,0,1,.009-.052.12.12,0,0,1,.036-.045.131.131,0,0,1,.04-.02l.012,0h1.54a.111.111,0,0,1,.061.038.113.113,0,0,1,.015.115.125.125,0,0,1-.069.061l-.005.005h-.561a.645.645,0,0,1,.141.2.734.734,0,0,1,.069.213l.345,0,.013,0a.126.126,0,0,1,.063.057v0a.112.112,0,0,1,0,.095.11.11,0,0,1-.077.058h-.346a.806.806,0,0,1-.128.329.74.74,0,0,1-.3.245.6.6,0,0,1-.293.069h-.181l.9.853a.119.119,0,0,1,0,.1.114.114,0,0,1-.084.067Zm-.018-.084h0a.043.043,0,0,0,.021,0,.034.034,0,0,0,.022-.019.037.037,0,0,0,0-.023l-.96-.91v-.031l0-.008a.049.049,0,0,1,.044-.024h.266a.526.526,0,0,0,.257-.061.663.663,0,0,0,.269-.219.728.728,0,0,0,.119-.327l0-.036h.41a.048.048,0,0,0,.013-.015.031.031,0,0,0,0-.025.045.045,0,0,0-.022-.019h-.4v-.04a.074.074,0,0,1,0-.011.655.655,0,0,0-.065-.209.563.563,0,0,0-.154-.206L1229,171h-.028v-.057l.022-.028h.665a.044.044,0,0,0,.025-.021.032.032,0,0,0-.006-.031.031.031,0,0,0-.013-.01h-1.518l-.01.006a.038.038,0,0,0-.012.015.017.017,0,0,0,0,.01l0,.009a.025.025,0,0,0,0,.008.037.037,0,0,0,.017.012h.492l.033,0a.686.686,0,0,1,.282.123.594.594,0,0,1,.127.127.613.613,0,0,1,.061.109.634.634,0,0,1,.043.153l0,0v.06h-1.038a.027.027,0,0,0-.013,0,.029.029,0,0,0-.008.04.031.031,0,0,0,.02.015h1.045l0,.044a.564.564,0,0,1-.015.083.578.578,0,0,1-.1.207.59.59,0,0,1-.167.156.714.714,0,0,1-.228.088l-.037.007h-.488l-.01,0a.045.045,0,0,0-.02.016.038.038,0,0,0,0,.021Zm-.862-.932h0Zm.669-1.316h0Z" transform="translate(-1228.042 -170.776)" fill="#00a0c0"/>
                      </g>
                      <g id="Path_25386" data-name="Path 25386">
                        <path id="Path_25412" data-name="Path 25412" d="M1229.118,173.206a.131.131,0,0,1-.052-.01l-.022-.013-1.1-1.048a.126.126,0,0,1-.006-.111.153.153,0,0,1,.09-.067l.012,0,.512,0a.626.626,0,0,0,.2-.077.5.5,0,0,0,.142-.133.493.493,0,0,0,.088-.177l0-.016-.962,0a.119.119,0,0,1-.078-.054.118.118,0,0,1,.072-.178l.025,0h.938a.559.559,0,0,0-.029-.091.527.527,0,0,0-.052-.092.514.514,0,0,0-.108-.107.6.6,0,0,0-.246-.107l-.02,0h-.5a.124.124,0,0,1-.07-.044.117.117,0,0,1-.02-.037.081.081,0,0,1-.007-.027.106.106,0,0,1,.01-.056.122.122,0,0,1,.039-.048.14.14,0,0,1,.042-.022l.015,0h1.542a.121.121,0,0,1,.089.146.145.145,0,0,1-.007.02.133.133,0,0,1-.072.065l-.006.007h-.543a.644.644,0,0,1,.128.191.736.736,0,0,1,.068.208l.341,0,.013,0a.137.137,0,0,1,.067.062v0a.121.121,0,0,1,0,.1.118.118,0,0,1-.083.063h-.34a.81.81,0,0,1-.129.325.748.748,0,0,1-.3.248.606.606,0,0,1-.3.07h-.159l.882.839a.127.127,0,0,1,0,.1.123.123,0,0,1-.09.072Zm-.014-.1a.037.037,0,0,0,.018,0,.024.024,0,0,0,.015-.014.028.028,0,0,0,0-.016l-.959-.909v-.037l.007-.012a.062.062,0,0,1,.051-.028h.266a.527.527,0,0,0,.253-.06.656.656,0,0,0,.265-.216.706.706,0,0,0,.094-.2.722.722,0,0,0,.024-.123l0-.044h.417s0,0,.006-.01a.026.026,0,0,0,0-.017.037.037,0,0,0-.017-.015h-.408v-.049a.052.052,0,0,1,0-.011.642.642,0,0,0-.064-.2.557.557,0,0,0-.152-.2l-.033-.024h-.034v-.068l.027-.035h.668a.035.035,0,0,0,.018-.016.025.025,0,0,0,0-.021l-.008-.006h-1.515l-.007,0a.026.026,0,0,0-.008.011l0,.013a.035.035,0,0,0,.014.014h.491l.034,0a.693.693,0,0,1,.286.125.608.608,0,0,1,.129.129.62.62,0,0,1,.062.111.641.641,0,0,1,.043.15l0,0v.074h-1.046a.02.02,0,0,0-.015.011.024.024,0,0,0,0,.021.02.02,0,0,0,.013.009h1.054l-.006.054a.571.571,0,0,1-.119.3.6.6,0,0,1-.169.158.725.725,0,0,1-.231.089l-.039.007h-.486l-.007,0a.038.038,0,0,0-.017.014.085.085,0,0,0,0,.012Z" transform="translate(-1227.887 -170.634)" fill="#00a0c0"/>
                        <path id="Path_25413" data-name="Path 25413" d="M1228.657,172.792a.17.17,0,0,1-.067-.013l-.035-.021-1.105-1.057a.166.166,0,0,1-.008-.147.2.2,0,0,1,.116-.09l.018,0,.517-.005a.6.6,0,0,0,.18-.071.467.467,0,0,0,.13-.122.456.456,0,0,0,.071-.13l-.909,0a.161.161,0,0,1-.112-.073.158.158,0,0,1,.1-.238.2.2,0,0,1,.036,0h.885q-.006-.018-.013-.035a.488.488,0,0,0-.047-.084.467.467,0,0,0-.1-.1.557.557,0,0,0-.23-.1l-.016,0h-.5a.168.168,0,0,1-.1-.059.147.147,0,0,1-.027-.05.1.1,0,0,1-.009-.036.14.14,0,0,1,.014-.076.161.161,0,0,1,.05-.063.18.18,0,0,1,.054-.028l.021,0,1.558,0a.161.161,0,0,1,.119.194.156.156,0,0,1-.009.027.174.174,0,0,1-.085.082l-.012.013h-.474a.68.68,0,0,1,.078.134.758.758,0,0,1,.065.184l.319,0,.015,0a.178.178,0,0,1,.089.081.161.161,0,0,1,0,.141.157.157,0,0,1-.112.085h-.314a.853.853,0,0,1-.129.308.793.793,0,0,1-.319.262.642.642,0,0,1-.314.073h-.058l.818.782a.168.168,0,0,1,0,.134.163.163,0,0,1-.12.1l-.026,0h0Zm-.05-.1.019.011a.11.11,0,0,0,.032,0h.015a.082.082,0,0,0,.058-.048.086.086,0,0,0,0-.063l-.949-.9h.259a.556.556,0,0,0,.278-.065.713.713,0,0,0,.289-.236.774.774,0,0,0,.122-.308l.005-.034h.374a.08.08,0,0,0,.048-.041.081.081,0,0,0,0-.068.1.1,0,0,0-.047-.044h0l-.369,0-.006-.033a.7.7,0,0,0-.064-.2.609.609,0,0,0-.121-.181l-.066-.068h.621l.009,0a.093.093,0,0,0,.05-.045.072.072,0,0,0,0-.011.081.081,0,0,0-.055-.1h-1.537l-.009,0a.129.129,0,0,0-.024.014.083.083,0,0,0-.026.032.065.065,0,0,0-.006.035.036.036,0,0,0,0,.014.084.084,0,0,0,.014.029.085.085,0,0,0,.048.03h.5l.028,0a.641.641,0,0,1,.262.115.511.511,0,0,1,.172.215.588.588,0,0,1,.031.1l.011.049h-.988l-.018,0a.082.082,0,0,0-.049.039.081.081,0,0,0,0,.079.078.078,0,0,0,.051.036h1l-.01.048,0,.018a.532.532,0,0,1-.1.191.541.541,0,0,1-.152.142.666.666,0,0,1-.214.082l-.527.007a.112.112,0,0,0-.061.048.084.084,0,0,0,0,.065Zm.052,0a.078.078,0,0,1-.031-.006l-.012-.008-1.083-1.031,0-.009a.115.115,0,0,1,0-.019l0-.015.009-.013a.079.079,0,0,1,.035-.028l.022-.006h.486l.031-.006a.679.679,0,0,0,.218-.084.559.559,0,0,0,.157-.147.534.534,0,0,0,.112-.276v-.01h-1.009a.063.063,0,0,1-.047-.028.06.06,0,0,1,.042-.093h1.01l0-.031a.562.562,0,0,0-.1-.243.569.569,0,0,0-.12-.12.655.655,0,0,0-.269-.117l-.03,0h-.5l-.009,0a.073.073,0,0,1-.031-.03l0-.014,0-.025,0-.01a.069.069,0,0,1,.022-.027l.013-.008.018,0,1.532,0a.063.063,0,0,1,.022.018.063.063,0,0,1,.013.053l0,.011a.076.076,0,0,1-.04.034l-.014,0h-.648l-.006.008v.015h.007l.01.007.035.026a.6.6,0,0,1,.164.219.675.675,0,0,1,.067.215v.025h.376l.008,0a.077.077,0,0,1,.036.032.065.065,0,0,1,0,.052l-.01.016-.031-.022h0v.041h-.381v.008a.753.753,0,0,1-.124.341.7.7,0,0,1-.282.231.575.575,0,0,1-.27.063h-.265a.021.021,0,0,0-.018.01h0v.009l.956.906,0,.012a.065.065,0,0,1-.043.076l-.009,0Zm-1.021-1.056.04.038v-.01l.013-.022,0-.007Zm.6-1.281a.75.75,0,0,1,.124.059v-.035l.018-.023Z" transform="translate(-1227.427 -170.18)" fill="#00a0c0"/>
                      </g>
                    </g>
                  </g>
                </g>
                <g id="Path_25381" data-name="Path 25381" transform="translate(2.536 0)">
                  <g id="Path_25387" data-name="Path 25387" transform="translate(0 0)">
                    <path id="Path_25406" data-name="Path 25406" d="M1265.041,168.088v.291a.612.612,0,0,1,.286.116.885.885,0,0,1,.212.268l-.289.162a.386.386,0,0,0-.341-.237.312.312,0,0,0-.216.077.248.248,0,0,0-.086.192.237.237,0,0,0,.07.175,1.009,1.009,0,0,0,.276.162,2.765,2.765,0,0,1,.3.153.789.789,0,0,1,.176.139.621.621,0,0,1,.168.437.7.7,0,0,1-.151.445.732.732,0,0,1-.4.258v.307h-.259v-.3a.788.788,0,0,1-.443-.2.954.954,0,0,1-.225-.471l.326-.068a.765.765,0,0,0,.163.322.382.382,0,0,0,.268.092.378.378,0,0,0,.272-.105.355.355,0,0,0,.108-.268.315.315,0,0,0-.09-.236.836.836,0,0,0-.136-.1,2.314,2.314,0,0,0-.229-.119,1.107,1.107,0,0,1-.378-.237.593.593,0,0,1-.11-.586.546.546,0,0,1,.1-.167.616.616,0,0,1,.159-.13.858.858,0,0,1,.215-.086v-.291Z" transform="translate(-1264.067 -168.047)" fill="#00a0c0"/>
                    <path id="Path_25407" data-name="Path 25407" d="M1264.552,170.611h-.339v-.3a.823.823,0,0,1-.43-.206,1,1,0,0,1-.238-.494l-.006-.038.4-.084.009.038a.726.726,0,0,0,.154.305.382.382,0,0,0,.483-.016.315.315,0,0,0,.1-.238.279.279,0,0,0-.079-.209.807.807,0,0,0-.127-.09,2.33,2.33,0,0,0-.226-.117,1.136,1.136,0,0,1-.389-.245.636.636,0,0,1-.12-.628.584.584,0,0,1,.106-.18.656.656,0,0,1,.17-.138.9.9,0,0,1,.194-.082v-.3l.34,0v.3a.654.654,0,0,1,.27.118.923.923,0,0,1,.224.282l.018.034-.362.2-.017-.041a.348.348,0,0,0-.306-.213.269.269,0,0,0-.188.067.207.207,0,0,0-.072.161.2.2,0,0,0,.058.147.965.965,0,0,0,.262.153,2.841,2.841,0,0,1,.3.156.833.833,0,0,1,.185.145.658.658,0,0,1,.179.466.742.742,0,0,1-.16.469.776.776,0,0,1-.392.264Zm-.259-.08h.179v-.3l.031-.007a.7.7,0,0,0,.378-.244.662.662,0,0,0,.143-.419.578.578,0,0,0-.157-.411.748.748,0,0,0-.167-.131,2.734,2.734,0,0,0-.293-.152,1.044,1.044,0,0,1-.285-.167.279.279,0,0,1-.084-.207.286.286,0,0,1,.1-.222.353.353,0,0,1,.244-.087.428.428,0,0,1,.357.222l.217-.122a.84.84,0,0,0-.184-.222.571.571,0,0,0-.265-.106l-.035,0v-.286h-.18v.282l-.03.008a.82.82,0,0,0-.2.082.574.574,0,0,0-.149.121.5.5,0,0,0-.091.154.554.554,0,0,0,.1.546,1.059,1.059,0,0,0,.362.226,2.366,2.366,0,0,1,.236.122.883.883,0,0,1,.142.1.358.358,0,0,1,.1.268.394.394,0,0,1-.12.3.461.461,0,0,1-.595.015.81.81,0,0,1-.166-.306l-.25.053a.916.916,0,0,0,.209.414.743.743,0,0,0,.418.187l.036,0Z" transform="translate(-1263.538 -167.585)" fill="#00a0c0"/>
                  </g>
                </g>
              </g>
              <g id="Path_25405" data-name="Path 25405" transform="translate(0 4.68)">
                <path id="Path_25408" data-name="Path 25408" d="M1178.709,223.272a.105.105,0,0,1-.107-.107v-1.4a.1.1,0,0,1,.031-.077.107.107,0,0,1,.184.077v1.4a.106.106,0,0,1-.03.076A.1.1,0,0,1,1178.709,223.272Zm.688,0a.1.1,0,0,1-.075-.031.105.105,0,0,1-.03-.076v-1.4a.105.105,0,0,1,.03-.077.108.108,0,0,1,.158.009l.9,1.2v-1.13a.1.1,0,0,1,.031-.077.106.106,0,0,1,.076-.03.1.1,0,0,1,.077.03.108.108,0,0,1,.029.077v1.4a.109.109,0,0,1-.029.076.1.1,0,0,1-.077.031.121.121,0,0,1-.044-.009.087.087,0,0,1-.038-.028l-.9-1.2v1.127a.1.1,0,0,1-.03.076.1.1,0,0,1-.077.031Zm2.224,0a.1.1,0,0,1-.1-.068l-.605-1.384a.138.138,0,0,1-.006-.116.088.088,0,0,1,.087-.045.1.1,0,0,1,.1.064l.531,1.274h-.023l.541-1.274a.108.108,0,0,1,.038-.051.111.111,0,0,1,.059-.013.088.088,0,0,1,.086.044.105.105,0,0,1,0,.1l-.611,1.4a.122.122,0,0,1-.038.051.1.1,0,0,1-.059.018Zm1.672.021a.879.879,0,0,1-.332-.061.752.752,0,0,1-.259-.171.775.775,0,0,1-.168-.262.955.955,0,0,1,0-.666.778.778,0,0,1,.168-.261.753.753,0,0,1,.259-.171.882.882,0,0,1,.333-.061.872.872,0,0,1,.331.061.761.761,0,0,1,.428.433.955.955,0,0,1,0,.666.759.759,0,0,1-.428.434.87.87,0,0,1-.331.061Zm0-.194a.616.616,0,0,0,.247-.049.588.588,0,0,0,.322-.336.726.726,0,0,0,0-.5.6.6,0,0,0-.127-.2.585.585,0,0,0-.2-.133.665.665,0,0,0-.493,0,.569.569,0,0,0-.194.133.61.61,0,0,0-.127.2.712.712,0,0,0,0,.5.61.61,0,0,0,.127.2.581.581,0,0,0,.194.134.615.615,0,0,0,.247.049Zm1.326.173a.105.105,0,0,1-.107-.107v-1.4a.1.1,0,0,1,.031-.077.107.107,0,0,1,.184.077v1.4a.105.105,0,0,1-.03.076.1.1,0,0,1-.077.031Zm1.305.021a.781.781,0,0,1-.567-.239.812.812,0,0,1-.169-.263.861.861,0,0,1-.061-.326.847.847,0,0,1,.061-.323.819.819,0,0,1,.169-.263.8.8,0,0,1,.253-.177.768.768,0,0,1,.314-.064.812.812,0,0,1,.273.041.786.786,0,0,1,.23.137.115.115,0,0,1,.026.026.078.078,0,0,1,.012.027.166.166,0,0,1,0,.032.085.085,0,0,1-.028.065.107.107,0,0,1-.143,0,.615.615,0,0,0-.158-.1.556.556,0,0,0-.216-.035.54.54,0,0,0-.229.05.6.6,0,0,0-.189.136.631.631,0,0,0-.127.2.688.688,0,0,0,0,.491.629.629,0,0,0,.127.2.591.591,0,0,0,.189.135.565.565,0,0,0,.428.012.77.77,0,0,0,.181-.1.109.109,0,0,1,.073-.024.092.092,0,0,1,.061.029.1.1,0,0,1,.025.071.1.1,0,0,1-.008.04.112.112,0,0,1-.025.036.83.83,0,0,1-.239.134.786.786,0,0,1-.268.045Zm1.051-.021a.106.106,0,0,1-.107-.107v-1.4a.1.1,0,0,1,.031-.077.105.105,0,0,1,.076-.03h.933a.106.106,0,0,1,.076.028.1.1,0,0,1,.029.073.092.092,0,0,1-.029.07.108.108,0,0,1-.076.027h-.826v.5h.593a.106.106,0,0,1,.077.028.1.1,0,0,1,0,.142.105.105,0,0,1-.077.028h-.593v.516h.826a.108.108,0,0,1,.076.027.092.092,0,0,1,.029.07.1.1,0,0,1-.029.073.1.1,0,0,1-.076.028Z" transform="translate(-1178.556 -221.593)" fill="#00a0c0"/>
                <path id="Path_25409" data-name="Path 25409" d="M1182.849,222.883h-.022a.921.921,0,0,1-.338-.064.8.8,0,0,1-.275-.182.827.827,0,0,1-.178-.278,1.007,1.007,0,0,1,0-.7.831.831,0,0,1,.178-.277.8.8,0,0,1,.275-.182.98.98,0,0,1,.7,0,.8.8,0,0,1,.274.182.813.813,0,0,1,.18.277,1,1,0,0,1,0,.7.8.8,0,0,1-.454.46A.912.912,0,0,1,1182.849,222.883Zm-.011-.091v0a.834.834,0,0,0,.314-.058.713.713,0,0,0,.4-.408.851.851,0,0,0,.057-.317.841.841,0,0,0-.057-.317.725.725,0,0,0-.159-.246.718.718,0,0,0-.244-.161.89.89,0,0,0-.631,0,.707.707,0,0,0-.243.161.728.728,0,0,0-.158.246.845.845,0,0,0-.057.316.858.858,0,0,0,.057.318.732.732,0,0,0,.158.247.7.7,0,0,0,.243.161.835.835,0,0,0,.315.058v0Zm2.626.091a.826.826,0,0,1-.594-.253.863.863,0,0,1-.179-.278.9.9,0,0,1-.064-.343.884.884,0,0,1,.064-.34.856.856,0,0,1,.178-.277.837.837,0,0,1,.268-.187.791.791,0,0,1,.332-.068.861.861,0,0,1,.288.044.833.833,0,0,1,.245.145.146.146,0,0,1,.033.034.122.122,0,0,1,.02.043.182.182,0,0,1,0,.044.128.128,0,0,1-.043.1.153.153,0,0,1-.095.04.151.151,0,0,1-.108-.036.567.567,0,0,0-.147-.094.511.511,0,0,0-.2-.031h0a.5.5,0,0,0-.209.045.559.559,0,0,0-.175.126.578.578,0,0,0-.117.187.6.6,0,0,0-.042.228.614.614,0,0,0,.042.231.579.579,0,0,0,.117.187.547.547,0,0,0,.175.125.507.507,0,0,0,.207.044h.006a.5.5,0,0,0,.18-.033.724.724,0,0,0,.17-.094.151.151,0,0,1,.1-.033.139.139,0,0,1,.092.043.156.156,0,0,1,.025.16.159.159,0,0,1-.035.051.875.875,0,0,1-.255.144.83.83,0,0,1-.279.048Zm0-.091v0a.763.763,0,0,0,.252-.043.78.78,0,0,0,.225-.127.075.075,0,0,0,.012-.019.054.054,0,0,0,0-.022.056.056,0,0,0-.013-.041.047.047,0,0,0-.031-.014.064.064,0,0,0-.042.014.819.819,0,0,1-.193.107.593.593,0,0,1-.213.039h-.007a.6.6,0,0,1-.244-.053.637.637,0,0,1-.2-.146.671.671,0,0,1-.136-.216.734.734,0,0,1,0-.524.669.669,0,0,1,.136-.216.648.648,0,0,1,.2-.147.61.61,0,0,1,.248-.054.592.592,0,0,1,.232.038.658.658,0,0,1,.172.11.064.064,0,0,0,.044.014.062.062,0,0,0,.039-.017.039.039,0,0,0,.014-.031.1.1,0,0,0,0-.024.031.031,0,0,0,0-.01.071.071,0,0,0-.016-.016.75.75,0,0,0-.22-.131.765.765,0,0,0-.256-.038.727.727,0,0,0-.3.06.745.745,0,0,0-.239.166.771.771,0,0,0-.16.248.807.807,0,0,0-.058.306.817.817,0,0,0,.058.31.766.766,0,0,0,.16.249.732.732,0,0,0,.239.165.718.718,0,0,0,.294.06h0Zm1.989.07h-.937a.156.156,0,0,1-.109-.044.149.149,0,0,1-.044-.109v-1.4a.148.148,0,0,1,.044-.11.16.16,0,0,1,.109-.043h.932a.149.149,0,0,1,.107.04.143.143,0,0,1,.043.108.134.134,0,0,1-.043.1.154.154,0,0,1-.109.039h-.779v.411h.547a.152.152,0,0,1,.107.04.141.141,0,0,1,.043.106.138.138,0,0,1-.043.1.156.156,0,0,1-.11.041h-.545v.425h.781a.152.152,0,0,1,.106.039.136.136,0,0,1,.044.106.14.14,0,0,1-.042.1A.151.151,0,0,1,1187.458,222.863Zm-.938-.091h.933a.062.062,0,0,0,.046-.016.051.051,0,0,0,.014-.038.049.049,0,0,0-.014-.039.059.059,0,0,0-.044-.015h-.873v-.607h.638a.06.06,0,0,0,.046-.016.048.048,0,0,0,.014-.037.051.051,0,0,0-.015-.04.058.058,0,0,0-.043-.015h-.64v-.592h.871a.064.064,0,0,0,.046-.016.045.045,0,0,0,.014-.035.053.053,0,0,0-.058-.058h-.935a.065.065,0,0,0-.045.017.057.057,0,0,0-.017.043v1.4a.059.059,0,0,0,.017.044.055.055,0,0,0,.044.018Zm-6.483.091h-.006a.166.166,0,0,1-.059-.012.13.13,0,0,1-.057-.042l-.82-1.09v.992a.15.15,0,0,1-.153.153h0a.145.145,0,0,1-.1-.045.151.151,0,0,1-.043-.109v-1.4a.148.148,0,0,1,.152-.152h0a.149.149,0,0,1,.115.056l.82,1.09v-.994a.148.148,0,0,1,.045-.109.156.156,0,0,1,.109-.043.143.143,0,0,1,.107.043.154.154,0,0,1,.042.111v1.4a.151.151,0,0,1-.041.107A.145.145,0,0,1,1180.036,222.863Zm-1.094-.091v0a.057.057,0,0,0,.043-.017.061.061,0,0,0,.017-.044v-1.264l.982,1.306a.041.041,0,0,0,.018.013.078.078,0,0,0,.03.006.052.052,0,0,0,.043-.017.061.061,0,0,0,.016-.044v-1.4a.063.063,0,0,0-.017-.046.053.053,0,0,0-.042-.016.061.061,0,0,0-.046.017.058.058,0,0,0-.018.043v1.267l-.982-1.306a.059.059,0,0,0-.045-.021h0a.059.059,0,0,0-.042.017.06.06,0,0,0-.016.043v1.4a.062.062,0,0,0,.017.045.056.056,0,0,0,.042.017v0Zm5.226.091h-.006a.151.151,0,0,1-.15-.154v-1.4a.148.148,0,0,1,.044-.109.158.158,0,0,1,.109-.043.148.148,0,0,1,.152.154v1.4a.151.151,0,0,1-.043.108A.148.148,0,0,1,1184.167,222.863Zm0-.091v0a.06.06,0,0,0,.043-.017.061.061,0,0,0,.017-.044v-1.4a.061.061,0,0,0-.017-.046.067.067,0,0,0-.043-.016.071.071,0,0,0-.047.017.057.057,0,0,0-.017.043v1.4a.059.059,0,0,0,.017.044.052.052,0,0,0,.043.018v0Zm-5.906.091h-.007a.151.151,0,0,1-.15-.154v-1.4a.147.147,0,0,1,.045-.109.157.157,0,0,1,.109-.043.148.148,0,0,1,.152.154v1.4a.15.15,0,0,1-.043.108A.148.148,0,0,1,1178.258,222.863Zm0-.091h0a.059.059,0,0,0,.061-.061v-1.4a.061.061,0,0,0-.017-.046.062.062,0,0,0-.043-.016.07.07,0,0,0-.046.017.057.057,0,0,0-.017.043v1.4a.059.059,0,0,0,.017.044.053.053,0,0,0,.043.018Zm2.915.091h0a.147.147,0,0,1-.139-.1l-.6-1.38a.181.181,0,0,1-.007-.151.134.134,0,0,1,.134-.073.142.142,0,0,1,.136.093l.478,1.146.488-1.148a.154.154,0,0,1,.053-.069.165.165,0,0,1,.088-.022.13.13,0,0,1,.123.067.151.151,0,0,1,0,.142l-.61,1.4a.17.17,0,0,1-.052.068A.145.145,0,0,1,1181.168,222.863Zm0-.091v0a.051.051,0,0,0,.031-.009.079.079,0,0,0,.022-.031l.612-1.4a.063.063,0,0,0,0-.059.041.041,0,0,0-.041-.02.075.075,0,0,0-.042.008.069.069,0,0,0-.017.027l-.523,1.231.03.072h-.159l.031-.072-.512-1.229a.055.055,0,0,0-.054-.036.047.047,0,0,0-.05.022.091.091,0,0,0,.006.073l.607,1.386a.058.058,0,0,0,.055.041Zm1.68-.083h-.012a.641.641,0,0,1-.26-.052.626.626,0,0,1-.209-.145.65.65,0,0,1-.136-.216.756.756,0,0,1,0-.532.652.652,0,0,1,.136-.216.614.614,0,0,1,.21-.144.67.67,0,0,1,.265-.051.653.653,0,0,1,.263.051.627.627,0,0,1,.347.36.769.769,0,0,1,0,.532.632.632,0,0,1-.346.361A.657.657,0,0,1,1182.845,222.689Zm0-.09a.534.534,0,0,0,.224-.045.548.548,0,0,0,.18-.124.54.54,0,0,0,.117-.186.68.68,0,0,0,0-.468.543.543,0,0,0-.117-.186.53.53,0,0,0-.18-.123.579.579,0,0,0-.222-.044h-.013a.582.582,0,0,0-.223.044.523.523,0,0,0-.179.123.563.563,0,0,0-.117.186.667.667,0,0,0,0,.467.564.564,0,0,0,.117.186.534.534,0,0,0,.178.124.559.559,0,0,0,.229.045h.007Z" transform="translate(-1178.101 -221.138)" fill="#00a0c0"/>
              </g>
            </g>
          </g>
        </g>
      </g>
      <g id="Group_1446" data-name="Group 1446" transform="translate(17.749 22.186)">
        <g id="Group_1445" data-name="Group 1445">
          <path id="Path_25207" data-name="Path 25207" d="M237.787,320a1.479,1.479,0,1,0,1.479,1.479A1.481,1.481,0,0,0,237.787,320Z" transform="translate(-236.308 -320)" fill="#00a0c0"/>
        </g>
      </g>
      <g id="Group_1460" data-name="Group 1460" transform="translate(7.395 17.01)">
        <g id="Group_1459" data-name="Group 1459">
          <path id="Path_25214" data-name="Path 25214" d="M99.926,251.676a.717.717,0,0,0-.042-.139.747.747,0,0,0-.068-.127.718.718,0,0,0-.2-.2.735.735,0,0,0-.128-.068.7.7,0,0,0-.138-.042.728.728,0,0,0-.288,0,.7.7,0,0,0-.138.042.724.724,0,0,0-.128.068.718.718,0,0,0-.2.2.753.753,0,0,0-.068.127.717.717,0,0,0-.042.139.711.711,0,0,0,0,.288.7.7,0,0,0,.042.138.724.724,0,0,0,.068.128.718.718,0,0,0,.2.2.734.734,0,0,0,.128.068.749.749,0,0,0,.138.043.747.747,0,0,0,.288,0,.749.749,0,0,0,.138-.043.722.722,0,0,0,.128-.068.718.718,0,0,0,.2-.2.735.735,0,0,0,.068-.128.7.7,0,0,0,.042-.138.71.71,0,0,0,0-.288Z" transform="translate(-98.462 -251.081)" fill="#00a0c0"/>
        </g>
      </g>
    </g>
  </g>
</svg>
