<svg xmlns="http://www.w3.org/2000/svg" width="71" height="71" viewBox="0 0 71 71">
  <g id="Group_41893" data-name="Group 41893" transform="translate(-185 -1108)">
    <rect id="Rectangle_3069" data-name="Rectangle 3069" width="71" height="71" rx="10" transform="translate(185 1108)" fill="#fff"/>
    <g id="megaphone_1_" data-name="megaphone (1)" transform="translate(202 1127)">
      <path id="Path_25200" data-name="Path 25200" d="M293.458,110.729a.729.729,0,1,1-.729-.729A.729.729,0,0,1,293.458,110.729Zm0,0" transform="translate(-270.709 -101.979)" fill="#00a0c0"/>
      <path id="Path_25201" data-name="Path 25201" d="M3.354,20.4V30.624a2.917,2.917,0,0,0,5.833,0V24.791h.729A2.19,2.19,0,0,0,12.1,22.6V20.387a22.265,22.265,0,0,1,12.1,4.044V25.52a2.187,2.187,0,1,0,4.375,0V17.426a3.646,3.646,0,0,0,0-7.145V2.187a2.187,2.187,0,1,0-4.375,0V3.276A22.272,22.272,0,0,1,10.135,7.3c-.057,0-6.489-.012-6.489-.012A3.65,3.65,0,0,0,0,10.937V16.77A3.65,3.65,0,0,0,3.354,20.4ZM7.729,30.624a1.458,1.458,0,0,1-2.917,0V20.416H7.729Zm2.187-7.292H9.187V20.416h.729c.054,0,.3-.02.729-.034V22.6A.73.73,0,0,1,9.917,23.333Zm20.125-9.479a2.191,2.191,0,0,1-1.458,2.062V11.791a2.191,2.191,0,0,1,1.458,2.062ZM25.666,2.187a.729.729,0,0,1,1.458,0V25.52a.729.729,0,1,1-1.458,0ZM24.208,5.048V22.662a24.016,24.016,0,0,0-12.831-3.748c-.243,0-.488,0-.731.01V8.786A23.95,23.95,0,0,0,24.208,5.048ZM1.458,10.937A2.19,2.19,0,0,1,3.646,8.749H9.187V18.958H3.646A2.19,2.19,0,0,1,1.458,16.77Zm0,0" transform="translate(0 0)" fill="#00a0c0"/>
      <path id="Path_25202" data-name="Path 25202" d="M166.729,127.145h.044a29.009,29.009,0,0,0,6.649-1.162.729.729,0,1,0-.444-1.389,27.474,27.474,0,0,1-6.292,1.1.729.729,0,0,0,.043,1.457Zm0,0" transform="translate(-153.897 -115.476)" fill="#00a0c0"/>
      <path id="Path_25203" data-name="Path 25203" d="M455.646,180h-2.917a.729.729,0,0,0,0,1.458h2.917a.729.729,0,1,0,0-1.458Zm0,0" transform="translate(-419.042 -166.875)" fill="#00a0c0"/>
      <path id="Path_25204" data-name="Path 25204" d="M448.8,87.746l2.063-2.062a.729.729,0,0,0-1.031-1.031l-2.063,2.062a.729.729,0,0,0,1.031,1.031Zm0,0" transform="translate(-414.926 -78.282)" fill="#00a0c0"/>
      <path id="Path_25205" data-name="Path 25205" d="M449.836,250.588a.729.729,0,0,0,1.031-1.031l-2.063-2.062a.729.729,0,0,0-1.031,1.031Zm0,0" transform="translate(-414.926 -229.25)" fill="#00a0c0"/>
    </g>
  </g>
</svg>
