<svg xmlns="http://www.w3.org/2000/svg" width="261.042" height="29.008" viewBox="0 0 261.042 29.008">
  <g id="Group_41935" data-name="Group 41935" transform="translate(0.833) rotate(3)">
    <path id="Path_6965" data-name="Path 6965" d="M67.156,13.615q0,.708,0,1.42c-.656.629-1.105.188-1.583-.26H62.355l-1.032.688c-.356-.256-.661-.475-.967-.693l-.456.4a2.661,2.661,0,0,1-.577.141c-.743.016-1.489.007-2.13.007l-.9-.669-1.216.63H53.3l-.648-.487a1.094,1.094,0,0,0-1.086.3c-.2.159-.583.121-.847.237-.358.159-.5.629-1.205.545l-.964-.631-1.269.592h-3.1l-.613-.54H39.694l-.594-.523H37.131l-.62,1.144-1.183-1.1h-3.4l-.72.524a8.345,8.345,0,0,0-1.707-.564c-.56-.063-1.05-.1-1.328-.616l-.733.586-21.267,0-.684-.55-.566.5L4.15,14.2H1.624a3.707,3.707,0,0,1-.281-.294c.294-.277.6-.544.9-.812l1.853-.1c-.711-.581-1.478-.563-1.856-1.038l-.53.468H.176a3.575,3.575,0,0,1-.023-2.149c.779.344,1.453.764,2.4.317V8.121L3.5,7.9l.737.605H5.5l.686-.544.541.476,1.027-.572,1.016.563.63-.478h1.256l.672.54.8-.643,1.352.6H15.82l.753-.52h3.152l.6-.528.669.511.6-.468,2.031.954.611-.417h1.6c.689-.152.851-.866,1.9-.39.572.35-.175.813-.64,1.228a5.087,5.087,0,0,0,2.446.243l.3-1.539.606-.155c.695.124.859.808,1.594,1.018l.564-.411.6.471,2.407-1.152.888.589,7.8,0,.613-.54h4.518l.592-.523,14.157,0,.7-.565c.628-.186.957.212,1.3.545l.566-.5H71.4l.823.6,1.145-.608,9.675,0,.547.483.686-.545,9.65,0,.682-.561c.7-.223.914.391,1.286.527H97.2l.55-.486h6.493l.649.464.673-.5,15.422,0,.714-.583.426.391a2.347,2.347,0,0,0,.583.166c.962.017,1.926.008,2.822.007l.716-.535.424.374,1.933-.5.84.647h1.27l.672-.553,7.733,0,.595-.524c1.217-.136,2.6.033,3.932-.077l.676-.5.556.49.678-.477.674.506h6.429l.661-.54.671.532.487-.429c.59-.122,1.2-.325,1.737.156a1.609,1.609,0,0,0,1.739.17,20.425,20.425,0,0,0,1.957-1h1.176l.6,1.121h.678l1.145-1.01c.834-.4,1.494.1,2.2.333l.485-.427.691.53H172.1l.378-.954c.68-.388,1.446-.017,2.2-.251l.422,1.071a5.166,5.166,0,0,0,2.22.093l.439-1.07h2.654l.683-.6,7.746,0,.6-.525.691.532h1.906l.7-.569h2.554l.575-.507.7.458H201.8l.536-.472.7.506h2.556l.672-.539h2.558l.68.543.46-.4c.085-.048.17-.139.254-.139q4.035-.012,8.068-.01a1.648,1.648,0,0,0,.3-.053L219.1.556h1.419l.539.475.7-.51h1.911l.673.543H226.9l.7-.577H230.8L231.346,0h2.175l.234.808-1.241.381-.191.825-1.07.326c-.01.509.562.656.815,1h.681l.639-1.2,1.153,2.241,1.781.293c-.5.762-1.544-.045-1.941.7.083.073.158.2.235.2,1.07.013,2.141.009,3.29.008l.592-1.1h1v.859l.941.811.683-.519h1.908l.673.552h5.722c.405.142.511.655,1.046.571l-.239.513h-7.892l-.551-.485h-3.814l-.72-.563a3.173,3.173,0,0,1-1.376,1.672c-.667.214-.869-.427-1.357-.572-.951-.413-1.474.553-2.36.577l-.686-.5-1.054.625-1.81-1.362-1.1,1.453-1.27-.706-.63.478-10.268,0-.7.575-.473-.417a5.118,5.118,0,0,0-2.138-.112l-.55.485-.64-.428c-.68-.123-1.419-.295-1.993.509l-13.595,0-.588.518-9.632,0-.73.582h-5.114l-.712.58-12.241,0-.572.5h-3.227l-.642.566-7.893,0-.522-.459-.791.554h-6.393l-.589.519-8.344,0-.724.583h-3.2l-.681-.544-.457.4c-.085.049-.169.141-.253.141-1.927.009-3.853.007-5.745.008-.533.752-1.277.6-2.008.487l-.507-.446-.7.5h-7.006l-.74.583h-3.2l-.484-.39c-.653-.361-1.409-.1-2.13-.16l-.581.513-2.009.087-.825.629-1.136-.56-.609.432h-3.2l-.658-.511-.673.542-4.5,0-.479.422a5.025,5.025,0,0,1-2.115.113l-.664-.51c-.742-.234-.917.457-1.6.574l-1.3-.669-.965.581-.636-.511H86.52c.051-.556-.392-.557-1.061-.581l-.93,1.136H82.381l-.711.579h-3.2l-.681-.564H76.526l-.684-.566c-.936-.1-1.214.652-1.868,1.078H70.039l-.942-.775v-.623l1.286-.529c-.456-.493-1.033-.2-1.59-.3l-.611,1.108c-.351-.18-.689-.353-1.026-.524-.07-.159-.14-.316-.221-.5a4.54,4.54,0,0,0-2.558.227A7.677,7.677,0,0,0,67.156,13.615ZM230.431,1.358c-.474-.557-1.15-.349-1.672-.177a13.513,13.513,0,0,0-1.786.953,2.137,2.137,0,0,1-.649.076c-.384-.219-.649-.731-1.388-.533l-.477.818,1.345.685.508-.417c1.285,0,2.561,0,3.835-.009.076,0,.151-.124.269-.229l-.56-.593Zm-3.2,4.8c0-.681.016-1.3-.018-1.924-.006-.091-.25-.173-.385-.26-.269.384-.893.519-.891,1.054C226.057,5.586,226.453,5.906,227.233,6.159ZM221.741,2.2a1.091,1.091,0,0,0-.093,1.615l1.146-.687ZM56.965,13.269c-2.565-.274-2.565-.274-2.632.237a4.533,4.533,0,0,0,.867.1A2.557,2.557,0,0,0,56.965,13.269Zm14.62,1.372-.017-.36c-.288-.033-.574-.081-.863-.09-.07,0-.22.138-.207.18.044.135.142.355.23.36A5.01,5.01,0,0,0,71.585,14.641ZM219.9,2.288l-.417.2c.072.063.159.188.212.178a2.161,2.161,0,0,0,.434-.178Zm-45.6,1.35c-.072-.063-.159-.188-.212-.178a2.161,2.161,0,0,0-.434.178c.072.063.159.188.212.178A2.188,2.188,0,0,0,174.3,3.638Zm54.636.759.229-.2a2.179,2.179,0,0,0-.432-.178c-.053-.01-.141.115-.212.178Zm-8.9.451-.23-.367c-.072.063-.213.14-.2.187a1.7,1.7,0,0,0,.2.382Zm2.581,0-.229-.366c-.072.063-.213.14-.2.187a1.689,1.689,0,0,0,.2.381Zm1.936,0-.229-.367c-.072.064-.213.141-.2.187a1.7,1.7,0,0,0,.2.382Zm6.642,0,.229.2a1.718,1.718,0,0,0,.2-.382c.011-.047-.131-.124-.2-.187ZM84.488,7.556l-.229-.2a1.67,1.67,0,0,0-.2.382c-.012.047.129.124.2.187Zm-71.97,3.711.415-.2c-.072-.063-.159-.188-.212-.178a2.19,2.19,0,0,0-.434.178Zm71.971.838-.229-.2a1.651,1.651,0,0,0-.2.382c-.012.047.131.123.2.187Zm1.936.569-.229-.2a1.718,1.718,0,0,0-.2.382c-.011.047.131.124.2.187Zm-49.7,1.147-.23-.2a1.646,1.646,0,0,0-.2.382c-.012.047.129.124.2.187Zm2.259-.12-.229.2a2.161,2.161,0,0,0,.434.178c.053.01.141-.115.212-.178Z" fill="#007aff"/>
    <path id="Path_6966" data-name="Path 6966" d="M2.966,1.162a5.5,5.5,0,0,0,.788.032L4.281.042l1.43,1.43V2.03c-.054.061-.115.19-.176.19-1.759.011-3.518.01-5.365.01L0,1.58c.388-.709,1.06-.2,1.617-.51l.2-.862L2.792,0a5.773,5.773,0,0,0,.174,1.162c-.375.093-.815.052-.429.548A6.365,6.365,0,0,0,2.966,1.162Z" transform="translate(243.615 2.713)" fill="#007aff"/>
    <path id="Path_6967" data-name="Path 6967" d="M0,.937V.31C.061.252.126.135.2.131,1.126.077,2.056.039,2.932,0c.6.385,1.148.728,1.089,1.554l1.027.364.044.71-1.4.712L2.253,2.605,3.4,2.062V1.415C2.365.764,1.054,1.564,0,.937Z" transform="translate(255.588 2.163)" fill="#007aff"/>
    <path id="Path_6968" data-name="Path 6968" d="M2.843,0c.566-.03.682.555,1.1.782v1.2l-.584.642c-.134.108-.2.21-.273.211-.738.012-1.476.008-2.1.008L0,2.277c.066-.161.118-.453.2-.461.817-.085,1.638-.124,2.443-.175C3.011,1.109,2.773.537,2.843,0Z" transform="translate(250.47 4.473)" fill="#007aff"/>
    <path id="Path_6969" data-name="Path 6969" d="M2.121,0V.935c-.441.415-.927.134-1.359.23C.513.84.062.672,0,.188.614-.131,1.263.094,2.121,0Z" transform="translate(243.182 1.061)" fill="#007aff"/>
    <path id="Path_6970" data-name="Path 6970" d="M.086,1.065A1.429,1.429,0,0,1,0,.837C.147.751.3.68.456.605L1.7,0l.837,1.042a.574.574,0,0,1-.319.121A7.341,7.341,0,0,1,.086,1.065Z" transform="translate(248.259 1.051)" fill="#007aff"/>
    <path id="Path_6971" data-name="Path 6971" d="M0,.033c.912-.21,1.441.64,2.245.78a1.714,1.714,0,0,1-1.443.3C.564.734,0,.594,0,.033Z" transform="translate(255.017 4.441)" fill="#007aff"/>
    <path id="Path_6972" data-name="Path 6972" d="M2.408.176l-1.552.91L0,.913,1.552,0Z" transform="translate(245.57 1.112)" fill="#007aff"/>
    <path id="Path_6973" data-name="Path 6973" d="M.79,1.157,0,.367C.07-.167.485.052.783.008A.719.719,0,0,1,.79,1.157Z" transform="translate(252.254 1.651)" fill="#007aff"/>
    <path id="Path_6974" data-name="Path 6974" d="M.357,0a1.219,1.219,0,0,1,0,1.724A1.219,1.219,0,0,1,.357,0Z" transform="translate(260.066 5.601)" fill="#007aff"/>
    <path id="Path_6975" data-name="Path 6975" d="M1.233.348l-1.11.694L0,.248C.427-.087.741-.11,1.233.348Z" transform="translate(0.587 8.51)" fill="#007aff"/>
    <path id="Path_6976" data-name="Path 6976" d="M0,.306a.684.684,0,0,1,1.14,0A.683.683,0,0,1,0,.306Z" transform="translate(250.469 4.453)" fill="#007aff"/>
    <path id="Path_6977" data-name="Path 6977" d="M0,.491C.336-.091.336-.091,1.089.158.878.766.365.387,0,.491Z" transform="translate(240.802 3.986)" fill="#007aff"/>
    <path id="Path_6978" data-name="Path 6978" d="M.581.644,0,.148C.5-.237.455.2.581.644Z" transform="translate(252.797 3.989)" fill="#007aff"/>
    <path id="Path_6979" data-name="Path 6979" d="M.581.643,0,.148C.5-.238.455.2.581.643Z" transform="translate(254.503 3.989)" fill="#007aff"/>
    <path id="Path_6980" data-name="Path 6980" d="M.569.178A1.693,1.693,0,0,1,.187.356C.141.367.064.242,0,.179A1.713,1.713,0,0,1,.382,0C.429-.01.506.115.569.178Z" transform="translate(8.551 6.906)" fill="#007aff"/>
    <path id="Path_6981" data-name="Path 6981" d="M.367,0l.2.2A1.784,1.784,0,0,1,.187.38C.14.391.063.266,0,.2Z" transform="translate(0.022 13.14)" fill="#007aff"/>
    <path id="Path_6982" data-name="Path 6982" d="M.643,0,.148.581C-.238.084.2.125.643,0Z" transform="translate(85.54 14.113)" fill="#007aff"/>
  </g>
</svg>
